G04 #@! TF.GenerationSoftware,KiCad,Pcbnew,7.0.2-6a45011f42~172~ubuntu22.04.1*
G04 #@! TF.CreationDate,2023-05-05T21:08:36-04:00*
G04 #@! TF.ProjectId,pmf_B2,706d665f-4232-42e6-9b69-6361645f7063,rev?*
G04 #@! TF.SameCoordinates,Original*
G04 #@! TF.FileFunction,Soldermask,Top*
G04 #@! TF.FilePolarity,Negative*
%FSLAX46Y46*%
G04 Gerber Fmt 4.6, Leading zero omitted, Abs format (unit mm)*
G04 Created by KiCad (PCBNEW 7.0.2-6a45011f42~172~ubuntu22.04.1) date 2023-05-05 21:08:36*
%MOMM*%
%LPD*%
G01*
G04 APERTURE LIST*
%ADD10C,2.340000*%
%ADD11C,1.500000*%
%ADD12C,3.200000*%
%ADD13C,1.600000*%
%ADD14O,1.600000X1.600000*%
%ADD15R,1.700000X1.700000*%
%ADD16O,1.700000X1.700000*%
%ADD17R,1.600000X1.600000*%
%ADD18R,1.600000X2.400000*%
%ADD19O,1.600000X2.400000*%
%ADD20C,1.440000*%
G04 APERTURE END LIST*
D10*
G04 #@! TO.C,RV8*
X122500000Y-114000000D03*
X127500000Y-114000000D03*
X132500000Y-114000000D03*
G04 #@! TD*
G04 #@! TO.C,RV6*
X122500000Y-69000000D03*
X127500000Y-69000000D03*
X132500000Y-69000000D03*
G04 #@! TD*
G04 #@! TO.C,RV9*
X122500000Y-154000000D03*
X127500000Y-154000000D03*
X132500000Y-154000000D03*
G04 #@! TD*
D11*
G04 #@! TO.C,TP10*
X106080000Y-132720000D03*
G04 #@! TD*
D10*
G04 #@! TO.C,RV10*
X172500000Y-154000000D03*
X177500000Y-154000000D03*
X182500000Y-154000000D03*
G04 #@! TD*
D12*
G04 #@! TO.C,H5*
X107500000Y-142000000D03*
G04 #@! TD*
D11*
G04 #@! TO.C,TP12*
X106080000Y-115460000D03*
G04 #@! TD*
D10*
G04 #@! TO.C,RV7*
X172500000Y-69000000D03*
X177500000Y-69000000D03*
X182500000Y-69000000D03*
G04 #@! TD*
D12*
G04 #@! TO.C,H4*
X107500000Y-49000000D03*
G04 #@! TD*
G04 #@! TO.C,H6*
X192500000Y-58000000D03*
G04 #@! TD*
D11*
G04 #@! TO.C,TP11*
X106080000Y-124350000D03*
G04 #@! TD*
D13*
G04 #@! TO.C,C17*
X146710000Y-140850000D03*
X144210000Y-140850000D03*
G04 #@! TD*
G04 #@! TO.C,R67*
X140370000Y-76090000D03*
D14*
X140370000Y-86250000D03*
G04 #@! TD*
D13*
G04 #@! TO.C,C18*
X164490000Y-133230000D03*
X161990000Y-133230000D03*
G04 #@! TD*
G04 #@! TO.C,R74*
X120050000Y-86250000D03*
D14*
X120050000Y-76090000D03*
G04 #@! TD*
D13*
G04 #@! TO.C,R69*
X160690000Y-50690000D03*
D14*
X160690000Y-60850000D03*
G04 #@! TD*
D13*
G04 #@! TO.C,R70*
X158140000Y-154820000D03*
D14*
X158140000Y-144660000D03*
G04 #@! TD*
D15*
G04 #@! TO.C,J4*
X163230000Y-154830000D03*
D16*
X163230000Y-152290000D03*
X163230000Y-149750000D03*
X163230000Y-147210000D03*
X163230000Y-144670000D03*
G04 #@! TD*
D15*
G04 #@! TO.C,J3*
X111160000Y-128160000D03*
D16*
X111160000Y-125620000D03*
X111160000Y-123080000D03*
X111160000Y-120540000D03*
X111160000Y-118000000D03*
X111160000Y-115460000D03*
G04 #@! TD*
D17*
G04 #@! TO.C,D4*
X142900000Y-152280000D03*
D14*
X142900000Y-144660000D03*
G04 #@! TD*
D13*
G04 #@! TO.C,C15*
X145450000Y-76090000D03*
X145450000Y-78590000D03*
G04 #@! TD*
G04 #@! TO.C,R73*
X153060000Y-144660000D03*
D14*
X153060000Y-154820000D03*
G04 #@! TD*
D13*
G04 #@! TO.C,R63*
X150530000Y-86260000D03*
D14*
X150530000Y-76100000D03*
G04 #@! TD*
D13*
G04 #@! TO.C,R66*
X145450000Y-60850000D03*
D14*
X145450000Y-50690000D03*
G04 #@! TD*
D13*
G04 #@! TO.C,C16*
X150530000Y-58310000D03*
X150530000Y-60810000D03*
G04 #@! TD*
G04 #@! TO.C,R72*
X114970000Y-76090000D03*
D14*
X114970000Y-86250000D03*
G04 #@! TD*
D13*
G04 #@! TO.C,R58*
X140370000Y-60850000D03*
D14*
X140370000Y-50690000D03*
G04 #@! TD*
D13*
G04 #@! TO.C,R62*
X155610000Y-86260000D03*
D14*
X155610000Y-76100000D03*
G04 #@! TD*
D13*
G04 #@! TO.C,R61*
X135280000Y-86240000D03*
D14*
X135280000Y-76080000D03*
G04 #@! TD*
D13*
G04 #@! TO.C,R60*
X130200000Y-86240000D03*
D14*
X130200000Y-76080000D03*
G04 #@! TD*
D18*
G04 #@! TO.C,U4*
X150530000Y-133240000D03*
D19*
X153070000Y-133240000D03*
X155610000Y-133240000D03*
X158150000Y-133240000D03*
X158150000Y-140860000D03*
X155610000Y-140860000D03*
X153070000Y-140860000D03*
X150530000Y-140860000D03*
G04 #@! TD*
D20*
G04 #@! TO.C,RV5*
X113700000Y-100220000D03*
X111160000Y-100220000D03*
X108620000Y-100220000D03*
G04 #@! TD*
D13*
G04 #@! TO.C,R71*
X125130000Y-76090000D03*
D14*
X125130000Y-86250000D03*
G04 #@! TD*
D13*
G04 #@! TO.C,R68*
X147980000Y-129420000D03*
D14*
X147980000Y-119260000D03*
G04 #@! TD*
D20*
G04 #@! TO.C,RV11*
X113700000Y-92600000D03*
X111160000Y-92600000D03*
X108620000Y-92600000D03*
G04 #@! TD*
D13*
G04 #@! TO.C,R59*
X155610000Y-60850000D03*
D14*
X155610000Y-50690000D03*
G04 #@! TD*
D18*
G04 #@! TO.C,U3*
X155610000Y-72280000D03*
D19*
X153070000Y-72280000D03*
X150530000Y-72280000D03*
X147990000Y-72280000D03*
X145450000Y-72280000D03*
X142910000Y-72280000D03*
X140370000Y-72280000D03*
X140370000Y-64660000D03*
X142910000Y-64660000D03*
X145450000Y-64660000D03*
X147990000Y-64660000D03*
X150530000Y-64660000D03*
X153070000Y-64660000D03*
X155610000Y-64660000D03*
G04 #@! TD*
D13*
G04 #@! TO.C,R65*
X153070000Y-119260000D03*
D14*
X153070000Y-129420000D03*
G04 #@! TD*
D13*
G04 #@! TO.C,R64*
X158160000Y-119270000D03*
D14*
X158160000Y-129430000D03*
G04 #@! TD*
D17*
G04 #@! TO.C,D3*
X147980000Y-144660000D03*
D14*
X147980000Y-152280000D03*
G04 #@! TD*
D13*
G04 #@! TO.C,C14*
X109890000Y-86210000D03*
X109890000Y-81210000D03*
G04 #@! TD*
M02*
