M48
; DRILL file {KiCad 7.0.1-3b83917a11~172~ubuntu22.04.1} date Sun Apr  2 12:39:57 2023
; FORMAT={-:-/ absolute / metric / decimal}
; #@! TF.CreationDate,2023-04-02T12:39:57-04:00
; #@! TF.GenerationSoftware,Kicad,Pcbnew,7.0.1-3b83917a11~172~ubuntu22.04.1
; #@! TF.FileFunction,MixedPlating,1,2
FMAT,2
METRIC
; #@! TA.AperFunction,Plated,PTH,ViaDrill
T1C0.400
; #@! TA.AperFunction,Plated,PTH,ComponentDrill
T2C0.700
; #@! TA.AperFunction,Plated,PTH,ComponentDrill
T3C0.800
; #@! TA.AperFunction,Plated,PTH,ComponentDrill
T4C1.000
; #@! TA.AperFunction,Plated,PTH,ComponentDrill
T5C1.300
; #@! TA.AperFunction,NonPlated,NPTH,ComponentDrill
T6C3.200
%
G90
G05
T1
X129.321Y-73.042
T2
X106.08Y-115.46
X106.08Y-124.35
X106.08Y-132.72
T3
X108.62Y-92.6
X108.62Y-100.22
X109.89Y-81.21
X109.89Y-86.21
X111.16Y-92.6
X111.16Y-100.22
X113.7Y-92.6
X113.7Y-100.22
X114.97Y-76.09
X114.97Y-86.25
X120.05Y-76.09
X120.05Y-86.25
X125.13Y-76.09
X125.13Y-86.25
X130.2Y-76.08
X130.2Y-86.24
X135.28Y-76.08
X135.28Y-86.24
X140.37Y-50.69
X140.37Y-60.85
X140.37Y-64.66
X140.37Y-72.28
X140.37Y-76.09
X140.37Y-86.25
X142.9Y-144.66
X142.9Y-152.28
X142.91Y-64.66
X142.91Y-72.28
X144.21Y-140.85
X145.45Y-50.69
X145.45Y-60.85
X145.45Y-64.66
X145.45Y-72.28
X145.45Y-76.09
X145.45Y-78.59
X146.71Y-140.85
X147.98Y-119.26
X147.98Y-129.42
X147.98Y-144.66
X147.98Y-152.28
X147.99Y-64.66
X147.99Y-72.28
X150.53Y-58.31
X150.53Y-60.81
X150.53Y-64.66
X150.53Y-72.28
X150.53Y-76.1
X150.53Y-86.26
X150.53Y-133.24
X150.53Y-140.86
X153.06Y-144.66
X153.06Y-154.82
X153.07Y-64.66
X153.07Y-72.28
X153.07Y-119.26
X153.07Y-129.42
X153.07Y-133.24
X153.07Y-140.86
X155.61Y-50.69
X155.61Y-60.85
X155.61Y-64.66
X155.61Y-72.28
X155.61Y-76.1
X155.61Y-86.26
X155.61Y-133.24
X155.61Y-140.86
X158.14Y-144.66
X158.14Y-154.82
X158.15Y-133.24
X158.15Y-140.86
X158.16Y-119.27
X158.16Y-129.43
X160.69Y-50.69
X160.69Y-60.85
X161.99Y-133.23
X164.49Y-133.23
T4
X111.16Y-115.46
X111.16Y-118.0
X111.16Y-120.54
X111.16Y-123.08
X111.16Y-125.62
X111.16Y-128.16
X163.23Y-144.67
X163.23Y-147.21
X163.23Y-149.75
X163.23Y-152.29
X163.23Y-154.83
T5
X122.5Y-69.0
X122.5Y-114.0
X122.5Y-154.0
X127.5Y-69.0
X127.5Y-114.0
X127.5Y-154.0
X132.5Y-69.0
X132.5Y-114.0
X132.5Y-154.0
X172.5Y-69.0
X172.5Y-154.0
X177.5Y-69.0
X177.5Y-154.0
X182.5Y-69.0
X182.5Y-154.0
T6
X107.5Y-49.0
X107.5Y-142.0
X192.5Y-58.0
T0
M30
