G04 #@! TF.GenerationSoftware,KiCad,Pcbnew,7.0.0-rc2-unknown-92a61b187f~165~ubuntu22.04.1*
G04 #@! TF.CreationDate,2023-02-10T23:31:31-05:00*
G04 #@! TF.ProjectId,pmf_b2,706d665f-6232-42e6-9b69-6361645f7063,rev?*
G04 #@! TF.SameCoordinates,Original*
G04 #@! TF.FileFunction,Legend,Top*
G04 #@! TF.FilePolarity,Positive*
%FSLAX46Y46*%
G04 Gerber Fmt 4.6, Leading zero omitted, Abs format (unit mm)*
G04 Created by KiCad (PCBNEW 7.0.0-rc2-unknown-92a61b187f~165~ubuntu22.04.1) date 2023-02-10 23:31:31*
%MOMM*%
%LPD*%
G01*
G04 APERTURE LIST*
%ADD10C,0.150000*%
%ADD11C,0.120000*%
G04 APERTURE END LIST*
D10*
G04 #@! TO.C,TP10*
X108653535Y-134023571D02*
X108653535Y-133595000D01*
X109403535Y-133809285D02*
X108653535Y-133809285D01*
X109403535Y-133344999D02*
X108653535Y-133344999D01*
X108653535Y-133344999D02*
X108653535Y-133059285D01*
X108653535Y-133059285D02*
X108689250Y-132987856D01*
X108689250Y-132987856D02*
X108724964Y-132952142D01*
X108724964Y-132952142D02*
X108796392Y-132916428D01*
X108796392Y-132916428D02*
X108903535Y-132916428D01*
X108903535Y-132916428D02*
X108974964Y-132952142D01*
X108974964Y-132952142D02*
X109010678Y-132987856D01*
X109010678Y-132987856D02*
X109046392Y-133059285D01*
X109046392Y-133059285D02*
X109046392Y-133344999D01*
X109403535Y-132202142D02*
X109403535Y-132630713D01*
X109403535Y-132416428D02*
X108653535Y-132416428D01*
X108653535Y-132416428D02*
X108760678Y-132487856D01*
X108760678Y-132487856D02*
X108832107Y-132559285D01*
X108832107Y-132559285D02*
X108867821Y-132630713D01*
X108653535Y-131737856D02*
X108653535Y-131666427D01*
X108653535Y-131666427D02*
X108689250Y-131594999D01*
X108689250Y-131594999D02*
X108724964Y-131559285D01*
X108724964Y-131559285D02*
X108796392Y-131523570D01*
X108796392Y-131523570D02*
X108939250Y-131487856D01*
X108939250Y-131487856D02*
X109117821Y-131487856D01*
X109117821Y-131487856D02*
X109260678Y-131523570D01*
X109260678Y-131523570D02*
X109332107Y-131559285D01*
X109332107Y-131559285D02*
X109367821Y-131594999D01*
X109367821Y-131594999D02*
X109403535Y-131666427D01*
X109403535Y-131666427D02*
X109403535Y-131737856D01*
X109403535Y-131737856D02*
X109367821Y-131809285D01*
X109367821Y-131809285D02*
X109332107Y-131844999D01*
X109332107Y-131844999D02*
X109260678Y-131880713D01*
X109260678Y-131880713D02*
X109117821Y-131916427D01*
X109117821Y-131916427D02*
X108939250Y-131916427D01*
X108939250Y-131916427D02*
X108796392Y-131880713D01*
X108796392Y-131880713D02*
X108724964Y-131844999D01*
X108724964Y-131844999D02*
X108689250Y-131809285D01*
X108689250Y-131809285D02*
X108653535Y-131737856D01*
X108101821Y-134041428D02*
X108101821Y-133470000D01*
X108387535Y-133755714D02*
X107816107Y-133755714D01*
X108387535Y-132720000D02*
X108387535Y-133148571D01*
X108387535Y-132934286D02*
X107637535Y-132934286D01*
X107637535Y-132934286D02*
X107744678Y-133005714D01*
X107744678Y-133005714D02*
X107816107Y-133077143D01*
X107816107Y-133077143D02*
X107851821Y-133148571D01*
X107708964Y-132434285D02*
X107673250Y-132398571D01*
X107673250Y-132398571D02*
X107637535Y-132327143D01*
X107637535Y-132327143D02*
X107637535Y-132148571D01*
X107637535Y-132148571D02*
X107673250Y-132077143D01*
X107673250Y-132077143D02*
X107708964Y-132041428D01*
X107708964Y-132041428D02*
X107780392Y-132005714D01*
X107780392Y-132005714D02*
X107851821Y-132005714D01*
X107851821Y-132005714D02*
X107958964Y-132041428D01*
X107958964Y-132041428D02*
X108387535Y-132470000D01*
X108387535Y-132470000D02*
X108387535Y-132005714D01*
X107637535Y-131791428D02*
X108387535Y-131541428D01*
X108387535Y-131541428D02*
X107637535Y-131291428D01*
G04 #@! TO.C,RV10*
X167275535Y-138303571D02*
X166918392Y-138553571D01*
X167275535Y-138732142D02*
X166525535Y-138732142D01*
X166525535Y-138732142D02*
X166525535Y-138446428D01*
X166525535Y-138446428D02*
X166561250Y-138374999D01*
X166561250Y-138374999D02*
X166596964Y-138339285D01*
X166596964Y-138339285D02*
X166668392Y-138303571D01*
X166668392Y-138303571D02*
X166775535Y-138303571D01*
X166775535Y-138303571D02*
X166846964Y-138339285D01*
X166846964Y-138339285D02*
X166882678Y-138374999D01*
X166882678Y-138374999D02*
X166918392Y-138446428D01*
X166918392Y-138446428D02*
X166918392Y-138732142D01*
X166525535Y-138089285D02*
X167275535Y-137839285D01*
X167275535Y-137839285D02*
X166525535Y-137589285D01*
X167275535Y-136946428D02*
X167275535Y-137374999D01*
X167275535Y-137160714D02*
X166525535Y-137160714D01*
X166525535Y-137160714D02*
X166632678Y-137232142D01*
X166632678Y-137232142D02*
X166704107Y-137303571D01*
X166704107Y-137303571D02*
X166739821Y-137374999D01*
X166525535Y-136482142D02*
X166525535Y-136410713D01*
X166525535Y-136410713D02*
X166561250Y-136339285D01*
X166561250Y-136339285D02*
X166596964Y-136303571D01*
X166596964Y-136303571D02*
X166668392Y-136267856D01*
X166668392Y-136267856D02*
X166811250Y-136232142D01*
X166811250Y-136232142D02*
X166989821Y-136232142D01*
X166989821Y-136232142D02*
X167132678Y-136267856D01*
X167132678Y-136267856D02*
X167204107Y-136303571D01*
X167204107Y-136303571D02*
X167239821Y-136339285D01*
X167239821Y-136339285D02*
X167275535Y-136410713D01*
X167275535Y-136410713D02*
X167275535Y-136482142D01*
X167275535Y-136482142D02*
X167239821Y-136553571D01*
X167239821Y-136553571D02*
X167204107Y-136589285D01*
X167204107Y-136589285D02*
X167132678Y-136624999D01*
X167132678Y-136624999D02*
X166989821Y-136660713D01*
X166989821Y-136660713D02*
X166811250Y-136660713D01*
X166811250Y-136660713D02*
X166668392Y-136624999D01*
X166668392Y-136624999D02*
X166596964Y-136589285D01*
X166596964Y-136589285D02*
X166561250Y-136553571D01*
X166561250Y-136553571D02*
X166525535Y-136482142D01*
X177775535Y-138803571D02*
X177775535Y-139232142D01*
X177775535Y-139017857D02*
X177025535Y-139017857D01*
X177025535Y-139017857D02*
X177132678Y-139089285D01*
X177132678Y-139089285D02*
X177204107Y-139160714D01*
X177204107Y-139160714D02*
X177239821Y-139232142D01*
X177025535Y-138339285D02*
X177025535Y-138267856D01*
X177025535Y-138267856D02*
X177061250Y-138196428D01*
X177061250Y-138196428D02*
X177096964Y-138160714D01*
X177096964Y-138160714D02*
X177168392Y-138124999D01*
X177168392Y-138124999D02*
X177311250Y-138089285D01*
X177311250Y-138089285D02*
X177489821Y-138089285D01*
X177489821Y-138089285D02*
X177632678Y-138124999D01*
X177632678Y-138124999D02*
X177704107Y-138160714D01*
X177704107Y-138160714D02*
X177739821Y-138196428D01*
X177739821Y-138196428D02*
X177775535Y-138267856D01*
X177775535Y-138267856D02*
X177775535Y-138339285D01*
X177775535Y-138339285D02*
X177739821Y-138410714D01*
X177739821Y-138410714D02*
X177704107Y-138446428D01*
X177704107Y-138446428D02*
X177632678Y-138482142D01*
X177632678Y-138482142D02*
X177489821Y-138517856D01*
X177489821Y-138517856D02*
X177311250Y-138517856D01*
X177311250Y-138517856D02*
X177168392Y-138482142D01*
X177168392Y-138482142D02*
X177096964Y-138446428D01*
X177096964Y-138446428D02*
X177061250Y-138410714D01*
X177061250Y-138410714D02*
X177025535Y-138339285D01*
X177025535Y-137624999D02*
X177025535Y-137553570D01*
X177025535Y-137553570D02*
X177061250Y-137482142D01*
X177061250Y-137482142D02*
X177096964Y-137446428D01*
X177096964Y-137446428D02*
X177168392Y-137410713D01*
X177168392Y-137410713D02*
X177311250Y-137374999D01*
X177311250Y-137374999D02*
X177489821Y-137374999D01*
X177489821Y-137374999D02*
X177632678Y-137410713D01*
X177632678Y-137410713D02*
X177704107Y-137446428D01*
X177704107Y-137446428D02*
X177739821Y-137482142D01*
X177739821Y-137482142D02*
X177775535Y-137553570D01*
X177775535Y-137553570D02*
X177775535Y-137624999D01*
X177775535Y-137624999D02*
X177739821Y-137696428D01*
X177739821Y-137696428D02*
X177704107Y-137732142D01*
X177704107Y-137732142D02*
X177632678Y-137767856D01*
X177632678Y-137767856D02*
X177489821Y-137803570D01*
X177489821Y-137803570D02*
X177311250Y-137803570D01*
X177311250Y-137803570D02*
X177168392Y-137767856D01*
X177168392Y-137767856D02*
X177096964Y-137732142D01*
X177096964Y-137732142D02*
X177061250Y-137696428D01*
X177061250Y-137696428D02*
X177025535Y-137624999D01*
X177775535Y-137053570D02*
X177025535Y-137053570D01*
X177489821Y-136982142D02*
X177775535Y-136767856D01*
X177275535Y-136767856D02*
X177561250Y-137053570D01*
G04 #@! TO.C,RV8*
X117275535Y-97946428D02*
X116918392Y-98196428D01*
X117275535Y-98374999D02*
X116525535Y-98374999D01*
X116525535Y-98374999D02*
X116525535Y-98089285D01*
X116525535Y-98089285D02*
X116561250Y-98017856D01*
X116561250Y-98017856D02*
X116596964Y-97982142D01*
X116596964Y-97982142D02*
X116668392Y-97946428D01*
X116668392Y-97946428D02*
X116775535Y-97946428D01*
X116775535Y-97946428D02*
X116846964Y-97982142D01*
X116846964Y-97982142D02*
X116882678Y-98017856D01*
X116882678Y-98017856D02*
X116918392Y-98089285D01*
X116918392Y-98089285D02*
X116918392Y-98374999D01*
X116525535Y-97732142D02*
X117275535Y-97482142D01*
X117275535Y-97482142D02*
X116525535Y-97232142D01*
X116846964Y-96874999D02*
X116811250Y-96946428D01*
X116811250Y-96946428D02*
X116775535Y-96982142D01*
X116775535Y-96982142D02*
X116704107Y-97017856D01*
X116704107Y-97017856D02*
X116668392Y-97017856D01*
X116668392Y-97017856D02*
X116596964Y-96982142D01*
X116596964Y-96982142D02*
X116561250Y-96946428D01*
X116561250Y-96946428D02*
X116525535Y-96874999D01*
X116525535Y-96874999D02*
X116525535Y-96732142D01*
X116525535Y-96732142D02*
X116561250Y-96660714D01*
X116561250Y-96660714D02*
X116596964Y-96624999D01*
X116596964Y-96624999D02*
X116668392Y-96589285D01*
X116668392Y-96589285D02*
X116704107Y-96589285D01*
X116704107Y-96589285D02*
X116775535Y-96624999D01*
X116775535Y-96624999D02*
X116811250Y-96660714D01*
X116811250Y-96660714D02*
X116846964Y-96732142D01*
X116846964Y-96732142D02*
X116846964Y-96874999D01*
X116846964Y-96874999D02*
X116882678Y-96946428D01*
X116882678Y-96946428D02*
X116918392Y-96982142D01*
X116918392Y-96982142D02*
X116989821Y-97017856D01*
X116989821Y-97017856D02*
X117132678Y-97017856D01*
X117132678Y-97017856D02*
X117204107Y-96982142D01*
X117204107Y-96982142D02*
X117239821Y-96946428D01*
X117239821Y-96946428D02*
X117275535Y-96874999D01*
X117275535Y-96874999D02*
X117275535Y-96732142D01*
X117275535Y-96732142D02*
X117239821Y-96660714D01*
X117239821Y-96660714D02*
X117204107Y-96624999D01*
X117204107Y-96624999D02*
X117132678Y-96589285D01*
X117132678Y-96589285D02*
X116989821Y-96589285D01*
X116989821Y-96589285D02*
X116918392Y-96624999D01*
X116918392Y-96624999D02*
X116882678Y-96660714D01*
X116882678Y-96660714D02*
X116846964Y-96732142D01*
X127775535Y-98803571D02*
X127775535Y-99232142D01*
X127775535Y-99017857D02*
X127025535Y-99017857D01*
X127025535Y-99017857D02*
X127132678Y-99089285D01*
X127132678Y-99089285D02*
X127204107Y-99160714D01*
X127204107Y-99160714D02*
X127239821Y-99232142D01*
X127025535Y-98339285D02*
X127025535Y-98267856D01*
X127025535Y-98267856D02*
X127061250Y-98196428D01*
X127061250Y-98196428D02*
X127096964Y-98160714D01*
X127096964Y-98160714D02*
X127168392Y-98124999D01*
X127168392Y-98124999D02*
X127311250Y-98089285D01*
X127311250Y-98089285D02*
X127489821Y-98089285D01*
X127489821Y-98089285D02*
X127632678Y-98124999D01*
X127632678Y-98124999D02*
X127704107Y-98160714D01*
X127704107Y-98160714D02*
X127739821Y-98196428D01*
X127739821Y-98196428D02*
X127775535Y-98267856D01*
X127775535Y-98267856D02*
X127775535Y-98339285D01*
X127775535Y-98339285D02*
X127739821Y-98410714D01*
X127739821Y-98410714D02*
X127704107Y-98446428D01*
X127704107Y-98446428D02*
X127632678Y-98482142D01*
X127632678Y-98482142D02*
X127489821Y-98517856D01*
X127489821Y-98517856D02*
X127311250Y-98517856D01*
X127311250Y-98517856D02*
X127168392Y-98482142D01*
X127168392Y-98482142D02*
X127096964Y-98446428D01*
X127096964Y-98446428D02*
X127061250Y-98410714D01*
X127061250Y-98410714D02*
X127025535Y-98339285D01*
X127025535Y-97624999D02*
X127025535Y-97553570D01*
X127025535Y-97553570D02*
X127061250Y-97482142D01*
X127061250Y-97482142D02*
X127096964Y-97446428D01*
X127096964Y-97446428D02*
X127168392Y-97410713D01*
X127168392Y-97410713D02*
X127311250Y-97374999D01*
X127311250Y-97374999D02*
X127489821Y-97374999D01*
X127489821Y-97374999D02*
X127632678Y-97410713D01*
X127632678Y-97410713D02*
X127704107Y-97446428D01*
X127704107Y-97446428D02*
X127739821Y-97482142D01*
X127739821Y-97482142D02*
X127775535Y-97553570D01*
X127775535Y-97553570D02*
X127775535Y-97624999D01*
X127775535Y-97624999D02*
X127739821Y-97696428D01*
X127739821Y-97696428D02*
X127704107Y-97732142D01*
X127704107Y-97732142D02*
X127632678Y-97767856D01*
X127632678Y-97767856D02*
X127489821Y-97803570D01*
X127489821Y-97803570D02*
X127311250Y-97803570D01*
X127311250Y-97803570D02*
X127168392Y-97767856D01*
X127168392Y-97767856D02*
X127096964Y-97732142D01*
X127096964Y-97732142D02*
X127061250Y-97696428D01*
X127061250Y-97696428D02*
X127025535Y-97624999D01*
X127775535Y-97053570D02*
X127025535Y-97053570D01*
X127489821Y-96982142D02*
X127775535Y-96767856D01*
X127275535Y-96767856D02*
X127561250Y-97053570D01*
G04 #@! TO.C,TP11*
X108653535Y-125653571D02*
X108653535Y-125225000D01*
X109403535Y-125439285D02*
X108653535Y-125439285D01*
X109403535Y-124974999D02*
X108653535Y-124974999D01*
X108653535Y-124974999D02*
X108653535Y-124689285D01*
X108653535Y-124689285D02*
X108689250Y-124617856D01*
X108689250Y-124617856D02*
X108724964Y-124582142D01*
X108724964Y-124582142D02*
X108796392Y-124546428D01*
X108796392Y-124546428D02*
X108903535Y-124546428D01*
X108903535Y-124546428D02*
X108974964Y-124582142D01*
X108974964Y-124582142D02*
X109010678Y-124617856D01*
X109010678Y-124617856D02*
X109046392Y-124689285D01*
X109046392Y-124689285D02*
X109046392Y-124974999D01*
X109403535Y-123832142D02*
X109403535Y-124260713D01*
X109403535Y-124046428D02*
X108653535Y-124046428D01*
X108653535Y-124046428D02*
X108760678Y-124117856D01*
X108760678Y-124117856D02*
X108832107Y-124189285D01*
X108832107Y-124189285D02*
X108867821Y-124260713D01*
X109403535Y-123117856D02*
X109403535Y-123546427D01*
X109403535Y-123332142D02*
X108653535Y-123332142D01*
X108653535Y-123332142D02*
X108760678Y-123403570D01*
X108760678Y-123403570D02*
X108832107Y-123474999D01*
X108832107Y-123474999D02*
X108867821Y-123546427D01*
X107673250Y-124921428D02*
X107637535Y-124992857D01*
X107637535Y-124992857D02*
X107637535Y-125099999D01*
X107637535Y-125099999D02*
X107673250Y-125207142D01*
X107673250Y-125207142D02*
X107744678Y-125278571D01*
X107744678Y-125278571D02*
X107816107Y-125314285D01*
X107816107Y-125314285D02*
X107958964Y-125349999D01*
X107958964Y-125349999D02*
X108066107Y-125349999D01*
X108066107Y-125349999D02*
X108208964Y-125314285D01*
X108208964Y-125314285D02*
X108280392Y-125278571D01*
X108280392Y-125278571D02*
X108351821Y-125207142D01*
X108351821Y-125207142D02*
X108387535Y-125099999D01*
X108387535Y-125099999D02*
X108387535Y-125028571D01*
X108387535Y-125028571D02*
X108351821Y-124921428D01*
X108351821Y-124921428D02*
X108316107Y-124885714D01*
X108316107Y-124885714D02*
X108066107Y-124885714D01*
X108066107Y-124885714D02*
X108066107Y-125028571D01*
X108387535Y-124564285D02*
X107637535Y-124564285D01*
X107637535Y-124564285D02*
X108387535Y-124135714D01*
X108387535Y-124135714D02*
X107637535Y-124135714D01*
X108387535Y-123778571D02*
X107637535Y-123778571D01*
X107637535Y-123778571D02*
X107637535Y-123600000D01*
X107637535Y-123600000D02*
X107673250Y-123492857D01*
X107673250Y-123492857D02*
X107744678Y-123421428D01*
X107744678Y-123421428D02*
X107816107Y-123385714D01*
X107816107Y-123385714D02*
X107958964Y-123350000D01*
X107958964Y-123350000D02*
X108066107Y-123350000D01*
X108066107Y-123350000D02*
X108208964Y-123385714D01*
X108208964Y-123385714D02*
X108280392Y-123421428D01*
X108280392Y-123421428D02*
X108351821Y-123492857D01*
X108351821Y-123492857D02*
X108387535Y-123600000D01*
X108387535Y-123600000D02*
X108387535Y-123778571D01*
G04 #@! TO.C,RV7*
X167275535Y-52946428D02*
X166918392Y-53196428D01*
X167275535Y-53374999D02*
X166525535Y-53374999D01*
X166525535Y-53374999D02*
X166525535Y-53089285D01*
X166525535Y-53089285D02*
X166561250Y-53017856D01*
X166561250Y-53017856D02*
X166596964Y-52982142D01*
X166596964Y-52982142D02*
X166668392Y-52946428D01*
X166668392Y-52946428D02*
X166775535Y-52946428D01*
X166775535Y-52946428D02*
X166846964Y-52982142D01*
X166846964Y-52982142D02*
X166882678Y-53017856D01*
X166882678Y-53017856D02*
X166918392Y-53089285D01*
X166918392Y-53089285D02*
X166918392Y-53374999D01*
X166525535Y-52732142D02*
X167275535Y-52482142D01*
X167275535Y-52482142D02*
X166525535Y-52232142D01*
X166525535Y-52053571D02*
X166525535Y-51553571D01*
X166525535Y-51553571D02*
X167275535Y-51874999D01*
X177775535Y-53803571D02*
X177775535Y-54232142D01*
X177775535Y-54017857D02*
X177025535Y-54017857D01*
X177025535Y-54017857D02*
X177132678Y-54089285D01*
X177132678Y-54089285D02*
X177204107Y-54160714D01*
X177204107Y-54160714D02*
X177239821Y-54232142D01*
X177025535Y-53339285D02*
X177025535Y-53267856D01*
X177025535Y-53267856D02*
X177061250Y-53196428D01*
X177061250Y-53196428D02*
X177096964Y-53160714D01*
X177096964Y-53160714D02*
X177168392Y-53124999D01*
X177168392Y-53124999D02*
X177311250Y-53089285D01*
X177311250Y-53089285D02*
X177489821Y-53089285D01*
X177489821Y-53089285D02*
X177632678Y-53124999D01*
X177632678Y-53124999D02*
X177704107Y-53160714D01*
X177704107Y-53160714D02*
X177739821Y-53196428D01*
X177739821Y-53196428D02*
X177775535Y-53267856D01*
X177775535Y-53267856D02*
X177775535Y-53339285D01*
X177775535Y-53339285D02*
X177739821Y-53410714D01*
X177739821Y-53410714D02*
X177704107Y-53446428D01*
X177704107Y-53446428D02*
X177632678Y-53482142D01*
X177632678Y-53482142D02*
X177489821Y-53517856D01*
X177489821Y-53517856D02*
X177311250Y-53517856D01*
X177311250Y-53517856D02*
X177168392Y-53482142D01*
X177168392Y-53482142D02*
X177096964Y-53446428D01*
X177096964Y-53446428D02*
X177061250Y-53410714D01*
X177061250Y-53410714D02*
X177025535Y-53339285D01*
X177025535Y-52624999D02*
X177025535Y-52553570D01*
X177025535Y-52553570D02*
X177061250Y-52482142D01*
X177061250Y-52482142D02*
X177096964Y-52446428D01*
X177096964Y-52446428D02*
X177168392Y-52410713D01*
X177168392Y-52410713D02*
X177311250Y-52374999D01*
X177311250Y-52374999D02*
X177489821Y-52374999D01*
X177489821Y-52374999D02*
X177632678Y-52410713D01*
X177632678Y-52410713D02*
X177704107Y-52446428D01*
X177704107Y-52446428D02*
X177739821Y-52482142D01*
X177739821Y-52482142D02*
X177775535Y-52553570D01*
X177775535Y-52553570D02*
X177775535Y-52624999D01*
X177775535Y-52624999D02*
X177739821Y-52696428D01*
X177739821Y-52696428D02*
X177704107Y-52732142D01*
X177704107Y-52732142D02*
X177632678Y-52767856D01*
X177632678Y-52767856D02*
X177489821Y-52803570D01*
X177489821Y-52803570D02*
X177311250Y-52803570D01*
X177311250Y-52803570D02*
X177168392Y-52767856D01*
X177168392Y-52767856D02*
X177096964Y-52732142D01*
X177096964Y-52732142D02*
X177061250Y-52696428D01*
X177061250Y-52696428D02*
X177025535Y-52624999D01*
X177775535Y-52053570D02*
X177025535Y-52053570D01*
X177489821Y-51982142D02*
X177775535Y-51767856D01*
X177275535Y-51767856D02*
X177561250Y-52053570D01*
G04 #@! TO.C,RV6*
X117275535Y-52946428D02*
X116918392Y-53196428D01*
X117275535Y-53374999D02*
X116525535Y-53374999D01*
X116525535Y-53374999D02*
X116525535Y-53089285D01*
X116525535Y-53089285D02*
X116561250Y-53017856D01*
X116561250Y-53017856D02*
X116596964Y-52982142D01*
X116596964Y-52982142D02*
X116668392Y-52946428D01*
X116668392Y-52946428D02*
X116775535Y-52946428D01*
X116775535Y-52946428D02*
X116846964Y-52982142D01*
X116846964Y-52982142D02*
X116882678Y-53017856D01*
X116882678Y-53017856D02*
X116918392Y-53089285D01*
X116918392Y-53089285D02*
X116918392Y-53374999D01*
X116525535Y-52732142D02*
X117275535Y-52482142D01*
X117275535Y-52482142D02*
X116525535Y-52232142D01*
X116525535Y-51660714D02*
X116525535Y-51803571D01*
X116525535Y-51803571D02*
X116561250Y-51874999D01*
X116561250Y-51874999D02*
X116596964Y-51910714D01*
X116596964Y-51910714D02*
X116704107Y-51982142D01*
X116704107Y-51982142D02*
X116846964Y-52017856D01*
X116846964Y-52017856D02*
X117132678Y-52017856D01*
X117132678Y-52017856D02*
X117204107Y-51982142D01*
X117204107Y-51982142D02*
X117239821Y-51946428D01*
X117239821Y-51946428D02*
X117275535Y-51874999D01*
X117275535Y-51874999D02*
X117275535Y-51732142D01*
X117275535Y-51732142D02*
X117239821Y-51660714D01*
X117239821Y-51660714D02*
X117204107Y-51624999D01*
X117204107Y-51624999D02*
X117132678Y-51589285D01*
X117132678Y-51589285D02*
X116954107Y-51589285D01*
X116954107Y-51589285D02*
X116882678Y-51624999D01*
X116882678Y-51624999D02*
X116846964Y-51660714D01*
X116846964Y-51660714D02*
X116811250Y-51732142D01*
X116811250Y-51732142D02*
X116811250Y-51874999D01*
X116811250Y-51874999D02*
X116846964Y-51946428D01*
X116846964Y-51946428D02*
X116882678Y-51982142D01*
X116882678Y-51982142D02*
X116954107Y-52017856D01*
X127775535Y-53803571D02*
X127775535Y-54232142D01*
X127775535Y-54017857D02*
X127025535Y-54017857D01*
X127025535Y-54017857D02*
X127132678Y-54089285D01*
X127132678Y-54089285D02*
X127204107Y-54160714D01*
X127204107Y-54160714D02*
X127239821Y-54232142D01*
X127025535Y-53339285D02*
X127025535Y-53267856D01*
X127025535Y-53267856D02*
X127061250Y-53196428D01*
X127061250Y-53196428D02*
X127096964Y-53160714D01*
X127096964Y-53160714D02*
X127168392Y-53124999D01*
X127168392Y-53124999D02*
X127311250Y-53089285D01*
X127311250Y-53089285D02*
X127489821Y-53089285D01*
X127489821Y-53089285D02*
X127632678Y-53124999D01*
X127632678Y-53124999D02*
X127704107Y-53160714D01*
X127704107Y-53160714D02*
X127739821Y-53196428D01*
X127739821Y-53196428D02*
X127775535Y-53267856D01*
X127775535Y-53267856D02*
X127775535Y-53339285D01*
X127775535Y-53339285D02*
X127739821Y-53410714D01*
X127739821Y-53410714D02*
X127704107Y-53446428D01*
X127704107Y-53446428D02*
X127632678Y-53482142D01*
X127632678Y-53482142D02*
X127489821Y-53517856D01*
X127489821Y-53517856D02*
X127311250Y-53517856D01*
X127311250Y-53517856D02*
X127168392Y-53482142D01*
X127168392Y-53482142D02*
X127096964Y-53446428D01*
X127096964Y-53446428D02*
X127061250Y-53410714D01*
X127061250Y-53410714D02*
X127025535Y-53339285D01*
X127025535Y-52624999D02*
X127025535Y-52553570D01*
X127025535Y-52553570D02*
X127061250Y-52482142D01*
X127061250Y-52482142D02*
X127096964Y-52446428D01*
X127096964Y-52446428D02*
X127168392Y-52410713D01*
X127168392Y-52410713D02*
X127311250Y-52374999D01*
X127311250Y-52374999D02*
X127489821Y-52374999D01*
X127489821Y-52374999D02*
X127632678Y-52410713D01*
X127632678Y-52410713D02*
X127704107Y-52446428D01*
X127704107Y-52446428D02*
X127739821Y-52482142D01*
X127739821Y-52482142D02*
X127775535Y-52553570D01*
X127775535Y-52553570D02*
X127775535Y-52624999D01*
X127775535Y-52624999D02*
X127739821Y-52696428D01*
X127739821Y-52696428D02*
X127704107Y-52732142D01*
X127704107Y-52732142D02*
X127632678Y-52767856D01*
X127632678Y-52767856D02*
X127489821Y-52803570D01*
X127489821Y-52803570D02*
X127311250Y-52803570D01*
X127311250Y-52803570D02*
X127168392Y-52767856D01*
X127168392Y-52767856D02*
X127096964Y-52732142D01*
X127096964Y-52732142D02*
X127061250Y-52696428D01*
X127061250Y-52696428D02*
X127025535Y-52624999D01*
X127775535Y-52053570D02*
X127025535Y-52053570D01*
X127489821Y-51982142D02*
X127775535Y-51767856D01*
X127275535Y-51767856D02*
X127561250Y-52053570D01*
G04 #@! TO.C,TP12*
X108653535Y-116763571D02*
X108653535Y-116335000D01*
X109403535Y-116549285D02*
X108653535Y-116549285D01*
X109403535Y-116084999D02*
X108653535Y-116084999D01*
X108653535Y-116084999D02*
X108653535Y-115799285D01*
X108653535Y-115799285D02*
X108689250Y-115727856D01*
X108689250Y-115727856D02*
X108724964Y-115692142D01*
X108724964Y-115692142D02*
X108796392Y-115656428D01*
X108796392Y-115656428D02*
X108903535Y-115656428D01*
X108903535Y-115656428D02*
X108974964Y-115692142D01*
X108974964Y-115692142D02*
X109010678Y-115727856D01*
X109010678Y-115727856D02*
X109046392Y-115799285D01*
X109046392Y-115799285D02*
X109046392Y-116084999D01*
X109403535Y-114942142D02*
X109403535Y-115370713D01*
X109403535Y-115156428D02*
X108653535Y-115156428D01*
X108653535Y-115156428D02*
X108760678Y-115227856D01*
X108760678Y-115227856D02*
X108832107Y-115299285D01*
X108832107Y-115299285D02*
X108867821Y-115370713D01*
X108724964Y-114656427D02*
X108689250Y-114620713D01*
X108689250Y-114620713D02*
X108653535Y-114549285D01*
X108653535Y-114549285D02*
X108653535Y-114370713D01*
X108653535Y-114370713D02*
X108689250Y-114299285D01*
X108689250Y-114299285D02*
X108724964Y-114263570D01*
X108724964Y-114263570D02*
X108796392Y-114227856D01*
X108796392Y-114227856D02*
X108867821Y-114227856D01*
X108867821Y-114227856D02*
X108974964Y-114263570D01*
X108974964Y-114263570D02*
X109403535Y-114692142D01*
X109403535Y-114692142D02*
X109403535Y-114227856D01*
X108101821Y-116781428D02*
X108101821Y-116210000D01*
X108387535Y-115460000D02*
X108387535Y-115888571D01*
X108387535Y-115674286D02*
X107637535Y-115674286D01*
X107637535Y-115674286D02*
X107744678Y-115745714D01*
X107744678Y-115745714D02*
X107816107Y-115817143D01*
X107816107Y-115817143D02*
X107851821Y-115888571D01*
X107708964Y-115174285D02*
X107673250Y-115138571D01*
X107673250Y-115138571D02*
X107637535Y-115067143D01*
X107637535Y-115067143D02*
X107637535Y-114888571D01*
X107637535Y-114888571D02*
X107673250Y-114817143D01*
X107673250Y-114817143D02*
X107708964Y-114781428D01*
X107708964Y-114781428D02*
X107780392Y-114745714D01*
X107780392Y-114745714D02*
X107851821Y-114745714D01*
X107851821Y-114745714D02*
X107958964Y-114781428D01*
X107958964Y-114781428D02*
X108387535Y-115210000D01*
X108387535Y-115210000D02*
X108387535Y-114745714D01*
X107637535Y-114531428D02*
X108387535Y-114281428D01*
X108387535Y-114281428D02*
X107637535Y-114031428D01*
G04 #@! TO.C,RV9*
X117275535Y-137946428D02*
X116918392Y-138196428D01*
X117275535Y-138374999D02*
X116525535Y-138374999D01*
X116525535Y-138374999D02*
X116525535Y-138089285D01*
X116525535Y-138089285D02*
X116561250Y-138017856D01*
X116561250Y-138017856D02*
X116596964Y-137982142D01*
X116596964Y-137982142D02*
X116668392Y-137946428D01*
X116668392Y-137946428D02*
X116775535Y-137946428D01*
X116775535Y-137946428D02*
X116846964Y-137982142D01*
X116846964Y-137982142D02*
X116882678Y-138017856D01*
X116882678Y-138017856D02*
X116918392Y-138089285D01*
X116918392Y-138089285D02*
X116918392Y-138374999D01*
X116525535Y-137732142D02*
X117275535Y-137482142D01*
X117275535Y-137482142D02*
X116525535Y-137232142D01*
X117275535Y-136946428D02*
X117275535Y-136803571D01*
X117275535Y-136803571D02*
X117239821Y-136732142D01*
X117239821Y-136732142D02*
X117204107Y-136696428D01*
X117204107Y-136696428D02*
X117096964Y-136624999D01*
X117096964Y-136624999D02*
X116954107Y-136589285D01*
X116954107Y-136589285D02*
X116668392Y-136589285D01*
X116668392Y-136589285D02*
X116596964Y-136624999D01*
X116596964Y-136624999D02*
X116561250Y-136660714D01*
X116561250Y-136660714D02*
X116525535Y-136732142D01*
X116525535Y-136732142D02*
X116525535Y-136874999D01*
X116525535Y-136874999D02*
X116561250Y-136946428D01*
X116561250Y-136946428D02*
X116596964Y-136982142D01*
X116596964Y-136982142D02*
X116668392Y-137017856D01*
X116668392Y-137017856D02*
X116846964Y-137017856D01*
X116846964Y-137017856D02*
X116918392Y-136982142D01*
X116918392Y-136982142D02*
X116954107Y-136946428D01*
X116954107Y-136946428D02*
X116989821Y-136874999D01*
X116989821Y-136874999D02*
X116989821Y-136732142D01*
X116989821Y-136732142D02*
X116954107Y-136660714D01*
X116954107Y-136660714D02*
X116918392Y-136624999D01*
X116918392Y-136624999D02*
X116846964Y-136589285D01*
X127775535Y-138803571D02*
X127775535Y-139232142D01*
X127775535Y-139017857D02*
X127025535Y-139017857D01*
X127025535Y-139017857D02*
X127132678Y-139089285D01*
X127132678Y-139089285D02*
X127204107Y-139160714D01*
X127204107Y-139160714D02*
X127239821Y-139232142D01*
X127025535Y-138339285D02*
X127025535Y-138267856D01*
X127025535Y-138267856D02*
X127061250Y-138196428D01*
X127061250Y-138196428D02*
X127096964Y-138160714D01*
X127096964Y-138160714D02*
X127168392Y-138124999D01*
X127168392Y-138124999D02*
X127311250Y-138089285D01*
X127311250Y-138089285D02*
X127489821Y-138089285D01*
X127489821Y-138089285D02*
X127632678Y-138124999D01*
X127632678Y-138124999D02*
X127704107Y-138160714D01*
X127704107Y-138160714D02*
X127739821Y-138196428D01*
X127739821Y-138196428D02*
X127775535Y-138267856D01*
X127775535Y-138267856D02*
X127775535Y-138339285D01*
X127775535Y-138339285D02*
X127739821Y-138410714D01*
X127739821Y-138410714D02*
X127704107Y-138446428D01*
X127704107Y-138446428D02*
X127632678Y-138482142D01*
X127632678Y-138482142D02*
X127489821Y-138517856D01*
X127489821Y-138517856D02*
X127311250Y-138517856D01*
X127311250Y-138517856D02*
X127168392Y-138482142D01*
X127168392Y-138482142D02*
X127096964Y-138446428D01*
X127096964Y-138446428D02*
X127061250Y-138410714D01*
X127061250Y-138410714D02*
X127025535Y-138339285D01*
X127025535Y-137624999D02*
X127025535Y-137553570D01*
X127025535Y-137553570D02*
X127061250Y-137482142D01*
X127061250Y-137482142D02*
X127096964Y-137446428D01*
X127096964Y-137446428D02*
X127168392Y-137410713D01*
X127168392Y-137410713D02*
X127311250Y-137374999D01*
X127311250Y-137374999D02*
X127489821Y-137374999D01*
X127489821Y-137374999D02*
X127632678Y-137410713D01*
X127632678Y-137410713D02*
X127704107Y-137446428D01*
X127704107Y-137446428D02*
X127739821Y-137482142D01*
X127739821Y-137482142D02*
X127775535Y-137553570D01*
X127775535Y-137553570D02*
X127775535Y-137624999D01*
X127775535Y-137624999D02*
X127739821Y-137696428D01*
X127739821Y-137696428D02*
X127704107Y-137732142D01*
X127704107Y-137732142D02*
X127632678Y-137767856D01*
X127632678Y-137767856D02*
X127489821Y-137803570D01*
X127489821Y-137803570D02*
X127311250Y-137803570D01*
X127311250Y-137803570D02*
X127168392Y-137767856D01*
X127168392Y-137767856D02*
X127096964Y-137732142D01*
X127096964Y-137732142D02*
X127061250Y-137696428D01*
X127061250Y-137696428D02*
X127025535Y-137624999D01*
X127775535Y-137053570D02*
X127025535Y-137053570D01*
X127489821Y-136982142D02*
X127775535Y-136767856D01*
X127275535Y-136767856D02*
X127561250Y-137053570D01*
D11*
G04 #@! TO.C,TP10*
X107030000Y-132720000D02*
G75*
G03*
X107030000Y-132720000I-950000J0D01*
G01*
G04 #@! TO.C,RV10*
X168500000Y-153000000D02*
X168500000Y-129000000D01*
X171500000Y-153000000D02*
X168500000Y-153000000D01*
X176500000Y-153000000D02*
X173500000Y-153000000D01*
X181500000Y-153000000D02*
X178500000Y-153000000D01*
X186500000Y-153000000D02*
X183500000Y-153000000D01*
X168500000Y-129000000D02*
X186500000Y-129000000D01*
X186500000Y-129000000D02*
X186500000Y-153000000D01*
G04 #@! TO.C,RV8*
X118500000Y-113000000D02*
X118500000Y-89000000D01*
X121500000Y-113000000D02*
X118500000Y-113000000D01*
X126500000Y-113000000D02*
X123500000Y-113000000D01*
X131500000Y-113000000D02*
X128500000Y-113000000D01*
X136500000Y-113000000D02*
X133500000Y-113000000D01*
X118500000Y-89000000D02*
X136500000Y-89000000D01*
X136500000Y-89000000D02*
X136500000Y-113000000D01*
G04 #@! TO.C,TP11*
X107030000Y-124350000D02*
G75*
G03*
X107030000Y-124350000I-950000J0D01*
G01*
G04 #@! TO.C,RV7*
X168500000Y-68000000D02*
X168500000Y-44000000D01*
X171500000Y-68000000D02*
X168500000Y-68000000D01*
X176500000Y-68000000D02*
X173500000Y-68000000D01*
X181500000Y-68000000D02*
X178500000Y-68000000D01*
X186500000Y-68000000D02*
X183500000Y-68000000D01*
X168500000Y-44000000D02*
X186500000Y-44000000D01*
X186500000Y-44000000D02*
X186500000Y-68000000D01*
G04 #@! TO.C,RV6*
X118500000Y-68000000D02*
X118500000Y-44000000D01*
X121500000Y-68000000D02*
X118500000Y-68000000D01*
X126500000Y-68000000D02*
X123500000Y-68000000D01*
X131500000Y-68000000D02*
X128500000Y-68000000D01*
X136500000Y-68000000D02*
X133500000Y-68000000D01*
X118500000Y-44000000D02*
X136500000Y-44000000D01*
X136500000Y-44000000D02*
X136500000Y-68000000D01*
G04 #@! TO.C,TP12*
X107030000Y-115460000D02*
G75*
G03*
X107030000Y-115460000I-950000J0D01*
G01*
G04 #@! TO.C,RV9*
X118500000Y-153000000D02*
X118500000Y-129000000D01*
X121500000Y-153000000D02*
X118500000Y-153000000D01*
X126500000Y-153000000D02*
X123500000Y-153000000D01*
X131500000Y-153000000D02*
X128500000Y-153000000D01*
X136500000Y-153000000D02*
X133500000Y-153000000D01*
X118500000Y-129000000D02*
X136500000Y-129000000D01*
X136500000Y-129000000D02*
X136500000Y-153000000D01*
G04 #@! TD*
M02*
