G04 #@! TF.GenerationSoftware,KiCad,Pcbnew,7.0.1-3b83917a11~172~ubuntu22.04.1*
G04 #@! TF.CreationDate,2023-04-02T12:39:57-04:00*
G04 #@! TF.ProjectId,pmf_B2,706d665f-4232-42e6-9b69-6361645f7063,rev?*
G04 #@! TF.SameCoordinates,Original*
G04 #@! TF.FileFunction,Copper,L1,Top*
G04 #@! TF.FilePolarity,Positive*
%FSLAX46Y46*%
G04 Gerber Fmt 4.6, Leading zero omitted, Abs format (unit mm)*
G04 Created by KiCad (PCBNEW 7.0.1-3b83917a11~172~ubuntu22.04.1) date 2023-04-02 12:39:57*
%MOMM*%
%LPD*%
G01*
G04 APERTURE LIST*
G04 #@! TA.AperFunction,ComponentPad*
%ADD10C,1.500000*%
G04 #@! TD*
G04 #@! TA.AperFunction,ComponentPad*
%ADD11C,2.340000*%
G04 #@! TD*
G04 #@! TA.AperFunction,ComponentPad*
%ADD12C,1.600000*%
G04 #@! TD*
G04 #@! TA.AperFunction,ComponentPad*
%ADD13O,1.600000X1.600000*%
G04 #@! TD*
G04 #@! TA.AperFunction,ComponentPad*
%ADD14R,1.600000X1.600000*%
G04 #@! TD*
G04 #@! TA.AperFunction,ComponentPad*
%ADD15C,1.440000*%
G04 #@! TD*
G04 #@! TA.AperFunction,ComponentPad*
%ADD16R,1.600000X2.400000*%
G04 #@! TD*
G04 #@! TA.AperFunction,ComponentPad*
%ADD17O,1.600000X2.400000*%
G04 #@! TD*
G04 #@! TA.AperFunction,ComponentPad*
%ADD18R,1.700000X1.700000*%
G04 #@! TD*
G04 #@! TA.AperFunction,ComponentPad*
%ADD19O,1.700000X1.700000*%
G04 #@! TD*
G04 #@! TA.AperFunction,ViaPad*
%ADD20C,0.800000*%
G04 #@! TD*
G04 #@! TA.AperFunction,Conductor*
%ADD21C,0.250000*%
G04 #@! TD*
G04 #@! TA.AperFunction,Conductor*
%ADD22C,0.750000*%
G04 #@! TD*
G04 APERTURE END LIST*
D10*
G04 #@! TO.P,TP10,1,1*
G04 #@! TO.N,Board_0-+12V_1*
X106080000Y-132720000D03*
G04 #@! TD*
D11*
G04 #@! TO.P,RV10,1,1*
G04 #@! TO.N,Board_0-GND1*
X172500000Y-154000000D03*
G04 #@! TO.P,RV10,2,2*
G04 #@! TO.N,Board_0-Net-(R65-Pad1)*
X177500000Y-154000000D03*
G04 #@! TO.P,RV10,3,3*
G04 #@! TO.N,Board_0-/Pots board/RES_CV_IN_P*
X182500000Y-154000000D03*
G04 #@! TD*
G04 #@! TO.P,RV8,1,1*
G04 #@! TO.N,Board_0-GND1*
X122500000Y-114000000D03*
G04 #@! TO.P,RV8,2,2*
G04 #@! TO.N,Board_0-Net-(R58-Pad1)*
X127500000Y-114000000D03*
G04 #@! TO.P,RV8,3,3*
G04 #@! TO.N,Board_0-/Pots board/IN1_P*
X132500000Y-114000000D03*
G04 #@! TD*
D10*
G04 #@! TO.P,TP11,1,1*
G04 #@! TO.N,Board_0-GND1*
X106080000Y-124350000D03*
G04 #@! TD*
D11*
G04 #@! TO.P,RV7,1,1*
G04 #@! TO.N,Board_0-GND1*
X172500000Y-69000000D03*
G04 #@! TO.P,RV7,2,2*
G04 #@! TO.N,Board_0-/Pots board/RESONANCE*
X177500000Y-69000000D03*
G04 #@! TO.P,RV7,3,3*
G04 #@! TO.N,Board_0-+12V_1*
X182500000Y-69000000D03*
G04 #@! TD*
G04 #@! TO.P,RV6,1,1*
G04 #@! TO.N,Board_0-GND1*
X122500000Y-69000000D03*
G04 #@! TO.P,RV6,2,2*
G04 #@! TO.N,Board_0-/Pots board/FREQUENCY*
X127500000Y-69000000D03*
G04 #@! TO.P,RV6,3,3*
G04 #@! TO.N,Board_0-+12V_1*
X132500000Y-69000000D03*
G04 #@! TD*
D10*
G04 #@! TO.P,TP12,1,1*
G04 #@! TO.N,Board_0--12V_1*
X106080000Y-115460000D03*
G04 #@! TD*
D11*
G04 #@! TO.P,RV9,1,1*
G04 #@! TO.N,Board_0-GND1*
X122500000Y-154000000D03*
G04 #@! TO.P,RV9,2,2*
G04 #@! TO.N,Board_0-Net-(R63-Pad1)*
X127500000Y-154000000D03*
G04 #@! TO.P,RV9,3,3*
G04 #@! TO.N,Board_0-/Pots board/FREQ_CV_IN_P*
X132500000Y-154000000D03*
G04 #@! TD*
D12*
G04 #@! TO.P,R71,1*
G04 #@! TO.N,Board_0-Net-(U3D--)*
X125130000Y-76090000D03*
D13*
G04 #@! TO.P,R71,2*
G04 #@! TO.N,Board_0-/Pots board/INPUT_P*
X125130000Y-86250000D03*
G04 #@! TD*
D12*
G04 #@! TO.P,R65,1*
G04 #@! TO.N,Board_0-Net-(R65-Pad1)*
X153070000Y-119260000D03*
D13*
G04 #@! TO.P,R65,2*
G04 #@! TO.N,Board_0-Net-(U4A--)*
X153070000Y-129420000D03*
G04 #@! TD*
D12*
G04 #@! TO.P,R74,1*
G04 #@! TO.N,Board_0-/Pots board/FREQ_CV_P*
X120050000Y-86250000D03*
D13*
G04 #@! TO.P,R74,2*
G04 #@! TO.N,Board_0-GND1*
X120050000Y-76090000D03*
G04 #@! TD*
D12*
G04 #@! TO.P,R66,1*
G04 #@! TO.N,Board_0-Net-(U3C--)*
X145450000Y-60850000D03*
D13*
G04 #@! TO.P,R66,2*
G04 #@! TO.N,Board_0-Net-(R66-Pad2)*
X145450000Y-50690000D03*
G04 #@! TD*
D12*
G04 #@! TO.P,C15,1*
G04 #@! TO.N,Board_0-+12V_1*
X145450000Y-76090000D03*
G04 #@! TO.P,C15,2*
G04 #@! TO.N,Board_0-GND1*
X145450000Y-78590000D03*
G04 #@! TD*
G04 #@! TO.P,C17,1*
G04 #@! TO.N,Board_0-+12V_1*
X146710000Y-140850000D03*
G04 #@! TO.P,C17,2*
G04 #@! TO.N,Board_0-GND1*
X144210000Y-140850000D03*
G04 #@! TD*
G04 #@! TO.P,R68,1*
G04 #@! TO.N,Board_0-Net-(U4A--)*
X147980000Y-129420000D03*
D13*
G04 #@! TO.P,R68,2*
G04 #@! TO.N,Board_0-Net-(R68-Pad2)*
X147980000Y-119260000D03*
G04 #@! TD*
D12*
G04 #@! TO.P,R59,1*
G04 #@! TO.N,Board_0-/Pots board/IN2_P*
X155610000Y-60850000D03*
D13*
G04 #@! TO.P,R59,2*
G04 #@! TO.N,Board_0-Net-(U3C--)*
X155610000Y-50690000D03*
G04 #@! TD*
D14*
G04 #@! TO.P,D3,1,K*
G04 #@! TO.N,Board_0-Net-(D3-K)*
X147980000Y-144660000D03*
D13*
G04 #@! TO.P,D3,2,A*
G04 #@! TO.N,Board_0-Net-(D3-A)*
X147980000Y-152280000D03*
G04 #@! TD*
D15*
G04 #@! TO.P,RV5,1,1*
G04 #@! TO.N,Board_0--12V_1*
X113700000Y-100220000D03*
G04 #@! TO.P,RV5,2,2*
G04 #@! TO.N,Board_0-/Pots board/FREQ_OFFSET*
X111160000Y-100220000D03*
G04 #@! TO.P,RV5,3,3*
G04 #@! TO.N,Board_0-+12V_1*
X108620000Y-100220000D03*
G04 #@! TD*
D12*
G04 #@! TO.P,C18,1*
G04 #@! TO.N,Board_0-GND1*
X164490000Y-133230000D03*
G04 #@! TO.P,C18,2*
G04 #@! TO.N,Board_0--12V_1*
X161990000Y-133230000D03*
G04 #@! TD*
G04 #@! TO.P,R72,1*
G04 #@! TO.N,Board_0-Net-(R72-Pad1)*
X114970000Y-76090000D03*
D13*
G04 #@! TO.P,R72,2*
G04 #@! TO.N,Board_0-/Pots board/FREQ_CV_P*
X114970000Y-86250000D03*
G04 #@! TD*
D12*
G04 #@! TO.P,R73,1*
G04 #@! TO.N,Board_0-Net-(D3-A)*
X153060000Y-144660000D03*
D13*
G04 #@! TO.P,R73,2*
G04 #@! TO.N,Board_0-/Pots board/RES_CV_P*
X153060000Y-154820000D03*
G04 #@! TD*
D16*
G04 #@! TO.P,U3,1*
G04 #@! TO.N,Board_0-/Pots board/V{slash}oct_trim*
X155610000Y-72280000D03*
D17*
G04 #@! TO.P,U3,2,-*
G04 #@! TO.N,Board_0-Net-(U3A--)*
X153070000Y-72280000D03*
G04 #@! TO.P,U3,3,+*
G04 #@! TO.N,Board_0-GND1*
X150530000Y-72280000D03*
G04 #@! TO.P,U3,4,V+*
G04 #@! TO.N,Board_0-+12V_1*
X147990000Y-72280000D03*
G04 #@! TO.P,U3,5,+*
G04 #@! TO.N,Board_0-GND1*
X145450000Y-72280000D03*
G04 #@! TO.P,U3,6,-*
G04 #@! TO.N,Board_0-Net-(U3B--)*
X142910000Y-72280000D03*
G04 #@! TO.P,U3,7*
X140370000Y-72280000D03*
G04 #@! TO.P,U3,8*
G04 #@! TO.N,Board_0-Net-(R66-Pad2)*
X140370000Y-64660000D03*
G04 #@! TO.P,U3,9,-*
G04 #@! TO.N,Board_0-Net-(U3C--)*
X142910000Y-64660000D03*
G04 #@! TO.P,U3,10,+*
G04 #@! TO.N,Board_0-GND1*
X145450000Y-64660000D03*
G04 #@! TO.P,U3,11,V-*
G04 #@! TO.N,Board_0--12V_1*
X147990000Y-64660000D03*
G04 #@! TO.P,U3,12,+*
G04 #@! TO.N,Board_0-GND1*
X150530000Y-64660000D03*
G04 #@! TO.P,U3,13,-*
G04 #@! TO.N,Board_0-Net-(U3D--)*
X153070000Y-64660000D03*
G04 #@! TO.P,U3,14*
G04 #@! TO.N,Board_0-/Pots board/INPUT_P*
X155610000Y-64660000D03*
G04 #@! TD*
D16*
G04 #@! TO.P,U4,1*
G04 #@! TO.N,Board_0-Net-(R68-Pad2)*
X150530000Y-133240000D03*
D17*
G04 #@! TO.P,U4,2,-*
G04 #@! TO.N,Board_0-Net-(U4A--)*
X153070000Y-133240000D03*
G04 #@! TO.P,U4,3,+*
G04 #@! TO.N,Board_0-GND1*
X155610000Y-133240000D03*
G04 #@! TO.P,U4,4,V-*
G04 #@! TO.N,Board_0--12V_1*
X158150000Y-133240000D03*
G04 #@! TO.P,U4,5,+*
G04 #@! TO.N,Board_0-GND1*
X158150000Y-140860000D03*
G04 #@! TO.P,U4,6,-*
G04 #@! TO.N,Board_0-Net-(D3-A)*
X155610000Y-140860000D03*
G04 #@! TO.P,U4,7*
G04 #@! TO.N,Board_0-Net-(D3-K)*
X153070000Y-140860000D03*
G04 #@! TO.P,U4,8,V+*
G04 #@! TO.N,Board_0-+12V_1*
X150530000Y-140860000D03*
G04 #@! TD*
D12*
G04 #@! TO.P,R58,1*
G04 #@! TO.N,Board_0-Net-(R58-Pad1)*
X140370000Y-60850000D03*
D13*
G04 #@! TO.P,R58,2*
G04 #@! TO.N,Board_0-Net-(U3C--)*
X140370000Y-50690000D03*
G04 #@! TD*
D18*
G04 #@! TO.P,J4,1,Pin_1*
G04 #@! TO.N,Board_0-/Pots board/IN1_P*
X163230000Y-154830000D03*
D19*
G04 #@! TO.P,J4,2,Pin_2*
G04 #@! TO.N,Board_0-/Pots board/IN2_P*
X163230000Y-152290000D03*
G04 #@! TO.P,J4,3,Pin_3*
G04 #@! TO.N,Board_0-/Pots board/RES_CV_IN_P*
X163230000Y-149750000D03*
G04 #@! TO.P,J4,4,Pin_4*
G04 #@! TO.N,Board_0-/Pots board/FREQ_CV_IN_P*
X163230000Y-147210000D03*
G04 #@! TO.P,J4,5,Pin_5*
G04 #@! TO.N,Board_0-/Pots board/V{slash}OCT_IN_P*
X163230000Y-144670000D03*
G04 #@! TD*
D12*
G04 #@! TO.P,R69,1*
G04 #@! TO.N,Board_0-Net-(R66-Pad2)*
X160690000Y-50690000D03*
D13*
G04 #@! TO.P,R69,2*
G04 #@! TO.N,Board_0-Net-(U3D--)*
X160690000Y-60850000D03*
G04 #@! TD*
D12*
G04 #@! TO.P,R62,1*
G04 #@! TO.N,Board_0-/Pots board/V{slash}OCT_IN_P*
X155610000Y-86260000D03*
D13*
G04 #@! TO.P,R62,2*
G04 #@! TO.N,Board_0-Net-(U3A--)*
X155610000Y-76100000D03*
G04 #@! TD*
D12*
G04 #@! TO.P,C14,1*
G04 #@! TO.N,Board_0-/Pots board/FREQ_CV_P*
X109890000Y-86210000D03*
G04 #@! TO.P,C14,2*
G04 #@! TO.N,Board_0-GND1*
X109890000Y-81210000D03*
G04 #@! TD*
G04 #@! TO.P,R70,1*
G04 #@! TO.N,Board_0-Net-(R68-Pad2)*
X158140000Y-154820000D03*
D13*
G04 #@! TO.P,R70,2*
G04 #@! TO.N,Board_0-Net-(D3-A)*
X158140000Y-144660000D03*
G04 #@! TD*
D15*
G04 #@! TO.P,RV11,1,1*
G04 #@! TO.N,Board_0-Net-(R72-Pad1)*
X113700000Y-92600000D03*
G04 #@! TO.P,RV11,2,2*
G04 #@! TO.N,Board_0-/Pots board/V{slash}oct_trim*
X111160000Y-92600000D03*
G04 #@! TO.P,RV11,3,3*
X108620000Y-92600000D03*
G04 #@! TD*
D12*
G04 #@! TO.P,R64,1*
G04 #@! TO.N,Board_0-/Pots board/RESONANCE*
X158160000Y-119270000D03*
D13*
G04 #@! TO.P,R64,2*
G04 #@! TO.N,Board_0-Net-(U4A--)*
X158160000Y-129430000D03*
G04 #@! TD*
D18*
G04 #@! TO.P,J3,1,Pin_1*
G04 #@! TO.N,Board_0-GND1*
X111160000Y-128160000D03*
D19*
G04 #@! TO.P,J3,2,Pin_2*
G04 #@! TO.N,Board_0-+12V_1*
X111160000Y-125620000D03*
G04 #@! TO.P,J3,3,Pin_3*
G04 #@! TO.N,Board_0--12V_1*
X111160000Y-123080000D03*
G04 #@! TO.P,J3,4,Pin_4*
G04 #@! TO.N,Board_0-/Pots board/INPUT_P*
X111160000Y-120540000D03*
G04 #@! TO.P,J3,5,Pin_5*
G04 #@! TO.N,Board_0-/Pots board/FREQ_CV_P*
X111160000Y-118000000D03*
G04 #@! TO.P,J3,6,Pin_6*
G04 #@! TO.N,Board_0-/Pots board/RES_CV_P*
X111160000Y-115460000D03*
G04 #@! TD*
D12*
G04 #@! TO.P,R60,1*
G04 #@! TO.N,Board_0-/Pots board/FREQ_OFFSET*
X130200000Y-86240000D03*
D13*
G04 #@! TO.P,R60,2*
G04 #@! TO.N,Board_0-Net-(U3A--)*
X130200000Y-76080000D03*
G04 #@! TD*
D12*
G04 #@! TO.P,R61,1*
G04 #@! TO.N,Board_0-/Pots board/FREQUENCY*
X135280000Y-86240000D03*
D13*
G04 #@! TO.P,R61,2*
G04 #@! TO.N,Board_0-Net-(U3A--)*
X135280000Y-76080000D03*
G04 #@! TD*
D12*
G04 #@! TO.P,C16,1*
G04 #@! TO.N,Board_0-GND1*
X150530000Y-58310000D03*
G04 #@! TO.P,C16,2*
G04 #@! TO.N,Board_0--12V_1*
X150530000Y-60810000D03*
G04 #@! TD*
G04 #@! TO.P,R63,1*
G04 #@! TO.N,Board_0-Net-(R63-Pad1)*
X150530000Y-86260000D03*
D13*
G04 #@! TO.P,R63,2*
G04 #@! TO.N,Board_0-Net-(U3A--)*
X150530000Y-76100000D03*
G04 #@! TD*
D14*
G04 #@! TO.P,D4,1,K*
G04 #@! TO.N,Board_0-/Pots board/RES_CV_P*
X142900000Y-152280000D03*
D13*
G04 #@! TO.P,D4,2,A*
G04 #@! TO.N,Board_0-Net-(D3-K)*
X142900000Y-144660000D03*
G04 #@! TD*
D12*
G04 #@! TO.P,R67,1*
G04 #@! TO.N,Board_0-Net-(U3A--)*
X140370000Y-76090000D03*
D13*
G04 #@! TO.P,R67,2*
G04 #@! TO.N,Board_0-/Pots board/V{slash}oct_trim*
X140370000Y-86250000D03*
G04 #@! TD*
D20*
G04 #@! TO.N,Board_0-/Pots board/INPUT_P*
X129321000Y-73042000D03*
G04 #@! TD*
D21*
G04 #@! TO.N,Board_0-+12V_1*
X110316000Y-116685000D02*
X111667412Y-116685000D01*
D22*
X151955000Y-113269745D02*
X146466000Y-118758745D01*
X145450000Y-76090000D02*
X151955000Y-82595000D01*
D21*
X112385000Y-115967412D02*
X112385000Y-103985000D01*
X112385000Y-103985000D02*
X108620000Y-100220000D01*
D22*
X147990000Y-73550000D02*
X145450000Y-76090000D01*
X147990000Y-72280000D02*
X147990000Y-73550000D01*
D21*
X109935000Y-123587412D02*
X109935000Y-117066000D01*
X111667412Y-116685000D02*
X112385000Y-115967412D01*
X111160000Y-124812412D02*
X109935000Y-123587412D01*
X111160000Y-125620000D02*
X111160000Y-124812412D01*
X109935000Y-117066000D02*
X110316000Y-116685000D01*
D22*
X146466000Y-140606000D02*
X146710000Y-140850000D01*
X146466000Y-118758745D02*
X146466000Y-140606000D01*
X151955000Y-82595000D02*
X151955000Y-113269745D01*
G04 #@! TO.N,Board_0--12V_1*
X112355000Y-98875000D02*
X108062882Y-98875000D01*
X113700000Y-100220000D02*
X112355000Y-98875000D01*
X108062882Y-98875000D02*
X106080000Y-100857882D01*
X147990000Y-63350000D02*
X150530000Y-60810000D01*
X147990000Y-64660000D02*
X147990000Y-63350000D01*
X106080000Y-100857882D02*
X106080000Y-115460000D01*
D21*
G04 #@! TO.N,Board_0-/Pots board/FREQUENCY*
X127500000Y-69000000D02*
X133385000Y-74885000D01*
X133385000Y-84345000D02*
X135280000Y-86240000D01*
X133385000Y-74885000D02*
X133385000Y-84345000D01*
G04 #@! TO.N,Board_0-/Pots board/FREQ_CV_P*
X120050000Y-109110000D02*
X111160000Y-118000000D01*
X120050000Y-86250000D02*
X120050000Y-109110000D01*
G04 #@! TO.N,Board_0-/Pots board/IN1_P*
X148244000Y-156354000D02*
X144025000Y-152135000D01*
X143045000Y-151155000D02*
X132500000Y-140610000D01*
X163230000Y-154830000D02*
X161706000Y-156354000D01*
X132500000Y-140610000D02*
X132500000Y-114000000D01*
X144025000Y-151155000D02*
X143045000Y-151155000D01*
X144025000Y-152135000D02*
X144025000Y-151155000D01*
X161706000Y-156354000D02*
X148244000Y-156354000D01*
G04 #@! TO.N,Board_0-/Pots board/IN2_P*
X157976202Y-131004501D02*
X157507114Y-131004501D01*
X161960000Y-151020000D02*
X161960000Y-135526000D01*
X156626000Y-61866000D02*
X155610000Y-60850000D01*
X154485000Y-86725991D02*
X154485000Y-85794009D01*
X157507114Y-131004501D02*
X156585000Y-130082387D01*
X160309000Y-133337299D02*
X157976202Y-131004501D01*
X156585000Y-130082387D02*
X156585000Y-88825991D01*
X156735000Y-83544009D02*
X156735000Y-63794010D01*
X156626000Y-63685010D02*
X156626000Y-61866000D01*
X156585000Y-88825991D02*
X154485000Y-86725991D01*
X160309000Y-133875000D02*
X160309000Y-133337299D01*
X154485000Y-85794009D02*
X156735000Y-83544009D01*
X163230000Y-152290000D02*
X161960000Y-151020000D01*
X161960000Y-135526000D02*
X160309000Y-133875000D01*
X156735000Y-63794010D02*
X156626000Y-63685010D01*
G04 #@! TO.N,Board_0-/Pots board/INPUT_P*
X129321000Y-75368009D02*
X129321000Y-73042000D01*
X125130000Y-86250000D02*
X125130000Y-79559009D01*
X125130000Y-79559009D02*
X129321000Y-75368009D01*
X125130000Y-106570000D02*
X125130000Y-86250000D01*
X111160000Y-120540000D02*
X125130000Y-106570000D01*
G04 #@! TO.N,Board_0-/Pots board/RESONANCE*
X175955000Y-70545000D02*
X177500000Y-69000000D01*
X158160000Y-75163223D02*
X162778223Y-70545000D01*
X158160000Y-119270000D02*
X158160000Y-75163223D01*
X162778223Y-70545000D02*
X175955000Y-70545000D01*
G04 #@! TO.N,Board_0-/Pots board/RES_CV_P*
X138064000Y-157116000D02*
X119796000Y-157116000D01*
X142900000Y-152280000D02*
X138064000Y-157116000D01*
X109435499Y-115982420D02*
X109957919Y-115460000D01*
X119796000Y-157116000D02*
X109935000Y-147255000D01*
X109935000Y-124293814D02*
X109435499Y-123794313D01*
X109935000Y-147255000D02*
X109935000Y-124293814D01*
X109957919Y-115460000D02*
X111160000Y-115460000D01*
X109435499Y-123794313D02*
X109435499Y-115982420D01*
G04 #@! TO.N,Board_0-/Pots board/V{slash}OCT_IN_P*
X157694009Y-130555000D02*
X157035000Y-129895991D01*
X157035000Y-129895991D02*
X157035000Y-87685000D01*
X160815000Y-133207609D02*
X158162391Y-130555000D01*
X158162391Y-130555000D02*
X157694009Y-130555000D01*
X157035000Y-87685000D02*
X155610000Y-86260000D01*
X160815000Y-133716701D02*
X160815000Y-133207609D01*
X162468000Y-135369701D02*
X160815000Y-133716701D01*
X162468000Y-143908000D02*
X162468000Y-135369701D01*
X163230000Y-144670000D02*
X162468000Y-143908000D01*
G04 #@! TO.N,Board_0-/Pots board/V{slash}oct_trim*
X140370000Y-86250000D02*
X141785000Y-84835000D01*
X141785000Y-71414010D02*
X142570010Y-70629000D01*
X153959000Y-70629000D02*
X155610000Y-72280000D01*
X142570010Y-70629000D02*
X153959000Y-70629000D01*
X141785000Y-84835000D02*
X141785000Y-71414010D01*
G04 #@! TO.N,Board_0-Net-(D3-A)*
X153060000Y-144660000D02*
X153060000Y-147200000D01*
X155610000Y-140860000D02*
X158140000Y-143390000D01*
X153060000Y-147200000D02*
X147980000Y-152280000D01*
X158140000Y-143390000D02*
X158140000Y-144660000D01*
G04 #@! TO.N,Board_0-Net-(D3-K)*
X153070000Y-140860000D02*
X149270000Y-144660000D01*
X149270000Y-144660000D02*
X147980000Y-144660000D01*
G04 #@! TO.N,Board_0-Net-(R58-Pad1)*
X127500000Y-114000000D02*
X139245000Y-102255000D01*
X139245000Y-102255000D02*
X139245000Y-61975000D01*
X139245000Y-61975000D02*
X140370000Y-60850000D01*
G04 #@! TO.N,Board_0-Net-(R63-Pad1)*
X127500000Y-116885750D02*
X150530000Y-93855750D01*
X127500000Y-154000000D02*
X127500000Y-116885750D01*
X150530000Y-93855750D02*
X150530000Y-86260000D01*
G04 #@! TO.N,Board_0-Net-(R66-Pad2)*
X140370000Y-64660000D02*
X140370000Y-64010000D01*
X145450000Y-58930000D02*
X145450000Y-50690000D01*
X140370000Y-64010000D02*
X145450000Y-58930000D01*
G04 #@! TO.N,Board_0-Net-(R68-Pad2)*
X147980000Y-119260000D02*
X147980000Y-126880000D01*
X158140000Y-154820000D02*
X154195000Y-150875000D01*
X147980000Y-126880000D02*
X150530000Y-129430000D01*
X150530000Y-129430000D02*
X150530000Y-133240000D01*
X154195000Y-136905000D02*
X150530000Y-133240000D01*
X154195000Y-150875000D02*
X154195000Y-136905000D01*
G04 #@! TO.N,Board_0-Net-(R72-Pad1)*
X113845000Y-77215000D02*
X113845000Y-92455000D01*
X114970000Y-76090000D02*
X113845000Y-77215000D01*
X113845000Y-92455000D02*
X113700000Y-92600000D01*
G04 #@! TO.N,Board_0-Net-(U3A--)*
X150530000Y-76100000D02*
X150530000Y-74820000D01*
X150530000Y-74820000D02*
X153070000Y-72280000D01*
G04 #@! TO.N,Board_0-Net-(U3C--)*
X145450000Y-60850000D02*
X155610000Y-50690000D01*
X142910000Y-63390000D02*
X145450000Y-60850000D01*
X142910000Y-64660000D02*
X142910000Y-63390000D01*
G04 #@! TO.N,Board_0-Net-(U4A--)*
X153070000Y-129430000D02*
X153070000Y-133240000D01*
G04 #@! TD*
G04 #@! TA.AperFunction,Conductor*
G04 #@! TO.N,Board_0-GND1*
G36*
X160447561Y-73921881D02*
G01*
X160485767Y-73966614D01*
X160499500Y-74023817D01*
X160499500Y-121974842D01*
X160499459Y-121975048D01*
X160499459Y-122000000D01*
X160499500Y-122000099D01*
X160499617Y-122000383D01*
X160500000Y-122000541D01*
X160500002Y-122000539D01*
X160525014Y-122000524D01*
X160525014Y-122000528D01*
X160525158Y-122000500D01*
X188373500Y-122000500D01*
X188436500Y-122017381D01*
X188482619Y-122063500D01*
X188499500Y-122126500D01*
X188499500Y-157873500D01*
X188482619Y-157936500D01*
X188436500Y-157982619D01*
X188373500Y-157999500D01*
X152500099Y-157999500D01*
X138139550Y-157999500D01*
X138077122Y-157982948D01*
X138031096Y-157937639D01*
X138013566Y-157875479D01*
X138029136Y-157812799D01*
X138073716Y-157766067D01*
X138135593Y-157747562D01*
X138163889Y-157746673D01*
X138183338Y-157741021D01*
X138202698Y-157737012D01*
X138222797Y-157734474D01*
X138263915Y-157718193D01*
X138275117Y-157714357D01*
X138317593Y-157702018D01*
X138335039Y-157691699D01*
X138352780Y-157683009D01*
X138371617Y-157675552D01*
X138407392Y-157649558D01*
X138417303Y-157643048D01*
X138455362Y-157620542D01*
X138469691Y-157606212D01*
X138484719Y-157593377D01*
X138501107Y-157581472D01*
X138529303Y-157547386D01*
X138537272Y-157538630D01*
X142450499Y-153625405D01*
X142491377Y-153598091D01*
X142539595Y-153588500D01*
X143748638Y-153588500D01*
X143809201Y-153581989D01*
X143946204Y-153530889D01*
X144063261Y-153443261D01*
X144136274Y-153345726D01*
X144176756Y-153310649D01*
X144228153Y-153295557D01*
X144281174Y-153303180D01*
X144326236Y-153332140D01*
X146042182Y-155048087D01*
X147736754Y-156742659D01*
X147749833Y-156758983D01*
X147801649Y-156807641D01*
X147804460Y-156810365D01*
X147824230Y-156830135D01*
X147827443Y-156832627D01*
X147836433Y-156840306D01*
X147868679Y-156870586D01*
X147886426Y-156880342D01*
X147902950Y-156891196D01*
X147918959Y-156903614D01*
X147959542Y-156921175D01*
X147970193Y-156926393D01*
X148008940Y-156947695D01*
X148028560Y-156952732D01*
X148047267Y-156959137D01*
X148053880Y-156961998D01*
X148065854Y-156967181D01*
X148076505Y-156968867D01*
X148109530Y-156974098D01*
X148121125Y-156976498D01*
X148163970Y-156987500D01*
X148184224Y-156987500D01*
X148203934Y-156989051D01*
X148223942Y-156992220D01*
X148223942Y-156992219D01*
X148223943Y-156992220D01*
X148267961Y-156988058D01*
X148279819Y-156987500D01*
X161622147Y-156987500D01*
X161642935Y-156989795D01*
X161645907Y-156989701D01*
X161645909Y-156989702D01*
X161713985Y-156987562D01*
X161717945Y-156987500D01*
X161745852Y-156987500D01*
X161745856Y-156987500D01*
X161749865Y-156986993D01*
X161761699Y-156986061D01*
X161805889Y-156984673D01*
X161825338Y-156979021D01*
X161844698Y-156975012D01*
X161864797Y-156972474D01*
X161905915Y-156956193D01*
X161917117Y-156952357D01*
X161959593Y-156940018D01*
X161977039Y-156929699D01*
X161994780Y-156921009D01*
X162013617Y-156913552D01*
X162049392Y-156887558D01*
X162059303Y-156881048D01*
X162097362Y-156858542D01*
X162111691Y-156844212D01*
X162126719Y-156831377D01*
X162143107Y-156819472D01*
X162171298Y-156785393D01*
X162179268Y-156776634D01*
X162730499Y-156225404D01*
X162771377Y-156198091D01*
X162819595Y-156188500D01*
X164128638Y-156188500D01*
X164189201Y-156181989D01*
X164326204Y-156130889D01*
X164443261Y-156043261D01*
X164530889Y-155926204D01*
X164581989Y-155789201D01*
X164588500Y-155728638D01*
X164588500Y-155353199D01*
X171506011Y-155353199D01*
X171658644Y-155457263D01*
X171885241Y-155566387D01*
X172125559Y-155640514D01*
X172374254Y-155678000D01*
X172625746Y-155678000D01*
X172874440Y-155640514D01*
X173114761Y-155566386D01*
X173341349Y-155457266D01*
X173493988Y-155353198D01*
X172500001Y-154359210D01*
X172499999Y-154359210D01*
X171506011Y-155353197D01*
X171506011Y-155353199D01*
X164588500Y-155353199D01*
X164588500Y-153999999D01*
X170817295Y-153999999D01*
X170836089Y-154250795D01*
X170892053Y-154495987D01*
X170983935Y-154730098D01*
X171109684Y-154947901D01*
X171146597Y-154994189D01*
X171146599Y-154994189D01*
X172140789Y-154000001D01*
X172859210Y-154000001D01*
X173853400Y-154994190D01*
X173853401Y-154994190D01*
X173890317Y-154947899D01*
X174016064Y-154730099D01*
X174107946Y-154495987D01*
X174163910Y-154250795D01*
X174182704Y-153999999D01*
X175816793Y-153999999D01*
X175835593Y-154250871D01*
X175891572Y-154496133D01*
X175983397Y-154730098D01*
X175983483Y-154730316D01*
X176109269Y-154948184D01*
X176266122Y-155144872D01*
X176432533Y-155299278D01*
X176450541Y-155315987D01*
X176606432Y-155422270D01*
X176658397Y-155457700D01*
X176775901Y-155514287D01*
X176885054Y-155566853D01*
X176938667Y-155583390D01*
X177125451Y-155641005D01*
X177374214Y-155678500D01*
X177625784Y-155678500D01*
X177625786Y-155678500D01*
X177874549Y-155641005D01*
X178114945Y-155566853D01*
X178341604Y-155457700D01*
X178549462Y-155315984D01*
X178733878Y-155144872D01*
X178890731Y-154948184D01*
X179016517Y-154730316D01*
X179108427Y-154496134D01*
X179164407Y-154250869D01*
X179183207Y-154000000D01*
X179183207Y-153999999D01*
X180816793Y-153999999D01*
X180835593Y-154250871D01*
X180891572Y-154496133D01*
X180983397Y-154730098D01*
X180983483Y-154730316D01*
X181109269Y-154948184D01*
X181266122Y-155144872D01*
X181432533Y-155299278D01*
X181450541Y-155315987D01*
X181606432Y-155422270D01*
X181658397Y-155457700D01*
X181775901Y-155514287D01*
X181885054Y-155566853D01*
X181938667Y-155583390D01*
X182125451Y-155641005D01*
X182374214Y-155678500D01*
X182625784Y-155678500D01*
X182625786Y-155678500D01*
X182874549Y-155641005D01*
X183114945Y-155566853D01*
X183341604Y-155457700D01*
X183549462Y-155315984D01*
X183733878Y-155144872D01*
X183890731Y-154948184D01*
X184016517Y-154730316D01*
X184108427Y-154496134D01*
X184164407Y-154250869D01*
X184183207Y-154000000D01*
X184164407Y-153749131D01*
X184108427Y-153503866D01*
X184016517Y-153269684D01*
X183890731Y-153051816D01*
X183733878Y-152855128D01*
X183549462Y-152684016D01*
X183341604Y-152542300D01*
X183341603Y-152542299D01*
X183341601Y-152542298D01*
X183114945Y-152433146D01*
X182941134Y-152379533D01*
X182874549Y-152358995D01*
X182625786Y-152321500D01*
X182374214Y-152321500D01*
X182125451Y-152358995D01*
X182112752Y-152362912D01*
X181885054Y-152433146D01*
X181658396Y-152542300D01*
X181450541Y-152684012D01*
X181398159Y-152732616D01*
X181266122Y-152855128D01*
X181109269Y-153051816D01*
X181109267Y-153051819D01*
X180983483Y-153269683D01*
X180891572Y-153503866D01*
X180835593Y-153749128D01*
X180816793Y-153999999D01*
X179183207Y-153999999D01*
X179164407Y-153749131D01*
X179108427Y-153503866D01*
X179016517Y-153269684D01*
X178890731Y-153051816D01*
X178733878Y-152855128D01*
X178549462Y-152684016D01*
X178341604Y-152542300D01*
X178341603Y-152542299D01*
X178341601Y-152542298D01*
X178114945Y-152433146D01*
X177941134Y-152379533D01*
X177874549Y-152358995D01*
X177625786Y-152321500D01*
X177374214Y-152321500D01*
X177125451Y-152358995D01*
X177112752Y-152362912D01*
X176885054Y-152433146D01*
X176658396Y-152542300D01*
X176450541Y-152684012D01*
X176398159Y-152732616D01*
X176266122Y-152855128D01*
X176109269Y-153051816D01*
X176109267Y-153051819D01*
X175983483Y-153269683D01*
X175891572Y-153503866D01*
X175835593Y-153749128D01*
X175816793Y-153999999D01*
X174182704Y-153999999D01*
X174163910Y-153749204D01*
X174107946Y-153504012D01*
X174016064Y-153269901D01*
X173890315Y-153052098D01*
X173853401Y-153005809D01*
X173853399Y-153005809D01*
X172859210Y-153999999D01*
X172859210Y-154000001D01*
X172140789Y-154000001D01*
X172140789Y-153999999D01*
X171146598Y-153005809D01*
X171146597Y-153005809D01*
X171109684Y-153052098D01*
X170983935Y-153269901D01*
X170892053Y-153504012D01*
X170836089Y-153749204D01*
X170817295Y-153999999D01*
X164588500Y-153999999D01*
X164588500Y-153931362D01*
X164581989Y-153870799D01*
X164530889Y-153733796D01*
X164530888Y-153733794D01*
X164443261Y-153616738D01*
X164326205Y-153529111D01*
X164258520Y-153503866D01*
X164211191Y-153486213D01*
X164160858Y-153451650D01*
X164132684Y-153397480D01*
X164133287Y-153336424D01*
X164162522Y-153282822D01*
X164305722Y-153127268D01*
X164428860Y-152938791D01*
X164519296Y-152732616D01*
X164541027Y-152646801D01*
X171506011Y-152646801D01*
X172499999Y-153640789D01*
X172500001Y-153640789D01*
X173493987Y-152646801D01*
X173493987Y-152646799D01*
X173341353Y-152542735D01*
X173114761Y-152433613D01*
X172874440Y-152359485D01*
X172625746Y-152322000D01*
X172374254Y-152322000D01*
X172125559Y-152359485D01*
X171885241Y-152433612D01*
X171658650Y-152542734D01*
X171506011Y-152646800D01*
X171506011Y-152646801D01*
X164541027Y-152646801D01*
X164574564Y-152514368D01*
X164593156Y-152290000D01*
X164574564Y-152065632D01*
X164519296Y-151847384D01*
X164428860Y-151641209D01*
X164305722Y-151452732D01*
X164153240Y-151287094D01*
X164153239Y-151287093D01*
X164153237Y-151287091D01*
X163975579Y-151148813D01*
X163975577Y-151148812D01*
X163975576Y-151148811D01*
X163942317Y-151130812D01*
X163894047Y-151084498D01*
X163876288Y-151020000D01*
X163894047Y-150955502D01*
X163942317Y-150909187D01*
X163975576Y-150891189D01*
X164153240Y-150752906D01*
X164305722Y-150587268D01*
X164428860Y-150398791D01*
X164519296Y-150192616D01*
X164574564Y-149974368D01*
X164593156Y-149750000D01*
X164574564Y-149525632D01*
X164519296Y-149307384D01*
X164428860Y-149101209D01*
X164305722Y-148912732D01*
X164153240Y-148747094D01*
X164153239Y-148747093D01*
X164153237Y-148747091D01*
X163975579Y-148608813D01*
X163975577Y-148608812D01*
X163975576Y-148608811D01*
X163942317Y-148590812D01*
X163894047Y-148544498D01*
X163876288Y-148480000D01*
X163894047Y-148415502D01*
X163942317Y-148369187D01*
X163975576Y-148351189D01*
X164153240Y-148212906D01*
X164305722Y-148047268D01*
X164428860Y-147858791D01*
X164519296Y-147652616D01*
X164574564Y-147434368D01*
X164593156Y-147210000D01*
X164574564Y-146985632D01*
X164519296Y-146767384D01*
X164428860Y-146561209D01*
X164305722Y-146372732D01*
X164153240Y-146207094D01*
X164153239Y-146207093D01*
X164153237Y-146207091D01*
X163975579Y-146068813D01*
X163975577Y-146068812D01*
X163975576Y-146068811D01*
X163942317Y-146050812D01*
X163894047Y-146004498D01*
X163876288Y-145940000D01*
X163894047Y-145875502D01*
X163942317Y-145829187D01*
X163975576Y-145811189D01*
X164153240Y-145672906D01*
X164305722Y-145507268D01*
X164428860Y-145318791D01*
X164519296Y-145112616D01*
X164574564Y-144894368D01*
X164593156Y-144670000D01*
X164574564Y-144445632D01*
X164519296Y-144227384D01*
X164428860Y-144021209D01*
X164305722Y-143832732D01*
X164153240Y-143667094D01*
X164153239Y-143667093D01*
X164153237Y-143667091D01*
X163975578Y-143528812D01*
X163777573Y-143421657D01*
X163592176Y-143358011D01*
X163564635Y-143348556D01*
X163342569Y-143311500D01*
X163227500Y-143311500D01*
X163164500Y-143294619D01*
X163118381Y-143248500D01*
X163101500Y-143185500D01*
X163101500Y-135453554D01*
X163103795Y-135432765D01*
X163101562Y-135361715D01*
X163101500Y-135357756D01*
X163101500Y-135329850D01*
X163101500Y-135329845D01*
X163100992Y-135325832D01*
X163100061Y-135313998D01*
X163098673Y-135269812D01*
X163093021Y-135250360D01*
X163089012Y-135231000D01*
X163086474Y-135210904D01*
X163070196Y-135169791D01*
X163066350Y-135158557D01*
X163054018Y-135116108D01*
X163043706Y-135098671D01*
X163035008Y-135080916D01*
X163027552Y-135062084D01*
X163001565Y-135026317D01*
X162995047Y-135016394D01*
X162987661Y-135003905D01*
X162972542Y-134978339D01*
X162958212Y-134964009D01*
X162945378Y-134948982D01*
X162933472Y-134932594D01*
X162933471Y-134932593D01*
X162899394Y-134904401D01*
X162890616Y-134896413D01*
X162579608Y-134585405D01*
X162548534Y-134534198D01*
X162544618Y-134474429D01*
X162568742Y-134419604D01*
X162615452Y-134382116D01*
X162646749Y-134367523D01*
X162718760Y-134317100D01*
X163762110Y-134317100D01*
X163833497Y-134367085D01*
X164040929Y-134463813D01*
X164262000Y-134523048D01*
X164490000Y-134542995D01*
X164717999Y-134523048D01*
X164939070Y-134463813D01*
X165146498Y-134367087D01*
X165217888Y-134317099D01*
X165217888Y-134317097D01*
X164490001Y-133589210D01*
X164490000Y-133589210D01*
X163762110Y-134317098D01*
X163762110Y-134317100D01*
X162718760Y-134317100D01*
X162834300Y-134236198D01*
X162996198Y-134074300D01*
X163127523Y-133886749D01*
X163127522Y-133886749D01*
X163133846Y-133877719D01*
X163135622Y-133878962D01*
X163172571Y-133836826D01*
X163240272Y-133817090D01*
X163307974Y-133836822D01*
X163344750Y-133878756D01*
X163346590Y-133877468D01*
X163402900Y-133957887D01*
X164130789Y-133230001D01*
X164849210Y-133230001D01*
X165577097Y-133957888D01*
X165577099Y-133957888D01*
X165627087Y-133886498D01*
X165723813Y-133679070D01*
X165783048Y-133457999D01*
X165802995Y-133230000D01*
X165783048Y-133002000D01*
X165723813Y-132780929D01*
X165627085Y-132573497D01*
X165577100Y-132502110D01*
X165577098Y-132502110D01*
X164849210Y-133230000D01*
X164849210Y-133230001D01*
X164130789Y-133230001D01*
X164130790Y-133230000D01*
X164130790Y-133229999D01*
X163402900Y-132502109D01*
X163346590Y-132582531D01*
X163344751Y-132581243D01*
X163307971Y-132623179D01*
X163240272Y-132642909D01*
X163172574Y-132623175D01*
X163135621Y-132581037D01*
X163133846Y-132582281D01*
X162996195Y-132385696D01*
X162834303Y-132223804D01*
X162718761Y-132142900D01*
X163762109Y-132142900D01*
X164489999Y-132870790D01*
X164490000Y-132870790D01*
X165217888Y-132142899D01*
X165146497Y-132092912D01*
X164939070Y-131996186D01*
X164717999Y-131936951D01*
X164490000Y-131917004D01*
X164262000Y-131936951D01*
X164040929Y-131996186D01*
X163833499Y-132092913D01*
X163762109Y-132142900D01*
X162718761Y-132142900D01*
X162646750Y-132092477D01*
X162439243Y-131995715D01*
X162218087Y-131936457D01*
X161990000Y-131916502D01*
X161761912Y-131936457D01*
X161540756Y-131995715D01*
X161333249Y-132092477D01*
X161145699Y-132223802D01*
X161025493Y-132344008D01*
X160969009Y-132376619D01*
X160903787Y-132376619D01*
X160847303Y-132344007D01*
X159060992Y-130557696D01*
X159028380Y-130501212D01*
X159028380Y-130435989D01*
X159060990Y-130379507D01*
X159166198Y-130274300D01*
X159297523Y-130086749D01*
X159394284Y-129879243D01*
X159453543Y-129658087D01*
X159473498Y-129430000D01*
X159453543Y-129201913D01*
X159394284Y-128980757D01*
X159389620Y-128970756D01*
X159297522Y-128773249D01*
X159166195Y-128585696D01*
X159004303Y-128423804D01*
X158816750Y-128292477D01*
X158609243Y-128195715D01*
X158388087Y-128136457D01*
X158160000Y-128116502D01*
X157931912Y-128136457D01*
X157908259Y-128142795D01*
X157827110Y-128164539D01*
X157769919Y-128166411D01*
X157717796Y-128142795D01*
X157681494Y-128098560D01*
X157668500Y-128042832D01*
X157668500Y-120657168D01*
X157681494Y-120601440D01*
X157717796Y-120557205D01*
X157769919Y-120533589D01*
X157827110Y-120535460D01*
X157931913Y-120563543D01*
X158160000Y-120583498D01*
X158388087Y-120563543D01*
X158609243Y-120504284D01*
X158816749Y-120407523D01*
X159004300Y-120276198D01*
X159166198Y-120114300D01*
X159297523Y-119926749D01*
X159394284Y-119719243D01*
X159453543Y-119498087D01*
X159473498Y-119270000D01*
X159453543Y-119041913D01*
X159394284Y-118820757D01*
X159393227Y-118818491D01*
X159297522Y-118613249D01*
X159166195Y-118425696D01*
X159004303Y-118263804D01*
X158965414Y-118236574D01*
X158847227Y-118153818D01*
X158807737Y-118108787D01*
X158793500Y-118050607D01*
X158793500Y-75477817D01*
X158803091Y-75429599D01*
X158830405Y-75388722D01*
X160284405Y-73934722D01*
X160334564Y-73903984D01*
X160393211Y-73899368D01*
X160447561Y-73921881D01*
G37*
G04 #@! TD.AperFunction*
G04 #@! TA.AperFunction,Conductor*
G36*
X195436500Y-42017381D02*
G01*
X195482619Y-42063500D01*
X195499500Y-42126500D01*
X195499500Y-72873500D01*
X195482619Y-72936500D01*
X195436500Y-72982619D01*
X195373500Y-72999500D01*
X161523817Y-72999500D01*
X161466614Y-72985767D01*
X161421881Y-72947561D01*
X161399368Y-72893211D01*
X161403984Y-72834564D01*
X161434722Y-72784405D01*
X163003722Y-71215405D01*
X163044599Y-71188091D01*
X163092817Y-71178500D01*
X175871147Y-71178500D01*
X175891935Y-71180795D01*
X175894907Y-71180701D01*
X175894909Y-71180702D01*
X175962985Y-71178562D01*
X175966945Y-71178500D01*
X175994852Y-71178500D01*
X175994856Y-71178500D01*
X175998865Y-71177993D01*
X176010699Y-71177061D01*
X176054889Y-71175673D01*
X176074338Y-71170021D01*
X176093698Y-71166012D01*
X176113797Y-71163474D01*
X176154915Y-71147193D01*
X176166117Y-71143357D01*
X176208593Y-71131018D01*
X176226039Y-71120699D01*
X176243780Y-71112009D01*
X176262617Y-71104552D01*
X176298392Y-71078558D01*
X176308303Y-71072048D01*
X176346362Y-71049542D01*
X176360691Y-71035212D01*
X176375719Y-71022377D01*
X176392107Y-71010472D01*
X176420303Y-70976386D01*
X176428272Y-70967630D01*
X176788569Y-70607333D01*
X176847332Y-70574135D01*
X176914799Y-70576027D01*
X177125451Y-70641005D01*
X177374214Y-70678500D01*
X177625784Y-70678500D01*
X177625786Y-70678500D01*
X177874549Y-70641005D01*
X178114945Y-70566853D01*
X178341604Y-70457700D01*
X178549462Y-70315984D01*
X178733878Y-70144872D01*
X178890731Y-69948184D01*
X179016517Y-69730316D01*
X179108427Y-69496134D01*
X179164407Y-69250869D01*
X179183207Y-69000000D01*
X179183207Y-68999999D01*
X180816793Y-68999999D01*
X180835593Y-69250871D01*
X180891572Y-69496133D01*
X180975457Y-69709866D01*
X180983483Y-69730316D01*
X181109269Y-69948184D01*
X181266122Y-70144872D01*
X181369012Y-70240339D01*
X181450541Y-70315987D01*
X181606432Y-70422271D01*
X181658397Y-70457700D01*
X181763884Y-70508500D01*
X181885054Y-70566853D01*
X181914803Y-70576029D01*
X182125451Y-70641005D01*
X182374214Y-70678500D01*
X182625784Y-70678500D01*
X182625786Y-70678500D01*
X182874549Y-70641005D01*
X183114945Y-70566853D01*
X183341604Y-70457700D01*
X183549462Y-70315984D01*
X183733878Y-70144872D01*
X183890731Y-69948184D01*
X184016517Y-69730316D01*
X184108427Y-69496134D01*
X184164407Y-69250869D01*
X184183207Y-69000000D01*
X184164407Y-68749131D01*
X184108427Y-68503866D01*
X184016517Y-68269684D01*
X183890731Y-68051816D01*
X183733878Y-67855128D01*
X183549462Y-67684016D01*
X183341604Y-67542300D01*
X183341603Y-67542299D01*
X183341601Y-67542298D01*
X183114945Y-67433146D01*
X182941134Y-67379533D01*
X182874549Y-67358995D01*
X182625786Y-67321500D01*
X182374214Y-67321500D01*
X182125451Y-67358995D01*
X182112477Y-67362996D01*
X181885054Y-67433146D01*
X181658396Y-67542300D01*
X181450541Y-67684012D01*
X181349327Y-67777924D01*
X181266122Y-67855128D01*
X181109269Y-68051816D01*
X181109267Y-68051819D01*
X180983483Y-68269683D01*
X180891572Y-68503866D01*
X180835593Y-68749128D01*
X180816793Y-68999999D01*
X179183207Y-68999999D01*
X179164407Y-68749131D01*
X179108427Y-68503866D01*
X179016517Y-68269684D01*
X178890731Y-68051816D01*
X178733878Y-67855128D01*
X178549462Y-67684016D01*
X178341604Y-67542300D01*
X178341603Y-67542299D01*
X178341601Y-67542298D01*
X178114945Y-67433146D01*
X177941134Y-67379533D01*
X177874549Y-67358995D01*
X177625786Y-67321500D01*
X177374214Y-67321500D01*
X177125451Y-67358995D01*
X177112477Y-67362996D01*
X176885054Y-67433146D01*
X176658396Y-67542300D01*
X176450541Y-67684012D01*
X176349327Y-67777924D01*
X176266122Y-67855128D01*
X176109269Y-68051816D01*
X176109267Y-68051819D01*
X175983483Y-68269683D01*
X175891572Y-68503866D01*
X175835593Y-68749128D01*
X175816793Y-68999999D01*
X175835593Y-69250871D01*
X175891572Y-69496134D01*
X175922422Y-69574737D01*
X175931122Y-69622341D01*
X175921238Y-69669712D01*
X175894228Y-69709865D01*
X175729500Y-69874595D01*
X175688622Y-69901909D01*
X175640404Y-69911500D01*
X174129571Y-69911500D01*
X174066581Y-69894625D01*
X174020463Y-69848520D01*
X174003571Y-69785535D01*
X174015726Y-69740109D01*
X174012615Y-69738888D01*
X174107946Y-69495987D01*
X174163910Y-69250795D01*
X174182704Y-69000000D01*
X174163910Y-68749204D01*
X174107946Y-68504012D01*
X174016064Y-68269901D01*
X173890315Y-68052098D01*
X173853401Y-68005809D01*
X173853399Y-68005809D01*
X172589094Y-69270114D01*
X172532610Y-69302726D01*
X172467388Y-69302726D01*
X172410904Y-69270114D01*
X171146598Y-68005809D01*
X171146597Y-68005809D01*
X171109684Y-68052098D01*
X170983935Y-68269901D01*
X170892053Y-68504012D01*
X170836089Y-68749204D01*
X170817295Y-69000000D01*
X170836089Y-69250795D01*
X170892053Y-69495987D01*
X170987385Y-69738888D01*
X170984273Y-69740109D01*
X170996429Y-69785535D01*
X170979537Y-69848520D01*
X170933419Y-69894625D01*
X170870429Y-69911500D01*
X162862077Y-69911500D01*
X162841287Y-69909204D01*
X162770225Y-69911438D01*
X162766267Y-69911500D01*
X162738365Y-69911500D01*
X162734357Y-69912006D01*
X162722536Y-69912936D01*
X162678332Y-69914325D01*
X162658876Y-69919978D01*
X162639524Y-69923986D01*
X162619423Y-69926526D01*
X162578317Y-69942800D01*
X162567093Y-69946643D01*
X162524628Y-69958981D01*
X162507183Y-69969297D01*
X162489440Y-69977989D01*
X162470607Y-69985446D01*
X162434839Y-70011433D01*
X162424920Y-70017949D01*
X162386859Y-70040458D01*
X162372534Y-70054783D01*
X162357507Y-70067617D01*
X162341117Y-70079525D01*
X162312924Y-70113604D01*
X162304936Y-70122381D01*
X157771336Y-74655980D01*
X157755016Y-74669056D01*
X157706370Y-74720858D01*
X157703620Y-74723696D01*
X157683868Y-74743449D01*
X157683864Y-74743453D01*
X157683865Y-74743453D01*
X157681379Y-74746656D01*
X157673687Y-74755662D01*
X157643413Y-74787901D01*
X157633652Y-74805657D01*
X157622801Y-74822175D01*
X157610387Y-74838179D01*
X157610137Y-74838758D01*
X157605659Y-74844275D01*
X157600632Y-74850757D01*
X157600489Y-74850646D01*
X157567273Y-74891575D01*
X157503201Y-74914415D01*
X157436593Y-74900621D01*
X157386861Y-74854213D01*
X157368500Y-74788716D01*
X157368500Y-67646801D01*
X171506011Y-67646801D01*
X172499999Y-68640789D01*
X172500001Y-68640789D01*
X173493987Y-67646801D01*
X173493987Y-67646799D01*
X173341353Y-67542735D01*
X173114761Y-67433613D01*
X172874440Y-67359485D01*
X172625746Y-67322000D01*
X172374254Y-67322000D01*
X172125559Y-67359485D01*
X171885241Y-67433612D01*
X171658650Y-67542734D01*
X171506011Y-67646800D01*
X171506011Y-67646801D01*
X157368500Y-67646801D01*
X157368500Y-63877863D01*
X157370795Y-63857074D01*
X157368562Y-63786024D01*
X157368500Y-63782065D01*
X157368500Y-63754159D01*
X157368500Y-63754154D01*
X157367992Y-63750141D01*
X157367061Y-63738307D01*
X157366356Y-63715867D01*
X157365673Y-63694120D01*
X157360020Y-63674666D01*
X157356012Y-63655308D01*
X157353474Y-63635213D01*
X157337190Y-63594087D01*
X157333359Y-63582898D01*
X157321018Y-63540417D01*
X157310704Y-63522978D01*
X157302008Y-63505226D01*
X157297895Y-63494838D01*
X157294552Y-63486393D01*
X157283565Y-63471271D01*
X157265667Y-63436147D01*
X157259500Y-63397209D01*
X157259500Y-61949853D01*
X157261795Y-61929063D01*
X157259562Y-61858001D01*
X157259500Y-61854043D01*
X157259500Y-61826149D01*
X157259500Y-61826144D01*
X157258993Y-61822138D01*
X157258062Y-61810305D01*
X157256674Y-61766111D01*
X157251020Y-61746652D01*
X157247013Y-61727306D01*
X157244474Y-61707203D01*
X157228194Y-61666086D01*
X157224353Y-61654866D01*
X157212018Y-61612407D01*
X157201706Y-61594970D01*
X157193008Y-61577215D01*
X157185552Y-61558383D01*
X157159565Y-61522616D01*
X157153047Y-61512693D01*
X157135487Y-61483000D01*
X157130542Y-61474638D01*
X157116212Y-61460308D01*
X157103378Y-61445281D01*
X157091472Y-61428893D01*
X157091471Y-61428892D01*
X157057394Y-61400700D01*
X157048616Y-61392712D01*
X156919152Y-61263248D01*
X156886540Y-61206764D01*
X156886540Y-61141542D01*
X156894802Y-61110707D01*
X156903543Y-61078087D01*
X156923498Y-60850000D01*
X159376502Y-60850000D01*
X159396457Y-61078087D01*
X159455715Y-61299243D01*
X159552477Y-61506750D01*
X159683804Y-61694303D01*
X159845696Y-61856195D01*
X160033249Y-61987522D01*
X160240756Y-62084284D01*
X160300015Y-62100162D01*
X160461913Y-62143543D01*
X160690000Y-62163498D01*
X160918087Y-62143543D01*
X161139243Y-62084284D01*
X161346749Y-61987523D01*
X161534300Y-61856198D01*
X161696198Y-61694300D01*
X161827523Y-61506749D01*
X161924284Y-61299243D01*
X161983543Y-61078087D01*
X162003498Y-60850000D01*
X161983543Y-60621913D01*
X161924284Y-60400757D01*
X161905631Y-60360756D01*
X161827522Y-60193249D01*
X161696195Y-60005696D01*
X161534303Y-59843804D01*
X161346750Y-59712477D01*
X161139243Y-59615715D01*
X160918087Y-59556457D01*
X160690000Y-59536502D01*
X160461912Y-59556457D01*
X160240756Y-59615715D01*
X160033249Y-59712477D01*
X159845696Y-59843804D01*
X159683804Y-60005696D01*
X159552477Y-60193249D01*
X159455715Y-60400756D01*
X159396457Y-60621912D01*
X159376502Y-60850000D01*
X156923498Y-60850000D01*
X156903543Y-60621913D01*
X156844284Y-60400757D01*
X156825631Y-60360756D01*
X156747522Y-60193249D01*
X156616195Y-60005696D01*
X156454303Y-59843804D01*
X156266750Y-59712477D01*
X156059243Y-59615715D01*
X155838087Y-59556457D01*
X155610000Y-59536502D01*
X155381912Y-59556457D01*
X155160756Y-59615715D01*
X154953249Y-59712477D01*
X154765696Y-59843804D01*
X154603804Y-60005696D01*
X154472477Y-60193249D01*
X154375715Y-60400756D01*
X154316457Y-60621912D01*
X154296502Y-60850000D01*
X154316457Y-61078087D01*
X154375715Y-61299243D01*
X154472477Y-61506750D01*
X154603804Y-61694303D01*
X154765696Y-61856195D01*
X154953249Y-61987522D01*
X155160756Y-62084284D01*
X155220015Y-62100162D01*
X155381913Y-62143543D01*
X155610000Y-62163498D01*
X155838087Y-62143543D01*
X155838087Y-62143542D01*
X155849070Y-62142582D01*
X155849208Y-62144166D01*
X155891081Y-62142796D01*
X155943204Y-62166413D01*
X155979506Y-62210647D01*
X155992500Y-62266375D01*
X155992500Y-62843625D01*
X155979507Y-62899352D01*
X155943206Y-62943586D01*
X155891085Y-62967203D01*
X155849207Y-62965833D01*
X155849069Y-62967418D01*
X155838088Y-62966457D01*
X155838087Y-62966457D01*
X155610000Y-62946502D01*
X155381912Y-62966457D01*
X155160756Y-63025715D01*
X154953249Y-63122477D01*
X154765696Y-63253804D01*
X154603804Y-63415696D01*
X154472477Y-63603250D01*
X154454195Y-63642457D01*
X154407700Y-63695474D01*
X154340000Y-63715207D01*
X154272300Y-63695474D01*
X154225805Y-63642457D01*
X154207640Y-63603502D01*
X154207523Y-63603251D01*
X154076198Y-63415700D01*
X154076197Y-63415699D01*
X154076195Y-63415696D01*
X153914303Y-63253804D01*
X153726750Y-63122477D01*
X153519243Y-63025715D01*
X153298087Y-62966457D01*
X153070000Y-62946502D01*
X152841912Y-62966457D01*
X152620756Y-63025715D01*
X152413249Y-63122477D01*
X152225696Y-63253804D01*
X152063804Y-63415696D01*
X151932477Y-63603250D01*
X151913919Y-63643049D01*
X151867424Y-63696066D01*
X151799724Y-63715799D01*
X151732024Y-63696066D01*
X151685529Y-63643049D01*
X151667087Y-63603501D01*
X151535810Y-63416018D01*
X151373981Y-63254189D01*
X151186498Y-63122912D01*
X150979070Y-63026186D01*
X150783999Y-62973917D01*
X150784000Y-62973918D01*
X150784000Y-66346082D01*
X150979070Y-66293813D01*
X151186498Y-66197087D01*
X151373981Y-66065810D01*
X151535810Y-65903981D01*
X151667088Y-65716497D01*
X151685529Y-65676951D01*
X151732024Y-65623933D01*
X151799724Y-65604200D01*
X151867424Y-65623933D01*
X151913919Y-65676951D01*
X151932476Y-65716748D01*
X152063804Y-65904303D01*
X152225696Y-66066195D01*
X152413249Y-66197522D01*
X152620756Y-66294284D01*
X152680015Y-66310162D01*
X152841913Y-66353543D01*
X153070000Y-66373498D01*
X153298087Y-66353543D01*
X153519243Y-66294284D01*
X153726749Y-66197523D01*
X153914300Y-66066198D01*
X154076198Y-65904300D01*
X154207523Y-65716749D01*
X154225804Y-65677543D01*
X154272300Y-65624525D01*
X154340000Y-65604792D01*
X154407700Y-65624525D01*
X154454195Y-65677543D01*
X154472476Y-65716748D01*
X154603804Y-65904303D01*
X154765696Y-66066195D01*
X154953249Y-66197522D01*
X155160756Y-66294284D01*
X155220015Y-66310162D01*
X155381913Y-66353543D01*
X155610000Y-66373498D01*
X155838087Y-66353543D01*
X155942889Y-66325460D01*
X156000081Y-66323589D01*
X156052204Y-66347205D01*
X156088506Y-66391440D01*
X156101500Y-66447168D01*
X156101500Y-70445500D01*
X156084619Y-70508500D01*
X156038500Y-70554619D01*
X155975500Y-70571500D01*
X154849595Y-70571500D01*
X154801377Y-70561909D01*
X154760500Y-70534595D01*
X154466244Y-70240339D01*
X154453171Y-70224021D01*
X154434386Y-70206381D01*
X154401347Y-70175355D01*
X154398536Y-70172631D01*
X154378770Y-70152865D01*
X154375575Y-70150386D01*
X154366553Y-70142681D01*
X154334320Y-70112413D01*
X154316567Y-70102653D01*
X154300041Y-70091797D01*
X154284041Y-70079386D01*
X154243466Y-70061828D01*
X154232804Y-70056604D01*
X154194063Y-70035305D01*
X154175914Y-70030646D01*
X154174437Y-70030266D01*
X154155731Y-70023862D01*
X154137145Y-70015819D01*
X154093475Y-70008902D01*
X154081853Y-70006495D01*
X154072050Y-70003978D01*
X154039030Y-69995500D01*
X154039029Y-69995500D01*
X154018776Y-69995500D01*
X153999066Y-69993949D01*
X153979057Y-69990779D01*
X153935039Y-69994941D01*
X153923181Y-69995500D01*
X142653863Y-69995500D01*
X142633073Y-69993204D01*
X142562011Y-69995438D01*
X142558053Y-69995500D01*
X142530152Y-69995500D01*
X142526144Y-69996006D01*
X142514323Y-69996936D01*
X142470118Y-69998325D01*
X142450661Y-70003978D01*
X142431311Y-70007986D01*
X142411212Y-70010525D01*
X142370103Y-70026802D01*
X142358875Y-70030646D01*
X142316418Y-70042981D01*
X142298974Y-70053297D01*
X142281227Y-70061990D01*
X142262394Y-70069446D01*
X142226621Y-70095437D01*
X142216703Y-70101951D01*
X142178649Y-70124457D01*
X142164322Y-70138783D01*
X142149293Y-70151618D01*
X142132904Y-70163525D01*
X142104711Y-70197604D01*
X142096723Y-70206381D01*
X141410896Y-70892208D01*
X141354411Y-70924820D01*
X141289188Y-70924819D01*
X141232706Y-70892208D01*
X141214300Y-70873802D01*
X141214299Y-70873801D01*
X141026750Y-70742477D01*
X140819243Y-70645715D01*
X140598087Y-70586457D01*
X140370000Y-70566502D01*
X140141912Y-70586457D01*
X140118259Y-70592795D01*
X140037110Y-70614539D01*
X139979919Y-70616411D01*
X139927796Y-70592795D01*
X139891494Y-70548560D01*
X139878500Y-70492832D01*
X139878500Y-66447168D01*
X139891494Y-66391440D01*
X139927796Y-66347205D01*
X139979919Y-66323589D01*
X140037110Y-66325460D01*
X140141913Y-66353543D01*
X140370000Y-66373498D01*
X140598087Y-66353543D01*
X140819243Y-66294284D01*
X141026749Y-66197523D01*
X141214300Y-66066198D01*
X141376198Y-65904300D01*
X141507523Y-65716749D01*
X141525804Y-65677543D01*
X141572300Y-65624525D01*
X141640000Y-65604792D01*
X141707700Y-65624525D01*
X141754195Y-65677543D01*
X141772476Y-65716748D01*
X141903804Y-65904303D01*
X142065696Y-66066195D01*
X142253249Y-66197522D01*
X142460756Y-66294284D01*
X142520015Y-66310162D01*
X142681913Y-66353543D01*
X142910000Y-66373498D01*
X143138087Y-66353543D01*
X143359243Y-66294284D01*
X143566749Y-66197523D01*
X143754300Y-66066198D01*
X143916198Y-65904300D01*
X144047523Y-65716749D01*
X144066080Y-65676951D01*
X144112576Y-65623933D01*
X144180276Y-65604200D01*
X144247976Y-65623933D01*
X144294471Y-65676951D01*
X144312911Y-65716497D01*
X144444189Y-65903981D01*
X144606018Y-66065810D01*
X144793501Y-66197087D01*
X145000929Y-66293813D01*
X145196000Y-66346082D01*
X145196000Y-62973917D01*
X145703999Y-62973917D01*
X145704000Y-62973918D01*
X145704000Y-66346082D01*
X145899070Y-66293813D01*
X146106498Y-66197087D01*
X146293981Y-66065810D01*
X146455810Y-65903981D01*
X146587088Y-65716497D01*
X146605529Y-65676951D01*
X146652024Y-65623933D01*
X146719724Y-65604200D01*
X146787424Y-65623933D01*
X146833919Y-65676951D01*
X146852476Y-65716748D01*
X146983804Y-65904303D01*
X147145696Y-66066195D01*
X147333249Y-66197522D01*
X147540756Y-66294284D01*
X147600015Y-66310162D01*
X147761913Y-66353543D01*
X147990000Y-66373498D01*
X148218087Y-66353543D01*
X148439243Y-66294284D01*
X148646749Y-66197523D01*
X148834300Y-66066198D01*
X148996198Y-65904300D01*
X149127523Y-65716749D01*
X149146080Y-65676951D01*
X149192576Y-65623933D01*
X149260276Y-65604200D01*
X149327976Y-65623933D01*
X149374471Y-65676951D01*
X149392911Y-65716497D01*
X149524189Y-65903981D01*
X149686018Y-66065810D01*
X149873501Y-66197087D01*
X150080929Y-66293813D01*
X150276000Y-66346082D01*
X150276000Y-62973917D01*
X150080929Y-63026186D01*
X149873497Y-63122914D01*
X149695767Y-63247362D01*
X149638124Y-63269297D01*
X149576977Y-63261247D01*
X149526975Y-63225140D01*
X149500100Y-63169628D01*
X149502790Y-63108012D01*
X149534400Y-63055056D01*
X150429567Y-62159889D01*
X150475570Y-62130583D01*
X150519053Y-62124860D01*
X150519018Y-62124458D01*
X150528253Y-62123649D01*
X150529644Y-62123466D01*
X150530000Y-62123498D01*
X150758087Y-62103543D01*
X150979243Y-62044284D01*
X151186749Y-61947523D01*
X151374300Y-61816198D01*
X151536198Y-61654300D01*
X151667523Y-61466749D01*
X151764284Y-61259243D01*
X151823543Y-61038087D01*
X151843498Y-60810000D01*
X151823543Y-60581913D01*
X151764284Y-60360757D01*
X151667523Y-60153251D01*
X151536198Y-59965700D01*
X151536197Y-59965699D01*
X151536195Y-59965696D01*
X151374303Y-59803804D01*
X151177719Y-59666154D01*
X151178962Y-59664378D01*
X151136824Y-59627424D01*
X151117091Y-59559724D01*
X151136824Y-59492024D01*
X151178755Y-59455250D01*
X151177468Y-59453411D01*
X151257888Y-59397099D01*
X151257888Y-59397097D01*
X150530001Y-58669210D01*
X150530000Y-58669210D01*
X149802110Y-59397098D01*
X149802110Y-59397100D01*
X149882531Y-59453411D01*
X149881242Y-59455251D01*
X149923169Y-59492013D01*
X149942908Y-59559708D01*
X149923185Y-59627408D01*
X149881039Y-59664380D01*
X149882281Y-59666154D01*
X149685696Y-59803804D01*
X149523804Y-59965696D01*
X149392477Y-60153249D01*
X149295715Y-60360756D01*
X149236457Y-60581912D01*
X149216501Y-60810010D01*
X149216533Y-60810367D01*
X149216347Y-60811778D01*
X149215542Y-60820981D01*
X149215139Y-60820945D01*
X149209411Y-60864437D01*
X149180107Y-60910433D01*
X147421449Y-62669091D01*
X147406420Y-62681929D01*
X147395565Y-62689815D01*
X147351121Y-62739175D01*
X147346589Y-62743951D01*
X147332529Y-62758012D01*
X147320010Y-62773470D01*
X147315735Y-62778474D01*
X147271297Y-62827829D01*
X147264588Y-62839449D01*
X147253395Y-62855735D01*
X147244953Y-62866160D01*
X147214800Y-62925337D01*
X147211654Y-62931130D01*
X147178435Y-62988668D01*
X147174287Y-63001432D01*
X147166728Y-63019680D01*
X147160639Y-63031631D01*
X147143445Y-63095802D01*
X147141571Y-63102125D01*
X147121045Y-63165297D01*
X147119643Y-63178637D01*
X147116043Y-63198066D01*
X147112569Y-63211031D01*
X147110903Y-63242830D01*
X147100183Y-63287483D01*
X147074172Y-63325329D01*
X146983802Y-63415700D01*
X146852477Y-63603250D01*
X146833919Y-63643049D01*
X146787424Y-63696066D01*
X146719724Y-63715799D01*
X146652024Y-63696066D01*
X146605529Y-63643049D01*
X146587087Y-63603501D01*
X146455810Y-63416018D01*
X146293981Y-63254189D01*
X146106498Y-63122912D01*
X145899070Y-63026186D01*
X145703999Y-62973917D01*
X145196000Y-62973917D01*
X145000929Y-63026186D01*
X144793501Y-63122912D01*
X144606018Y-63254189D01*
X144444189Y-63416018D01*
X144312911Y-63603502D01*
X144294469Y-63643051D01*
X144247973Y-63696067D01*
X144180273Y-63715799D01*
X144112573Y-63696065D01*
X144066081Y-63643049D01*
X144047523Y-63603251D01*
X143920831Y-63422316D01*
X143899375Y-63368310D01*
X143904440Y-63310416D01*
X143934948Y-63260955D01*
X145036753Y-62159149D01*
X145093235Y-62126539D01*
X145158457Y-62126539D01*
X145221913Y-62143543D01*
X145450000Y-62163498D01*
X145678087Y-62143543D01*
X145899243Y-62084284D01*
X146106749Y-61987523D01*
X146294300Y-61856198D01*
X146456198Y-61694300D01*
X146587523Y-61506749D01*
X146684284Y-61299243D01*
X146743543Y-61078087D01*
X146763498Y-60850000D01*
X146743543Y-60621913D01*
X146726539Y-60558457D01*
X146726539Y-60493235D01*
X146759149Y-60436753D01*
X149003965Y-58191938D01*
X149056218Y-58160541D01*
X149117099Y-58157350D01*
X149172351Y-58183114D01*
X149209040Y-58231803D01*
X149218578Y-58292016D01*
X149217004Y-58309999D01*
X149236951Y-58537999D01*
X149296186Y-58759070D01*
X149392912Y-58966497D01*
X149442900Y-59037888D01*
X150170788Y-58310001D01*
X150889210Y-58310001D01*
X151617097Y-59037888D01*
X151617099Y-59037888D01*
X151667087Y-58966498D01*
X151763813Y-58759070D01*
X151823048Y-58537999D01*
X151842995Y-58310000D01*
X151823048Y-58082000D01*
X151819234Y-58067766D01*
X190645787Y-58067766D01*
X190675413Y-58337015D01*
X190675414Y-58337018D01*
X190743928Y-58599088D01*
X190849870Y-58848390D01*
X190990982Y-59079610D01*
X191164255Y-59287820D01*
X191164256Y-59287821D01*
X191164258Y-59287823D01*
X191365993Y-59468578D01*
X191365995Y-59468579D01*
X191365998Y-59468582D01*
X191591910Y-59618044D01*
X191690754Y-59664380D01*
X191837171Y-59733018D01*
X191837173Y-59733018D01*
X191837176Y-59733020D01*
X192096569Y-59811060D01*
X192096572Y-59811060D01*
X192096574Y-59811061D01*
X192364558Y-59850500D01*
X192364561Y-59850500D01*
X192567630Y-59850500D01*
X192567631Y-59850500D01*
X192770156Y-59835677D01*
X193034553Y-59776780D01*
X193287558Y-59680014D01*
X193523777Y-59547441D01*
X193738177Y-59381888D01*
X193926186Y-59186881D01*
X194083799Y-58966579D01*
X194207656Y-58725675D01*
X194295118Y-58469305D01*
X194344319Y-58202933D01*
X194354212Y-57932235D01*
X194324586Y-57662982D01*
X194256072Y-57400912D01*
X194150130Y-57151610D01*
X194009018Y-56920390D01*
X193835745Y-56712180D01*
X193730759Y-56618112D01*
X193634006Y-56531421D01*
X193634003Y-56531419D01*
X193634002Y-56531418D01*
X193408090Y-56381956D01*
X193408086Y-56381954D01*
X193162828Y-56266981D01*
X192903425Y-56188938D01*
X192635442Y-56149500D01*
X192635439Y-56149500D01*
X192432369Y-56149500D01*
X192398614Y-56151970D01*
X192229839Y-56164323D01*
X191965449Y-56223219D01*
X191712441Y-56319985D01*
X191476225Y-56452557D01*
X191261820Y-56618114D01*
X191073815Y-56813117D01*
X190916200Y-57033422D01*
X190792342Y-57274328D01*
X190704882Y-57530693D01*
X190655681Y-57797065D01*
X190645787Y-58067766D01*
X151819234Y-58067766D01*
X151763813Y-57860929D01*
X151667085Y-57653497D01*
X151617100Y-57582110D01*
X151617098Y-57582110D01*
X150889210Y-58310000D01*
X150889210Y-58310001D01*
X150170788Y-58310001D01*
X150530000Y-57950790D01*
X150530000Y-57950789D01*
X151257888Y-57222899D01*
X151186497Y-57172912D01*
X150979070Y-57076186D01*
X150757999Y-57016951D01*
X150529999Y-56997004D01*
X150512016Y-56998578D01*
X150451803Y-56989040D01*
X150403114Y-56952351D01*
X150377350Y-56897099D01*
X150380541Y-56836218D01*
X150411937Y-56783965D01*
X155196753Y-51999150D01*
X155253235Y-51966540D01*
X155318457Y-51966540D01*
X155334733Y-51970901D01*
X155381913Y-51983543D01*
X155610000Y-52003498D01*
X155838087Y-51983543D01*
X156059243Y-51924284D01*
X156266749Y-51827523D01*
X156454300Y-51696198D01*
X156616198Y-51534300D01*
X156747523Y-51346749D01*
X156844284Y-51139243D01*
X156903543Y-50918087D01*
X156923498Y-50690000D01*
X159376502Y-50690000D01*
X159396457Y-50918087D01*
X159455715Y-51139243D01*
X159552477Y-51346750D01*
X159683804Y-51534303D01*
X159845696Y-51696195D01*
X160033249Y-51827522D01*
X160240756Y-51924284D01*
X160300014Y-51940162D01*
X160461913Y-51983543D01*
X160690000Y-52003498D01*
X160918087Y-51983543D01*
X161139243Y-51924284D01*
X161346749Y-51827523D01*
X161534300Y-51696198D01*
X161696198Y-51534300D01*
X161827523Y-51346749D01*
X161924284Y-51139243D01*
X161983543Y-50918087D01*
X162003498Y-50690000D01*
X161983543Y-50461913D01*
X161924284Y-50240757D01*
X161899161Y-50186881D01*
X161827522Y-50033249D01*
X161739817Y-49907995D01*
X161696198Y-49845700D01*
X161696197Y-49845699D01*
X161696195Y-49845696D01*
X161534303Y-49683804D01*
X161346750Y-49552477D01*
X161139243Y-49455715D01*
X160918087Y-49396457D01*
X160690000Y-49376502D01*
X160461912Y-49396457D01*
X160240756Y-49455715D01*
X160033249Y-49552477D01*
X159845696Y-49683804D01*
X159683804Y-49845696D01*
X159552477Y-50033249D01*
X159455715Y-50240756D01*
X159396457Y-50461912D01*
X159376502Y-50690000D01*
X156923498Y-50690000D01*
X156903543Y-50461913D01*
X156844284Y-50240757D01*
X156819161Y-50186881D01*
X156747522Y-50033249D01*
X156659817Y-49907995D01*
X156616198Y-49845700D01*
X156616197Y-49845699D01*
X156616195Y-49845696D01*
X156454303Y-49683804D01*
X156266750Y-49552477D01*
X156059243Y-49455715D01*
X155838087Y-49396457D01*
X155610000Y-49376502D01*
X155381912Y-49396457D01*
X155160756Y-49455715D01*
X154953249Y-49552477D01*
X154765696Y-49683804D01*
X154603804Y-49845696D01*
X154472477Y-50033249D01*
X154375715Y-50240756D01*
X154316457Y-50461912D01*
X154296502Y-50690000D01*
X154316457Y-50918089D01*
X154333459Y-50981542D01*
X154333459Y-51046764D01*
X154300847Y-51103247D01*
X146298595Y-59105499D01*
X146248436Y-59136237D01*
X146189789Y-59140853D01*
X146135439Y-59118340D01*
X146097233Y-59073607D01*
X146083500Y-59016404D01*
X146083500Y-58989776D01*
X146085051Y-58970066D01*
X146088220Y-58950057D01*
X146084059Y-58906039D01*
X146083500Y-58894181D01*
X146083500Y-51909393D01*
X146097737Y-51851213D01*
X146137227Y-51806181D01*
X146294300Y-51696198D01*
X146456198Y-51534300D01*
X146587523Y-51346749D01*
X146684284Y-51139243D01*
X146743543Y-50918087D01*
X146763498Y-50690000D01*
X146743543Y-50461913D01*
X146684284Y-50240757D01*
X146659161Y-50186881D01*
X146587522Y-50033249D01*
X146499817Y-49907995D01*
X146456198Y-49845700D01*
X146456197Y-49845699D01*
X146456195Y-49845696D01*
X146294303Y-49683804D01*
X146106750Y-49552477D01*
X145899243Y-49455715D01*
X145678087Y-49396457D01*
X145450000Y-49376502D01*
X145221912Y-49396457D01*
X145000756Y-49455715D01*
X144793249Y-49552477D01*
X144605696Y-49683804D01*
X144443804Y-49845696D01*
X144312477Y-50033249D01*
X144215715Y-50240756D01*
X144156457Y-50461912D01*
X144136502Y-50690000D01*
X144156457Y-50918087D01*
X144215715Y-51139243D01*
X144312477Y-51346750D01*
X144443804Y-51534303D01*
X144605696Y-51696195D01*
X144605699Y-51696197D01*
X144605700Y-51696198D01*
X144762772Y-51806181D01*
X144802263Y-51851213D01*
X144816500Y-51909393D01*
X144816500Y-58615406D01*
X144806909Y-58663624D01*
X144779595Y-58704501D01*
X140565656Y-62918437D01*
X140519657Y-62947743D01*
X140465582Y-62954863D01*
X140370001Y-62946502D01*
X140370000Y-62946502D01*
X140274433Y-62954863D01*
X140141912Y-62966457D01*
X140118259Y-62972795D01*
X140037110Y-62994539D01*
X139979919Y-62996411D01*
X139927796Y-62972795D01*
X139891494Y-62928560D01*
X139878500Y-62872832D01*
X139878500Y-62289595D01*
X139888091Y-62241378D01*
X139915403Y-62200501D01*
X139956750Y-62159153D01*
X140013235Y-62126541D01*
X140078457Y-62126540D01*
X140141913Y-62143543D01*
X140370000Y-62163498D01*
X140598087Y-62143543D01*
X140819243Y-62084284D01*
X141026749Y-61987523D01*
X141214300Y-61856198D01*
X141376198Y-61694300D01*
X141507523Y-61506749D01*
X141604284Y-61299243D01*
X141663543Y-61078087D01*
X141683498Y-60850000D01*
X141663543Y-60621913D01*
X141604284Y-60400757D01*
X141585631Y-60360756D01*
X141507522Y-60193249D01*
X141376195Y-60005696D01*
X141214303Y-59843804D01*
X141026750Y-59712477D01*
X140819243Y-59615715D01*
X140598087Y-59556457D01*
X140370000Y-59536502D01*
X140141912Y-59556457D01*
X139920756Y-59615715D01*
X139713249Y-59712477D01*
X139525696Y-59843804D01*
X139363804Y-60005696D01*
X139232477Y-60193249D01*
X139135715Y-60400756D01*
X139076457Y-60621912D01*
X139056502Y-60850000D01*
X139076457Y-61078087D01*
X139093459Y-61141540D01*
X139093459Y-61206762D01*
X139060847Y-61263246D01*
X138856336Y-61467757D01*
X138840016Y-61480833D01*
X138791370Y-61532635D01*
X138788620Y-61535473D01*
X138768868Y-61555226D01*
X138768864Y-61555230D01*
X138768865Y-61555230D01*
X138766379Y-61558433D01*
X138758687Y-61567439D01*
X138728413Y-61599678D01*
X138718652Y-61617434D01*
X138707801Y-61633952D01*
X138695385Y-61649959D01*
X138677824Y-61690539D01*
X138672604Y-61701195D01*
X138651304Y-61739940D01*
X138646267Y-61759559D01*
X138639864Y-61778261D01*
X138631818Y-61796855D01*
X138624901Y-61840524D01*
X138622495Y-61852144D01*
X138611500Y-61894970D01*
X138611500Y-61915224D01*
X138609949Y-61934934D01*
X138606779Y-61954942D01*
X138610941Y-61998961D01*
X138611500Y-62010819D01*
X138611500Y-101940405D01*
X138601909Y-101988623D01*
X138574595Y-102029500D01*
X128211430Y-112392663D01*
X128152665Y-112425863D01*
X128085196Y-112423970D01*
X127895069Y-112365324D01*
X127874549Y-112358995D01*
X127625786Y-112321500D01*
X127374214Y-112321500D01*
X127125451Y-112358995D01*
X127112477Y-112362996D01*
X126885054Y-112433146D01*
X126658396Y-112542300D01*
X126450541Y-112684012D01*
X126349327Y-112777924D01*
X126266122Y-112855128D01*
X126109269Y-113051816D01*
X126109267Y-113051819D01*
X125983483Y-113269683D01*
X125891572Y-113503866D01*
X125835593Y-113749128D01*
X125816793Y-114000000D01*
X125835593Y-114250871D01*
X125891572Y-114496133D01*
X125931988Y-114599110D01*
X125983483Y-114730316D01*
X126109269Y-114948184D01*
X126266122Y-115144872D01*
X126432533Y-115299278D01*
X126450541Y-115315987D01*
X126606432Y-115422271D01*
X126658397Y-115457700D01*
X126715113Y-115485013D01*
X126885054Y-115566853D01*
X126938667Y-115583390D01*
X127125451Y-115641005D01*
X127374214Y-115678500D01*
X127374216Y-115678500D01*
X127507154Y-115678500D01*
X127564357Y-115692233D01*
X127609090Y-115730439D01*
X127631603Y-115784789D01*
X127626987Y-115843436D01*
X127596250Y-115893593D01*
X127217806Y-116272038D01*
X127111336Y-116378508D01*
X127095015Y-116391584D01*
X127046370Y-116443385D01*
X127043620Y-116446223D01*
X127023868Y-116465976D01*
X127023864Y-116465980D01*
X127023865Y-116465980D01*
X127021379Y-116469183D01*
X127013687Y-116478189D01*
X126983413Y-116510428D01*
X126973652Y-116528184D01*
X126962801Y-116544702D01*
X126950385Y-116560709D01*
X126932824Y-116601289D01*
X126927604Y-116611945D01*
X126906304Y-116650690D01*
X126901267Y-116670309D01*
X126894864Y-116689011D01*
X126886818Y-116707605D01*
X126879901Y-116751274D01*
X126877495Y-116762894D01*
X126866500Y-116805720D01*
X126866500Y-116825974D01*
X126864949Y-116845684D01*
X126861779Y-116865692D01*
X126865941Y-116909711D01*
X126866500Y-116921569D01*
X126866500Y-152362912D01*
X126847187Y-152429948D01*
X126795169Y-152476434D01*
X126658396Y-152542300D01*
X126450541Y-152684012D01*
X126398159Y-152732616D01*
X126266122Y-152855128D01*
X126109269Y-153051816D01*
X126109267Y-153051819D01*
X125983483Y-153269683D01*
X125891572Y-153503866D01*
X125835593Y-153749128D01*
X125816793Y-153999999D01*
X125835593Y-154250871D01*
X125891572Y-154496133D01*
X125983397Y-154730098D01*
X125983483Y-154730316D01*
X126109269Y-154948184D01*
X126266122Y-155144872D01*
X126432533Y-155299278D01*
X126450541Y-155315987D01*
X126606432Y-155422270D01*
X126658397Y-155457700D01*
X126775901Y-155514287D01*
X126885054Y-155566853D01*
X126938667Y-155583390D01*
X127125451Y-155641005D01*
X127374214Y-155678500D01*
X127625784Y-155678500D01*
X127625786Y-155678500D01*
X127874549Y-155641005D01*
X128114945Y-155566853D01*
X128341604Y-155457700D01*
X128549462Y-155315984D01*
X128733878Y-155144872D01*
X128890731Y-154948184D01*
X129016517Y-154730316D01*
X129108427Y-154496134D01*
X129164407Y-154250869D01*
X129183207Y-154000000D01*
X129183207Y-153999999D01*
X130816793Y-153999999D01*
X130835593Y-154250871D01*
X130891572Y-154496133D01*
X130983397Y-154730098D01*
X130983483Y-154730316D01*
X131109269Y-154948184D01*
X131266122Y-155144872D01*
X131432533Y-155299278D01*
X131450541Y-155315987D01*
X131606432Y-155422270D01*
X131658397Y-155457700D01*
X131775901Y-155514287D01*
X131885054Y-155566853D01*
X131938667Y-155583390D01*
X132125451Y-155641005D01*
X132374214Y-155678500D01*
X132625784Y-155678500D01*
X132625786Y-155678500D01*
X132874549Y-155641005D01*
X133114945Y-155566853D01*
X133341604Y-155457700D01*
X133549462Y-155315984D01*
X133733878Y-155144872D01*
X133890731Y-154948184D01*
X134016517Y-154730316D01*
X134108427Y-154496134D01*
X134164407Y-154250869D01*
X134183207Y-154000000D01*
X134164407Y-153749131D01*
X134108427Y-153503866D01*
X134016517Y-153269684D01*
X133890731Y-153051816D01*
X133733878Y-152855128D01*
X133549462Y-152684016D01*
X133341604Y-152542300D01*
X133341603Y-152542299D01*
X133341601Y-152542298D01*
X133114945Y-152433146D01*
X132941134Y-152379533D01*
X132874549Y-152358995D01*
X132625786Y-152321500D01*
X132374214Y-152321500D01*
X132125451Y-152358995D01*
X132112752Y-152362912D01*
X131885054Y-152433146D01*
X131658396Y-152542300D01*
X131450541Y-152684012D01*
X131398159Y-152732616D01*
X131266122Y-152855128D01*
X131109269Y-153051816D01*
X131109267Y-153051819D01*
X130983483Y-153269683D01*
X130891572Y-153503866D01*
X130835593Y-153749128D01*
X130816793Y-153999999D01*
X129183207Y-153999999D01*
X129164407Y-153749131D01*
X129108427Y-153503866D01*
X129016517Y-153269684D01*
X128890731Y-153051816D01*
X128733878Y-152855128D01*
X128549462Y-152684016D01*
X128341604Y-152542300D01*
X128341603Y-152542299D01*
X128341601Y-152542298D01*
X128204831Y-152476434D01*
X128152813Y-152429948D01*
X128133500Y-152362912D01*
X128133500Y-117200344D01*
X128143091Y-117152126D01*
X128170405Y-117111249D01*
X128807785Y-116473869D01*
X130725605Y-114556047D01*
X130778686Y-114524400D01*
X130840433Y-114521800D01*
X130895989Y-114548875D01*
X130931988Y-114599110D01*
X130983483Y-114730316D01*
X131109269Y-114948184D01*
X131266122Y-115144872D01*
X131432533Y-115299278D01*
X131450541Y-115315987D01*
X131606432Y-115422271D01*
X131658397Y-115457700D01*
X131721841Y-115488253D01*
X131795169Y-115523566D01*
X131847187Y-115570052D01*
X131866500Y-115637088D01*
X131866500Y-140526147D01*
X131864204Y-140546935D01*
X131866438Y-140617986D01*
X131866500Y-140621945D01*
X131866500Y-140649857D01*
X131867007Y-140653873D01*
X131867937Y-140665696D01*
X131869326Y-140709892D01*
X131874977Y-140729341D01*
X131878986Y-140748696D01*
X131881525Y-140768794D01*
X131897801Y-140809903D01*
X131901644Y-140821130D01*
X131913980Y-140863590D01*
X131924294Y-140881030D01*
X131932987Y-140898774D01*
X131940448Y-140917617D01*
X131940449Y-140917619D01*
X131966431Y-140953380D01*
X131972948Y-140963301D01*
X131995458Y-141001363D01*
X132009778Y-141015683D01*
X132022618Y-141030716D01*
X132034526Y-141047105D01*
X132034527Y-141047106D01*
X132034528Y-141047107D01*
X132052091Y-141061636D01*
X132068598Y-141075292D01*
X132077378Y-141083282D01*
X141847857Y-150853762D01*
X141881882Y-150916073D01*
X141876818Y-150986889D01*
X141834272Y-151043724D01*
X141736739Y-151116737D01*
X141649111Y-151233794D01*
X141598011Y-151370799D01*
X141591500Y-151431362D01*
X141591500Y-152640406D01*
X141581909Y-152688624D01*
X141554595Y-152729501D01*
X137838500Y-156445595D01*
X137797623Y-156472909D01*
X137749405Y-156482500D01*
X120110594Y-156482500D01*
X120062376Y-156472909D01*
X120021499Y-156445595D01*
X118929103Y-155353199D01*
X121506011Y-155353199D01*
X121658644Y-155457263D01*
X121885241Y-155566387D01*
X122125559Y-155640514D01*
X122374254Y-155678000D01*
X122625746Y-155678000D01*
X122874440Y-155640514D01*
X123114761Y-155566386D01*
X123341349Y-155457266D01*
X123493988Y-155353198D01*
X122500001Y-154359210D01*
X122499999Y-154359210D01*
X121506011Y-155353197D01*
X121506011Y-155353199D01*
X118929103Y-155353199D01*
X117575903Y-153999999D01*
X120817295Y-153999999D01*
X120836089Y-154250795D01*
X120892053Y-154495987D01*
X120983935Y-154730098D01*
X121109684Y-154947901D01*
X121146597Y-154994189D01*
X121146599Y-154994189D01*
X122140789Y-154000001D01*
X122859210Y-154000001D01*
X123853400Y-154994190D01*
X123853401Y-154994190D01*
X123890317Y-154947899D01*
X124016064Y-154730099D01*
X124107946Y-154495987D01*
X124163910Y-154250795D01*
X124182704Y-153999999D01*
X124163910Y-153749204D01*
X124107946Y-153504012D01*
X124016064Y-153269901D01*
X123890315Y-153052098D01*
X123853401Y-153005809D01*
X123853399Y-153005809D01*
X122859210Y-153999999D01*
X122859210Y-154000001D01*
X122140789Y-154000001D01*
X122140789Y-153999999D01*
X121146598Y-153005809D01*
X121146597Y-153005809D01*
X121109684Y-153052098D01*
X120983935Y-153269901D01*
X120892053Y-153504012D01*
X120836089Y-153749204D01*
X120817295Y-153999999D01*
X117575903Y-153999999D01*
X116222705Y-152646801D01*
X121506011Y-152646801D01*
X122499999Y-153640789D01*
X122500001Y-153640789D01*
X123493987Y-152646801D01*
X123493987Y-152646799D01*
X123341353Y-152542735D01*
X123114761Y-152433613D01*
X122874440Y-152359485D01*
X122625746Y-152322000D01*
X122374254Y-152322000D01*
X122125559Y-152359485D01*
X121885241Y-152433612D01*
X121658650Y-152542734D01*
X121506011Y-152646800D01*
X121506011Y-152646801D01*
X116222705Y-152646801D01*
X110605405Y-147029500D01*
X110578091Y-146988623D01*
X110568500Y-146940405D01*
X110568500Y-129644000D01*
X110585381Y-129581000D01*
X110631500Y-129534881D01*
X110694500Y-129518000D01*
X110906000Y-129518000D01*
X110906000Y-128414000D01*
X111414000Y-128414000D01*
X111414000Y-129518000D01*
X112058589Y-129518000D01*
X112119093Y-129511494D01*
X112255962Y-129460445D01*
X112372904Y-129372904D01*
X112460445Y-129255962D01*
X112511494Y-129119093D01*
X112518000Y-129058589D01*
X112518000Y-128414000D01*
X111414000Y-128414000D01*
X110906000Y-128414000D01*
X110906000Y-128032000D01*
X110922881Y-127969000D01*
X110969000Y-127922881D01*
X111032000Y-127906000D01*
X112518000Y-127906000D01*
X112518000Y-127261411D01*
X112511494Y-127200906D01*
X112460445Y-127064037D01*
X112372904Y-126947095D01*
X112255962Y-126859554D01*
X112140827Y-126816611D01*
X112090492Y-126782047D01*
X112062318Y-126727877D01*
X112062921Y-126666821D01*
X112092155Y-126613220D01*
X112235722Y-126457268D01*
X112358860Y-126268791D01*
X112449296Y-126062616D01*
X112504564Y-125844368D01*
X112523156Y-125620000D01*
X112504564Y-125395632D01*
X112449296Y-125177384D01*
X112358860Y-124971209D01*
X112235722Y-124782732D01*
X112083240Y-124617094D01*
X112083239Y-124617093D01*
X112083237Y-124617091D01*
X111905578Y-124478812D01*
X111872317Y-124460812D01*
X111824046Y-124414495D01*
X111806288Y-124349997D01*
X111824049Y-124285499D01*
X111872317Y-124239187D01*
X111905576Y-124221189D01*
X112083240Y-124082906D01*
X112235722Y-123917268D01*
X112358860Y-123728791D01*
X112449296Y-123522616D01*
X112504564Y-123304368D01*
X112523156Y-123080000D01*
X112504564Y-122855632D01*
X112449296Y-122637384D01*
X112358860Y-122431209D01*
X112235722Y-122242732D01*
X112083240Y-122077094D01*
X112083239Y-122077093D01*
X112083237Y-122077091D01*
X111905579Y-121938813D01*
X111905577Y-121938812D01*
X111905576Y-121938811D01*
X111872317Y-121920812D01*
X111824047Y-121874498D01*
X111806288Y-121810000D01*
X111824047Y-121745502D01*
X111872317Y-121699187D01*
X111905576Y-121681189D01*
X112083240Y-121542906D01*
X112235722Y-121377268D01*
X112358860Y-121188791D01*
X112449296Y-120982616D01*
X112504564Y-120764368D01*
X112523156Y-120540000D01*
X112504564Y-120315632D01*
X112476816Y-120206062D01*
X112477482Y-120141682D01*
X112509864Y-120086038D01*
X117242703Y-115353199D01*
X121506011Y-115353199D01*
X121658644Y-115457263D01*
X121885241Y-115566387D01*
X122125559Y-115640514D01*
X122374254Y-115678000D01*
X122625746Y-115678000D01*
X122874440Y-115640514D01*
X123114761Y-115566386D01*
X123341349Y-115457266D01*
X123493988Y-115353198D01*
X122500001Y-114359210D01*
X122499999Y-114359210D01*
X121506011Y-115353197D01*
X121506011Y-115353199D01*
X117242703Y-115353199D01*
X118595903Y-113999999D01*
X120817295Y-113999999D01*
X120836089Y-114250795D01*
X120892053Y-114495987D01*
X120983935Y-114730098D01*
X121109684Y-114947901D01*
X121146597Y-114994189D01*
X121146599Y-114994189D01*
X122140788Y-114000001D01*
X122859210Y-114000001D01*
X123853400Y-114994190D01*
X123853401Y-114994190D01*
X123890317Y-114947899D01*
X124016064Y-114730099D01*
X124107946Y-114495987D01*
X124163910Y-114250795D01*
X124182704Y-113999999D01*
X124163910Y-113749204D01*
X124107946Y-113504012D01*
X124016064Y-113269901D01*
X123890315Y-113052098D01*
X123853401Y-113005809D01*
X123853399Y-113005809D01*
X122859210Y-113999999D01*
X122859210Y-114000001D01*
X122140788Y-114000001D01*
X122140789Y-114000000D01*
X122140789Y-113999999D01*
X121146597Y-113005809D01*
X121109684Y-113052098D01*
X120983935Y-113269901D01*
X120892053Y-113504012D01*
X120836089Y-113749204D01*
X120817295Y-113999999D01*
X118595903Y-113999999D01*
X119949101Y-112646801D01*
X121506011Y-112646801D01*
X122499999Y-113640789D01*
X122500001Y-113640789D01*
X123493987Y-112646801D01*
X123493987Y-112646799D01*
X123341353Y-112542735D01*
X123114761Y-112433613D01*
X122874440Y-112359485D01*
X122625746Y-112322000D01*
X122374254Y-112322000D01*
X122125559Y-112359485D01*
X121885241Y-112433612D01*
X121658650Y-112542734D01*
X121506011Y-112646800D01*
X121506011Y-112646801D01*
X119949101Y-112646801D01*
X125518658Y-107077244D01*
X125534979Y-107064170D01*
X125537014Y-107062002D01*
X125537018Y-107062000D01*
X125583677Y-107012311D01*
X125586368Y-107009534D01*
X125606134Y-106989770D01*
X125608605Y-106986583D01*
X125616312Y-106977559D01*
X125646586Y-106945321D01*
X125656343Y-106927570D01*
X125667199Y-106911043D01*
X125679613Y-106895041D01*
X125697172Y-106854461D01*
X125702392Y-106843809D01*
X125723694Y-106805061D01*
X125723695Y-106805060D01*
X125728732Y-106785439D01*
X125735138Y-106766730D01*
X125743181Y-106748145D01*
X125750096Y-106704476D01*
X125752496Y-106692881D01*
X125763500Y-106650030D01*
X125763500Y-106629769D01*
X125765051Y-106610058D01*
X125768219Y-106590055D01*
X125764059Y-106546046D01*
X125763500Y-106534189D01*
X125763500Y-87469393D01*
X125777737Y-87411213D01*
X125817227Y-87366181D01*
X125974300Y-87256198D01*
X126136198Y-87094300D01*
X126267523Y-86906749D01*
X126364284Y-86699243D01*
X126423543Y-86478087D01*
X126443498Y-86250000D01*
X126442623Y-86239999D01*
X128886502Y-86239999D01*
X128906457Y-86468087D01*
X128965715Y-86689243D01*
X129062477Y-86896750D01*
X129193804Y-87084303D01*
X129355696Y-87246195D01*
X129355699Y-87246197D01*
X129355700Y-87246198D01*
X129384259Y-87266195D01*
X129543249Y-87377522D01*
X129750756Y-87474284D01*
X129788077Y-87484284D01*
X129971913Y-87533543D01*
X130200000Y-87553498D01*
X130428087Y-87533543D01*
X130649243Y-87474284D01*
X130856749Y-87377523D01*
X131044300Y-87246198D01*
X131206198Y-87084300D01*
X131337523Y-86896749D01*
X131434284Y-86689243D01*
X131493543Y-86468087D01*
X131513498Y-86240000D01*
X131493543Y-86011913D01*
X131443929Y-85826751D01*
X131434284Y-85790756D01*
X131337522Y-85583249D01*
X131206195Y-85395696D01*
X131044303Y-85233804D01*
X130856750Y-85102477D01*
X130649243Y-85005715D01*
X130428087Y-84946457D01*
X130200000Y-84926502D01*
X129971912Y-84946457D01*
X129750756Y-85005715D01*
X129543249Y-85102477D01*
X129355696Y-85233804D01*
X129193804Y-85395696D01*
X129062477Y-85583249D01*
X128965715Y-85790756D01*
X128906457Y-86011912D01*
X128886502Y-86239999D01*
X126442623Y-86239999D01*
X126423543Y-86021913D01*
X126364284Y-85800757D01*
X126359620Y-85790756D01*
X126267522Y-85593249D01*
X126163804Y-85445126D01*
X126136198Y-85405700D01*
X126136197Y-85405699D01*
X126136195Y-85405696D01*
X125974303Y-85243804D01*
X125901133Y-85192570D01*
X125817227Y-85133818D01*
X125777737Y-85088787D01*
X125763500Y-85030607D01*
X125763500Y-79873603D01*
X125773091Y-79825385D01*
X125800405Y-79784508D01*
X126545844Y-79039069D01*
X128868036Y-76716875D01*
X128914034Y-76687571D01*
X128968110Y-76680451D01*
X129020129Y-76696853D01*
X129060342Y-76733701D01*
X129193804Y-76924303D01*
X129355696Y-77086195D01*
X129355699Y-77086197D01*
X129355700Y-77086198D01*
X129384259Y-77106195D01*
X129543249Y-77217522D01*
X129750756Y-77314284D01*
X129786319Y-77323813D01*
X129971913Y-77373543D01*
X130200000Y-77393498D01*
X130428087Y-77373543D01*
X130649243Y-77314284D01*
X130856749Y-77217523D01*
X131044300Y-77086198D01*
X131206198Y-76924300D01*
X131337523Y-76736749D01*
X131434284Y-76529243D01*
X131493543Y-76308087D01*
X131513498Y-76080000D01*
X131493543Y-75851913D01*
X131434284Y-75630757D01*
X131337523Y-75423251D01*
X131313345Y-75388722D01*
X131206195Y-75235696D01*
X131044303Y-75073804D01*
X130856750Y-74942477D01*
X130649243Y-74845715D01*
X130428087Y-74786457D01*
X130200000Y-74766502D01*
X130091478Y-74775996D01*
X130023951Y-74763074D01*
X129973259Y-74716623D01*
X129954500Y-74650476D01*
X129954500Y-73744525D01*
X129962869Y-73699371D01*
X129986864Y-73660214D01*
X130025881Y-73616881D01*
X130060040Y-73578944D01*
X130155527Y-73413556D01*
X130214542Y-73231928D01*
X130234504Y-73042000D01*
X130223355Y-72935927D01*
X130232005Y-72875151D01*
X130268349Y-72825674D01*
X130323760Y-72799245D01*
X130385083Y-72802137D01*
X130437758Y-72833663D01*
X131577637Y-73973542D01*
X132714595Y-75110500D01*
X132741909Y-75151377D01*
X132751500Y-75199595D01*
X132751500Y-84261147D01*
X132749204Y-84281935D01*
X132751438Y-84352986D01*
X132751500Y-84356945D01*
X132751500Y-84384857D01*
X132752007Y-84388873D01*
X132752937Y-84400696D01*
X132754326Y-84444892D01*
X132759977Y-84464341D01*
X132763986Y-84483696D01*
X132766525Y-84503794D01*
X132782801Y-84544903D01*
X132786644Y-84556130D01*
X132798980Y-84598590D01*
X132809294Y-84616030D01*
X132817987Y-84633774D01*
X132825448Y-84652617D01*
X132825449Y-84652619D01*
X132851431Y-84688380D01*
X132857948Y-84698301D01*
X132880458Y-84736363D01*
X132894778Y-84750683D01*
X132907618Y-84765716D01*
X132919526Y-84782105D01*
X132953598Y-84810292D01*
X132962378Y-84818282D01*
X133970847Y-85826751D01*
X134003458Y-85883234D01*
X134003459Y-85948456D01*
X133986457Y-86011910D01*
X133966502Y-86239999D01*
X133986457Y-86468087D01*
X134045715Y-86689243D01*
X134142477Y-86896750D01*
X134273804Y-87084303D01*
X134435696Y-87246195D01*
X134435699Y-87246197D01*
X134435700Y-87246198D01*
X134464259Y-87266195D01*
X134623249Y-87377522D01*
X134830756Y-87474284D01*
X134868077Y-87484284D01*
X135051913Y-87533543D01*
X135280000Y-87553498D01*
X135508087Y-87533543D01*
X135729243Y-87474284D01*
X135936749Y-87377523D01*
X136124300Y-87246198D01*
X136286198Y-87084300D01*
X136417523Y-86896749D01*
X136514284Y-86689243D01*
X136573543Y-86468087D01*
X136593498Y-86240000D01*
X136573543Y-86011913D01*
X136523929Y-85826751D01*
X136514284Y-85790756D01*
X136417522Y-85583249D01*
X136286195Y-85395696D01*
X136124303Y-85233804D01*
X135936750Y-85102477D01*
X135729243Y-85005715D01*
X135508087Y-84946457D01*
X135280000Y-84926502D01*
X135051910Y-84946457D01*
X134988457Y-84963459D01*
X134923235Y-84963458D01*
X134866752Y-84930847D01*
X134055405Y-84119500D01*
X134028091Y-84078623D01*
X134018500Y-84030405D01*
X134018500Y-76959312D01*
X134034298Y-76898226D01*
X134077730Y-76852458D01*
X134137906Y-76833485D01*
X134199735Y-76846064D01*
X134247713Y-76887041D01*
X134273804Y-76924303D01*
X134435696Y-77086195D01*
X134435699Y-77086197D01*
X134435700Y-77086198D01*
X134464259Y-77106195D01*
X134623249Y-77217522D01*
X134830756Y-77314284D01*
X134866319Y-77323813D01*
X135051913Y-77373543D01*
X135280000Y-77393498D01*
X135508087Y-77373543D01*
X135729243Y-77314284D01*
X135936749Y-77217523D01*
X136124300Y-77086198D01*
X136286198Y-76924300D01*
X136417523Y-76736749D01*
X136514284Y-76529243D01*
X136573543Y-76308087D01*
X136593498Y-76080000D01*
X136573543Y-75851913D01*
X136514284Y-75630757D01*
X136417523Y-75423251D01*
X136393345Y-75388722D01*
X136286195Y-75235696D01*
X136124303Y-75073804D01*
X135936750Y-74942477D01*
X135729243Y-74845715D01*
X135508087Y-74786457D01*
X135280000Y-74766502D01*
X135051912Y-74786457D01*
X134830756Y-74845715D01*
X134623249Y-74942477D01*
X134435696Y-75073804D01*
X134273804Y-75235696D01*
X134247713Y-75272959D01*
X134199735Y-75313936D01*
X134137906Y-75326515D01*
X134077730Y-75307542D01*
X134034298Y-75261774D01*
X134018500Y-75200688D01*
X134018500Y-74968853D01*
X134020795Y-74948063D01*
X134020619Y-74942477D01*
X134018561Y-74877000D01*
X134018500Y-74873043D01*
X134018500Y-74845149D01*
X134018500Y-74845144D01*
X134017993Y-74841138D01*
X134017062Y-74829305D01*
X134016971Y-74826411D01*
X134015674Y-74785111D01*
X134010020Y-74765652D01*
X134006013Y-74746306D01*
X134003474Y-74726203D01*
X133987194Y-74685086D01*
X133983353Y-74673866D01*
X133981956Y-74669056D01*
X133971018Y-74631407D01*
X133960706Y-74613970D01*
X133952008Y-74596215D01*
X133947544Y-74584940D01*
X133944552Y-74577383D01*
X133918565Y-74541616D01*
X133912047Y-74531693D01*
X133890323Y-74494959D01*
X133889542Y-74493638D01*
X133875212Y-74479308D01*
X133862378Y-74464281D01*
X133850472Y-74447893D01*
X133846586Y-74444678D01*
X133816394Y-74419700D01*
X133807616Y-74411712D01*
X129105771Y-69709866D01*
X129078760Y-69669713D01*
X129068876Y-69622340D01*
X129077577Y-69574737D01*
X129108427Y-69496134D01*
X129164407Y-69250869D01*
X129183207Y-69000000D01*
X129183207Y-68999999D01*
X130816793Y-68999999D01*
X130835593Y-69250871D01*
X130891572Y-69496133D01*
X130975457Y-69709866D01*
X130983483Y-69730316D01*
X131109269Y-69948184D01*
X131266122Y-70144872D01*
X131369012Y-70240339D01*
X131450541Y-70315987D01*
X131606432Y-70422270D01*
X131658397Y-70457700D01*
X131763884Y-70508500D01*
X131885054Y-70566853D01*
X131914803Y-70576029D01*
X132125451Y-70641005D01*
X132374214Y-70678500D01*
X132625784Y-70678500D01*
X132625786Y-70678500D01*
X132874549Y-70641005D01*
X133114945Y-70566853D01*
X133341604Y-70457700D01*
X133549462Y-70315984D01*
X133733878Y-70144872D01*
X133890731Y-69948184D01*
X134016517Y-69730316D01*
X134108427Y-69496134D01*
X134164407Y-69250869D01*
X134183207Y-69000000D01*
X134164407Y-68749131D01*
X134108427Y-68503866D01*
X134016517Y-68269684D01*
X133890731Y-68051816D01*
X133733878Y-67855128D01*
X133549462Y-67684016D01*
X133341604Y-67542300D01*
X133341603Y-67542299D01*
X133341601Y-67542298D01*
X133114945Y-67433146D01*
X132941134Y-67379533D01*
X132874549Y-67358995D01*
X132625786Y-67321500D01*
X132374214Y-67321500D01*
X132125451Y-67358995D01*
X132112477Y-67362996D01*
X131885054Y-67433146D01*
X131658396Y-67542300D01*
X131450541Y-67684012D01*
X131349327Y-67777924D01*
X131266122Y-67855128D01*
X131109269Y-68051816D01*
X131109267Y-68051819D01*
X130983483Y-68269683D01*
X130891572Y-68503866D01*
X130835593Y-68749128D01*
X130816793Y-68999999D01*
X129183207Y-68999999D01*
X129164407Y-68749131D01*
X129108427Y-68503866D01*
X129016517Y-68269684D01*
X128890731Y-68051816D01*
X128733878Y-67855128D01*
X128549462Y-67684016D01*
X128341604Y-67542300D01*
X128341603Y-67542299D01*
X128341601Y-67542298D01*
X128114945Y-67433146D01*
X127941134Y-67379533D01*
X127874549Y-67358995D01*
X127625786Y-67321500D01*
X127374214Y-67321500D01*
X127125451Y-67358995D01*
X127112477Y-67362996D01*
X126885054Y-67433146D01*
X126658396Y-67542300D01*
X126450541Y-67684012D01*
X126349327Y-67777924D01*
X126266122Y-67855128D01*
X126109269Y-68051816D01*
X126109267Y-68051819D01*
X125983483Y-68269683D01*
X125891572Y-68503866D01*
X125835593Y-68749128D01*
X125816793Y-68999999D01*
X125835593Y-69250871D01*
X125891572Y-69496133D01*
X125975457Y-69709866D01*
X125983483Y-69730316D01*
X126109269Y-69948184D01*
X126266122Y-70144872D01*
X126369012Y-70240339D01*
X126450541Y-70315987D01*
X126606432Y-70422270D01*
X126658397Y-70457700D01*
X126763884Y-70508500D01*
X126885054Y-70566853D01*
X126914803Y-70576029D01*
X127125451Y-70641005D01*
X127374214Y-70678500D01*
X127625784Y-70678500D01*
X127625786Y-70678500D01*
X127874549Y-70641005D01*
X128051390Y-70586457D01*
X128085198Y-70576029D01*
X128152667Y-70574136D01*
X128211432Y-70607336D01*
X129523492Y-71919397D01*
X129555755Y-71974608D01*
X129556760Y-72038547D01*
X129526247Y-72094745D01*
X129472076Y-72128726D01*
X129429730Y-72130723D01*
X129429730Y-72133500D01*
X129416487Y-72133500D01*
X129225513Y-72133500D01*
X129138478Y-72152000D01*
X129038711Y-72173206D01*
X128864246Y-72250883D01*
X128709747Y-72363133D01*
X128581958Y-72505057D01*
X128486472Y-72670443D01*
X128427458Y-72852070D01*
X128407496Y-73042000D01*
X128427458Y-73231929D01*
X128486472Y-73413556D01*
X128581958Y-73578942D01*
X128655136Y-73660214D01*
X128679131Y-73699371D01*
X128687500Y-73744525D01*
X128687500Y-75053415D01*
X128677909Y-75101633D01*
X128650595Y-75142510D01*
X124741336Y-79051766D01*
X124725016Y-79064842D01*
X124676370Y-79116644D01*
X124673620Y-79119482D01*
X124653868Y-79139235D01*
X124653864Y-79139239D01*
X124653865Y-79139239D01*
X124651379Y-79142442D01*
X124643687Y-79151448D01*
X124613413Y-79183687D01*
X124603652Y-79201443D01*
X124592801Y-79217961D01*
X124580385Y-79233968D01*
X124562824Y-79274548D01*
X124557604Y-79285204D01*
X124536304Y-79323949D01*
X124531267Y-79343568D01*
X124524864Y-79362270D01*
X124516818Y-79380864D01*
X124509901Y-79424533D01*
X124507495Y-79436153D01*
X124496500Y-79478979D01*
X124496500Y-79499233D01*
X124494949Y-79518943D01*
X124491779Y-79538951D01*
X124495941Y-79582970D01*
X124496500Y-79594828D01*
X124496500Y-85030607D01*
X124482263Y-85088787D01*
X124442772Y-85133818D01*
X124405323Y-85160041D01*
X124285696Y-85243804D01*
X124123804Y-85405696D01*
X123992477Y-85593249D01*
X123895715Y-85800756D01*
X123836457Y-86021912D01*
X123816502Y-86250000D01*
X123836457Y-86478087D01*
X123895715Y-86699243D01*
X123992477Y-86906750D01*
X124123804Y-87094303D01*
X124285696Y-87256195D01*
X124285699Y-87256197D01*
X124285700Y-87256198D01*
X124442772Y-87366181D01*
X124482263Y-87411213D01*
X124496500Y-87469393D01*
X124496500Y-106255405D01*
X124486909Y-106303623D01*
X124459595Y-106344500D01*
X112736870Y-118067223D01*
X112674905Y-118101173D01*
X112604409Y-118096430D01*
X112547549Y-118054487D01*
X112522206Y-117988535D01*
X112504564Y-117775632D01*
X112476816Y-117666062D01*
X112477482Y-117601682D01*
X112509864Y-117546038D01*
X120438658Y-109617244D01*
X120454979Y-109604170D01*
X120457014Y-109602002D01*
X120457018Y-109602000D01*
X120503676Y-109552312D01*
X120506367Y-109549535D01*
X120526135Y-109529769D01*
X120528611Y-109526576D01*
X120536316Y-109517553D01*
X120566586Y-109485321D01*
X120576345Y-109467567D01*
X120587198Y-109451045D01*
X120599614Y-109435040D01*
X120617174Y-109394459D01*
X120622388Y-109383815D01*
X120643695Y-109345060D01*
X120648732Y-109325439D01*
X120655138Y-109306730D01*
X120663181Y-109288144D01*
X120670096Y-109244481D01*
X120672504Y-109232853D01*
X120683500Y-109190029D01*
X120683500Y-109169776D01*
X120685051Y-109150066D01*
X120688220Y-109130057D01*
X120684059Y-109086039D01*
X120683500Y-109074181D01*
X120683500Y-87469393D01*
X120697737Y-87411213D01*
X120737227Y-87366181D01*
X120894300Y-87256198D01*
X121056198Y-87094300D01*
X121187523Y-86906749D01*
X121284284Y-86699243D01*
X121343543Y-86478087D01*
X121363498Y-86250000D01*
X121343543Y-86021913D01*
X121284284Y-85800757D01*
X121279620Y-85790756D01*
X121187522Y-85593249D01*
X121083804Y-85445126D01*
X121056198Y-85405700D01*
X121056197Y-85405699D01*
X121056195Y-85405696D01*
X120894303Y-85243804D01*
X120706750Y-85112477D01*
X120499243Y-85015715D01*
X120278087Y-84956457D01*
X120050000Y-84936502D01*
X119821912Y-84956457D01*
X119600756Y-85015715D01*
X119393249Y-85112477D01*
X119205696Y-85243804D01*
X119043804Y-85405696D01*
X118912477Y-85593249D01*
X118815715Y-85800756D01*
X118756457Y-86021912D01*
X118736502Y-86250000D01*
X118756457Y-86478087D01*
X118815715Y-86699243D01*
X118912477Y-86906750D01*
X119043804Y-87094303D01*
X119205696Y-87256195D01*
X119205699Y-87256197D01*
X119205700Y-87256198D01*
X119362772Y-87366181D01*
X119402263Y-87411213D01*
X119416500Y-87469393D01*
X119416500Y-108795406D01*
X119406909Y-108843624D01*
X119379595Y-108884501D01*
X113233595Y-115030500D01*
X113183436Y-115061238D01*
X113124789Y-115065854D01*
X113070439Y-115043341D01*
X113032233Y-114998608D01*
X113018500Y-114941405D01*
X113018500Y-104068853D01*
X113020795Y-104048064D01*
X113018562Y-103977014D01*
X113018500Y-103973055D01*
X113018500Y-103945149D01*
X113018500Y-103945144D01*
X113017992Y-103941131D01*
X113017061Y-103929297D01*
X113015673Y-103885111D01*
X113010021Y-103865659D01*
X113006012Y-103846299D01*
X113003474Y-103826203D01*
X112987196Y-103785090D01*
X112983350Y-103773856D01*
X112971018Y-103731407D01*
X112960706Y-103713970D01*
X112952008Y-103696215D01*
X112944552Y-103677383D01*
X112918565Y-103641616D01*
X112912047Y-103631693D01*
X112889542Y-103593638D01*
X112875212Y-103579308D01*
X112862378Y-103564281D01*
X112850472Y-103547893D01*
X112850471Y-103547892D01*
X112816394Y-103519700D01*
X112807616Y-103511712D01*
X110954489Y-101658584D01*
X110923090Y-101606328D01*
X110919899Y-101545447D01*
X110945664Y-101490195D01*
X110994352Y-101453505D01*
X111054563Y-101443968D01*
X111160000Y-101453193D01*
X111374142Y-101434458D01*
X111581777Y-101378822D01*
X111776597Y-101287976D01*
X111952681Y-101164681D01*
X112104681Y-101012681D01*
X112227976Y-100836597D01*
X112315804Y-100648247D01*
X112362300Y-100595230D01*
X112430000Y-100575497D01*
X112497700Y-100595230D01*
X112544195Y-100648247D01*
X112632024Y-100836598D01*
X112755321Y-101012684D01*
X112907315Y-101164678D01*
X113083401Y-101287975D01*
X113083402Y-101287975D01*
X113083403Y-101287976D01*
X113278223Y-101378822D01*
X113485858Y-101434458D01*
X113700000Y-101453193D01*
X113914142Y-101434458D01*
X114121777Y-101378822D01*
X114316597Y-101287976D01*
X114492681Y-101164681D01*
X114644681Y-101012681D01*
X114767976Y-100836597D01*
X114858822Y-100641777D01*
X114914458Y-100434142D01*
X114933193Y-100220000D01*
X114914458Y-100005858D01*
X114858822Y-99798223D01*
X114767976Y-99603404D01*
X114644681Y-99427319D01*
X114492681Y-99275319D01*
X114492680Y-99275318D01*
X114316598Y-99152024D01*
X114121776Y-99061177D01*
X113914137Y-99005540D01*
X113763506Y-98992361D01*
X113721239Y-98981036D01*
X113685394Y-98955936D01*
X113035911Y-98306453D01*
X113023071Y-98291421D01*
X113015185Y-98280566D01*
X112965795Y-98236095D01*
X112961047Y-98231589D01*
X112946986Y-98217528D01*
X112931548Y-98205026D01*
X112926535Y-98200744D01*
X112877168Y-98156295D01*
X112865550Y-98149587D01*
X112849259Y-98138391D01*
X112838839Y-98129953D01*
X112838837Y-98129952D01*
X112838836Y-98129951D01*
X112779649Y-98099793D01*
X112773853Y-98096646D01*
X112716333Y-98063437D01*
X112716332Y-98063436D01*
X112716331Y-98063436D01*
X112703572Y-98059290D01*
X112685314Y-98051727D01*
X112673362Y-98045637D01*
X112609189Y-98028442D01*
X112602881Y-98026574D01*
X112539702Y-98006046D01*
X112539699Y-98006045D01*
X112526363Y-98004643D01*
X112506935Y-98001043D01*
X112493969Y-97997569D01*
X112427632Y-97994092D01*
X112421065Y-97993575D01*
X112401312Y-97991500D01*
X112401306Y-97991500D01*
X112381445Y-97991500D01*
X112374851Y-97991327D01*
X112308507Y-97987850D01*
X112295254Y-97989949D01*
X112275545Y-97991500D01*
X108142337Y-97991500D01*
X108122628Y-97989949D01*
X108115621Y-97988839D01*
X108109375Y-97987850D01*
X108109374Y-97987850D01*
X108043031Y-97991327D01*
X108036437Y-97991500D01*
X108016570Y-97991500D01*
X107996817Y-97993575D01*
X107990250Y-97994092D01*
X107923913Y-97997569D01*
X107910948Y-98001043D01*
X107891519Y-98004643D01*
X107878179Y-98006045D01*
X107815007Y-98026571D01*
X107808685Y-98028444D01*
X107744516Y-98045638D01*
X107732564Y-98051728D01*
X107714311Y-98059289D01*
X107701553Y-98063435D01*
X107701551Y-98063435D01*
X107701551Y-98063436D01*
X107659769Y-98087558D01*
X107644036Y-98096642D01*
X107638241Y-98099788D01*
X107579045Y-98129950D01*
X107572466Y-98135277D01*
X107568622Y-98138391D01*
X107568618Y-98138394D01*
X107552329Y-98149589D01*
X107540714Y-98156295D01*
X107491334Y-98200755D01*
X107486326Y-98205032D01*
X107470896Y-98217527D01*
X107456846Y-98231577D01*
X107452066Y-98236112D01*
X107402696Y-98280565D01*
X107394804Y-98291427D01*
X107381967Y-98306456D01*
X105511449Y-100176973D01*
X105496420Y-100189811D01*
X105485565Y-100197697D01*
X105441121Y-100247057D01*
X105436589Y-100251833D01*
X105422529Y-100265894D01*
X105410010Y-100281352D01*
X105405735Y-100286356D01*
X105361297Y-100335711D01*
X105354588Y-100347331D01*
X105343395Y-100363617D01*
X105334953Y-100374042D01*
X105304800Y-100433219D01*
X105301654Y-100439012D01*
X105268435Y-100496550D01*
X105264287Y-100509314D01*
X105256728Y-100527562D01*
X105250639Y-100539513D01*
X105233445Y-100603684D01*
X105231571Y-100610007D01*
X105211045Y-100673179D01*
X105209643Y-100686519D01*
X105206043Y-100705948D01*
X105202569Y-100718913D01*
X105199092Y-100785250D01*
X105198575Y-100791817D01*
X105196500Y-100811570D01*
X105196500Y-100831437D01*
X105196327Y-100838031D01*
X105192850Y-100904374D01*
X105194949Y-100917628D01*
X105196500Y-100937337D01*
X105196500Y-114511523D01*
X105186909Y-114559742D01*
X105159597Y-114600615D01*
X105112251Y-114647961D01*
X105112251Y-114647962D01*
X104985943Y-114828347D01*
X104892879Y-115027925D01*
X104835885Y-115240624D01*
X104816693Y-115459999D01*
X104835885Y-115679375D01*
X104892879Y-115892074D01*
X104985943Y-116091653D01*
X105112253Y-116272041D01*
X105267958Y-116427746D01*
X105267961Y-116427748D01*
X105267962Y-116427749D01*
X105448346Y-116554056D01*
X105647924Y-116647120D01*
X105734465Y-116670309D01*
X105860624Y-116704114D01*
X105860625Y-116704114D01*
X105860629Y-116704115D01*
X106080000Y-116723307D01*
X106299371Y-116704115D01*
X106512076Y-116647120D01*
X106711654Y-116554056D01*
X106892038Y-116427749D01*
X107047749Y-116272038D01*
X107174056Y-116091654D01*
X107267120Y-115892076D01*
X107324115Y-115679371D01*
X107343307Y-115460000D01*
X107324115Y-115240629D01*
X107267120Y-115027924D01*
X107174056Y-114828347D01*
X107047749Y-114647962D01*
X107000402Y-114600615D01*
X106973091Y-114559742D01*
X106963500Y-114511523D01*
X106963500Y-101276031D01*
X106973091Y-101227813D01*
X107000404Y-101186936D01*
X107022662Y-101164678D01*
X107362951Y-100824387D01*
X107408949Y-100795084D01*
X107463026Y-100787964D01*
X107515044Y-100804366D01*
X107555257Y-100841215D01*
X107675319Y-101012682D01*
X107827315Y-101164678D01*
X108003401Y-101287975D01*
X108003402Y-101287975D01*
X108003403Y-101287976D01*
X108198223Y-101378822D01*
X108405858Y-101434458D01*
X108620000Y-101453193D01*
X108834142Y-101434458D01*
X108846218Y-101431221D01*
X108911439Y-101431219D01*
X108967927Y-101463832D01*
X111714595Y-104210500D01*
X111741909Y-104251377D01*
X111751500Y-104299595D01*
X111751500Y-114050264D01*
X111737529Y-114107930D01*
X111698716Y-114152809D01*
X111643666Y-114174948D01*
X111584588Y-114169437D01*
X111494635Y-114138556D01*
X111272569Y-114101500D01*
X111047431Y-114101500D01*
X110825365Y-114138556D01*
X110825362Y-114138556D01*
X110825362Y-114138557D01*
X110612426Y-114211657D01*
X110414421Y-114318812D01*
X110236762Y-114457091D01*
X110084278Y-114622731D01*
X109987124Y-114771438D01*
X109943344Y-114812380D01*
X109885601Y-114828460D01*
X109858028Y-114829326D01*
X109838576Y-114834978D01*
X109819222Y-114838986D01*
X109799120Y-114841526D01*
X109758003Y-114857804D01*
X109746778Y-114861647D01*
X109704327Y-114873980D01*
X109686886Y-114884295D01*
X109669138Y-114892989D01*
X109650302Y-114900447D01*
X109614533Y-114926434D01*
X109604616Y-114932948D01*
X109566556Y-114955457D01*
X109552224Y-114969788D01*
X109537200Y-114982619D01*
X109520815Y-114994524D01*
X109492630Y-115028593D01*
X109484642Y-115037370D01*
X109046835Y-115475177D01*
X109030515Y-115488253D01*
X108981869Y-115540055D01*
X108979119Y-115542893D01*
X108959367Y-115562646D01*
X108959363Y-115562650D01*
X108959364Y-115562650D01*
X108956878Y-115565853D01*
X108949186Y-115574859D01*
X108918912Y-115607098D01*
X108909151Y-115624854D01*
X108898300Y-115641372D01*
X108885884Y-115657379D01*
X108868323Y-115697959D01*
X108863103Y-115708615D01*
X108841803Y-115747360D01*
X108836766Y-115766979D01*
X108830363Y-115785681D01*
X108822317Y-115804275D01*
X108815400Y-115847944D01*
X108812994Y-115859564D01*
X108801999Y-115902390D01*
X108801999Y-115922644D01*
X108800448Y-115942354D01*
X108797278Y-115962362D01*
X108801440Y-116006381D01*
X108801999Y-116018239D01*
X108801999Y-123710460D01*
X108799703Y-123731248D01*
X108801937Y-123802299D01*
X108801999Y-123806258D01*
X108801999Y-123834170D01*
X108802506Y-123838186D01*
X108803436Y-123850009D01*
X108804825Y-123894205D01*
X108810476Y-123913654D01*
X108814485Y-123933009D01*
X108817024Y-123953107D01*
X108833300Y-123994216D01*
X108837143Y-124005443D01*
X108849479Y-124047903D01*
X108859793Y-124065343D01*
X108868486Y-124083087D01*
X108875947Y-124101930D01*
X108875948Y-124101932D01*
X108901930Y-124137693D01*
X108908447Y-124147614D01*
X108930957Y-124185676D01*
X108945277Y-124199996D01*
X108958117Y-124215029D01*
X108970025Y-124231418D01*
X109004091Y-124259600D01*
X109012872Y-124267590D01*
X109264596Y-124519315D01*
X109291909Y-124560192D01*
X109301500Y-124608410D01*
X109301500Y-140951310D01*
X109284925Y-141013778D01*
X109239560Y-141059810D01*
X109177341Y-141077297D01*
X109114638Y-141061636D01*
X109067947Y-141016949D01*
X109009018Y-140920390D01*
X108835745Y-140712180D01*
X108835741Y-140712176D01*
X108634006Y-140531421D01*
X108634003Y-140531419D01*
X108634002Y-140531418D01*
X108408090Y-140381956D01*
X108408086Y-140381954D01*
X108162828Y-140266981D01*
X107903425Y-140188938D01*
X107635442Y-140149500D01*
X107635439Y-140149500D01*
X107432369Y-140149500D01*
X107398614Y-140151970D01*
X107229839Y-140164323D01*
X106965449Y-140223219D01*
X106712441Y-140319985D01*
X106476225Y-140452557D01*
X106261820Y-140618114D01*
X106073815Y-140813117D01*
X105916200Y-141033422D01*
X105792342Y-141274328D01*
X105704882Y-141530693D01*
X105655681Y-141797065D01*
X105645787Y-142067766D01*
X105675413Y-142337015D01*
X105700965Y-142434753D01*
X105743928Y-142599088D01*
X105849870Y-142848390D01*
X105990982Y-143079610D01*
X106164255Y-143287820D01*
X106164256Y-143287821D01*
X106164258Y-143287823D01*
X106365993Y-143468578D01*
X106365995Y-143468579D01*
X106365998Y-143468582D01*
X106591910Y-143618044D01*
X106668189Y-143653802D01*
X106837171Y-143733018D01*
X106837173Y-143733018D01*
X106837176Y-143733020D01*
X107096569Y-143811060D01*
X107096572Y-143811060D01*
X107096574Y-143811061D01*
X107364558Y-143850500D01*
X107364561Y-143850500D01*
X107567630Y-143850500D01*
X107567631Y-143850500D01*
X107770156Y-143835677D01*
X108034553Y-143776780D01*
X108287558Y-143680014D01*
X108523777Y-143547441D01*
X108738177Y-143381888D01*
X108926186Y-143186881D01*
X109073027Y-142981635D01*
X109121186Y-142941258D01*
X109182860Y-142929166D01*
X109242703Y-142948369D01*
X109285826Y-142994089D01*
X109301500Y-143054951D01*
X109301500Y-147171147D01*
X109299204Y-147191935D01*
X109301438Y-147262986D01*
X109301500Y-147266945D01*
X109301500Y-147294857D01*
X109302007Y-147298873D01*
X109302937Y-147310696D01*
X109304326Y-147354892D01*
X109309977Y-147374341D01*
X109313986Y-147393696D01*
X109316525Y-147413794D01*
X109316525Y-147413796D01*
X109316526Y-147413797D01*
X109324670Y-147434368D01*
X109332801Y-147454903D01*
X109336644Y-147466130D01*
X109348980Y-147508590D01*
X109359294Y-147526030D01*
X109367987Y-147543774D01*
X109375448Y-147562617D01*
X109375449Y-147562619D01*
X109401431Y-147598380D01*
X109407948Y-147608301D01*
X109430458Y-147646363D01*
X109444778Y-147660683D01*
X109457618Y-147675716D01*
X109469526Y-147692105D01*
X109469527Y-147692106D01*
X109469528Y-147692107D01*
X109503598Y-147720292D01*
X109512378Y-147728282D01*
X119288754Y-157504659D01*
X119301833Y-157520983D01*
X119303999Y-157523017D01*
X119304000Y-157523018D01*
X119329965Y-157547401D01*
X119353649Y-157569641D01*
X119356460Y-157572365D01*
X119376230Y-157592135D01*
X119379443Y-157594627D01*
X119388433Y-157602306D01*
X119420679Y-157632586D01*
X119438426Y-157642342D01*
X119454950Y-157653196D01*
X119470959Y-157665614D01*
X119511542Y-157683175D01*
X119522193Y-157688393D01*
X119560940Y-157709695D01*
X119580560Y-157714732D01*
X119599267Y-157721137D01*
X119605880Y-157723998D01*
X119617854Y-157729181D01*
X119628505Y-157730867D01*
X119661530Y-157736098D01*
X119673125Y-157738498D01*
X119715970Y-157749500D01*
X119715972Y-157749500D01*
X119723601Y-157751459D01*
X119776575Y-157779866D01*
X119810361Y-157829582D01*
X119817269Y-157889294D01*
X119795727Y-157945411D01*
X119750638Y-157985162D01*
X119692263Y-157999500D01*
X104626500Y-157999500D01*
X104563500Y-157982619D01*
X104517381Y-157936500D01*
X104500500Y-157873500D01*
X104500500Y-132719999D01*
X104816693Y-132719999D01*
X104835885Y-132939375D01*
X104892879Y-133152074D01*
X104985943Y-133351653D01*
X105112253Y-133532041D01*
X105267958Y-133687746D01*
X105267961Y-133687748D01*
X105267962Y-133687749D01*
X105448346Y-133814056D01*
X105647924Y-133907120D01*
X105713753Y-133924759D01*
X105860624Y-133964114D01*
X105860625Y-133964114D01*
X105860629Y-133964115D01*
X106080000Y-133983307D01*
X106299371Y-133964115D01*
X106512076Y-133907120D01*
X106711654Y-133814056D01*
X106892038Y-133687749D01*
X107047749Y-133532038D01*
X107174056Y-133351654D01*
X107267120Y-133152076D01*
X107324115Y-132939371D01*
X107343307Y-132720000D01*
X107324115Y-132500629D01*
X107267120Y-132287924D01*
X107174056Y-132088347D01*
X107047749Y-131907962D01*
X107047748Y-131907961D01*
X107047746Y-131907958D01*
X106892041Y-131752253D01*
X106711653Y-131625943D01*
X106512074Y-131532879D01*
X106299375Y-131475885D01*
X106080000Y-131456693D01*
X105860624Y-131475885D01*
X105647925Y-131532879D01*
X105448347Y-131625943D01*
X105267958Y-131752253D01*
X105112253Y-131907958D01*
X104985943Y-132088347D01*
X104892879Y-132287925D01*
X104835885Y-132500624D01*
X104816693Y-132719999D01*
X104500500Y-132719999D01*
X104500500Y-125401198D01*
X105388012Y-125401198D01*
X105448595Y-125443620D01*
X105648094Y-125536649D01*
X105860715Y-125593619D01*
X106080000Y-125612804D01*
X106299284Y-125593619D01*
X106511904Y-125536649D01*
X106711405Y-125443619D01*
X106771986Y-125401198D01*
X106771986Y-125401197D01*
X106080000Y-124709210D01*
X106079999Y-124709210D01*
X105388012Y-125401196D01*
X105388012Y-125401198D01*
X104500500Y-125401198D01*
X104500500Y-124350000D01*
X104817195Y-124350000D01*
X104836380Y-124569284D01*
X104893350Y-124781905D01*
X104986379Y-124981403D01*
X105028800Y-125041986D01*
X105028802Y-125041986D01*
X105720789Y-124350000D01*
X106439210Y-124350000D01*
X107131197Y-125041986D01*
X107131198Y-125041986D01*
X107173619Y-124981405D01*
X107266649Y-124781904D01*
X107323619Y-124569284D01*
X107342804Y-124350000D01*
X107323619Y-124130715D01*
X107266649Y-123918095D01*
X107173620Y-123718597D01*
X107131198Y-123658012D01*
X107131196Y-123658012D01*
X106439210Y-124349999D01*
X106439210Y-124350000D01*
X105720789Y-124350000D01*
X105720789Y-124349999D01*
X105028800Y-123658011D01*
X104986378Y-123718598D01*
X104893351Y-123918092D01*
X104836380Y-124130715D01*
X104817195Y-124350000D01*
X104500500Y-124350000D01*
X104500500Y-123298801D01*
X105388011Y-123298801D01*
X106079999Y-123990789D01*
X106080000Y-123990789D01*
X106771986Y-123298801D01*
X106771986Y-123298800D01*
X106711403Y-123256379D01*
X106511905Y-123163350D01*
X106299284Y-123106380D01*
X106080000Y-123087195D01*
X105860715Y-123106380D01*
X105648092Y-123163351D01*
X105448598Y-123256378D01*
X105388011Y-123298801D01*
X104500500Y-123298801D01*
X104500500Y-92600000D01*
X107386807Y-92600000D01*
X107405542Y-92814142D01*
X107461177Y-93021776D01*
X107552024Y-93216598D01*
X107675321Y-93392684D01*
X107827315Y-93544678D01*
X108003401Y-93667975D01*
X108003402Y-93667975D01*
X108003403Y-93667976D01*
X108198223Y-93758822D01*
X108405858Y-93814458D01*
X108620000Y-93833193D01*
X108834142Y-93814458D01*
X109041777Y-93758822D01*
X109236597Y-93667976D01*
X109412681Y-93544681D01*
X109564681Y-93392681D01*
X109687976Y-93216597D01*
X109775804Y-93028247D01*
X109822300Y-92975230D01*
X109890000Y-92955497D01*
X109957700Y-92975230D01*
X110004195Y-93028247D01*
X110092024Y-93216598D01*
X110215321Y-93392684D01*
X110367315Y-93544678D01*
X110543401Y-93667975D01*
X110543402Y-93667975D01*
X110543403Y-93667976D01*
X110738223Y-93758822D01*
X110945858Y-93814458D01*
X111160000Y-93833193D01*
X111374142Y-93814458D01*
X111581777Y-93758822D01*
X111776597Y-93667976D01*
X111952681Y-93544681D01*
X112104681Y-93392681D01*
X112227976Y-93216597D01*
X112315804Y-93028247D01*
X112362300Y-92975230D01*
X112430000Y-92955497D01*
X112497700Y-92975230D01*
X112544195Y-93028247D01*
X112632024Y-93216598D01*
X112755321Y-93392684D01*
X112907315Y-93544678D01*
X113083401Y-93667975D01*
X113083402Y-93667975D01*
X113083403Y-93667976D01*
X113278223Y-93758822D01*
X113485858Y-93814458D01*
X113700000Y-93833193D01*
X113914142Y-93814458D01*
X114121777Y-93758822D01*
X114316597Y-93667976D01*
X114492681Y-93544681D01*
X114644681Y-93392681D01*
X114767976Y-93216597D01*
X114858822Y-93021777D01*
X114914458Y-92814142D01*
X114933193Y-92600000D01*
X114914458Y-92385858D01*
X114858822Y-92178223D01*
X114767976Y-91983404D01*
X114644681Y-91807319D01*
X114515404Y-91678042D01*
X114488091Y-91637165D01*
X114478500Y-91588947D01*
X114478500Y-87637168D01*
X114491494Y-87581440D01*
X114527796Y-87537205D01*
X114579919Y-87513589D01*
X114637110Y-87515460D01*
X114741913Y-87543543D01*
X114970000Y-87563498D01*
X115198087Y-87543543D01*
X115419243Y-87484284D01*
X115626749Y-87387523D01*
X115814300Y-87256198D01*
X115976198Y-87094300D01*
X116107523Y-86906749D01*
X116204284Y-86699243D01*
X116263543Y-86478087D01*
X116283498Y-86250000D01*
X116263543Y-86021913D01*
X116204284Y-85800757D01*
X116199620Y-85790756D01*
X116107522Y-85593249D01*
X116003804Y-85445126D01*
X115976198Y-85405700D01*
X115976197Y-85405699D01*
X115976195Y-85405696D01*
X115814303Y-85243804D01*
X115626750Y-85112477D01*
X115419243Y-85015715D01*
X115198087Y-84956457D01*
X114970000Y-84936502D01*
X114741912Y-84956457D01*
X114693307Y-84969481D01*
X114637110Y-84984539D01*
X114579919Y-84986411D01*
X114527796Y-84962795D01*
X114491494Y-84918560D01*
X114478500Y-84862832D01*
X114478500Y-77529595D01*
X114488091Y-77481378D01*
X114515403Y-77440501D01*
X114534464Y-77421440D01*
X114556750Y-77399152D01*
X114613235Y-77366541D01*
X114678457Y-77366540D01*
X114741913Y-77383543D01*
X114970000Y-77403498D01*
X115198087Y-77383543D01*
X115419243Y-77324284D01*
X115626749Y-77227523D01*
X115814300Y-77096198D01*
X115976198Y-76934300D01*
X116107523Y-76746749D01*
X116204284Y-76539243D01*
X116256600Y-76344000D01*
X118763918Y-76344000D01*
X118816186Y-76539070D01*
X118912912Y-76746498D01*
X119044189Y-76933981D01*
X119206018Y-77095810D01*
X119393501Y-77227087D01*
X119600929Y-77323813D01*
X119796000Y-77376082D01*
X119796000Y-76344000D01*
X120304000Y-76344000D01*
X120304000Y-77376082D01*
X120499070Y-77323813D01*
X120706498Y-77227087D01*
X120893981Y-77095810D01*
X121055810Y-76933981D01*
X121187087Y-76746498D01*
X121283813Y-76539070D01*
X121336082Y-76344000D01*
X120304000Y-76344000D01*
X119796000Y-76344000D01*
X118763918Y-76344000D01*
X116256600Y-76344000D01*
X116263543Y-76318087D01*
X116283498Y-76090000D01*
X123816502Y-76090000D01*
X123836457Y-76318087D01*
X123895715Y-76539243D01*
X123992477Y-76746750D01*
X124123804Y-76934303D01*
X124285696Y-77096195D01*
X124285699Y-77096197D01*
X124285700Y-77096198D01*
X124341072Y-77134970D01*
X124473249Y-77227522D01*
X124680756Y-77324284D01*
X124718077Y-77334284D01*
X124901913Y-77383543D01*
X125130000Y-77403498D01*
X125358087Y-77383543D01*
X125579243Y-77324284D01*
X125786749Y-77227523D01*
X125974300Y-77096198D01*
X126136198Y-76934300D01*
X126267523Y-76746749D01*
X126364284Y-76539243D01*
X126423543Y-76318087D01*
X126443498Y-76090000D01*
X126423543Y-75861913D01*
X126364284Y-75640757D01*
X126359620Y-75630756D01*
X126267522Y-75433249D01*
X126143197Y-75255696D01*
X126136198Y-75245700D01*
X126136197Y-75245699D01*
X126136195Y-75245696D01*
X125974303Y-75083804D01*
X125786750Y-74952477D01*
X125579243Y-74855715D01*
X125358087Y-74796457D01*
X125130000Y-74776502D01*
X124901912Y-74796457D01*
X124680756Y-74855715D01*
X124473249Y-74952477D01*
X124285696Y-75083804D01*
X124123804Y-75245696D01*
X123992477Y-75433249D01*
X123895715Y-75640756D01*
X123836457Y-75861912D01*
X123816502Y-76090000D01*
X116283498Y-76090000D01*
X116263543Y-75861913D01*
X116256600Y-75836000D01*
X118763917Y-75836000D01*
X119796000Y-75836000D01*
X119796000Y-74803917D01*
X120303999Y-74803917D01*
X120304000Y-74803918D01*
X120304000Y-75836000D01*
X121336082Y-75836000D01*
X121283813Y-75640929D01*
X121187087Y-75433501D01*
X121055810Y-75246018D01*
X120893981Y-75084189D01*
X120706498Y-74952912D01*
X120499070Y-74856186D01*
X120303999Y-74803917D01*
X119796000Y-74803917D01*
X119600929Y-74856186D01*
X119393501Y-74952912D01*
X119206018Y-75084189D01*
X119044189Y-75246018D01*
X118912912Y-75433501D01*
X118816186Y-75640929D01*
X118763917Y-75836000D01*
X116256600Y-75836000D01*
X116204284Y-75640757D01*
X116199620Y-75630756D01*
X116107522Y-75433249D01*
X115983197Y-75255696D01*
X115976198Y-75245700D01*
X115976197Y-75245699D01*
X115976195Y-75245696D01*
X115814303Y-75083804D01*
X115626750Y-74952477D01*
X115419243Y-74855715D01*
X115198087Y-74796457D01*
X114970000Y-74776502D01*
X114741912Y-74796457D01*
X114520756Y-74855715D01*
X114313249Y-74952477D01*
X114125696Y-75083804D01*
X113963804Y-75245696D01*
X113832477Y-75433249D01*
X113735715Y-75640756D01*
X113676457Y-75861912D01*
X113656502Y-76090000D01*
X113676457Y-76318087D01*
X113693459Y-76381540D01*
X113693459Y-76446762D01*
X113660847Y-76503246D01*
X113456336Y-76707757D01*
X113440016Y-76720833D01*
X113391370Y-76772635D01*
X113388620Y-76775473D01*
X113368868Y-76795226D01*
X113368864Y-76795230D01*
X113368865Y-76795230D01*
X113366379Y-76798433D01*
X113358687Y-76807439D01*
X113328413Y-76839678D01*
X113318652Y-76857434D01*
X113307801Y-76873952D01*
X113295385Y-76889959D01*
X113277824Y-76930539D01*
X113272604Y-76941195D01*
X113251304Y-76979940D01*
X113246267Y-76999559D01*
X113239864Y-77018261D01*
X113231818Y-77036855D01*
X113224901Y-77080524D01*
X113222495Y-77092144D01*
X113211500Y-77134970D01*
X113211500Y-77155224D01*
X113209949Y-77174934D01*
X113206779Y-77194942D01*
X113210941Y-77238961D01*
X113211500Y-77250819D01*
X113211500Y-91392021D01*
X113191767Y-91459721D01*
X113138750Y-91506216D01*
X113083401Y-91532025D01*
X112907318Y-91655319D01*
X112755321Y-91807316D01*
X112632024Y-91983402D01*
X112544195Y-92171754D01*
X112497700Y-92224771D01*
X112430000Y-92244504D01*
X112362300Y-92224771D01*
X112315805Y-92171754D01*
X112227975Y-91983402D01*
X112192722Y-91933056D01*
X112104681Y-91807319D01*
X111952681Y-91655319D01*
X111952680Y-91655318D01*
X111776598Y-91532024D01*
X111581776Y-91441177D01*
X111374142Y-91385542D01*
X111374141Y-91385541D01*
X111160000Y-91366807D01*
X111159999Y-91366807D01*
X111052929Y-91376174D01*
X110945858Y-91385542D01*
X110738223Y-91441178D01*
X110738220Y-91441179D01*
X110738221Y-91441179D01*
X110543402Y-91532024D01*
X110367316Y-91655321D01*
X110215321Y-91807316D01*
X110092024Y-91983402D01*
X110004195Y-92171754D01*
X109957700Y-92224771D01*
X109890000Y-92244504D01*
X109822300Y-92224771D01*
X109775805Y-92171754D01*
X109687975Y-91983402D01*
X109652722Y-91933056D01*
X109564681Y-91807319D01*
X109412681Y-91655319D01*
X109412680Y-91655318D01*
X109236598Y-91532024D01*
X109041776Y-91441177D01*
X108834142Y-91385542D01*
X108834141Y-91385541D01*
X108620000Y-91366807D01*
X108619999Y-91366807D01*
X108512929Y-91376174D01*
X108405858Y-91385542D01*
X108198223Y-91441178D01*
X108198220Y-91441179D01*
X108198221Y-91441179D01*
X108003402Y-91532024D01*
X107827316Y-91655321D01*
X107675321Y-91807316D01*
X107552024Y-91983402D01*
X107467300Y-92165093D01*
X107461178Y-92178223D01*
X107443418Y-92244504D01*
X107405542Y-92385859D01*
X107386807Y-92600000D01*
X104500500Y-92600000D01*
X104500500Y-86210000D01*
X108576502Y-86210000D01*
X108596457Y-86438087D01*
X108655715Y-86659243D01*
X108752477Y-86866750D01*
X108883804Y-87054303D01*
X109045696Y-87216195D01*
X109233249Y-87347522D01*
X109440756Y-87444284D01*
X109500015Y-87460162D01*
X109661913Y-87503543D01*
X109890000Y-87523498D01*
X110118087Y-87503543D01*
X110339243Y-87444284D01*
X110546749Y-87347523D01*
X110734300Y-87216198D01*
X110896198Y-87054300D01*
X111027523Y-86866749D01*
X111124284Y-86659243D01*
X111183543Y-86438087D01*
X111203498Y-86210000D01*
X111183543Y-85981913D01*
X111127820Y-85773952D01*
X111124284Y-85760756D01*
X111027522Y-85553249D01*
X110917201Y-85395696D01*
X110896198Y-85365700D01*
X110896197Y-85365699D01*
X110896195Y-85365696D01*
X110734303Y-85203804D01*
X110546750Y-85072477D01*
X110339243Y-84975715D01*
X110118087Y-84916457D01*
X109890000Y-84896502D01*
X109661912Y-84916457D01*
X109440756Y-84975715D01*
X109233249Y-85072477D01*
X109045696Y-85203804D01*
X108883804Y-85365696D01*
X108752477Y-85553249D01*
X108655715Y-85760756D01*
X108596457Y-85981912D01*
X108576502Y-86210000D01*
X104500500Y-86210000D01*
X104500500Y-82297100D01*
X109162110Y-82297100D01*
X109233497Y-82347085D01*
X109440929Y-82443813D01*
X109662000Y-82503048D01*
X109890000Y-82522995D01*
X110117999Y-82503048D01*
X110339070Y-82443813D01*
X110546498Y-82347087D01*
X110617888Y-82297099D01*
X110617888Y-82297097D01*
X109890001Y-81569210D01*
X109890000Y-81569210D01*
X109162110Y-82297098D01*
X109162110Y-82297100D01*
X104500500Y-82297100D01*
X104500500Y-81209999D01*
X108577004Y-81209999D01*
X108596951Y-81437999D01*
X108656186Y-81659070D01*
X108752912Y-81866497D01*
X108802900Y-81937887D01*
X109530789Y-81210001D01*
X110249210Y-81210001D01*
X110977097Y-81937888D01*
X110977099Y-81937888D01*
X111027087Y-81866498D01*
X111123813Y-81659070D01*
X111183048Y-81437999D01*
X111202995Y-81209999D01*
X111183048Y-80982000D01*
X111123813Y-80760929D01*
X111027085Y-80553497D01*
X110977100Y-80482110D01*
X110977098Y-80482110D01*
X110249210Y-81210000D01*
X110249210Y-81210001D01*
X109530789Y-81210001D01*
X109530790Y-81210000D01*
X109530790Y-81209999D01*
X108802900Y-80482109D01*
X108752913Y-80553499D01*
X108656186Y-80760929D01*
X108596951Y-80982000D01*
X108577004Y-81209999D01*
X104500500Y-81209999D01*
X104500500Y-80122900D01*
X109162109Y-80122900D01*
X109889999Y-80850790D01*
X109890000Y-80850790D01*
X110617888Y-80122899D01*
X110546497Y-80072912D01*
X110339070Y-79976186D01*
X110117999Y-79916951D01*
X109890000Y-79897004D01*
X109662000Y-79916951D01*
X109440929Y-79976186D01*
X109233499Y-80072913D01*
X109162109Y-80122900D01*
X104500500Y-80122900D01*
X104500500Y-70353199D01*
X121506011Y-70353199D01*
X121658644Y-70457263D01*
X121885241Y-70566387D01*
X122125559Y-70640514D01*
X122374254Y-70678000D01*
X122625746Y-70678000D01*
X122874440Y-70640514D01*
X123114761Y-70566386D01*
X123341349Y-70457266D01*
X123493988Y-70353198D01*
X122500001Y-69359210D01*
X122499999Y-69359210D01*
X121506011Y-70353197D01*
X121506011Y-70353199D01*
X104500500Y-70353199D01*
X104500500Y-69000000D01*
X120817295Y-69000000D01*
X120836089Y-69250795D01*
X120892053Y-69495987D01*
X120983935Y-69730098D01*
X121109684Y-69947901D01*
X121146597Y-69994189D01*
X121146599Y-69994189D01*
X122140789Y-69000001D01*
X122859210Y-69000001D01*
X123853400Y-69994190D01*
X123853401Y-69994190D01*
X123890317Y-69947899D01*
X124016064Y-69730099D01*
X124107946Y-69495987D01*
X124163910Y-69250795D01*
X124182704Y-69000000D01*
X124163910Y-68749204D01*
X124107946Y-68504012D01*
X124016064Y-68269901D01*
X123890315Y-68052098D01*
X123853401Y-68005809D01*
X123853399Y-68005809D01*
X122859210Y-68999999D01*
X122859210Y-69000001D01*
X122140789Y-69000001D01*
X122140789Y-68999999D01*
X121146598Y-68005809D01*
X121146597Y-68005809D01*
X121109684Y-68052098D01*
X120983935Y-68269901D01*
X120892053Y-68504012D01*
X120836089Y-68749204D01*
X120817295Y-69000000D01*
X104500500Y-69000000D01*
X104500500Y-67646801D01*
X121506011Y-67646801D01*
X122499999Y-68640789D01*
X122500001Y-68640789D01*
X123493987Y-67646801D01*
X123493987Y-67646799D01*
X123341353Y-67542735D01*
X123114761Y-67433613D01*
X122874440Y-67359485D01*
X122625746Y-67322000D01*
X122374254Y-67322000D01*
X122125559Y-67359485D01*
X121885241Y-67433612D01*
X121658650Y-67542734D01*
X121506011Y-67646800D01*
X121506011Y-67646801D01*
X104500500Y-67646801D01*
X104500500Y-49067766D01*
X105645787Y-49067766D01*
X105675413Y-49337015D01*
X105675414Y-49337018D01*
X105743928Y-49599088D01*
X105849870Y-49848390D01*
X105990982Y-50079610D01*
X106164255Y-50287820D01*
X106164256Y-50287821D01*
X106164258Y-50287823D01*
X106365993Y-50468578D01*
X106365995Y-50468579D01*
X106365998Y-50468582D01*
X106591910Y-50618044D01*
X106724104Y-50680014D01*
X106837171Y-50733018D01*
X106837173Y-50733018D01*
X106837176Y-50733020D01*
X107096569Y-50811060D01*
X107096572Y-50811060D01*
X107096574Y-50811061D01*
X107364558Y-50850500D01*
X107364561Y-50850500D01*
X107567630Y-50850500D01*
X107567631Y-50850500D01*
X107770156Y-50835677D01*
X108034553Y-50776780D01*
X108261449Y-50690000D01*
X139056502Y-50690000D01*
X139076457Y-50918087D01*
X139135715Y-51139243D01*
X139232477Y-51346750D01*
X139363804Y-51534303D01*
X139525696Y-51696195D01*
X139713249Y-51827522D01*
X139920756Y-51924284D01*
X139980014Y-51940162D01*
X140141913Y-51983543D01*
X140370000Y-52003498D01*
X140598087Y-51983543D01*
X140819243Y-51924284D01*
X141026749Y-51827523D01*
X141214300Y-51696198D01*
X141376198Y-51534300D01*
X141507523Y-51346749D01*
X141604284Y-51139243D01*
X141663543Y-50918087D01*
X141683498Y-50690000D01*
X141663543Y-50461913D01*
X141604284Y-50240757D01*
X141579161Y-50186881D01*
X141507522Y-50033249D01*
X141419817Y-49907995D01*
X141376198Y-49845700D01*
X141376197Y-49845699D01*
X141376195Y-49845696D01*
X141214303Y-49683804D01*
X141026750Y-49552477D01*
X140819243Y-49455715D01*
X140598087Y-49396457D01*
X140370000Y-49376502D01*
X140141912Y-49396457D01*
X139920756Y-49455715D01*
X139713249Y-49552477D01*
X139525696Y-49683804D01*
X139363804Y-49845696D01*
X139232477Y-50033249D01*
X139135715Y-50240756D01*
X139076457Y-50461912D01*
X139056502Y-50690000D01*
X108261449Y-50690000D01*
X108287558Y-50680014D01*
X108523777Y-50547441D01*
X108738177Y-50381888D01*
X108926186Y-50186881D01*
X109083799Y-49966579D01*
X109207656Y-49725675D01*
X109295118Y-49469305D01*
X109344319Y-49202933D01*
X109354212Y-48932235D01*
X109324586Y-48662982D01*
X109256072Y-48400912D01*
X109150130Y-48151610D01*
X109009018Y-47920390D01*
X108835745Y-47712180D01*
X108730759Y-47618112D01*
X108634006Y-47531421D01*
X108634003Y-47531419D01*
X108634002Y-47531418D01*
X108408090Y-47381956D01*
X108408086Y-47381954D01*
X108162828Y-47266981D01*
X107903425Y-47188938D01*
X107635442Y-47149500D01*
X107635439Y-47149500D01*
X107432369Y-47149500D01*
X107398614Y-47151970D01*
X107229839Y-47164323D01*
X106965449Y-47223219D01*
X106712441Y-47319985D01*
X106476225Y-47452557D01*
X106261820Y-47618114D01*
X106073815Y-47813117D01*
X105916200Y-48033422D01*
X105792342Y-48274328D01*
X105704882Y-48530693D01*
X105655681Y-48797065D01*
X105645787Y-49067766D01*
X104500500Y-49067766D01*
X104500500Y-42126500D01*
X104517381Y-42063500D01*
X104563500Y-42017381D01*
X104626500Y-42000500D01*
X195373500Y-42000500D01*
X195436500Y-42017381D01*
G37*
G04 #@! TD.AperFunction*
G04 #@! TA.AperFunction,Conductor*
G36*
X149327976Y-73243933D02*
G01*
X149374471Y-73296951D01*
X149392911Y-73336497D01*
X149524189Y-73523981D01*
X149686018Y-73685810D01*
X149873501Y-73817087D01*
X150080928Y-73913812D01*
X150232405Y-73954400D01*
X150288889Y-73987011D01*
X150321501Y-74043495D01*
X150321501Y-74108718D01*
X150288890Y-74165202D01*
X150141334Y-74312759D01*
X150125016Y-74325832D01*
X150076370Y-74377635D01*
X150073620Y-74380473D01*
X150053868Y-74400226D01*
X150053864Y-74400230D01*
X150053865Y-74400230D01*
X150051379Y-74403433D01*
X150043687Y-74412439D01*
X150013413Y-74444678D01*
X150003652Y-74462434D01*
X149992801Y-74478952D01*
X149980385Y-74494959D01*
X149962824Y-74535539D01*
X149957604Y-74546195D01*
X149936304Y-74584940D01*
X149931267Y-74604559D01*
X149924864Y-74623261D01*
X149916818Y-74641855D01*
X149909901Y-74685524D01*
X149907495Y-74697144D01*
X149896500Y-74739970D01*
X149896500Y-74760224D01*
X149894949Y-74779934D01*
X149891779Y-74799942D01*
X149895941Y-74843961D01*
X149896500Y-74855819D01*
X149896500Y-74880607D01*
X149882263Y-74938787D01*
X149842772Y-74983818D01*
X149774659Y-75031511D01*
X149685696Y-75093804D01*
X149523804Y-75255696D01*
X149392477Y-75443249D01*
X149295715Y-75650756D01*
X149236457Y-75871912D01*
X149216502Y-76099999D01*
X149236457Y-76328087D01*
X149295715Y-76549243D01*
X149392477Y-76756750D01*
X149523804Y-76944303D01*
X149685696Y-77106195D01*
X149873249Y-77237522D01*
X149873250Y-77237522D01*
X149873251Y-77237523D01*
X149889018Y-77244875D01*
X150080756Y-77334284D01*
X150140014Y-77350162D01*
X150301913Y-77393543D01*
X150530000Y-77413498D01*
X150758087Y-77393543D01*
X150979243Y-77334284D01*
X151186749Y-77237523D01*
X151374300Y-77106198D01*
X151536198Y-76944300D01*
X151667523Y-76756749D01*
X151764284Y-76549243D01*
X151823543Y-76328087D01*
X151843498Y-76100000D01*
X151823543Y-75871913D01*
X151764284Y-75650757D01*
X151759701Y-75640929D01*
X151667522Y-75443249D01*
X151536195Y-75255696D01*
X151374302Y-75093803D01*
X151366613Y-75088419D01*
X151329765Y-75048206D01*
X151313364Y-74996188D01*
X151320484Y-74942112D01*
X151349788Y-74896114D01*
X152361185Y-73884717D01*
X152403758Y-73856716D01*
X152453943Y-73847867D01*
X152503526Y-73859618D01*
X152620757Y-73914284D01*
X152841913Y-73973543D01*
X153070000Y-73993498D01*
X153298087Y-73973543D01*
X153519243Y-73914284D01*
X153726749Y-73817523D01*
X153914300Y-73686198D01*
X154076198Y-73524300D01*
X154078507Y-73521002D01*
X154124069Y-73481233D01*
X154182916Y-73467275D01*
X154241488Y-73482346D01*
X154286290Y-73522973D01*
X154307000Y-73579797D01*
X154308011Y-73589200D01*
X154359111Y-73726205D01*
X154446738Y-73843261D01*
X154563794Y-73930888D01*
X154563795Y-73930888D01*
X154563796Y-73930889D01*
X154700799Y-73981989D01*
X154761362Y-73988500D01*
X155975500Y-73988500D01*
X156038500Y-74005381D01*
X156084619Y-74051500D01*
X156101500Y-74114500D01*
X156101500Y-74712832D01*
X156088506Y-74768560D01*
X156052204Y-74812795D01*
X156000081Y-74836411D01*
X155942889Y-74834539D01*
X155838087Y-74806457D01*
X155610000Y-74786502D01*
X155381912Y-74806457D01*
X155160756Y-74865715D01*
X154953249Y-74962477D01*
X154765696Y-75093804D01*
X154603804Y-75255696D01*
X154472477Y-75443249D01*
X154375715Y-75650756D01*
X154316457Y-75871912D01*
X154296502Y-76099999D01*
X154316457Y-76328087D01*
X154375715Y-76549243D01*
X154472477Y-76756750D01*
X154603804Y-76944303D01*
X154765696Y-77106195D01*
X154953249Y-77237522D01*
X154953250Y-77237522D01*
X154953251Y-77237523D01*
X154969018Y-77244875D01*
X155160756Y-77334284D01*
X155220014Y-77350162D01*
X155381913Y-77393543D01*
X155610000Y-77413498D01*
X155838087Y-77393543D01*
X155942889Y-77365460D01*
X156000081Y-77363589D01*
X156052204Y-77387205D01*
X156088506Y-77431440D01*
X156101500Y-77487168D01*
X156101500Y-83229415D01*
X156091909Y-83277633D01*
X156064597Y-83318507D01*
X154420308Y-84962795D01*
X154096336Y-85286767D01*
X154080016Y-85299842D01*
X154031357Y-85351659D01*
X154028602Y-85354501D01*
X154008866Y-85374236D01*
X154006380Y-85377441D01*
X153998688Y-85386446D01*
X153968414Y-85418686D01*
X153958652Y-85436443D01*
X153947801Y-85452961D01*
X153935385Y-85468968D01*
X153917824Y-85509548D01*
X153912604Y-85520204D01*
X153891304Y-85558949D01*
X153886267Y-85578568D01*
X153879864Y-85597270D01*
X153871818Y-85615864D01*
X153864901Y-85659533D01*
X153862495Y-85671153D01*
X153851500Y-85713979D01*
X153851500Y-85734233D01*
X153849949Y-85753943D01*
X153846779Y-85773951D01*
X153850941Y-85817970D01*
X153851500Y-85829828D01*
X153851500Y-86642138D01*
X153849204Y-86662926D01*
X153851438Y-86733977D01*
X153851500Y-86737936D01*
X153851500Y-86765848D01*
X153852007Y-86769864D01*
X153852937Y-86781687D01*
X153854326Y-86825883D01*
X153859977Y-86845332D01*
X153863986Y-86864687D01*
X153866525Y-86884785D01*
X153866525Y-86884787D01*
X153866526Y-86884788D01*
X153879180Y-86916750D01*
X153882801Y-86925894D01*
X153886644Y-86937121D01*
X153898980Y-86979581D01*
X153909294Y-86997021D01*
X153917987Y-87014765D01*
X153925448Y-87033608D01*
X153925449Y-87033610D01*
X153951431Y-87069371D01*
X153957948Y-87079292D01*
X153980458Y-87117354D01*
X153994778Y-87131674D01*
X154007618Y-87146707D01*
X154019526Y-87163096D01*
X154053598Y-87191283D01*
X154062378Y-87199273D01*
X155914595Y-89051490D01*
X155941909Y-89092367D01*
X155951500Y-89140585D01*
X155951500Y-129998534D01*
X155949204Y-130019322D01*
X155951438Y-130090373D01*
X155951500Y-130094332D01*
X155951500Y-130122244D01*
X155952007Y-130126260D01*
X155952937Y-130138083D01*
X155954326Y-130182279D01*
X155959977Y-130201728D01*
X155963986Y-130221083D01*
X155966525Y-130241181D01*
X155966525Y-130241183D01*
X155966526Y-130241184D01*
X155979637Y-130274300D01*
X155982801Y-130282290D01*
X155986644Y-130293517D01*
X155998980Y-130335977D01*
X156009294Y-130353417D01*
X156017987Y-130371161D01*
X156021291Y-130379505D01*
X156025449Y-130390006D01*
X156051431Y-130425767D01*
X156057948Y-130435688D01*
X156080458Y-130473750D01*
X156094778Y-130488070D01*
X156107618Y-130503103D01*
X156119526Y-130519492D01*
X156153598Y-130547679D01*
X156162378Y-130555669D01*
X156999866Y-131393157D01*
X157012945Y-131409482D01*
X157064764Y-131458143D01*
X157067575Y-131460867D01*
X157087344Y-131480636D01*
X157090557Y-131483128D01*
X157099547Y-131490807D01*
X157131793Y-131521087D01*
X157149540Y-131530843D01*
X157166064Y-131541697D01*
X157182073Y-131554115D01*
X157222656Y-131571676D01*
X157233307Y-131576894D01*
X157272054Y-131598196D01*
X157277532Y-131599602D01*
X157338423Y-131635788D01*
X157370170Y-131699109D01*
X157362739Y-131769552D01*
X157318477Y-131824854D01*
X157305698Y-131833802D01*
X157143804Y-131995696D01*
X157012477Y-132183250D01*
X156993919Y-132223049D01*
X156947424Y-132276066D01*
X156879724Y-132295799D01*
X156812024Y-132276066D01*
X156765529Y-132223049D01*
X156747087Y-132183501D01*
X156615810Y-131996018D01*
X156453981Y-131834189D01*
X156266498Y-131702912D01*
X156059070Y-131606186D01*
X155863999Y-131553917D01*
X155864000Y-131553918D01*
X155864000Y-134926082D01*
X156059070Y-134873813D01*
X156266498Y-134777087D01*
X156453981Y-134645810D01*
X156615810Y-134483981D01*
X156747088Y-134296497D01*
X156765529Y-134256951D01*
X156812024Y-134203933D01*
X156879724Y-134184200D01*
X156947424Y-134203933D01*
X156993919Y-134256951D01*
X157012476Y-134296748D01*
X157143804Y-134484303D01*
X157305696Y-134646195D01*
X157493249Y-134777522D01*
X157700756Y-134874284D01*
X157760015Y-134890162D01*
X157921913Y-134933543D01*
X158150000Y-134953498D01*
X158378087Y-134933543D01*
X158599243Y-134874284D01*
X158806749Y-134777523D01*
X158994300Y-134646198D01*
X159156198Y-134484300D01*
X159287523Y-134296749D01*
X159384284Y-134089243D01*
X159429834Y-133919247D01*
X159466642Y-133858757D01*
X159530266Y-133827670D01*
X159600608Y-133835808D01*
X159655453Y-133880601D01*
X159677478Y-133947900D01*
X159678326Y-133974892D01*
X159683977Y-133994341D01*
X159687986Y-134013696D01*
X159690525Y-134033794D01*
X159706801Y-134074903D01*
X159710644Y-134086130D01*
X159722980Y-134128590D01*
X159733294Y-134146030D01*
X159741987Y-134163774D01*
X159749448Y-134182617D01*
X159749449Y-134182619D01*
X159775431Y-134218380D01*
X159781948Y-134228301D01*
X159804458Y-134266363D01*
X159818778Y-134280683D01*
X159831618Y-134295716D01*
X159843526Y-134312105D01*
X159843527Y-134312106D01*
X159843528Y-134312107D01*
X159849564Y-134317100D01*
X159877598Y-134340292D01*
X159886378Y-134348282D01*
X161289595Y-135751499D01*
X161316909Y-135792376D01*
X161326500Y-135840594D01*
X161326500Y-150936147D01*
X161324204Y-150956935D01*
X161326438Y-151027986D01*
X161326500Y-151031945D01*
X161326500Y-151059857D01*
X161327007Y-151063873D01*
X161327937Y-151075696D01*
X161329326Y-151119892D01*
X161334977Y-151139341D01*
X161338986Y-151158696D01*
X161341525Y-151178794D01*
X161341525Y-151178796D01*
X161341526Y-151178797D01*
X161347978Y-151195094D01*
X161357801Y-151219903D01*
X161361644Y-151231130D01*
X161373980Y-151273590D01*
X161384294Y-151291030D01*
X161392987Y-151308774D01*
X161394306Y-151312105D01*
X161400449Y-151327619D01*
X161426431Y-151363380D01*
X161432948Y-151373301D01*
X161455458Y-151411363D01*
X161469778Y-151425683D01*
X161482618Y-151440716D01*
X161494526Y-151457105D01*
X161528598Y-151485292D01*
X161537378Y-151493282D01*
X161880132Y-151836036D01*
X161912516Y-151891681D01*
X161913182Y-151956060D01*
X161885436Y-152065629D01*
X161885436Y-152065632D01*
X161866844Y-152290000D01*
X161885436Y-152514368D01*
X161885436Y-152514371D01*
X161885437Y-152514372D01*
X161940702Y-152732611D01*
X162031139Y-152938790D01*
X162154278Y-153127268D01*
X162297475Y-153282820D01*
X162326712Y-153336424D01*
X162327315Y-153397480D01*
X162299141Y-153451650D01*
X162248808Y-153486213D01*
X162222972Y-153495849D01*
X162133793Y-153529111D01*
X162016738Y-153616738D01*
X161929111Y-153733794D01*
X161878011Y-153870799D01*
X161871500Y-153931362D01*
X161871500Y-155240405D01*
X161861909Y-155288623D01*
X161834595Y-155329500D01*
X161480500Y-155683595D01*
X161439623Y-155710909D01*
X161391405Y-155720500D01*
X159348891Y-155720500D01*
X159283526Y-155702219D01*
X159237128Y-155652681D01*
X159223161Y-155586260D01*
X159245678Y-155522230D01*
X159277520Y-155476753D01*
X159277519Y-155476753D01*
X159277523Y-155476749D01*
X159374284Y-155269243D01*
X159433543Y-155048087D01*
X159453498Y-154820000D01*
X159433543Y-154591913D01*
X159374284Y-154370757D01*
X159277523Y-154163251D01*
X159146198Y-153975700D01*
X159146197Y-153975699D01*
X159146195Y-153975696D01*
X158984303Y-153813804D01*
X158796750Y-153682477D01*
X158589243Y-153585715D01*
X158368087Y-153526457D01*
X158140000Y-153506502D01*
X157911910Y-153526457D01*
X157848456Y-153543459D01*
X157783234Y-153543458D01*
X157726751Y-153510847D01*
X154865405Y-150649500D01*
X154838091Y-150608623D01*
X154828500Y-150560405D01*
X154828500Y-142537131D01*
X154844032Y-142476526D01*
X154886800Y-142430864D01*
X154946259Y-142411401D01*
X155007749Y-142422935D01*
X155033092Y-142434753D01*
X155160756Y-142494284D01*
X155220014Y-142510162D01*
X155381913Y-142553543D01*
X155610000Y-142573498D01*
X155838087Y-142553543D01*
X156059243Y-142494284D01*
X156176474Y-142439617D01*
X156226055Y-142427867D01*
X156276240Y-142436716D01*
X156318815Y-142464719D01*
X157314327Y-143460231D01*
X157343633Y-143506230D01*
X157350753Y-143560305D01*
X157334353Y-143612323D01*
X157303491Y-143646004D01*
X157303494Y-143646007D01*
X157303438Y-143646062D01*
X157297507Y-143652536D01*
X157295698Y-143653802D01*
X157133804Y-143815696D01*
X157002477Y-144003249D01*
X156905715Y-144210756D01*
X156846457Y-144431912D01*
X156826502Y-144659999D01*
X156846457Y-144888087D01*
X156905715Y-145109243D01*
X157002477Y-145316750D01*
X157133804Y-145504303D01*
X157295696Y-145666195D01*
X157483249Y-145797522D01*
X157690756Y-145894284D01*
X157750015Y-145910162D01*
X157911913Y-145953543D01*
X158140000Y-145973498D01*
X158368087Y-145953543D01*
X158589243Y-145894284D01*
X158796749Y-145797523D01*
X158984300Y-145666198D01*
X159146198Y-145504300D01*
X159277523Y-145316749D01*
X159374284Y-145109243D01*
X159433543Y-144888087D01*
X159453498Y-144660000D01*
X159433543Y-144431913D01*
X159374284Y-144210757D01*
X159277523Y-144003251D01*
X159146198Y-143815700D01*
X159146197Y-143815699D01*
X159146195Y-143815696D01*
X158984303Y-143653804D01*
X158915616Y-143605709D01*
X158829238Y-143545226D01*
X158790674Y-143501943D01*
X158775572Y-143445974D01*
X158773562Y-143382013D01*
X158773500Y-143378055D01*
X158773500Y-143350149D01*
X158773500Y-143350144D01*
X158772992Y-143346131D01*
X158772061Y-143334297D01*
X158771965Y-143331241D01*
X158770673Y-143290110D01*
X158765020Y-143270656D01*
X158761012Y-143251298D01*
X158758474Y-143231203D01*
X158742190Y-143190077D01*
X158738359Y-143178888D01*
X158726018Y-143136407D01*
X158715704Y-143118968D01*
X158707008Y-143101216D01*
X158699552Y-143082383D01*
X158673571Y-143046624D01*
X158667050Y-143036698D01*
X158644542Y-142998637D01*
X158639994Y-142994089D01*
X158630213Y-142984308D01*
X158617376Y-142969277D01*
X158605473Y-142952893D01*
X158571406Y-142924711D01*
X158562626Y-142916721D01*
X158391108Y-142745203D01*
X158358496Y-142688719D01*
X158358496Y-142623497D01*
X158391108Y-142567012D01*
X158447592Y-142534401D01*
X158599071Y-142493813D01*
X158806498Y-142397087D01*
X158993981Y-142265810D01*
X159155810Y-142103981D01*
X159287087Y-141916498D01*
X159383813Y-141709070D01*
X159443048Y-141487999D01*
X159458000Y-141317100D01*
X159458000Y-141114000D01*
X158022000Y-141114000D01*
X157959000Y-141097119D01*
X157912881Y-141051000D01*
X157896000Y-140988000D01*
X157896000Y-139173917D01*
X158403999Y-139173917D01*
X158404000Y-139173918D01*
X158404000Y-140606000D01*
X159458000Y-140606000D01*
X159458000Y-140402900D01*
X159443048Y-140232000D01*
X159383813Y-140010929D01*
X159287087Y-139803501D01*
X159155810Y-139616018D01*
X158993981Y-139454189D01*
X158806498Y-139322912D01*
X158599070Y-139226186D01*
X158403999Y-139173917D01*
X157896000Y-139173917D01*
X157700929Y-139226186D01*
X157493501Y-139322912D01*
X157306018Y-139454189D01*
X157144189Y-139616018D01*
X157012911Y-139803502D01*
X156994469Y-139843051D01*
X156947973Y-139896067D01*
X156880273Y-139915799D01*
X156812573Y-139896065D01*
X156766081Y-139843049D01*
X156747523Y-139803251D01*
X156616198Y-139615700D01*
X156616197Y-139615699D01*
X156616195Y-139615696D01*
X156454303Y-139453804D01*
X156266750Y-139322477D01*
X156059243Y-139225715D01*
X155838087Y-139166457D01*
X155610000Y-139146502D01*
X155381912Y-139166457D01*
X155160756Y-139225715D01*
X155007750Y-139297064D01*
X154946259Y-139308599D01*
X154886800Y-139289136D01*
X154844032Y-139243474D01*
X154828500Y-139182869D01*
X154828500Y-136988854D01*
X154830795Y-136968064D01*
X154828562Y-136897002D01*
X154828500Y-136893044D01*
X154828500Y-136865149D01*
X154828500Y-136865144D01*
X154827993Y-136861138D01*
X154827062Y-136849305D01*
X154825674Y-136805111D01*
X154820020Y-136785652D01*
X154816013Y-136766306D01*
X154813474Y-136746203D01*
X154797194Y-136705086D01*
X154793353Y-136693866D01*
X154781017Y-136651405D01*
X154770706Y-136633970D01*
X154762008Y-136616215D01*
X154754552Y-136597383D01*
X154728565Y-136561616D01*
X154722047Y-136551693D01*
X154699542Y-136513638D01*
X154685212Y-136499308D01*
X154672378Y-136484281D01*
X154660472Y-136467893D01*
X154660471Y-136467892D01*
X154626394Y-136439700D01*
X154617616Y-136431712D01*
X153311515Y-135125611D01*
X153278903Y-135069127D01*
X153278903Y-135003905D01*
X153311515Y-134947420D01*
X153367995Y-134914810D01*
X153519243Y-134874284D01*
X153726749Y-134777523D01*
X153914300Y-134646198D01*
X154076198Y-134484300D01*
X154207523Y-134296749D01*
X154226080Y-134256951D01*
X154272576Y-134203933D01*
X154340276Y-134184200D01*
X154407976Y-134203933D01*
X154454471Y-134256951D01*
X154472911Y-134296497D01*
X154604189Y-134483981D01*
X154766018Y-134645810D01*
X154953501Y-134777087D01*
X155160929Y-134873813D01*
X155356000Y-134926082D01*
X155356000Y-131553917D01*
X155160929Y-131606186D01*
X154953501Y-131702912D01*
X154766018Y-131834189D01*
X154604189Y-131996018D01*
X154472911Y-132183502D01*
X154454469Y-132223051D01*
X154407973Y-132276067D01*
X154340273Y-132295799D01*
X154272573Y-132276065D01*
X154226081Y-132223049D01*
X154207523Y-132183251D01*
X154076198Y-131995700D01*
X154076196Y-131995698D01*
X154076195Y-131995696D01*
X153914303Y-131833804D01*
X153892158Y-131818297D01*
X153757227Y-131723818D01*
X153717737Y-131678787D01*
X153703500Y-131620607D01*
X153703500Y-130639393D01*
X153717737Y-130581213D01*
X153757227Y-130536181D01*
X153914300Y-130426198D01*
X154076198Y-130264300D01*
X154207523Y-130076749D01*
X154304284Y-129869243D01*
X154363543Y-129648087D01*
X154383498Y-129420000D01*
X154363543Y-129191913D01*
X154316756Y-129017302D01*
X154304284Y-128970756D01*
X154207522Y-128763249D01*
X154076195Y-128575696D01*
X153914303Y-128413804D01*
X153726750Y-128282477D01*
X153519243Y-128185715D01*
X153298087Y-128126457D01*
X153070000Y-128106502D01*
X152841912Y-128126457D01*
X152620756Y-128185715D01*
X152413249Y-128282477D01*
X152225696Y-128413804D01*
X152063804Y-128575696D01*
X151932477Y-128763249D01*
X151835715Y-128970756D01*
X151780612Y-129176407D01*
X151776457Y-129191913D01*
X151756502Y-129420000D01*
X151762634Y-129490092D01*
X151776457Y-129648087D01*
X151835715Y-129869243D01*
X151932477Y-130076750D01*
X152063804Y-130264303D01*
X152225696Y-130426195D01*
X152225699Y-130426197D01*
X152225700Y-130426198D01*
X152382772Y-130536181D01*
X152422263Y-130581213D01*
X152436500Y-130639393D01*
X152436500Y-131620607D01*
X152422263Y-131678787D01*
X152382772Y-131723818D01*
X152342167Y-131752251D01*
X152225696Y-131833804D01*
X152063802Y-131995698D01*
X152061487Y-131999005D01*
X152015921Y-132038771D01*
X151957074Y-132052724D01*
X151898504Y-132037650D01*
X151853705Y-131997021D01*
X151832999Y-131940197D01*
X151832597Y-131936457D01*
X151831989Y-131930799D01*
X151780889Y-131793796D01*
X151780888Y-131793794D01*
X151693261Y-131676738D01*
X151576205Y-131589111D01*
X151449083Y-131541697D01*
X151439201Y-131538011D01*
X151378638Y-131531500D01*
X151289500Y-131531500D01*
X151226500Y-131514619D01*
X151180381Y-131468500D01*
X151163500Y-131405500D01*
X151163500Y-129513854D01*
X151165795Y-129493064D01*
X151163562Y-129422002D01*
X151163500Y-129418044D01*
X151163500Y-129390149D01*
X151163500Y-129390144D01*
X151162993Y-129386138D01*
X151162062Y-129374305D01*
X151162018Y-129372904D01*
X151160674Y-129330111D01*
X151155019Y-129310647D01*
X151151013Y-129291307D01*
X151148474Y-129271203D01*
X151132195Y-129230087D01*
X151128356Y-129218872D01*
X151116019Y-129176407D01*
X151105703Y-129158964D01*
X151097007Y-129141214D01*
X151089552Y-129122383D01*
X151063554Y-129086600D01*
X151057058Y-129076710D01*
X151034542Y-129038638D01*
X151020212Y-129024308D01*
X151007378Y-129009281D01*
X150995472Y-128992893D01*
X150995471Y-128992892D01*
X150961394Y-128964700D01*
X150952616Y-128956712D01*
X148650405Y-126654500D01*
X148623091Y-126613623D01*
X148613500Y-126565405D01*
X148613500Y-120479393D01*
X148627737Y-120421213D01*
X148667227Y-120376181D01*
X148824300Y-120266198D01*
X148986198Y-120104300D01*
X149117523Y-119916749D01*
X149214284Y-119709243D01*
X149273543Y-119488087D01*
X149293498Y-119260000D01*
X149293498Y-119259999D01*
X151756502Y-119259999D01*
X151776457Y-119488087D01*
X151835715Y-119709243D01*
X151932477Y-119916750D01*
X152063804Y-120104303D01*
X152225696Y-120266195D01*
X152225699Y-120266197D01*
X152225700Y-120266198D01*
X152287995Y-120309817D01*
X152413249Y-120397522D01*
X152620756Y-120494284D01*
X152658077Y-120504284D01*
X152841913Y-120553543D01*
X153070000Y-120573498D01*
X153298087Y-120553543D01*
X153519243Y-120494284D01*
X153726749Y-120397523D01*
X153914300Y-120266198D01*
X154076198Y-120104300D01*
X154207523Y-119916749D01*
X154304284Y-119709243D01*
X154363543Y-119488087D01*
X154383498Y-119260000D01*
X154363543Y-119031913D01*
X154320162Y-118870015D01*
X154304284Y-118810756D01*
X154207522Y-118603249D01*
X154119817Y-118477995D01*
X154076198Y-118415700D01*
X154076197Y-118415699D01*
X154076195Y-118415696D01*
X153914303Y-118253804D01*
X153726750Y-118122477D01*
X153519243Y-118025715D01*
X153298087Y-117966457D01*
X153070000Y-117946502D01*
X152841912Y-117966457D01*
X152620756Y-118025715D01*
X152413249Y-118122477D01*
X152225696Y-118253804D01*
X152063804Y-118415696D01*
X151932477Y-118603249D01*
X151835715Y-118810756D01*
X151776457Y-119031912D01*
X151756502Y-119259999D01*
X149293498Y-119259999D01*
X149273543Y-119031913D01*
X149230162Y-118870015D01*
X149214284Y-118810756D01*
X149117522Y-118603249D01*
X149029817Y-118477995D01*
X148986198Y-118415700D01*
X148986197Y-118415699D01*
X148986195Y-118415696D01*
X148824303Y-118253804D01*
X148636747Y-118122475D01*
X148605452Y-118107882D01*
X148558740Y-118070391D01*
X148534617Y-118015567D01*
X148538535Y-117955799D01*
X148569606Y-117904595D01*
X152523550Y-113950651D01*
X152538580Y-113937814D01*
X152549434Y-113929930D01*
X152593897Y-113880547D01*
X152598401Y-113875800D01*
X152612472Y-113861731D01*
X152624983Y-113846280D01*
X152629235Y-113841300D01*
X152673704Y-113791914D01*
X152680411Y-113780295D01*
X152691608Y-113764004D01*
X152700047Y-113753584D01*
X152730214Y-113694376D01*
X152733339Y-113688620D01*
X152766564Y-113631076D01*
X152770710Y-113618313D01*
X152778276Y-113600051D01*
X152784362Y-113588108D01*
X152801555Y-113523938D01*
X152803426Y-113517624D01*
X152823954Y-113454449D01*
X152825355Y-113441114D01*
X152828955Y-113421681D01*
X152832430Y-113408716D01*
X152835905Y-113342385D01*
X152836423Y-113335803D01*
X152837004Y-113330283D01*
X152838500Y-113316051D01*
X152838500Y-113296177D01*
X152838673Y-113289583D01*
X152839704Y-113269901D01*
X152842149Y-113223252D01*
X152840051Y-113210005D01*
X152838500Y-113190296D01*
X152838500Y-82674449D01*
X152840051Y-82654740D01*
X152840229Y-82653613D01*
X152842149Y-82641493D01*
X152838673Y-82575162D01*
X152838500Y-82568568D01*
X152838500Y-82548694D01*
X152836423Y-82528941D01*
X152835905Y-82522357D01*
X152832430Y-82456032D01*
X152832430Y-82456029D01*
X152828956Y-82443065D01*
X152825355Y-82423629D01*
X152823954Y-82410298D01*
X152803427Y-82347124D01*
X152801553Y-82340797D01*
X152789845Y-82297100D01*
X152784362Y-82276637D01*
X152778273Y-82264686D01*
X152770706Y-82246418D01*
X152766563Y-82233666D01*
X152733344Y-82176130D01*
X152730196Y-82170332D01*
X152700048Y-82111162D01*
X152691608Y-82100740D01*
X152680410Y-82084446D01*
X152673705Y-82072833D01*
X152673704Y-82072831D01*
X152629252Y-82023462D01*
X152624971Y-82018448D01*
X152612477Y-82003019D01*
X152612472Y-82003014D01*
X152598408Y-81988950D01*
X152593904Y-81984204D01*
X152549434Y-81934815D01*
X152549432Y-81934814D01*
X152549430Y-81934811D01*
X152538575Y-81926924D01*
X152523543Y-81914085D01*
X146799891Y-76190433D01*
X146770583Y-76144427D01*
X146764862Y-76100955D01*
X146764459Y-76100991D01*
X146763647Y-76091725D01*
X146763467Y-76090353D01*
X146763498Y-76090000D01*
X146763466Y-76089644D01*
X146763647Y-76088270D01*
X146764459Y-76079007D01*
X146764862Y-76079042D01*
X146770583Y-76035570D01*
X146799889Y-75989567D01*
X148558550Y-74230906D01*
X148573580Y-74218069D01*
X148584434Y-74210185D01*
X148628897Y-74160802D01*
X148633401Y-74156055D01*
X148647472Y-74141986D01*
X148659988Y-74126528D01*
X148664261Y-74121527D01*
X148708704Y-74072169D01*
X148715407Y-74060559D01*
X148726616Y-74044250D01*
X148735047Y-74033840D01*
X148765212Y-73974635D01*
X148768348Y-73968862D01*
X148776698Y-73954400D01*
X148801564Y-73911331D01*
X148805705Y-73898582D01*
X148813276Y-73880307D01*
X148815795Y-73875362D01*
X148819362Y-73868363D01*
X148836552Y-73804206D01*
X148838426Y-73797879D01*
X148858954Y-73734702D01*
X148860355Y-73721366D01*
X148863960Y-73701916D01*
X148870858Y-73676176D01*
X148872358Y-73676578D01*
X148877599Y-73654738D01*
X148903612Y-73616885D01*
X148996198Y-73524300D01*
X149127523Y-73336749D01*
X149146080Y-73296951D01*
X149192576Y-73243933D01*
X149260276Y-73224200D01*
X149327976Y-73243933D01*
G37*
G04 #@! TD.AperFunction*
G04 #@! TA.AperFunction,Conductor*
G36*
X151019561Y-94412407D02*
G01*
X151057767Y-94457140D01*
X151071500Y-94514343D01*
X151071500Y-112851597D01*
X151061909Y-112899815D01*
X151034595Y-112940692D01*
X145897449Y-118077836D01*
X145882420Y-118090674D01*
X145871565Y-118098560D01*
X145827121Y-118147920D01*
X145822589Y-118152696D01*
X145808529Y-118166757D01*
X145796010Y-118182215D01*
X145791735Y-118187219D01*
X145747297Y-118236574D01*
X145740588Y-118248194D01*
X145729395Y-118264480D01*
X145720953Y-118274905D01*
X145690800Y-118334082D01*
X145687654Y-118339875D01*
X145654435Y-118397413D01*
X145650287Y-118410177D01*
X145642728Y-118428425D01*
X145636639Y-118440376D01*
X145619445Y-118504547D01*
X145617571Y-118510870D01*
X145597045Y-118574042D01*
X145595643Y-118587382D01*
X145592043Y-118606811D01*
X145588569Y-118619776D01*
X145585092Y-118686113D01*
X145584575Y-118692680D01*
X145582500Y-118712433D01*
X145582500Y-118732300D01*
X145582327Y-118738894D01*
X145578850Y-118805237D01*
X145580949Y-118818491D01*
X145582500Y-118838200D01*
X145582500Y-140130084D01*
X145566702Y-140191170D01*
X145523270Y-140236938D01*
X145463094Y-140255911D01*
X145401265Y-140243332D01*
X145353287Y-140202354D01*
X145297100Y-140122110D01*
X145297098Y-140122110D01*
X144569210Y-140850000D01*
X144569210Y-140850001D01*
X145297097Y-141577888D01*
X145297099Y-141577888D01*
X145353411Y-141497468D01*
X145355250Y-141498755D01*
X145392024Y-141456824D01*
X145459724Y-141437091D01*
X145527424Y-141456824D01*
X145564378Y-141498962D01*
X145566154Y-141497719D01*
X145703804Y-141694303D01*
X145865696Y-141856195D01*
X146053249Y-141987522D01*
X146260756Y-142084284D01*
X146320015Y-142100162D01*
X146481913Y-142143543D01*
X146710000Y-142163498D01*
X146938087Y-142143543D01*
X147159243Y-142084284D01*
X147366749Y-141987523D01*
X147554300Y-141856198D01*
X147716198Y-141694300D01*
X147847523Y-141506749D01*
X147944284Y-141299243D01*
X148003543Y-141078087D01*
X148023498Y-140850000D01*
X148003543Y-140621913D01*
X147944858Y-140402900D01*
X147944284Y-140400756D01*
X147847522Y-140193249D01*
X147716195Y-140005696D01*
X147554303Y-139843804D01*
X147403229Y-139738020D01*
X147363737Y-139692987D01*
X147349500Y-139634807D01*
X147349500Y-130767543D01*
X147365033Y-130706938D01*
X147407801Y-130661275D01*
X147467261Y-130641813D01*
X147520033Y-130651713D01*
X147520109Y-130651431D01*
X147523799Y-130652419D01*
X147528751Y-130653348D01*
X147530757Y-130654284D01*
X147751913Y-130713543D01*
X147980000Y-130733498D01*
X148208087Y-130713543D01*
X148429243Y-130654284D01*
X148636749Y-130557523D01*
X148824300Y-130426198D01*
X148986198Y-130264300D01*
X149117523Y-130076749D01*
X149214284Y-129869243D01*
X149273543Y-129648087D01*
X149293498Y-129420000D01*
X149291972Y-129402569D01*
X149301509Y-129342355D01*
X149338198Y-129293667D01*
X149393451Y-129267902D01*
X149454332Y-129271093D01*
X149506588Y-129302492D01*
X149859595Y-129655499D01*
X149886909Y-129696376D01*
X149896500Y-129744594D01*
X149896500Y-131405500D01*
X149879619Y-131468500D01*
X149833500Y-131514619D01*
X149770500Y-131531500D01*
X149681362Y-131531500D01*
X149620799Y-131538011D01*
X149483794Y-131589111D01*
X149366738Y-131676738D01*
X149279111Y-131793794D01*
X149228011Y-131930799D01*
X149221500Y-131991362D01*
X149221500Y-134488638D01*
X149228011Y-134549200D01*
X149279111Y-134686205D01*
X149366738Y-134803261D01*
X149483794Y-134890888D01*
X149483795Y-134890888D01*
X149483796Y-134890889D01*
X149620799Y-134941989D01*
X149681362Y-134948500D01*
X151290406Y-134948500D01*
X151338624Y-134958091D01*
X151379501Y-134985405D01*
X153524595Y-137130499D01*
X153551909Y-137171376D01*
X153561500Y-137219594D01*
X153561500Y-139072832D01*
X153548506Y-139128560D01*
X153512204Y-139172795D01*
X153460081Y-139196411D01*
X153402889Y-139194539D01*
X153298087Y-139166457D01*
X153070000Y-139146502D01*
X152841912Y-139166457D01*
X152620756Y-139225715D01*
X152413249Y-139322477D01*
X152225696Y-139453804D01*
X152063804Y-139615696D01*
X151932477Y-139803250D01*
X151914195Y-139842457D01*
X151867700Y-139895474D01*
X151800000Y-139915207D01*
X151732300Y-139895474D01*
X151685805Y-139842457D01*
X151667640Y-139803502D01*
X151667523Y-139803251D01*
X151536198Y-139615700D01*
X151536197Y-139615699D01*
X151536195Y-139615696D01*
X151374303Y-139453804D01*
X151186750Y-139322477D01*
X150979243Y-139225715D01*
X150758087Y-139166457D01*
X150530000Y-139146502D01*
X150301912Y-139166457D01*
X150080756Y-139225715D01*
X149873249Y-139322477D01*
X149685696Y-139453804D01*
X149523804Y-139615696D01*
X149392477Y-139803249D01*
X149295715Y-140010756D01*
X149238786Y-140223220D01*
X149236457Y-140231913D01*
X149221500Y-140402873D01*
X149221500Y-141317127D01*
X149233722Y-141456824D01*
X149236457Y-141488087D01*
X149295715Y-141709243D01*
X149392477Y-141916750D01*
X149523804Y-142104303D01*
X149685696Y-142266195D01*
X149873249Y-142397522D01*
X150080756Y-142494284D01*
X150167958Y-142517649D01*
X150231998Y-142534809D01*
X150288482Y-142567421D01*
X150321094Y-142623905D01*
X150321094Y-142689127D01*
X150288482Y-142745611D01*
X149414799Y-143619294D01*
X149352487Y-143653319D01*
X149281672Y-143648255D01*
X149224836Y-143605709D01*
X149162528Y-143522477D01*
X149143261Y-143496739D01*
X149143259Y-143496738D01*
X149143259Y-143496737D01*
X149026205Y-143409111D01*
X148911845Y-143366457D01*
X148889201Y-143358011D01*
X148828638Y-143351500D01*
X147131362Y-143351500D01*
X147070799Y-143358011D01*
X146933794Y-143409111D01*
X146816738Y-143496738D01*
X146729111Y-143613794D01*
X146678011Y-143750799D01*
X146671500Y-143811362D01*
X146671500Y-145508638D01*
X146678011Y-145569200D01*
X146729111Y-145706205D01*
X146816738Y-145823261D01*
X146933794Y-145910888D01*
X146933795Y-145910888D01*
X146933796Y-145910889D01*
X147070799Y-145961989D01*
X147131362Y-145968500D01*
X148828638Y-145968500D01*
X148889201Y-145961989D01*
X149026204Y-145910889D01*
X149143261Y-145823261D01*
X149230889Y-145706204D01*
X149281989Y-145569201D01*
X149288500Y-145508638D01*
X149288500Y-145408922D01*
X149299935Y-145356473D01*
X149332165Y-145313544D01*
X149379340Y-145287927D01*
X149380759Y-145287514D01*
X149389333Y-145285023D01*
X149408698Y-145281012D01*
X149428797Y-145278474D01*
X149469915Y-145262193D01*
X149481117Y-145258357D01*
X149523593Y-145246018D01*
X149541039Y-145235699D01*
X149558780Y-145227009D01*
X149577617Y-145219552D01*
X149613392Y-145193558D01*
X149623303Y-145187048D01*
X149661362Y-145164542D01*
X149675691Y-145150212D01*
X149690719Y-145137377D01*
X149707107Y-145125472D01*
X149735303Y-145091386D01*
X149743272Y-145082630D01*
X152361185Y-142464717D01*
X152403758Y-142436716D01*
X152453943Y-142427867D01*
X152503526Y-142439618D01*
X152620757Y-142494284D01*
X152841913Y-142553543D01*
X153070000Y-142573498D01*
X153298087Y-142553543D01*
X153402889Y-142525460D01*
X153460081Y-142523589D01*
X153512204Y-142547205D01*
X153548506Y-142591440D01*
X153561500Y-142647168D01*
X153561500Y-143275512D01*
X153548506Y-143331241D01*
X153512204Y-143375475D01*
X153460081Y-143399091D01*
X153402888Y-143397218D01*
X153288091Y-143366457D01*
X153060000Y-143346502D01*
X152831912Y-143366457D01*
X152610756Y-143425715D01*
X152403249Y-143522477D01*
X152215696Y-143653804D01*
X152053804Y-143815696D01*
X151922477Y-144003249D01*
X151825715Y-144210756D01*
X151766457Y-144431912D01*
X151746502Y-144659999D01*
X151766457Y-144888087D01*
X151825715Y-145109243D01*
X151922477Y-145316750D01*
X152053804Y-145504303D01*
X152215696Y-145666195D01*
X152215699Y-145666197D01*
X152215700Y-145666198D01*
X152372772Y-145776181D01*
X152412263Y-145821213D01*
X152426500Y-145879393D01*
X152426500Y-146885406D01*
X152416909Y-146933624D01*
X152389595Y-146974501D01*
X148393246Y-150970847D01*
X148336762Y-151003459D01*
X148271540Y-151003459D01*
X148208087Y-150986457D01*
X147980000Y-150966502D01*
X147751912Y-150986457D01*
X147530756Y-151045715D01*
X147323249Y-151142477D01*
X147135696Y-151273804D01*
X146973804Y-151435696D01*
X146842477Y-151623249D01*
X146745715Y-151830756D01*
X146686457Y-152051912D01*
X146666502Y-152279999D01*
X146686457Y-152508087D01*
X146745715Y-152729243D01*
X146842477Y-152936750D01*
X146973804Y-153124303D01*
X147135696Y-153286195D01*
X147323249Y-153417522D01*
X147530756Y-153514284D01*
X147576187Y-153526457D01*
X147751913Y-153573543D01*
X147980000Y-153593498D01*
X148208087Y-153573543D01*
X148429243Y-153514284D01*
X148636749Y-153417523D01*
X148824300Y-153286198D01*
X148986198Y-153124300D01*
X149117523Y-152936749D01*
X149214284Y-152729243D01*
X149273543Y-152508087D01*
X149293498Y-152280000D01*
X149273543Y-152051913D01*
X149256539Y-151988457D01*
X149256539Y-151923235D01*
X149289149Y-151866753D01*
X153346404Y-147809499D01*
X153396564Y-147778761D01*
X153455211Y-147774145D01*
X153509561Y-147796658D01*
X153547767Y-147841391D01*
X153561500Y-147898594D01*
X153561500Y-150791147D01*
X153559204Y-150811935D01*
X153561438Y-150882986D01*
X153561500Y-150886945D01*
X153561500Y-150914857D01*
X153562007Y-150918873D01*
X153562937Y-150930696D01*
X153564326Y-150974892D01*
X153569977Y-150994341D01*
X153573986Y-151013696D01*
X153576525Y-151033794D01*
X153576525Y-151033796D01*
X153576526Y-151033797D01*
X153586843Y-151059856D01*
X153592801Y-151074903D01*
X153596644Y-151086130D01*
X153608980Y-151128590D01*
X153619294Y-151146030D01*
X153627987Y-151163774D01*
X153635448Y-151182617D01*
X153635449Y-151182619D01*
X153661431Y-151218380D01*
X153667948Y-151228301D01*
X153690458Y-151266363D01*
X153704778Y-151280683D01*
X153717618Y-151295716D01*
X153729526Y-151312105D01*
X153729527Y-151312106D01*
X153729528Y-151312107D01*
X153748279Y-151327619D01*
X153763598Y-151340292D01*
X153772378Y-151348282D01*
X156830847Y-154406751D01*
X156863458Y-154463234D01*
X156863459Y-154528456D01*
X156846457Y-154591910D01*
X156826502Y-154819999D01*
X156846457Y-155048087D01*
X156905715Y-155269243D01*
X157002479Y-155476753D01*
X157034322Y-155522230D01*
X157056839Y-155586260D01*
X157042872Y-155652681D01*
X156996474Y-155702219D01*
X156931109Y-155720500D01*
X154268891Y-155720500D01*
X154203526Y-155702219D01*
X154157128Y-155652681D01*
X154143161Y-155586260D01*
X154165678Y-155522230D01*
X154197520Y-155476753D01*
X154197519Y-155476753D01*
X154197523Y-155476749D01*
X154294284Y-155269243D01*
X154353543Y-155048087D01*
X154373498Y-154820000D01*
X154353543Y-154591913D01*
X154294284Y-154370757D01*
X154197523Y-154163251D01*
X154066198Y-153975700D01*
X154066197Y-153975699D01*
X154066195Y-153975696D01*
X153904303Y-153813804D01*
X153716750Y-153682477D01*
X153509243Y-153585715D01*
X153288087Y-153526457D01*
X153060000Y-153506502D01*
X152831912Y-153526457D01*
X152610756Y-153585715D01*
X152403249Y-153682477D01*
X152215696Y-153813804D01*
X152053804Y-153975696D01*
X151922477Y-154163249D01*
X151825715Y-154370756D01*
X151766457Y-154591912D01*
X151746502Y-154819999D01*
X151766457Y-155048087D01*
X151825715Y-155269243D01*
X151922479Y-155476753D01*
X151954322Y-155522230D01*
X151976839Y-155586260D01*
X151962872Y-155652681D01*
X151916474Y-155702219D01*
X151851109Y-155720500D01*
X148558594Y-155720500D01*
X148510376Y-155710909D01*
X148469499Y-155683595D01*
X144695405Y-151909500D01*
X144668091Y-151868623D01*
X144658500Y-151820405D01*
X144658500Y-151226793D01*
X144660732Y-151203181D01*
X144662275Y-151195094D01*
X144658748Y-151139048D01*
X144658500Y-151131137D01*
X144658500Y-151115146D01*
X144658500Y-151115144D01*
X144656494Y-151099269D01*
X144655751Y-151091400D01*
X144652225Y-151035350D01*
X144649678Y-151027513D01*
X144644505Y-151004368D01*
X144644390Y-151003459D01*
X144643474Y-150996203D01*
X144622800Y-150943986D01*
X144620119Y-150936539D01*
X144619992Y-150936147D01*
X144602764Y-150883125D01*
X144602676Y-150882986D01*
X144598350Y-150876169D01*
X144587583Y-150855038D01*
X144584551Y-150847381D01*
X144551544Y-150801950D01*
X144547095Y-150795404D01*
X144517000Y-150747982D01*
X144510992Y-150742340D01*
X144495309Y-150724551D01*
X144490471Y-150717892D01*
X144447201Y-150682096D01*
X144441264Y-150676862D01*
X144400322Y-150638415D01*
X144400321Y-150638414D01*
X144393099Y-150634443D01*
X144373488Y-150621115D01*
X144367144Y-150615866D01*
X144316328Y-150591954D01*
X144309278Y-150588361D01*
X144260062Y-150561305D01*
X144252078Y-150559255D01*
X144229774Y-150551225D01*
X144222317Y-150547716D01*
X144167154Y-150537193D01*
X144159432Y-150535467D01*
X144105030Y-150521500D01*
X144096793Y-150521500D01*
X144073184Y-150519268D01*
X144069824Y-150518627D01*
X144065091Y-150517724D01*
X144009049Y-150521251D01*
X144001137Y-150521500D01*
X143359594Y-150521500D01*
X143311376Y-150511909D01*
X143270499Y-150484595D01*
X137445904Y-144659999D01*
X141586502Y-144659999D01*
X141606457Y-144888087D01*
X141665715Y-145109243D01*
X141762477Y-145316750D01*
X141893804Y-145504303D01*
X142055696Y-145666195D01*
X142243249Y-145797522D01*
X142450756Y-145894284D01*
X142510015Y-145910162D01*
X142671913Y-145953543D01*
X142900000Y-145973498D01*
X143128087Y-145953543D01*
X143349243Y-145894284D01*
X143556749Y-145797523D01*
X143744300Y-145666198D01*
X143906198Y-145504300D01*
X144037523Y-145316749D01*
X144134284Y-145109243D01*
X144193543Y-144888087D01*
X144213498Y-144660000D01*
X144193543Y-144431913D01*
X144134284Y-144210757D01*
X144037523Y-144003251D01*
X143906198Y-143815700D01*
X143906197Y-143815699D01*
X143906195Y-143815696D01*
X143744303Y-143653804D01*
X143556750Y-143522477D01*
X143349243Y-143425715D01*
X143128087Y-143366457D01*
X142900000Y-143346502D01*
X142671912Y-143366457D01*
X142450756Y-143425715D01*
X142243249Y-143522477D01*
X142055696Y-143653804D01*
X141893804Y-143815696D01*
X141762477Y-144003249D01*
X141665715Y-144210756D01*
X141606457Y-144431912D01*
X141586502Y-144659999D01*
X137445904Y-144659999D01*
X134723005Y-141937100D01*
X143482110Y-141937100D01*
X143553497Y-141987085D01*
X143760929Y-142083813D01*
X143982000Y-142143048D01*
X144210000Y-142162995D01*
X144437999Y-142143048D01*
X144659070Y-142083813D01*
X144866498Y-141987087D01*
X144937888Y-141937099D01*
X144937888Y-141937097D01*
X144210001Y-141209210D01*
X144210000Y-141209210D01*
X143482110Y-141937098D01*
X143482110Y-141937100D01*
X134723005Y-141937100D01*
X133635905Y-140850000D01*
X142897004Y-140850000D01*
X142916951Y-141077999D01*
X142976186Y-141299070D01*
X143072912Y-141506497D01*
X143122900Y-141577887D01*
X143850790Y-140850000D01*
X143850790Y-140849999D01*
X143122900Y-140122109D01*
X143072913Y-140193499D01*
X142976186Y-140400929D01*
X142916951Y-140622000D01*
X142897004Y-140850000D01*
X133635905Y-140850000D01*
X133170405Y-140384500D01*
X133143091Y-140343623D01*
X133133500Y-140295405D01*
X133133500Y-139762900D01*
X143482109Y-139762900D01*
X144209999Y-140490790D01*
X144210000Y-140490790D01*
X144937888Y-139762899D01*
X144866497Y-139712912D01*
X144659070Y-139616186D01*
X144437999Y-139556951D01*
X144210000Y-139537004D01*
X143982000Y-139556951D01*
X143760929Y-139616186D01*
X143553499Y-139712913D01*
X143482109Y-139762900D01*
X133133500Y-139762900D01*
X133133500Y-115637088D01*
X133152813Y-115570052D01*
X133204831Y-115523566D01*
X133341604Y-115457700D01*
X133549462Y-115315984D01*
X133733878Y-115144872D01*
X133890731Y-114948184D01*
X134016517Y-114730316D01*
X134108427Y-114496134D01*
X134164407Y-114250869D01*
X134183207Y-114000000D01*
X134164407Y-113749131D01*
X134108427Y-113503866D01*
X134016517Y-113269684D01*
X133890731Y-113051816D01*
X133733878Y-112855128D01*
X133549462Y-112684016D01*
X133341604Y-112542300D01*
X133341603Y-112542299D01*
X133341601Y-112542298D01*
X133114947Y-112433148D01*
X133114945Y-112433147D01*
X133111131Y-112431970D01*
X133056713Y-112398129D01*
X133025978Y-112341898D01*
X133026877Y-112277821D01*
X133059176Y-112222476D01*
X150856404Y-94425248D01*
X150906564Y-94394510D01*
X150965211Y-94389894D01*
X151019561Y-94412407D01*
G37*
G04 #@! TD.AperFunction*
G04 #@! TA.AperFunction,Conductor*
G36*
X145641000Y-72042881D02*
G01*
X145687119Y-72089000D01*
X145704000Y-72152000D01*
X145704000Y-73966082D01*
X145899070Y-73913813D01*
X146106499Y-73817087D01*
X146150797Y-73786069D01*
X146208440Y-73764133D01*
X146269588Y-73772183D01*
X146319590Y-73808289D01*
X146346466Y-73863801D01*
X146343776Y-73925418D01*
X146312164Y-73978376D01*
X145550433Y-74740107D01*
X145504437Y-74769411D01*
X145460945Y-74775139D01*
X145460981Y-74775542D01*
X145451778Y-74776347D01*
X145450367Y-74776533D01*
X145450010Y-74776501D01*
X145221912Y-74796457D01*
X145000756Y-74855715D01*
X144793249Y-74952477D01*
X144605696Y-75083804D01*
X144443804Y-75245696D01*
X144312477Y-75433249D01*
X144215715Y-75640756D01*
X144156457Y-75861912D01*
X144136502Y-76090000D01*
X144156457Y-76318087D01*
X144215715Y-76539243D01*
X144312477Y-76746750D01*
X144443804Y-76934303D01*
X144605696Y-77096195D01*
X144605699Y-77096197D01*
X144605700Y-77096198D01*
X144661072Y-77134970D01*
X144802281Y-77233846D01*
X144801037Y-77235621D01*
X144843175Y-77272574D01*
X144862909Y-77340272D01*
X144843179Y-77407971D01*
X144801243Y-77444751D01*
X144802531Y-77446590D01*
X144722109Y-77502899D01*
X145450000Y-78230789D01*
X145450000Y-78230790D01*
X146537097Y-79317888D01*
X146537099Y-79317888D01*
X146587087Y-79246498D01*
X146683813Y-79039069D01*
X146725763Y-78882508D01*
X146758374Y-78826023D01*
X146814858Y-78793411D01*
X146880081Y-78793411D01*
X146936565Y-78826023D01*
X151034595Y-82924053D01*
X151061909Y-82964930D01*
X151071500Y-83013148D01*
X151071500Y-84886229D01*
X151058506Y-84941957D01*
X151022204Y-84986191D01*
X150970081Y-85009808D01*
X150912889Y-85007936D01*
X150758087Y-84966457D01*
X150530000Y-84946502D01*
X150301912Y-84966457D01*
X150080756Y-85025715D01*
X149873249Y-85122477D01*
X149685696Y-85253804D01*
X149523804Y-85415696D01*
X149392477Y-85603249D01*
X149295715Y-85810756D01*
X149236457Y-86031912D01*
X149216502Y-86259999D01*
X149236457Y-86488087D01*
X149295715Y-86709243D01*
X149392477Y-86916750D01*
X149523804Y-87104303D01*
X149685696Y-87266195D01*
X149685699Y-87266197D01*
X149685700Y-87266198D01*
X149842772Y-87376181D01*
X149882263Y-87421213D01*
X149896500Y-87479393D01*
X149896500Y-93541155D01*
X149886909Y-93589373D01*
X149859595Y-93630250D01*
X129398485Y-114091358D01*
X129346525Y-114122667D01*
X129285956Y-114126065D01*
X129230820Y-114100765D01*
X129193896Y-114052633D01*
X129186527Y-114009220D01*
X129183912Y-114009416D01*
X129183206Y-114000004D01*
X129183207Y-114000000D01*
X129164407Y-113749131D01*
X129108427Y-113503866D01*
X129077575Y-113425258D01*
X129068876Y-113377655D01*
X129078760Y-113330283D01*
X129105768Y-113290134D01*
X139633658Y-102762244D01*
X139649979Y-102749170D01*
X139652014Y-102747002D01*
X139652018Y-102747000D01*
X139698677Y-102697311D01*
X139701368Y-102694534D01*
X139721134Y-102674770D01*
X139723605Y-102671583D01*
X139731312Y-102662559D01*
X139761586Y-102630321D01*
X139771343Y-102612570D01*
X139782199Y-102596043D01*
X139794613Y-102580041D01*
X139812172Y-102539461D01*
X139817392Y-102528809D01*
X139838694Y-102490061D01*
X139838695Y-102490060D01*
X139843732Y-102470439D01*
X139850138Y-102451730D01*
X139858181Y-102433144D01*
X139865096Y-102389481D01*
X139867504Y-102377853D01*
X139878500Y-102335029D01*
X139878500Y-102314776D01*
X139880051Y-102295066D01*
X139883220Y-102275057D01*
X139879059Y-102231039D01*
X139878500Y-102219181D01*
X139878500Y-87637168D01*
X139891494Y-87581440D01*
X139927796Y-87537205D01*
X139979919Y-87513589D01*
X140037110Y-87515460D01*
X140141913Y-87543543D01*
X140370000Y-87563498D01*
X140598087Y-87543543D01*
X140819243Y-87484284D01*
X141026749Y-87387523D01*
X141214300Y-87256198D01*
X141376198Y-87094300D01*
X141507523Y-86906749D01*
X141604284Y-86699243D01*
X141663543Y-86478087D01*
X141683498Y-86250000D01*
X141663543Y-86021913D01*
X141646539Y-85958457D01*
X141646539Y-85893235D01*
X141679149Y-85836753D01*
X142173658Y-85342244D01*
X142189979Y-85329170D01*
X142192014Y-85327002D01*
X142192018Y-85327000D01*
X142238677Y-85277311D01*
X142241368Y-85274534D01*
X142261134Y-85254770D01*
X142263605Y-85251583D01*
X142271312Y-85242559D01*
X142301586Y-85210321D01*
X142311343Y-85192570D01*
X142322199Y-85176043D01*
X142334613Y-85160041D01*
X142352172Y-85119461D01*
X142357392Y-85108809D01*
X142378694Y-85070061D01*
X142378695Y-85070060D01*
X142383732Y-85050439D01*
X142390138Y-85031730D01*
X142397068Y-85015716D01*
X142398181Y-85013145D01*
X142405096Y-84969477D01*
X142407504Y-84957853D01*
X142418500Y-84915030D01*
X142418500Y-84894776D01*
X142420051Y-84875066D01*
X142423220Y-84855057D01*
X142419059Y-84811039D01*
X142418500Y-84799181D01*
X142418500Y-79677100D01*
X144722110Y-79677100D01*
X144793497Y-79727085D01*
X145000929Y-79823813D01*
X145222000Y-79883048D01*
X145450000Y-79902995D01*
X145677999Y-79883048D01*
X145899070Y-79823813D01*
X146106498Y-79727087D01*
X146177888Y-79677099D01*
X146177888Y-79677097D01*
X145450001Y-78949210D01*
X145450000Y-78949210D01*
X144722110Y-79677098D01*
X144722110Y-79677100D01*
X142418500Y-79677100D01*
X142418500Y-78589999D01*
X144137004Y-78589999D01*
X144156951Y-78817999D01*
X144216186Y-79039070D01*
X144312912Y-79246497D01*
X144362900Y-79317887D01*
X145090790Y-78590000D01*
X145090790Y-78589999D01*
X144362900Y-77862109D01*
X144312913Y-77933499D01*
X144216186Y-78140929D01*
X144156951Y-78362000D01*
X144137004Y-78589999D01*
X142418500Y-78589999D01*
X142418500Y-74067168D01*
X142431494Y-74011440D01*
X142467796Y-73967205D01*
X142519919Y-73943589D01*
X142577110Y-73945460D01*
X142681913Y-73973543D01*
X142910000Y-73993498D01*
X143138087Y-73973543D01*
X143359243Y-73914284D01*
X143566749Y-73817523D01*
X143754300Y-73686198D01*
X143916198Y-73524300D01*
X144047523Y-73336749D01*
X144066080Y-73296951D01*
X144112576Y-73243933D01*
X144180276Y-73224200D01*
X144247976Y-73243933D01*
X144294471Y-73296951D01*
X144312911Y-73336497D01*
X144444189Y-73523981D01*
X144606018Y-73685810D01*
X144793501Y-73817087D01*
X145000929Y-73913813D01*
X145196000Y-73966082D01*
X145196000Y-72152000D01*
X145212881Y-72089000D01*
X145259000Y-72042881D01*
X145322000Y-72026000D01*
X145578000Y-72026000D01*
X145641000Y-72042881D01*
G37*
G04 #@! TD.AperFunction*
G04 #@! TD*
M02*
