G04 #@! TF.GenerationSoftware,KiCad,Pcbnew,7.0.1-3b83917a11~171~ubuntu22.04.1*
G04 #@! TF.CreationDate,2023-03-12T10:58:29-04:00*
G04 #@! TF.ProjectId,pmf_B2,706d665f-4232-42e6-9b69-6361645f7063,rev?*
G04 #@! TF.SameCoordinates,Original*
G04 #@! TF.FileFunction,Legend,Bot*
G04 #@! TF.FilePolarity,Positive*
%FSLAX46Y46*%
G04 Gerber Fmt 4.6, Leading zero omitted, Abs format (unit mm)*
G04 Created by KiCad (PCBNEW 7.0.1-3b83917a11~171~ubuntu22.04.1) date 2023-03-12 10:58:29*
%MOMM*%
%LPD*%
G01*
G04 APERTURE LIST*
%ADD10C,0.150000*%
%ADD11C,0.120000*%
G04 APERTURE END LIST*
D10*
X105932380Y-89329761D02*
X104932380Y-88996428D01*
X104932380Y-88996428D02*
X105932380Y-88663095D01*
X105980000Y-87615476D02*
X104694285Y-88472618D01*
X104932380Y-87139285D02*
X104980000Y-87234523D01*
X104980000Y-87234523D02*
X105027619Y-87282142D01*
X105027619Y-87282142D02*
X105122857Y-87329761D01*
X105122857Y-87329761D02*
X105408571Y-87329761D01*
X105408571Y-87329761D02*
X105503809Y-87282142D01*
X105503809Y-87282142D02*
X105551428Y-87234523D01*
X105551428Y-87234523D02*
X105599047Y-87139285D01*
X105599047Y-87139285D02*
X105599047Y-86996428D01*
X105599047Y-86996428D02*
X105551428Y-86901190D01*
X105551428Y-86901190D02*
X105503809Y-86853571D01*
X105503809Y-86853571D02*
X105408571Y-86805952D01*
X105408571Y-86805952D02*
X105122857Y-86805952D01*
X105122857Y-86805952D02*
X105027619Y-86853571D01*
X105027619Y-86853571D02*
X104980000Y-86901190D01*
X104980000Y-86901190D02*
X104932380Y-86996428D01*
X104932380Y-86996428D02*
X104932380Y-87139285D01*
X104980000Y-85948809D02*
X104932380Y-86044047D01*
X104932380Y-86044047D02*
X104932380Y-86234523D01*
X104932380Y-86234523D02*
X104980000Y-86329761D01*
X104980000Y-86329761D02*
X105027619Y-86377380D01*
X105027619Y-86377380D02*
X105122857Y-86424999D01*
X105122857Y-86424999D02*
X105408571Y-86424999D01*
X105408571Y-86424999D02*
X105503809Y-86377380D01*
X105503809Y-86377380D02*
X105551428Y-86329761D01*
X105551428Y-86329761D02*
X105599047Y-86234523D01*
X105599047Y-86234523D02*
X105599047Y-86044047D01*
X105599047Y-86044047D02*
X105551428Y-85948809D01*
X105599047Y-85663094D02*
X105599047Y-85282142D01*
X105932380Y-85520237D02*
X105075238Y-85520237D01*
X105075238Y-85520237D02*
X104980000Y-85472618D01*
X104980000Y-85472618D02*
X104932380Y-85377380D01*
X104932380Y-85377380D02*
X104932380Y-85282142D01*
X105599047Y-84329760D02*
X105599047Y-83948808D01*
X105932380Y-84186903D02*
X105075238Y-84186903D01*
X105075238Y-84186903D02*
X104980000Y-84139284D01*
X104980000Y-84139284D02*
X104932380Y-84044046D01*
X104932380Y-84044046D02*
X104932380Y-83948808D01*
X104932380Y-83615474D02*
X105599047Y-83615474D01*
X105408571Y-83615474D02*
X105503809Y-83567855D01*
X105503809Y-83567855D02*
X105551428Y-83520236D01*
X105551428Y-83520236D02*
X105599047Y-83424998D01*
X105599047Y-83424998D02*
X105599047Y-83329760D01*
X104932380Y-82996426D02*
X105599047Y-82996426D01*
X105932380Y-82996426D02*
X105884761Y-83044045D01*
X105884761Y-83044045D02*
X105837142Y-82996426D01*
X105837142Y-82996426D02*
X105884761Y-82948807D01*
X105884761Y-82948807D02*
X105932380Y-82996426D01*
X105932380Y-82996426D02*
X105837142Y-82996426D01*
X104932380Y-82520236D02*
X105599047Y-82520236D01*
X105503809Y-82520236D02*
X105551428Y-82472617D01*
X105551428Y-82472617D02*
X105599047Y-82377379D01*
X105599047Y-82377379D02*
X105599047Y-82234522D01*
X105599047Y-82234522D02*
X105551428Y-82139284D01*
X105551428Y-82139284D02*
X105456190Y-82091665D01*
X105456190Y-82091665D02*
X104932380Y-82091665D01*
X105456190Y-82091665D02*
X105551428Y-82044046D01*
X105551428Y-82044046D02*
X105599047Y-81948808D01*
X105599047Y-81948808D02*
X105599047Y-81805951D01*
X105599047Y-81805951D02*
X105551428Y-81710712D01*
X105551428Y-81710712D02*
X105456190Y-81663093D01*
X105456190Y-81663093D02*
X104932380Y-81663093D01*
X179428571Y-150377619D02*
X179761904Y-149901428D01*
X179999999Y-150377619D02*
X179999999Y-149377619D01*
X179999999Y-149377619D02*
X179619047Y-149377619D01*
X179619047Y-149377619D02*
X179523809Y-149425238D01*
X179523809Y-149425238D02*
X179476190Y-149472857D01*
X179476190Y-149472857D02*
X179428571Y-149568095D01*
X179428571Y-149568095D02*
X179428571Y-149710952D01*
X179428571Y-149710952D02*
X179476190Y-149806190D01*
X179476190Y-149806190D02*
X179523809Y-149853809D01*
X179523809Y-149853809D02*
X179619047Y-149901428D01*
X179619047Y-149901428D02*
X179999999Y-149901428D01*
X178999999Y-149853809D02*
X178666666Y-149853809D01*
X178523809Y-150377619D02*
X178999999Y-150377619D01*
X178999999Y-150377619D02*
X178999999Y-149377619D01*
X178999999Y-149377619D02*
X178523809Y-149377619D01*
X178142856Y-150330000D02*
X177999999Y-150377619D01*
X177999999Y-150377619D02*
X177761904Y-150377619D01*
X177761904Y-150377619D02*
X177666666Y-150330000D01*
X177666666Y-150330000D02*
X177619047Y-150282380D01*
X177619047Y-150282380D02*
X177571428Y-150187142D01*
X177571428Y-150187142D02*
X177571428Y-150091904D01*
X177571428Y-150091904D02*
X177619047Y-149996666D01*
X177619047Y-149996666D02*
X177666666Y-149949047D01*
X177666666Y-149949047D02*
X177761904Y-149901428D01*
X177761904Y-149901428D02*
X177952380Y-149853809D01*
X177952380Y-149853809D02*
X178047618Y-149806190D01*
X178047618Y-149806190D02*
X178095237Y-149758571D01*
X178095237Y-149758571D02*
X178142856Y-149663333D01*
X178142856Y-149663333D02*
X178142856Y-149568095D01*
X178142856Y-149568095D02*
X178095237Y-149472857D01*
X178095237Y-149472857D02*
X178047618Y-149425238D01*
X178047618Y-149425238D02*
X177952380Y-149377619D01*
X177952380Y-149377619D02*
X177714285Y-149377619D01*
X177714285Y-149377619D02*
X177571428Y-149425238D01*
X175809523Y-150282380D02*
X175857142Y-150330000D01*
X175857142Y-150330000D02*
X175999999Y-150377619D01*
X175999999Y-150377619D02*
X176095237Y-150377619D01*
X176095237Y-150377619D02*
X176238094Y-150330000D01*
X176238094Y-150330000D02*
X176333332Y-150234761D01*
X176333332Y-150234761D02*
X176380951Y-150139523D01*
X176380951Y-150139523D02*
X176428570Y-149949047D01*
X176428570Y-149949047D02*
X176428570Y-149806190D01*
X176428570Y-149806190D02*
X176380951Y-149615714D01*
X176380951Y-149615714D02*
X176333332Y-149520476D01*
X176333332Y-149520476D02*
X176238094Y-149425238D01*
X176238094Y-149425238D02*
X176095237Y-149377619D01*
X176095237Y-149377619D02*
X175999999Y-149377619D01*
X175999999Y-149377619D02*
X175857142Y-149425238D01*
X175857142Y-149425238D02*
X175809523Y-149472857D01*
X175523808Y-149377619D02*
X175190475Y-150377619D01*
X175190475Y-150377619D02*
X174857142Y-149377619D01*
X151404762Y-101877619D02*
X151404762Y-100877619D01*
X151404762Y-100877619D02*
X151023810Y-100877619D01*
X151023810Y-100877619D02*
X150928572Y-100925238D01*
X150928572Y-100925238D02*
X150880953Y-100972857D01*
X150880953Y-100972857D02*
X150833334Y-101068095D01*
X150833334Y-101068095D02*
X150833334Y-101210952D01*
X150833334Y-101210952D02*
X150880953Y-101306190D01*
X150880953Y-101306190D02*
X150928572Y-101353809D01*
X150928572Y-101353809D02*
X151023810Y-101401428D01*
X151023810Y-101401428D02*
X151404762Y-101401428D01*
X150261905Y-101877619D02*
X150357143Y-101830000D01*
X150357143Y-101830000D02*
X150404762Y-101782380D01*
X150404762Y-101782380D02*
X150452381Y-101687142D01*
X150452381Y-101687142D02*
X150452381Y-101401428D01*
X150452381Y-101401428D02*
X150404762Y-101306190D01*
X150404762Y-101306190D02*
X150357143Y-101258571D01*
X150357143Y-101258571D02*
X150261905Y-101210952D01*
X150261905Y-101210952D02*
X150119048Y-101210952D01*
X150119048Y-101210952D02*
X150023810Y-101258571D01*
X150023810Y-101258571D02*
X149976191Y-101306190D01*
X149976191Y-101306190D02*
X149928572Y-101401428D01*
X149928572Y-101401428D02*
X149928572Y-101687142D01*
X149928572Y-101687142D02*
X149976191Y-101782380D01*
X149976191Y-101782380D02*
X150023810Y-101830000D01*
X150023810Y-101830000D02*
X150119048Y-101877619D01*
X150119048Y-101877619D02*
X150261905Y-101877619D01*
X149642857Y-101210952D02*
X149261905Y-101210952D01*
X149500000Y-100877619D02*
X149500000Y-101734761D01*
X149500000Y-101734761D02*
X149452381Y-101830000D01*
X149452381Y-101830000D02*
X149357143Y-101877619D01*
X149357143Y-101877619D02*
X149261905Y-101877619D01*
X148976190Y-101830000D02*
X148880952Y-101877619D01*
X148880952Y-101877619D02*
X148690476Y-101877619D01*
X148690476Y-101877619D02*
X148595238Y-101830000D01*
X148595238Y-101830000D02*
X148547619Y-101734761D01*
X148547619Y-101734761D02*
X148547619Y-101687142D01*
X148547619Y-101687142D02*
X148595238Y-101591904D01*
X148595238Y-101591904D02*
X148690476Y-101544285D01*
X148690476Y-101544285D02*
X148833333Y-101544285D01*
X148833333Y-101544285D02*
X148928571Y-101496666D01*
X148928571Y-101496666D02*
X148976190Y-101401428D01*
X148976190Y-101401428D02*
X148976190Y-101353809D01*
X148976190Y-101353809D02*
X148928571Y-101258571D01*
X148928571Y-101258571D02*
X148833333Y-101210952D01*
X148833333Y-101210952D02*
X148690476Y-101210952D01*
X148690476Y-101210952D02*
X148595238Y-101258571D01*
X147357142Y-101877619D02*
X147357142Y-100877619D01*
X147357142Y-101258571D02*
X147261904Y-101210952D01*
X147261904Y-101210952D02*
X147071428Y-101210952D01*
X147071428Y-101210952D02*
X146976190Y-101258571D01*
X146976190Y-101258571D02*
X146928571Y-101306190D01*
X146928571Y-101306190D02*
X146880952Y-101401428D01*
X146880952Y-101401428D02*
X146880952Y-101687142D01*
X146880952Y-101687142D02*
X146928571Y-101782380D01*
X146928571Y-101782380D02*
X146976190Y-101830000D01*
X146976190Y-101830000D02*
X147071428Y-101877619D01*
X147071428Y-101877619D02*
X147261904Y-101877619D01*
X147261904Y-101877619D02*
X147357142Y-101830000D01*
X146309523Y-101877619D02*
X146404761Y-101830000D01*
X146404761Y-101830000D02*
X146452380Y-101782380D01*
X146452380Y-101782380D02*
X146499999Y-101687142D01*
X146499999Y-101687142D02*
X146499999Y-101401428D01*
X146499999Y-101401428D02*
X146452380Y-101306190D01*
X146452380Y-101306190D02*
X146404761Y-101258571D01*
X146404761Y-101258571D02*
X146309523Y-101210952D01*
X146309523Y-101210952D02*
X146166666Y-101210952D01*
X146166666Y-101210952D02*
X146071428Y-101258571D01*
X146071428Y-101258571D02*
X146023809Y-101306190D01*
X146023809Y-101306190D02*
X145976190Y-101401428D01*
X145976190Y-101401428D02*
X145976190Y-101687142D01*
X145976190Y-101687142D02*
X146023809Y-101782380D01*
X146023809Y-101782380D02*
X146071428Y-101830000D01*
X146071428Y-101830000D02*
X146166666Y-101877619D01*
X146166666Y-101877619D02*
X146309523Y-101877619D01*
X145119047Y-101877619D02*
X145119047Y-101353809D01*
X145119047Y-101353809D02*
X145166666Y-101258571D01*
X145166666Y-101258571D02*
X145261904Y-101210952D01*
X145261904Y-101210952D02*
X145452380Y-101210952D01*
X145452380Y-101210952D02*
X145547618Y-101258571D01*
X145119047Y-101830000D02*
X145214285Y-101877619D01*
X145214285Y-101877619D02*
X145452380Y-101877619D01*
X145452380Y-101877619D02*
X145547618Y-101830000D01*
X145547618Y-101830000D02*
X145595237Y-101734761D01*
X145595237Y-101734761D02*
X145595237Y-101639523D01*
X145595237Y-101639523D02*
X145547618Y-101544285D01*
X145547618Y-101544285D02*
X145452380Y-101496666D01*
X145452380Y-101496666D02*
X145214285Y-101496666D01*
X145214285Y-101496666D02*
X145119047Y-101449047D01*
X144642856Y-101877619D02*
X144642856Y-101210952D01*
X144642856Y-101401428D02*
X144595237Y-101306190D01*
X144595237Y-101306190D02*
X144547618Y-101258571D01*
X144547618Y-101258571D02*
X144452380Y-101210952D01*
X144452380Y-101210952D02*
X144357142Y-101210952D01*
X143595237Y-101877619D02*
X143595237Y-100877619D01*
X143595237Y-101830000D02*
X143690475Y-101877619D01*
X143690475Y-101877619D02*
X143880951Y-101877619D01*
X143880951Y-101877619D02*
X143976189Y-101830000D01*
X143976189Y-101830000D02*
X144023808Y-101782380D01*
X144023808Y-101782380D02*
X144071427Y-101687142D01*
X144071427Y-101687142D02*
X144071427Y-101401428D01*
X144071427Y-101401428D02*
X144023808Y-101306190D01*
X144023808Y-101306190D02*
X143976189Y-101258571D01*
X143976189Y-101258571D02*
X143880951Y-101210952D01*
X143880951Y-101210952D02*
X143690475Y-101210952D01*
X143690475Y-101210952D02*
X143595237Y-101258571D01*
X131261904Y-64853809D02*
X131595237Y-64853809D01*
X131595237Y-65377619D02*
X131595237Y-64377619D01*
X131595237Y-64377619D02*
X131119047Y-64377619D01*
X130166666Y-65377619D02*
X130499999Y-64901428D01*
X130738094Y-65377619D02*
X130738094Y-64377619D01*
X130738094Y-64377619D02*
X130357142Y-64377619D01*
X130357142Y-64377619D02*
X130261904Y-64425238D01*
X130261904Y-64425238D02*
X130214285Y-64472857D01*
X130214285Y-64472857D02*
X130166666Y-64568095D01*
X130166666Y-64568095D02*
X130166666Y-64710952D01*
X130166666Y-64710952D02*
X130214285Y-64806190D01*
X130214285Y-64806190D02*
X130261904Y-64853809D01*
X130261904Y-64853809D02*
X130357142Y-64901428D01*
X130357142Y-64901428D02*
X130738094Y-64901428D01*
X129738094Y-64853809D02*
X129404761Y-64853809D01*
X129261904Y-65377619D02*
X129738094Y-65377619D01*
X129738094Y-65377619D02*
X129738094Y-64377619D01*
X129738094Y-64377619D02*
X129261904Y-64377619D01*
X128166666Y-65472857D02*
X128261904Y-65425238D01*
X128261904Y-65425238D02*
X128357142Y-65330000D01*
X128357142Y-65330000D02*
X128499999Y-65187142D01*
X128499999Y-65187142D02*
X128595237Y-65139523D01*
X128595237Y-65139523D02*
X128690475Y-65139523D01*
X128642856Y-65377619D02*
X128738094Y-65330000D01*
X128738094Y-65330000D02*
X128833332Y-65234761D01*
X128833332Y-65234761D02*
X128880951Y-65044285D01*
X128880951Y-65044285D02*
X128880951Y-64710952D01*
X128880951Y-64710952D02*
X128833332Y-64520476D01*
X128833332Y-64520476D02*
X128738094Y-64425238D01*
X128738094Y-64425238D02*
X128642856Y-64377619D01*
X128642856Y-64377619D02*
X128452380Y-64377619D01*
X128452380Y-64377619D02*
X128357142Y-64425238D01*
X128357142Y-64425238D02*
X128261904Y-64520476D01*
X128261904Y-64520476D02*
X128214285Y-64710952D01*
X128214285Y-64710952D02*
X128214285Y-65044285D01*
X128214285Y-65044285D02*
X128261904Y-65234761D01*
X128261904Y-65234761D02*
X128357142Y-65330000D01*
X128357142Y-65330000D02*
X128452380Y-65377619D01*
X128452380Y-65377619D02*
X128642856Y-65377619D01*
X127785713Y-64377619D02*
X127785713Y-65187142D01*
X127785713Y-65187142D02*
X127738094Y-65282380D01*
X127738094Y-65282380D02*
X127690475Y-65330000D01*
X127690475Y-65330000D02*
X127595237Y-65377619D01*
X127595237Y-65377619D02*
X127404761Y-65377619D01*
X127404761Y-65377619D02*
X127309523Y-65330000D01*
X127309523Y-65330000D02*
X127261904Y-65282380D01*
X127261904Y-65282380D02*
X127214285Y-65187142D01*
X127214285Y-65187142D02*
X127214285Y-64377619D01*
X126738094Y-64853809D02*
X126404761Y-64853809D01*
X126261904Y-65377619D02*
X126738094Y-65377619D01*
X126738094Y-65377619D02*
X126738094Y-64377619D01*
X126738094Y-64377619D02*
X126261904Y-64377619D01*
X125833332Y-65377619D02*
X125833332Y-64377619D01*
X125833332Y-64377619D02*
X125261904Y-65377619D01*
X125261904Y-65377619D02*
X125261904Y-64377619D01*
X124214285Y-65282380D02*
X124261904Y-65330000D01*
X124261904Y-65330000D02*
X124404761Y-65377619D01*
X124404761Y-65377619D02*
X124499999Y-65377619D01*
X124499999Y-65377619D02*
X124642856Y-65330000D01*
X124642856Y-65330000D02*
X124738094Y-65234761D01*
X124738094Y-65234761D02*
X124785713Y-65139523D01*
X124785713Y-65139523D02*
X124833332Y-64949047D01*
X124833332Y-64949047D02*
X124833332Y-64806190D01*
X124833332Y-64806190D02*
X124785713Y-64615714D01*
X124785713Y-64615714D02*
X124738094Y-64520476D01*
X124738094Y-64520476D02*
X124642856Y-64425238D01*
X124642856Y-64425238D02*
X124499999Y-64377619D01*
X124499999Y-64377619D02*
X124404761Y-64377619D01*
X124404761Y-64377619D02*
X124261904Y-64425238D01*
X124261904Y-64425238D02*
X124214285Y-64472857D01*
X123595237Y-64901428D02*
X123595237Y-65377619D01*
X123928570Y-64377619D02*
X123595237Y-64901428D01*
X123595237Y-64901428D02*
X123261904Y-64377619D01*
X128880951Y-110377619D02*
X128880951Y-109377619D01*
X128404761Y-110377619D02*
X128404761Y-109377619D01*
X128404761Y-109377619D02*
X127833333Y-110377619D01*
X127833333Y-110377619D02*
X127833333Y-109377619D01*
X126071428Y-110377619D02*
X126642856Y-110377619D01*
X126357142Y-110377619D02*
X126357142Y-109377619D01*
X126357142Y-109377619D02*
X126452380Y-109520476D01*
X126452380Y-109520476D02*
X126547618Y-109615714D01*
X126547618Y-109615714D02*
X126642856Y-109663333D01*
X181071428Y-65377619D02*
X181404761Y-64901428D01*
X181642856Y-65377619D02*
X181642856Y-64377619D01*
X181642856Y-64377619D02*
X181261904Y-64377619D01*
X181261904Y-64377619D02*
X181166666Y-64425238D01*
X181166666Y-64425238D02*
X181119047Y-64472857D01*
X181119047Y-64472857D02*
X181071428Y-64568095D01*
X181071428Y-64568095D02*
X181071428Y-64710952D01*
X181071428Y-64710952D02*
X181119047Y-64806190D01*
X181119047Y-64806190D02*
X181166666Y-64853809D01*
X181166666Y-64853809D02*
X181261904Y-64901428D01*
X181261904Y-64901428D02*
X181642856Y-64901428D01*
X180642856Y-64853809D02*
X180309523Y-64853809D01*
X180166666Y-65377619D02*
X180642856Y-65377619D01*
X180642856Y-65377619D02*
X180642856Y-64377619D01*
X180642856Y-64377619D02*
X180166666Y-64377619D01*
X179785713Y-65330000D02*
X179642856Y-65377619D01*
X179642856Y-65377619D02*
X179404761Y-65377619D01*
X179404761Y-65377619D02*
X179309523Y-65330000D01*
X179309523Y-65330000D02*
X179261904Y-65282380D01*
X179261904Y-65282380D02*
X179214285Y-65187142D01*
X179214285Y-65187142D02*
X179214285Y-65091904D01*
X179214285Y-65091904D02*
X179261904Y-64996666D01*
X179261904Y-64996666D02*
X179309523Y-64949047D01*
X179309523Y-64949047D02*
X179404761Y-64901428D01*
X179404761Y-64901428D02*
X179595237Y-64853809D01*
X179595237Y-64853809D02*
X179690475Y-64806190D01*
X179690475Y-64806190D02*
X179738094Y-64758571D01*
X179738094Y-64758571D02*
X179785713Y-64663333D01*
X179785713Y-64663333D02*
X179785713Y-64568095D01*
X179785713Y-64568095D02*
X179738094Y-64472857D01*
X179738094Y-64472857D02*
X179690475Y-64425238D01*
X179690475Y-64425238D02*
X179595237Y-64377619D01*
X179595237Y-64377619D02*
X179357142Y-64377619D01*
X179357142Y-64377619D02*
X179214285Y-64425238D01*
X178595237Y-64377619D02*
X178404761Y-64377619D01*
X178404761Y-64377619D02*
X178309523Y-64425238D01*
X178309523Y-64425238D02*
X178214285Y-64520476D01*
X178214285Y-64520476D02*
X178166666Y-64710952D01*
X178166666Y-64710952D02*
X178166666Y-65044285D01*
X178166666Y-65044285D02*
X178214285Y-65234761D01*
X178214285Y-65234761D02*
X178309523Y-65330000D01*
X178309523Y-65330000D02*
X178404761Y-65377619D01*
X178404761Y-65377619D02*
X178595237Y-65377619D01*
X178595237Y-65377619D02*
X178690475Y-65330000D01*
X178690475Y-65330000D02*
X178785713Y-65234761D01*
X178785713Y-65234761D02*
X178833332Y-65044285D01*
X178833332Y-65044285D02*
X178833332Y-64710952D01*
X178833332Y-64710952D02*
X178785713Y-64520476D01*
X178785713Y-64520476D02*
X178690475Y-64425238D01*
X178690475Y-64425238D02*
X178595237Y-64377619D01*
X177738094Y-65377619D02*
X177738094Y-64377619D01*
X177738094Y-64377619D02*
X177166666Y-65377619D01*
X177166666Y-65377619D02*
X177166666Y-64377619D01*
X176738094Y-65091904D02*
X176261904Y-65091904D01*
X176833332Y-65377619D02*
X176499999Y-64377619D01*
X176499999Y-64377619D02*
X176166666Y-65377619D01*
X175833332Y-65377619D02*
X175833332Y-64377619D01*
X175833332Y-64377619D02*
X175261904Y-65377619D01*
X175261904Y-65377619D02*
X175261904Y-64377619D01*
X174214285Y-65282380D02*
X174261904Y-65330000D01*
X174261904Y-65330000D02*
X174404761Y-65377619D01*
X174404761Y-65377619D02*
X174499999Y-65377619D01*
X174499999Y-65377619D02*
X174642856Y-65330000D01*
X174642856Y-65330000D02*
X174738094Y-65234761D01*
X174738094Y-65234761D02*
X174785713Y-65139523D01*
X174785713Y-65139523D02*
X174833332Y-64949047D01*
X174833332Y-64949047D02*
X174833332Y-64806190D01*
X174833332Y-64806190D02*
X174785713Y-64615714D01*
X174785713Y-64615714D02*
X174738094Y-64520476D01*
X174738094Y-64520476D02*
X174642856Y-64425238D01*
X174642856Y-64425238D02*
X174499999Y-64377619D01*
X174499999Y-64377619D02*
X174404761Y-64377619D01*
X174404761Y-64377619D02*
X174261904Y-64425238D01*
X174261904Y-64425238D02*
X174214285Y-64472857D01*
X173785713Y-64853809D02*
X173452380Y-64853809D01*
X173309523Y-65377619D02*
X173785713Y-65377619D01*
X173785713Y-65377619D02*
X173785713Y-64377619D01*
X173785713Y-64377619D02*
X173309523Y-64377619D01*
X130142857Y-149853809D02*
X130476190Y-149853809D01*
X130476190Y-150377619D02*
X130476190Y-149377619D01*
X130476190Y-149377619D02*
X130000000Y-149377619D01*
X129047619Y-150377619D02*
X129380952Y-149901428D01*
X129619047Y-150377619D02*
X129619047Y-149377619D01*
X129619047Y-149377619D02*
X129238095Y-149377619D01*
X129238095Y-149377619D02*
X129142857Y-149425238D01*
X129142857Y-149425238D02*
X129095238Y-149472857D01*
X129095238Y-149472857D02*
X129047619Y-149568095D01*
X129047619Y-149568095D02*
X129047619Y-149710952D01*
X129047619Y-149710952D02*
X129095238Y-149806190D01*
X129095238Y-149806190D02*
X129142857Y-149853809D01*
X129142857Y-149853809D02*
X129238095Y-149901428D01*
X129238095Y-149901428D02*
X129619047Y-149901428D01*
X128619047Y-149853809D02*
X128285714Y-149853809D01*
X128142857Y-150377619D02*
X128619047Y-150377619D01*
X128619047Y-150377619D02*
X128619047Y-149377619D01*
X128619047Y-149377619D02*
X128142857Y-149377619D01*
X127047619Y-150472857D02*
X127142857Y-150425238D01*
X127142857Y-150425238D02*
X127238095Y-150330000D01*
X127238095Y-150330000D02*
X127380952Y-150187142D01*
X127380952Y-150187142D02*
X127476190Y-150139523D01*
X127476190Y-150139523D02*
X127571428Y-150139523D01*
X127523809Y-150377619D02*
X127619047Y-150330000D01*
X127619047Y-150330000D02*
X127714285Y-150234761D01*
X127714285Y-150234761D02*
X127761904Y-150044285D01*
X127761904Y-150044285D02*
X127761904Y-149710952D01*
X127761904Y-149710952D02*
X127714285Y-149520476D01*
X127714285Y-149520476D02*
X127619047Y-149425238D01*
X127619047Y-149425238D02*
X127523809Y-149377619D01*
X127523809Y-149377619D02*
X127333333Y-149377619D01*
X127333333Y-149377619D02*
X127238095Y-149425238D01*
X127238095Y-149425238D02*
X127142857Y-149520476D01*
X127142857Y-149520476D02*
X127095238Y-149710952D01*
X127095238Y-149710952D02*
X127095238Y-150044285D01*
X127095238Y-150044285D02*
X127142857Y-150234761D01*
X127142857Y-150234761D02*
X127238095Y-150330000D01*
X127238095Y-150330000D02*
X127333333Y-150377619D01*
X127333333Y-150377619D02*
X127523809Y-150377619D01*
X125333333Y-150282380D02*
X125380952Y-150330000D01*
X125380952Y-150330000D02*
X125523809Y-150377619D01*
X125523809Y-150377619D02*
X125619047Y-150377619D01*
X125619047Y-150377619D02*
X125761904Y-150330000D01*
X125761904Y-150330000D02*
X125857142Y-150234761D01*
X125857142Y-150234761D02*
X125904761Y-150139523D01*
X125904761Y-150139523D02*
X125952380Y-149949047D01*
X125952380Y-149949047D02*
X125952380Y-149806190D01*
X125952380Y-149806190D02*
X125904761Y-149615714D01*
X125904761Y-149615714D02*
X125857142Y-149520476D01*
X125857142Y-149520476D02*
X125761904Y-149425238D01*
X125761904Y-149425238D02*
X125619047Y-149377619D01*
X125619047Y-149377619D02*
X125523809Y-149377619D01*
X125523809Y-149377619D02*
X125380952Y-149425238D01*
X125380952Y-149425238D02*
X125333333Y-149472857D01*
X125047618Y-149377619D02*
X124714285Y-150377619D01*
X124714285Y-150377619D02*
X124380952Y-149377619D01*
X105456190Y-111188336D02*
X105456190Y-111521669D01*
X104932380Y-111521669D02*
X105932380Y-111521669D01*
X105932380Y-111521669D02*
X105932380Y-111045479D01*
X104932380Y-110664526D02*
X105599047Y-110664526D01*
X105408571Y-110664526D02*
X105503809Y-110616907D01*
X105503809Y-110616907D02*
X105551428Y-110569288D01*
X105551428Y-110569288D02*
X105599047Y-110474050D01*
X105599047Y-110474050D02*
X105599047Y-110378812D01*
X104980000Y-109664526D02*
X104932380Y-109759764D01*
X104932380Y-109759764D02*
X104932380Y-109950240D01*
X104932380Y-109950240D02*
X104980000Y-110045478D01*
X104980000Y-110045478D02*
X105075238Y-110093097D01*
X105075238Y-110093097D02*
X105456190Y-110093097D01*
X105456190Y-110093097D02*
X105551428Y-110045478D01*
X105551428Y-110045478D02*
X105599047Y-109950240D01*
X105599047Y-109950240D02*
X105599047Y-109759764D01*
X105599047Y-109759764D02*
X105551428Y-109664526D01*
X105551428Y-109664526D02*
X105456190Y-109616907D01*
X105456190Y-109616907D02*
X105360952Y-109616907D01*
X105360952Y-109616907D02*
X105265714Y-110093097D01*
X105599047Y-108759764D02*
X104599047Y-108759764D01*
X104980000Y-108759764D02*
X104932380Y-108855002D01*
X104932380Y-108855002D02*
X104932380Y-109045478D01*
X104932380Y-109045478D02*
X104980000Y-109140716D01*
X104980000Y-109140716D02*
X105027619Y-109188335D01*
X105027619Y-109188335D02*
X105122857Y-109235954D01*
X105122857Y-109235954D02*
X105408571Y-109235954D01*
X105408571Y-109235954D02*
X105503809Y-109188335D01*
X105503809Y-109188335D02*
X105551428Y-109140716D01*
X105551428Y-109140716D02*
X105599047Y-109045478D01*
X105599047Y-109045478D02*
X105599047Y-108855002D01*
X105599047Y-108855002D02*
X105551428Y-108759764D01*
X105027619Y-106950240D02*
X104980000Y-106997859D01*
X104980000Y-106997859D02*
X104932380Y-107140716D01*
X104932380Y-107140716D02*
X104932380Y-107235954D01*
X104932380Y-107235954D02*
X104980000Y-107378811D01*
X104980000Y-107378811D02*
X105075238Y-107474049D01*
X105075238Y-107474049D02*
X105170476Y-107521668D01*
X105170476Y-107521668D02*
X105360952Y-107569287D01*
X105360952Y-107569287D02*
X105503809Y-107569287D01*
X105503809Y-107569287D02*
X105694285Y-107521668D01*
X105694285Y-107521668D02*
X105789523Y-107474049D01*
X105789523Y-107474049D02*
X105884761Y-107378811D01*
X105884761Y-107378811D02*
X105932380Y-107235954D01*
X105932380Y-107235954D02*
X105932380Y-107140716D01*
X105932380Y-107140716D02*
X105884761Y-106997859D01*
X105884761Y-106997859D02*
X105837142Y-106950240D01*
X105932380Y-106664525D02*
X104932380Y-106331192D01*
X104932380Y-106331192D02*
X105932380Y-105997859D01*
X104932380Y-104759763D02*
X104980000Y-104855001D01*
X104980000Y-104855001D02*
X105027619Y-104902620D01*
X105027619Y-104902620D02*
X105122857Y-104950239D01*
X105122857Y-104950239D02*
X105408571Y-104950239D01*
X105408571Y-104950239D02*
X105503809Y-104902620D01*
X105503809Y-104902620D02*
X105551428Y-104855001D01*
X105551428Y-104855001D02*
X105599047Y-104759763D01*
X105599047Y-104759763D02*
X105599047Y-104616906D01*
X105599047Y-104616906D02*
X105551428Y-104521668D01*
X105551428Y-104521668D02*
X105503809Y-104474049D01*
X105503809Y-104474049D02*
X105408571Y-104426430D01*
X105408571Y-104426430D02*
X105122857Y-104426430D01*
X105122857Y-104426430D02*
X105027619Y-104474049D01*
X105027619Y-104474049D02*
X104980000Y-104521668D01*
X104980000Y-104521668D02*
X104932380Y-104616906D01*
X104932380Y-104616906D02*
X104932380Y-104759763D01*
X105599047Y-104140715D02*
X105599047Y-103759763D01*
X104932380Y-103997858D02*
X105789523Y-103997858D01*
X105789523Y-103997858D02*
X105884761Y-103950239D01*
X105884761Y-103950239D02*
X105932380Y-103855001D01*
X105932380Y-103855001D02*
X105932380Y-103759763D01*
X105599047Y-103569286D02*
X105599047Y-103188334D01*
X104932380Y-103426429D02*
X105789523Y-103426429D01*
X105789523Y-103426429D02*
X105884761Y-103378810D01*
X105884761Y-103378810D02*
X105932380Y-103283572D01*
X105932380Y-103283572D02*
X105932380Y-103188334D01*
X104980000Y-102902619D02*
X104932380Y-102807381D01*
X104932380Y-102807381D02*
X104932380Y-102616905D01*
X104932380Y-102616905D02*
X104980000Y-102521667D01*
X104980000Y-102521667D02*
X105075238Y-102474048D01*
X105075238Y-102474048D02*
X105122857Y-102474048D01*
X105122857Y-102474048D02*
X105218095Y-102521667D01*
X105218095Y-102521667D02*
X105265714Y-102616905D01*
X105265714Y-102616905D02*
X105265714Y-102759762D01*
X105265714Y-102759762D02*
X105313333Y-102855000D01*
X105313333Y-102855000D02*
X105408571Y-102902619D01*
X105408571Y-102902619D02*
X105456190Y-102902619D01*
X105456190Y-102902619D02*
X105551428Y-102855000D01*
X105551428Y-102855000D02*
X105599047Y-102759762D01*
X105599047Y-102759762D02*
X105599047Y-102616905D01*
X105599047Y-102616905D02*
X105551428Y-102521667D01*
X104980000Y-101664524D02*
X104932380Y-101759762D01*
X104932380Y-101759762D02*
X104932380Y-101950238D01*
X104932380Y-101950238D02*
X104980000Y-102045476D01*
X104980000Y-102045476D02*
X105075238Y-102093095D01*
X105075238Y-102093095D02*
X105456190Y-102093095D01*
X105456190Y-102093095D02*
X105551428Y-102045476D01*
X105551428Y-102045476D02*
X105599047Y-101950238D01*
X105599047Y-101950238D02*
X105599047Y-101759762D01*
X105599047Y-101759762D02*
X105551428Y-101664524D01*
X105551428Y-101664524D02*
X105456190Y-101616905D01*
X105456190Y-101616905D02*
X105360952Y-101616905D01*
X105360952Y-101616905D02*
X105265714Y-102093095D01*
X105599047Y-101331190D02*
X105599047Y-100950238D01*
X105932380Y-101188333D02*
X105075238Y-101188333D01*
X105075238Y-101188333D02*
X104980000Y-101140714D01*
X104980000Y-101140714D02*
X104932380Y-101045476D01*
X104932380Y-101045476D02*
X104932380Y-100950238D01*
G36*
X154560571Y-99745000D02*
G01*
X154385449Y-99745000D01*
X154385449Y-99370209D01*
X154370720Y-99368987D01*
X154348863Y-99366520D01*
X154327289Y-99363294D01*
X154305998Y-99359307D01*
X154284991Y-99354561D01*
X154264267Y-99349055D01*
X154243826Y-99342789D01*
X154223669Y-99335763D01*
X154203795Y-99327977D01*
X154184205Y-99319431D01*
X154164898Y-99310125D01*
X154152224Y-99303503D01*
X154133599Y-99293125D01*
X154115439Y-99282213D01*
X154097742Y-99270766D01*
X154080508Y-99258784D01*
X154063738Y-99246268D01*
X154047432Y-99233217D01*
X154031590Y-99219632D01*
X154016211Y-99205512D01*
X154001296Y-99190858D01*
X153986845Y-99175669D01*
X153977444Y-99165225D01*
X153963809Y-99149205D01*
X153950735Y-99132759D01*
X153938221Y-99115888D01*
X153926267Y-99098593D01*
X153914874Y-99080872D01*
X153904041Y-99062726D01*
X153893768Y-99044155D01*
X153884055Y-99025160D01*
X153874903Y-99005739D01*
X153866311Y-98985893D01*
X153863584Y-98979195D01*
X153855921Y-98958971D01*
X153849038Y-98938546D01*
X153842934Y-98917922D01*
X153837609Y-98897098D01*
X153833063Y-98876075D01*
X153829297Y-98854852D01*
X153826310Y-98833429D01*
X153824102Y-98811807D01*
X153822674Y-98789985D01*
X153822154Y-98775326D01*
X153822020Y-98763876D01*
X153994905Y-98763876D01*
X153995025Y-98774107D01*
X153995656Y-98789352D01*
X153996828Y-98804474D01*
X153998541Y-98819474D01*
X154000795Y-98834351D01*
X154003590Y-98849106D01*
X154006926Y-98863739D01*
X154010803Y-98878249D01*
X154015221Y-98892637D01*
X154020180Y-98906903D01*
X154025679Y-98921046D01*
X154029568Y-98930328D01*
X154035728Y-98944026D01*
X154042280Y-98957454D01*
X154049226Y-98970611D01*
X154056564Y-98983497D01*
X154064295Y-98996113D01*
X154072419Y-99008458D01*
X154080936Y-99020533D01*
X154089846Y-99032338D01*
X154099149Y-99043872D01*
X154108844Y-99055136D01*
X154115509Y-99062423D01*
X154125769Y-99073032D01*
X154136344Y-99083254D01*
X154147235Y-99093090D01*
X154158442Y-99102540D01*
X154169964Y-99111603D01*
X154181802Y-99120280D01*
X154193955Y-99128570D01*
X154206424Y-99136474D01*
X154219209Y-99143992D01*
X154232309Y-99151123D01*
X154241193Y-99155592D01*
X154254691Y-99161883D01*
X154268396Y-99167678D01*
X154282306Y-99172977D01*
X154296423Y-99177780D01*
X154310745Y-99182088D01*
X154325274Y-99185899D01*
X154340008Y-99189215D01*
X154354949Y-99192034D01*
X154370096Y-99194358D01*
X154385449Y-99196186D01*
X154385449Y-98333398D01*
X154375187Y-98334563D01*
X154359949Y-98336729D01*
X154344897Y-98339397D01*
X154330033Y-98342568D01*
X154315355Y-98346241D01*
X154300864Y-98350416D01*
X154286559Y-98355094D01*
X154272442Y-98360274D01*
X154258511Y-98365956D01*
X154244767Y-98372140D01*
X154231210Y-98378827D01*
X154217913Y-98385886D01*
X154204952Y-98393326D01*
X154192325Y-98401145D01*
X154180033Y-98409344D01*
X154168076Y-98417923D01*
X154156454Y-98426882D01*
X154141479Y-98439419D01*
X154127099Y-98452631D01*
X154116705Y-98462983D01*
X154106646Y-98473715D01*
X154103372Y-98477350D01*
X154090732Y-98492225D01*
X154078825Y-98507638D01*
X154067651Y-98523589D01*
X154057210Y-98540079D01*
X154049859Y-98552799D01*
X154042921Y-98565821D01*
X154036396Y-98579147D01*
X154030282Y-98592775D01*
X154024580Y-98606706D01*
X154020987Y-98616078D01*
X154016031Y-98630249D01*
X154011597Y-98644556D01*
X154007685Y-98658997D01*
X154004294Y-98673574D01*
X154001425Y-98688287D01*
X153999078Y-98703134D01*
X153997252Y-98718117D01*
X153995948Y-98733234D01*
X153995166Y-98748488D01*
X153994905Y-98763876D01*
X153822020Y-98763876D01*
X153821981Y-98760579D01*
X153822171Y-98745017D01*
X153822742Y-98729564D01*
X153823694Y-98714219D01*
X153825026Y-98698984D01*
X153826739Y-98683857D01*
X153828833Y-98668839D01*
X153831307Y-98653929D01*
X153834162Y-98639129D01*
X153837398Y-98624437D01*
X153841015Y-98609854D01*
X153845012Y-98595380D01*
X153849389Y-98581014D01*
X153854148Y-98566758D01*
X153859287Y-98552610D01*
X153864807Y-98538571D01*
X153870707Y-98524640D01*
X153876885Y-98510831D01*
X153883330Y-98497249D01*
X153890040Y-98483892D01*
X153897017Y-98470762D01*
X153904260Y-98457857D01*
X153911769Y-98445179D01*
X153919544Y-98432727D01*
X153931706Y-98414473D01*
X153944467Y-98396727D01*
X153957827Y-98379491D01*
X153971785Y-98362763D01*
X153986343Y-98346544D01*
X154001499Y-98330833D01*
X154017141Y-98315608D01*
X154033291Y-98300982D01*
X154049951Y-98286954D01*
X154067119Y-98273526D01*
X154084795Y-98260696D01*
X154102981Y-98248466D01*
X154115387Y-98240645D01*
X154128020Y-98233090D01*
X154140878Y-98225801D01*
X154153963Y-98218779D01*
X154167273Y-98212023D01*
X154180810Y-98205533D01*
X154194573Y-98199309D01*
X154208458Y-98193408D01*
X154222451Y-98187888D01*
X154236554Y-98182749D01*
X154250764Y-98177991D01*
X154265084Y-98173613D01*
X154279513Y-98169616D01*
X154294050Y-98166000D01*
X154308696Y-98162764D01*
X154323451Y-98159909D01*
X154338314Y-98157434D01*
X154353286Y-98155341D01*
X154368367Y-98153628D01*
X154383557Y-98152295D01*
X154398856Y-98151344D01*
X154414263Y-98150773D01*
X154429779Y-98150582D01*
X154560571Y-98150582D01*
X154560571Y-99745000D01*
G37*
G36*
X153459900Y-98150668D02*
G01*
X153476832Y-98151634D01*
X153493495Y-98153673D01*
X153509890Y-98156786D01*
X153526017Y-98160972D01*
X153541876Y-98166231D01*
X153557466Y-98172564D01*
X153563600Y-98175369D01*
X153578508Y-98182882D01*
X153592809Y-98191111D01*
X153606501Y-98200056D01*
X153619585Y-98209716D01*
X153632060Y-98220091D01*
X153643928Y-98231182D01*
X153648496Y-98235811D01*
X153659415Y-98247807D01*
X153669619Y-98260411D01*
X153679107Y-98273624D01*
X153687880Y-98287445D01*
X153695937Y-98301874D01*
X153703279Y-98316912D01*
X153705941Y-98323068D01*
X153711844Y-98338635D01*
X153716674Y-98354452D01*
X153720431Y-98370520D01*
X153723114Y-98386838D01*
X153724724Y-98403407D01*
X153725261Y-98420226D01*
X153725175Y-98426984D01*
X153724209Y-98443703D01*
X153722169Y-98460171D01*
X153719057Y-98476390D01*
X153714871Y-98492357D01*
X153709612Y-98508074D01*
X153703279Y-98523541D01*
X153700428Y-98529629D01*
X153692800Y-98544423D01*
X153684457Y-98558609D01*
X153675398Y-98572187D01*
X153665623Y-98585156D01*
X153655133Y-98597517D01*
X153643928Y-98609270D01*
X153639254Y-98613793D01*
X153627143Y-98624597D01*
X153614424Y-98634687D01*
X153601097Y-98644061D01*
X153587161Y-98652719D01*
X153572618Y-98660661D01*
X153557466Y-98667889D01*
X153551262Y-98670550D01*
X153535565Y-98676454D01*
X153519599Y-98681284D01*
X153503365Y-98685040D01*
X153486862Y-98687724D01*
X153470091Y-98689334D01*
X153453052Y-98689870D01*
X153446204Y-98689785D01*
X153429272Y-98688819D01*
X153412609Y-98686779D01*
X153396214Y-98683667D01*
X153380087Y-98679481D01*
X153364228Y-98674221D01*
X153348638Y-98667889D01*
X153342457Y-98665084D01*
X153327418Y-98657570D01*
X153312969Y-98649341D01*
X153299111Y-98640397D01*
X153285843Y-98630737D01*
X153273165Y-98620361D01*
X153261077Y-98609270D01*
X153256377Y-98604642D01*
X153245179Y-98592646D01*
X153234768Y-98580041D01*
X153225143Y-98566829D01*
X153216306Y-98553008D01*
X153208256Y-98538578D01*
X153200993Y-98523541D01*
X153198287Y-98517384D01*
X153192285Y-98501817D01*
X153187375Y-98486000D01*
X153183556Y-98469932D01*
X153180828Y-98453614D01*
X153179191Y-98437045D01*
X153178645Y-98420226D01*
X153353767Y-98420226D01*
X153353879Y-98425496D01*
X153355553Y-98440788D01*
X153359237Y-98455309D01*
X153364930Y-98469056D01*
X153372632Y-98482030D01*
X153382344Y-98494232D01*
X153384120Y-98496170D01*
X153395352Y-98506509D01*
X153407562Y-98514632D01*
X153423045Y-98521308D01*
X153437376Y-98524632D01*
X153452686Y-98525739D01*
X153467425Y-98524632D01*
X153483676Y-98520539D01*
X153498911Y-98513432D01*
X153511159Y-98504939D01*
X153522661Y-98494232D01*
X153526210Y-98490251D01*
X153535484Y-98477791D01*
X153542697Y-98464559D01*
X153547849Y-98450554D01*
X153550940Y-98435777D01*
X153551970Y-98420226D01*
X153551856Y-98414652D01*
X153550139Y-98398634D01*
X153546360Y-98383671D01*
X153540522Y-98369765D01*
X153532622Y-98356915D01*
X153522661Y-98345122D01*
X153511159Y-98334788D01*
X153498911Y-98326592D01*
X153483676Y-98319732D01*
X153467425Y-98315782D01*
X153452686Y-98314713D01*
X153437376Y-98315782D01*
X153423045Y-98318990D01*
X153407562Y-98325433D01*
X153393412Y-98334788D01*
X153382344Y-98345122D01*
X153378883Y-98348936D01*
X153369842Y-98361081D01*
X153362809Y-98374283D01*
X153357786Y-98388542D01*
X153354772Y-98403856D01*
X153353767Y-98420226D01*
X153178645Y-98420226D01*
X153178732Y-98413469D01*
X153179715Y-98396750D01*
X153181788Y-98380281D01*
X153184952Y-98364063D01*
X153189208Y-98348095D01*
X153194555Y-98332378D01*
X153200993Y-98316912D01*
X153203804Y-98310824D01*
X153211382Y-98296030D01*
X153219747Y-98281844D01*
X153228899Y-98268266D01*
X153238838Y-98255297D01*
X153249564Y-98242935D01*
X153261077Y-98231182D01*
X153265841Y-98226660D01*
X153278165Y-98215855D01*
X153291079Y-98205766D01*
X153304583Y-98196392D01*
X153318678Y-98187734D01*
X153333363Y-98179791D01*
X153348638Y-98172564D01*
X153354842Y-98169902D01*
X153370540Y-98163999D01*
X153386505Y-98159169D01*
X153402740Y-98155412D01*
X153419242Y-98152729D01*
X153436013Y-98151119D01*
X153453052Y-98150582D01*
X153459900Y-98150668D01*
G37*
G36*
X153080460Y-99745000D02*
G01*
X153080460Y-98150582D01*
X152905337Y-98150582D01*
X152905337Y-99580868D01*
X152394626Y-99580868D01*
X152394626Y-99745000D01*
X153080460Y-99745000D01*
G37*
G36*
X152021300Y-99369842D02*
G01*
X152021300Y-99580868D01*
X151424127Y-99580868D01*
X151424127Y-99745000D01*
X152196423Y-99745000D01*
X152196423Y-99369842D01*
X152297905Y-99369842D01*
X152297905Y-99205711D01*
X152196423Y-99205711D01*
X152196423Y-98150582D01*
X151413502Y-98150582D01*
X151413502Y-98314713D01*
X152021300Y-98314713D01*
X152021300Y-99205711D01*
X151413502Y-99205711D01*
X151413502Y-99369842D01*
X152021300Y-99369842D01*
G37*
G36*
X149638467Y-99745000D02*
G01*
X149824214Y-98479211D01*
X150075173Y-98744825D01*
X150324301Y-98479211D01*
X150512246Y-99745000D01*
X150687368Y-99745000D01*
X150444469Y-98103688D01*
X150075173Y-98493866D01*
X149704046Y-98103688D01*
X149461147Y-99745000D01*
X149638467Y-99745000D01*
G37*
G36*
X149366991Y-99745000D02*
G01*
X149366991Y-98150582D01*
X149193701Y-98150582D01*
X149193701Y-99745000D01*
X149366991Y-99745000D01*
G37*
G36*
X148391730Y-99018866D02*
G01*
X147971510Y-99745000D01*
X148172277Y-99745000D01*
X148490648Y-99192522D01*
X148811583Y-99745000D01*
X149011984Y-99745000D01*
X148592131Y-99018866D01*
X149094416Y-98150582D01*
X148894015Y-98150582D01*
X148490648Y-98845209D01*
X148089845Y-98150582D01*
X147889444Y-98150582D01*
X148391730Y-99018866D01*
G37*
G36*
X147794556Y-99745000D02*
G01*
X147794556Y-98150582D01*
X147621266Y-98150582D01*
X147621266Y-99745000D01*
X147794556Y-99745000D01*
G37*
G36*
X146973167Y-99745000D02*
G01*
X146973167Y-98612934D01*
X147348691Y-98387986D01*
X147348691Y-99745000D01*
X147521981Y-99745000D01*
X147521981Y-98080240D01*
X146973167Y-98409235D01*
X146973167Y-98150582D01*
X146800243Y-98150582D01*
X146800243Y-99745000D01*
X146973167Y-99745000D01*
G37*
G36*
X145923534Y-99745000D02*
G01*
X145943522Y-99744743D01*
X145963370Y-99743975D01*
X145983078Y-99742694D01*
X146002645Y-99740901D01*
X146022073Y-99738595D01*
X146041360Y-99735777D01*
X146060507Y-99732447D01*
X146079513Y-99728605D01*
X146098379Y-99724250D01*
X146117106Y-99719383D01*
X146135691Y-99714003D01*
X146154137Y-99708111D01*
X146172442Y-99701707D01*
X146190607Y-99694790D01*
X146208632Y-99687362D01*
X146226517Y-99679420D01*
X146244142Y-99671050D01*
X146261482Y-99662333D01*
X146278535Y-99653270D01*
X146295302Y-99643860D01*
X146311782Y-99634104D01*
X146327977Y-99624002D01*
X146343885Y-99613553D01*
X146359507Y-99602759D01*
X146374843Y-99591617D01*
X146389892Y-99580130D01*
X146404656Y-99568296D01*
X146419133Y-99556116D01*
X146433324Y-99543589D01*
X146447228Y-99530716D01*
X146460847Y-99517497D01*
X146474179Y-99503932D01*
X146487199Y-99490057D01*
X146499882Y-99475911D01*
X146512227Y-99461492D01*
X146524234Y-99446802D01*
X146535903Y-99431840D01*
X146547234Y-99416605D01*
X146558228Y-99401099D01*
X146568884Y-99385321D01*
X146579203Y-99369271D01*
X146589183Y-99352950D01*
X146598826Y-99336356D01*
X146608131Y-99319490D01*
X146617098Y-99302353D01*
X146625728Y-99284943D01*
X146634020Y-99267262D01*
X146641974Y-99249309D01*
X146649516Y-99231121D01*
X146656571Y-99212827D01*
X146663140Y-99194427D01*
X146669222Y-99175921D01*
X146674818Y-99157310D01*
X146679927Y-99138592D01*
X146684549Y-99119769D01*
X146688685Y-99100840D01*
X146692335Y-99081804D01*
X146695497Y-99062663D01*
X146698174Y-99043416D01*
X146700363Y-99024063D01*
X146702066Y-99004604D01*
X146703283Y-98985040D01*
X146704013Y-98965369D01*
X146704256Y-98945593D01*
X146704017Y-98925603D01*
X146703300Y-98905751D01*
X146702105Y-98886036D01*
X146700432Y-98866458D01*
X146698281Y-98847018D01*
X146695652Y-98827715D01*
X146692545Y-98808550D01*
X146688960Y-98789521D01*
X146684897Y-98770631D01*
X146680356Y-98751878D01*
X146675337Y-98733262D01*
X146669840Y-98714783D01*
X146663866Y-98696442D01*
X146657413Y-98678238D01*
X146650482Y-98660172D01*
X146643073Y-98642243D01*
X146635205Y-98624520D01*
X146626987Y-98607072D01*
X146618421Y-98589899D01*
X146609505Y-98573000D01*
X146600240Y-98556376D01*
X146590626Y-98540027D01*
X146580662Y-98523953D01*
X146570350Y-98508154D01*
X146559688Y-98492629D01*
X146548677Y-98477379D01*
X146537317Y-98462404D01*
X146525607Y-98447704D01*
X146513549Y-98433278D01*
X146501141Y-98419127D01*
X146488384Y-98405251D01*
X146475278Y-98391650D01*
X146461816Y-98378355D01*
X146448081Y-98365398D01*
X146434075Y-98352778D01*
X146419797Y-98340496D01*
X146405247Y-98328552D01*
X146390425Y-98316946D01*
X146375331Y-98305677D01*
X146359965Y-98294747D01*
X146344327Y-98284153D01*
X146328418Y-98273898D01*
X146312236Y-98263981D01*
X146295783Y-98254401D01*
X146279057Y-98245159D01*
X146262060Y-98236254D01*
X146244791Y-98227688D01*
X146227250Y-98219459D01*
X146209498Y-98211633D01*
X146191598Y-98204277D01*
X146173549Y-98197391D01*
X146155351Y-98190974D01*
X146137004Y-98185026D01*
X146118508Y-98179548D01*
X146099864Y-98174539D01*
X146081070Y-98170000D01*
X146062128Y-98165929D01*
X146043037Y-98162329D01*
X146023797Y-98159197D01*
X146004408Y-98156536D01*
X145984871Y-98154343D01*
X145965185Y-98152620D01*
X145945349Y-98151366D01*
X145925365Y-98150582D01*
X145925365Y-98314713D01*
X145940879Y-98315446D01*
X145956277Y-98316545D01*
X145971562Y-98318011D01*
X145986731Y-98319842D01*
X146001787Y-98322041D01*
X146016727Y-98324605D01*
X146031554Y-98327536D01*
X146046266Y-98330833D01*
X146060863Y-98334497D01*
X146075346Y-98338527D01*
X146089714Y-98342923D01*
X146103968Y-98347686D01*
X146118107Y-98352815D01*
X146132132Y-98358311D01*
X146146043Y-98364173D01*
X146159839Y-98370401D01*
X146173425Y-98376901D01*
X146186801Y-98383670D01*
X146199964Y-98390708D01*
X146212916Y-98398015D01*
X146225655Y-98405592D01*
X146238183Y-98413437D01*
X146250499Y-98421552D01*
X146262604Y-98429935D01*
X146274496Y-98438587D01*
X146286177Y-98447509D01*
X146297646Y-98456700D01*
X146308903Y-98466159D01*
X146319948Y-98475888D01*
X146330782Y-98485886D01*
X146341403Y-98496152D01*
X146351813Y-98506688D01*
X146361941Y-98517419D01*
X146371809Y-98528361D01*
X146381416Y-98539515D01*
X146390762Y-98550881D01*
X146399849Y-98562459D01*
X146408674Y-98574248D01*
X146417239Y-98586249D01*
X146425544Y-98598463D01*
X146433588Y-98610887D01*
X146441372Y-98623524D01*
X146448896Y-98636373D01*
X146456159Y-98649433D01*
X146463161Y-98662705D01*
X146469903Y-98676189D01*
X146476384Y-98689885D01*
X146482605Y-98703792D01*
X146488462Y-98717816D01*
X146493940Y-98731951D01*
X146499040Y-98746197D01*
X146503763Y-98760556D01*
X146508108Y-98775026D01*
X146512075Y-98789607D01*
X146515664Y-98804301D01*
X146518875Y-98819105D01*
X146521709Y-98834022D01*
X146524165Y-98849050D01*
X146526243Y-98864190D01*
X146527943Y-98879441D01*
X146529265Y-98894804D01*
X146530210Y-98910279D01*
X146530777Y-98925865D01*
X146530966Y-98941563D01*
X146530615Y-98962656D01*
X146529562Y-98983620D01*
X146527807Y-99004456D01*
X146525350Y-99025162D01*
X146522191Y-99045740D01*
X146518330Y-99066189D01*
X146513767Y-99086510D01*
X146508503Y-99106701D01*
X146502536Y-99126764D01*
X146495868Y-99146698D01*
X146491032Y-99159916D01*
X146483218Y-99179503D01*
X146474889Y-99198697D01*
X146466045Y-99217499D01*
X146456685Y-99235908D01*
X146446810Y-99253924D01*
X146436421Y-99271547D01*
X146425516Y-99288777D01*
X146414095Y-99305614D01*
X146402160Y-99322059D01*
X146389709Y-99338110D01*
X146381123Y-99348593D01*
X146367849Y-99363893D01*
X146354130Y-99378741D01*
X146339968Y-99393139D01*
X146325361Y-99407086D01*
X146310309Y-99420582D01*
X146294814Y-99433627D01*
X146278874Y-99446222D01*
X146262489Y-99458365D01*
X146245660Y-99470058D01*
X146228387Y-99481300D01*
X146216625Y-99488545D01*
X146198685Y-99498841D01*
X146180449Y-99508436D01*
X146161917Y-99517328D01*
X146143089Y-99525519D01*
X146123964Y-99533007D01*
X146104543Y-99539794D01*
X146084826Y-99545879D01*
X146064813Y-99551261D01*
X146044503Y-99555942D01*
X146023897Y-99559921D01*
X146009996Y-99562184D01*
X146009996Y-99369842D01*
X146250330Y-99369842D01*
X146250330Y-99205711D01*
X145834873Y-99205711D01*
X145834873Y-99745000D01*
X145923534Y-99745000D01*
G37*
G36*
X144823342Y-99369842D02*
G01*
X144823342Y-99745000D01*
X144996266Y-99745000D01*
X144996266Y-99369842D01*
X145108373Y-99369842D01*
X145108373Y-99205711D01*
X144996266Y-99205711D01*
X144996266Y-98150582D01*
X144302005Y-98150582D01*
X144302005Y-98314713D01*
X144823342Y-98314713D01*
X144823342Y-99205711D01*
X144283321Y-99205711D01*
X144283321Y-99369842D01*
X144823342Y-99369842D01*
G37*
G36*
X144186601Y-99745000D02*
G01*
X144186601Y-98150582D01*
X144013310Y-98150582D01*
X144013310Y-99745000D01*
X144186601Y-99745000D01*
G37*
G36*
X143914026Y-99745000D02*
G01*
X143914026Y-98150582D01*
X143738903Y-98150582D01*
X143738903Y-99580868D01*
X143228192Y-99580868D01*
X143228192Y-99745000D01*
X143914026Y-99745000D01*
G37*
G36*
X142646039Y-98314713D02*
G01*
X142646039Y-99745000D01*
X142818963Y-99745000D01*
X142818963Y-98314713D01*
X143131471Y-98314713D01*
X143131471Y-98150582D01*
X142333530Y-98150582D01*
X142333530Y-98314713D01*
X142646039Y-98314713D01*
G37*
G36*
X141960938Y-99369842D02*
G01*
X141960938Y-99580868D01*
X141363764Y-99580868D01*
X141363764Y-99745000D01*
X142136060Y-99745000D01*
X142136060Y-99369842D01*
X142237543Y-99369842D01*
X142237543Y-99205711D01*
X142136060Y-99205711D01*
X142136060Y-98150582D01*
X141353139Y-98150582D01*
X141353139Y-98314713D01*
X141960938Y-98314713D01*
X141960938Y-99205711D01*
X141353139Y-99205711D01*
X141353139Y-99369842D01*
X141960938Y-99369842D01*
G37*
G36*
X141257152Y-99745000D02*
G01*
X141082030Y-99745000D01*
X141082030Y-98848506D01*
X141075644Y-98873732D01*
X141069127Y-98898669D01*
X141062478Y-98923317D01*
X141055697Y-98947676D01*
X141048785Y-98971746D01*
X141041741Y-98995527D01*
X141034566Y-99019019D01*
X141027258Y-99042221D01*
X141019819Y-99065135D01*
X141012249Y-99087759D01*
X141004547Y-99110095D01*
X140996713Y-99132141D01*
X140988747Y-99153898D01*
X140980650Y-99175366D01*
X140972421Y-99196545D01*
X140964060Y-99217435D01*
X140955532Y-99237991D01*
X140946893Y-99258170D01*
X140938142Y-99277971D01*
X140929279Y-99297394D01*
X140920304Y-99316439D01*
X140911218Y-99335107D01*
X140902020Y-99353396D01*
X140892711Y-99371308D01*
X140883290Y-99388842D01*
X140873757Y-99405998D01*
X140864113Y-99422776D01*
X140854357Y-99439177D01*
X140844490Y-99455200D01*
X140834511Y-99470845D01*
X140824420Y-99486112D01*
X140814217Y-99501001D01*
X140809052Y-99508276D01*
X140798642Y-99522509D01*
X140788126Y-99536322D01*
X140777505Y-99549715D01*
X140766777Y-99562686D01*
X140755944Y-99575237D01*
X140745004Y-99587367D01*
X140733959Y-99599077D01*
X140722808Y-99610365D01*
X140711551Y-99621233D01*
X140700188Y-99631680D01*
X140688719Y-99641707D01*
X140677144Y-99651312D01*
X140665463Y-99660497D01*
X140653677Y-99669261D01*
X140635798Y-99681618D01*
X140623718Y-99689294D01*
X140605464Y-99699878D01*
X140587049Y-99709348D01*
X140568473Y-99717704D01*
X140549735Y-99724945D01*
X140530837Y-99731073D01*
X140511778Y-99736087D01*
X140492558Y-99739986D01*
X140473177Y-99742771D01*
X140453634Y-99744442D01*
X140433931Y-99745000D01*
X140433931Y-99580868D01*
X140448191Y-99580279D01*
X140467113Y-99577660D01*
X140485932Y-99572946D01*
X140499978Y-99568036D01*
X140513967Y-99561947D01*
X140527898Y-99554679D01*
X140541771Y-99546233D01*
X140555586Y-99536608D01*
X140569343Y-99525805D01*
X140583042Y-99513824D01*
X140587570Y-99509583D01*
X140601085Y-99496250D01*
X140614497Y-99482002D01*
X140627807Y-99466840D01*
X140641013Y-99450764D01*
X140654116Y-99433773D01*
X140662794Y-99421938D01*
X140671427Y-99409696D01*
X140680014Y-99397048D01*
X140688554Y-99383993D01*
X140697050Y-99370532D01*
X140705499Y-99356665D01*
X140713902Y-99342391D01*
X140722260Y-99327711D01*
X140730509Y-99312604D01*
X140738678Y-99297142D01*
X140746766Y-99281325D01*
X140754775Y-99265154D01*
X140762703Y-99248627D01*
X140770551Y-99231746D01*
X140778319Y-99214510D01*
X140786007Y-99196919D01*
X140793615Y-99178972D01*
X140801143Y-99160671D01*
X140808590Y-99142015D01*
X140815958Y-99123005D01*
X140823245Y-99103639D01*
X140830452Y-99083918D01*
X140837579Y-99063842D01*
X140844626Y-99043412D01*
X140851535Y-99022682D01*
X140858341Y-99001709D01*
X140865045Y-98980493D01*
X140871645Y-98959034D01*
X140878142Y-98937331D01*
X140884536Y-98915385D01*
X140890828Y-98893195D01*
X140897016Y-98870763D01*
X140903101Y-98848087D01*
X140909083Y-98825168D01*
X140914962Y-98802005D01*
X140920738Y-98778599D01*
X140926411Y-98754950D01*
X140931981Y-98731058D01*
X140937447Y-98706922D01*
X140942811Y-98682543D01*
X140933176Y-98678676D01*
X140919168Y-98672286D01*
X140905694Y-98665187D01*
X140892755Y-98657379D01*
X140880350Y-98648863D01*
X140868480Y-98639639D01*
X140857145Y-98629707D01*
X140846344Y-98619065D01*
X140836078Y-98607716D01*
X140826346Y-98595658D01*
X140817148Y-98582892D01*
X140811381Y-98574041D01*
X140803428Y-98560543D01*
X140796311Y-98546782D01*
X140790032Y-98532757D01*
X140784591Y-98518468D01*
X140779986Y-98503914D01*
X140776219Y-98489097D01*
X140773288Y-98474016D01*
X140771195Y-98458670D01*
X140769940Y-98443061D01*
X140769550Y-98428286D01*
X140944643Y-98428286D01*
X140945314Y-98439909D01*
X140948507Y-98455609D01*
X140954330Y-98470643D01*
X140962782Y-98485011D01*
X140972120Y-98496796D01*
X140973854Y-98498667D01*
X140984948Y-98508645D01*
X140999389Y-98517583D01*
X141013050Y-98522929D01*
X141027897Y-98526136D01*
X141043928Y-98527205D01*
X141051237Y-98526319D01*
X141066502Y-98525552D01*
X141082030Y-98525373D01*
X141082030Y-98326803D01*
X141056751Y-98326803D01*
X141043851Y-98327151D01*
X141028873Y-98328521D01*
X141013520Y-98331200D01*
X141010997Y-98331771D01*
X140996966Y-98337316D01*
X140983986Y-98345888D01*
X140972120Y-98356479D01*
X140962782Y-98367375D01*
X140954330Y-98381586D01*
X140948507Y-98397409D01*
X140945609Y-98412255D01*
X140944643Y-98428286D01*
X140769550Y-98428286D01*
X140769521Y-98427187D01*
X140769608Y-98420027D01*
X140770590Y-98402391D01*
X140772664Y-98385130D01*
X140775828Y-98368244D01*
X140780084Y-98351735D01*
X140785431Y-98335601D01*
X140791869Y-98319842D01*
X140794676Y-98313620D01*
X140802205Y-98298515D01*
X140810468Y-98284053D01*
X140819464Y-98270236D01*
X140829194Y-98257063D01*
X140839657Y-98244533D01*
X140850854Y-98232648D01*
X140855528Y-98228035D01*
X140867639Y-98217018D01*
X140880358Y-98206733D01*
X140893685Y-98197182D01*
X140907620Y-98188365D01*
X140922164Y-98180281D01*
X140937316Y-98172930D01*
X140943528Y-98170224D01*
X140959322Y-98164222D01*
X140975492Y-98159312D01*
X140992038Y-98155493D01*
X141008959Y-98152765D01*
X141026255Y-98151128D01*
X141043928Y-98150582D01*
X141257152Y-98150582D01*
X141257152Y-99745000D01*
G37*
G04 #@! TO.C,TP10*
X108173250Y-131398571D02*
X108173250Y-131970000D01*
X108458964Y-131684285D02*
X107887535Y-131684285D01*
X108458964Y-132719999D02*
X108458964Y-132291428D01*
X108458964Y-132505713D02*
X107708964Y-132505713D01*
X107708964Y-132505713D02*
X107816107Y-132434285D01*
X107816107Y-132434285D02*
X107887535Y-132362856D01*
X107887535Y-132362856D02*
X107923250Y-132291428D01*
X107780392Y-133005714D02*
X107744678Y-133041428D01*
X107744678Y-133041428D02*
X107708964Y-133112857D01*
X107708964Y-133112857D02*
X107708964Y-133291428D01*
X107708964Y-133291428D02*
X107744678Y-133362857D01*
X107744678Y-133362857D02*
X107780392Y-133398571D01*
X107780392Y-133398571D02*
X107851821Y-133434285D01*
X107851821Y-133434285D02*
X107923250Y-133434285D01*
X107923250Y-133434285D02*
X108030392Y-133398571D01*
X108030392Y-133398571D02*
X108458964Y-132969999D01*
X108458964Y-132969999D02*
X108458964Y-133434285D01*
X107708964Y-133648571D02*
X108458964Y-133898571D01*
X108458964Y-133898571D02*
X107708964Y-134148571D01*
X108724964Y-131416428D02*
X108724964Y-131845000D01*
X109474964Y-131630714D02*
X108724964Y-131630714D01*
X109474964Y-132095000D02*
X108724964Y-132095000D01*
X108724964Y-132095000D02*
X108724964Y-132380714D01*
X108724964Y-132380714D02*
X108760678Y-132452143D01*
X108760678Y-132452143D02*
X108796392Y-132487857D01*
X108796392Y-132487857D02*
X108867821Y-132523571D01*
X108867821Y-132523571D02*
X108974964Y-132523571D01*
X108974964Y-132523571D02*
X109046392Y-132487857D01*
X109046392Y-132487857D02*
X109082107Y-132452143D01*
X109082107Y-132452143D02*
X109117821Y-132380714D01*
X109117821Y-132380714D02*
X109117821Y-132095000D01*
X109474964Y-133237857D02*
X109474964Y-132809286D01*
X109474964Y-133023571D02*
X108724964Y-133023571D01*
X108724964Y-133023571D02*
X108832107Y-132952143D01*
X108832107Y-132952143D02*
X108903535Y-132880714D01*
X108903535Y-132880714D02*
X108939250Y-132809286D01*
X108724964Y-133702143D02*
X108724964Y-133773572D01*
X108724964Y-133773572D02*
X108760678Y-133845000D01*
X108760678Y-133845000D02*
X108796392Y-133880715D01*
X108796392Y-133880715D02*
X108867821Y-133916429D01*
X108867821Y-133916429D02*
X109010678Y-133952143D01*
X109010678Y-133952143D02*
X109189250Y-133952143D01*
X109189250Y-133952143D02*
X109332107Y-133916429D01*
X109332107Y-133916429D02*
X109403535Y-133880715D01*
X109403535Y-133880715D02*
X109439250Y-133845000D01*
X109439250Y-133845000D02*
X109474964Y-133773572D01*
X109474964Y-133773572D02*
X109474964Y-133702143D01*
X109474964Y-133702143D02*
X109439250Y-133630715D01*
X109439250Y-133630715D02*
X109403535Y-133595000D01*
X109403535Y-133595000D02*
X109332107Y-133559286D01*
X109332107Y-133559286D02*
X109189250Y-133523572D01*
X109189250Y-133523572D02*
X109010678Y-133523572D01*
X109010678Y-133523572D02*
X108867821Y-133559286D01*
X108867821Y-133559286D02*
X108796392Y-133595000D01*
X108796392Y-133595000D02*
X108760678Y-133630715D01*
X108760678Y-133630715D02*
X108724964Y-133702143D01*
G04 #@! TO.C,TP11*
X107744678Y-123778571D02*
X107708964Y-123707143D01*
X107708964Y-123707143D02*
X107708964Y-123600000D01*
X107708964Y-123600000D02*
X107744678Y-123492857D01*
X107744678Y-123492857D02*
X107816107Y-123421428D01*
X107816107Y-123421428D02*
X107887535Y-123385714D01*
X107887535Y-123385714D02*
X108030392Y-123350000D01*
X108030392Y-123350000D02*
X108137535Y-123350000D01*
X108137535Y-123350000D02*
X108280392Y-123385714D01*
X108280392Y-123385714D02*
X108351821Y-123421428D01*
X108351821Y-123421428D02*
X108423250Y-123492857D01*
X108423250Y-123492857D02*
X108458964Y-123600000D01*
X108458964Y-123600000D02*
X108458964Y-123671428D01*
X108458964Y-123671428D02*
X108423250Y-123778571D01*
X108423250Y-123778571D02*
X108387535Y-123814285D01*
X108387535Y-123814285D02*
X108137535Y-123814285D01*
X108137535Y-123814285D02*
X108137535Y-123671428D01*
X108458964Y-124135714D02*
X107708964Y-124135714D01*
X107708964Y-124135714D02*
X108458964Y-124564285D01*
X108458964Y-124564285D02*
X107708964Y-124564285D01*
X108458964Y-124921428D02*
X107708964Y-124921428D01*
X107708964Y-124921428D02*
X107708964Y-125099999D01*
X107708964Y-125099999D02*
X107744678Y-125207142D01*
X107744678Y-125207142D02*
X107816107Y-125278571D01*
X107816107Y-125278571D02*
X107887535Y-125314285D01*
X107887535Y-125314285D02*
X108030392Y-125349999D01*
X108030392Y-125349999D02*
X108137535Y-125349999D01*
X108137535Y-125349999D02*
X108280392Y-125314285D01*
X108280392Y-125314285D02*
X108351821Y-125278571D01*
X108351821Y-125278571D02*
X108423250Y-125207142D01*
X108423250Y-125207142D02*
X108458964Y-125099999D01*
X108458964Y-125099999D02*
X108458964Y-124921428D01*
X108724964Y-123046428D02*
X108724964Y-123475000D01*
X109474964Y-123260714D02*
X108724964Y-123260714D01*
X109474964Y-123725000D02*
X108724964Y-123725000D01*
X108724964Y-123725000D02*
X108724964Y-124010714D01*
X108724964Y-124010714D02*
X108760678Y-124082143D01*
X108760678Y-124082143D02*
X108796392Y-124117857D01*
X108796392Y-124117857D02*
X108867821Y-124153571D01*
X108867821Y-124153571D02*
X108974964Y-124153571D01*
X108974964Y-124153571D02*
X109046392Y-124117857D01*
X109046392Y-124117857D02*
X109082107Y-124082143D01*
X109082107Y-124082143D02*
X109117821Y-124010714D01*
X109117821Y-124010714D02*
X109117821Y-123725000D01*
X109474964Y-124867857D02*
X109474964Y-124439286D01*
X109474964Y-124653571D02*
X108724964Y-124653571D01*
X108724964Y-124653571D02*
X108832107Y-124582143D01*
X108832107Y-124582143D02*
X108903535Y-124510714D01*
X108903535Y-124510714D02*
X108939250Y-124439286D01*
X109474964Y-125582143D02*
X109474964Y-125153572D01*
X109474964Y-125367857D02*
X108724964Y-125367857D01*
X108724964Y-125367857D02*
X108832107Y-125296429D01*
X108832107Y-125296429D02*
X108903535Y-125225000D01*
X108903535Y-125225000D02*
X108939250Y-125153572D01*
G04 #@! TO.C,TP12*
X108724964Y-114156428D02*
X108724964Y-114585000D01*
X109474964Y-114370714D02*
X108724964Y-114370714D01*
X109474964Y-114835000D02*
X108724964Y-114835000D01*
X108724964Y-114835000D02*
X108724964Y-115120714D01*
X108724964Y-115120714D02*
X108760678Y-115192143D01*
X108760678Y-115192143D02*
X108796392Y-115227857D01*
X108796392Y-115227857D02*
X108867821Y-115263571D01*
X108867821Y-115263571D02*
X108974964Y-115263571D01*
X108974964Y-115263571D02*
X109046392Y-115227857D01*
X109046392Y-115227857D02*
X109082107Y-115192143D01*
X109082107Y-115192143D02*
X109117821Y-115120714D01*
X109117821Y-115120714D02*
X109117821Y-114835000D01*
X109474964Y-115977857D02*
X109474964Y-115549286D01*
X109474964Y-115763571D02*
X108724964Y-115763571D01*
X108724964Y-115763571D02*
X108832107Y-115692143D01*
X108832107Y-115692143D02*
X108903535Y-115620714D01*
X108903535Y-115620714D02*
X108939250Y-115549286D01*
X108796392Y-116263572D02*
X108760678Y-116299286D01*
X108760678Y-116299286D02*
X108724964Y-116370715D01*
X108724964Y-116370715D02*
X108724964Y-116549286D01*
X108724964Y-116549286D02*
X108760678Y-116620715D01*
X108760678Y-116620715D02*
X108796392Y-116656429D01*
X108796392Y-116656429D02*
X108867821Y-116692143D01*
X108867821Y-116692143D02*
X108939250Y-116692143D01*
X108939250Y-116692143D02*
X109046392Y-116656429D01*
X109046392Y-116656429D02*
X109474964Y-116227857D01*
X109474964Y-116227857D02*
X109474964Y-116692143D01*
X108173250Y-114138571D02*
X108173250Y-114710000D01*
X108458964Y-115459999D02*
X108458964Y-115031428D01*
X108458964Y-115245713D02*
X107708964Y-115245713D01*
X107708964Y-115245713D02*
X107816107Y-115174285D01*
X107816107Y-115174285D02*
X107887535Y-115102856D01*
X107887535Y-115102856D02*
X107923250Y-115031428D01*
X107780392Y-115745714D02*
X107744678Y-115781428D01*
X107744678Y-115781428D02*
X107708964Y-115852857D01*
X107708964Y-115852857D02*
X107708964Y-116031428D01*
X107708964Y-116031428D02*
X107744678Y-116102857D01*
X107744678Y-116102857D02*
X107780392Y-116138571D01*
X107780392Y-116138571D02*
X107851821Y-116174285D01*
X107851821Y-116174285D02*
X107923250Y-116174285D01*
X107923250Y-116174285D02*
X108030392Y-116138571D01*
X108030392Y-116138571D02*
X108458964Y-115709999D01*
X108458964Y-115709999D02*
X108458964Y-116174285D01*
X107708964Y-116388571D02*
X108458964Y-116638571D01*
X108458964Y-116638571D02*
X107708964Y-116888571D01*
G04 #@! TO.C,R71*
X123106964Y-80687856D02*
X122749821Y-80437856D01*
X123106964Y-80259285D02*
X122356964Y-80259285D01*
X122356964Y-80259285D02*
X122356964Y-80544999D01*
X122356964Y-80544999D02*
X122392678Y-80616428D01*
X122392678Y-80616428D02*
X122428392Y-80652142D01*
X122428392Y-80652142D02*
X122499821Y-80687856D01*
X122499821Y-80687856D02*
X122606964Y-80687856D01*
X122606964Y-80687856D02*
X122678392Y-80652142D01*
X122678392Y-80652142D02*
X122714107Y-80616428D01*
X122714107Y-80616428D02*
X122749821Y-80544999D01*
X122749821Y-80544999D02*
X122749821Y-80259285D01*
X122356964Y-80937856D02*
X122356964Y-81437856D01*
X122356964Y-81437856D02*
X123106964Y-81116428D01*
X123106964Y-82116428D02*
X123106964Y-81687857D01*
X123106964Y-81902142D02*
X122356964Y-81902142D01*
X122356964Y-81902142D02*
X122464107Y-81830714D01*
X122464107Y-81830714D02*
X122535535Y-81759285D01*
X122535535Y-81759285D02*
X122571250Y-81687857D01*
X125476964Y-80723571D02*
X125476964Y-80295000D01*
X125476964Y-80509285D02*
X124726964Y-80509285D01*
X124726964Y-80509285D02*
X124834107Y-80437857D01*
X124834107Y-80437857D02*
X124905535Y-80366428D01*
X124905535Y-80366428D02*
X124941250Y-80295000D01*
X124726964Y-81187857D02*
X124726964Y-81259286D01*
X124726964Y-81259286D02*
X124762678Y-81330714D01*
X124762678Y-81330714D02*
X124798392Y-81366429D01*
X124798392Y-81366429D02*
X124869821Y-81402143D01*
X124869821Y-81402143D02*
X125012678Y-81437857D01*
X125012678Y-81437857D02*
X125191250Y-81437857D01*
X125191250Y-81437857D02*
X125334107Y-81402143D01*
X125334107Y-81402143D02*
X125405535Y-81366429D01*
X125405535Y-81366429D02*
X125441250Y-81330714D01*
X125441250Y-81330714D02*
X125476964Y-81259286D01*
X125476964Y-81259286D02*
X125476964Y-81187857D01*
X125476964Y-81187857D02*
X125441250Y-81116429D01*
X125441250Y-81116429D02*
X125405535Y-81080714D01*
X125405535Y-81080714D02*
X125334107Y-81045000D01*
X125334107Y-81045000D02*
X125191250Y-81009286D01*
X125191250Y-81009286D02*
X125012678Y-81009286D01*
X125012678Y-81009286D02*
X124869821Y-81045000D01*
X124869821Y-81045000D02*
X124798392Y-81080714D01*
X124798392Y-81080714D02*
X124762678Y-81116429D01*
X124762678Y-81116429D02*
X124726964Y-81187857D01*
X125476964Y-81759286D02*
X124726964Y-81759286D01*
X125191250Y-81830715D02*
X125476964Y-82045000D01*
X124976964Y-82045000D02*
X125262678Y-81759286D01*
G04 #@! TO.C,R65*
X151046964Y-123857856D02*
X150689821Y-123607856D01*
X151046964Y-123429285D02*
X150296964Y-123429285D01*
X150296964Y-123429285D02*
X150296964Y-123714999D01*
X150296964Y-123714999D02*
X150332678Y-123786428D01*
X150332678Y-123786428D02*
X150368392Y-123822142D01*
X150368392Y-123822142D02*
X150439821Y-123857856D01*
X150439821Y-123857856D02*
X150546964Y-123857856D01*
X150546964Y-123857856D02*
X150618392Y-123822142D01*
X150618392Y-123822142D02*
X150654107Y-123786428D01*
X150654107Y-123786428D02*
X150689821Y-123714999D01*
X150689821Y-123714999D02*
X150689821Y-123429285D01*
X150296964Y-124500714D02*
X150296964Y-124357856D01*
X150296964Y-124357856D02*
X150332678Y-124286428D01*
X150332678Y-124286428D02*
X150368392Y-124250714D01*
X150368392Y-124250714D02*
X150475535Y-124179285D01*
X150475535Y-124179285D02*
X150618392Y-124143571D01*
X150618392Y-124143571D02*
X150904107Y-124143571D01*
X150904107Y-124143571D02*
X150975535Y-124179285D01*
X150975535Y-124179285D02*
X151011250Y-124214999D01*
X151011250Y-124214999D02*
X151046964Y-124286428D01*
X151046964Y-124286428D02*
X151046964Y-124429285D01*
X151046964Y-124429285D02*
X151011250Y-124500714D01*
X151011250Y-124500714D02*
X150975535Y-124536428D01*
X150975535Y-124536428D02*
X150904107Y-124572142D01*
X150904107Y-124572142D02*
X150725535Y-124572142D01*
X150725535Y-124572142D02*
X150654107Y-124536428D01*
X150654107Y-124536428D02*
X150618392Y-124500714D01*
X150618392Y-124500714D02*
X150582678Y-124429285D01*
X150582678Y-124429285D02*
X150582678Y-124286428D01*
X150582678Y-124286428D02*
X150618392Y-124214999D01*
X150618392Y-124214999D02*
X150654107Y-124179285D01*
X150654107Y-124179285D02*
X150725535Y-124143571D01*
X150296964Y-125250714D02*
X150296964Y-124893571D01*
X150296964Y-124893571D02*
X150654107Y-124857857D01*
X150654107Y-124857857D02*
X150618392Y-124893571D01*
X150618392Y-124893571D02*
X150582678Y-124965000D01*
X150582678Y-124965000D02*
X150582678Y-125143571D01*
X150582678Y-125143571D02*
X150618392Y-125215000D01*
X150618392Y-125215000D02*
X150654107Y-125250714D01*
X150654107Y-125250714D02*
X150725535Y-125286428D01*
X150725535Y-125286428D02*
X150904107Y-125286428D01*
X150904107Y-125286428D02*
X150975535Y-125250714D01*
X150975535Y-125250714D02*
X151011250Y-125215000D01*
X151011250Y-125215000D02*
X151046964Y-125143571D01*
X151046964Y-125143571D02*
X151046964Y-124965000D01*
X151046964Y-124965000D02*
X151011250Y-124893571D01*
X151011250Y-124893571D02*
X150975535Y-124857857D01*
X153416964Y-123536428D02*
X153416964Y-123107857D01*
X153416964Y-123322142D02*
X152666964Y-123322142D01*
X152666964Y-123322142D02*
X152774107Y-123250714D01*
X152774107Y-123250714D02*
X152845535Y-123179285D01*
X152845535Y-123179285D02*
X152881250Y-123107857D01*
X152666964Y-124000714D02*
X152666964Y-124072143D01*
X152666964Y-124072143D02*
X152702678Y-124143571D01*
X152702678Y-124143571D02*
X152738392Y-124179286D01*
X152738392Y-124179286D02*
X152809821Y-124215000D01*
X152809821Y-124215000D02*
X152952678Y-124250714D01*
X152952678Y-124250714D02*
X153131250Y-124250714D01*
X153131250Y-124250714D02*
X153274107Y-124215000D01*
X153274107Y-124215000D02*
X153345535Y-124179286D01*
X153345535Y-124179286D02*
X153381250Y-124143571D01*
X153381250Y-124143571D02*
X153416964Y-124072143D01*
X153416964Y-124072143D02*
X153416964Y-124000714D01*
X153416964Y-124000714D02*
X153381250Y-123929286D01*
X153381250Y-123929286D02*
X153345535Y-123893571D01*
X153345535Y-123893571D02*
X153274107Y-123857857D01*
X153274107Y-123857857D02*
X153131250Y-123822143D01*
X153131250Y-123822143D02*
X152952678Y-123822143D01*
X152952678Y-123822143D02*
X152809821Y-123857857D01*
X152809821Y-123857857D02*
X152738392Y-123893571D01*
X152738392Y-123893571D02*
X152702678Y-123929286D01*
X152702678Y-123929286D02*
X152666964Y-124000714D01*
X152666964Y-124715000D02*
X152666964Y-124786429D01*
X152666964Y-124786429D02*
X152702678Y-124857857D01*
X152702678Y-124857857D02*
X152738392Y-124893572D01*
X152738392Y-124893572D02*
X152809821Y-124929286D01*
X152809821Y-124929286D02*
X152952678Y-124965000D01*
X152952678Y-124965000D02*
X153131250Y-124965000D01*
X153131250Y-124965000D02*
X153274107Y-124929286D01*
X153274107Y-124929286D02*
X153345535Y-124893572D01*
X153345535Y-124893572D02*
X153381250Y-124857857D01*
X153381250Y-124857857D02*
X153416964Y-124786429D01*
X153416964Y-124786429D02*
X153416964Y-124715000D01*
X153416964Y-124715000D02*
X153381250Y-124643572D01*
X153381250Y-124643572D02*
X153345535Y-124607857D01*
X153345535Y-124607857D02*
X153274107Y-124572143D01*
X153274107Y-124572143D02*
X153131250Y-124536429D01*
X153131250Y-124536429D02*
X152952678Y-124536429D01*
X152952678Y-124536429D02*
X152809821Y-124572143D01*
X152809821Y-124572143D02*
X152738392Y-124607857D01*
X152738392Y-124607857D02*
X152702678Y-124643572D01*
X152702678Y-124643572D02*
X152666964Y-124715000D01*
X153416964Y-125286429D02*
X152666964Y-125286429D01*
X153131250Y-125357858D02*
X153416964Y-125572143D01*
X152916964Y-125572143D02*
X153202678Y-125286429D01*
G04 #@! TO.C,R74*
X118491964Y-80687856D02*
X118134821Y-80437856D01*
X118491964Y-80259285D02*
X117741964Y-80259285D01*
X117741964Y-80259285D02*
X117741964Y-80544999D01*
X117741964Y-80544999D02*
X117777678Y-80616428D01*
X117777678Y-80616428D02*
X117813392Y-80652142D01*
X117813392Y-80652142D02*
X117884821Y-80687856D01*
X117884821Y-80687856D02*
X117991964Y-80687856D01*
X117991964Y-80687856D02*
X118063392Y-80652142D01*
X118063392Y-80652142D02*
X118099107Y-80616428D01*
X118099107Y-80616428D02*
X118134821Y-80544999D01*
X118134821Y-80544999D02*
X118134821Y-80259285D01*
X117741964Y-80937856D02*
X117741964Y-81437856D01*
X117741964Y-81437856D02*
X118491964Y-81116428D01*
X117991964Y-82045000D02*
X118491964Y-82045000D01*
X117706250Y-81866428D02*
X118241964Y-81687857D01*
X118241964Y-81687857D02*
X118241964Y-82152142D01*
X120396964Y-81080714D02*
X120396964Y-80652143D01*
X120396964Y-80866428D02*
X119646964Y-80866428D01*
X119646964Y-80866428D02*
X119754107Y-80795000D01*
X119754107Y-80795000D02*
X119825535Y-80723571D01*
X119825535Y-80723571D02*
X119861250Y-80652143D01*
X120396964Y-81402143D02*
X119646964Y-81402143D01*
X120111250Y-81473572D02*
X120396964Y-81687857D01*
X119896964Y-81687857D02*
X120182678Y-81402143D01*
G04 #@! TO.C,R66*
X148166964Y-55287856D02*
X147809821Y-55037856D01*
X148166964Y-54859285D02*
X147416964Y-54859285D01*
X147416964Y-54859285D02*
X147416964Y-55144999D01*
X147416964Y-55144999D02*
X147452678Y-55216428D01*
X147452678Y-55216428D02*
X147488392Y-55252142D01*
X147488392Y-55252142D02*
X147559821Y-55287856D01*
X147559821Y-55287856D02*
X147666964Y-55287856D01*
X147666964Y-55287856D02*
X147738392Y-55252142D01*
X147738392Y-55252142D02*
X147774107Y-55216428D01*
X147774107Y-55216428D02*
X147809821Y-55144999D01*
X147809821Y-55144999D02*
X147809821Y-54859285D01*
X147416964Y-55930714D02*
X147416964Y-55787856D01*
X147416964Y-55787856D02*
X147452678Y-55716428D01*
X147452678Y-55716428D02*
X147488392Y-55680714D01*
X147488392Y-55680714D02*
X147595535Y-55609285D01*
X147595535Y-55609285D02*
X147738392Y-55573571D01*
X147738392Y-55573571D02*
X148024107Y-55573571D01*
X148024107Y-55573571D02*
X148095535Y-55609285D01*
X148095535Y-55609285D02*
X148131250Y-55644999D01*
X148131250Y-55644999D02*
X148166964Y-55716428D01*
X148166964Y-55716428D02*
X148166964Y-55859285D01*
X148166964Y-55859285D02*
X148131250Y-55930714D01*
X148131250Y-55930714D02*
X148095535Y-55966428D01*
X148095535Y-55966428D02*
X148024107Y-56002142D01*
X148024107Y-56002142D02*
X147845535Y-56002142D01*
X147845535Y-56002142D02*
X147774107Y-55966428D01*
X147774107Y-55966428D02*
X147738392Y-55930714D01*
X147738392Y-55930714D02*
X147702678Y-55859285D01*
X147702678Y-55859285D02*
X147702678Y-55716428D01*
X147702678Y-55716428D02*
X147738392Y-55644999D01*
X147738392Y-55644999D02*
X147774107Y-55609285D01*
X147774107Y-55609285D02*
X147845535Y-55573571D01*
X147416964Y-56645000D02*
X147416964Y-56502142D01*
X147416964Y-56502142D02*
X147452678Y-56430714D01*
X147452678Y-56430714D02*
X147488392Y-56395000D01*
X147488392Y-56395000D02*
X147595535Y-56323571D01*
X147595535Y-56323571D02*
X147738392Y-56287857D01*
X147738392Y-56287857D02*
X148024107Y-56287857D01*
X148024107Y-56287857D02*
X148095535Y-56323571D01*
X148095535Y-56323571D02*
X148131250Y-56359285D01*
X148131250Y-56359285D02*
X148166964Y-56430714D01*
X148166964Y-56430714D02*
X148166964Y-56573571D01*
X148166964Y-56573571D02*
X148131250Y-56645000D01*
X148131250Y-56645000D02*
X148095535Y-56680714D01*
X148095535Y-56680714D02*
X148024107Y-56716428D01*
X148024107Y-56716428D02*
X147845535Y-56716428D01*
X147845535Y-56716428D02*
X147774107Y-56680714D01*
X147774107Y-56680714D02*
X147738392Y-56645000D01*
X147738392Y-56645000D02*
X147702678Y-56573571D01*
X147702678Y-56573571D02*
X147702678Y-56430714D01*
X147702678Y-56430714D02*
X147738392Y-56359285D01*
X147738392Y-56359285D02*
X147774107Y-56323571D01*
X147774107Y-56323571D02*
X147845535Y-56287857D01*
X145046964Y-55287857D02*
X145046964Y-54930714D01*
X145046964Y-54930714D02*
X145404107Y-54895000D01*
X145404107Y-54895000D02*
X145368392Y-54930714D01*
X145368392Y-54930714D02*
X145332678Y-55002143D01*
X145332678Y-55002143D02*
X145332678Y-55180714D01*
X145332678Y-55180714D02*
X145368392Y-55252143D01*
X145368392Y-55252143D02*
X145404107Y-55287857D01*
X145404107Y-55287857D02*
X145475535Y-55323571D01*
X145475535Y-55323571D02*
X145654107Y-55323571D01*
X145654107Y-55323571D02*
X145725535Y-55287857D01*
X145725535Y-55287857D02*
X145761250Y-55252143D01*
X145761250Y-55252143D02*
X145796964Y-55180714D01*
X145796964Y-55180714D02*
X145796964Y-55002143D01*
X145796964Y-55002143D02*
X145761250Y-54930714D01*
X145761250Y-54930714D02*
X145725535Y-54895000D01*
X145796964Y-56037857D02*
X145796964Y-55609286D01*
X145796964Y-55823571D02*
X145046964Y-55823571D01*
X145046964Y-55823571D02*
X145154107Y-55752143D01*
X145154107Y-55752143D02*
X145225535Y-55680714D01*
X145225535Y-55680714D02*
X145261250Y-55609286D01*
X145796964Y-56359286D02*
X145046964Y-56359286D01*
X145511250Y-56430715D02*
X145796964Y-56645000D01*
X145296964Y-56645000D02*
X145582678Y-56359286D01*
G04 #@! TO.C,C15*
X143725535Y-75107856D02*
X143761250Y-75072142D01*
X143761250Y-75072142D02*
X143796964Y-74964999D01*
X143796964Y-74964999D02*
X143796964Y-74893571D01*
X143796964Y-74893571D02*
X143761250Y-74786428D01*
X143761250Y-74786428D02*
X143689821Y-74714999D01*
X143689821Y-74714999D02*
X143618392Y-74679285D01*
X143618392Y-74679285D02*
X143475535Y-74643571D01*
X143475535Y-74643571D02*
X143368392Y-74643571D01*
X143368392Y-74643571D02*
X143225535Y-74679285D01*
X143225535Y-74679285D02*
X143154107Y-74714999D01*
X143154107Y-74714999D02*
X143082678Y-74786428D01*
X143082678Y-74786428D02*
X143046964Y-74893571D01*
X143046964Y-74893571D02*
X143046964Y-74964999D01*
X143046964Y-74964999D02*
X143082678Y-75072142D01*
X143082678Y-75072142D02*
X143118392Y-75107856D01*
X143796964Y-75822142D02*
X143796964Y-75393571D01*
X143796964Y-75607856D02*
X143046964Y-75607856D01*
X143046964Y-75607856D02*
X143154107Y-75536428D01*
X143154107Y-75536428D02*
X143225535Y-75464999D01*
X143225535Y-75464999D02*
X143261250Y-75393571D01*
X143046964Y-76500714D02*
X143046964Y-76143571D01*
X143046964Y-76143571D02*
X143404107Y-76107857D01*
X143404107Y-76107857D02*
X143368392Y-76143571D01*
X143368392Y-76143571D02*
X143332678Y-76215000D01*
X143332678Y-76215000D02*
X143332678Y-76393571D01*
X143332678Y-76393571D02*
X143368392Y-76465000D01*
X143368392Y-76465000D02*
X143404107Y-76500714D01*
X143404107Y-76500714D02*
X143475535Y-76536428D01*
X143475535Y-76536428D02*
X143654107Y-76536428D01*
X143654107Y-76536428D02*
X143725535Y-76500714D01*
X143725535Y-76500714D02*
X143761250Y-76465000D01*
X143761250Y-76465000D02*
X143796964Y-76393571D01*
X143796964Y-76393571D02*
X143796964Y-76215000D01*
X143796964Y-76215000D02*
X143761250Y-76143571D01*
X143761250Y-76143571D02*
X143725535Y-76107857D01*
X143796964Y-77929285D02*
X143796964Y-77500714D01*
X143796964Y-77714999D02*
X143046964Y-77714999D01*
X143046964Y-77714999D02*
X143154107Y-77643571D01*
X143154107Y-77643571D02*
X143225535Y-77572142D01*
X143225535Y-77572142D02*
X143261250Y-77500714D01*
X143046964Y-78393571D02*
X143046964Y-78465000D01*
X143046964Y-78465000D02*
X143082678Y-78536428D01*
X143082678Y-78536428D02*
X143118392Y-78572143D01*
X143118392Y-78572143D02*
X143189821Y-78607857D01*
X143189821Y-78607857D02*
X143332678Y-78643571D01*
X143332678Y-78643571D02*
X143511250Y-78643571D01*
X143511250Y-78643571D02*
X143654107Y-78607857D01*
X143654107Y-78607857D02*
X143725535Y-78572143D01*
X143725535Y-78572143D02*
X143761250Y-78536428D01*
X143761250Y-78536428D02*
X143796964Y-78465000D01*
X143796964Y-78465000D02*
X143796964Y-78393571D01*
X143796964Y-78393571D02*
X143761250Y-78322143D01*
X143761250Y-78322143D02*
X143725535Y-78286428D01*
X143725535Y-78286428D02*
X143654107Y-78250714D01*
X143654107Y-78250714D02*
X143511250Y-78215000D01*
X143511250Y-78215000D02*
X143332678Y-78215000D01*
X143332678Y-78215000D02*
X143189821Y-78250714D01*
X143189821Y-78250714D02*
X143118392Y-78286428D01*
X143118392Y-78286428D02*
X143082678Y-78322143D01*
X143082678Y-78322143D02*
X143046964Y-78393571D01*
X143046964Y-79107857D02*
X143046964Y-79179286D01*
X143046964Y-79179286D02*
X143082678Y-79250714D01*
X143082678Y-79250714D02*
X143118392Y-79286429D01*
X143118392Y-79286429D02*
X143189821Y-79322143D01*
X143189821Y-79322143D02*
X143332678Y-79357857D01*
X143332678Y-79357857D02*
X143511250Y-79357857D01*
X143511250Y-79357857D02*
X143654107Y-79322143D01*
X143654107Y-79322143D02*
X143725535Y-79286429D01*
X143725535Y-79286429D02*
X143761250Y-79250714D01*
X143761250Y-79250714D02*
X143796964Y-79179286D01*
X143796964Y-79179286D02*
X143796964Y-79107857D01*
X143796964Y-79107857D02*
X143761250Y-79036429D01*
X143761250Y-79036429D02*
X143725535Y-79000714D01*
X143725535Y-79000714D02*
X143654107Y-78965000D01*
X143654107Y-78965000D02*
X143511250Y-78929286D01*
X143511250Y-78929286D02*
X143332678Y-78929286D01*
X143332678Y-78929286D02*
X143189821Y-78965000D01*
X143189821Y-78965000D02*
X143118392Y-79000714D01*
X143118392Y-79000714D02*
X143082678Y-79036429D01*
X143082678Y-79036429D02*
X143046964Y-79107857D01*
X143296964Y-79679286D02*
X143796964Y-79679286D01*
X143368392Y-79679286D02*
X143332678Y-79715000D01*
X143332678Y-79715000D02*
X143296964Y-79786429D01*
X143296964Y-79786429D02*
X143296964Y-79893572D01*
X143296964Y-79893572D02*
X143332678Y-79965000D01*
X143332678Y-79965000D02*
X143404107Y-80000715D01*
X143404107Y-80000715D02*
X143796964Y-80000715D01*
X143404107Y-80607857D02*
X143404107Y-80357857D01*
X143796964Y-80357857D02*
X143046964Y-80357857D01*
X143046964Y-80357857D02*
X143046964Y-80715000D01*
G04 #@! TO.C,C17*
X147692143Y-139125535D02*
X147727857Y-139161250D01*
X147727857Y-139161250D02*
X147835000Y-139196964D01*
X147835000Y-139196964D02*
X147906428Y-139196964D01*
X147906428Y-139196964D02*
X148013571Y-139161250D01*
X148013571Y-139161250D02*
X148085000Y-139089821D01*
X148085000Y-139089821D02*
X148120714Y-139018392D01*
X148120714Y-139018392D02*
X148156428Y-138875535D01*
X148156428Y-138875535D02*
X148156428Y-138768392D01*
X148156428Y-138768392D02*
X148120714Y-138625535D01*
X148120714Y-138625535D02*
X148085000Y-138554107D01*
X148085000Y-138554107D02*
X148013571Y-138482678D01*
X148013571Y-138482678D02*
X147906428Y-138446964D01*
X147906428Y-138446964D02*
X147835000Y-138446964D01*
X147835000Y-138446964D02*
X147727857Y-138482678D01*
X147727857Y-138482678D02*
X147692143Y-138518392D01*
X146977857Y-139196964D02*
X147406428Y-139196964D01*
X147192143Y-139196964D02*
X147192143Y-138446964D01*
X147192143Y-138446964D02*
X147263571Y-138554107D01*
X147263571Y-138554107D02*
X147335000Y-138625535D01*
X147335000Y-138625535D02*
X147406428Y-138661250D01*
X146727857Y-138446964D02*
X146227857Y-138446964D01*
X146227857Y-138446964D02*
X146549285Y-139196964D01*
X144870714Y-139196964D02*
X145299285Y-139196964D01*
X145085000Y-139196964D02*
X145085000Y-138446964D01*
X145085000Y-138446964D02*
X145156428Y-138554107D01*
X145156428Y-138554107D02*
X145227857Y-138625535D01*
X145227857Y-138625535D02*
X145299285Y-138661250D01*
X144406428Y-138446964D02*
X144334999Y-138446964D01*
X144334999Y-138446964D02*
X144263571Y-138482678D01*
X144263571Y-138482678D02*
X144227857Y-138518392D01*
X144227857Y-138518392D02*
X144192142Y-138589821D01*
X144192142Y-138589821D02*
X144156428Y-138732678D01*
X144156428Y-138732678D02*
X144156428Y-138911250D01*
X144156428Y-138911250D02*
X144192142Y-139054107D01*
X144192142Y-139054107D02*
X144227857Y-139125535D01*
X144227857Y-139125535D02*
X144263571Y-139161250D01*
X144263571Y-139161250D02*
X144334999Y-139196964D01*
X144334999Y-139196964D02*
X144406428Y-139196964D01*
X144406428Y-139196964D02*
X144477857Y-139161250D01*
X144477857Y-139161250D02*
X144513571Y-139125535D01*
X144513571Y-139125535D02*
X144549285Y-139054107D01*
X144549285Y-139054107D02*
X144584999Y-138911250D01*
X144584999Y-138911250D02*
X144584999Y-138732678D01*
X144584999Y-138732678D02*
X144549285Y-138589821D01*
X144549285Y-138589821D02*
X144513571Y-138518392D01*
X144513571Y-138518392D02*
X144477857Y-138482678D01*
X144477857Y-138482678D02*
X144406428Y-138446964D01*
X143692142Y-138446964D02*
X143620713Y-138446964D01*
X143620713Y-138446964D02*
X143549285Y-138482678D01*
X143549285Y-138482678D02*
X143513571Y-138518392D01*
X143513571Y-138518392D02*
X143477856Y-138589821D01*
X143477856Y-138589821D02*
X143442142Y-138732678D01*
X143442142Y-138732678D02*
X143442142Y-138911250D01*
X143442142Y-138911250D02*
X143477856Y-139054107D01*
X143477856Y-139054107D02*
X143513571Y-139125535D01*
X143513571Y-139125535D02*
X143549285Y-139161250D01*
X143549285Y-139161250D02*
X143620713Y-139196964D01*
X143620713Y-139196964D02*
X143692142Y-139196964D01*
X143692142Y-139196964D02*
X143763571Y-139161250D01*
X143763571Y-139161250D02*
X143799285Y-139125535D01*
X143799285Y-139125535D02*
X143834999Y-139054107D01*
X143834999Y-139054107D02*
X143870713Y-138911250D01*
X143870713Y-138911250D02*
X143870713Y-138732678D01*
X143870713Y-138732678D02*
X143834999Y-138589821D01*
X143834999Y-138589821D02*
X143799285Y-138518392D01*
X143799285Y-138518392D02*
X143763571Y-138482678D01*
X143763571Y-138482678D02*
X143692142Y-138446964D01*
X143120713Y-138696964D02*
X143120713Y-139196964D01*
X143120713Y-138768392D02*
X143084999Y-138732678D01*
X143084999Y-138732678D02*
X143013570Y-138696964D01*
X143013570Y-138696964D02*
X142906427Y-138696964D01*
X142906427Y-138696964D02*
X142834999Y-138732678D01*
X142834999Y-138732678D02*
X142799285Y-138804107D01*
X142799285Y-138804107D02*
X142799285Y-139196964D01*
X142192142Y-138804107D02*
X142442142Y-138804107D01*
X142442142Y-139196964D02*
X142442142Y-138446964D01*
X142442142Y-138446964D02*
X142084999Y-138446964D01*
G04 #@! TO.C,R68*
X146177964Y-123867856D02*
X145820821Y-123617856D01*
X146177964Y-123439285D02*
X145427964Y-123439285D01*
X145427964Y-123439285D02*
X145427964Y-123724999D01*
X145427964Y-123724999D02*
X145463678Y-123796428D01*
X145463678Y-123796428D02*
X145499392Y-123832142D01*
X145499392Y-123832142D02*
X145570821Y-123867856D01*
X145570821Y-123867856D02*
X145677964Y-123867856D01*
X145677964Y-123867856D02*
X145749392Y-123832142D01*
X145749392Y-123832142D02*
X145785107Y-123796428D01*
X145785107Y-123796428D02*
X145820821Y-123724999D01*
X145820821Y-123724999D02*
X145820821Y-123439285D01*
X145427964Y-124510714D02*
X145427964Y-124367856D01*
X145427964Y-124367856D02*
X145463678Y-124296428D01*
X145463678Y-124296428D02*
X145499392Y-124260714D01*
X145499392Y-124260714D02*
X145606535Y-124189285D01*
X145606535Y-124189285D02*
X145749392Y-124153571D01*
X145749392Y-124153571D02*
X146035107Y-124153571D01*
X146035107Y-124153571D02*
X146106535Y-124189285D01*
X146106535Y-124189285D02*
X146142250Y-124224999D01*
X146142250Y-124224999D02*
X146177964Y-124296428D01*
X146177964Y-124296428D02*
X146177964Y-124439285D01*
X146177964Y-124439285D02*
X146142250Y-124510714D01*
X146142250Y-124510714D02*
X146106535Y-124546428D01*
X146106535Y-124546428D02*
X146035107Y-124582142D01*
X146035107Y-124582142D02*
X145856535Y-124582142D01*
X145856535Y-124582142D02*
X145785107Y-124546428D01*
X145785107Y-124546428D02*
X145749392Y-124510714D01*
X145749392Y-124510714D02*
X145713678Y-124439285D01*
X145713678Y-124439285D02*
X145713678Y-124296428D01*
X145713678Y-124296428D02*
X145749392Y-124224999D01*
X145749392Y-124224999D02*
X145785107Y-124189285D01*
X145785107Y-124189285D02*
X145856535Y-124153571D01*
X145749392Y-125010714D02*
X145713678Y-124939285D01*
X145713678Y-124939285D02*
X145677964Y-124903571D01*
X145677964Y-124903571D02*
X145606535Y-124867857D01*
X145606535Y-124867857D02*
X145570821Y-124867857D01*
X145570821Y-124867857D02*
X145499392Y-124903571D01*
X145499392Y-124903571D02*
X145463678Y-124939285D01*
X145463678Y-124939285D02*
X145427964Y-125010714D01*
X145427964Y-125010714D02*
X145427964Y-125153571D01*
X145427964Y-125153571D02*
X145463678Y-125225000D01*
X145463678Y-125225000D02*
X145499392Y-125260714D01*
X145499392Y-125260714D02*
X145570821Y-125296428D01*
X145570821Y-125296428D02*
X145606535Y-125296428D01*
X145606535Y-125296428D02*
X145677964Y-125260714D01*
X145677964Y-125260714D02*
X145713678Y-125225000D01*
X145713678Y-125225000D02*
X145749392Y-125153571D01*
X145749392Y-125153571D02*
X145749392Y-125010714D01*
X145749392Y-125010714D02*
X145785107Y-124939285D01*
X145785107Y-124939285D02*
X145820821Y-124903571D01*
X145820821Y-124903571D02*
X145892250Y-124867857D01*
X145892250Y-124867857D02*
X146035107Y-124867857D01*
X146035107Y-124867857D02*
X146106535Y-124903571D01*
X146106535Y-124903571D02*
X146142250Y-124939285D01*
X146142250Y-124939285D02*
X146177964Y-125010714D01*
X146177964Y-125010714D02*
X146177964Y-125153571D01*
X146177964Y-125153571D02*
X146142250Y-125225000D01*
X146142250Y-125225000D02*
X146106535Y-125260714D01*
X146106535Y-125260714D02*
X146035107Y-125296428D01*
X146035107Y-125296428D02*
X145892250Y-125296428D01*
X145892250Y-125296428D02*
X145820821Y-125260714D01*
X145820821Y-125260714D02*
X145785107Y-125225000D01*
X145785107Y-125225000D02*
X145749392Y-125153571D01*
X148326964Y-123536428D02*
X148326964Y-123107857D01*
X148326964Y-123322142D02*
X147576964Y-123322142D01*
X147576964Y-123322142D02*
X147684107Y-123250714D01*
X147684107Y-123250714D02*
X147755535Y-123179285D01*
X147755535Y-123179285D02*
X147791250Y-123107857D01*
X147576964Y-124000714D02*
X147576964Y-124072143D01*
X147576964Y-124072143D02*
X147612678Y-124143571D01*
X147612678Y-124143571D02*
X147648392Y-124179286D01*
X147648392Y-124179286D02*
X147719821Y-124215000D01*
X147719821Y-124215000D02*
X147862678Y-124250714D01*
X147862678Y-124250714D02*
X148041250Y-124250714D01*
X148041250Y-124250714D02*
X148184107Y-124215000D01*
X148184107Y-124215000D02*
X148255535Y-124179286D01*
X148255535Y-124179286D02*
X148291250Y-124143571D01*
X148291250Y-124143571D02*
X148326964Y-124072143D01*
X148326964Y-124072143D02*
X148326964Y-124000714D01*
X148326964Y-124000714D02*
X148291250Y-123929286D01*
X148291250Y-123929286D02*
X148255535Y-123893571D01*
X148255535Y-123893571D02*
X148184107Y-123857857D01*
X148184107Y-123857857D02*
X148041250Y-123822143D01*
X148041250Y-123822143D02*
X147862678Y-123822143D01*
X147862678Y-123822143D02*
X147719821Y-123857857D01*
X147719821Y-123857857D02*
X147648392Y-123893571D01*
X147648392Y-123893571D02*
X147612678Y-123929286D01*
X147612678Y-123929286D02*
X147576964Y-124000714D01*
X147576964Y-124715000D02*
X147576964Y-124786429D01*
X147576964Y-124786429D02*
X147612678Y-124857857D01*
X147612678Y-124857857D02*
X147648392Y-124893572D01*
X147648392Y-124893572D02*
X147719821Y-124929286D01*
X147719821Y-124929286D02*
X147862678Y-124965000D01*
X147862678Y-124965000D02*
X148041250Y-124965000D01*
X148041250Y-124965000D02*
X148184107Y-124929286D01*
X148184107Y-124929286D02*
X148255535Y-124893572D01*
X148255535Y-124893572D02*
X148291250Y-124857857D01*
X148291250Y-124857857D02*
X148326964Y-124786429D01*
X148326964Y-124786429D02*
X148326964Y-124715000D01*
X148326964Y-124715000D02*
X148291250Y-124643572D01*
X148291250Y-124643572D02*
X148255535Y-124607857D01*
X148255535Y-124607857D02*
X148184107Y-124572143D01*
X148184107Y-124572143D02*
X148041250Y-124536429D01*
X148041250Y-124536429D02*
X147862678Y-124536429D01*
X147862678Y-124536429D02*
X147719821Y-124572143D01*
X147719821Y-124572143D02*
X147648392Y-124607857D01*
X147648392Y-124607857D02*
X147612678Y-124643572D01*
X147612678Y-124643572D02*
X147576964Y-124715000D01*
X148326964Y-125286429D02*
X147576964Y-125286429D01*
X148041250Y-125357858D02*
X148326964Y-125572143D01*
X147826964Y-125572143D02*
X148112678Y-125286429D01*
G04 #@! TO.C,R59*
X154051964Y-55287856D02*
X153694821Y-55037856D01*
X154051964Y-54859285D02*
X153301964Y-54859285D01*
X153301964Y-54859285D02*
X153301964Y-55144999D01*
X153301964Y-55144999D02*
X153337678Y-55216428D01*
X153337678Y-55216428D02*
X153373392Y-55252142D01*
X153373392Y-55252142D02*
X153444821Y-55287856D01*
X153444821Y-55287856D02*
X153551964Y-55287856D01*
X153551964Y-55287856D02*
X153623392Y-55252142D01*
X153623392Y-55252142D02*
X153659107Y-55216428D01*
X153659107Y-55216428D02*
X153694821Y-55144999D01*
X153694821Y-55144999D02*
X153694821Y-54859285D01*
X153301964Y-55966428D02*
X153301964Y-55609285D01*
X153301964Y-55609285D02*
X153659107Y-55573571D01*
X153659107Y-55573571D02*
X153623392Y-55609285D01*
X153623392Y-55609285D02*
X153587678Y-55680714D01*
X153587678Y-55680714D02*
X153587678Y-55859285D01*
X153587678Y-55859285D02*
X153623392Y-55930714D01*
X153623392Y-55930714D02*
X153659107Y-55966428D01*
X153659107Y-55966428D02*
X153730535Y-56002142D01*
X153730535Y-56002142D02*
X153909107Y-56002142D01*
X153909107Y-56002142D02*
X153980535Y-55966428D01*
X153980535Y-55966428D02*
X154016250Y-55930714D01*
X154016250Y-55930714D02*
X154051964Y-55859285D01*
X154051964Y-55859285D02*
X154051964Y-55680714D01*
X154051964Y-55680714D02*
X154016250Y-55609285D01*
X154016250Y-55609285D02*
X153980535Y-55573571D01*
X154051964Y-56359285D02*
X154051964Y-56502142D01*
X154051964Y-56502142D02*
X154016250Y-56573571D01*
X154016250Y-56573571D02*
X153980535Y-56609285D01*
X153980535Y-56609285D02*
X153873392Y-56680714D01*
X153873392Y-56680714D02*
X153730535Y-56716428D01*
X153730535Y-56716428D02*
X153444821Y-56716428D01*
X153444821Y-56716428D02*
X153373392Y-56680714D01*
X153373392Y-56680714D02*
X153337678Y-56645000D01*
X153337678Y-56645000D02*
X153301964Y-56573571D01*
X153301964Y-56573571D02*
X153301964Y-56430714D01*
X153301964Y-56430714D02*
X153337678Y-56359285D01*
X153337678Y-56359285D02*
X153373392Y-56323571D01*
X153373392Y-56323571D02*
X153444821Y-56287857D01*
X153444821Y-56287857D02*
X153623392Y-56287857D01*
X153623392Y-56287857D02*
X153694821Y-56323571D01*
X153694821Y-56323571D02*
X153730535Y-56359285D01*
X153730535Y-56359285D02*
X153766250Y-56430714D01*
X153766250Y-56430714D02*
X153766250Y-56573571D01*
X153766250Y-56573571D02*
X153730535Y-56645000D01*
X153730535Y-56645000D02*
X153694821Y-56680714D01*
X153694821Y-56680714D02*
X153623392Y-56716428D01*
X155956964Y-54966428D02*
X155956964Y-54537857D01*
X155956964Y-54752142D02*
X155206964Y-54752142D01*
X155206964Y-54752142D02*
X155314107Y-54680714D01*
X155314107Y-54680714D02*
X155385535Y-54609285D01*
X155385535Y-54609285D02*
X155421250Y-54537857D01*
X155206964Y-55430714D02*
X155206964Y-55502143D01*
X155206964Y-55502143D02*
X155242678Y-55573571D01*
X155242678Y-55573571D02*
X155278392Y-55609286D01*
X155278392Y-55609286D02*
X155349821Y-55645000D01*
X155349821Y-55645000D02*
X155492678Y-55680714D01*
X155492678Y-55680714D02*
X155671250Y-55680714D01*
X155671250Y-55680714D02*
X155814107Y-55645000D01*
X155814107Y-55645000D02*
X155885535Y-55609286D01*
X155885535Y-55609286D02*
X155921250Y-55573571D01*
X155921250Y-55573571D02*
X155956964Y-55502143D01*
X155956964Y-55502143D02*
X155956964Y-55430714D01*
X155956964Y-55430714D02*
X155921250Y-55359286D01*
X155921250Y-55359286D02*
X155885535Y-55323571D01*
X155885535Y-55323571D02*
X155814107Y-55287857D01*
X155814107Y-55287857D02*
X155671250Y-55252143D01*
X155671250Y-55252143D02*
X155492678Y-55252143D01*
X155492678Y-55252143D02*
X155349821Y-55287857D01*
X155349821Y-55287857D02*
X155278392Y-55323571D01*
X155278392Y-55323571D02*
X155242678Y-55359286D01*
X155242678Y-55359286D02*
X155206964Y-55430714D01*
X155206964Y-56145000D02*
X155206964Y-56216429D01*
X155206964Y-56216429D02*
X155242678Y-56287857D01*
X155242678Y-56287857D02*
X155278392Y-56323572D01*
X155278392Y-56323572D02*
X155349821Y-56359286D01*
X155349821Y-56359286D02*
X155492678Y-56395000D01*
X155492678Y-56395000D02*
X155671250Y-56395000D01*
X155671250Y-56395000D02*
X155814107Y-56359286D01*
X155814107Y-56359286D02*
X155885535Y-56323572D01*
X155885535Y-56323572D02*
X155921250Y-56287857D01*
X155921250Y-56287857D02*
X155956964Y-56216429D01*
X155956964Y-56216429D02*
X155956964Y-56145000D01*
X155956964Y-56145000D02*
X155921250Y-56073572D01*
X155921250Y-56073572D02*
X155885535Y-56037857D01*
X155885535Y-56037857D02*
X155814107Y-56002143D01*
X155814107Y-56002143D02*
X155671250Y-55966429D01*
X155671250Y-55966429D02*
X155492678Y-55966429D01*
X155492678Y-55966429D02*
X155349821Y-56002143D01*
X155349821Y-56002143D02*
X155278392Y-56037857D01*
X155278392Y-56037857D02*
X155242678Y-56073572D01*
X155242678Y-56073572D02*
X155206964Y-56145000D01*
X155956964Y-56716429D02*
X155206964Y-56716429D01*
X155671250Y-56787858D02*
X155956964Y-57002143D01*
X155456964Y-57002143D02*
X155742678Y-56716429D01*
G04 #@! TO.C,D3*
X146426964Y-146806428D02*
X145676964Y-146806428D01*
X145676964Y-146806428D02*
X145676964Y-146984999D01*
X145676964Y-146984999D02*
X145712678Y-147092142D01*
X145712678Y-147092142D02*
X145784107Y-147163571D01*
X145784107Y-147163571D02*
X145855535Y-147199285D01*
X145855535Y-147199285D02*
X145998392Y-147234999D01*
X145998392Y-147234999D02*
X146105535Y-147234999D01*
X146105535Y-147234999D02*
X146248392Y-147199285D01*
X146248392Y-147199285D02*
X146319821Y-147163571D01*
X146319821Y-147163571D02*
X146391250Y-147092142D01*
X146391250Y-147092142D02*
X146426964Y-146984999D01*
X146426964Y-146984999D02*
X146426964Y-146806428D01*
X145676964Y-147484999D02*
X145676964Y-147949285D01*
X145676964Y-147949285D02*
X145962678Y-147699285D01*
X145962678Y-147699285D02*
X145962678Y-147806428D01*
X145962678Y-147806428D02*
X145998392Y-147877857D01*
X145998392Y-147877857D02*
X146034107Y-147913571D01*
X146034107Y-147913571D02*
X146105535Y-147949285D01*
X146105535Y-147949285D02*
X146284107Y-147949285D01*
X146284107Y-147949285D02*
X146355535Y-147913571D01*
X146355535Y-147913571D02*
X146391250Y-147877857D01*
X146391250Y-147877857D02*
X146426964Y-147806428D01*
X146426964Y-147806428D02*
X146426964Y-147592142D01*
X146426964Y-147592142D02*
X146391250Y-147520714D01*
X146391250Y-147520714D02*
X146355535Y-147484999D01*
X146421964Y-144463571D02*
X145671964Y-144463571D01*
X146421964Y-144892142D02*
X145993392Y-144570714D01*
X145671964Y-144892142D02*
X146100535Y-144463571D01*
X146426964Y-150552856D02*
X146426964Y-150124285D01*
X146426964Y-150338570D02*
X145676964Y-150338570D01*
X145676964Y-150338570D02*
X145784107Y-150267142D01*
X145784107Y-150267142D02*
X145855535Y-150195713D01*
X145855535Y-150195713D02*
X145891250Y-150124285D01*
X146426964Y-150874285D02*
X145676964Y-150874285D01*
X145676964Y-150874285D02*
X146426964Y-151302856D01*
X146426964Y-151302856D02*
X145676964Y-151302856D01*
X145926964Y-151981428D02*
X146426964Y-151981428D01*
X145641250Y-151802856D02*
X146176964Y-151624285D01*
X146176964Y-151624285D02*
X146176964Y-152088570D01*
X146426964Y-152767142D02*
X146426964Y-152338571D01*
X146426964Y-152552856D02*
X145676964Y-152552856D01*
X145676964Y-152552856D02*
X145784107Y-152481428D01*
X145784107Y-152481428D02*
X145855535Y-152409999D01*
X145855535Y-152409999D02*
X145891250Y-152338571D01*
X145926964Y-153410000D02*
X146426964Y-153410000D01*
X145641250Y-153231428D02*
X146176964Y-153052857D01*
X146176964Y-153052857D02*
X146176964Y-153517142D01*
X145998392Y-153910000D02*
X145962678Y-153838571D01*
X145962678Y-153838571D02*
X145926964Y-153802857D01*
X145926964Y-153802857D02*
X145855535Y-153767143D01*
X145855535Y-153767143D02*
X145819821Y-153767143D01*
X145819821Y-153767143D02*
X145748392Y-153802857D01*
X145748392Y-153802857D02*
X145712678Y-153838571D01*
X145712678Y-153838571D02*
X145676964Y-153910000D01*
X145676964Y-153910000D02*
X145676964Y-154052857D01*
X145676964Y-154052857D02*
X145712678Y-154124286D01*
X145712678Y-154124286D02*
X145748392Y-154160000D01*
X145748392Y-154160000D02*
X145819821Y-154195714D01*
X145819821Y-154195714D02*
X145855535Y-154195714D01*
X145855535Y-154195714D02*
X145926964Y-154160000D01*
X145926964Y-154160000D02*
X145962678Y-154124286D01*
X145962678Y-154124286D02*
X145998392Y-154052857D01*
X145998392Y-154052857D02*
X145998392Y-153910000D01*
X145998392Y-153910000D02*
X146034107Y-153838571D01*
X146034107Y-153838571D02*
X146069821Y-153802857D01*
X146069821Y-153802857D02*
X146141250Y-153767143D01*
X146141250Y-153767143D02*
X146284107Y-153767143D01*
X146284107Y-153767143D02*
X146355535Y-153802857D01*
X146355535Y-153802857D02*
X146391250Y-153838571D01*
X146391250Y-153838571D02*
X146426964Y-153910000D01*
X146426964Y-153910000D02*
X146426964Y-154052857D01*
X146426964Y-154052857D02*
X146391250Y-154124286D01*
X146391250Y-154124286D02*
X146355535Y-154160000D01*
X146355535Y-154160000D02*
X146284107Y-154195714D01*
X146284107Y-154195714D02*
X146141250Y-154195714D01*
X146141250Y-154195714D02*
X146069821Y-154160000D01*
X146069821Y-154160000D02*
X146034107Y-154124286D01*
X146034107Y-154124286D02*
X145998392Y-154052857D01*
G04 #@! TO.C,RV5*
X115289428Y-97391964D02*
X115539428Y-97034821D01*
X115717999Y-97391964D02*
X115717999Y-96641964D01*
X115717999Y-96641964D02*
X115432285Y-96641964D01*
X115432285Y-96641964D02*
X115360856Y-96677678D01*
X115360856Y-96677678D02*
X115325142Y-96713392D01*
X115325142Y-96713392D02*
X115289428Y-96784821D01*
X115289428Y-96784821D02*
X115289428Y-96891964D01*
X115289428Y-96891964D02*
X115325142Y-96963392D01*
X115325142Y-96963392D02*
X115360856Y-96999107D01*
X115360856Y-96999107D02*
X115432285Y-97034821D01*
X115432285Y-97034821D02*
X115717999Y-97034821D01*
X115075142Y-96641964D02*
X114825142Y-97391964D01*
X114825142Y-97391964D02*
X114575142Y-96641964D01*
X113967999Y-96641964D02*
X114325142Y-96641964D01*
X114325142Y-96641964D02*
X114360856Y-96999107D01*
X114360856Y-96999107D02*
X114325142Y-96963392D01*
X114325142Y-96963392D02*
X114253714Y-96927678D01*
X114253714Y-96927678D02*
X114075142Y-96927678D01*
X114075142Y-96927678D02*
X114003714Y-96963392D01*
X114003714Y-96963392D02*
X113967999Y-96999107D01*
X113967999Y-96999107D02*
X113932285Y-97070535D01*
X113932285Y-97070535D02*
X113932285Y-97249107D01*
X113932285Y-97249107D02*
X113967999Y-97320535D01*
X113967999Y-97320535D02*
X114003714Y-97356250D01*
X114003714Y-97356250D02*
X114075142Y-97391964D01*
X114075142Y-97391964D02*
X114253714Y-97391964D01*
X114253714Y-97391964D02*
X114325142Y-97356250D01*
X114325142Y-97356250D02*
X114360856Y-97320535D01*
X107923428Y-102471964D02*
X108351999Y-102471964D01*
X108137714Y-102471964D02*
X108137714Y-101721964D01*
X108137714Y-101721964D02*
X108209142Y-101829107D01*
X108209142Y-101829107D02*
X108280571Y-101900535D01*
X108280571Y-101900535D02*
X108351999Y-101936250D01*
X107459142Y-101721964D02*
X107387713Y-101721964D01*
X107387713Y-101721964D02*
X107316285Y-101757678D01*
X107316285Y-101757678D02*
X107280571Y-101793392D01*
X107280571Y-101793392D02*
X107244856Y-101864821D01*
X107244856Y-101864821D02*
X107209142Y-102007678D01*
X107209142Y-102007678D02*
X107209142Y-102186250D01*
X107209142Y-102186250D02*
X107244856Y-102329107D01*
X107244856Y-102329107D02*
X107280571Y-102400535D01*
X107280571Y-102400535D02*
X107316285Y-102436250D01*
X107316285Y-102436250D02*
X107387713Y-102471964D01*
X107387713Y-102471964D02*
X107459142Y-102471964D01*
X107459142Y-102471964D02*
X107530571Y-102436250D01*
X107530571Y-102436250D02*
X107566285Y-102400535D01*
X107566285Y-102400535D02*
X107601999Y-102329107D01*
X107601999Y-102329107D02*
X107637713Y-102186250D01*
X107637713Y-102186250D02*
X107637713Y-102007678D01*
X107637713Y-102007678D02*
X107601999Y-101864821D01*
X107601999Y-101864821D02*
X107566285Y-101793392D01*
X107566285Y-101793392D02*
X107530571Y-101757678D01*
X107530571Y-101757678D02*
X107459142Y-101721964D01*
X106887713Y-102471964D02*
X106887713Y-101721964D01*
X106816285Y-102186250D02*
X106601999Y-102471964D01*
X106601999Y-101971964D02*
X106887713Y-102257678D01*
G04 #@! TO.C,C18*
X165472143Y-131505535D02*
X165507857Y-131541250D01*
X165507857Y-131541250D02*
X165615000Y-131576964D01*
X165615000Y-131576964D02*
X165686428Y-131576964D01*
X165686428Y-131576964D02*
X165793571Y-131541250D01*
X165793571Y-131541250D02*
X165865000Y-131469821D01*
X165865000Y-131469821D02*
X165900714Y-131398392D01*
X165900714Y-131398392D02*
X165936428Y-131255535D01*
X165936428Y-131255535D02*
X165936428Y-131148392D01*
X165936428Y-131148392D02*
X165900714Y-131005535D01*
X165900714Y-131005535D02*
X165865000Y-130934107D01*
X165865000Y-130934107D02*
X165793571Y-130862678D01*
X165793571Y-130862678D02*
X165686428Y-130826964D01*
X165686428Y-130826964D02*
X165615000Y-130826964D01*
X165615000Y-130826964D02*
X165507857Y-130862678D01*
X165507857Y-130862678D02*
X165472143Y-130898392D01*
X164757857Y-131576964D02*
X165186428Y-131576964D01*
X164972143Y-131576964D02*
X164972143Y-130826964D01*
X164972143Y-130826964D02*
X165043571Y-130934107D01*
X165043571Y-130934107D02*
X165115000Y-131005535D01*
X165115000Y-131005535D02*
X165186428Y-131041250D01*
X164329285Y-131148392D02*
X164400714Y-131112678D01*
X164400714Y-131112678D02*
X164436428Y-131076964D01*
X164436428Y-131076964D02*
X164472142Y-131005535D01*
X164472142Y-131005535D02*
X164472142Y-130969821D01*
X164472142Y-130969821D02*
X164436428Y-130898392D01*
X164436428Y-130898392D02*
X164400714Y-130862678D01*
X164400714Y-130862678D02*
X164329285Y-130826964D01*
X164329285Y-130826964D02*
X164186428Y-130826964D01*
X164186428Y-130826964D02*
X164115000Y-130862678D01*
X164115000Y-130862678D02*
X164079285Y-130898392D01*
X164079285Y-130898392D02*
X164043571Y-130969821D01*
X164043571Y-130969821D02*
X164043571Y-131005535D01*
X164043571Y-131005535D02*
X164079285Y-131076964D01*
X164079285Y-131076964D02*
X164115000Y-131112678D01*
X164115000Y-131112678D02*
X164186428Y-131148392D01*
X164186428Y-131148392D02*
X164329285Y-131148392D01*
X164329285Y-131148392D02*
X164400714Y-131184107D01*
X164400714Y-131184107D02*
X164436428Y-131219821D01*
X164436428Y-131219821D02*
X164472142Y-131291250D01*
X164472142Y-131291250D02*
X164472142Y-131434107D01*
X164472142Y-131434107D02*
X164436428Y-131505535D01*
X164436428Y-131505535D02*
X164400714Y-131541250D01*
X164400714Y-131541250D02*
X164329285Y-131576964D01*
X164329285Y-131576964D02*
X164186428Y-131576964D01*
X164186428Y-131576964D02*
X164115000Y-131541250D01*
X164115000Y-131541250D02*
X164079285Y-131505535D01*
X164079285Y-131505535D02*
X164043571Y-131434107D01*
X164043571Y-131434107D02*
X164043571Y-131291250D01*
X164043571Y-131291250D02*
X164079285Y-131219821D01*
X164079285Y-131219821D02*
X164115000Y-131184107D01*
X164115000Y-131184107D02*
X164186428Y-131148392D01*
X162650714Y-131576964D02*
X163079285Y-131576964D01*
X162865000Y-131576964D02*
X162865000Y-130826964D01*
X162865000Y-130826964D02*
X162936428Y-130934107D01*
X162936428Y-130934107D02*
X163007857Y-131005535D01*
X163007857Y-131005535D02*
X163079285Y-131041250D01*
X162186428Y-130826964D02*
X162114999Y-130826964D01*
X162114999Y-130826964D02*
X162043571Y-130862678D01*
X162043571Y-130862678D02*
X162007857Y-130898392D01*
X162007857Y-130898392D02*
X161972142Y-130969821D01*
X161972142Y-130969821D02*
X161936428Y-131112678D01*
X161936428Y-131112678D02*
X161936428Y-131291250D01*
X161936428Y-131291250D02*
X161972142Y-131434107D01*
X161972142Y-131434107D02*
X162007857Y-131505535D01*
X162007857Y-131505535D02*
X162043571Y-131541250D01*
X162043571Y-131541250D02*
X162114999Y-131576964D01*
X162114999Y-131576964D02*
X162186428Y-131576964D01*
X162186428Y-131576964D02*
X162257857Y-131541250D01*
X162257857Y-131541250D02*
X162293571Y-131505535D01*
X162293571Y-131505535D02*
X162329285Y-131434107D01*
X162329285Y-131434107D02*
X162364999Y-131291250D01*
X162364999Y-131291250D02*
X162364999Y-131112678D01*
X162364999Y-131112678D02*
X162329285Y-130969821D01*
X162329285Y-130969821D02*
X162293571Y-130898392D01*
X162293571Y-130898392D02*
X162257857Y-130862678D01*
X162257857Y-130862678D02*
X162186428Y-130826964D01*
X161472142Y-130826964D02*
X161400713Y-130826964D01*
X161400713Y-130826964D02*
X161329285Y-130862678D01*
X161329285Y-130862678D02*
X161293571Y-130898392D01*
X161293571Y-130898392D02*
X161257856Y-130969821D01*
X161257856Y-130969821D02*
X161222142Y-131112678D01*
X161222142Y-131112678D02*
X161222142Y-131291250D01*
X161222142Y-131291250D02*
X161257856Y-131434107D01*
X161257856Y-131434107D02*
X161293571Y-131505535D01*
X161293571Y-131505535D02*
X161329285Y-131541250D01*
X161329285Y-131541250D02*
X161400713Y-131576964D01*
X161400713Y-131576964D02*
X161472142Y-131576964D01*
X161472142Y-131576964D02*
X161543571Y-131541250D01*
X161543571Y-131541250D02*
X161579285Y-131505535D01*
X161579285Y-131505535D02*
X161614999Y-131434107D01*
X161614999Y-131434107D02*
X161650713Y-131291250D01*
X161650713Y-131291250D02*
X161650713Y-131112678D01*
X161650713Y-131112678D02*
X161614999Y-130969821D01*
X161614999Y-130969821D02*
X161579285Y-130898392D01*
X161579285Y-130898392D02*
X161543571Y-130862678D01*
X161543571Y-130862678D02*
X161472142Y-130826964D01*
X160900713Y-131076964D02*
X160900713Y-131576964D01*
X160900713Y-131148392D02*
X160864999Y-131112678D01*
X160864999Y-131112678D02*
X160793570Y-131076964D01*
X160793570Y-131076964D02*
X160686427Y-131076964D01*
X160686427Y-131076964D02*
X160614999Y-131112678D01*
X160614999Y-131112678D02*
X160579285Y-131184107D01*
X160579285Y-131184107D02*
X160579285Y-131576964D01*
X159972142Y-131184107D02*
X160222142Y-131184107D01*
X160222142Y-131576964D02*
X160222142Y-130826964D01*
X160222142Y-130826964D02*
X159864999Y-130826964D01*
G04 #@! TO.C,R72*
X112946964Y-80687856D02*
X112589821Y-80437856D01*
X112946964Y-80259285D02*
X112196964Y-80259285D01*
X112196964Y-80259285D02*
X112196964Y-80544999D01*
X112196964Y-80544999D02*
X112232678Y-80616428D01*
X112232678Y-80616428D02*
X112268392Y-80652142D01*
X112268392Y-80652142D02*
X112339821Y-80687856D01*
X112339821Y-80687856D02*
X112446964Y-80687856D01*
X112446964Y-80687856D02*
X112518392Y-80652142D01*
X112518392Y-80652142D02*
X112554107Y-80616428D01*
X112554107Y-80616428D02*
X112589821Y-80544999D01*
X112589821Y-80544999D02*
X112589821Y-80259285D01*
X112196964Y-80937856D02*
X112196964Y-81437856D01*
X112196964Y-81437856D02*
X112946964Y-81116428D01*
X112268392Y-81687857D02*
X112232678Y-81723571D01*
X112232678Y-81723571D02*
X112196964Y-81795000D01*
X112196964Y-81795000D02*
X112196964Y-81973571D01*
X112196964Y-81973571D02*
X112232678Y-82045000D01*
X112232678Y-82045000D02*
X112268392Y-82080714D01*
X112268392Y-82080714D02*
X112339821Y-82116428D01*
X112339821Y-82116428D02*
X112411250Y-82116428D01*
X112411250Y-82116428D02*
X112518392Y-82080714D01*
X112518392Y-82080714D02*
X112946964Y-81652142D01*
X112946964Y-81652142D02*
X112946964Y-82116428D01*
X114566964Y-80687857D02*
X114566964Y-80330714D01*
X114566964Y-80330714D02*
X114924107Y-80295000D01*
X114924107Y-80295000D02*
X114888392Y-80330714D01*
X114888392Y-80330714D02*
X114852678Y-80402143D01*
X114852678Y-80402143D02*
X114852678Y-80580714D01*
X114852678Y-80580714D02*
X114888392Y-80652143D01*
X114888392Y-80652143D02*
X114924107Y-80687857D01*
X114924107Y-80687857D02*
X114995535Y-80723571D01*
X114995535Y-80723571D02*
X115174107Y-80723571D01*
X115174107Y-80723571D02*
X115245535Y-80687857D01*
X115245535Y-80687857D02*
X115281250Y-80652143D01*
X115281250Y-80652143D02*
X115316964Y-80580714D01*
X115316964Y-80580714D02*
X115316964Y-80402143D01*
X115316964Y-80402143D02*
X115281250Y-80330714D01*
X115281250Y-80330714D02*
X115245535Y-80295000D01*
X115316964Y-81437857D02*
X115316964Y-81009286D01*
X115316964Y-81223571D02*
X114566964Y-81223571D01*
X114566964Y-81223571D02*
X114674107Y-81152143D01*
X114674107Y-81152143D02*
X114745535Y-81080714D01*
X114745535Y-81080714D02*
X114781250Y-81009286D01*
X115316964Y-81759286D02*
X114566964Y-81759286D01*
X115031250Y-81830715D02*
X115316964Y-82045000D01*
X114816964Y-82045000D02*
X115102678Y-81759286D01*
G04 #@! TO.C,R73*
X151036964Y-149257856D02*
X150679821Y-149007856D01*
X151036964Y-148829285D02*
X150286964Y-148829285D01*
X150286964Y-148829285D02*
X150286964Y-149114999D01*
X150286964Y-149114999D02*
X150322678Y-149186428D01*
X150322678Y-149186428D02*
X150358392Y-149222142D01*
X150358392Y-149222142D02*
X150429821Y-149257856D01*
X150429821Y-149257856D02*
X150536964Y-149257856D01*
X150536964Y-149257856D02*
X150608392Y-149222142D01*
X150608392Y-149222142D02*
X150644107Y-149186428D01*
X150644107Y-149186428D02*
X150679821Y-149114999D01*
X150679821Y-149114999D02*
X150679821Y-148829285D01*
X150286964Y-149507856D02*
X150286964Y-150007856D01*
X150286964Y-150007856D02*
X151036964Y-149686428D01*
X150286964Y-150222142D02*
X150286964Y-150686428D01*
X150286964Y-150686428D02*
X150572678Y-150436428D01*
X150572678Y-150436428D02*
X150572678Y-150543571D01*
X150572678Y-150543571D02*
X150608392Y-150615000D01*
X150608392Y-150615000D02*
X150644107Y-150650714D01*
X150644107Y-150650714D02*
X150715535Y-150686428D01*
X150715535Y-150686428D02*
X150894107Y-150686428D01*
X150894107Y-150686428D02*
X150965535Y-150650714D01*
X150965535Y-150650714D02*
X151001250Y-150615000D01*
X151001250Y-150615000D02*
X151036964Y-150543571D01*
X151036964Y-150543571D02*
X151036964Y-150329285D01*
X151036964Y-150329285D02*
X151001250Y-150257857D01*
X151001250Y-150257857D02*
X150965535Y-150222142D01*
X153406964Y-149293571D02*
X153406964Y-148865000D01*
X153406964Y-149079285D02*
X152656964Y-149079285D01*
X152656964Y-149079285D02*
X152764107Y-149007857D01*
X152764107Y-149007857D02*
X152835535Y-148936428D01*
X152835535Y-148936428D02*
X152871250Y-148865000D01*
X152656964Y-149757857D02*
X152656964Y-149829286D01*
X152656964Y-149829286D02*
X152692678Y-149900714D01*
X152692678Y-149900714D02*
X152728392Y-149936429D01*
X152728392Y-149936429D02*
X152799821Y-149972143D01*
X152799821Y-149972143D02*
X152942678Y-150007857D01*
X152942678Y-150007857D02*
X153121250Y-150007857D01*
X153121250Y-150007857D02*
X153264107Y-149972143D01*
X153264107Y-149972143D02*
X153335535Y-149936429D01*
X153335535Y-149936429D02*
X153371250Y-149900714D01*
X153371250Y-149900714D02*
X153406964Y-149829286D01*
X153406964Y-149829286D02*
X153406964Y-149757857D01*
X153406964Y-149757857D02*
X153371250Y-149686429D01*
X153371250Y-149686429D02*
X153335535Y-149650714D01*
X153335535Y-149650714D02*
X153264107Y-149615000D01*
X153264107Y-149615000D02*
X153121250Y-149579286D01*
X153121250Y-149579286D02*
X152942678Y-149579286D01*
X152942678Y-149579286D02*
X152799821Y-149615000D01*
X152799821Y-149615000D02*
X152728392Y-149650714D01*
X152728392Y-149650714D02*
X152692678Y-149686429D01*
X152692678Y-149686429D02*
X152656964Y-149757857D01*
X153406964Y-150329286D02*
X152656964Y-150329286D01*
X153121250Y-150400715D02*
X153406964Y-150615000D01*
X152906964Y-150615000D02*
X153192678Y-150329286D01*
G04 #@! TO.C,U3*
X157536964Y-67898571D02*
X158144107Y-67898571D01*
X158144107Y-67898571D02*
X158215535Y-67934285D01*
X158215535Y-67934285D02*
X158251250Y-67970000D01*
X158251250Y-67970000D02*
X158286964Y-68041428D01*
X158286964Y-68041428D02*
X158286964Y-68184285D01*
X158286964Y-68184285D02*
X158251250Y-68255714D01*
X158251250Y-68255714D02*
X158215535Y-68291428D01*
X158215535Y-68291428D02*
X158144107Y-68327142D01*
X158144107Y-68327142D02*
X157536964Y-68327142D01*
X157536964Y-68612856D02*
X157536964Y-69077142D01*
X157536964Y-69077142D02*
X157822678Y-68827142D01*
X157822678Y-68827142D02*
X157822678Y-68934285D01*
X157822678Y-68934285D02*
X157858392Y-69005714D01*
X157858392Y-69005714D02*
X157894107Y-69041428D01*
X157894107Y-69041428D02*
X157965535Y-69077142D01*
X157965535Y-69077142D02*
X158144107Y-69077142D01*
X158144107Y-69077142D02*
X158215535Y-69041428D01*
X158215535Y-69041428D02*
X158251250Y-69005714D01*
X158251250Y-69005714D02*
X158286964Y-68934285D01*
X158286964Y-68934285D02*
X158286964Y-68719999D01*
X158286964Y-68719999D02*
X158251250Y-68648571D01*
X158251250Y-68648571D02*
X158215535Y-68612856D01*
X149579286Y-68066964D02*
X149150715Y-68066964D01*
X149365000Y-68816964D02*
X149365000Y-68066964D01*
X148543571Y-68816964D02*
X148900714Y-68816964D01*
X148900714Y-68816964D02*
X148900714Y-68066964D01*
X148150714Y-68066964D02*
X148079285Y-68066964D01*
X148079285Y-68066964D02*
X148007857Y-68102678D01*
X148007857Y-68102678D02*
X147972143Y-68138392D01*
X147972143Y-68138392D02*
X147936428Y-68209821D01*
X147936428Y-68209821D02*
X147900714Y-68352678D01*
X147900714Y-68352678D02*
X147900714Y-68531250D01*
X147900714Y-68531250D02*
X147936428Y-68674107D01*
X147936428Y-68674107D02*
X147972143Y-68745535D01*
X147972143Y-68745535D02*
X148007857Y-68781250D01*
X148007857Y-68781250D02*
X148079285Y-68816964D01*
X148079285Y-68816964D02*
X148150714Y-68816964D01*
X148150714Y-68816964D02*
X148222143Y-68781250D01*
X148222143Y-68781250D02*
X148257857Y-68745535D01*
X148257857Y-68745535D02*
X148293571Y-68674107D01*
X148293571Y-68674107D02*
X148329285Y-68531250D01*
X148329285Y-68531250D02*
X148329285Y-68352678D01*
X148329285Y-68352678D02*
X148293571Y-68209821D01*
X148293571Y-68209821D02*
X148257857Y-68138392D01*
X148257857Y-68138392D02*
X148222143Y-68102678D01*
X148222143Y-68102678D02*
X148150714Y-68066964D01*
X147650714Y-68066964D02*
X147150714Y-68066964D01*
X147150714Y-68066964D02*
X147472142Y-68816964D01*
X146543571Y-68316964D02*
X146543571Y-68816964D01*
X146722142Y-68031250D02*
X146900713Y-68566964D01*
X146900713Y-68566964D02*
X146436428Y-68566964D01*
G04 #@! TO.C,U4*
X147796964Y-136478571D02*
X148404107Y-136478571D01*
X148404107Y-136478571D02*
X148475535Y-136514285D01*
X148475535Y-136514285D02*
X148511250Y-136550000D01*
X148511250Y-136550000D02*
X148546964Y-136621428D01*
X148546964Y-136621428D02*
X148546964Y-136764285D01*
X148546964Y-136764285D02*
X148511250Y-136835714D01*
X148511250Y-136835714D02*
X148475535Y-136871428D01*
X148475535Y-136871428D02*
X148404107Y-136907142D01*
X148404107Y-136907142D02*
X147796964Y-136907142D01*
X148046964Y-137585714D02*
X148546964Y-137585714D01*
X147761250Y-137407142D02*
X148296964Y-137228571D01*
X148296964Y-137228571D02*
X148296964Y-137692856D01*
X155929286Y-136646964D02*
X155500715Y-136646964D01*
X155715000Y-137396964D02*
X155715000Y-136646964D01*
X154893571Y-137396964D02*
X155250714Y-137396964D01*
X155250714Y-137396964D02*
X155250714Y-136646964D01*
X154500714Y-136646964D02*
X154429285Y-136646964D01*
X154429285Y-136646964D02*
X154357857Y-136682678D01*
X154357857Y-136682678D02*
X154322143Y-136718392D01*
X154322143Y-136718392D02*
X154286428Y-136789821D01*
X154286428Y-136789821D02*
X154250714Y-136932678D01*
X154250714Y-136932678D02*
X154250714Y-137111250D01*
X154250714Y-137111250D02*
X154286428Y-137254107D01*
X154286428Y-137254107D02*
X154322143Y-137325535D01*
X154322143Y-137325535D02*
X154357857Y-137361250D01*
X154357857Y-137361250D02*
X154429285Y-137396964D01*
X154429285Y-137396964D02*
X154500714Y-137396964D01*
X154500714Y-137396964D02*
X154572143Y-137361250D01*
X154572143Y-137361250D02*
X154607857Y-137325535D01*
X154607857Y-137325535D02*
X154643571Y-137254107D01*
X154643571Y-137254107D02*
X154679285Y-137111250D01*
X154679285Y-137111250D02*
X154679285Y-136932678D01*
X154679285Y-136932678D02*
X154643571Y-136789821D01*
X154643571Y-136789821D02*
X154607857Y-136718392D01*
X154607857Y-136718392D02*
X154572143Y-136682678D01*
X154572143Y-136682678D02*
X154500714Y-136646964D01*
X154000714Y-136646964D02*
X153500714Y-136646964D01*
X153500714Y-136646964D02*
X153822142Y-137396964D01*
X153250713Y-136718392D02*
X153214999Y-136682678D01*
X153214999Y-136682678D02*
X153143571Y-136646964D01*
X153143571Y-136646964D02*
X152964999Y-136646964D01*
X152964999Y-136646964D02*
X152893571Y-136682678D01*
X152893571Y-136682678D02*
X152857856Y-136718392D01*
X152857856Y-136718392D02*
X152822142Y-136789821D01*
X152822142Y-136789821D02*
X152822142Y-136861250D01*
X152822142Y-136861250D02*
X152857856Y-136968392D01*
X152857856Y-136968392D02*
X153286428Y-137396964D01*
X153286428Y-137396964D02*
X152822142Y-137396964D01*
G04 #@! TO.C,R58*
X143086964Y-55287856D02*
X142729821Y-55037856D01*
X143086964Y-54859285D02*
X142336964Y-54859285D01*
X142336964Y-54859285D02*
X142336964Y-55144999D01*
X142336964Y-55144999D02*
X142372678Y-55216428D01*
X142372678Y-55216428D02*
X142408392Y-55252142D01*
X142408392Y-55252142D02*
X142479821Y-55287856D01*
X142479821Y-55287856D02*
X142586964Y-55287856D01*
X142586964Y-55287856D02*
X142658392Y-55252142D01*
X142658392Y-55252142D02*
X142694107Y-55216428D01*
X142694107Y-55216428D02*
X142729821Y-55144999D01*
X142729821Y-55144999D02*
X142729821Y-54859285D01*
X142336964Y-55966428D02*
X142336964Y-55609285D01*
X142336964Y-55609285D02*
X142694107Y-55573571D01*
X142694107Y-55573571D02*
X142658392Y-55609285D01*
X142658392Y-55609285D02*
X142622678Y-55680714D01*
X142622678Y-55680714D02*
X142622678Y-55859285D01*
X142622678Y-55859285D02*
X142658392Y-55930714D01*
X142658392Y-55930714D02*
X142694107Y-55966428D01*
X142694107Y-55966428D02*
X142765535Y-56002142D01*
X142765535Y-56002142D02*
X142944107Y-56002142D01*
X142944107Y-56002142D02*
X143015535Y-55966428D01*
X143015535Y-55966428D02*
X143051250Y-55930714D01*
X143051250Y-55930714D02*
X143086964Y-55859285D01*
X143086964Y-55859285D02*
X143086964Y-55680714D01*
X143086964Y-55680714D02*
X143051250Y-55609285D01*
X143051250Y-55609285D02*
X143015535Y-55573571D01*
X142658392Y-56430714D02*
X142622678Y-56359285D01*
X142622678Y-56359285D02*
X142586964Y-56323571D01*
X142586964Y-56323571D02*
X142515535Y-56287857D01*
X142515535Y-56287857D02*
X142479821Y-56287857D01*
X142479821Y-56287857D02*
X142408392Y-56323571D01*
X142408392Y-56323571D02*
X142372678Y-56359285D01*
X142372678Y-56359285D02*
X142336964Y-56430714D01*
X142336964Y-56430714D02*
X142336964Y-56573571D01*
X142336964Y-56573571D02*
X142372678Y-56645000D01*
X142372678Y-56645000D02*
X142408392Y-56680714D01*
X142408392Y-56680714D02*
X142479821Y-56716428D01*
X142479821Y-56716428D02*
X142515535Y-56716428D01*
X142515535Y-56716428D02*
X142586964Y-56680714D01*
X142586964Y-56680714D02*
X142622678Y-56645000D01*
X142622678Y-56645000D02*
X142658392Y-56573571D01*
X142658392Y-56573571D02*
X142658392Y-56430714D01*
X142658392Y-56430714D02*
X142694107Y-56359285D01*
X142694107Y-56359285D02*
X142729821Y-56323571D01*
X142729821Y-56323571D02*
X142801250Y-56287857D01*
X142801250Y-56287857D02*
X142944107Y-56287857D01*
X142944107Y-56287857D02*
X143015535Y-56323571D01*
X143015535Y-56323571D02*
X143051250Y-56359285D01*
X143051250Y-56359285D02*
X143086964Y-56430714D01*
X143086964Y-56430714D02*
X143086964Y-56573571D01*
X143086964Y-56573571D02*
X143051250Y-56645000D01*
X143051250Y-56645000D02*
X143015535Y-56680714D01*
X143015535Y-56680714D02*
X142944107Y-56716428D01*
X142944107Y-56716428D02*
X142801250Y-56716428D01*
X142801250Y-56716428D02*
X142729821Y-56680714D01*
X142729821Y-56680714D02*
X142694107Y-56645000D01*
X142694107Y-56645000D02*
X142658392Y-56573571D01*
X140716964Y-54966428D02*
X140716964Y-54537857D01*
X140716964Y-54752142D02*
X139966964Y-54752142D01*
X139966964Y-54752142D02*
X140074107Y-54680714D01*
X140074107Y-54680714D02*
X140145535Y-54609285D01*
X140145535Y-54609285D02*
X140181250Y-54537857D01*
X139966964Y-55430714D02*
X139966964Y-55502143D01*
X139966964Y-55502143D02*
X140002678Y-55573571D01*
X140002678Y-55573571D02*
X140038392Y-55609286D01*
X140038392Y-55609286D02*
X140109821Y-55645000D01*
X140109821Y-55645000D02*
X140252678Y-55680714D01*
X140252678Y-55680714D02*
X140431250Y-55680714D01*
X140431250Y-55680714D02*
X140574107Y-55645000D01*
X140574107Y-55645000D02*
X140645535Y-55609286D01*
X140645535Y-55609286D02*
X140681250Y-55573571D01*
X140681250Y-55573571D02*
X140716964Y-55502143D01*
X140716964Y-55502143D02*
X140716964Y-55430714D01*
X140716964Y-55430714D02*
X140681250Y-55359286D01*
X140681250Y-55359286D02*
X140645535Y-55323571D01*
X140645535Y-55323571D02*
X140574107Y-55287857D01*
X140574107Y-55287857D02*
X140431250Y-55252143D01*
X140431250Y-55252143D02*
X140252678Y-55252143D01*
X140252678Y-55252143D02*
X140109821Y-55287857D01*
X140109821Y-55287857D02*
X140038392Y-55323571D01*
X140038392Y-55323571D02*
X140002678Y-55359286D01*
X140002678Y-55359286D02*
X139966964Y-55430714D01*
X139966964Y-56145000D02*
X139966964Y-56216429D01*
X139966964Y-56216429D02*
X140002678Y-56287857D01*
X140002678Y-56287857D02*
X140038392Y-56323572D01*
X140038392Y-56323572D02*
X140109821Y-56359286D01*
X140109821Y-56359286D02*
X140252678Y-56395000D01*
X140252678Y-56395000D02*
X140431250Y-56395000D01*
X140431250Y-56395000D02*
X140574107Y-56359286D01*
X140574107Y-56359286D02*
X140645535Y-56323572D01*
X140645535Y-56323572D02*
X140681250Y-56287857D01*
X140681250Y-56287857D02*
X140716964Y-56216429D01*
X140716964Y-56216429D02*
X140716964Y-56145000D01*
X140716964Y-56145000D02*
X140681250Y-56073572D01*
X140681250Y-56073572D02*
X140645535Y-56037857D01*
X140645535Y-56037857D02*
X140574107Y-56002143D01*
X140574107Y-56002143D02*
X140431250Y-55966429D01*
X140431250Y-55966429D02*
X140252678Y-55966429D01*
X140252678Y-55966429D02*
X140109821Y-56002143D01*
X140109821Y-56002143D02*
X140038392Y-56037857D01*
X140038392Y-56037857D02*
X140002678Y-56073572D01*
X140002678Y-56073572D02*
X139966964Y-56145000D01*
X140716964Y-56716429D02*
X139966964Y-56716429D01*
X140431250Y-56787858D02*
X140716964Y-57002143D01*
X140216964Y-57002143D02*
X140502678Y-56716429D01*
G04 #@! TO.C,J4*
X163563333Y-156832619D02*
X163563333Y-157546904D01*
X163563333Y-157546904D02*
X163610952Y-157689761D01*
X163610952Y-157689761D02*
X163706190Y-157785000D01*
X163706190Y-157785000D02*
X163849047Y-157832619D01*
X163849047Y-157832619D02*
X163944285Y-157832619D01*
X162658571Y-157165952D02*
X162658571Y-157832619D01*
X162896666Y-156785000D02*
X163134761Y-157499285D01*
X163134761Y-157499285D02*
X162515714Y-157499285D01*
G04 #@! TO.C,R69*
X158666964Y-55287856D02*
X158309821Y-55037856D01*
X158666964Y-54859285D02*
X157916964Y-54859285D01*
X157916964Y-54859285D02*
X157916964Y-55144999D01*
X157916964Y-55144999D02*
X157952678Y-55216428D01*
X157952678Y-55216428D02*
X157988392Y-55252142D01*
X157988392Y-55252142D02*
X158059821Y-55287856D01*
X158059821Y-55287856D02*
X158166964Y-55287856D01*
X158166964Y-55287856D02*
X158238392Y-55252142D01*
X158238392Y-55252142D02*
X158274107Y-55216428D01*
X158274107Y-55216428D02*
X158309821Y-55144999D01*
X158309821Y-55144999D02*
X158309821Y-54859285D01*
X157916964Y-55930714D02*
X157916964Y-55787856D01*
X157916964Y-55787856D02*
X157952678Y-55716428D01*
X157952678Y-55716428D02*
X157988392Y-55680714D01*
X157988392Y-55680714D02*
X158095535Y-55609285D01*
X158095535Y-55609285D02*
X158238392Y-55573571D01*
X158238392Y-55573571D02*
X158524107Y-55573571D01*
X158524107Y-55573571D02*
X158595535Y-55609285D01*
X158595535Y-55609285D02*
X158631250Y-55644999D01*
X158631250Y-55644999D02*
X158666964Y-55716428D01*
X158666964Y-55716428D02*
X158666964Y-55859285D01*
X158666964Y-55859285D02*
X158631250Y-55930714D01*
X158631250Y-55930714D02*
X158595535Y-55966428D01*
X158595535Y-55966428D02*
X158524107Y-56002142D01*
X158524107Y-56002142D02*
X158345535Y-56002142D01*
X158345535Y-56002142D02*
X158274107Y-55966428D01*
X158274107Y-55966428D02*
X158238392Y-55930714D01*
X158238392Y-55930714D02*
X158202678Y-55859285D01*
X158202678Y-55859285D02*
X158202678Y-55716428D01*
X158202678Y-55716428D02*
X158238392Y-55644999D01*
X158238392Y-55644999D02*
X158274107Y-55609285D01*
X158274107Y-55609285D02*
X158345535Y-55573571D01*
X158666964Y-56359285D02*
X158666964Y-56502142D01*
X158666964Y-56502142D02*
X158631250Y-56573571D01*
X158631250Y-56573571D02*
X158595535Y-56609285D01*
X158595535Y-56609285D02*
X158488392Y-56680714D01*
X158488392Y-56680714D02*
X158345535Y-56716428D01*
X158345535Y-56716428D02*
X158059821Y-56716428D01*
X158059821Y-56716428D02*
X157988392Y-56680714D01*
X157988392Y-56680714D02*
X157952678Y-56645000D01*
X157952678Y-56645000D02*
X157916964Y-56573571D01*
X157916964Y-56573571D02*
X157916964Y-56430714D01*
X157916964Y-56430714D02*
X157952678Y-56359285D01*
X157952678Y-56359285D02*
X157988392Y-56323571D01*
X157988392Y-56323571D02*
X158059821Y-56287857D01*
X158059821Y-56287857D02*
X158238392Y-56287857D01*
X158238392Y-56287857D02*
X158309821Y-56323571D01*
X158309821Y-56323571D02*
X158345535Y-56359285D01*
X158345535Y-56359285D02*
X158381250Y-56430714D01*
X158381250Y-56430714D02*
X158381250Y-56573571D01*
X158381250Y-56573571D02*
X158345535Y-56645000D01*
X158345535Y-56645000D02*
X158309821Y-56680714D01*
X158309821Y-56680714D02*
X158238392Y-56716428D01*
X161036964Y-55323571D02*
X161036964Y-54895000D01*
X161036964Y-55109285D02*
X160286964Y-55109285D01*
X160286964Y-55109285D02*
X160394107Y-55037857D01*
X160394107Y-55037857D02*
X160465535Y-54966428D01*
X160465535Y-54966428D02*
X160501250Y-54895000D01*
X160286964Y-55787857D02*
X160286964Y-55859286D01*
X160286964Y-55859286D02*
X160322678Y-55930714D01*
X160322678Y-55930714D02*
X160358392Y-55966429D01*
X160358392Y-55966429D02*
X160429821Y-56002143D01*
X160429821Y-56002143D02*
X160572678Y-56037857D01*
X160572678Y-56037857D02*
X160751250Y-56037857D01*
X160751250Y-56037857D02*
X160894107Y-56002143D01*
X160894107Y-56002143D02*
X160965535Y-55966429D01*
X160965535Y-55966429D02*
X161001250Y-55930714D01*
X161001250Y-55930714D02*
X161036964Y-55859286D01*
X161036964Y-55859286D02*
X161036964Y-55787857D01*
X161036964Y-55787857D02*
X161001250Y-55716429D01*
X161001250Y-55716429D02*
X160965535Y-55680714D01*
X160965535Y-55680714D02*
X160894107Y-55645000D01*
X160894107Y-55645000D02*
X160751250Y-55609286D01*
X160751250Y-55609286D02*
X160572678Y-55609286D01*
X160572678Y-55609286D02*
X160429821Y-55645000D01*
X160429821Y-55645000D02*
X160358392Y-55680714D01*
X160358392Y-55680714D02*
X160322678Y-55716429D01*
X160322678Y-55716429D02*
X160286964Y-55787857D01*
X161036964Y-56359286D02*
X160286964Y-56359286D01*
X160751250Y-56430715D02*
X161036964Y-56645000D01*
X160536964Y-56645000D02*
X160822678Y-56359286D01*
G04 #@! TO.C,R62*
X154051964Y-80687856D02*
X153694821Y-80437856D01*
X154051964Y-80259285D02*
X153301964Y-80259285D01*
X153301964Y-80259285D02*
X153301964Y-80544999D01*
X153301964Y-80544999D02*
X153337678Y-80616428D01*
X153337678Y-80616428D02*
X153373392Y-80652142D01*
X153373392Y-80652142D02*
X153444821Y-80687856D01*
X153444821Y-80687856D02*
X153551964Y-80687856D01*
X153551964Y-80687856D02*
X153623392Y-80652142D01*
X153623392Y-80652142D02*
X153659107Y-80616428D01*
X153659107Y-80616428D02*
X153694821Y-80544999D01*
X153694821Y-80544999D02*
X153694821Y-80259285D01*
X153301964Y-81330714D02*
X153301964Y-81187856D01*
X153301964Y-81187856D02*
X153337678Y-81116428D01*
X153337678Y-81116428D02*
X153373392Y-81080714D01*
X153373392Y-81080714D02*
X153480535Y-81009285D01*
X153480535Y-81009285D02*
X153623392Y-80973571D01*
X153623392Y-80973571D02*
X153909107Y-80973571D01*
X153909107Y-80973571D02*
X153980535Y-81009285D01*
X153980535Y-81009285D02*
X154016250Y-81044999D01*
X154016250Y-81044999D02*
X154051964Y-81116428D01*
X154051964Y-81116428D02*
X154051964Y-81259285D01*
X154051964Y-81259285D02*
X154016250Y-81330714D01*
X154016250Y-81330714D02*
X153980535Y-81366428D01*
X153980535Y-81366428D02*
X153909107Y-81402142D01*
X153909107Y-81402142D02*
X153730535Y-81402142D01*
X153730535Y-81402142D02*
X153659107Y-81366428D01*
X153659107Y-81366428D02*
X153623392Y-81330714D01*
X153623392Y-81330714D02*
X153587678Y-81259285D01*
X153587678Y-81259285D02*
X153587678Y-81116428D01*
X153587678Y-81116428D02*
X153623392Y-81044999D01*
X153623392Y-81044999D02*
X153659107Y-81009285D01*
X153659107Y-81009285D02*
X153730535Y-80973571D01*
X153373392Y-81687857D02*
X153337678Y-81723571D01*
X153337678Y-81723571D02*
X153301964Y-81795000D01*
X153301964Y-81795000D02*
X153301964Y-81973571D01*
X153301964Y-81973571D02*
X153337678Y-82045000D01*
X153337678Y-82045000D02*
X153373392Y-82080714D01*
X153373392Y-82080714D02*
X153444821Y-82116428D01*
X153444821Y-82116428D02*
X153516250Y-82116428D01*
X153516250Y-82116428D02*
X153623392Y-82080714D01*
X153623392Y-82080714D02*
X154051964Y-81652142D01*
X154051964Y-81652142D02*
X154051964Y-82116428D01*
X155956964Y-80376428D02*
X155956964Y-79947857D01*
X155956964Y-80162142D02*
X155206964Y-80162142D01*
X155206964Y-80162142D02*
X155314107Y-80090714D01*
X155314107Y-80090714D02*
X155385535Y-80019285D01*
X155385535Y-80019285D02*
X155421250Y-79947857D01*
X155206964Y-80840714D02*
X155206964Y-80912143D01*
X155206964Y-80912143D02*
X155242678Y-80983571D01*
X155242678Y-80983571D02*
X155278392Y-81019286D01*
X155278392Y-81019286D02*
X155349821Y-81055000D01*
X155349821Y-81055000D02*
X155492678Y-81090714D01*
X155492678Y-81090714D02*
X155671250Y-81090714D01*
X155671250Y-81090714D02*
X155814107Y-81055000D01*
X155814107Y-81055000D02*
X155885535Y-81019286D01*
X155885535Y-81019286D02*
X155921250Y-80983571D01*
X155921250Y-80983571D02*
X155956964Y-80912143D01*
X155956964Y-80912143D02*
X155956964Y-80840714D01*
X155956964Y-80840714D02*
X155921250Y-80769286D01*
X155921250Y-80769286D02*
X155885535Y-80733571D01*
X155885535Y-80733571D02*
X155814107Y-80697857D01*
X155814107Y-80697857D02*
X155671250Y-80662143D01*
X155671250Y-80662143D02*
X155492678Y-80662143D01*
X155492678Y-80662143D02*
X155349821Y-80697857D01*
X155349821Y-80697857D02*
X155278392Y-80733571D01*
X155278392Y-80733571D02*
X155242678Y-80769286D01*
X155242678Y-80769286D02*
X155206964Y-80840714D01*
X155206964Y-81555000D02*
X155206964Y-81626429D01*
X155206964Y-81626429D02*
X155242678Y-81697857D01*
X155242678Y-81697857D02*
X155278392Y-81733572D01*
X155278392Y-81733572D02*
X155349821Y-81769286D01*
X155349821Y-81769286D02*
X155492678Y-81805000D01*
X155492678Y-81805000D02*
X155671250Y-81805000D01*
X155671250Y-81805000D02*
X155814107Y-81769286D01*
X155814107Y-81769286D02*
X155885535Y-81733572D01*
X155885535Y-81733572D02*
X155921250Y-81697857D01*
X155921250Y-81697857D02*
X155956964Y-81626429D01*
X155956964Y-81626429D02*
X155956964Y-81555000D01*
X155956964Y-81555000D02*
X155921250Y-81483572D01*
X155921250Y-81483572D02*
X155885535Y-81447857D01*
X155885535Y-81447857D02*
X155814107Y-81412143D01*
X155814107Y-81412143D02*
X155671250Y-81376429D01*
X155671250Y-81376429D02*
X155492678Y-81376429D01*
X155492678Y-81376429D02*
X155349821Y-81412143D01*
X155349821Y-81412143D02*
X155278392Y-81447857D01*
X155278392Y-81447857D02*
X155242678Y-81483572D01*
X155242678Y-81483572D02*
X155206964Y-81555000D01*
X155956964Y-82126429D02*
X155206964Y-82126429D01*
X155671250Y-82197858D02*
X155956964Y-82412143D01*
X155456964Y-82412143D02*
X155742678Y-82126429D01*
G04 #@! TO.C,C14*
X108260535Y-83227856D02*
X108296250Y-83192142D01*
X108296250Y-83192142D02*
X108331964Y-83084999D01*
X108331964Y-83084999D02*
X108331964Y-83013571D01*
X108331964Y-83013571D02*
X108296250Y-82906428D01*
X108296250Y-82906428D02*
X108224821Y-82834999D01*
X108224821Y-82834999D02*
X108153392Y-82799285D01*
X108153392Y-82799285D02*
X108010535Y-82763571D01*
X108010535Y-82763571D02*
X107903392Y-82763571D01*
X107903392Y-82763571D02*
X107760535Y-82799285D01*
X107760535Y-82799285D02*
X107689107Y-82834999D01*
X107689107Y-82834999D02*
X107617678Y-82906428D01*
X107617678Y-82906428D02*
X107581964Y-83013571D01*
X107581964Y-83013571D02*
X107581964Y-83084999D01*
X107581964Y-83084999D02*
X107617678Y-83192142D01*
X107617678Y-83192142D02*
X107653392Y-83227856D01*
X108331964Y-83942142D02*
X108331964Y-83513571D01*
X108331964Y-83727856D02*
X107581964Y-83727856D01*
X107581964Y-83727856D02*
X107689107Y-83656428D01*
X107689107Y-83656428D02*
X107760535Y-83584999D01*
X107760535Y-83584999D02*
X107796250Y-83513571D01*
X107831964Y-84585000D02*
X108331964Y-84585000D01*
X107546250Y-84406428D02*
X108081964Y-84227857D01*
X108081964Y-84227857D02*
X108081964Y-84692142D01*
X109486964Y-82044999D02*
X109486964Y-82509285D01*
X109486964Y-82509285D02*
X109772678Y-82259285D01*
X109772678Y-82259285D02*
X109772678Y-82366428D01*
X109772678Y-82366428D02*
X109808392Y-82437857D01*
X109808392Y-82437857D02*
X109844107Y-82473571D01*
X109844107Y-82473571D02*
X109915535Y-82509285D01*
X109915535Y-82509285D02*
X110094107Y-82509285D01*
X110094107Y-82509285D02*
X110165535Y-82473571D01*
X110165535Y-82473571D02*
X110201250Y-82437857D01*
X110201250Y-82437857D02*
X110236964Y-82366428D01*
X110236964Y-82366428D02*
X110236964Y-82152142D01*
X110236964Y-82152142D02*
X110201250Y-82080714D01*
X110201250Y-82080714D02*
X110165535Y-82044999D01*
X109486964Y-82759285D02*
X109486964Y-83223571D01*
X109486964Y-83223571D02*
X109772678Y-82973571D01*
X109772678Y-82973571D02*
X109772678Y-83080714D01*
X109772678Y-83080714D02*
X109808392Y-83152143D01*
X109808392Y-83152143D02*
X109844107Y-83187857D01*
X109844107Y-83187857D02*
X109915535Y-83223571D01*
X109915535Y-83223571D02*
X110094107Y-83223571D01*
X110094107Y-83223571D02*
X110165535Y-83187857D01*
X110165535Y-83187857D02*
X110201250Y-83152143D01*
X110201250Y-83152143D02*
X110236964Y-83080714D01*
X110236964Y-83080714D02*
X110236964Y-82866428D01*
X110236964Y-82866428D02*
X110201250Y-82795000D01*
X110201250Y-82795000D02*
X110165535Y-82759285D01*
X109486964Y-83687857D02*
X109486964Y-83759286D01*
X109486964Y-83759286D02*
X109522678Y-83830714D01*
X109522678Y-83830714D02*
X109558392Y-83866429D01*
X109558392Y-83866429D02*
X109629821Y-83902143D01*
X109629821Y-83902143D02*
X109772678Y-83937857D01*
X109772678Y-83937857D02*
X109951250Y-83937857D01*
X109951250Y-83937857D02*
X110094107Y-83902143D01*
X110094107Y-83902143D02*
X110165535Y-83866429D01*
X110165535Y-83866429D02*
X110201250Y-83830714D01*
X110201250Y-83830714D02*
X110236964Y-83759286D01*
X110236964Y-83759286D02*
X110236964Y-83687857D01*
X110236964Y-83687857D02*
X110201250Y-83616429D01*
X110201250Y-83616429D02*
X110165535Y-83580714D01*
X110165535Y-83580714D02*
X110094107Y-83545000D01*
X110094107Y-83545000D02*
X109951250Y-83509286D01*
X109951250Y-83509286D02*
X109772678Y-83509286D01*
X109772678Y-83509286D02*
X109629821Y-83545000D01*
X109629821Y-83545000D02*
X109558392Y-83580714D01*
X109558392Y-83580714D02*
X109522678Y-83616429D01*
X109522678Y-83616429D02*
X109486964Y-83687857D01*
X109736964Y-84259286D02*
X110486964Y-84259286D01*
X109772678Y-84259286D02*
X109736964Y-84330715D01*
X109736964Y-84330715D02*
X109736964Y-84473572D01*
X109736964Y-84473572D02*
X109772678Y-84545000D01*
X109772678Y-84545000D02*
X109808392Y-84580715D01*
X109808392Y-84580715D02*
X109879821Y-84616429D01*
X109879821Y-84616429D02*
X110094107Y-84616429D01*
X110094107Y-84616429D02*
X110165535Y-84580715D01*
X110165535Y-84580715D02*
X110201250Y-84545000D01*
X110201250Y-84545000D02*
X110236964Y-84473572D01*
X110236964Y-84473572D02*
X110236964Y-84330715D01*
X110236964Y-84330715D02*
X110201250Y-84259286D01*
X109844107Y-85187857D02*
X109844107Y-84937857D01*
X110236964Y-84937857D02*
X109486964Y-84937857D01*
X109486964Y-84937857D02*
X109486964Y-85295000D01*
G04 #@! TO.C,R70*
X156464964Y-149257856D02*
X156107821Y-149007856D01*
X156464964Y-148829285D02*
X155714964Y-148829285D01*
X155714964Y-148829285D02*
X155714964Y-149114999D01*
X155714964Y-149114999D02*
X155750678Y-149186428D01*
X155750678Y-149186428D02*
X155786392Y-149222142D01*
X155786392Y-149222142D02*
X155857821Y-149257856D01*
X155857821Y-149257856D02*
X155964964Y-149257856D01*
X155964964Y-149257856D02*
X156036392Y-149222142D01*
X156036392Y-149222142D02*
X156072107Y-149186428D01*
X156072107Y-149186428D02*
X156107821Y-149114999D01*
X156107821Y-149114999D02*
X156107821Y-148829285D01*
X155714964Y-149507856D02*
X155714964Y-150007856D01*
X155714964Y-150007856D02*
X156464964Y-149686428D01*
X155714964Y-150436428D02*
X155714964Y-150507857D01*
X155714964Y-150507857D02*
X155750678Y-150579285D01*
X155750678Y-150579285D02*
X155786392Y-150615000D01*
X155786392Y-150615000D02*
X155857821Y-150650714D01*
X155857821Y-150650714D02*
X156000678Y-150686428D01*
X156000678Y-150686428D02*
X156179250Y-150686428D01*
X156179250Y-150686428D02*
X156322107Y-150650714D01*
X156322107Y-150650714D02*
X156393535Y-150615000D01*
X156393535Y-150615000D02*
X156429250Y-150579285D01*
X156429250Y-150579285D02*
X156464964Y-150507857D01*
X156464964Y-150507857D02*
X156464964Y-150436428D01*
X156464964Y-150436428D02*
X156429250Y-150365000D01*
X156429250Y-150365000D02*
X156393535Y-150329285D01*
X156393535Y-150329285D02*
X156322107Y-150293571D01*
X156322107Y-150293571D02*
X156179250Y-150257857D01*
X156179250Y-150257857D02*
X156000678Y-150257857D01*
X156000678Y-150257857D02*
X155857821Y-150293571D01*
X155857821Y-150293571D02*
X155786392Y-150329285D01*
X155786392Y-150329285D02*
X155750678Y-150365000D01*
X155750678Y-150365000D02*
X155714964Y-150436428D01*
X158486964Y-149293571D02*
X158486964Y-148865000D01*
X158486964Y-149079285D02*
X157736964Y-149079285D01*
X157736964Y-149079285D02*
X157844107Y-149007857D01*
X157844107Y-149007857D02*
X157915535Y-148936428D01*
X157915535Y-148936428D02*
X157951250Y-148865000D01*
X157736964Y-149757857D02*
X157736964Y-149829286D01*
X157736964Y-149829286D02*
X157772678Y-149900714D01*
X157772678Y-149900714D02*
X157808392Y-149936429D01*
X157808392Y-149936429D02*
X157879821Y-149972143D01*
X157879821Y-149972143D02*
X158022678Y-150007857D01*
X158022678Y-150007857D02*
X158201250Y-150007857D01*
X158201250Y-150007857D02*
X158344107Y-149972143D01*
X158344107Y-149972143D02*
X158415535Y-149936429D01*
X158415535Y-149936429D02*
X158451250Y-149900714D01*
X158451250Y-149900714D02*
X158486964Y-149829286D01*
X158486964Y-149829286D02*
X158486964Y-149757857D01*
X158486964Y-149757857D02*
X158451250Y-149686429D01*
X158451250Y-149686429D02*
X158415535Y-149650714D01*
X158415535Y-149650714D02*
X158344107Y-149615000D01*
X158344107Y-149615000D02*
X158201250Y-149579286D01*
X158201250Y-149579286D02*
X158022678Y-149579286D01*
X158022678Y-149579286D02*
X157879821Y-149615000D01*
X157879821Y-149615000D02*
X157808392Y-149650714D01*
X157808392Y-149650714D02*
X157772678Y-149686429D01*
X157772678Y-149686429D02*
X157736964Y-149757857D01*
X158486964Y-150329286D02*
X157736964Y-150329286D01*
X158201250Y-150400715D02*
X158486964Y-150615000D01*
X157986964Y-150615000D02*
X158272678Y-150329286D01*
G04 #@! TO.C,RV11*
X115646571Y-89771964D02*
X115896571Y-89414821D01*
X116075142Y-89771964D02*
X116075142Y-89021964D01*
X116075142Y-89021964D02*
X115789428Y-89021964D01*
X115789428Y-89021964D02*
X115717999Y-89057678D01*
X115717999Y-89057678D02*
X115682285Y-89093392D01*
X115682285Y-89093392D02*
X115646571Y-89164821D01*
X115646571Y-89164821D02*
X115646571Y-89271964D01*
X115646571Y-89271964D02*
X115682285Y-89343392D01*
X115682285Y-89343392D02*
X115717999Y-89379107D01*
X115717999Y-89379107D02*
X115789428Y-89414821D01*
X115789428Y-89414821D02*
X116075142Y-89414821D01*
X115432285Y-89021964D02*
X115182285Y-89771964D01*
X115182285Y-89771964D02*
X114932285Y-89021964D01*
X114289428Y-89771964D02*
X114717999Y-89771964D01*
X114503714Y-89771964D02*
X114503714Y-89021964D01*
X114503714Y-89021964D02*
X114575142Y-89129107D01*
X114575142Y-89129107D02*
X114646571Y-89200535D01*
X114646571Y-89200535D02*
X114717999Y-89236250D01*
X113575142Y-89771964D02*
X114003713Y-89771964D01*
X113789428Y-89771964D02*
X113789428Y-89021964D01*
X113789428Y-89021964D02*
X113860856Y-89129107D01*
X113860856Y-89129107D02*
X113932285Y-89200535D01*
X113932285Y-89200535D02*
X114003713Y-89236250D01*
X107923428Y-94851964D02*
X108351999Y-94851964D01*
X108137714Y-94851964D02*
X108137714Y-94101964D01*
X108137714Y-94101964D02*
X108209142Y-94209107D01*
X108209142Y-94209107D02*
X108280571Y-94280535D01*
X108280571Y-94280535D02*
X108351999Y-94316250D01*
X107459142Y-94101964D02*
X107387713Y-94101964D01*
X107387713Y-94101964D02*
X107316285Y-94137678D01*
X107316285Y-94137678D02*
X107280571Y-94173392D01*
X107280571Y-94173392D02*
X107244856Y-94244821D01*
X107244856Y-94244821D02*
X107209142Y-94387678D01*
X107209142Y-94387678D02*
X107209142Y-94566250D01*
X107209142Y-94566250D02*
X107244856Y-94709107D01*
X107244856Y-94709107D02*
X107280571Y-94780535D01*
X107280571Y-94780535D02*
X107316285Y-94816250D01*
X107316285Y-94816250D02*
X107387713Y-94851964D01*
X107387713Y-94851964D02*
X107459142Y-94851964D01*
X107459142Y-94851964D02*
X107530571Y-94816250D01*
X107530571Y-94816250D02*
X107566285Y-94780535D01*
X107566285Y-94780535D02*
X107601999Y-94709107D01*
X107601999Y-94709107D02*
X107637713Y-94566250D01*
X107637713Y-94566250D02*
X107637713Y-94387678D01*
X107637713Y-94387678D02*
X107601999Y-94244821D01*
X107601999Y-94244821D02*
X107566285Y-94173392D01*
X107566285Y-94173392D02*
X107530571Y-94137678D01*
X107530571Y-94137678D02*
X107459142Y-94101964D01*
X106887713Y-94851964D02*
X106887713Y-94101964D01*
X106816285Y-94566250D02*
X106601999Y-94851964D01*
X106601999Y-94351964D02*
X106887713Y-94637678D01*
G04 #@! TO.C,R64*
X156136964Y-123867856D02*
X155779821Y-123617856D01*
X156136964Y-123439285D02*
X155386964Y-123439285D01*
X155386964Y-123439285D02*
X155386964Y-123724999D01*
X155386964Y-123724999D02*
X155422678Y-123796428D01*
X155422678Y-123796428D02*
X155458392Y-123832142D01*
X155458392Y-123832142D02*
X155529821Y-123867856D01*
X155529821Y-123867856D02*
X155636964Y-123867856D01*
X155636964Y-123867856D02*
X155708392Y-123832142D01*
X155708392Y-123832142D02*
X155744107Y-123796428D01*
X155744107Y-123796428D02*
X155779821Y-123724999D01*
X155779821Y-123724999D02*
X155779821Y-123439285D01*
X155386964Y-124510714D02*
X155386964Y-124367856D01*
X155386964Y-124367856D02*
X155422678Y-124296428D01*
X155422678Y-124296428D02*
X155458392Y-124260714D01*
X155458392Y-124260714D02*
X155565535Y-124189285D01*
X155565535Y-124189285D02*
X155708392Y-124153571D01*
X155708392Y-124153571D02*
X155994107Y-124153571D01*
X155994107Y-124153571D02*
X156065535Y-124189285D01*
X156065535Y-124189285D02*
X156101250Y-124224999D01*
X156101250Y-124224999D02*
X156136964Y-124296428D01*
X156136964Y-124296428D02*
X156136964Y-124439285D01*
X156136964Y-124439285D02*
X156101250Y-124510714D01*
X156101250Y-124510714D02*
X156065535Y-124546428D01*
X156065535Y-124546428D02*
X155994107Y-124582142D01*
X155994107Y-124582142D02*
X155815535Y-124582142D01*
X155815535Y-124582142D02*
X155744107Y-124546428D01*
X155744107Y-124546428D02*
X155708392Y-124510714D01*
X155708392Y-124510714D02*
X155672678Y-124439285D01*
X155672678Y-124439285D02*
X155672678Y-124296428D01*
X155672678Y-124296428D02*
X155708392Y-124224999D01*
X155708392Y-124224999D02*
X155744107Y-124189285D01*
X155744107Y-124189285D02*
X155815535Y-124153571D01*
X155636964Y-125225000D02*
X156136964Y-125225000D01*
X155351250Y-125046428D02*
X155886964Y-124867857D01*
X155886964Y-124867857D02*
X155886964Y-125332142D01*
X158506964Y-123546428D02*
X158506964Y-123117857D01*
X158506964Y-123332142D02*
X157756964Y-123332142D01*
X157756964Y-123332142D02*
X157864107Y-123260714D01*
X157864107Y-123260714D02*
X157935535Y-123189285D01*
X157935535Y-123189285D02*
X157971250Y-123117857D01*
X157756964Y-124010714D02*
X157756964Y-124082143D01*
X157756964Y-124082143D02*
X157792678Y-124153571D01*
X157792678Y-124153571D02*
X157828392Y-124189286D01*
X157828392Y-124189286D02*
X157899821Y-124225000D01*
X157899821Y-124225000D02*
X158042678Y-124260714D01*
X158042678Y-124260714D02*
X158221250Y-124260714D01*
X158221250Y-124260714D02*
X158364107Y-124225000D01*
X158364107Y-124225000D02*
X158435535Y-124189286D01*
X158435535Y-124189286D02*
X158471250Y-124153571D01*
X158471250Y-124153571D02*
X158506964Y-124082143D01*
X158506964Y-124082143D02*
X158506964Y-124010714D01*
X158506964Y-124010714D02*
X158471250Y-123939286D01*
X158471250Y-123939286D02*
X158435535Y-123903571D01*
X158435535Y-123903571D02*
X158364107Y-123867857D01*
X158364107Y-123867857D02*
X158221250Y-123832143D01*
X158221250Y-123832143D02*
X158042678Y-123832143D01*
X158042678Y-123832143D02*
X157899821Y-123867857D01*
X157899821Y-123867857D02*
X157828392Y-123903571D01*
X157828392Y-123903571D02*
X157792678Y-123939286D01*
X157792678Y-123939286D02*
X157756964Y-124010714D01*
X157756964Y-124725000D02*
X157756964Y-124796429D01*
X157756964Y-124796429D02*
X157792678Y-124867857D01*
X157792678Y-124867857D02*
X157828392Y-124903572D01*
X157828392Y-124903572D02*
X157899821Y-124939286D01*
X157899821Y-124939286D02*
X158042678Y-124975000D01*
X158042678Y-124975000D02*
X158221250Y-124975000D01*
X158221250Y-124975000D02*
X158364107Y-124939286D01*
X158364107Y-124939286D02*
X158435535Y-124903572D01*
X158435535Y-124903572D02*
X158471250Y-124867857D01*
X158471250Y-124867857D02*
X158506964Y-124796429D01*
X158506964Y-124796429D02*
X158506964Y-124725000D01*
X158506964Y-124725000D02*
X158471250Y-124653572D01*
X158471250Y-124653572D02*
X158435535Y-124617857D01*
X158435535Y-124617857D02*
X158364107Y-124582143D01*
X158364107Y-124582143D02*
X158221250Y-124546429D01*
X158221250Y-124546429D02*
X158042678Y-124546429D01*
X158042678Y-124546429D02*
X157899821Y-124582143D01*
X157899821Y-124582143D02*
X157828392Y-124617857D01*
X157828392Y-124617857D02*
X157792678Y-124653572D01*
X157792678Y-124653572D02*
X157756964Y-124725000D01*
X158506964Y-125296429D02*
X157756964Y-125296429D01*
X158221250Y-125367858D02*
X158506964Y-125582143D01*
X158006964Y-125582143D02*
X158292678Y-125296429D01*
G04 #@! TO.C,J3*
X111493333Y-130392619D02*
X111493333Y-131106904D01*
X111493333Y-131106904D02*
X111540952Y-131249761D01*
X111540952Y-131249761D02*
X111636190Y-131345000D01*
X111636190Y-131345000D02*
X111779047Y-131392619D01*
X111779047Y-131392619D02*
X111874285Y-131392619D01*
X111112380Y-130392619D02*
X110493333Y-130392619D01*
X110493333Y-130392619D02*
X110826666Y-130773571D01*
X110826666Y-130773571D02*
X110683809Y-130773571D01*
X110683809Y-130773571D02*
X110588571Y-130821190D01*
X110588571Y-130821190D02*
X110540952Y-130868809D01*
X110540952Y-130868809D02*
X110493333Y-130964047D01*
X110493333Y-130964047D02*
X110493333Y-131202142D01*
X110493333Y-131202142D02*
X110540952Y-131297380D01*
X110540952Y-131297380D02*
X110588571Y-131345000D01*
X110588571Y-131345000D02*
X110683809Y-131392619D01*
X110683809Y-131392619D02*
X110969523Y-131392619D01*
X110969523Y-131392619D02*
X111064761Y-131345000D01*
X111064761Y-131345000D02*
X111112380Y-131297380D01*
G04 #@! TO.C,R60*
X128641964Y-80667856D02*
X128284821Y-80417856D01*
X128641964Y-80239285D02*
X127891964Y-80239285D01*
X127891964Y-80239285D02*
X127891964Y-80524999D01*
X127891964Y-80524999D02*
X127927678Y-80596428D01*
X127927678Y-80596428D02*
X127963392Y-80632142D01*
X127963392Y-80632142D02*
X128034821Y-80667856D01*
X128034821Y-80667856D02*
X128141964Y-80667856D01*
X128141964Y-80667856D02*
X128213392Y-80632142D01*
X128213392Y-80632142D02*
X128249107Y-80596428D01*
X128249107Y-80596428D02*
X128284821Y-80524999D01*
X128284821Y-80524999D02*
X128284821Y-80239285D01*
X127891964Y-81310714D02*
X127891964Y-81167856D01*
X127891964Y-81167856D02*
X127927678Y-81096428D01*
X127927678Y-81096428D02*
X127963392Y-81060714D01*
X127963392Y-81060714D02*
X128070535Y-80989285D01*
X128070535Y-80989285D02*
X128213392Y-80953571D01*
X128213392Y-80953571D02*
X128499107Y-80953571D01*
X128499107Y-80953571D02*
X128570535Y-80989285D01*
X128570535Y-80989285D02*
X128606250Y-81024999D01*
X128606250Y-81024999D02*
X128641964Y-81096428D01*
X128641964Y-81096428D02*
X128641964Y-81239285D01*
X128641964Y-81239285D02*
X128606250Y-81310714D01*
X128606250Y-81310714D02*
X128570535Y-81346428D01*
X128570535Y-81346428D02*
X128499107Y-81382142D01*
X128499107Y-81382142D02*
X128320535Y-81382142D01*
X128320535Y-81382142D02*
X128249107Y-81346428D01*
X128249107Y-81346428D02*
X128213392Y-81310714D01*
X128213392Y-81310714D02*
X128177678Y-81239285D01*
X128177678Y-81239285D02*
X128177678Y-81096428D01*
X128177678Y-81096428D02*
X128213392Y-81024999D01*
X128213392Y-81024999D02*
X128249107Y-80989285D01*
X128249107Y-80989285D02*
X128320535Y-80953571D01*
X127891964Y-81846428D02*
X127891964Y-81917857D01*
X127891964Y-81917857D02*
X127927678Y-81989285D01*
X127927678Y-81989285D02*
X127963392Y-82025000D01*
X127963392Y-82025000D02*
X128034821Y-82060714D01*
X128034821Y-82060714D02*
X128177678Y-82096428D01*
X128177678Y-82096428D02*
X128356250Y-82096428D01*
X128356250Y-82096428D02*
X128499107Y-82060714D01*
X128499107Y-82060714D02*
X128570535Y-82025000D01*
X128570535Y-82025000D02*
X128606250Y-81989285D01*
X128606250Y-81989285D02*
X128641964Y-81917857D01*
X128641964Y-81917857D02*
X128641964Y-81846428D01*
X128641964Y-81846428D02*
X128606250Y-81775000D01*
X128606250Y-81775000D02*
X128570535Y-81739285D01*
X128570535Y-81739285D02*
X128499107Y-81703571D01*
X128499107Y-81703571D02*
X128356250Y-81667857D01*
X128356250Y-81667857D02*
X128177678Y-81667857D01*
X128177678Y-81667857D02*
X128034821Y-81703571D01*
X128034821Y-81703571D02*
X127963392Y-81739285D01*
X127963392Y-81739285D02*
X127927678Y-81775000D01*
X127927678Y-81775000D02*
X127891964Y-81846428D01*
X130546964Y-80356428D02*
X130546964Y-79927857D01*
X130546964Y-80142142D02*
X129796964Y-80142142D01*
X129796964Y-80142142D02*
X129904107Y-80070714D01*
X129904107Y-80070714D02*
X129975535Y-79999285D01*
X129975535Y-79999285D02*
X130011250Y-79927857D01*
X129796964Y-80820714D02*
X129796964Y-80892143D01*
X129796964Y-80892143D02*
X129832678Y-80963571D01*
X129832678Y-80963571D02*
X129868392Y-80999286D01*
X129868392Y-80999286D02*
X129939821Y-81035000D01*
X129939821Y-81035000D02*
X130082678Y-81070714D01*
X130082678Y-81070714D02*
X130261250Y-81070714D01*
X130261250Y-81070714D02*
X130404107Y-81035000D01*
X130404107Y-81035000D02*
X130475535Y-80999286D01*
X130475535Y-80999286D02*
X130511250Y-80963571D01*
X130511250Y-80963571D02*
X130546964Y-80892143D01*
X130546964Y-80892143D02*
X130546964Y-80820714D01*
X130546964Y-80820714D02*
X130511250Y-80749286D01*
X130511250Y-80749286D02*
X130475535Y-80713571D01*
X130475535Y-80713571D02*
X130404107Y-80677857D01*
X130404107Y-80677857D02*
X130261250Y-80642143D01*
X130261250Y-80642143D02*
X130082678Y-80642143D01*
X130082678Y-80642143D02*
X129939821Y-80677857D01*
X129939821Y-80677857D02*
X129868392Y-80713571D01*
X129868392Y-80713571D02*
X129832678Y-80749286D01*
X129832678Y-80749286D02*
X129796964Y-80820714D01*
X129796964Y-81535000D02*
X129796964Y-81606429D01*
X129796964Y-81606429D02*
X129832678Y-81677857D01*
X129832678Y-81677857D02*
X129868392Y-81713572D01*
X129868392Y-81713572D02*
X129939821Y-81749286D01*
X129939821Y-81749286D02*
X130082678Y-81785000D01*
X130082678Y-81785000D02*
X130261250Y-81785000D01*
X130261250Y-81785000D02*
X130404107Y-81749286D01*
X130404107Y-81749286D02*
X130475535Y-81713572D01*
X130475535Y-81713572D02*
X130511250Y-81677857D01*
X130511250Y-81677857D02*
X130546964Y-81606429D01*
X130546964Y-81606429D02*
X130546964Y-81535000D01*
X130546964Y-81535000D02*
X130511250Y-81463572D01*
X130511250Y-81463572D02*
X130475535Y-81427857D01*
X130475535Y-81427857D02*
X130404107Y-81392143D01*
X130404107Y-81392143D02*
X130261250Y-81356429D01*
X130261250Y-81356429D02*
X130082678Y-81356429D01*
X130082678Y-81356429D02*
X129939821Y-81392143D01*
X129939821Y-81392143D02*
X129868392Y-81427857D01*
X129868392Y-81427857D02*
X129832678Y-81463572D01*
X129832678Y-81463572D02*
X129796964Y-81535000D01*
X130546964Y-82106429D02*
X129796964Y-82106429D01*
X130261250Y-82177858D02*
X130546964Y-82392143D01*
X130046964Y-82392143D02*
X130332678Y-82106429D01*
G04 #@! TO.C,R61*
X133721964Y-80667856D02*
X133364821Y-80417856D01*
X133721964Y-80239285D02*
X132971964Y-80239285D01*
X132971964Y-80239285D02*
X132971964Y-80524999D01*
X132971964Y-80524999D02*
X133007678Y-80596428D01*
X133007678Y-80596428D02*
X133043392Y-80632142D01*
X133043392Y-80632142D02*
X133114821Y-80667856D01*
X133114821Y-80667856D02*
X133221964Y-80667856D01*
X133221964Y-80667856D02*
X133293392Y-80632142D01*
X133293392Y-80632142D02*
X133329107Y-80596428D01*
X133329107Y-80596428D02*
X133364821Y-80524999D01*
X133364821Y-80524999D02*
X133364821Y-80239285D01*
X132971964Y-81310714D02*
X132971964Y-81167856D01*
X132971964Y-81167856D02*
X133007678Y-81096428D01*
X133007678Y-81096428D02*
X133043392Y-81060714D01*
X133043392Y-81060714D02*
X133150535Y-80989285D01*
X133150535Y-80989285D02*
X133293392Y-80953571D01*
X133293392Y-80953571D02*
X133579107Y-80953571D01*
X133579107Y-80953571D02*
X133650535Y-80989285D01*
X133650535Y-80989285D02*
X133686250Y-81024999D01*
X133686250Y-81024999D02*
X133721964Y-81096428D01*
X133721964Y-81096428D02*
X133721964Y-81239285D01*
X133721964Y-81239285D02*
X133686250Y-81310714D01*
X133686250Y-81310714D02*
X133650535Y-81346428D01*
X133650535Y-81346428D02*
X133579107Y-81382142D01*
X133579107Y-81382142D02*
X133400535Y-81382142D01*
X133400535Y-81382142D02*
X133329107Y-81346428D01*
X133329107Y-81346428D02*
X133293392Y-81310714D01*
X133293392Y-81310714D02*
X133257678Y-81239285D01*
X133257678Y-81239285D02*
X133257678Y-81096428D01*
X133257678Y-81096428D02*
X133293392Y-81024999D01*
X133293392Y-81024999D02*
X133329107Y-80989285D01*
X133329107Y-80989285D02*
X133400535Y-80953571D01*
X133721964Y-82096428D02*
X133721964Y-81667857D01*
X133721964Y-81882142D02*
X132971964Y-81882142D01*
X132971964Y-81882142D02*
X133079107Y-81810714D01*
X133079107Y-81810714D02*
X133150535Y-81739285D01*
X133150535Y-81739285D02*
X133186250Y-81667857D01*
X135626964Y-80356428D02*
X135626964Y-79927857D01*
X135626964Y-80142142D02*
X134876964Y-80142142D01*
X134876964Y-80142142D02*
X134984107Y-80070714D01*
X134984107Y-80070714D02*
X135055535Y-79999285D01*
X135055535Y-79999285D02*
X135091250Y-79927857D01*
X134876964Y-80820714D02*
X134876964Y-80892143D01*
X134876964Y-80892143D02*
X134912678Y-80963571D01*
X134912678Y-80963571D02*
X134948392Y-80999286D01*
X134948392Y-80999286D02*
X135019821Y-81035000D01*
X135019821Y-81035000D02*
X135162678Y-81070714D01*
X135162678Y-81070714D02*
X135341250Y-81070714D01*
X135341250Y-81070714D02*
X135484107Y-81035000D01*
X135484107Y-81035000D02*
X135555535Y-80999286D01*
X135555535Y-80999286D02*
X135591250Y-80963571D01*
X135591250Y-80963571D02*
X135626964Y-80892143D01*
X135626964Y-80892143D02*
X135626964Y-80820714D01*
X135626964Y-80820714D02*
X135591250Y-80749286D01*
X135591250Y-80749286D02*
X135555535Y-80713571D01*
X135555535Y-80713571D02*
X135484107Y-80677857D01*
X135484107Y-80677857D02*
X135341250Y-80642143D01*
X135341250Y-80642143D02*
X135162678Y-80642143D01*
X135162678Y-80642143D02*
X135019821Y-80677857D01*
X135019821Y-80677857D02*
X134948392Y-80713571D01*
X134948392Y-80713571D02*
X134912678Y-80749286D01*
X134912678Y-80749286D02*
X134876964Y-80820714D01*
X134876964Y-81535000D02*
X134876964Y-81606429D01*
X134876964Y-81606429D02*
X134912678Y-81677857D01*
X134912678Y-81677857D02*
X134948392Y-81713572D01*
X134948392Y-81713572D02*
X135019821Y-81749286D01*
X135019821Y-81749286D02*
X135162678Y-81785000D01*
X135162678Y-81785000D02*
X135341250Y-81785000D01*
X135341250Y-81785000D02*
X135484107Y-81749286D01*
X135484107Y-81749286D02*
X135555535Y-81713572D01*
X135555535Y-81713572D02*
X135591250Y-81677857D01*
X135591250Y-81677857D02*
X135626964Y-81606429D01*
X135626964Y-81606429D02*
X135626964Y-81535000D01*
X135626964Y-81535000D02*
X135591250Y-81463572D01*
X135591250Y-81463572D02*
X135555535Y-81427857D01*
X135555535Y-81427857D02*
X135484107Y-81392143D01*
X135484107Y-81392143D02*
X135341250Y-81356429D01*
X135341250Y-81356429D02*
X135162678Y-81356429D01*
X135162678Y-81356429D02*
X135019821Y-81392143D01*
X135019821Y-81392143D02*
X134948392Y-81427857D01*
X134948392Y-81427857D02*
X134912678Y-81463572D01*
X134912678Y-81463572D02*
X134876964Y-81535000D01*
X135626964Y-82106429D02*
X134876964Y-82106429D01*
X135341250Y-82177858D02*
X135626964Y-82392143D01*
X135126964Y-82392143D02*
X135412678Y-82106429D01*
G04 #@! TO.C,C16*
X148805535Y-57327856D02*
X148841250Y-57292142D01*
X148841250Y-57292142D02*
X148876964Y-57184999D01*
X148876964Y-57184999D02*
X148876964Y-57113571D01*
X148876964Y-57113571D02*
X148841250Y-57006428D01*
X148841250Y-57006428D02*
X148769821Y-56934999D01*
X148769821Y-56934999D02*
X148698392Y-56899285D01*
X148698392Y-56899285D02*
X148555535Y-56863571D01*
X148555535Y-56863571D02*
X148448392Y-56863571D01*
X148448392Y-56863571D02*
X148305535Y-56899285D01*
X148305535Y-56899285D02*
X148234107Y-56934999D01*
X148234107Y-56934999D02*
X148162678Y-57006428D01*
X148162678Y-57006428D02*
X148126964Y-57113571D01*
X148126964Y-57113571D02*
X148126964Y-57184999D01*
X148126964Y-57184999D02*
X148162678Y-57292142D01*
X148162678Y-57292142D02*
X148198392Y-57327856D01*
X148876964Y-58042142D02*
X148876964Y-57613571D01*
X148876964Y-57827856D02*
X148126964Y-57827856D01*
X148126964Y-57827856D02*
X148234107Y-57756428D01*
X148234107Y-57756428D02*
X148305535Y-57684999D01*
X148305535Y-57684999D02*
X148341250Y-57613571D01*
X148126964Y-58685000D02*
X148126964Y-58542142D01*
X148126964Y-58542142D02*
X148162678Y-58470714D01*
X148162678Y-58470714D02*
X148198392Y-58435000D01*
X148198392Y-58435000D02*
X148305535Y-58363571D01*
X148305535Y-58363571D02*
X148448392Y-58327857D01*
X148448392Y-58327857D02*
X148734107Y-58327857D01*
X148734107Y-58327857D02*
X148805535Y-58363571D01*
X148805535Y-58363571D02*
X148841250Y-58399285D01*
X148841250Y-58399285D02*
X148876964Y-58470714D01*
X148876964Y-58470714D02*
X148876964Y-58613571D01*
X148876964Y-58613571D02*
X148841250Y-58685000D01*
X148841250Y-58685000D02*
X148805535Y-58720714D01*
X148805535Y-58720714D02*
X148734107Y-58756428D01*
X148734107Y-58756428D02*
X148555535Y-58756428D01*
X148555535Y-58756428D02*
X148484107Y-58720714D01*
X148484107Y-58720714D02*
X148448392Y-58685000D01*
X148448392Y-58685000D02*
X148412678Y-58613571D01*
X148412678Y-58613571D02*
X148412678Y-58470714D01*
X148412678Y-58470714D02*
X148448392Y-58399285D01*
X148448392Y-58399285D02*
X148484107Y-58363571D01*
X148484107Y-58363571D02*
X148555535Y-58327857D01*
X148876964Y-60149285D02*
X148876964Y-59720714D01*
X148876964Y-59934999D02*
X148126964Y-59934999D01*
X148126964Y-59934999D02*
X148234107Y-59863571D01*
X148234107Y-59863571D02*
X148305535Y-59792142D01*
X148305535Y-59792142D02*
X148341250Y-59720714D01*
X148126964Y-60613571D02*
X148126964Y-60685000D01*
X148126964Y-60685000D02*
X148162678Y-60756428D01*
X148162678Y-60756428D02*
X148198392Y-60792143D01*
X148198392Y-60792143D02*
X148269821Y-60827857D01*
X148269821Y-60827857D02*
X148412678Y-60863571D01*
X148412678Y-60863571D02*
X148591250Y-60863571D01*
X148591250Y-60863571D02*
X148734107Y-60827857D01*
X148734107Y-60827857D02*
X148805535Y-60792143D01*
X148805535Y-60792143D02*
X148841250Y-60756428D01*
X148841250Y-60756428D02*
X148876964Y-60685000D01*
X148876964Y-60685000D02*
X148876964Y-60613571D01*
X148876964Y-60613571D02*
X148841250Y-60542143D01*
X148841250Y-60542143D02*
X148805535Y-60506428D01*
X148805535Y-60506428D02*
X148734107Y-60470714D01*
X148734107Y-60470714D02*
X148591250Y-60435000D01*
X148591250Y-60435000D02*
X148412678Y-60435000D01*
X148412678Y-60435000D02*
X148269821Y-60470714D01*
X148269821Y-60470714D02*
X148198392Y-60506428D01*
X148198392Y-60506428D02*
X148162678Y-60542143D01*
X148162678Y-60542143D02*
X148126964Y-60613571D01*
X148126964Y-61327857D02*
X148126964Y-61399286D01*
X148126964Y-61399286D02*
X148162678Y-61470714D01*
X148162678Y-61470714D02*
X148198392Y-61506429D01*
X148198392Y-61506429D02*
X148269821Y-61542143D01*
X148269821Y-61542143D02*
X148412678Y-61577857D01*
X148412678Y-61577857D02*
X148591250Y-61577857D01*
X148591250Y-61577857D02*
X148734107Y-61542143D01*
X148734107Y-61542143D02*
X148805535Y-61506429D01*
X148805535Y-61506429D02*
X148841250Y-61470714D01*
X148841250Y-61470714D02*
X148876964Y-61399286D01*
X148876964Y-61399286D02*
X148876964Y-61327857D01*
X148876964Y-61327857D02*
X148841250Y-61256429D01*
X148841250Y-61256429D02*
X148805535Y-61220714D01*
X148805535Y-61220714D02*
X148734107Y-61185000D01*
X148734107Y-61185000D02*
X148591250Y-61149286D01*
X148591250Y-61149286D02*
X148412678Y-61149286D01*
X148412678Y-61149286D02*
X148269821Y-61185000D01*
X148269821Y-61185000D02*
X148198392Y-61220714D01*
X148198392Y-61220714D02*
X148162678Y-61256429D01*
X148162678Y-61256429D02*
X148126964Y-61327857D01*
X148376964Y-61899286D02*
X148876964Y-61899286D01*
X148448392Y-61899286D02*
X148412678Y-61935000D01*
X148412678Y-61935000D02*
X148376964Y-62006429D01*
X148376964Y-62006429D02*
X148376964Y-62113572D01*
X148376964Y-62113572D02*
X148412678Y-62185000D01*
X148412678Y-62185000D02*
X148484107Y-62220715D01*
X148484107Y-62220715D02*
X148876964Y-62220715D01*
X148484107Y-62827857D02*
X148484107Y-62577857D01*
X148876964Y-62577857D02*
X148126964Y-62577857D01*
X148126964Y-62577857D02*
X148126964Y-62935000D01*
G04 #@! TO.C,R63*
X148971964Y-80687856D02*
X148614821Y-80437856D01*
X148971964Y-80259285D02*
X148221964Y-80259285D01*
X148221964Y-80259285D02*
X148221964Y-80544999D01*
X148221964Y-80544999D02*
X148257678Y-80616428D01*
X148257678Y-80616428D02*
X148293392Y-80652142D01*
X148293392Y-80652142D02*
X148364821Y-80687856D01*
X148364821Y-80687856D02*
X148471964Y-80687856D01*
X148471964Y-80687856D02*
X148543392Y-80652142D01*
X148543392Y-80652142D02*
X148579107Y-80616428D01*
X148579107Y-80616428D02*
X148614821Y-80544999D01*
X148614821Y-80544999D02*
X148614821Y-80259285D01*
X148221964Y-81330714D02*
X148221964Y-81187856D01*
X148221964Y-81187856D02*
X148257678Y-81116428D01*
X148257678Y-81116428D02*
X148293392Y-81080714D01*
X148293392Y-81080714D02*
X148400535Y-81009285D01*
X148400535Y-81009285D02*
X148543392Y-80973571D01*
X148543392Y-80973571D02*
X148829107Y-80973571D01*
X148829107Y-80973571D02*
X148900535Y-81009285D01*
X148900535Y-81009285D02*
X148936250Y-81044999D01*
X148936250Y-81044999D02*
X148971964Y-81116428D01*
X148971964Y-81116428D02*
X148971964Y-81259285D01*
X148971964Y-81259285D02*
X148936250Y-81330714D01*
X148936250Y-81330714D02*
X148900535Y-81366428D01*
X148900535Y-81366428D02*
X148829107Y-81402142D01*
X148829107Y-81402142D02*
X148650535Y-81402142D01*
X148650535Y-81402142D02*
X148579107Y-81366428D01*
X148579107Y-81366428D02*
X148543392Y-81330714D01*
X148543392Y-81330714D02*
X148507678Y-81259285D01*
X148507678Y-81259285D02*
X148507678Y-81116428D01*
X148507678Y-81116428D02*
X148543392Y-81044999D01*
X148543392Y-81044999D02*
X148579107Y-81009285D01*
X148579107Y-81009285D02*
X148650535Y-80973571D01*
X148221964Y-81652142D02*
X148221964Y-82116428D01*
X148221964Y-82116428D02*
X148507678Y-81866428D01*
X148507678Y-81866428D02*
X148507678Y-81973571D01*
X148507678Y-81973571D02*
X148543392Y-82045000D01*
X148543392Y-82045000D02*
X148579107Y-82080714D01*
X148579107Y-82080714D02*
X148650535Y-82116428D01*
X148650535Y-82116428D02*
X148829107Y-82116428D01*
X148829107Y-82116428D02*
X148900535Y-82080714D01*
X148900535Y-82080714D02*
X148936250Y-82045000D01*
X148936250Y-82045000D02*
X148971964Y-81973571D01*
X148971964Y-81973571D02*
X148971964Y-81759285D01*
X148971964Y-81759285D02*
X148936250Y-81687857D01*
X148936250Y-81687857D02*
X148900535Y-81652142D01*
X150376964Y-80662143D02*
X150876964Y-80662143D01*
X150091250Y-80483571D02*
X150626964Y-80305000D01*
X150626964Y-80305000D02*
X150626964Y-80769285D01*
X150126964Y-80983571D02*
X150126964Y-81483571D01*
X150126964Y-81483571D02*
X150876964Y-81162143D01*
X150876964Y-81769286D02*
X150126964Y-81769286D01*
X150591250Y-81840715D02*
X150876964Y-82055000D01*
X150376964Y-82055000D02*
X150662678Y-81769286D01*
G04 #@! TO.C,D4*
X141473964Y-149036428D02*
X140723964Y-149036428D01*
X140723964Y-149036428D02*
X140723964Y-149214999D01*
X140723964Y-149214999D02*
X140759678Y-149322142D01*
X140759678Y-149322142D02*
X140831107Y-149393571D01*
X140831107Y-149393571D02*
X140902535Y-149429285D01*
X140902535Y-149429285D02*
X141045392Y-149464999D01*
X141045392Y-149464999D02*
X141152535Y-149464999D01*
X141152535Y-149464999D02*
X141295392Y-149429285D01*
X141295392Y-149429285D02*
X141366821Y-149393571D01*
X141366821Y-149393571D02*
X141438250Y-149322142D01*
X141438250Y-149322142D02*
X141473964Y-149214999D01*
X141473964Y-149214999D02*
X141473964Y-149036428D01*
X140973964Y-150107857D02*
X141473964Y-150107857D01*
X140688250Y-149929285D02*
X141223964Y-149750714D01*
X141223964Y-149750714D02*
X141223964Y-150214999D01*
X141473964Y-143182856D02*
X141473964Y-142754285D01*
X141473964Y-142968570D02*
X140723964Y-142968570D01*
X140723964Y-142968570D02*
X140831107Y-142897142D01*
X140831107Y-142897142D02*
X140902535Y-142825713D01*
X140902535Y-142825713D02*
X140938250Y-142754285D01*
X141473964Y-143504285D02*
X140723964Y-143504285D01*
X140723964Y-143504285D02*
X141473964Y-143932856D01*
X141473964Y-143932856D02*
X140723964Y-143932856D01*
X140973964Y-144611428D02*
X141473964Y-144611428D01*
X140688250Y-144432856D02*
X141223964Y-144254285D01*
X141223964Y-144254285D02*
X141223964Y-144718570D01*
X141473964Y-145397142D02*
X141473964Y-144968571D01*
X141473964Y-145182856D02*
X140723964Y-145182856D01*
X140723964Y-145182856D02*
X140831107Y-145111428D01*
X140831107Y-145111428D02*
X140902535Y-145039999D01*
X140902535Y-145039999D02*
X140938250Y-144968571D01*
X140973964Y-146040000D02*
X141473964Y-146040000D01*
X140688250Y-145861428D02*
X141223964Y-145682857D01*
X141223964Y-145682857D02*
X141223964Y-146147142D01*
X141045392Y-146540000D02*
X141009678Y-146468571D01*
X141009678Y-146468571D02*
X140973964Y-146432857D01*
X140973964Y-146432857D02*
X140902535Y-146397143D01*
X140902535Y-146397143D02*
X140866821Y-146397143D01*
X140866821Y-146397143D02*
X140795392Y-146432857D01*
X140795392Y-146432857D02*
X140759678Y-146468571D01*
X140759678Y-146468571D02*
X140723964Y-146540000D01*
X140723964Y-146540000D02*
X140723964Y-146682857D01*
X140723964Y-146682857D02*
X140759678Y-146754286D01*
X140759678Y-146754286D02*
X140795392Y-146790000D01*
X140795392Y-146790000D02*
X140866821Y-146825714D01*
X140866821Y-146825714D02*
X140902535Y-146825714D01*
X140902535Y-146825714D02*
X140973964Y-146790000D01*
X140973964Y-146790000D02*
X141009678Y-146754286D01*
X141009678Y-146754286D02*
X141045392Y-146682857D01*
X141045392Y-146682857D02*
X141045392Y-146540000D01*
X141045392Y-146540000D02*
X141081107Y-146468571D01*
X141081107Y-146468571D02*
X141116821Y-146432857D01*
X141116821Y-146432857D02*
X141188250Y-146397143D01*
X141188250Y-146397143D02*
X141331107Y-146397143D01*
X141331107Y-146397143D02*
X141402535Y-146432857D01*
X141402535Y-146432857D02*
X141438250Y-146468571D01*
X141438250Y-146468571D02*
X141473964Y-146540000D01*
X141473964Y-146540000D02*
X141473964Y-146682857D01*
X141473964Y-146682857D02*
X141438250Y-146754286D01*
X141438250Y-146754286D02*
X141402535Y-146790000D01*
X141402535Y-146790000D02*
X141331107Y-146825714D01*
X141331107Y-146825714D02*
X141188250Y-146825714D01*
X141188250Y-146825714D02*
X141116821Y-146790000D01*
X141116821Y-146790000D02*
X141081107Y-146754286D01*
X141081107Y-146754286D02*
X141045392Y-146682857D01*
X141478964Y-152093571D02*
X140728964Y-152093571D01*
X141478964Y-152522142D02*
X141050392Y-152200714D01*
X140728964Y-152522142D02*
X141157535Y-152093571D01*
G04 #@! TO.C,R67*
X138346964Y-80687856D02*
X137989821Y-80437856D01*
X138346964Y-80259285D02*
X137596964Y-80259285D01*
X137596964Y-80259285D02*
X137596964Y-80544999D01*
X137596964Y-80544999D02*
X137632678Y-80616428D01*
X137632678Y-80616428D02*
X137668392Y-80652142D01*
X137668392Y-80652142D02*
X137739821Y-80687856D01*
X137739821Y-80687856D02*
X137846964Y-80687856D01*
X137846964Y-80687856D02*
X137918392Y-80652142D01*
X137918392Y-80652142D02*
X137954107Y-80616428D01*
X137954107Y-80616428D02*
X137989821Y-80544999D01*
X137989821Y-80544999D02*
X137989821Y-80259285D01*
X137596964Y-81330714D02*
X137596964Y-81187856D01*
X137596964Y-81187856D02*
X137632678Y-81116428D01*
X137632678Y-81116428D02*
X137668392Y-81080714D01*
X137668392Y-81080714D02*
X137775535Y-81009285D01*
X137775535Y-81009285D02*
X137918392Y-80973571D01*
X137918392Y-80973571D02*
X138204107Y-80973571D01*
X138204107Y-80973571D02*
X138275535Y-81009285D01*
X138275535Y-81009285D02*
X138311250Y-81044999D01*
X138311250Y-81044999D02*
X138346964Y-81116428D01*
X138346964Y-81116428D02*
X138346964Y-81259285D01*
X138346964Y-81259285D02*
X138311250Y-81330714D01*
X138311250Y-81330714D02*
X138275535Y-81366428D01*
X138275535Y-81366428D02*
X138204107Y-81402142D01*
X138204107Y-81402142D02*
X138025535Y-81402142D01*
X138025535Y-81402142D02*
X137954107Y-81366428D01*
X137954107Y-81366428D02*
X137918392Y-81330714D01*
X137918392Y-81330714D02*
X137882678Y-81259285D01*
X137882678Y-81259285D02*
X137882678Y-81116428D01*
X137882678Y-81116428D02*
X137918392Y-81044999D01*
X137918392Y-81044999D02*
X137954107Y-81009285D01*
X137954107Y-81009285D02*
X138025535Y-80973571D01*
X137596964Y-81652142D02*
X137596964Y-82152142D01*
X137596964Y-82152142D02*
X138346964Y-81830714D01*
X140716964Y-80366428D02*
X140716964Y-79937857D01*
X140716964Y-80152142D02*
X139966964Y-80152142D01*
X139966964Y-80152142D02*
X140074107Y-80080714D01*
X140074107Y-80080714D02*
X140145535Y-80009285D01*
X140145535Y-80009285D02*
X140181250Y-79937857D01*
X139966964Y-80830714D02*
X139966964Y-80902143D01*
X139966964Y-80902143D02*
X140002678Y-80973571D01*
X140002678Y-80973571D02*
X140038392Y-81009286D01*
X140038392Y-81009286D02*
X140109821Y-81045000D01*
X140109821Y-81045000D02*
X140252678Y-81080714D01*
X140252678Y-81080714D02*
X140431250Y-81080714D01*
X140431250Y-81080714D02*
X140574107Y-81045000D01*
X140574107Y-81045000D02*
X140645535Y-81009286D01*
X140645535Y-81009286D02*
X140681250Y-80973571D01*
X140681250Y-80973571D02*
X140716964Y-80902143D01*
X140716964Y-80902143D02*
X140716964Y-80830714D01*
X140716964Y-80830714D02*
X140681250Y-80759286D01*
X140681250Y-80759286D02*
X140645535Y-80723571D01*
X140645535Y-80723571D02*
X140574107Y-80687857D01*
X140574107Y-80687857D02*
X140431250Y-80652143D01*
X140431250Y-80652143D02*
X140252678Y-80652143D01*
X140252678Y-80652143D02*
X140109821Y-80687857D01*
X140109821Y-80687857D02*
X140038392Y-80723571D01*
X140038392Y-80723571D02*
X140002678Y-80759286D01*
X140002678Y-80759286D02*
X139966964Y-80830714D01*
X139966964Y-81545000D02*
X139966964Y-81616429D01*
X139966964Y-81616429D02*
X140002678Y-81687857D01*
X140002678Y-81687857D02*
X140038392Y-81723572D01*
X140038392Y-81723572D02*
X140109821Y-81759286D01*
X140109821Y-81759286D02*
X140252678Y-81795000D01*
X140252678Y-81795000D02*
X140431250Y-81795000D01*
X140431250Y-81795000D02*
X140574107Y-81759286D01*
X140574107Y-81759286D02*
X140645535Y-81723572D01*
X140645535Y-81723572D02*
X140681250Y-81687857D01*
X140681250Y-81687857D02*
X140716964Y-81616429D01*
X140716964Y-81616429D02*
X140716964Y-81545000D01*
X140716964Y-81545000D02*
X140681250Y-81473572D01*
X140681250Y-81473572D02*
X140645535Y-81437857D01*
X140645535Y-81437857D02*
X140574107Y-81402143D01*
X140574107Y-81402143D02*
X140431250Y-81366429D01*
X140431250Y-81366429D02*
X140252678Y-81366429D01*
X140252678Y-81366429D02*
X140109821Y-81402143D01*
X140109821Y-81402143D02*
X140038392Y-81437857D01*
X140038392Y-81437857D02*
X140002678Y-81473572D01*
X140002678Y-81473572D02*
X139966964Y-81545000D01*
X140716964Y-82116429D02*
X139966964Y-82116429D01*
X140431250Y-82187858D02*
X140716964Y-82402143D01*
X140216964Y-82402143D02*
X140502678Y-82116429D01*
D11*
G04 #@! TO.C,R71*
X125130000Y-77130000D02*
X125130000Y-77900000D01*
X126500000Y-77900000D02*
X126500000Y-84440000D01*
X123760000Y-77900000D02*
X126500000Y-77900000D01*
X126500000Y-84440000D02*
X123760000Y-84440000D01*
X123760000Y-84440000D02*
X123760000Y-77900000D01*
X125130000Y-85210000D02*
X125130000Y-84440000D01*
G04 #@! TO.C,R65*
X153070000Y-120300000D02*
X153070000Y-121070000D01*
X154440000Y-121070000D02*
X154440000Y-127610000D01*
X151700000Y-121070000D02*
X154440000Y-121070000D01*
X154440000Y-127610000D02*
X151700000Y-127610000D01*
X151700000Y-127610000D02*
X151700000Y-121070000D01*
X153070000Y-128380000D02*
X153070000Y-127610000D01*
G04 #@! TO.C,R74*
X120050000Y-85210000D02*
X120050000Y-84440000D01*
X118680000Y-84440000D02*
X118680000Y-77900000D01*
X121420000Y-84440000D02*
X118680000Y-84440000D01*
X118680000Y-77900000D02*
X121420000Y-77900000D01*
X121420000Y-77900000D02*
X121420000Y-84440000D01*
X120050000Y-77130000D02*
X120050000Y-77900000D01*
G04 #@! TO.C,R66*
X145450000Y-59810000D02*
X145450000Y-59040000D01*
X144080000Y-59040000D02*
X144080000Y-52500000D01*
X146820000Y-59040000D02*
X144080000Y-59040000D01*
X144080000Y-52500000D02*
X146820000Y-52500000D01*
X146820000Y-52500000D02*
X146820000Y-59040000D01*
X145450000Y-51730000D02*
X145450000Y-52500000D01*
G04 #@! TO.C,C15*
X146370000Y-76711000D02*
X146370000Y-77969000D01*
X144530000Y-76711000D02*
X144530000Y-77969000D01*
G04 #@! TO.C,C17*
X146089000Y-141770000D02*
X144831000Y-141770000D01*
X146089000Y-139930000D02*
X144831000Y-139930000D01*
G04 #@! TO.C,R68*
X147980000Y-128380000D02*
X147980000Y-127610000D01*
X146610000Y-127610000D02*
X146610000Y-121070000D01*
X149350000Y-127610000D02*
X146610000Y-127610000D01*
X146610000Y-121070000D02*
X149350000Y-121070000D01*
X149350000Y-121070000D02*
X149350000Y-127610000D01*
X147980000Y-120300000D02*
X147980000Y-121070000D01*
G04 #@! TO.C,R59*
X155610000Y-59810000D02*
X155610000Y-59040000D01*
X154240000Y-59040000D02*
X154240000Y-52500000D01*
X156980000Y-59040000D02*
X154240000Y-59040000D01*
X154240000Y-52500000D02*
X156980000Y-52500000D01*
X156980000Y-52500000D02*
X156980000Y-59040000D01*
X155610000Y-51730000D02*
X155610000Y-52500000D01*
G04 #@! TO.C,D3*
X147980000Y-145700000D02*
X147980000Y-146350000D01*
X149100000Y-146350000D02*
X149100000Y-150590000D01*
X146860000Y-146350000D02*
X149100000Y-146350000D01*
X146860000Y-146950000D02*
X149100000Y-146950000D01*
X146860000Y-147070000D02*
X149100000Y-147070000D01*
X146860000Y-147190000D02*
X149100000Y-147190000D01*
X149100000Y-150590000D02*
X146860000Y-150590000D01*
X146860000Y-150590000D02*
X146860000Y-146350000D01*
X147980000Y-151240000D02*
X147980000Y-150590000D01*
G04 #@! TO.C,RV5*
X104755000Y-97855000D02*
X106274000Y-97855000D01*
X104755000Y-99070000D02*
X105514000Y-99070000D01*
X104755000Y-100285000D02*
X104755000Y-97855000D01*
X104755000Y-100285000D02*
X106274000Y-100285000D01*
X106274000Y-100285000D02*
X106274000Y-97855000D01*
X106275000Y-97680000D02*
X116045000Y-97680000D01*
X106275000Y-102750000D02*
X106275000Y-97680000D01*
X106275000Y-102750000D02*
X116045000Y-102750000D01*
X116045000Y-102750000D02*
X116045000Y-97680000D01*
G04 #@! TO.C,C18*
X163869000Y-134150000D02*
X162611000Y-134150000D01*
X163869000Y-132310000D02*
X162611000Y-132310000D01*
G04 #@! TO.C,R72*
X114970000Y-77130000D02*
X114970000Y-77900000D01*
X116340000Y-77900000D02*
X116340000Y-84440000D01*
X113600000Y-77900000D02*
X116340000Y-77900000D01*
X116340000Y-84440000D02*
X113600000Y-84440000D01*
X113600000Y-84440000D02*
X113600000Y-77900000D01*
X114970000Y-85210000D02*
X114970000Y-84440000D01*
G04 #@! TO.C,R73*
X153060000Y-145700000D02*
X153060000Y-146470000D01*
X154430000Y-146470000D02*
X154430000Y-153010000D01*
X151690000Y-146470000D02*
X154430000Y-146470000D01*
X154430000Y-153010000D02*
X151690000Y-153010000D01*
X151690000Y-153010000D02*
X151690000Y-146470000D01*
X153060000Y-153780000D02*
X153060000Y-153010000D01*
G04 #@! TO.C,U3*
X138980000Y-73720000D02*
X138980000Y-63220000D01*
X157000000Y-73720000D02*
X138980000Y-73720000D01*
X139040000Y-70720000D02*
X139040000Y-66220000D01*
X156940000Y-70720000D02*
X139040000Y-70720000D01*
X156940000Y-69470000D02*
X156940000Y-70720000D01*
X139040000Y-66220000D02*
X156940000Y-66220000D01*
X156940000Y-66220000D02*
X156940000Y-67470000D01*
X138980000Y-63220000D02*
X157000000Y-63220000D01*
X157000000Y-63220000D02*
X157000000Y-73720000D01*
X156940000Y-67470000D02*
G75*
G03*
X156940000Y-69470000I0J-1000000D01*
G01*
G04 #@! TO.C,U4*
X159540000Y-131800000D02*
X159540000Y-142300000D01*
X149140000Y-131800000D02*
X159540000Y-131800000D01*
X159480000Y-134800000D02*
X159480000Y-139300000D01*
X149200000Y-134800000D02*
X159480000Y-134800000D01*
X149200000Y-136050000D02*
X149200000Y-134800000D01*
X159480000Y-139300000D02*
X149200000Y-139300000D01*
X149200000Y-139300000D02*
X149200000Y-138050000D01*
X159540000Y-142300000D02*
X149140000Y-142300000D01*
X149140000Y-142300000D02*
X149140000Y-131800000D01*
X149200000Y-138050000D02*
G75*
G03*
X149200000Y-136050000I0J1000000D01*
G01*
G04 #@! TO.C,R58*
X140370000Y-59810000D02*
X140370000Y-59040000D01*
X139000000Y-59040000D02*
X139000000Y-52500000D01*
X141740000Y-59040000D02*
X139000000Y-59040000D01*
X139000000Y-52500000D02*
X141740000Y-52500000D01*
X141740000Y-52500000D02*
X141740000Y-59040000D01*
X140370000Y-51730000D02*
X140370000Y-52500000D01*
G04 #@! TO.C,J4*
X161900000Y-143340000D02*
X164560000Y-143340000D01*
X161900000Y-153560000D02*
X161900000Y-143340000D01*
X161900000Y-153560000D02*
X164560000Y-153560000D01*
X163230000Y-156160000D02*
X164560000Y-156160000D01*
X164560000Y-153560000D02*
X164560000Y-143340000D01*
X164560000Y-156160000D02*
X164560000Y-154830000D01*
G04 #@! TO.C,R69*
X160690000Y-51730000D02*
X160690000Y-52500000D01*
X162060000Y-52500000D02*
X162060000Y-59040000D01*
X159320000Y-52500000D02*
X162060000Y-52500000D01*
X162060000Y-59040000D02*
X159320000Y-59040000D01*
X159320000Y-59040000D02*
X159320000Y-52500000D01*
X160690000Y-59810000D02*
X160690000Y-59040000D01*
G04 #@! TO.C,R62*
X155610000Y-85220000D02*
X155610000Y-84450000D01*
X154240000Y-84450000D02*
X154240000Y-77910000D01*
X156980000Y-84450000D02*
X154240000Y-84450000D01*
X154240000Y-77910000D02*
X156980000Y-77910000D01*
X156980000Y-77910000D02*
X156980000Y-84450000D01*
X155610000Y-77140000D02*
X155610000Y-77910000D01*
G04 #@! TO.C,C14*
X108520000Y-87430000D02*
X108520000Y-79990000D01*
X111260000Y-87430000D02*
X108520000Y-87430000D01*
X111260000Y-87430000D02*
X111260000Y-79990000D01*
X111260000Y-79990000D02*
X108520000Y-79990000D01*
G04 #@! TO.C,R70*
X158140000Y-153780000D02*
X158140000Y-153010000D01*
X156770000Y-153010000D02*
X156770000Y-146470000D01*
X159510000Y-153010000D02*
X156770000Y-153010000D01*
X156770000Y-146470000D02*
X159510000Y-146470000D01*
X159510000Y-146470000D02*
X159510000Y-153010000D01*
X158140000Y-145700000D02*
X158140000Y-146470000D01*
G04 #@! TO.C,RV11*
X104755000Y-90235000D02*
X106274000Y-90235000D01*
X104755000Y-91450000D02*
X105514000Y-91450000D01*
X104755000Y-92665000D02*
X104755000Y-90235000D01*
X104755000Y-92665000D02*
X106274000Y-92665000D01*
X106274000Y-92665000D02*
X106274000Y-90235000D01*
X106275000Y-90060000D02*
X116045000Y-90060000D01*
X106275000Y-95130000D02*
X106275000Y-90060000D01*
X106275000Y-95130000D02*
X116045000Y-95130000D01*
X116045000Y-95130000D02*
X116045000Y-90060000D01*
G04 #@! TO.C,R64*
X158160000Y-120310000D02*
X158160000Y-121080000D01*
X159530000Y-121080000D02*
X159530000Y-127620000D01*
X156790000Y-121080000D02*
X159530000Y-121080000D01*
X159530000Y-127620000D02*
X156790000Y-127620000D01*
X156790000Y-127620000D02*
X156790000Y-121080000D01*
X158160000Y-128390000D02*
X158160000Y-127620000D01*
G04 #@! TO.C,J3*
X109830000Y-114130000D02*
X112490000Y-114130000D01*
X109830000Y-126890000D02*
X109830000Y-114130000D01*
X109830000Y-126890000D02*
X112490000Y-126890000D01*
X111160000Y-129490000D02*
X112490000Y-129490000D01*
X112490000Y-126890000D02*
X112490000Y-114130000D01*
X112490000Y-129490000D02*
X112490000Y-128160000D01*
G04 #@! TO.C,R60*
X130200000Y-85200000D02*
X130200000Y-84430000D01*
X128830000Y-84430000D02*
X128830000Y-77890000D01*
X131570000Y-84430000D02*
X128830000Y-84430000D01*
X128830000Y-77890000D02*
X131570000Y-77890000D01*
X131570000Y-77890000D02*
X131570000Y-84430000D01*
X130200000Y-77120000D02*
X130200000Y-77890000D01*
G04 #@! TO.C,R61*
X135280000Y-85200000D02*
X135280000Y-84430000D01*
X133910000Y-84430000D02*
X133910000Y-77890000D01*
X136650000Y-84430000D02*
X133910000Y-84430000D01*
X133910000Y-77890000D02*
X136650000Y-77890000D01*
X136650000Y-77890000D02*
X136650000Y-84430000D01*
X135280000Y-77120000D02*
X135280000Y-77890000D01*
G04 #@! TO.C,C16*
X151450000Y-58931000D02*
X151450000Y-60189000D01*
X149610000Y-58931000D02*
X149610000Y-60189000D01*
G04 #@! TO.C,R63*
X150530000Y-85220000D02*
X150530000Y-84450000D01*
X149160000Y-84450000D02*
X149160000Y-77910000D01*
X151900000Y-84450000D02*
X149160000Y-84450000D01*
X149160000Y-77910000D02*
X151900000Y-77910000D01*
X151900000Y-77910000D02*
X151900000Y-84450000D01*
X150530000Y-77140000D02*
X150530000Y-77910000D01*
G04 #@! TO.C,D4*
X142900000Y-151240000D02*
X142900000Y-150590000D01*
X141780000Y-150590000D02*
X141780000Y-146350000D01*
X144020000Y-150590000D02*
X141780000Y-150590000D01*
X144020000Y-149990000D02*
X141780000Y-149990000D01*
X144020000Y-149870000D02*
X141780000Y-149870000D01*
X144020000Y-149750000D02*
X141780000Y-149750000D01*
X141780000Y-146350000D02*
X144020000Y-146350000D01*
X144020000Y-146350000D02*
X144020000Y-150590000D01*
X142900000Y-145700000D02*
X142900000Y-146350000D01*
G04 #@! TO.C,R67*
X140370000Y-77130000D02*
X140370000Y-77900000D01*
X141740000Y-77900000D02*
X141740000Y-84440000D01*
X139000000Y-77900000D02*
X141740000Y-77900000D01*
X141740000Y-84440000D02*
X139000000Y-84440000D01*
X139000000Y-84440000D02*
X139000000Y-77900000D01*
X140370000Y-85210000D02*
X140370000Y-84440000D01*
G04 #@! TD*
M02*
