G04 #@! TF.GenerationSoftware,KiCad,Pcbnew,7.0.0-rc2-unknown-92a61b187f~165~ubuntu22.04.1*
G04 #@! TF.CreationDate,2023-02-10T23:31:28-05:00*
G04 #@! TF.ProjectId,pmf_b1,706d665f-6231-42e6-9b69-6361645f7063,rev?*
G04 #@! TF.SameCoordinates,Original*
G04 #@! TF.FileFunction,Soldermask,Top*
G04 #@! TF.FilePolarity,Negative*
%FSLAX46Y46*%
G04 Gerber Fmt 4.6, Leading zero omitted, Abs format (unit mm)*
G04 Created by KiCad (PCBNEW 7.0.0-rc2-unknown-92a61b187f~165~ubuntu22.04.1) date 2023-02-10 23:31:28*
%MOMM*%
%LPD*%
G01*
G04 APERTURE LIST*
G04 Aperture macros list*
%AMRoundRect*
0 Rectangle with rounded corners*
0 $1 Rounding radius*
0 $2 $3 $4 $5 $6 $7 $8 $9 X,Y pos of 4 corners*
0 Add a 4 corners polygon primitive as box body*
4,1,4,$2,$3,$4,$5,$6,$7,$8,$9,$2,$3,0*
0 Add four circle primitives for the rounded corners*
1,1,$1+$1,$2,$3*
1,1,$1+$1,$4,$5*
1,1,$1+$1,$6,$7*
1,1,$1+$1,$8,$9*
0 Add four rect primitives between the rounded corners*
20,1,$1+$1,$2,$3,$4,$5,0*
20,1,$1+$1,$4,$5,$6,$7,0*
20,1,$1+$1,$6,$7,$8,$9,0*
20,1,$1+$1,$8,$9,$2,$3,0*%
%AMRotRect*
0 Rectangle, with rotation*
0 The origin of the aperture is its center*
0 $1 length*
0 $2 width*
0 $3 Rotation angle, in degrees counterclockwise*
0 Add horizontal line*
21,1,$1,$2,0,0,$3*%
G04 Aperture macros list end*
%ADD10O,2.500000X4.500001*%
%ADD11O,4.500001X2.500001*%
%ADD12RotRect,4.500001X2.500001X315.000000*%
%ADD13O,4.500000X2.500000*%
%ADD14O,2.500000X4.500000*%
%ADD15C,3.200000*%
%ADD16R,1.700000X1.700000*%
%ADD17O,1.700000X1.700000*%
%ADD18C,1.600000*%
%ADD19O,1.600000X1.600000*%
%ADD20C,1.500000*%
%ADD21RoundRect,0.250000X-0.600000X0.600000X-0.600000X-0.600000X0.600000X-0.600000X0.600000X0.600000X0*%
%ADD22C,1.700000*%
%ADD23R,1.600000X2.400000*%
%ADD24O,1.600000X2.400000*%
%ADD25R,1.600000X1.600000*%
%ADD26C,1.440000*%
%ADD27R,2.200000X2.200000*%
%ADD28O,2.200000X2.200000*%
%ADD29R,1.727200X1.727200*%
%ADD30O,1.727200X1.727200*%
G04 APERTURE END LIST*
D10*
G04 #@! TO.C,J8*
X143899999Y-150499999D03*
D11*
X139999999Y-156399999D03*
D12*
X132759999Y-154739999D03*
D13*
X136999999Y-143599999D03*
D14*
X131099999Y-147499999D03*
G04 #@! TD*
D15*
G04 #@! TO.C,H3*
X105000000Y-124000000D03*
G04 #@! TD*
D16*
G04 #@! TO.C,J1*
X108659999Y-110159999D03*
D17*
X108659999Y-107619999D03*
X108659999Y-105079999D03*
X108659999Y-102539999D03*
X108659999Y-99999999D03*
X108659999Y-97459999D03*
G04 #@! TD*
D10*
G04 #@! TO.C,J7*
X143899999Y-175499999D03*
D11*
X139999999Y-181399999D03*
D12*
X132759999Y-179739999D03*
D13*
X136999999Y-168599999D03*
D14*
X131099999Y-172499999D03*
G04 #@! TD*
D10*
G04 #@! TO.C,J5*
X118899999Y-150499999D03*
D11*
X114999999Y-156399999D03*
D12*
X107759999Y-154739999D03*
D13*
X111999999Y-143599999D03*
D14*
X106099999Y-147499999D03*
G04 #@! TD*
D10*
G04 #@! TO.C,J9*
X168899999Y-175499999D03*
D11*
X164999999Y-181399999D03*
D12*
X157759999Y-179739999D03*
D13*
X161999999Y-168599999D03*
D14*
X156099999Y-172499999D03*
G04 #@! TD*
D16*
G04 #@! TO.C,J2*
X160729999Y-136829999D03*
D17*
X160729999Y-134289999D03*
X160729999Y-131749999D03*
X160729999Y-129209999D03*
X160729999Y-126669999D03*
G04 #@! TD*
D10*
G04 #@! TO.C,J6*
X118899999Y-175499999D03*
D11*
X114999999Y-181399999D03*
D12*
X107759999Y-179739999D03*
D13*
X111999999Y-168599999D03*
D14*
X106099999Y-172499999D03*
G04 #@! TD*
D10*
G04 #@! TO.C,J12*
X193899999Y-175499999D03*
D11*
X189999999Y-181399999D03*
D12*
X182759999Y-179739999D03*
D13*
X186999999Y-168599999D03*
D14*
X181099999Y-172499999D03*
G04 #@! TD*
D15*
G04 #@! TO.C,H2*
X190000000Y-40000000D03*
G04 #@! TD*
G04 #@! TO.C,H1*
X105000000Y-31000000D03*
G04 #@! TD*
D18*
G04 #@! TO.C,R56*
X179210000Y-152070000D03*
D19*
X179209999Y-162229999D03*
G04 #@! TD*
D18*
G04 #@! TO.C,R44*
X120790000Y-25070000D03*
D19*
X130949999Y-25069999D03*
G04 #@! TD*
D18*
G04 #@! TO.C,R26*
X148730000Y-44120000D03*
D19*
X158889999Y-44119999D03*
G04 #@! TD*
D20*
G04 #@! TO.C,TP2*
X133490000Y-96270000D03*
G04 #@! TD*
D18*
G04 #@! TO.C,R32*
X134760000Y-69520000D03*
D19*
X144919999Y-69519999D03*
G04 #@! TD*
D18*
G04 #@! TO.C,R11*
X151270000Y-93650000D03*
D19*
X151269999Y-83489999D03*
G04 #@! TD*
D20*
G04 #@! TO.C,TP4*
X153810000Y-125400000D03*
G04 #@! TD*
D21*
G04 #@! TO.C,J11*
X175400000Y-51740000D03*
D22*
X175400000Y-54280000D03*
X177940000Y-51740000D03*
X177940000Y-54280000D03*
X180480000Y-51740000D03*
X180480000Y-54280000D03*
X183020000Y-51740000D03*
X183020000Y-54280000D03*
X185560000Y-51740000D03*
X185560000Y-54280000D03*
X188100000Y-51740000D03*
X188100000Y-54280000D03*
X190640000Y-51740000D03*
X190640000Y-54280000D03*
G04 #@! TD*
D20*
G04 #@! TO.C,TP8*
X195720000Y-121590000D03*
G04 #@! TD*
D23*
G04 #@! TO.C,U1*
X138579999Y-113979999D03*
D24*
X141119999Y-113979999D03*
X143659999Y-113979999D03*
X146199999Y-113979999D03*
X148739999Y-113979999D03*
X151279999Y-113979999D03*
X153819999Y-113979999D03*
X156359999Y-113979999D03*
X158899999Y-113979999D03*
X158899999Y-121599999D03*
X156359999Y-121599999D03*
X153819999Y-121599999D03*
X151279999Y-121599999D03*
X148739999Y-121599999D03*
X146199999Y-121599999D03*
X143659999Y-121599999D03*
X141119999Y-121599999D03*
X138579999Y-121599999D03*
G04 #@! TD*
D25*
G04 #@! TO.C,C11*
X158889999Y-150799999D03*
D18*
X156390000Y-150800000D03*
G04 #@! TD*
G04 #@! TO.C,R57*
X184290000Y-152070000D03*
D19*
X184289999Y-162229999D03*
G04 #@! TD*
D20*
G04 #@! TO.C,TP5*
X120790000Y-125390000D03*
G04 #@! TD*
D18*
G04 #@! TO.C,R24*
X120790000Y-63170000D03*
D19*
X130949999Y-63169999D03*
G04 #@! TD*
D18*
G04 #@! TO.C,R21*
X106820000Y-37770000D03*
D19*
X116979999Y-37769999D03*
G04 #@! TD*
D18*
G04 #@! TO.C,R22*
X106820000Y-25070000D03*
D19*
X116979999Y-25069999D03*
G04 #@! TD*
D18*
G04 #@! TO.C,R49*
X162700000Y-44120000D03*
D19*
X172859999Y-44119999D03*
G04 #@! TD*
D18*
G04 #@! TO.C,R39*
X162700000Y-18720000D03*
D19*
X172859999Y-18719999D03*
G04 #@! TD*
D26*
G04 #@! TO.C,RV1*
X133490000Y-102540000D03*
X133490000Y-105080000D03*
X133490000Y-107620000D03*
G04 #@! TD*
D18*
G04 #@! TO.C,R50*
X134760000Y-37770000D03*
D19*
X144919999Y-37769999D03*
G04 #@! TD*
D18*
G04 #@! TO.C,R16*
X132220000Y-113960000D03*
D19*
X132219999Y-124119999D03*
G04 #@! TD*
D18*
G04 #@! TO.C,R38*
X134760000Y-18720000D03*
D19*
X144919999Y-18719999D03*
G04 #@! TD*
D18*
G04 #@! TO.C,R25*
X120790000Y-50470000D03*
D19*
X130949999Y-50469999D03*
G04 #@! TD*
D18*
G04 #@! TO.C,R48*
X162700000Y-63170000D03*
D19*
X172859999Y-63169999D03*
G04 #@! TD*
D18*
G04 #@! TO.C,R31*
X134760000Y-75870000D03*
D19*
X144919999Y-75869999D03*
G04 #@! TD*
D18*
G04 #@! TO.C,C6*
X151270000Y-79680000D03*
X151270000Y-74680000D03*
G04 #@! TD*
G04 #@! TO.C,R29*
X120790000Y-18720000D03*
D19*
X130949999Y-18719999D03*
G04 #@! TD*
D18*
G04 #@! TO.C,C13*
X174170000Y-131750000D03*
X176670000Y-131750000D03*
G04 #@! TD*
D23*
G04 #@! TO.C,U2*
X188099999Y-131749999D03*
D24*
X185559999Y-131749999D03*
X183019999Y-131749999D03*
X180479999Y-131749999D03*
X180479999Y-124129999D03*
X183019999Y-124129999D03*
X185559999Y-124129999D03*
X188099999Y-124129999D03*
G04 #@! TD*
D25*
G04 #@! TO.C,C10*
X148729999Y-150799999D03*
D18*
X151230000Y-150800000D03*
G04 #@! TD*
D27*
G04 #@! TO.C,D2*
X148729999Y-158419999D03*
D28*
X158889999Y-158419999D03*
G04 #@! TD*
D18*
G04 #@! TO.C,C5*
X137300000Y-127930000D03*
X137300000Y-132930000D03*
G04 #@! TD*
G04 #@! TO.C,R37*
X162700000Y-31420000D03*
D19*
X172859999Y-31419999D03*
G04 #@! TD*
D18*
G04 #@! TO.C,R28*
X148730000Y-31420000D03*
D19*
X158889999Y-31419999D03*
G04 #@! TD*
D18*
G04 #@! TO.C,R30*
X148730000Y-18720000D03*
D19*
X158889999Y-18719999D03*
G04 #@! TD*
D26*
G04 #@! TO.C,RV4*
X143650000Y-131740000D03*
X143650000Y-134280000D03*
X143650000Y-136820000D03*
G04 #@! TD*
D18*
G04 #@! TO.C,R4*
X150000000Y-138100000D03*
D19*
X149999999Y-127939999D03*
G04 #@! TD*
D26*
G04 #@! TO.C,RV3*
X120790000Y-131740000D03*
X120790000Y-134280000D03*
X120790000Y-136820000D03*
G04 #@! TD*
D20*
G04 #@! TO.C,TP6*
X142380000Y-125390000D03*
G04 #@! TD*
D16*
G04 #@! TO.C,J14*
X179209999Y-31419999D03*
D17*
X179209999Y-33959999D03*
X181749999Y-31419999D03*
X181749999Y-33959999D03*
X184289999Y-31419999D03*
X184289999Y-33959999D03*
X186829999Y-31419999D03*
X186829999Y-33959999D03*
X189369999Y-31419999D03*
X189369999Y-33959999D03*
X191909999Y-31419999D03*
X191909999Y-33959999D03*
X194449999Y-31419999D03*
X194449999Y-33959999D03*
G04 #@! TD*
D18*
G04 #@! TO.C,R2*
X119520000Y-93650000D03*
D19*
X119519999Y-83489999D03*
G04 #@! TD*
D18*
G04 #@! TO.C,R17*
X189370000Y-136830000D03*
D19*
X189369999Y-146989999D03*
G04 #@! TD*
D18*
G04 #@! TO.C,C4*
X128410000Y-79680000D03*
X128410000Y-74680000D03*
G04 #@! TD*
G04 #@! TO.C,R47*
X134760000Y-63170000D03*
D19*
X144919999Y-63169999D03*
G04 #@! TD*
D18*
G04 #@! TO.C,C1*
X150000000Y-108890000D03*
X150000000Y-103890000D03*
G04 #@! TD*
G04 #@! TO.C,R10*
X165240000Y-98730000D03*
D19*
X165239999Y-108889999D03*
G04 #@! TD*
D18*
G04 #@! TO.C,C3*
X144920000Y-108890000D03*
X144920000Y-103890000D03*
G04 #@! TD*
G04 #@! TO.C,R33*
X134760000Y-56820000D03*
D19*
X144919999Y-56819999D03*
G04 #@! TD*
D18*
G04 #@! TO.C,C7*
X165240000Y-121550000D03*
X165240000Y-116550000D03*
G04 #@! TD*
G04 #@! TO.C,C8*
X173495000Y-121590000D03*
X173495000Y-116590000D03*
G04 #@! TD*
G04 #@! TO.C,R55*
X185560000Y-110160000D03*
D19*
X185559999Y-120319999D03*
G04 #@! TD*
D18*
G04 #@! TO.C,R36*
X134760000Y-31420000D03*
D19*
X144919999Y-31419999D03*
G04 #@! TD*
D18*
G04 #@! TO.C,C12*
X191950000Y-125400000D03*
X194450000Y-125400000D03*
G04 #@! TD*
G04 #@! TO.C,R40*
X148730000Y-63170000D03*
D19*
X158889999Y-63169999D03*
G04 #@! TD*
D18*
G04 #@! TO.C,R9*
X110590000Y-127950000D03*
D19*
X110589999Y-138109999D03*
G04 #@! TD*
D18*
G04 #@! TO.C,R51*
X162700000Y-37770000D03*
D19*
X172859999Y-37769999D03*
G04 #@! TD*
D18*
G04 #@! TO.C,R13*
X132220000Y-138050000D03*
D19*
X132219999Y-127889999D03*
G04 #@! TD*
D18*
G04 #@! TO.C,R18*
X179210000Y-146990000D03*
D19*
X179209999Y-136829999D03*
G04 #@! TD*
D18*
G04 #@! TO.C,R43*
X148730000Y-37770000D03*
D19*
X158889999Y-37769999D03*
G04 #@! TD*
D20*
G04 #@! TO.C,TP9*
X195720000Y-131490000D03*
G04 #@! TD*
D18*
G04 #@! TO.C,R20*
X106820000Y-63170000D03*
D19*
X116979999Y-63169999D03*
G04 #@! TD*
D20*
G04 #@! TO.C,TP1*
X124600000Y-102550000D03*
G04 #@! TD*
D18*
G04 #@! TO.C,R7*
X113170000Y-97460000D03*
D19*
X123329999Y-97459999D03*
G04 #@! TD*
D18*
G04 #@! TO.C,R27*
X120790000Y-31420000D03*
D19*
X130949999Y-31419999D03*
G04 #@! TD*
D18*
G04 #@! TO.C,C9*
X192000000Y-153500000D03*
X192000000Y-158500000D03*
G04 #@! TD*
G04 #@! TO.C,R23*
X120790000Y-69520000D03*
D19*
X130949999Y-69519999D03*
G04 #@! TD*
D18*
G04 #@! TO.C,R41*
X148730000Y-50470000D03*
D19*
X158889999Y-50469999D03*
G04 #@! TD*
D18*
G04 #@! TO.C,R46*
X162700000Y-69520000D03*
D19*
X172859999Y-69519999D03*
G04 #@! TD*
D18*
G04 #@! TO.C,R19*
X106820000Y-69520000D03*
D19*
X116979999Y-69519999D03*
G04 #@! TD*
D18*
G04 #@! TO.C,R42*
X120790000Y-37770000D03*
D19*
X130949999Y-37769999D03*
G04 #@! TD*
D18*
G04 #@! TO.C,R12*
X194450000Y-136830000D03*
D19*
X194449999Y-146989999D03*
G04 #@! TD*
D27*
G04 #@! TO.C,D1*
X148729999Y-143179999D03*
D28*
X158889999Y-143179999D03*
G04 #@! TD*
D18*
G04 #@! TO.C,R34*
X134760000Y-50470000D03*
D19*
X144919999Y-50469999D03*
G04 #@! TD*
D18*
G04 #@! TO.C,R35*
X134760000Y-44120000D03*
D19*
X144919999Y-44119999D03*
G04 #@! TD*
D18*
G04 #@! TO.C,R45*
X148730000Y-25070000D03*
D19*
X158889999Y-25069999D03*
G04 #@! TD*
D18*
G04 #@! TO.C,R54*
X180480000Y-110160000D03*
D19*
X180479999Y-120319999D03*
G04 #@! TD*
D18*
G04 #@! TO.C,R3*
X153810000Y-108890000D03*
D19*
X153809999Y-98729999D03*
G04 #@! TD*
D18*
G04 #@! TO.C,R6*
X128410000Y-93650000D03*
D19*
X128409999Y-83489999D03*
G04 #@! TD*
D20*
G04 #@! TO.C,TP7*
X195720000Y-111430000D03*
G04 #@! TD*
D29*
G04 #@! TO.C,J10*
X167779999Y-157149999D03*
D30*
X170319999Y-157149999D03*
X167779999Y-154609999D03*
X170319999Y-154609999D03*
X167779999Y-152069999D03*
X170319999Y-152069999D03*
X167779999Y-149529999D03*
X170319999Y-149529999D03*
X167779999Y-146989999D03*
X170319999Y-146989999D03*
G04 #@! TD*
D18*
G04 #@! TO.C,R1*
X127950000Y-108900000D03*
D19*
X127949999Y-98739999D03*
G04 #@! TD*
D18*
G04 #@! TO.C,R15*
X184290000Y-136830000D03*
D19*
X184289999Y-146989999D03*
G04 #@! TD*
D18*
G04 #@! TO.C,C2*
X119520000Y-79640000D03*
X119520000Y-74640000D03*
G04 #@! TD*
G04 #@! TO.C,R14*
X127140000Y-127890000D03*
D19*
X127139999Y-138049999D03*
G04 #@! TD*
D26*
G04 #@! TO.C,RV2*
X159525000Y-102530000D03*
X159525000Y-105070000D03*
X159525000Y-107610000D03*
G04 #@! TD*
D20*
G04 #@! TO.C,TP3*
X159525000Y-96190000D03*
G04 #@! TD*
D18*
G04 #@! TO.C,R5*
X139840000Y-98730000D03*
D19*
X139839999Y-108889999D03*
G04 #@! TD*
D18*
G04 #@! TO.C,R53*
X162700000Y-25070000D03*
D19*
X172859999Y-25069999D03*
G04 #@! TD*
D18*
G04 #@! TO.C,R52*
X134760000Y-25070000D03*
D19*
X144919999Y-25069999D03*
G04 #@! TD*
D18*
G04 #@! TO.C,R8*
X115670000Y-138110000D03*
D19*
X115669999Y-127949999D03*
G04 #@! TD*
M02*
