G04 #@! TF.GenerationSoftware,KiCad,Pcbnew,7.0.1-3b83917a11~171~ubuntu22.04.1*
G04 #@! TF.CreationDate,2023-03-12T10:58:09-04:00*
G04 #@! TF.ProjectId,pmf_daughter,706d665f-6461-4756-9768-7465722e6b69,rev?*
G04 #@! TF.SameCoordinates,Original*
G04 #@! TF.FileFunction,Copper,L1,Top*
G04 #@! TF.FilePolarity,Positive*
%FSLAX46Y46*%
G04 Gerber Fmt 4.6, Leading zero omitted, Abs format (unit mm)*
G04 Created by KiCad (PCBNEW 7.0.1-3b83917a11~171~ubuntu22.04.1) date 2023-03-12 10:58:09*
%MOMM*%
%LPD*%
G01*
G04 APERTURE LIST*
G04 #@! TA.AperFunction,ComponentPad*
%ADD10R,1.700000X1.700000*%
G04 #@! TD*
G04 #@! TA.AperFunction,ComponentPad*
%ADD11O,1.700000X1.700000*%
G04 #@! TD*
G04 #@! TA.AperFunction,ComponentPad*
%ADD12C,1.600000*%
G04 #@! TD*
G04 #@! TA.AperFunction,ComponentPad*
%ADD13O,1.600000X1.600000*%
G04 #@! TD*
G04 #@! TA.AperFunction,Conductor*
%ADD14C,0.250000*%
G04 #@! TD*
G04 APERTURE END LIST*
D10*
G04 #@! TO.P,J1,1,Pin_1*
G04 #@! TO.N,GND*
X129210000Y-31420000D03*
D11*
G04 #@! TO.P,J1,2,Pin_2*
X129210000Y-33960000D03*
G04 #@! TO.P,J1,3,Pin_3*
G04 #@! TO.N,LP4*
X131750000Y-31420000D03*
G04 #@! TO.P,J1,4,Pin_4*
G04 #@! TO.N,LINK4*
X131750000Y-33960000D03*
G04 #@! TO.P,J1,5,Pin_5*
G04 #@! TO.N,LP3*
X134290000Y-31420000D03*
G04 #@! TO.P,J1,6,Pin_6*
G04 #@! TO.N,LINK3*
X134290000Y-33960000D03*
G04 #@! TO.P,J1,7,Pin_7*
G04 #@! TO.N,LP2*
X136830000Y-31420000D03*
G04 #@! TO.P,J1,8,Pin_8*
G04 #@! TO.N,LINK2*
X136830000Y-33960000D03*
G04 #@! TO.P,J1,9,Pin_9*
G04 #@! TO.N,LP1*
X139370000Y-31420000D03*
G04 #@! TO.P,J1,10,Pin_10*
G04 #@! TO.N,LINK1*
X139370000Y-33960000D03*
G04 #@! TO.P,J1,11,Pin_11*
G04 #@! TO.N,INPUT*
X141910000Y-31420000D03*
G04 #@! TO.P,J1,12,Pin_12*
G04 #@! TO.N,GND*
X141910000Y-33960000D03*
G04 #@! TO.P,J1,13,Pin_13*
X144450000Y-31420000D03*
G04 #@! TO.P,J1,14,Pin_14*
X144450000Y-33960000D03*
G04 #@! TD*
D12*
G04 #@! TO.P,R27,1*
G04 #@! TO.N,Net-(R11-Pad2)*
X70790000Y-25070000D03*
D13*
G04 #@! TO.P,R27,2*
G04 #@! TO.N,LINK4*
X80950000Y-25070000D03*
G04 #@! TD*
D12*
G04 #@! TO.P,R24,1*
G04 #@! TO.N,Net-(R24-Pad1)*
X89840000Y-50470000D03*
D13*
G04 #@! TO.P,R24,2*
G04 #@! TO.N,LINK2*
X100000000Y-50470000D03*
G04 #@! TD*
D12*
G04 #@! TO.P,R8,1*
G04 #@! TO.N,LP3*
X89840000Y-44120000D03*
D13*
G04 #@! TO.P,R8,2*
G04 #@! TO.N,Net-(R24-Pad1)*
X100000000Y-44120000D03*
G04 #@! TD*
D12*
G04 #@! TO.P,R31,1*
G04 #@! TO.N,Net-(R15-Pad2)*
X75870000Y-50470000D03*
D13*
G04 #@! TO.P,R31,2*
G04 #@! TO.N,LINK2*
X86030000Y-50470000D03*
G04 #@! TD*
D12*
G04 #@! TO.P,R13,1*
G04 #@! TO.N,LP2*
X75870000Y-56820000D03*
D13*
G04 #@! TO.P,R13,2*
G04 #@! TO.N,Net-(R13-Pad2)*
X86030000Y-56820000D03*
G04 #@! TD*
D12*
G04 #@! TO.P,R22,1*
G04 #@! TO.N,Net-(R22-Pad1)*
X89840000Y-63170000D03*
D13*
G04 #@! TO.P,R22,2*
G04 #@! TO.N,LINK1*
X100000000Y-63170000D03*
G04 #@! TD*
D12*
G04 #@! TO.P,R3,1*
G04 #@! TO.N,INPUT*
X63170000Y-28880000D03*
D13*
G04 #@! TO.P,R3,2*
G04 #@! TO.N,LINK3*
X63170000Y-39040000D03*
G04 #@! TD*
D12*
G04 #@! TO.P,R4,1*
G04 #@! TO.N,INPUT*
X66980000Y-28880000D03*
D13*
G04 #@! TO.P,R4,2*
G04 #@! TO.N,LINK4*
X66980000Y-18720000D03*
G04 #@! TD*
D12*
G04 #@! TO.P,R20,1*
G04 #@! TO.N,LP4*
X112700000Y-18720000D03*
D13*
G04 #@! TO.P,R20,2*
G04 #@! TO.N,Net-(R20-Pad2)*
X122860000Y-18720000D03*
G04 #@! TD*
D12*
G04 #@! TO.P,R29,1*
G04 #@! TO.N,Net-(R13-Pad2)*
X75870000Y-63170000D03*
D13*
G04 #@! TO.P,R29,2*
G04 #@! TO.N,LINK1*
X86030000Y-63170000D03*
G04 #@! TD*
D12*
G04 #@! TO.P,R33,1*
G04 #@! TO.N,Net-(R17-Pad2)*
X84760000Y-37770000D03*
D13*
G04 #@! TO.P,R33,2*
G04 #@! TO.N,LINK3*
X94920000Y-37770000D03*
G04 #@! TD*
D12*
G04 #@! TO.P,R19,1*
G04 #@! TO.N,LP2*
X84760000Y-18720000D03*
D13*
G04 #@! TO.P,R19,2*
G04 #@! TO.N,Net-(R19-Pad2)*
X94920000Y-18720000D03*
G04 #@! TD*
D12*
G04 #@! TO.P,R11,1*
G04 #@! TO.N,LP1*
X70790000Y-18720000D03*
D13*
G04 #@! TO.P,R11,2*
G04 #@! TO.N,Net-(R11-Pad2)*
X80950000Y-18720000D03*
G04 #@! TD*
D12*
G04 #@! TO.P,R18,1*
G04 #@! TO.N,LP4*
X112700000Y-31420000D03*
D13*
G04 #@! TO.P,R18,2*
G04 #@! TO.N,Net-(R18-Pad2)*
X122860000Y-31420000D03*
G04 #@! TD*
D12*
G04 #@! TO.P,R15,1*
G04 #@! TO.N,LP2*
X75870000Y-44120000D03*
D13*
G04 #@! TO.P,R15,2*
G04 #@! TO.N,Net-(R15-Pad2)*
X86030000Y-44120000D03*
G04 #@! TD*
D12*
G04 #@! TO.P,R10,1*
G04 #@! TO.N,LP3*
X98730000Y-31420000D03*
D13*
G04 #@! TO.P,R10,2*
G04 #@! TO.N,Net-(R10-Pad2)*
X108890000Y-31420000D03*
G04 #@! TD*
D12*
G04 #@! TO.P,R12,1*
G04 #@! TO.N,LP3*
X98730000Y-18720000D03*
D13*
G04 #@! TO.P,R12,2*
G04 #@! TO.N,Net-(R12-Pad2)*
X108890000Y-18720000D03*
G04 #@! TD*
D12*
G04 #@! TO.P,R1,1*
G04 #@! TO.N,INPUT*
X54280000Y-54280000D03*
D13*
G04 #@! TO.P,R1,2*
G04 #@! TO.N,LINK1*
X54280000Y-64440000D03*
G04 #@! TD*
D12*
G04 #@! TO.P,R14,1*
G04 #@! TO.N,LP4*
X103810000Y-56820000D03*
D13*
G04 #@! TO.P,R14,2*
G04 #@! TO.N,Net-(R14-Pad2)*
X113970000Y-56820000D03*
G04 #@! TD*
D12*
G04 #@! TO.P,R7,1*
G04 #@! TO.N,LP1*
X61900000Y-44120000D03*
D13*
G04 #@! TO.P,R7,2*
G04 #@! TO.N,Net-(R23-Pad1)*
X72060000Y-44120000D03*
G04 #@! TD*
D12*
G04 #@! TO.P,R17,1*
G04 #@! TO.N,LP2*
X84760000Y-31420000D03*
D13*
G04 #@! TO.P,R17,2*
G04 #@! TO.N,Net-(R17-Pad2)*
X94920000Y-31420000D03*
G04 #@! TD*
D12*
G04 #@! TO.P,R30,1*
G04 #@! TO.N,Net-(R14-Pad2)*
X103810000Y-63170000D03*
D13*
G04 #@! TO.P,R30,2*
G04 #@! TO.N,LINK1*
X113970000Y-63170000D03*
G04 #@! TD*
D12*
G04 #@! TO.P,R5,1*
G04 #@! TO.N,LP1*
X61900000Y-56820000D03*
D13*
G04 #@! TO.P,R5,2*
G04 #@! TO.N,Net-(R21-Pad1)*
X72060000Y-56820000D03*
G04 #@! TD*
D12*
G04 #@! TO.P,R34,1*
G04 #@! TO.N,Net-(R18-Pad2)*
X112700000Y-37770000D03*
D13*
G04 #@! TO.P,R34,2*
G04 #@! TO.N,LINK3*
X122860000Y-37770000D03*
G04 #@! TD*
D12*
G04 #@! TO.P,R2,1*
G04 #@! TO.N,INPUT*
X58090000Y-54280000D03*
D13*
G04 #@! TO.P,R2,2*
G04 #@! TO.N,LINK2*
X58090000Y-44120000D03*
G04 #@! TD*
D12*
G04 #@! TO.P,R26,1*
G04 #@! TO.N,Net-(R10-Pad2)*
X98730000Y-37770000D03*
D13*
G04 #@! TO.P,R26,2*
G04 #@! TO.N,LINK3*
X108890000Y-37770000D03*
G04 #@! TD*
D12*
G04 #@! TO.P,R9,1*
G04 #@! TO.N,LP1*
X70790000Y-31420000D03*
D13*
G04 #@! TO.P,R9,2*
G04 #@! TO.N,Net-(R25-Pad1)*
X80950000Y-31420000D03*
G04 #@! TD*
D12*
G04 #@! TO.P,R6,1*
G04 #@! TO.N,LP3*
X89840000Y-56820000D03*
D13*
G04 #@! TO.P,R6,2*
G04 #@! TO.N,Net-(R22-Pad1)*
X100000000Y-56820000D03*
G04 #@! TD*
D12*
G04 #@! TO.P,R25,1*
G04 #@! TO.N,Net-(R25-Pad1)*
X70790000Y-37770000D03*
D13*
G04 #@! TO.P,R25,2*
G04 #@! TO.N,LINK3*
X80950000Y-37770000D03*
G04 #@! TD*
D12*
G04 #@! TO.P,R21,1*
G04 #@! TO.N,Net-(R21-Pad1)*
X61900000Y-63170000D03*
D13*
G04 #@! TO.P,R21,2*
G04 #@! TO.N,LINK1*
X72060000Y-63170000D03*
G04 #@! TD*
D12*
G04 #@! TO.P,R28,1*
G04 #@! TO.N,Net-(R12-Pad2)*
X98730000Y-25070000D03*
D13*
G04 #@! TO.P,R28,2*
G04 #@! TO.N,LINK4*
X108890000Y-25070000D03*
G04 #@! TD*
D12*
G04 #@! TO.P,R23,1*
G04 #@! TO.N,Net-(R23-Pad1)*
X61900000Y-50470000D03*
D13*
G04 #@! TO.P,R23,2*
G04 #@! TO.N,LINK2*
X72060000Y-50470000D03*
G04 #@! TD*
D12*
G04 #@! TO.P,R16,1*
G04 #@! TO.N,LP4*
X103810000Y-44120000D03*
D13*
G04 #@! TO.P,R16,2*
G04 #@! TO.N,Net-(R16-Pad2)*
X113970000Y-44120000D03*
G04 #@! TD*
D12*
G04 #@! TO.P,R36,1*
G04 #@! TO.N,Net-(R20-Pad2)*
X112700000Y-25070000D03*
D13*
G04 #@! TO.P,R36,2*
G04 #@! TO.N,LINK4*
X122860000Y-25070000D03*
G04 #@! TD*
D12*
G04 #@! TO.P,R32,1*
G04 #@! TO.N,Net-(R16-Pad2)*
X103810000Y-50470000D03*
D13*
G04 #@! TO.P,R32,2*
G04 #@! TO.N,LINK2*
X113970000Y-50470000D03*
G04 #@! TD*
D12*
G04 #@! TO.P,R35,1*
G04 #@! TO.N,Net-(R19-Pad2)*
X84760000Y-25070000D03*
D13*
G04 #@! TO.P,R35,2*
G04 #@! TO.N,LINK4*
X94920000Y-25070000D03*
G04 #@! TD*
D14*
G04 #@! TO.N,LP1*
X70790000Y-18720000D02*
X69520000Y-19990000D01*
X61900000Y-44120000D02*
X60630000Y-45390000D01*
X69520000Y-30150000D02*
X70790000Y-31420000D01*
X60630000Y-55550000D02*
X61900000Y-56820000D01*
X69520000Y-19990000D02*
X69520000Y-30150000D01*
X64295000Y-37915000D02*
X64295000Y-41725000D01*
X64295000Y-41725000D02*
X61900000Y-44120000D01*
X70790000Y-31420000D02*
X64295000Y-37915000D01*
X60630000Y-45390000D02*
X60630000Y-55550000D01*
G04 #@! TO.N,LP2*
X74745000Y-55695000D02*
X75870000Y-56820000D01*
X75870000Y-40310000D02*
X75870000Y-44120000D01*
X84760000Y-31420000D02*
X75870000Y-40310000D01*
X74745000Y-45245000D02*
X74745000Y-55695000D01*
X75870000Y-44120000D02*
X74745000Y-45245000D01*
X83635000Y-19845000D02*
X83635000Y-30295000D01*
X83635000Y-30295000D02*
X84760000Y-31420000D01*
X84760000Y-18720000D02*
X83635000Y-19845000D01*
G04 #@! TO.N,LP3*
X97605000Y-30295000D02*
X98730000Y-31420000D01*
X89840000Y-44120000D02*
X88715000Y-45245000D01*
X88715000Y-45245000D02*
X88715000Y-55695000D01*
X98730000Y-31420000D02*
X89840000Y-40310000D01*
X98730000Y-18720000D02*
X97605000Y-19845000D01*
X97605000Y-19845000D02*
X97605000Y-30295000D01*
X89840000Y-40310000D02*
X89840000Y-44120000D01*
X88715000Y-55695000D02*
X89840000Y-56820000D01*
G04 #@! TO.N,LP4*
X103810000Y-44120000D02*
X102286000Y-45644000D01*
X112700000Y-18720000D02*
X111176000Y-20244000D01*
X102286000Y-55296000D02*
X103810000Y-56820000D01*
X111176000Y-29896000D02*
X112700000Y-31420000D01*
X112700000Y-31420000D02*
X103810000Y-40310000D01*
X111176000Y-20244000D02*
X111176000Y-29896000D01*
X103810000Y-40310000D02*
X103810000Y-44120000D01*
X102286000Y-45644000D02*
X102286000Y-55296000D01*
G04 #@! TO.N,INPUT*
X58090000Y-54280000D02*
X54280000Y-54280000D01*
X59215000Y-32835000D02*
X59215000Y-53155000D01*
X59215000Y-53155000D02*
X58090000Y-54280000D01*
X66980000Y-28880000D02*
X63170000Y-28880000D01*
X63170000Y-28880000D02*
X59215000Y-32835000D01*
G04 #@! TO.N,LINK4*
X122860000Y-25070000D02*
X128035000Y-30245000D01*
X128035000Y-30245000D02*
X128035000Y-32595000D01*
X128035000Y-32595000D02*
X130385000Y-32595000D01*
X130385000Y-32595000D02*
X131750000Y-33960000D01*
G04 #@! TD*
G04 #@! TA.AperFunction,Conductor*
G04 #@! TO.N,GND*
G36*
X146976500Y-15017381D02*
G01*
X147022619Y-15063500D01*
X147039500Y-15126500D01*
X147039500Y-42873500D01*
X147022619Y-42936500D01*
X146976500Y-42982619D01*
X146913500Y-42999500D01*
X118000099Y-42999500D01*
X118000000Y-42999459D01*
X117999901Y-42999500D01*
X117999617Y-42999617D01*
X117999459Y-43000000D01*
X117999500Y-43000099D01*
X117999500Y-43012222D01*
X117999500Y-66873500D01*
X117982619Y-66936500D01*
X117936500Y-66982619D01*
X117873500Y-66999500D01*
X52126500Y-66999500D01*
X52063500Y-66982619D01*
X52017381Y-66936500D01*
X52000500Y-66873500D01*
X52000500Y-64440000D01*
X52966502Y-64440000D01*
X52966981Y-64445475D01*
X52970307Y-64483498D01*
X52986457Y-64668087D01*
X53045716Y-64889243D01*
X53142477Y-65096749D01*
X53145630Y-65101252D01*
X53145633Y-65101257D01*
X53222123Y-65210496D01*
X53273802Y-65284300D01*
X53435700Y-65446198D01*
X53623251Y-65577523D01*
X53830757Y-65674284D01*
X54051913Y-65733543D01*
X54280000Y-65753498D01*
X54508087Y-65733543D01*
X54729243Y-65674284D01*
X54936749Y-65577523D01*
X55124300Y-65446198D01*
X55286198Y-65284300D01*
X55417523Y-65096749D01*
X55514284Y-64889243D01*
X55573543Y-64668087D01*
X55593498Y-64440000D01*
X55573543Y-64211913D01*
X55514284Y-63990757D01*
X55417523Y-63783251D01*
X55286198Y-63595700D01*
X55124300Y-63433802D01*
X55050496Y-63382123D01*
X54941257Y-63305633D01*
X54941252Y-63305630D01*
X54936749Y-63302477D01*
X54729243Y-63205716D01*
X54595950Y-63170000D01*
X60586502Y-63170000D01*
X60586981Y-63175475D01*
X60597888Y-63300151D01*
X60606457Y-63398087D01*
X60665716Y-63619243D01*
X60762477Y-63826749D01*
X60765630Y-63831252D01*
X60765633Y-63831257D01*
X60842123Y-63940496D01*
X60893802Y-64014300D01*
X61055700Y-64176198D01*
X61243251Y-64307523D01*
X61450757Y-64404284D01*
X61671913Y-64463543D01*
X61900000Y-64483498D01*
X62128087Y-64463543D01*
X62349243Y-64404284D01*
X62556749Y-64307523D01*
X62744300Y-64176198D01*
X62906198Y-64014300D01*
X63037523Y-63826749D01*
X63134284Y-63619243D01*
X63193543Y-63398087D01*
X63213498Y-63170000D01*
X70746502Y-63170000D01*
X70746981Y-63175475D01*
X70757888Y-63300151D01*
X70766457Y-63398087D01*
X70825716Y-63619243D01*
X70922477Y-63826749D01*
X70925630Y-63831252D01*
X70925633Y-63831257D01*
X71002123Y-63940496D01*
X71053802Y-64014300D01*
X71215700Y-64176198D01*
X71403251Y-64307523D01*
X71610757Y-64404284D01*
X71831913Y-64463543D01*
X72060000Y-64483498D01*
X72288087Y-64463543D01*
X72509243Y-64404284D01*
X72716749Y-64307523D01*
X72904300Y-64176198D01*
X73066198Y-64014300D01*
X73197523Y-63826749D01*
X73294284Y-63619243D01*
X73353543Y-63398087D01*
X73373498Y-63170000D01*
X74556502Y-63170000D01*
X74556981Y-63175475D01*
X74567888Y-63300151D01*
X74576457Y-63398087D01*
X74635716Y-63619243D01*
X74732477Y-63826749D01*
X74735630Y-63831252D01*
X74735633Y-63831257D01*
X74812123Y-63940496D01*
X74863802Y-64014300D01*
X75025700Y-64176198D01*
X75213251Y-64307523D01*
X75420757Y-64404284D01*
X75641913Y-64463543D01*
X75870000Y-64483498D01*
X76098087Y-64463543D01*
X76319243Y-64404284D01*
X76526749Y-64307523D01*
X76714300Y-64176198D01*
X76876198Y-64014300D01*
X77007523Y-63826749D01*
X77104284Y-63619243D01*
X77163543Y-63398087D01*
X77183498Y-63170000D01*
X84716502Y-63170000D01*
X84716981Y-63175475D01*
X84727888Y-63300151D01*
X84736457Y-63398087D01*
X84795716Y-63619243D01*
X84892477Y-63826749D01*
X84895630Y-63831252D01*
X84895633Y-63831257D01*
X84972123Y-63940496D01*
X85023802Y-64014300D01*
X85185700Y-64176198D01*
X85373251Y-64307523D01*
X85580757Y-64404284D01*
X85801913Y-64463543D01*
X86030000Y-64483498D01*
X86258087Y-64463543D01*
X86479243Y-64404284D01*
X86686749Y-64307523D01*
X86874300Y-64176198D01*
X87036198Y-64014300D01*
X87167523Y-63826749D01*
X87264284Y-63619243D01*
X87323543Y-63398087D01*
X87343498Y-63170000D01*
X88526502Y-63170000D01*
X88526981Y-63175475D01*
X88537888Y-63300151D01*
X88546457Y-63398087D01*
X88605716Y-63619243D01*
X88702477Y-63826749D01*
X88705630Y-63831252D01*
X88705633Y-63831257D01*
X88782123Y-63940496D01*
X88833802Y-64014300D01*
X88995700Y-64176198D01*
X89183251Y-64307523D01*
X89390757Y-64404284D01*
X89611913Y-64463543D01*
X89840000Y-64483498D01*
X90068087Y-64463543D01*
X90289243Y-64404284D01*
X90496749Y-64307523D01*
X90684300Y-64176198D01*
X90846198Y-64014300D01*
X90977523Y-63826749D01*
X91074284Y-63619243D01*
X91133543Y-63398087D01*
X91153498Y-63170000D01*
X98686502Y-63170000D01*
X98686981Y-63175475D01*
X98697888Y-63300151D01*
X98706457Y-63398087D01*
X98765716Y-63619243D01*
X98862477Y-63826749D01*
X98865630Y-63831252D01*
X98865633Y-63831257D01*
X98942123Y-63940496D01*
X98993802Y-64014300D01*
X99155700Y-64176198D01*
X99343251Y-64307523D01*
X99550757Y-64404284D01*
X99771913Y-64463543D01*
X100000000Y-64483498D01*
X100228087Y-64463543D01*
X100449243Y-64404284D01*
X100656749Y-64307523D01*
X100844300Y-64176198D01*
X101006198Y-64014300D01*
X101137523Y-63826749D01*
X101234284Y-63619243D01*
X101293543Y-63398087D01*
X101313498Y-63170000D01*
X102496502Y-63170000D01*
X102496981Y-63175475D01*
X102507888Y-63300151D01*
X102516457Y-63398087D01*
X102575716Y-63619243D01*
X102672477Y-63826749D01*
X102675630Y-63831252D01*
X102675633Y-63831257D01*
X102752123Y-63940496D01*
X102803802Y-64014300D01*
X102965700Y-64176198D01*
X103153251Y-64307523D01*
X103360757Y-64404284D01*
X103581913Y-64463543D01*
X103810000Y-64483498D01*
X104038087Y-64463543D01*
X104259243Y-64404284D01*
X104466749Y-64307523D01*
X104654300Y-64176198D01*
X104816198Y-64014300D01*
X104947523Y-63826749D01*
X105044284Y-63619243D01*
X105103543Y-63398087D01*
X105123498Y-63170000D01*
X112656502Y-63170000D01*
X112656981Y-63175475D01*
X112667888Y-63300151D01*
X112676457Y-63398087D01*
X112735716Y-63619243D01*
X112832477Y-63826749D01*
X112835630Y-63831252D01*
X112835633Y-63831257D01*
X112912123Y-63940496D01*
X112963802Y-64014300D01*
X113125700Y-64176198D01*
X113313251Y-64307523D01*
X113520757Y-64404284D01*
X113741913Y-64463543D01*
X113970000Y-64483498D01*
X114198087Y-64463543D01*
X114419243Y-64404284D01*
X114626749Y-64307523D01*
X114814300Y-64176198D01*
X114976198Y-64014300D01*
X115107523Y-63826749D01*
X115204284Y-63619243D01*
X115263543Y-63398087D01*
X115283498Y-63170000D01*
X115263543Y-62941913D01*
X115204284Y-62720757D01*
X115107523Y-62513251D01*
X114976198Y-62325700D01*
X114814300Y-62163802D01*
X114740496Y-62112123D01*
X114631257Y-62035633D01*
X114631252Y-62035630D01*
X114626749Y-62032477D01*
X114419243Y-61935716D01*
X114198087Y-61876457D01*
X114192611Y-61875977D01*
X114192606Y-61875977D01*
X113975475Y-61856981D01*
X113970000Y-61856502D01*
X113964525Y-61856981D01*
X113747393Y-61875977D01*
X113747386Y-61875978D01*
X113741913Y-61876457D01*
X113736599Y-61877880D01*
X113736598Y-61877881D01*
X113526067Y-61934293D01*
X113526065Y-61934293D01*
X113520757Y-61935716D01*
X113515779Y-61938036D01*
X113515774Y-61938039D01*
X113318238Y-62030151D01*
X113318233Y-62030153D01*
X113313251Y-62032477D01*
X113308752Y-62035627D01*
X113308742Y-62035633D01*
X113130211Y-62160643D01*
X113130208Y-62160645D01*
X113125700Y-62163802D01*
X113121808Y-62167693D01*
X113121802Y-62167699D01*
X112967699Y-62321802D01*
X112967693Y-62321808D01*
X112963802Y-62325700D01*
X112960645Y-62330208D01*
X112960643Y-62330211D01*
X112835633Y-62508742D01*
X112835627Y-62508752D01*
X112832477Y-62513251D01*
X112830153Y-62518233D01*
X112830151Y-62518238D01*
X112738039Y-62715774D01*
X112738036Y-62715779D01*
X112735716Y-62720757D01*
X112676457Y-62941913D01*
X112675978Y-62947386D01*
X112675977Y-62947393D01*
X112660266Y-63126981D01*
X112656502Y-63170000D01*
X105123498Y-63170000D01*
X105103543Y-62941913D01*
X105044284Y-62720757D01*
X104947523Y-62513251D01*
X104816198Y-62325700D01*
X104654300Y-62163802D01*
X104580496Y-62112123D01*
X104471257Y-62035633D01*
X104471252Y-62035630D01*
X104466749Y-62032477D01*
X104259243Y-61935716D01*
X104038087Y-61876457D01*
X104032611Y-61875977D01*
X104032606Y-61875977D01*
X103815475Y-61856981D01*
X103810000Y-61856502D01*
X103804525Y-61856981D01*
X103587393Y-61875977D01*
X103587386Y-61875978D01*
X103581913Y-61876457D01*
X103576599Y-61877880D01*
X103576598Y-61877881D01*
X103366067Y-61934293D01*
X103366065Y-61934293D01*
X103360757Y-61935716D01*
X103355779Y-61938036D01*
X103355774Y-61938039D01*
X103158238Y-62030151D01*
X103158233Y-62030153D01*
X103153251Y-62032477D01*
X103148752Y-62035627D01*
X103148742Y-62035633D01*
X102970211Y-62160643D01*
X102970208Y-62160645D01*
X102965700Y-62163802D01*
X102961808Y-62167693D01*
X102961802Y-62167699D01*
X102807699Y-62321802D01*
X102807693Y-62321808D01*
X102803802Y-62325700D01*
X102800645Y-62330208D01*
X102800643Y-62330211D01*
X102675633Y-62508742D01*
X102675627Y-62508752D01*
X102672477Y-62513251D01*
X102670153Y-62518233D01*
X102670151Y-62518238D01*
X102578039Y-62715774D01*
X102578036Y-62715779D01*
X102575716Y-62720757D01*
X102516457Y-62941913D01*
X102515978Y-62947386D01*
X102515977Y-62947393D01*
X102500266Y-63126981D01*
X102496502Y-63170000D01*
X101313498Y-63170000D01*
X101293543Y-62941913D01*
X101234284Y-62720757D01*
X101137523Y-62513251D01*
X101006198Y-62325700D01*
X100844300Y-62163802D01*
X100770496Y-62112123D01*
X100661257Y-62035633D01*
X100661252Y-62035630D01*
X100656749Y-62032477D01*
X100449243Y-61935716D01*
X100228087Y-61876457D01*
X100222611Y-61875977D01*
X100222606Y-61875977D01*
X100005475Y-61856981D01*
X100000000Y-61856502D01*
X99994525Y-61856981D01*
X99777393Y-61875977D01*
X99777386Y-61875978D01*
X99771913Y-61876457D01*
X99766599Y-61877880D01*
X99766598Y-61877881D01*
X99556067Y-61934293D01*
X99556065Y-61934293D01*
X99550757Y-61935716D01*
X99545779Y-61938036D01*
X99545774Y-61938039D01*
X99348238Y-62030151D01*
X99348233Y-62030153D01*
X99343251Y-62032477D01*
X99338752Y-62035627D01*
X99338742Y-62035633D01*
X99160211Y-62160643D01*
X99160208Y-62160645D01*
X99155700Y-62163802D01*
X99151808Y-62167693D01*
X99151802Y-62167699D01*
X98997699Y-62321802D01*
X98997693Y-62321808D01*
X98993802Y-62325700D01*
X98990645Y-62330208D01*
X98990643Y-62330211D01*
X98865633Y-62508742D01*
X98865627Y-62508752D01*
X98862477Y-62513251D01*
X98860153Y-62518233D01*
X98860151Y-62518238D01*
X98768039Y-62715774D01*
X98768036Y-62715779D01*
X98765716Y-62720757D01*
X98706457Y-62941913D01*
X98705978Y-62947386D01*
X98705977Y-62947393D01*
X98690266Y-63126981D01*
X98686502Y-63170000D01*
X91153498Y-63170000D01*
X91133543Y-62941913D01*
X91074284Y-62720757D01*
X90977523Y-62513251D01*
X90846198Y-62325700D01*
X90684300Y-62163802D01*
X90610496Y-62112123D01*
X90501257Y-62035633D01*
X90501252Y-62035630D01*
X90496749Y-62032477D01*
X90289243Y-61935716D01*
X90068087Y-61876457D01*
X90062611Y-61875977D01*
X90062606Y-61875977D01*
X89845475Y-61856981D01*
X89840000Y-61856502D01*
X89834525Y-61856981D01*
X89617393Y-61875977D01*
X89617386Y-61875978D01*
X89611913Y-61876457D01*
X89606599Y-61877880D01*
X89606598Y-61877881D01*
X89396067Y-61934293D01*
X89396065Y-61934293D01*
X89390757Y-61935716D01*
X89385779Y-61938036D01*
X89385774Y-61938039D01*
X89188238Y-62030151D01*
X89188233Y-62030153D01*
X89183251Y-62032477D01*
X89178752Y-62035627D01*
X89178742Y-62035633D01*
X89000211Y-62160643D01*
X89000208Y-62160645D01*
X88995700Y-62163802D01*
X88991808Y-62167693D01*
X88991802Y-62167699D01*
X88837699Y-62321802D01*
X88837693Y-62321808D01*
X88833802Y-62325700D01*
X88830645Y-62330208D01*
X88830643Y-62330211D01*
X88705633Y-62508742D01*
X88705627Y-62508752D01*
X88702477Y-62513251D01*
X88700153Y-62518233D01*
X88700151Y-62518238D01*
X88608039Y-62715774D01*
X88608036Y-62715779D01*
X88605716Y-62720757D01*
X88546457Y-62941913D01*
X88545978Y-62947386D01*
X88545977Y-62947393D01*
X88530266Y-63126981D01*
X88526502Y-63170000D01*
X87343498Y-63170000D01*
X87323543Y-62941913D01*
X87264284Y-62720757D01*
X87167523Y-62513251D01*
X87036198Y-62325700D01*
X86874300Y-62163802D01*
X86800496Y-62112123D01*
X86691257Y-62035633D01*
X86691252Y-62035630D01*
X86686749Y-62032477D01*
X86479243Y-61935716D01*
X86258087Y-61876457D01*
X86252611Y-61875977D01*
X86252606Y-61875977D01*
X86035475Y-61856981D01*
X86030000Y-61856502D01*
X86024525Y-61856981D01*
X85807393Y-61875977D01*
X85807386Y-61875978D01*
X85801913Y-61876457D01*
X85796599Y-61877880D01*
X85796598Y-61877881D01*
X85586067Y-61934293D01*
X85586065Y-61934293D01*
X85580757Y-61935716D01*
X85575779Y-61938036D01*
X85575774Y-61938039D01*
X85378238Y-62030151D01*
X85378233Y-62030153D01*
X85373251Y-62032477D01*
X85368752Y-62035627D01*
X85368742Y-62035633D01*
X85190211Y-62160643D01*
X85190208Y-62160645D01*
X85185700Y-62163802D01*
X85181808Y-62167693D01*
X85181802Y-62167699D01*
X85027699Y-62321802D01*
X85027693Y-62321808D01*
X85023802Y-62325700D01*
X85020645Y-62330208D01*
X85020643Y-62330211D01*
X84895633Y-62508742D01*
X84895627Y-62508752D01*
X84892477Y-62513251D01*
X84890153Y-62518233D01*
X84890151Y-62518238D01*
X84798039Y-62715774D01*
X84798036Y-62715779D01*
X84795716Y-62720757D01*
X84736457Y-62941913D01*
X84735978Y-62947386D01*
X84735977Y-62947393D01*
X84720266Y-63126981D01*
X84716502Y-63170000D01*
X77183498Y-63170000D01*
X77163543Y-62941913D01*
X77104284Y-62720757D01*
X77007523Y-62513251D01*
X76876198Y-62325700D01*
X76714300Y-62163802D01*
X76640496Y-62112123D01*
X76531257Y-62035633D01*
X76531252Y-62035630D01*
X76526749Y-62032477D01*
X76319243Y-61935716D01*
X76098087Y-61876457D01*
X76092611Y-61875977D01*
X76092606Y-61875977D01*
X75875475Y-61856981D01*
X75870000Y-61856502D01*
X75864525Y-61856981D01*
X75647393Y-61875977D01*
X75647386Y-61875978D01*
X75641913Y-61876457D01*
X75636599Y-61877880D01*
X75636598Y-61877881D01*
X75426067Y-61934293D01*
X75426065Y-61934293D01*
X75420757Y-61935716D01*
X75415779Y-61938036D01*
X75415774Y-61938039D01*
X75218238Y-62030151D01*
X75218233Y-62030153D01*
X75213251Y-62032477D01*
X75208752Y-62035627D01*
X75208742Y-62035633D01*
X75030211Y-62160643D01*
X75030208Y-62160645D01*
X75025700Y-62163802D01*
X75021808Y-62167693D01*
X75021802Y-62167699D01*
X74867699Y-62321802D01*
X74867693Y-62321808D01*
X74863802Y-62325700D01*
X74860645Y-62330208D01*
X74860643Y-62330211D01*
X74735633Y-62508742D01*
X74735627Y-62508752D01*
X74732477Y-62513251D01*
X74730153Y-62518233D01*
X74730151Y-62518238D01*
X74638039Y-62715774D01*
X74638036Y-62715779D01*
X74635716Y-62720757D01*
X74576457Y-62941913D01*
X74575978Y-62947386D01*
X74575977Y-62947393D01*
X74560266Y-63126981D01*
X74556502Y-63170000D01*
X73373498Y-63170000D01*
X73353543Y-62941913D01*
X73294284Y-62720757D01*
X73197523Y-62513251D01*
X73066198Y-62325700D01*
X72904300Y-62163802D01*
X72830496Y-62112123D01*
X72721257Y-62035633D01*
X72721252Y-62035630D01*
X72716749Y-62032477D01*
X72509243Y-61935716D01*
X72288087Y-61876457D01*
X72282611Y-61875977D01*
X72282606Y-61875977D01*
X72065475Y-61856981D01*
X72060000Y-61856502D01*
X72054525Y-61856981D01*
X71837393Y-61875977D01*
X71837386Y-61875978D01*
X71831913Y-61876457D01*
X71826599Y-61877880D01*
X71826598Y-61877881D01*
X71616067Y-61934293D01*
X71616065Y-61934293D01*
X71610757Y-61935716D01*
X71605779Y-61938036D01*
X71605774Y-61938039D01*
X71408238Y-62030151D01*
X71408233Y-62030153D01*
X71403251Y-62032477D01*
X71398752Y-62035627D01*
X71398742Y-62035633D01*
X71220211Y-62160643D01*
X71220208Y-62160645D01*
X71215700Y-62163802D01*
X71211808Y-62167693D01*
X71211802Y-62167699D01*
X71057699Y-62321802D01*
X71057693Y-62321808D01*
X71053802Y-62325700D01*
X71050645Y-62330208D01*
X71050643Y-62330211D01*
X70925633Y-62508742D01*
X70925627Y-62508752D01*
X70922477Y-62513251D01*
X70920153Y-62518233D01*
X70920151Y-62518238D01*
X70828039Y-62715774D01*
X70828036Y-62715779D01*
X70825716Y-62720757D01*
X70766457Y-62941913D01*
X70765978Y-62947386D01*
X70765977Y-62947393D01*
X70750266Y-63126981D01*
X70746502Y-63170000D01*
X63213498Y-63170000D01*
X63193543Y-62941913D01*
X63134284Y-62720757D01*
X63037523Y-62513251D01*
X62906198Y-62325700D01*
X62744300Y-62163802D01*
X62670496Y-62112123D01*
X62561257Y-62035633D01*
X62561252Y-62035630D01*
X62556749Y-62032477D01*
X62349243Y-61935716D01*
X62128087Y-61876457D01*
X62122611Y-61875977D01*
X62122606Y-61875977D01*
X61905475Y-61856981D01*
X61900000Y-61856502D01*
X61894525Y-61856981D01*
X61677393Y-61875977D01*
X61677386Y-61875978D01*
X61671913Y-61876457D01*
X61666599Y-61877880D01*
X61666598Y-61877881D01*
X61456067Y-61934293D01*
X61456065Y-61934293D01*
X61450757Y-61935716D01*
X61445779Y-61938036D01*
X61445774Y-61938039D01*
X61248238Y-62030151D01*
X61248233Y-62030153D01*
X61243251Y-62032477D01*
X61238752Y-62035627D01*
X61238742Y-62035633D01*
X61060211Y-62160643D01*
X61060208Y-62160645D01*
X61055700Y-62163802D01*
X61051808Y-62167693D01*
X61051802Y-62167699D01*
X60897699Y-62321802D01*
X60897693Y-62321808D01*
X60893802Y-62325700D01*
X60890645Y-62330208D01*
X60890643Y-62330211D01*
X60765633Y-62508742D01*
X60765627Y-62508752D01*
X60762477Y-62513251D01*
X60760153Y-62518233D01*
X60760151Y-62518238D01*
X60668039Y-62715774D01*
X60668036Y-62715779D01*
X60665716Y-62720757D01*
X60606457Y-62941913D01*
X60605978Y-62947386D01*
X60605977Y-62947393D01*
X60590266Y-63126981D01*
X60586502Y-63170000D01*
X54595950Y-63170000D01*
X54508087Y-63146457D01*
X54502611Y-63145977D01*
X54502606Y-63145977D01*
X54285475Y-63126981D01*
X54280000Y-63126502D01*
X54274525Y-63126981D01*
X54057393Y-63145977D01*
X54057386Y-63145978D01*
X54051913Y-63146457D01*
X54046599Y-63147880D01*
X54046598Y-63147881D01*
X53836067Y-63204293D01*
X53836065Y-63204293D01*
X53830757Y-63205716D01*
X53825779Y-63208036D01*
X53825774Y-63208039D01*
X53628238Y-63300151D01*
X53628233Y-63300153D01*
X53623251Y-63302477D01*
X53618752Y-63305627D01*
X53618742Y-63305633D01*
X53440211Y-63430643D01*
X53440208Y-63430645D01*
X53435700Y-63433802D01*
X53431808Y-63437693D01*
X53431802Y-63437699D01*
X53277699Y-63591802D01*
X53277693Y-63591808D01*
X53273802Y-63595700D01*
X53270645Y-63600208D01*
X53270643Y-63600211D01*
X53145633Y-63778742D01*
X53145627Y-63778752D01*
X53142477Y-63783251D01*
X53140153Y-63788233D01*
X53140151Y-63788238D01*
X53048039Y-63985774D01*
X53048036Y-63985779D01*
X53045716Y-63990757D01*
X53044293Y-63996065D01*
X53044293Y-63996067D01*
X53038363Y-64018197D01*
X52986457Y-64211913D01*
X52985978Y-64217386D01*
X52985977Y-64217393D01*
X52969830Y-64401960D01*
X52966502Y-64440000D01*
X52000500Y-64440000D01*
X52000500Y-54280000D01*
X52966502Y-54280000D01*
X52986457Y-54508087D01*
X53045716Y-54729243D01*
X53142477Y-54936749D01*
X53145630Y-54941252D01*
X53145633Y-54941257D01*
X53207508Y-55029623D01*
X53273802Y-55124300D01*
X53435700Y-55286198D01*
X53490401Y-55324500D01*
X53592354Y-55395889D01*
X53623251Y-55417523D01*
X53830757Y-55514284D01*
X54051913Y-55573543D01*
X54280000Y-55593498D01*
X54508087Y-55573543D01*
X54729243Y-55514284D01*
X54936749Y-55417523D01*
X55124300Y-55286198D01*
X55286198Y-55124300D01*
X55372324Y-55001299D01*
X55396181Y-54967229D01*
X55441214Y-54927737D01*
X55499394Y-54913500D01*
X56870606Y-54913500D01*
X56928786Y-54927737D01*
X56973819Y-54967229D01*
X57017508Y-55029623D01*
X57083802Y-55124300D01*
X57245700Y-55286198D01*
X57300401Y-55324500D01*
X57402354Y-55395889D01*
X57433251Y-55417523D01*
X57640757Y-55514284D01*
X57861913Y-55573543D01*
X58090000Y-55593498D01*
X58318087Y-55573543D01*
X58539243Y-55514284D01*
X58746749Y-55417523D01*
X58934300Y-55286198D01*
X59096198Y-55124300D01*
X59227523Y-54936749D01*
X59324284Y-54729243D01*
X59383543Y-54508087D01*
X59403498Y-54280000D01*
X59383543Y-54051913D01*
X59366539Y-53988457D01*
X59366539Y-53923236D01*
X59399149Y-53866753D01*
X59607259Y-53658643D01*
X59615533Y-53651114D01*
X59622018Y-53647000D01*
X59668676Y-53597312D01*
X59671368Y-53594534D01*
X59691134Y-53574770D01*
X59693601Y-53571588D01*
X59701310Y-53562561D01*
X59731586Y-53530321D01*
X59741345Y-53512567D01*
X59752199Y-53496043D01*
X59764613Y-53480041D01*
X59764712Y-53479811D01*
X59808418Y-53436923D01*
X59871293Y-53420569D01*
X59933957Y-53437713D01*
X59979751Y-53483796D01*
X59996500Y-53546567D01*
X59996500Y-55471233D01*
X59995972Y-55482416D01*
X59994298Y-55489909D01*
X59994547Y-55497833D01*
X59994547Y-55497835D01*
X59996438Y-55557986D01*
X59996500Y-55561945D01*
X59996500Y-55589856D01*
X59996995Y-55593774D01*
X59996997Y-55593806D01*
X59997008Y-55593888D01*
X59997937Y-55605697D01*
X59999077Y-55641969D01*
X59999078Y-55641976D01*
X59999327Y-55649889D01*
X60001537Y-55657498D01*
X60001538Y-55657500D01*
X60004978Y-55669342D01*
X60008986Y-55688693D01*
X60011526Y-55708797D01*
X60014444Y-55716169D01*
X60014445Y-55716170D01*
X60027800Y-55749901D01*
X60031645Y-55761130D01*
X60041771Y-55795986D01*
X60041773Y-55795992D01*
X60043982Y-55803593D01*
X60048014Y-55810411D01*
X60048015Y-55810413D01*
X60054293Y-55821029D01*
X60062990Y-55838782D01*
X60070448Y-55857617D01*
X60075107Y-55864030D01*
X60075108Y-55864031D01*
X60096432Y-55893381D01*
X60102948Y-55903301D01*
X60121422Y-55934538D01*
X60125458Y-55941362D01*
X60131063Y-55946967D01*
X60139778Y-55955682D01*
X60152618Y-55970715D01*
X60159517Y-55980211D01*
X60164528Y-55987107D01*
X60170635Y-55992159D01*
X60170636Y-55992160D01*
X60198598Y-56015292D01*
X60207378Y-56023282D01*
X60590847Y-56406751D01*
X60623458Y-56463234D01*
X60623459Y-56528455D01*
X60607882Y-56586591D01*
X60607881Y-56586598D01*
X60606457Y-56591913D01*
X60605978Y-56597386D01*
X60605977Y-56597393D01*
X60586988Y-56814443D01*
X60586502Y-56820000D01*
X60606457Y-57048087D01*
X60665716Y-57269243D01*
X60762477Y-57476749D01*
X60765630Y-57481252D01*
X60765633Y-57481257D01*
X60842123Y-57590496D01*
X60893802Y-57664300D01*
X61055700Y-57826198D01*
X61243251Y-57957523D01*
X61450757Y-58054284D01*
X61671913Y-58113543D01*
X61900000Y-58133498D01*
X62128087Y-58113543D01*
X62349243Y-58054284D01*
X62556749Y-57957523D01*
X62744300Y-57826198D01*
X62906198Y-57664300D01*
X63037523Y-57476749D01*
X63134284Y-57269243D01*
X63193543Y-57048087D01*
X63213498Y-56820000D01*
X70746502Y-56820000D01*
X70766457Y-57048087D01*
X70825716Y-57269243D01*
X70922477Y-57476749D01*
X70925630Y-57481252D01*
X70925633Y-57481257D01*
X71002123Y-57590496D01*
X71053802Y-57664300D01*
X71215700Y-57826198D01*
X71403251Y-57957523D01*
X71610757Y-58054284D01*
X71831913Y-58113543D01*
X72060000Y-58133498D01*
X72288087Y-58113543D01*
X72509243Y-58054284D01*
X72716749Y-57957523D01*
X72904300Y-57826198D01*
X73066198Y-57664300D01*
X73197523Y-57476749D01*
X73294284Y-57269243D01*
X73353543Y-57048087D01*
X73373498Y-56820000D01*
X73353543Y-56591913D01*
X73294284Y-56370757D01*
X73197523Y-56163251D01*
X73066198Y-55975700D01*
X72904300Y-55813802D01*
X72797195Y-55738806D01*
X72721257Y-55685633D01*
X72721252Y-55685630D01*
X72716749Y-55682477D01*
X72711761Y-55680151D01*
X72514225Y-55588039D01*
X72514223Y-55588038D01*
X72509243Y-55585716D01*
X72288087Y-55526457D01*
X72282611Y-55525977D01*
X72282606Y-55525977D01*
X72065475Y-55506981D01*
X72060000Y-55506502D01*
X72054525Y-55506981D01*
X71837393Y-55525977D01*
X71837386Y-55525978D01*
X71831913Y-55526457D01*
X71826599Y-55527880D01*
X71826598Y-55527881D01*
X71616067Y-55584293D01*
X71616065Y-55584293D01*
X71610757Y-55585716D01*
X71605779Y-55588036D01*
X71605774Y-55588039D01*
X71408238Y-55680151D01*
X71408233Y-55680153D01*
X71403251Y-55682477D01*
X71398752Y-55685627D01*
X71398742Y-55685633D01*
X71220211Y-55810643D01*
X71220208Y-55810645D01*
X71215700Y-55813802D01*
X71211808Y-55817693D01*
X71211802Y-55817699D01*
X71057699Y-55971802D01*
X71057693Y-55971808D01*
X71053802Y-55975700D01*
X71050645Y-55980208D01*
X71050643Y-55980211D01*
X70925633Y-56158742D01*
X70925627Y-56158752D01*
X70922477Y-56163251D01*
X70920153Y-56168233D01*
X70920151Y-56168238D01*
X70828039Y-56365774D01*
X70828036Y-56365779D01*
X70825716Y-56370757D01*
X70824293Y-56376065D01*
X70824293Y-56376067D01*
X70767883Y-56586591D01*
X70766457Y-56591913D01*
X70765978Y-56597386D01*
X70765977Y-56597393D01*
X70746988Y-56814443D01*
X70746502Y-56820000D01*
X63213498Y-56820000D01*
X63193543Y-56591913D01*
X63134284Y-56370757D01*
X63037523Y-56163251D01*
X62906198Y-55975700D01*
X62744300Y-55813802D01*
X62637195Y-55738806D01*
X62561257Y-55685633D01*
X62561252Y-55685630D01*
X62556749Y-55682477D01*
X62551761Y-55680151D01*
X62354225Y-55588039D01*
X62354223Y-55588038D01*
X62349243Y-55585716D01*
X62128087Y-55526457D01*
X62122611Y-55525977D01*
X62122606Y-55525977D01*
X61905475Y-55506981D01*
X61900000Y-55506502D01*
X61894525Y-55506981D01*
X61677393Y-55525977D01*
X61677386Y-55525978D01*
X61671913Y-55526457D01*
X61666607Y-55527878D01*
X61666594Y-55527881D01*
X61608457Y-55543459D01*
X61543235Y-55543458D01*
X61486752Y-55510847D01*
X61300405Y-55324500D01*
X61273091Y-55283623D01*
X61263500Y-55235405D01*
X61263500Y-51814745D01*
X61279033Y-51754140D01*
X61321802Y-51708477D01*
X61381262Y-51689015D01*
X61440578Y-51700143D01*
X61440602Y-51700078D01*
X61441001Y-51700223D01*
X61442753Y-51700552D01*
X61445770Y-51701959D01*
X61445774Y-51701960D01*
X61450757Y-51704284D01*
X61671913Y-51763543D01*
X61900000Y-51783498D01*
X62128087Y-51763543D01*
X62349243Y-51704284D01*
X62556749Y-51607523D01*
X62744300Y-51476198D01*
X62906198Y-51314300D01*
X63037523Y-51126749D01*
X63134284Y-50919243D01*
X63193543Y-50698087D01*
X63213498Y-50470000D01*
X70746502Y-50470000D01*
X70766457Y-50698087D01*
X70825716Y-50919243D01*
X70922477Y-51126749D01*
X70925630Y-51131252D01*
X70925633Y-51131257D01*
X71002123Y-51240496D01*
X71053802Y-51314300D01*
X71215700Y-51476198D01*
X71403251Y-51607523D01*
X71610757Y-51704284D01*
X71831913Y-51763543D01*
X72060000Y-51783498D01*
X72288087Y-51763543D01*
X72509243Y-51704284D01*
X72716749Y-51607523D01*
X72904300Y-51476198D01*
X73066198Y-51314300D01*
X73197523Y-51126749D01*
X73294284Y-50919243D01*
X73353543Y-50698087D01*
X73373498Y-50470000D01*
X73353543Y-50241913D01*
X73294284Y-50020757D01*
X73197523Y-49813251D01*
X73066198Y-49625700D01*
X72904300Y-49463802D01*
X72752230Y-49357321D01*
X72721257Y-49335633D01*
X72721252Y-49335630D01*
X72716749Y-49332477D01*
X72711761Y-49330151D01*
X72514225Y-49238039D01*
X72514223Y-49238038D01*
X72509243Y-49235716D01*
X72288087Y-49176457D01*
X72282611Y-49175977D01*
X72282606Y-49175977D01*
X72065475Y-49156981D01*
X72060000Y-49156502D01*
X72054525Y-49156981D01*
X71837393Y-49175977D01*
X71837386Y-49175978D01*
X71831913Y-49176457D01*
X71826599Y-49177880D01*
X71826598Y-49177881D01*
X71616067Y-49234293D01*
X71616065Y-49234293D01*
X71610757Y-49235716D01*
X71605779Y-49238036D01*
X71605774Y-49238039D01*
X71408238Y-49330151D01*
X71408233Y-49330153D01*
X71403251Y-49332477D01*
X71398752Y-49335627D01*
X71398742Y-49335633D01*
X71220211Y-49460643D01*
X71220208Y-49460645D01*
X71215700Y-49463802D01*
X71211808Y-49467693D01*
X71211802Y-49467699D01*
X71057699Y-49621802D01*
X71057693Y-49621808D01*
X71053802Y-49625700D01*
X71050645Y-49630208D01*
X71050643Y-49630211D01*
X70925633Y-49808742D01*
X70925627Y-49808752D01*
X70922477Y-49813251D01*
X70920153Y-49818233D01*
X70920151Y-49818238D01*
X70828039Y-50015774D01*
X70828036Y-50015779D01*
X70825716Y-50020757D01*
X70766457Y-50241913D01*
X70765978Y-50247386D01*
X70765977Y-50247393D01*
X70746988Y-50464443D01*
X70746502Y-50470000D01*
X63213498Y-50470000D01*
X63193543Y-50241913D01*
X63134284Y-50020757D01*
X63037523Y-49813251D01*
X62906198Y-49625700D01*
X62744300Y-49463802D01*
X62592230Y-49357321D01*
X62561257Y-49335633D01*
X62561252Y-49335630D01*
X62556749Y-49332477D01*
X62551761Y-49330151D01*
X62354225Y-49238039D01*
X62354223Y-49238038D01*
X62349243Y-49235716D01*
X62128087Y-49176457D01*
X62122611Y-49175977D01*
X62122606Y-49175977D01*
X61905475Y-49156981D01*
X61900000Y-49156502D01*
X61894525Y-49156981D01*
X61677393Y-49175977D01*
X61677386Y-49175978D01*
X61671913Y-49176457D01*
X61666599Y-49177880D01*
X61666598Y-49177881D01*
X61456067Y-49234293D01*
X61456065Y-49234293D01*
X61450757Y-49235716D01*
X61445784Y-49238034D01*
X61445770Y-49238040D01*
X61442753Y-49239448D01*
X61441001Y-49239776D01*
X61440602Y-49239922D01*
X61440578Y-49239856D01*
X61381262Y-49250985D01*
X61321802Y-49231523D01*
X61279033Y-49185860D01*
X61263500Y-49125255D01*
X61263500Y-45704595D01*
X61273091Y-45656377D01*
X61300404Y-45615500D01*
X61378246Y-45537656D01*
X61486751Y-45429151D01*
X61543236Y-45396540D01*
X61608457Y-45396540D01*
X61671913Y-45413543D01*
X61900000Y-45433498D01*
X62128087Y-45413543D01*
X62349243Y-45354284D01*
X62556749Y-45257523D01*
X62744300Y-45126198D01*
X62906198Y-44964300D01*
X63037523Y-44776749D01*
X63134284Y-44569243D01*
X63193543Y-44348087D01*
X63213498Y-44120000D01*
X70746502Y-44120000D01*
X70766457Y-44348087D01*
X70825716Y-44569243D01*
X70828038Y-44574223D01*
X70828039Y-44574225D01*
X70920151Y-44771761D01*
X70922477Y-44776749D01*
X70925630Y-44781252D01*
X70925633Y-44781257D01*
X70999221Y-44886351D01*
X71053802Y-44964300D01*
X71215700Y-45126198D01*
X71299998Y-45185224D01*
X71367991Y-45232834D01*
X71403251Y-45257523D01*
X71610757Y-45354284D01*
X71831913Y-45413543D01*
X72060000Y-45433498D01*
X72288087Y-45413543D01*
X72509243Y-45354284D01*
X72716749Y-45257523D01*
X72763278Y-45224943D01*
X74106780Y-45224943D01*
X74107525Y-45232826D01*
X74107525Y-45232834D01*
X74110941Y-45268961D01*
X74111500Y-45280819D01*
X74111500Y-55616233D01*
X74110972Y-55627416D01*
X74109298Y-55634909D01*
X74109547Y-55642833D01*
X74109547Y-55642835D01*
X74111438Y-55702986D01*
X74111500Y-55706945D01*
X74111500Y-55734856D01*
X74111995Y-55738774D01*
X74111997Y-55738806D01*
X74112008Y-55738888D01*
X74112937Y-55750697D01*
X74114077Y-55786969D01*
X74114078Y-55786976D01*
X74114327Y-55794889D01*
X74116537Y-55802498D01*
X74116538Y-55802500D01*
X74119978Y-55814342D01*
X74123986Y-55833693D01*
X74126526Y-55853797D01*
X74129444Y-55861169D01*
X74129445Y-55861170D01*
X74142800Y-55894901D01*
X74146645Y-55906130D01*
X74156771Y-55940986D01*
X74156773Y-55940992D01*
X74158982Y-55948593D01*
X74163014Y-55955411D01*
X74163015Y-55955413D01*
X74169293Y-55966029D01*
X74177990Y-55983782D01*
X74181307Y-55992160D01*
X74185448Y-56002617D01*
X74190107Y-56009030D01*
X74190108Y-56009031D01*
X74211432Y-56038381D01*
X74217948Y-56048301D01*
X74236422Y-56079538D01*
X74240458Y-56086362D01*
X74246062Y-56091966D01*
X74246063Y-56091967D01*
X74254778Y-56100682D01*
X74267618Y-56115715D01*
X74279528Y-56132107D01*
X74285635Y-56137159D01*
X74285636Y-56137160D01*
X74313598Y-56160292D01*
X74322378Y-56168282D01*
X74560847Y-56406751D01*
X74593458Y-56463234D01*
X74593459Y-56528455D01*
X74577882Y-56586591D01*
X74577881Y-56586598D01*
X74576457Y-56591913D01*
X74575978Y-56597386D01*
X74575977Y-56597393D01*
X74556988Y-56814443D01*
X74556502Y-56820000D01*
X74576457Y-57048087D01*
X74635716Y-57269243D01*
X74732477Y-57476749D01*
X74735630Y-57481252D01*
X74735633Y-57481257D01*
X74812123Y-57590496D01*
X74863802Y-57664300D01*
X75025700Y-57826198D01*
X75213251Y-57957523D01*
X75420757Y-58054284D01*
X75641913Y-58113543D01*
X75870000Y-58133498D01*
X76098087Y-58113543D01*
X76319243Y-58054284D01*
X76526749Y-57957523D01*
X76714300Y-57826198D01*
X76876198Y-57664300D01*
X77007523Y-57476749D01*
X77104284Y-57269243D01*
X77163543Y-57048087D01*
X77183498Y-56820000D01*
X84716502Y-56820000D01*
X84736457Y-57048087D01*
X84795716Y-57269243D01*
X84892477Y-57476749D01*
X84895630Y-57481252D01*
X84895633Y-57481257D01*
X84972123Y-57590496D01*
X85023802Y-57664300D01*
X85185700Y-57826198D01*
X85373251Y-57957523D01*
X85580757Y-58054284D01*
X85801913Y-58113543D01*
X86030000Y-58133498D01*
X86258087Y-58113543D01*
X86479243Y-58054284D01*
X86686749Y-57957523D01*
X86874300Y-57826198D01*
X87036198Y-57664300D01*
X87167523Y-57476749D01*
X87264284Y-57269243D01*
X87323543Y-57048087D01*
X87343498Y-56820000D01*
X87323543Y-56591913D01*
X87264284Y-56370757D01*
X87167523Y-56163251D01*
X87036198Y-55975700D01*
X86874300Y-55813802D01*
X86767195Y-55738806D01*
X86691257Y-55685633D01*
X86691252Y-55685630D01*
X86686749Y-55682477D01*
X86681761Y-55680151D01*
X86484225Y-55588039D01*
X86484223Y-55588038D01*
X86479243Y-55585716D01*
X86258087Y-55526457D01*
X86252611Y-55525977D01*
X86252606Y-55525977D01*
X86035475Y-55506981D01*
X86030000Y-55506502D01*
X86024525Y-55506981D01*
X85807393Y-55525977D01*
X85807386Y-55525978D01*
X85801913Y-55526457D01*
X85796599Y-55527880D01*
X85796598Y-55527881D01*
X85586067Y-55584293D01*
X85586065Y-55584293D01*
X85580757Y-55585716D01*
X85575779Y-55588036D01*
X85575774Y-55588039D01*
X85378238Y-55680151D01*
X85378233Y-55680153D01*
X85373251Y-55682477D01*
X85368752Y-55685627D01*
X85368742Y-55685633D01*
X85190211Y-55810643D01*
X85190208Y-55810645D01*
X85185700Y-55813802D01*
X85181808Y-55817693D01*
X85181802Y-55817699D01*
X85027699Y-55971802D01*
X85027693Y-55971808D01*
X85023802Y-55975700D01*
X85020645Y-55980208D01*
X85020643Y-55980211D01*
X84895633Y-56158742D01*
X84895627Y-56158752D01*
X84892477Y-56163251D01*
X84890153Y-56168233D01*
X84890151Y-56168238D01*
X84798039Y-56365774D01*
X84798036Y-56365779D01*
X84795716Y-56370757D01*
X84794293Y-56376065D01*
X84794293Y-56376067D01*
X84737883Y-56586591D01*
X84736457Y-56591913D01*
X84735978Y-56597386D01*
X84735977Y-56597393D01*
X84716988Y-56814443D01*
X84716502Y-56820000D01*
X77183498Y-56820000D01*
X77163543Y-56591913D01*
X77104284Y-56370757D01*
X77007523Y-56163251D01*
X76876198Y-55975700D01*
X76714300Y-55813802D01*
X76607195Y-55738806D01*
X76531257Y-55685633D01*
X76531252Y-55685630D01*
X76526749Y-55682477D01*
X76521761Y-55680151D01*
X76324225Y-55588039D01*
X76324223Y-55588038D01*
X76319243Y-55585716D01*
X76098087Y-55526457D01*
X76092611Y-55525977D01*
X76092606Y-55525977D01*
X75875475Y-55506981D01*
X75870000Y-55506502D01*
X75864525Y-55506981D01*
X75647393Y-55525977D01*
X75647386Y-55525978D01*
X75641913Y-55526457D01*
X75636607Y-55527878D01*
X75636594Y-55527881D01*
X75578457Y-55543459D01*
X75513235Y-55543458D01*
X75456752Y-55510847D01*
X75415405Y-55469500D01*
X75388091Y-55428623D01*
X75378500Y-55380405D01*
X75378500Y-51857168D01*
X75391494Y-51801440D01*
X75427796Y-51757205D01*
X75479919Y-51733589D01*
X75537110Y-51735460D01*
X75641913Y-51763543D01*
X75870000Y-51783498D01*
X76098087Y-51763543D01*
X76319243Y-51704284D01*
X76526749Y-51607523D01*
X76714300Y-51476198D01*
X76876198Y-51314300D01*
X77007523Y-51126749D01*
X77104284Y-50919243D01*
X77163543Y-50698087D01*
X77183498Y-50470000D01*
X84716502Y-50470000D01*
X84736457Y-50698087D01*
X84795716Y-50919243D01*
X84892477Y-51126749D01*
X84895630Y-51131252D01*
X84895633Y-51131257D01*
X84972123Y-51240496D01*
X85023802Y-51314300D01*
X85185700Y-51476198D01*
X85373251Y-51607523D01*
X85580757Y-51704284D01*
X85801913Y-51763543D01*
X86030000Y-51783498D01*
X86258087Y-51763543D01*
X86479243Y-51704284D01*
X86686749Y-51607523D01*
X86874300Y-51476198D01*
X87036198Y-51314300D01*
X87167523Y-51126749D01*
X87264284Y-50919243D01*
X87323543Y-50698087D01*
X87343498Y-50470000D01*
X87323543Y-50241913D01*
X87264284Y-50020757D01*
X87167523Y-49813251D01*
X87036198Y-49625700D01*
X86874300Y-49463802D01*
X86722230Y-49357321D01*
X86691257Y-49335633D01*
X86691252Y-49335630D01*
X86686749Y-49332477D01*
X86681761Y-49330151D01*
X86484225Y-49238039D01*
X86484223Y-49238038D01*
X86479243Y-49235716D01*
X86258087Y-49176457D01*
X86252611Y-49175977D01*
X86252606Y-49175977D01*
X86035475Y-49156981D01*
X86030000Y-49156502D01*
X86024525Y-49156981D01*
X85807393Y-49175977D01*
X85807386Y-49175978D01*
X85801913Y-49176457D01*
X85796599Y-49177880D01*
X85796598Y-49177881D01*
X85586067Y-49234293D01*
X85586065Y-49234293D01*
X85580757Y-49235716D01*
X85575779Y-49238036D01*
X85575774Y-49238039D01*
X85378238Y-49330151D01*
X85378233Y-49330153D01*
X85373251Y-49332477D01*
X85368752Y-49335627D01*
X85368742Y-49335633D01*
X85190211Y-49460643D01*
X85190208Y-49460645D01*
X85185700Y-49463802D01*
X85181808Y-49467693D01*
X85181802Y-49467699D01*
X85027699Y-49621802D01*
X85027693Y-49621808D01*
X85023802Y-49625700D01*
X85020645Y-49630208D01*
X85020643Y-49630211D01*
X84895633Y-49808742D01*
X84895627Y-49808752D01*
X84892477Y-49813251D01*
X84890153Y-49818233D01*
X84890151Y-49818238D01*
X84798039Y-50015774D01*
X84798036Y-50015779D01*
X84795716Y-50020757D01*
X84736457Y-50241913D01*
X84735978Y-50247386D01*
X84735977Y-50247393D01*
X84716988Y-50464443D01*
X84716502Y-50470000D01*
X77183498Y-50470000D01*
X77163543Y-50241913D01*
X77104284Y-50020757D01*
X77007523Y-49813251D01*
X76876198Y-49625700D01*
X76714300Y-49463802D01*
X76562230Y-49357321D01*
X76531257Y-49335633D01*
X76531252Y-49335630D01*
X76526749Y-49332477D01*
X76521761Y-49330151D01*
X76324225Y-49238039D01*
X76324223Y-49238038D01*
X76319243Y-49235716D01*
X76098087Y-49176457D01*
X76092611Y-49175977D01*
X76092606Y-49175977D01*
X75875475Y-49156981D01*
X75870000Y-49156502D01*
X75864525Y-49156981D01*
X75647393Y-49175977D01*
X75647386Y-49175978D01*
X75641913Y-49176457D01*
X75636604Y-49177879D01*
X75636601Y-49177880D01*
X75592829Y-49189608D01*
X75537110Y-49204539D01*
X75479919Y-49206411D01*
X75427796Y-49182795D01*
X75391494Y-49138560D01*
X75378500Y-49082832D01*
X75378500Y-45559595D01*
X75388091Y-45511378D01*
X75415403Y-45470501D01*
X75434464Y-45451440D01*
X75456750Y-45429152D01*
X75513235Y-45396540D01*
X75578457Y-45396540D01*
X75641913Y-45413543D01*
X75870000Y-45433498D01*
X76098087Y-45413543D01*
X76319243Y-45354284D01*
X76526749Y-45257523D01*
X76714300Y-45126198D01*
X76876198Y-44964300D01*
X77007523Y-44776749D01*
X77104284Y-44569243D01*
X77163543Y-44348087D01*
X77183498Y-44120000D01*
X84716502Y-44120000D01*
X84736457Y-44348087D01*
X84795716Y-44569243D01*
X84798038Y-44574223D01*
X84798039Y-44574225D01*
X84890151Y-44771761D01*
X84892477Y-44776749D01*
X84895630Y-44781252D01*
X84895633Y-44781257D01*
X84969221Y-44886351D01*
X85023802Y-44964300D01*
X85185700Y-45126198D01*
X85269998Y-45185224D01*
X85337991Y-45232834D01*
X85373251Y-45257523D01*
X85580757Y-45354284D01*
X85801913Y-45413543D01*
X86030000Y-45433498D01*
X86258087Y-45413543D01*
X86479243Y-45354284D01*
X86686749Y-45257523D01*
X86733278Y-45224943D01*
X88076780Y-45224943D01*
X88077525Y-45232826D01*
X88077525Y-45232834D01*
X88080941Y-45268961D01*
X88081500Y-45280819D01*
X88081500Y-55616233D01*
X88080972Y-55627416D01*
X88079298Y-55634909D01*
X88079547Y-55642833D01*
X88079547Y-55642835D01*
X88081438Y-55702986D01*
X88081500Y-55706945D01*
X88081500Y-55734856D01*
X88081995Y-55738774D01*
X88081997Y-55738806D01*
X88082008Y-55738888D01*
X88082937Y-55750697D01*
X88084077Y-55786969D01*
X88084078Y-55786976D01*
X88084327Y-55794889D01*
X88086537Y-55802498D01*
X88086538Y-55802500D01*
X88089978Y-55814342D01*
X88093986Y-55833693D01*
X88096526Y-55853797D01*
X88099444Y-55861169D01*
X88099445Y-55861170D01*
X88112800Y-55894901D01*
X88116645Y-55906130D01*
X88126771Y-55940986D01*
X88126773Y-55940992D01*
X88128982Y-55948593D01*
X88133014Y-55955411D01*
X88133015Y-55955413D01*
X88139293Y-55966029D01*
X88147990Y-55983782D01*
X88151307Y-55992160D01*
X88155448Y-56002617D01*
X88160107Y-56009030D01*
X88160108Y-56009031D01*
X88181432Y-56038381D01*
X88187948Y-56048301D01*
X88206422Y-56079538D01*
X88210458Y-56086362D01*
X88216062Y-56091966D01*
X88216063Y-56091967D01*
X88224778Y-56100682D01*
X88237618Y-56115715D01*
X88249528Y-56132107D01*
X88255635Y-56137159D01*
X88255636Y-56137160D01*
X88283598Y-56160292D01*
X88292378Y-56168282D01*
X88530847Y-56406751D01*
X88563458Y-56463234D01*
X88563459Y-56528455D01*
X88547882Y-56586591D01*
X88547881Y-56586598D01*
X88546457Y-56591913D01*
X88545978Y-56597386D01*
X88545977Y-56597393D01*
X88526988Y-56814443D01*
X88526502Y-56820000D01*
X88546457Y-57048087D01*
X88605716Y-57269243D01*
X88702477Y-57476749D01*
X88705630Y-57481252D01*
X88705633Y-57481257D01*
X88782123Y-57590496D01*
X88833802Y-57664300D01*
X88995700Y-57826198D01*
X89183251Y-57957523D01*
X89390757Y-58054284D01*
X89611913Y-58113543D01*
X89840000Y-58133498D01*
X90068087Y-58113543D01*
X90289243Y-58054284D01*
X90496749Y-57957523D01*
X90684300Y-57826198D01*
X90846198Y-57664300D01*
X90977523Y-57476749D01*
X91074284Y-57269243D01*
X91133543Y-57048087D01*
X91153498Y-56820000D01*
X98686502Y-56820000D01*
X98706457Y-57048087D01*
X98765716Y-57269243D01*
X98862477Y-57476749D01*
X98865630Y-57481252D01*
X98865633Y-57481257D01*
X98942123Y-57590496D01*
X98993802Y-57664300D01*
X99155700Y-57826198D01*
X99343251Y-57957523D01*
X99550757Y-58054284D01*
X99771913Y-58113543D01*
X100000000Y-58133498D01*
X100228087Y-58113543D01*
X100449243Y-58054284D01*
X100656749Y-57957523D01*
X100844300Y-57826198D01*
X101006198Y-57664300D01*
X101137523Y-57476749D01*
X101234284Y-57269243D01*
X101293543Y-57048087D01*
X101313498Y-56820000D01*
X101293543Y-56591913D01*
X101234284Y-56370757D01*
X101137523Y-56163251D01*
X101006198Y-55975700D01*
X100844300Y-55813802D01*
X100737195Y-55738806D01*
X100661257Y-55685633D01*
X100661252Y-55685630D01*
X100656749Y-55682477D01*
X100651761Y-55680151D01*
X100454225Y-55588039D01*
X100454223Y-55588038D01*
X100449243Y-55585716D01*
X100228087Y-55526457D01*
X100222611Y-55525977D01*
X100222606Y-55525977D01*
X100005475Y-55506981D01*
X100000000Y-55506502D01*
X99994525Y-55506981D01*
X99777393Y-55525977D01*
X99777386Y-55525978D01*
X99771913Y-55526457D01*
X99766599Y-55527880D01*
X99766598Y-55527881D01*
X99556067Y-55584293D01*
X99556065Y-55584293D01*
X99550757Y-55585716D01*
X99545779Y-55588036D01*
X99545774Y-55588039D01*
X99348238Y-55680151D01*
X99348233Y-55680153D01*
X99343251Y-55682477D01*
X99338752Y-55685627D01*
X99338742Y-55685633D01*
X99160211Y-55810643D01*
X99160208Y-55810645D01*
X99155700Y-55813802D01*
X99151808Y-55817693D01*
X99151802Y-55817699D01*
X98997699Y-55971802D01*
X98997693Y-55971808D01*
X98993802Y-55975700D01*
X98990645Y-55980208D01*
X98990643Y-55980211D01*
X98865633Y-56158742D01*
X98865627Y-56158752D01*
X98862477Y-56163251D01*
X98860153Y-56168233D01*
X98860151Y-56168238D01*
X98768039Y-56365774D01*
X98768036Y-56365779D01*
X98765716Y-56370757D01*
X98764293Y-56376065D01*
X98764293Y-56376067D01*
X98707883Y-56586591D01*
X98706457Y-56591913D01*
X98705978Y-56597386D01*
X98705977Y-56597393D01*
X98686988Y-56814443D01*
X98686502Y-56820000D01*
X91153498Y-56820000D01*
X91133543Y-56591913D01*
X91074284Y-56370757D01*
X90977523Y-56163251D01*
X90846198Y-55975700D01*
X90684300Y-55813802D01*
X90577195Y-55738806D01*
X90501257Y-55685633D01*
X90501252Y-55685630D01*
X90496749Y-55682477D01*
X90491761Y-55680151D01*
X90294225Y-55588039D01*
X90294223Y-55588038D01*
X90289243Y-55585716D01*
X90068087Y-55526457D01*
X90062611Y-55525977D01*
X90062606Y-55525977D01*
X89845475Y-55506981D01*
X89840000Y-55506502D01*
X89834525Y-55506981D01*
X89617393Y-55525977D01*
X89617386Y-55525978D01*
X89611913Y-55526457D01*
X89606607Y-55527878D01*
X89606594Y-55527881D01*
X89548457Y-55543459D01*
X89483235Y-55543458D01*
X89426752Y-55510847D01*
X89385405Y-55469500D01*
X89358091Y-55428623D01*
X89348500Y-55380405D01*
X89348500Y-51857168D01*
X89361494Y-51801440D01*
X89397796Y-51757205D01*
X89449919Y-51733589D01*
X89507110Y-51735460D01*
X89611913Y-51763543D01*
X89840000Y-51783498D01*
X90068087Y-51763543D01*
X90289243Y-51704284D01*
X90496749Y-51607523D01*
X90684300Y-51476198D01*
X90846198Y-51314300D01*
X90977523Y-51126749D01*
X91074284Y-50919243D01*
X91133543Y-50698087D01*
X91153498Y-50470000D01*
X98686502Y-50470000D01*
X98706457Y-50698087D01*
X98765716Y-50919243D01*
X98862477Y-51126749D01*
X98865630Y-51131252D01*
X98865633Y-51131257D01*
X98942123Y-51240496D01*
X98993802Y-51314300D01*
X99155700Y-51476198D01*
X99343251Y-51607523D01*
X99550757Y-51704284D01*
X99771913Y-51763543D01*
X100000000Y-51783498D01*
X100228087Y-51763543D01*
X100449243Y-51704284D01*
X100656749Y-51607523D01*
X100844300Y-51476198D01*
X101006198Y-51314300D01*
X101137523Y-51126749D01*
X101234284Y-50919243D01*
X101293543Y-50698087D01*
X101313498Y-50470000D01*
X101293543Y-50241913D01*
X101234284Y-50020757D01*
X101137523Y-49813251D01*
X101006198Y-49625700D01*
X100844300Y-49463802D01*
X100692230Y-49357321D01*
X100661257Y-49335633D01*
X100661252Y-49335630D01*
X100656749Y-49332477D01*
X100651761Y-49330151D01*
X100454225Y-49238039D01*
X100454223Y-49238038D01*
X100449243Y-49235716D01*
X100228087Y-49176457D01*
X100222611Y-49175977D01*
X100222606Y-49175977D01*
X100005475Y-49156981D01*
X100000000Y-49156502D01*
X99994525Y-49156981D01*
X99777393Y-49175977D01*
X99777386Y-49175978D01*
X99771913Y-49176457D01*
X99766599Y-49177880D01*
X99766598Y-49177881D01*
X99556067Y-49234293D01*
X99556065Y-49234293D01*
X99550757Y-49235716D01*
X99545779Y-49238036D01*
X99545774Y-49238039D01*
X99348238Y-49330151D01*
X99348233Y-49330153D01*
X99343251Y-49332477D01*
X99338752Y-49335627D01*
X99338742Y-49335633D01*
X99160211Y-49460643D01*
X99160208Y-49460645D01*
X99155700Y-49463802D01*
X99151808Y-49467693D01*
X99151802Y-49467699D01*
X98997699Y-49621802D01*
X98997693Y-49621808D01*
X98993802Y-49625700D01*
X98990645Y-49630208D01*
X98990643Y-49630211D01*
X98865633Y-49808742D01*
X98865627Y-49808752D01*
X98862477Y-49813251D01*
X98860153Y-49818233D01*
X98860151Y-49818238D01*
X98768039Y-50015774D01*
X98768036Y-50015779D01*
X98765716Y-50020757D01*
X98706457Y-50241913D01*
X98705978Y-50247386D01*
X98705977Y-50247393D01*
X98686988Y-50464443D01*
X98686502Y-50470000D01*
X91153498Y-50470000D01*
X91133543Y-50241913D01*
X91074284Y-50020757D01*
X90977523Y-49813251D01*
X90846198Y-49625700D01*
X90684300Y-49463802D01*
X90532230Y-49357321D01*
X90501257Y-49335633D01*
X90501252Y-49335630D01*
X90496749Y-49332477D01*
X90491761Y-49330151D01*
X90294225Y-49238039D01*
X90294223Y-49238038D01*
X90289243Y-49235716D01*
X90068087Y-49176457D01*
X90062611Y-49175977D01*
X90062606Y-49175977D01*
X89845475Y-49156981D01*
X89840000Y-49156502D01*
X89834525Y-49156981D01*
X89617393Y-49175977D01*
X89617386Y-49175978D01*
X89611913Y-49176457D01*
X89606604Y-49177879D01*
X89606601Y-49177880D01*
X89562829Y-49189608D01*
X89507110Y-49204539D01*
X89449919Y-49206411D01*
X89397796Y-49182795D01*
X89361494Y-49138560D01*
X89348500Y-49082832D01*
X89348500Y-45623943D01*
X101647780Y-45623943D01*
X101648525Y-45631826D01*
X101648525Y-45631834D01*
X101651941Y-45667961D01*
X101652500Y-45679819D01*
X101652500Y-55217233D01*
X101651972Y-55228416D01*
X101650298Y-55235909D01*
X101650547Y-55243833D01*
X101650547Y-55243835D01*
X101652438Y-55303986D01*
X101652500Y-55307945D01*
X101652500Y-55335856D01*
X101652995Y-55339774D01*
X101652997Y-55339806D01*
X101653008Y-55339888D01*
X101653937Y-55351697D01*
X101655077Y-55387969D01*
X101655078Y-55387976D01*
X101655327Y-55395889D01*
X101657537Y-55403498D01*
X101657538Y-55403500D01*
X101660978Y-55415342D01*
X101664986Y-55434693D01*
X101667526Y-55454797D01*
X101670444Y-55462169D01*
X101670445Y-55462170D01*
X101683800Y-55495901D01*
X101687645Y-55507130D01*
X101697771Y-55541986D01*
X101697773Y-55541992D01*
X101699982Y-55549593D01*
X101704014Y-55556411D01*
X101704015Y-55556413D01*
X101710293Y-55567029D01*
X101718990Y-55584782D01*
X101722595Y-55593888D01*
X101726448Y-55603617D01*
X101731107Y-55610030D01*
X101731108Y-55610031D01*
X101752432Y-55639381D01*
X101758948Y-55649301D01*
X101777193Y-55680151D01*
X101781458Y-55687362D01*
X101787063Y-55692967D01*
X101795778Y-55701682D01*
X101808618Y-55716715D01*
X101820528Y-55733107D01*
X101826635Y-55738159D01*
X101826636Y-55738160D01*
X101854598Y-55761292D01*
X101863378Y-55769282D01*
X102500847Y-56406751D01*
X102533458Y-56463234D01*
X102533459Y-56528455D01*
X102517882Y-56586591D01*
X102517881Y-56586598D01*
X102516457Y-56591913D01*
X102515978Y-56597386D01*
X102515977Y-56597393D01*
X102496988Y-56814443D01*
X102496502Y-56820000D01*
X102516457Y-57048087D01*
X102575716Y-57269243D01*
X102672477Y-57476749D01*
X102675630Y-57481252D01*
X102675633Y-57481257D01*
X102752123Y-57590496D01*
X102803802Y-57664300D01*
X102965700Y-57826198D01*
X103153251Y-57957523D01*
X103360757Y-58054284D01*
X103581913Y-58113543D01*
X103810000Y-58133498D01*
X104038087Y-58113543D01*
X104259243Y-58054284D01*
X104466749Y-57957523D01*
X104654300Y-57826198D01*
X104816198Y-57664300D01*
X104947523Y-57476749D01*
X105044284Y-57269243D01*
X105103543Y-57048087D01*
X105123498Y-56820000D01*
X112656502Y-56820000D01*
X112676457Y-57048087D01*
X112735716Y-57269243D01*
X112832477Y-57476749D01*
X112835630Y-57481252D01*
X112835633Y-57481257D01*
X112912123Y-57590496D01*
X112963802Y-57664300D01*
X113125700Y-57826198D01*
X113313251Y-57957523D01*
X113520757Y-58054284D01*
X113741913Y-58113543D01*
X113970000Y-58133498D01*
X114198087Y-58113543D01*
X114419243Y-58054284D01*
X114626749Y-57957523D01*
X114814300Y-57826198D01*
X114976198Y-57664300D01*
X115107523Y-57476749D01*
X115204284Y-57269243D01*
X115263543Y-57048087D01*
X115283498Y-56820000D01*
X115263543Y-56591913D01*
X115204284Y-56370757D01*
X115107523Y-56163251D01*
X114976198Y-55975700D01*
X114814300Y-55813802D01*
X114707195Y-55738806D01*
X114631257Y-55685633D01*
X114631252Y-55685630D01*
X114626749Y-55682477D01*
X114621761Y-55680151D01*
X114424225Y-55588039D01*
X114424223Y-55588038D01*
X114419243Y-55585716D01*
X114198087Y-55526457D01*
X114192611Y-55525977D01*
X114192606Y-55525977D01*
X113975475Y-55506981D01*
X113970000Y-55506502D01*
X113964525Y-55506981D01*
X113747393Y-55525977D01*
X113747386Y-55525978D01*
X113741913Y-55526457D01*
X113736599Y-55527880D01*
X113736598Y-55527881D01*
X113526067Y-55584293D01*
X113526065Y-55584293D01*
X113520757Y-55585716D01*
X113515779Y-55588036D01*
X113515774Y-55588039D01*
X113318238Y-55680151D01*
X113318233Y-55680153D01*
X113313251Y-55682477D01*
X113308752Y-55685627D01*
X113308742Y-55685633D01*
X113130211Y-55810643D01*
X113130208Y-55810645D01*
X113125700Y-55813802D01*
X113121808Y-55817693D01*
X113121802Y-55817699D01*
X112967699Y-55971802D01*
X112967693Y-55971808D01*
X112963802Y-55975700D01*
X112960645Y-55980208D01*
X112960643Y-55980211D01*
X112835633Y-56158742D01*
X112835627Y-56158752D01*
X112832477Y-56163251D01*
X112830153Y-56168233D01*
X112830151Y-56168238D01*
X112738039Y-56365774D01*
X112738036Y-56365779D01*
X112735716Y-56370757D01*
X112734293Y-56376065D01*
X112734293Y-56376067D01*
X112677883Y-56586591D01*
X112676457Y-56591913D01*
X112675978Y-56597386D01*
X112675977Y-56597393D01*
X112656988Y-56814443D01*
X112656502Y-56820000D01*
X105123498Y-56820000D01*
X105103543Y-56591913D01*
X105044284Y-56370757D01*
X104947523Y-56163251D01*
X104816198Y-55975700D01*
X104654300Y-55813802D01*
X104547195Y-55738806D01*
X104471257Y-55685633D01*
X104471252Y-55685630D01*
X104466749Y-55682477D01*
X104461761Y-55680151D01*
X104264225Y-55588039D01*
X104264223Y-55588038D01*
X104259243Y-55585716D01*
X104038087Y-55526457D01*
X104032611Y-55525977D01*
X104032606Y-55525977D01*
X103815475Y-55506981D01*
X103810000Y-55506502D01*
X103804525Y-55506981D01*
X103587393Y-55525977D01*
X103587386Y-55525978D01*
X103581913Y-55526457D01*
X103576607Y-55527878D01*
X103576594Y-55527881D01*
X103518457Y-55543459D01*
X103453235Y-55543458D01*
X103396752Y-55510847D01*
X102956405Y-55070500D01*
X102929091Y-55029623D01*
X102919500Y-54981405D01*
X102919500Y-51685893D01*
X102937781Y-51620528D01*
X102987319Y-51574130D01*
X103053740Y-51560163D01*
X103117770Y-51582679D01*
X103153251Y-51607523D01*
X103360757Y-51704284D01*
X103581913Y-51763543D01*
X103810000Y-51783498D01*
X104038087Y-51763543D01*
X104259243Y-51704284D01*
X104466749Y-51607523D01*
X104654300Y-51476198D01*
X104816198Y-51314300D01*
X104947523Y-51126749D01*
X105044284Y-50919243D01*
X105103543Y-50698087D01*
X105123498Y-50470000D01*
X112656502Y-50470000D01*
X112676457Y-50698087D01*
X112735716Y-50919243D01*
X112832477Y-51126749D01*
X112835630Y-51131252D01*
X112835633Y-51131257D01*
X112912123Y-51240496D01*
X112963802Y-51314300D01*
X113125700Y-51476198D01*
X113313251Y-51607523D01*
X113520757Y-51704284D01*
X113741913Y-51763543D01*
X113970000Y-51783498D01*
X114198087Y-51763543D01*
X114419243Y-51704284D01*
X114626749Y-51607523D01*
X114814300Y-51476198D01*
X114976198Y-51314300D01*
X115107523Y-51126749D01*
X115204284Y-50919243D01*
X115263543Y-50698087D01*
X115283498Y-50470000D01*
X115263543Y-50241913D01*
X115204284Y-50020757D01*
X115107523Y-49813251D01*
X114976198Y-49625700D01*
X114814300Y-49463802D01*
X114662230Y-49357321D01*
X114631257Y-49335633D01*
X114631252Y-49335630D01*
X114626749Y-49332477D01*
X114621761Y-49330151D01*
X114424225Y-49238039D01*
X114424223Y-49238038D01*
X114419243Y-49235716D01*
X114198087Y-49176457D01*
X114192611Y-49175977D01*
X114192606Y-49175977D01*
X113975475Y-49156981D01*
X113970000Y-49156502D01*
X113964525Y-49156981D01*
X113747393Y-49175977D01*
X113747386Y-49175978D01*
X113741913Y-49176457D01*
X113736599Y-49177880D01*
X113736598Y-49177881D01*
X113526067Y-49234293D01*
X113526065Y-49234293D01*
X113520757Y-49235716D01*
X113515779Y-49238036D01*
X113515774Y-49238039D01*
X113318238Y-49330151D01*
X113318233Y-49330153D01*
X113313251Y-49332477D01*
X113308752Y-49335627D01*
X113308742Y-49335633D01*
X113130211Y-49460643D01*
X113130208Y-49460645D01*
X113125700Y-49463802D01*
X113121808Y-49467693D01*
X113121802Y-49467699D01*
X112967699Y-49621802D01*
X112967693Y-49621808D01*
X112963802Y-49625700D01*
X112960645Y-49630208D01*
X112960643Y-49630211D01*
X112835633Y-49808742D01*
X112835627Y-49808752D01*
X112832477Y-49813251D01*
X112830153Y-49818233D01*
X112830151Y-49818238D01*
X112738039Y-50015774D01*
X112738036Y-50015779D01*
X112735716Y-50020757D01*
X112676457Y-50241913D01*
X112675978Y-50247386D01*
X112675977Y-50247393D01*
X112656988Y-50464443D01*
X112656502Y-50470000D01*
X105123498Y-50470000D01*
X105103543Y-50241913D01*
X105044284Y-50020757D01*
X104947523Y-49813251D01*
X104816198Y-49625700D01*
X104654300Y-49463802D01*
X104502230Y-49357321D01*
X104471257Y-49335633D01*
X104471252Y-49335630D01*
X104466749Y-49332477D01*
X104461761Y-49330151D01*
X104264225Y-49238039D01*
X104264223Y-49238038D01*
X104259243Y-49235716D01*
X104038087Y-49176457D01*
X104032611Y-49175977D01*
X104032606Y-49175977D01*
X103815475Y-49156981D01*
X103810000Y-49156502D01*
X103804525Y-49156981D01*
X103587393Y-49175977D01*
X103587386Y-49175978D01*
X103581913Y-49176457D01*
X103576599Y-49177880D01*
X103576598Y-49177881D01*
X103366067Y-49234293D01*
X103366065Y-49234293D01*
X103360757Y-49235716D01*
X103355779Y-49238036D01*
X103355774Y-49238039D01*
X103158238Y-49330151D01*
X103158233Y-49330153D01*
X103153251Y-49332477D01*
X103148750Y-49335628D01*
X103148744Y-49335632D01*
X103117770Y-49357321D01*
X103053740Y-49379837D01*
X102987319Y-49365870D01*
X102937781Y-49319472D01*
X102919500Y-49254107D01*
X102919500Y-45958595D01*
X102929091Y-45910377D01*
X102956404Y-45869500D01*
X102982740Y-45843163D01*
X103396752Y-45429150D01*
X103453235Y-45396540D01*
X103518457Y-45396540D01*
X103581913Y-45413543D01*
X103810000Y-45433498D01*
X104038087Y-45413543D01*
X104259243Y-45354284D01*
X104466749Y-45257523D01*
X104654300Y-45126198D01*
X104816198Y-44964300D01*
X104947523Y-44776749D01*
X105044284Y-44569243D01*
X105103543Y-44348087D01*
X105123498Y-44120000D01*
X112656502Y-44120000D01*
X112676457Y-44348087D01*
X112735716Y-44569243D01*
X112738038Y-44574223D01*
X112738039Y-44574225D01*
X112830151Y-44771761D01*
X112832477Y-44776749D01*
X112835630Y-44781252D01*
X112835633Y-44781257D01*
X112909221Y-44886351D01*
X112963802Y-44964300D01*
X113125700Y-45126198D01*
X113209998Y-45185224D01*
X113277991Y-45232834D01*
X113313251Y-45257523D01*
X113520757Y-45354284D01*
X113741913Y-45413543D01*
X113970000Y-45433498D01*
X114198087Y-45413543D01*
X114419243Y-45354284D01*
X114626749Y-45257523D01*
X114814300Y-45126198D01*
X114976198Y-44964300D01*
X115107523Y-44776749D01*
X115204284Y-44569243D01*
X115263543Y-44348087D01*
X115283498Y-44120000D01*
X115263543Y-43891913D01*
X115204284Y-43670757D01*
X115107523Y-43463251D01*
X114976198Y-43275700D01*
X114814300Y-43113802D01*
X114740496Y-43062123D01*
X114631257Y-42985633D01*
X114631252Y-42985630D01*
X114626749Y-42982477D01*
X114575943Y-42958786D01*
X114424225Y-42888039D01*
X114424223Y-42888038D01*
X114419243Y-42885716D01*
X114198087Y-42826457D01*
X114192611Y-42825977D01*
X114192606Y-42825977D01*
X113975475Y-42806981D01*
X113970000Y-42806502D01*
X113964525Y-42806981D01*
X113747393Y-42825977D01*
X113747386Y-42825978D01*
X113741913Y-42826457D01*
X113736599Y-42827880D01*
X113736598Y-42827881D01*
X113526067Y-42884293D01*
X113526065Y-42884293D01*
X113520757Y-42885716D01*
X113515779Y-42888036D01*
X113515774Y-42888039D01*
X113318238Y-42980151D01*
X113318233Y-42980153D01*
X113313251Y-42982477D01*
X113308752Y-42985627D01*
X113308742Y-42985633D01*
X113130211Y-43110643D01*
X113130208Y-43110645D01*
X113125700Y-43113802D01*
X113121808Y-43117693D01*
X113121802Y-43117699D01*
X112967699Y-43271802D01*
X112967693Y-43271808D01*
X112963802Y-43275700D01*
X112960645Y-43280208D01*
X112960643Y-43280211D01*
X112835633Y-43458742D01*
X112835627Y-43458752D01*
X112832477Y-43463251D01*
X112830153Y-43468233D01*
X112830151Y-43468238D01*
X112738039Y-43665774D01*
X112738036Y-43665779D01*
X112735716Y-43670757D01*
X112734293Y-43676065D01*
X112734293Y-43676067D01*
X112677882Y-43886594D01*
X112676457Y-43891913D01*
X112675978Y-43897386D01*
X112675977Y-43897393D01*
X112656988Y-44114443D01*
X112656502Y-44120000D01*
X105123498Y-44120000D01*
X105103543Y-43891913D01*
X105044284Y-43670757D01*
X104947523Y-43463251D01*
X104816198Y-43275700D01*
X104654300Y-43113802D01*
X104577822Y-43060251D01*
X104497229Y-43003819D01*
X104457737Y-42958786D01*
X104443500Y-42900606D01*
X104443500Y-40624594D01*
X104453091Y-40576376D01*
X104480405Y-40535499D01*
X104948139Y-40067765D01*
X138145788Y-40067765D01*
X138146290Y-40072332D01*
X138146291Y-40072344D01*
X138174910Y-40332444D01*
X138174911Y-40332453D01*
X138175414Y-40337018D01*
X138243928Y-40599088D01*
X138245725Y-40603318D01*
X138245728Y-40603325D01*
X138295866Y-40721308D01*
X138349870Y-40848390D01*
X138490982Y-41079610D01*
X138664255Y-41287820D01*
X138759177Y-41372870D01*
X138862561Y-41465503D01*
X138862565Y-41465506D01*
X138865998Y-41468582D01*
X139091910Y-41618044D01*
X139337176Y-41733020D01*
X139596569Y-41811060D01*
X139864561Y-41850500D01*
X140065330Y-41850500D01*
X140067631Y-41850500D01*
X140270156Y-41835677D01*
X140534553Y-41776780D01*
X140787558Y-41680014D01*
X141023777Y-41547441D01*
X141238177Y-41381888D01*
X141426186Y-41186881D01*
X141583799Y-40966579D01*
X141707656Y-40725675D01*
X141795118Y-40469305D01*
X141844319Y-40202933D01*
X141852870Y-39968949D01*
X141854044Y-39936837D01*
X141854043Y-39936834D01*
X141854212Y-39932235D01*
X141824586Y-39662982D01*
X141756072Y-39400912D01*
X141650130Y-39151610D01*
X141509018Y-38920390D01*
X141335745Y-38712180D01*
X141260137Y-38644435D01*
X141137438Y-38534496D01*
X141137432Y-38534491D01*
X141134002Y-38531418D01*
X140968255Y-38421761D01*
X140911925Y-38384493D01*
X140911922Y-38384491D01*
X140908090Y-38381956D01*
X140662824Y-38266980D01*
X140538559Y-38229594D01*
X140407843Y-38190267D01*
X140407838Y-38190265D01*
X140403431Y-38188940D01*
X140398874Y-38188269D01*
X140398868Y-38188268D01*
X140140000Y-38150171D01*
X140139996Y-38150170D01*
X140135439Y-38149500D01*
X139932369Y-38149500D01*
X139930098Y-38149666D01*
X139930076Y-38149667D01*
X139734438Y-38163986D01*
X139734427Y-38163987D01*
X139729844Y-38164323D01*
X139725353Y-38165323D01*
X139725349Y-38165324D01*
X139469939Y-38222219D01*
X139469934Y-38222220D01*
X139465447Y-38223220D01*
X139461149Y-38224863D01*
X139461145Y-38224865D01*
X139216746Y-38318339D01*
X139216735Y-38318343D01*
X139212442Y-38319986D01*
X139208434Y-38322235D01*
X139208422Y-38322241D01*
X138980232Y-38450308D01*
X138980221Y-38450314D01*
X138976223Y-38452559D01*
X138972589Y-38455364D01*
X138972586Y-38455367D01*
X138765466Y-38615298D01*
X138765458Y-38615305D01*
X138761823Y-38618112D01*
X138758632Y-38621421D01*
X138758625Y-38621428D01*
X138577011Y-38809802D01*
X138577004Y-38809809D01*
X138573814Y-38813119D01*
X138571136Y-38816861D01*
X138571131Y-38816868D01*
X138418885Y-39029668D01*
X138418878Y-39029677D01*
X138416201Y-39033421D01*
X138414097Y-39037512D01*
X138414091Y-39037523D01*
X138298369Y-39262606D01*
X138292344Y-39274325D01*
X138290856Y-39278684D01*
X138290854Y-39278691D01*
X138206371Y-39526327D01*
X138206367Y-39526341D01*
X138204882Y-39530695D01*
X138204044Y-39535228D01*
X138204044Y-39535231D01*
X138156517Y-39792537D01*
X138156515Y-39792546D01*
X138155681Y-39797067D01*
X138155513Y-39801656D01*
X138155512Y-39801668D01*
X138145956Y-40063161D01*
X138145788Y-40067765D01*
X104948139Y-40067765D01*
X105868221Y-39147683D01*
X107363411Y-37652491D01*
X107415667Y-37621093D01*
X107476548Y-37617902D01*
X107531800Y-37643667D01*
X107568490Y-37692355D01*
X107578027Y-37752569D01*
X107576502Y-37770000D01*
X107576981Y-37775475D01*
X107587888Y-37900151D01*
X107596457Y-37998087D01*
X107655716Y-38219243D01*
X107658038Y-38224223D01*
X107658039Y-38224225D01*
X107660543Y-38229594D01*
X107752477Y-38426749D01*
X107755630Y-38431252D01*
X107755633Y-38431257D01*
X107823987Y-38528875D01*
X107883802Y-38614300D01*
X108045700Y-38776198D01*
X108233251Y-38907523D01*
X108440757Y-39004284D01*
X108661913Y-39063543D01*
X108890000Y-39083498D01*
X109118087Y-39063543D01*
X109339243Y-39004284D01*
X109546749Y-38907523D01*
X109734300Y-38776198D01*
X109896198Y-38614300D01*
X110027523Y-38426749D01*
X110124284Y-38219243D01*
X110183543Y-37998087D01*
X110203498Y-37770000D01*
X111386502Y-37770000D01*
X111386981Y-37775475D01*
X111397888Y-37900151D01*
X111406457Y-37998087D01*
X111465716Y-38219243D01*
X111468038Y-38224223D01*
X111468039Y-38224225D01*
X111470543Y-38229594D01*
X111562477Y-38426749D01*
X111565630Y-38431252D01*
X111565633Y-38431257D01*
X111633987Y-38528875D01*
X111693802Y-38614300D01*
X111855700Y-38776198D01*
X112043251Y-38907523D01*
X112250757Y-39004284D01*
X112471913Y-39063543D01*
X112700000Y-39083498D01*
X112928087Y-39063543D01*
X113149243Y-39004284D01*
X113356749Y-38907523D01*
X113544300Y-38776198D01*
X113706198Y-38614300D01*
X113837523Y-38426749D01*
X113934284Y-38219243D01*
X113993543Y-37998087D01*
X114013498Y-37770000D01*
X121546502Y-37770000D01*
X121546981Y-37775475D01*
X121557888Y-37900151D01*
X121566457Y-37998087D01*
X121625716Y-38219243D01*
X121628038Y-38224223D01*
X121628039Y-38224225D01*
X121630543Y-38229594D01*
X121722477Y-38426749D01*
X121725630Y-38431252D01*
X121725633Y-38431257D01*
X121793987Y-38528875D01*
X121853802Y-38614300D01*
X122015700Y-38776198D01*
X122203251Y-38907523D01*
X122410757Y-39004284D01*
X122631913Y-39063543D01*
X122860000Y-39083498D01*
X123088087Y-39063543D01*
X123309243Y-39004284D01*
X123516749Y-38907523D01*
X123704300Y-38776198D01*
X123866198Y-38614300D01*
X123997523Y-38426749D01*
X124094284Y-38219243D01*
X124153543Y-37998087D01*
X124173498Y-37770000D01*
X124153543Y-37541913D01*
X124094284Y-37320757D01*
X123997523Y-37113251D01*
X123866198Y-36925700D01*
X123704300Y-36763802D01*
X123630496Y-36712123D01*
X123521257Y-36635633D01*
X123521252Y-36635630D01*
X123516749Y-36632477D01*
X123309243Y-36535716D01*
X123088087Y-36476457D01*
X123082611Y-36475977D01*
X123082606Y-36475977D01*
X122865475Y-36456981D01*
X122860000Y-36456502D01*
X122854525Y-36456981D01*
X122637393Y-36475977D01*
X122637386Y-36475978D01*
X122631913Y-36476457D01*
X122626599Y-36477880D01*
X122626598Y-36477881D01*
X122416067Y-36534293D01*
X122416065Y-36534293D01*
X122410757Y-36535716D01*
X122405779Y-36538036D01*
X122405774Y-36538039D01*
X122208238Y-36630151D01*
X122208233Y-36630153D01*
X122203251Y-36632477D01*
X122198752Y-36635627D01*
X122198742Y-36635633D01*
X122020211Y-36760643D01*
X122020208Y-36760645D01*
X122015700Y-36763802D01*
X122011808Y-36767693D01*
X122011802Y-36767699D01*
X121857699Y-36921802D01*
X121857693Y-36921808D01*
X121853802Y-36925700D01*
X121850645Y-36930208D01*
X121850643Y-36930211D01*
X121725633Y-37108742D01*
X121725627Y-37108752D01*
X121722477Y-37113251D01*
X121720153Y-37118233D01*
X121720151Y-37118238D01*
X121628039Y-37315774D01*
X121628036Y-37315779D01*
X121625716Y-37320757D01*
X121624293Y-37326065D01*
X121624293Y-37326067D01*
X121567881Y-37536598D01*
X121566457Y-37541913D01*
X121565978Y-37547386D01*
X121565977Y-37547393D01*
X121550266Y-37726981D01*
X121546502Y-37770000D01*
X114013498Y-37770000D01*
X113993543Y-37541913D01*
X113934284Y-37320757D01*
X113837523Y-37113251D01*
X113706198Y-36925700D01*
X113544300Y-36763802D01*
X113470496Y-36712123D01*
X113361257Y-36635633D01*
X113361252Y-36635630D01*
X113356749Y-36632477D01*
X113149243Y-36535716D01*
X112928087Y-36476457D01*
X112922611Y-36475977D01*
X112922606Y-36475977D01*
X112705475Y-36456981D01*
X112700000Y-36456502D01*
X112694525Y-36456981D01*
X112477393Y-36475977D01*
X112477386Y-36475978D01*
X112471913Y-36476457D01*
X112466599Y-36477880D01*
X112466598Y-36477881D01*
X112256067Y-36534293D01*
X112256065Y-36534293D01*
X112250757Y-36535716D01*
X112245779Y-36538036D01*
X112245774Y-36538039D01*
X112048238Y-36630151D01*
X112048233Y-36630153D01*
X112043251Y-36632477D01*
X112038752Y-36635627D01*
X112038742Y-36635633D01*
X111860211Y-36760643D01*
X111860208Y-36760645D01*
X111855700Y-36763802D01*
X111851808Y-36767693D01*
X111851802Y-36767699D01*
X111697699Y-36921802D01*
X111697693Y-36921808D01*
X111693802Y-36925700D01*
X111690645Y-36930208D01*
X111690643Y-36930211D01*
X111565633Y-37108742D01*
X111565627Y-37108752D01*
X111562477Y-37113251D01*
X111560153Y-37118233D01*
X111560151Y-37118238D01*
X111468039Y-37315774D01*
X111468036Y-37315779D01*
X111465716Y-37320757D01*
X111464293Y-37326065D01*
X111464293Y-37326067D01*
X111407881Y-37536598D01*
X111406457Y-37541913D01*
X111405978Y-37547386D01*
X111405977Y-37547393D01*
X111390266Y-37726981D01*
X111386502Y-37770000D01*
X110203498Y-37770000D01*
X110183543Y-37541913D01*
X110124284Y-37320757D01*
X110027523Y-37113251D01*
X109896198Y-36925700D01*
X109734300Y-36763802D01*
X109660496Y-36712123D01*
X109551257Y-36635633D01*
X109551252Y-36635630D01*
X109546749Y-36632477D01*
X109339243Y-36535716D01*
X109118087Y-36476457D01*
X109112611Y-36475977D01*
X109112606Y-36475977D01*
X108895475Y-36456981D01*
X108890000Y-36456502D01*
X108884525Y-36456981D01*
X108884524Y-36456981D01*
X108872567Y-36458027D01*
X108812353Y-36448489D01*
X108763665Y-36411800D01*
X108737901Y-36356548D01*
X108741092Y-36295667D01*
X108772489Y-36243413D01*
X110799337Y-34216565D01*
X127876751Y-34216565D01*
X127876986Y-34227943D01*
X127919900Y-34397408D01*
X127923270Y-34407223D01*
X128009488Y-34603778D01*
X128014431Y-34612913D01*
X128131822Y-34792593D01*
X128138210Y-34800799D01*
X128283567Y-34958700D01*
X128291211Y-34965737D01*
X128460588Y-35097568D01*
X128469281Y-35103247D01*
X128658042Y-35205400D01*
X128667559Y-35209575D01*
X128870557Y-35279264D01*
X128880627Y-35281814D01*
X128942461Y-35292132D01*
X128953598Y-35291556D01*
X128956000Y-35280664D01*
X128956000Y-34230590D01*
X128952493Y-34217506D01*
X128939410Y-34214000D01*
X127887840Y-34214000D01*
X127876751Y-34216565D01*
X110799337Y-34216565D01*
X112286753Y-32729149D01*
X112343236Y-32696539D01*
X112408457Y-32696539D01*
X112445214Y-32706389D01*
X112466594Y-32712118D01*
X112466596Y-32712118D01*
X112471913Y-32713543D01*
X112700000Y-32733498D01*
X112928087Y-32713543D01*
X113149243Y-32654284D01*
X113356749Y-32557523D01*
X113544300Y-32426198D01*
X113706198Y-32264300D01*
X113837523Y-32076749D01*
X113934284Y-31869243D01*
X113993543Y-31648087D01*
X114013498Y-31420000D01*
X121546502Y-31420000D01*
X121546981Y-31425475D01*
X121562540Y-31603325D01*
X121566457Y-31648087D01*
X121625716Y-31869243D01*
X121628038Y-31874223D01*
X121628039Y-31874225D01*
X121716445Y-32063814D01*
X121722477Y-32076749D01*
X121725630Y-32081252D01*
X121725633Y-32081257D01*
X121753391Y-32120899D01*
X121853802Y-32264300D01*
X122015700Y-32426198D01*
X122101273Y-32486117D01*
X122192065Y-32549691D01*
X122203251Y-32557523D01*
X122410757Y-32654284D01*
X122631913Y-32713543D01*
X122860000Y-32733498D01*
X123088087Y-32713543D01*
X123309243Y-32654284D01*
X123516749Y-32557523D01*
X123704300Y-32426198D01*
X123866198Y-32264300D01*
X123997523Y-32076749D01*
X124094284Y-31869243D01*
X124153543Y-31648087D01*
X124173498Y-31420000D01*
X124153543Y-31191913D01*
X124094284Y-30970757D01*
X123997523Y-30763251D01*
X123866198Y-30575700D01*
X123704300Y-30413802D01*
X123597195Y-30338806D01*
X123521257Y-30285633D01*
X123521252Y-30285630D01*
X123516749Y-30282477D01*
X123511761Y-30280151D01*
X123314225Y-30188039D01*
X123314223Y-30188038D01*
X123309243Y-30185716D01*
X123088087Y-30126457D01*
X123082611Y-30125977D01*
X123082606Y-30125977D01*
X122865475Y-30106981D01*
X122860000Y-30106502D01*
X122854525Y-30106981D01*
X122637393Y-30125977D01*
X122637386Y-30125978D01*
X122631913Y-30126457D01*
X122626599Y-30127880D01*
X122626598Y-30127881D01*
X122416067Y-30184293D01*
X122416065Y-30184293D01*
X122410757Y-30185716D01*
X122405779Y-30188036D01*
X122405774Y-30188039D01*
X122208238Y-30280151D01*
X122208233Y-30280153D01*
X122203251Y-30282477D01*
X122198752Y-30285627D01*
X122198742Y-30285633D01*
X122020211Y-30410643D01*
X122020208Y-30410645D01*
X122015700Y-30413802D01*
X122011808Y-30417693D01*
X122011802Y-30417699D01*
X121857699Y-30571802D01*
X121857693Y-30571808D01*
X121853802Y-30575700D01*
X121850645Y-30580208D01*
X121850643Y-30580211D01*
X121725633Y-30758742D01*
X121725627Y-30758752D01*
X121722477Y-30763251D01*
X121720153Y-30768233D01*
X121720151Y-30768238D01*
X121628039Y-30965774D01*
X121628036Y-30965779D01*
X121625716Y-30970757D01*
X121624293Y-30976065D01*
X121624293Y-30976067D01*
X121577846Y-31149410D01*
X121566457Y-31191913D01*
X121565978Y-31197386D01*
X121565977Y-31197393D01*
X121546988Y-31414443D01*
X121546502Y-31420000D01*
X114013498Y-31420000D01*
X113993543Y-31191913D01*
X113934284Y-30970757D01*
X113837523Y-30763251D01*
X113706198Y-30575700D01*
X113544300Y-30413802D01*
X113437195Y-30338806D01*
X113361257Y-30285633D01*
X113361252Y-30285630D01*
X113356749Y-30282477D01*
X113351761Y-30280151D01*
X113154225Y-30188039D01*
X113154223Y-30188038D01*
X113149243Y-30185716D01*
X112928087Y-30126457D01*
X112922611Y-30125977D01*
X112922606Y-30125977D01*
X112705475Y-30106981D01*
X112700000Y-30106502D01*
X112694525Y-30106981D01*
X112477393Y-30125977D01*
X112477386Y-30125978D01*
X112471913Y-30126457D01*
X112466607Y-30127878D01*
X112466594Y-30127881D01*
X112408457Y-30143459D01*
X112343235Y-30143458D01*
X112286752Y-30110847D01*
X111846405Y-29670500D01*
X111819091Y-29629623D01*
X111809500Y-29581405D01*
X111809500Y-26285893D01*
X111827781Y-26220528D01*
X111877319Y-26174130D01*
X111943740Y-26160163D01*
X112007770Y-26182679D01*
X112043251Y-26207523D01*
X112250757Y-26304284D01*
X112471913Y-26363543D01*
X112700000Y-26383498D01*
X112928087Y-26363543D01*
X113149243Y-26304284D01*
X113356749Y-26207523D01*
X113544300Y-26076198D01*
X113706198Y-25914300D01*
X113837523Y-25726749D01*
X113934284Y-25519243D01*
X113993543Y-25298087D01*
X114013498Y-25070000D01*
X121546502Y-25070000D01*
X121546981Y-25075475D01*
X121565977Y-25292606D01*
X121565977Y-25292611D01*
X121566457Y-25298087D01*
X121625716Y-25519243D01*
X121722477Y-25726749D01*
X121725630Y-25731252D01*
X121725633Y-25731257D01*
X121802123Y-25840496D01*
X121853802Y-25914300D01*
X122015700Y-26076198D01*
X122203251Y-26207523D01*
X122410757Y-26304284D01*
X122631913Y-26363543D01*
X122860000Y-26383498D01*
X123088087Y-26363543D01*
X123107053Y-26358460D01*
X123151541Y-26346541D01*
X123216764Y-26346540D01*
X123273248Y-26379152D01*
X127364595Y-30470499D01*
X127391909Y-30511376D01*
X127401500Y-30559594D01*
X127401500Y-32523207D01*
X127399268Y-32546816D01*
X127399210Y-32547118D01*
X127399209Y-32547123D01*
X127397725Y-32554906D01*
X127398222Y-32562810D01*
X127398222Y-32562816D01*
X127401251Y-32610951D01*
X127401500Y-32618862D01*
X127401500Y-32634856D01*
X127401995Y-32638777D01*
X127401996Y-32638789D01*
X127403504Y-32650728D01*
X127404247Y-32658595D01*
X127406635Y-32696539D01*
X127407775Y-32714650D01*
X127410222Y-32722184D01*
X127410225Y-32722195D01*
X127410323Y-32722495D01*
X127415492Y-32745616D01*
X127416526Y-32753797D01*
X127428936Y-32785142D01*
X127437195Y-32806002D01*
X127439876Y-32813448D01*
X127454664Y-32858961D01*
X127457236Y-32866875D01*
X127461483Y-32873567D01*
X127461654Y-32873837D01*
X127472415Y-32894957D01*
X127472529Y-32895246D01*
X127472530Y-32895249D01*
X127475448Y-32902617D01*
X127480104Y-32909026D01*
X127480105Y-32909027D01*
X127508453Y-32948046D01*
X127512899Y-32954589D01*
X127538751Y-32995324D01*
X127538754Y-32995328D01*
X127543000Y-33002018D01*
X127548776Y-33007442D01*
X127548777Y-33007443D01*
X127549007Y-33007659D01*
X127564688Y-33025446D01*
X127564865Y-33025690D01*
X127564867Y-33025693D01*
X127569528Y-33032107D01*
X127575635Y-33037159D01*
X127575636Y-33037160D01*
X127612796Y-33067901D01*
X127618731Y-33073133D01*
X127659679Y-33111586D01*
X127666623Y-33115403D01*
X127666624Y-33115404D01*
X127666897Y-33115554D01*
X127686509Y-33128883D01*
X127686745Y-33129078D01*
X127686747Y-33129079D01*
X127692856Y-33134133D01*
X127743697Y-33158057D01*
X127750682Y-33161615D01*
X127799940Y-33188695D01*
X127807911Y-33190741D01*
X127830236Y-33198779D01*
X127837682Y-33202283D01*
X127887065Y-33211703D01*
X127938440Y-33234212D01*
X127974955Y-33276788D01*
X127989375Y-33330992D01*
X127978843Y-33386084D01*
X127923268Y-33512782D01*
X127919900Y-33522591D01*
X127876986Y-33692056D01*
X127876751Y-33703434D01*
X127887840Y-33706000D01*
X128939410Y-33706000D01*
X128952493Y-33702493D01*
X128956000Y-33689410D01*
X128956000Y-33354500D01*
X128972881Y-33291500D01*
X129019000Y-33245381D01*
X129082000Y-33228500D01*
X129338000Y-33228500D01*
X129401000Y-33245381D01*
X129447119Y-33291500D01*
X129464000Y-33354500D01*
X129464000Y-35280664D01*
X129466401Y-35291556D01*
X129477538Y-35292132D01*
X129539372Y-35281814D01*
X129549442Y-35279264D01*
X129752440Y-35209575D01*
X129761957Y-35205400D01*
X129950718Y-35103247D01*
X129959411Y-35097568D01*
X130128788Y-34965737D01*
X130136432Y-34958700D01*
X130281789Y-34800799D01*
X130288181Y-34792587D01*
X130374218Y-34660899D01*
X130419732Y-34619000D01*
X130479701Y-34603814D01*
X130539670Y-34619000D01*
X130585183Y-34660898D01*
X130674278Y-34797268D01*
X130677806Y-34801100D01*
X130823227Y-34959069D01*
X130823231Y-34959073D01*
X130826760Y-34962906D01*
X131004424Y-35101189D01*
X131202426Y-35208342D01*
X131207355Y-35210034D01*
X131207357Y-35210035D01*
X131308895Y-35244893D01*
X131415365Y-35281444D01*
X131637431Y-35318500D01*
X131857358Y-35318500D01*
X131862569Y-35318500D01*
X132084635Y-35281444D01*
X132297574Y-35208342D01*
X132495576Y-35101189D01*
X132673240Y-34962906D01*
X132825722Y-34797268D01*
X132914518Y-34661354D01*
X132960030Y-34619457D01*
X133020000Y-34604271D01*
X133079970Y-34619457D01*
X133125481Y-34661354D01*
X133214278Y-34797268D01*
X133217806Y-34801100D01*
X133363227Y-34959069D01*
X133363231Y-34959073D01*
X133366760Y-34962906D01*
X133544424Y-35101189D01*
X133742426Y-35208342D01*
X133747355Y-35210034D01*
X133747357Y-35210035D01*
X133848895Y-35244893D01*
X133955365Y-35281444D01*
X134177431Y-35318500D01*
X134397358Y-35318500D01*
X134402569Y-35318500D01*
X134624635Y-35281444D01*
X134837574Y-35208342D01*
X135035576Y-35101189D01*
X135213240Y-34962906D01*
X135365722Y-34797268D01*
X135454518Y-34661354D01*
X135500030Y-34619457D01*
X135560000Y-34604271D01*
X135619970Y-34619457D01*
X135665481Y-34661354D01*
X135754278Y-34797268D01*
X135757806Y-34801100D01*
X135903227Y-34959069D01*
X135903231Y-34959073D01*
X135906760Y-34962906D01*
X136084424Y-35101189D01*
X136282426Y-35208342D01*
X136287355Y-35210034D01*
X136287357Y-35210035D01*
X136388895Y-35244893D01*
X136495365Y-35281444D01*
X136717431Y-35318500D01*
X136937358Y-35318500D01*
X136942569Y-35318500D01*
X137164635Y-35281444D01*
X137377574Y-35208342D01*
X137575576Y-35101189D01*
X137753240Y-34962906D01*
X137905722Y-34797268D01*
X137994518Y-34661354D01*
X138040030Y-34619457D01*
X138100000Y-34604271D01*
X138159970Y-34619457D01*
X138205481Y-34661354D01*
X138294278Y-34797268D01*
X138297806Y-34801100D01*
X138443227Y-34959069D01*
X138443231Y-34959073D01*
X138446760Y-34962906D01*
X138624424Y-35101189D01*
X138822426Y-35208342D01*
X138827355Y-35210034D01*
X138827357Y-35210035D01*
X138928895Y-35244893D01*
X139035365Y-35281444D01*
X139257431Y-35318500D01*
X139477358Y-35318500D01*
X139482569Y-35318500D01*
X139704635Y-35281444D01*
X139917574Y-35208342D01*
X140115576Y-35101189D01*
X140293240Y-34962906D01*
X140445722Y-34797268D01*
X140534817Y-34660896D01*
X140580328Y-34619001D01*
X140640297Y-34603814D01*
X140700267Y-34619000D01*
X140745781Y-34660898D01*
X140831822Y-34792592D01*
X140838210Y-34800799D01*
X140983567Y-34958700D01*
X140991211Y-34965737D01*
X141160588Y-35097568D01*
X141169281Y-35103247D01*
X141358042Y-35205400D01*
X141367559Y-35209575D01*
X141570557Y-35279264D01*
X141580627Y-35281814D01*
X141642461Y-35292132D01*
X141653598Y-35291556D01*
X141656000Y-35280664D01*
X142164000Y-35280664D01*
X142166401Y-35291556D01*
X142177538Y-35292132D01*
X142239372Y-35281814D01*
X142249442Y-35279264D01*
X142452440Y-35209575D01*
X142461957Y-35205400D01*
X142650718Y-35103247D01*
X142659411Y-35097568D01*
X142828788Y-34965737D01*
X142836432Y-34958700D01*
X142981789Y-34800799D01*
X142988177Y-34792593D01*
X143074517Y-34660441D01*
X143120031Y-34618543D01*
X143180000Y-34603357D01*
X143239969Y-34618543D01*
X143285483Y-34660441D01*
X143371822Y-34792593D01*
X143378210Y-34800799D01*
X143523567Y-34958700D01*
X143531211Y-34965737D01*
X143700588Y-35097568D01*
X143709281Y-35103247D01*
X143898042Y-35205400D01*
X143907559Y-35209575D01*
X144110557Y-35279264D01*
X144120627Y-35281814D01*
X144182461Y-35292132D01*
X144193598Y-35291556D01*
X144196000Y-35280664D01*
X144704000Y-35280664D01*
X144706401Y-35291556D01*
X144717538Y-35292132D01*
X144779372Y-35281814D01*
X144789442Y-35279264D01*
X144992440Y-35209575D01*
X145001957Y-35205400D01*
X145190718Y-35103247D01*
X145199411Y-35097568D01*
X145368788Y-34965737D01*
X145376432Y-34958700D01*
X145521789Y-34800799D01*
X145528177Y-34792593D01*
X145645568Y-34612913D01*
X145650511Y-34603778D01*
X145736729Y-34407223D01*
X145740099Y-34397408D01*
X145783013Y-34227943D01*
X145783248Y-34216565D01*
X145772160Y-34214000D01*
X144720590Y-34214000D01*
X144707506Y-34217506D01*
X144704000Y-34230590D01*
X144704000Y-35280664D01*
X144196000Y-35280664D01*
X144196000Y-34230590D01*
X144192493Y-34217506D01*
X144179410Y-34214000D01*
X142180590Y-34214000D01*
X142167506Y-34217506D01*
X142164000Y-34230590D01*
X142164000Y-35280664D01*
X141656000Y-35280664D01*
X141656000Y-33832000D01*
X141672881Y-33769000D01*
X141719000Y-33722881D01*
X141782000Y-33706000D01*
X144179410Y-33706000D01*
X144192493Y-33702493D01*
X144196000Y-33689410D01*
X144704000Y-33689410D01*
X144707506Y-33702493D01*
X144720590Y-33706000D01*
X145772160Y-33706000D01*
X145783248Y-33703434D01*
X145783013Y-33692056D01*
X145740099Y-33522591D01*
X145736729Y-33512776D01*
X145650511Y-33316221D01*
X145645568Y-33307086D01*
X145528177Y-33127406D01*
X145521789Y-33119200D01*
X145376432Y-32961299D01*
X145368788Y-32954262D01*
X145199411Y-32822431D01*
X145190718Y-32816752D01*
X145161267Y-32800814D01*
X145112995Y-32754498D01*
X145095236Y-32690000D01*
X145112995Y-32625502D01*
X145161267Y-32579186D01*
X145190718Y-32563247D01*
X145199411Y-32557568D01*
X145368788Y-32425737D01*
X145376432Y-32418700D01*
X145521789Y-32260799D01*
X145528177Y-32252593D01*
X145645568Y-32072913D01*
X145650511Y-32063778D01*
X145736729Y-31867223D01*
X145740099Y-31857408D01*
X145783013Y-31687943D01*
X145783248Y-31676565D01*
X145772160Y-31674000D01*
X144720590Y-31674000D01*
X144707506Y-31677506D01*
X144704000Y-31690590D01*
X144704000Y-33689410D01*
X144196000Y-33689410D01*
X144196000Y-31149410D01*
X144704000Y-31149410D01*
X144707506Y-31162493D01*
X144720590Y-31166000D01*
X145772160Y-31166000D01*
X145783248Y-31163434D01*
X145783013Y-31152056D01*
X145740099Y-30982591D01*
X145736729Y-30972776D01*
X145650511Y-30776221D01*
X145645568Y-30767086D01*
X145528177Y-30587406D01*
X145521789Y-30579200D01*
X145376432Y-30421299D01*
X145368788Y-30414262D01*
X145199411Y-30282431D01*
X145190718Y-30276752D01*
X145001957Y-30174599D01*
X144992440Y-30170424D01*
X144789442Y-30100735D01*
X144779372Y-30098185D01*
X144717538Y-30087867D01*
X144706401Y-30088443D01*
X144704000Y-30099336D01*
X144704000Y-31149410D01*
X144196000Y-31149410D01*
X144196000Y-30099336D01*
X144193598Y-30088443D01*
X144182461Y-30087867D01*
X144120627Y-30098185D01*
X144110557Y-30100735D01*
X143907559Y-30170424D01*
X143898042Y-30174599D01*
X143709281Y-30276752D01*
X143700588Y-30282431D01*
X143531211Y-30414262D01*
X143523567Y-30421299D01*
X143378210Y-30579200D01*
X143371816Y-30587415D01*
X143285780Y-30719101D01*
X143240267Y-30760999D01*
X143180297Y-30776185D01*
X143120328Y-30760998D01*
X143074816Y-30719101D01*
X142985722Y-30582732D01*
X142894625Y-30483775D01*
X142836772Y-30420930D01*
X142836767Y-30420925D01*
X142833240Y-30417094D01*
X142829010Y-30413802D01*
X142732762Y-30338888D01*
X142655576Y-30278811D01*
X142650997Y-30276333D01*
X142650994Y-30276331D01*
X142462159Y-30174139D01*
X142462156Y-30174137D01*
X142457574Y-30171658D01*
X142452650Y-30169967D01*
X142452642Y-30169964D01*
X142249565Y-30100248D01*
X142249559Y-30100246D01*
X142244635Y-30098556D01*
X142239498Y-30097698D01*
X142239495Y-30097698D01*
X142027706Y-30062357D01*
X142027703Y-30062356D01*
X142022569Y-30061500D01*
X141797431Y-30061500D01*
X141792297Y-30062356D01*
X141792293Y-30062357D01*
X141580504Y-30097698D01*
X141580498Y-30097699D01*
X141575365Y-30098556D01*
X141570443Y-30100245D01*
X141570434Y-30100248D01*
X141367357Y-30169964D01*
X141367344Y-30169969D01*
X141362426Y-30171658D01*
X141357847Y-30174135D01*
X141357840Y-30174139D01*
X141169005Y-30276331D01*
X141168997Y-30276336D01*
X141164424Y-30278811D01*
X141160313Y-30282010D01*
X141160311Y-30282012D01*
X140990878Y-30413888D01*
X140990872Y-30413893D01*
X140986760Y-30417094D01*
X140983237Y-30420919D01*
X140983227Y-30420930D01*
X140837806Y-30578899D01*
X140837802Y-30578902D01*
X140834278Y-30582732D01*
X140831430Y-30587090D01*
X140831427Y-30587095D01*
X140745483Y-30718643D01*
X140699969Y-30760542D01*
X140640000Y-30775728D01*
X140580031Y-30760542D01*
X140534517Y-30718643D01*
X140508968Y-30679538D01*
X140445722Y-30582732D01*
X140354625Y-30483775D01*
X140296772Y-30420930D01*
X140296767Y-30420925D01*
X140293240Y-30417094D01*
X140289010Y-30413802D01*
X140192762Y-30338888D01*
X140115576Y-30278811D01*
X140110997Y-30276333D01*
X140110994Y-30276331D01*
X139922159Y-30174139D01*
X139922156Y-30174137D01*
X139917574Y-30171658D01*
X139912650Y-30169967D01*
X139912642Y-30169964D01*
X139709565Y-30100248D01*
X139709559Y-30100246D01*
X139704635Y-30098556D01*
X139699498Y-30097698D01*
X139699495Y-30097698D01*
X139487706Y-30062357D01*
X139487703Y-30062356D01*
X139482569Y-30061500D01*
X139257431Y-30061500D01*
X139252297Y-30062356D01*
X139252293Y-30062357D01*
X139040504Y-30097698D01*
X139040498Y-30097699D01*
X139035365Y-30098556D01*
X139030443Y-30100245D01*
X139030434Y-30100248D01*
X138827357Y-30169964D01*
X138827344Y-30169969D01*
X138822426Y-30171658D01*
X138817847Y-30174135D01*
X138817840Y-30174139D01*
X138629005Y-30276331D01*
X138628997Y-30276336D01*
X138624424Y-30278811D01*
X138620313Y-30282010D01*
X138620311Y-30282012D01*
X138450878Y-30413888D01*
X138450872Y-30413893D01*
X138446760Y-30417094D01*
X138443237Y-30420919D01*
X138443227Y-30420930D01*
X138297806Y-30578899D01*
X138297802Y-30578902D01*
X138294278Y-30582732D01*
X138291430Y-30587090D01*
X138291427Y-30587095D01*
X138205483Y-30718643D01*
X138159969Y-30760542D01*
X138100000Y-30775728D01*
X138040031Y-30760542D01*
X137994517Y-30718643D01*
X137968968Y-30679538D01*
X137905722Y-30582732D01*
X137814625Y-30483775D01*
X137756772Y-30420930D01*
X137756767Y-30420925D01*
X137753240Y-30417094D01*
X137749010Y-30413802D01*
X137652762Y-30338888D01*
X137575576Y-30278811D01*
X137570997Y-30276333D01*
X137570994Y-30276331D01*
X137382159Y-30174139D01*
X137382156Y-30174137D01*
X137377574Y-30171658D01*
X137372650Y-30169967D01*
X137372642Y-30169964D01*
X137169565Y-30100248D01*
X137169559Y-30100246D01*
X137164635Y-30098556D01*
X137159498Y-30097698D01*
X137159495Y-30097698D01*
X136947706Y-30062357D01*
X136947703Y-30062356D01*
X136942569Y-30061500D01*
X136717431Y-30061500D01*
X136712297Y-30062356D01*
X136712293Y-30062357D01*
X136500504Y-30097698D01*
X136500498Y-30097699D01*
X136495365Y-30098556D01*
X136490443Y-30100245D01*
X136490434Y-30100248D01*
X136287357Y-30169964D01*
X136287344Y-30169969D01*
X136282426Y-30171658D01*
X136277847Y-30174135D01*
X136277840Y-30174139D01*
X136089005Y-30276331D01*
X136088997Y-30276336D01*
X136084424Y-30278811D01*
X136080313Y-30282010D01*
X136080311Y-30282012D01*
X135910878Y-30413888D01*
X135910872Y-30413893D01*
X135906760Y-30417094D01*
X135903237Y-30420919D01*
X135903227Y-30420930D01*
X135757806Y-30578899D01*
X135757802Y-30578902D01*
X135754278Y-30582732D01*
X135751430Y-30587090D01*
X135751427Y-30587095D01*
X135665483Y-30718643D01*
X135619969Y-30760542D01*
X135560000Y-30775728D01*
X135500031Y-30760542D01*
X135454517Y-30718643D01*
X135428968Y-30679538D01*
X135365722Y-30582732D01*
X135274625Y-30483775D01*
X135216772Y-30420930D01*
X135216767Y-30420925D01*
X135213240Y-30417094D01*
X135209010Y-30413802D01*
X135112762Y-30338888D01*
X135035576Y-30278811D01*
X135030997Y-30276333D01*
X135030994Y-30276331D01*
X134842159Y-30174139D01*
X134842156Y-30174137D01*
X134837574Y-30171658D01*
X134832650Y-30169967D01*
X134832642Y-30169964D01*
X134629565Y-30100248D01*
X134629559Y-30100246D01*
X134624635Y-30098556D01*
X134619498Y-30097698D01*
X134619495Y-30097698D01*
X134407706Y-30062357D01*
X134407703Y-30062356D01*
X134402569Y-30061500D01*
X134177431Y-30061500D01*
X134172297Y-30062356D01*
X134172293Y-30062357D01*
X133960504Y-30097698D01*
X133960498Y-30097699D01*
X133955365Y-30098556D01*
X133950443Y-30100245D01*
X133950434Y-30100248D01*
X133747357Y-30169964D01*
X133747344Y-30169969D01*
X133742426Y-30171658D01*
X133737847Y-30174135D01*
X133737840Y-30174139D01*
X133549005Y-30276331D01*
X133548997Y-30276336D01*
X133544424Y-30278811D01*
X133540313Y-30282010D01*
X133540311Y-30282012D01*
X133370878Y-30413888D01*
X133370872Y-30413893D01*
X133366760Y-30417094D01*
X133363237Y-30420919D01*
X133363227Y-30420930D01*
X133217806Y-30578899D01*
X133217802Y-30578902D01*
X133214278Y-30582732D01*
X133211430Y-30587090D01*
X133211427Y-30587095D01*
X133125483Y-30718643D01*
X133079969Y-30760542D01*
X133020000Y-30775728D01*
X132960031Y-30760542D01*
X132914517Y-30718643D01*
X132888968Y-30679538D01*
X132825722Y-30582732D01*
X132734625Y-30483775D01*
X132676772Y-30420930D01*
X132676767Y-30420925D01*
X132673240Y-30417094D01*
X132669010Y-30413802D01*
X132572762Y-30338888D01*
X132495576Y-30278811D01*
X132490997Y-30276333D01*
X132490994Y-30276331D01*
X132302159Y-30174139D01*
X132302156Y-30174137D01*
X132297574Y-30171658D01*
X132292650Y-30169967D01*
X132292642Y-30169964D01*
X132089565Y-30100248D01*
X132089559Y-30100246D01*
X132084635Y-30098556D01*
X132079498Y-30097698D01*
X132079495Y-30097698D01*
X131867706Y-30062357D01*
X131867703Y-30062356D01*
X131862569Y-30061500D01*
X131637431Y-30061500D01*
X131632297Y-30062356D01*
X131632293Y-30062357D01*
X131420504Y-30097698D01*
X131420498Y-30097699D01*
X131415365Y-30098556D01*
X131410443Y-30100245D01*
X131410434Y-30100248D01*
X131207357Y-30169964D01*
X131207344Y-30169969D01*
X131202426Y-30171658D01*
X131197847Y-30174135D01*
X131197840Y-30174139D01*
X131009005Y-30276331D01*
X131008997Y-30276336D01*
X131004424Y-30278811D01*
X131000313Y-30282010D01*
X131000311Y-30282012D01*
X130830878Y-30413888D01*
X130830872Y-30413893D01*
X130826760Y-30417094D01*
X130823237Y-30420920D01*
X130823226Y-30420931D01*
X130765374Y-30483775D01*
X130711901Y-30518174D01*
X130648440Y-30522084D01*
X130591150Y-30494508D01*
X130554618Y-30442468D01*
X130513594Y-30332480D01*
X130505045Y-30316824D01*
X130428302Y-30214307D01*
X130415692Y-30201697D01*
X130313175Y-30124954D01*
X130297519Y-30116405D01*
X130176478Y-30071259D01*
X130161257Y-30067662D01*
X130111938Y-30062359D01*
X130105223Y-30062000D01*
X129480590Y-30062000D01*
X129467506Y-30065506D01*
X129464000Y-30078590D01*
X129464000Y-31835500D01*
X129447119Y-31898500D01*
X129401000Y-31944619D01*
X129338000Y-31961500D01*
X129082000Y-31961500D01*
X129019000Y-31944619D01*
X128972881Y-31898500D01*
X128956000Y-31835500D01*
X128956000Y-30078590D01*
X128952493Y-30065506D01*
X128939410Y-30062000D01*
X128733250Y-30062000D01*
X128685642Y-30052660D01*
X128645092Y-30026023D01*
X128621219Y-29991287D01*
X128621018Y-29991407D01*
X128619270Y-29988451D01*
X128619268Y-29988448D01*
X128610707Y-29973973D01*
X128602008Y-29956215D01*
X128597469Y-29944751D01*
X128594552Y-29937383D01*
X128568561Y-29901610D01*
X128562050Y-29891698D01*
X128559624Y-29887595D01*
X128539542Y-29853637D01*
X128525218Y-29839313D01*
X128512376Y-29824277D01*
X128505134Y-29814309D01*
X128505131Y-29814306D01*
X128500472Y-29807893D01*
X128466405Y-29779710D01*
X128457626Y-29771721D01*
X124169151Y-25483246D01*
X124136539Y-25426761D01*
X124136539Y-25361541D01*
X124153543Y-25298087D01*
X124173498Y-25070000D01*
X124153543Y-24841913D01*
X124094284Y-24620757D01*
X123997523Y-24413251D01*
X123866198Y-24225700D01*
X123704300Y-24063802D01*
X123552230Y-23957321D01*
X123521257Y-23935633D01*
X123521252Y-23935630D01*
X123516749Y-23932477D01*
X123511761Y-23930151D01*
X123314225Y-23838039D01*
X123314223Y-23838038D01*
X123309243Y-23835716D01*
X123088087Y-23776457D01*
X123082611Y-23775977D01*
X123082606Y-23775977D01*
X122865475Y-23756981D01*
X122860000Y-23756502D01*
X122854525Y-23756981D01*
X122637393Y-23775977D01*
X122637386Y-23775978D01*
X122631913Y-23776457D01*
X122626599Y-23777880D01*
X122626598Y-23777881D01*
X122416067Y-23834293D01*
X122416065Y-23834293D01*
X122410757Y-23835716D01*
X122405779Y-23838036D01*
X122405774Y-23838039D01*
X122208238Y-23930151D01*
X122208233Y-23930153D01*
X122203251Y-23932477D01*
X122198752Y-23935627D01*
X122198742Y-23935633D01*
X122020211Y-24060643D01*
X122020208Y-24060645D01*
X122015700Y-24063802D01*
X122011808Y-24067693D01*
X122011802Y-24067699D01*
X121857699Y-24221802D01*
X121857693Y-24221808D01*
X121853802Y-24225700D01*
X121850645Y-24230208D01*
X121850643Y-24230211D01*
X121725633Y-24408742D01*
X121725627Y-24408752D01*
X121722477Y-24413251D01*
X121720153Y-24418233D01*
X121720151Y-24418238D01*
X121628039Y-24615774D01*
X121628036Y-24615779D01*
X121625716Y-24620757D01*
X121566457Y-24841913D01*
X121565978Y-24847386D01*
X121565977Y-24847393D01*
X121546988Y-25064443D01*
X121546502Y-25070000D01*
X114013498Y-25070000D01*
X113993543Y-24841913D01*
X113934284Y-24620757D01*
X113837523Y-24413251D01*
X113706198Y-24225700D01*
X113544300Y-24063802D01*
X113392230Y-23957321D01*
X113361257Y-23935633D01*
X113361252Y-23935630D01*
X113356749Y-23932477D01*
X113351761Y-23930151D01*
X113154225Y-23838039D01*
X113154223Y-23838038D01*
X113149243Y-23835716D01*
X112928087Y-23776457D01*
X112922611Y-23775977D01*
X112922606Y-23775977D01*
X112705475Y-23756981D01*
X112700000Y-23756502D01*
X112694525Y-23756981D01*
X112477393Y-23775977D01*
X112477386Y-23775978D01*
X112471913Y-23776457D01*
X112466599Y-23777880D01*
X112466598Y-23777881D01*
X112256067Y-23834293D01*
X112256065Y-23834293D01*
X112250757Y-23835716D01*
X112245779Y-23838036D01*
X112245774Y-23838039D01*
X112048238Y-23930151D01*
X112048233Y-23930153D01*
X112043251Y-23932477D01*
X112038750Y-23935628D01*
X112038744Y-23935632D01*
X112007770Y-23957321D01*
X111943740Y-23979837D01*
X111877319Y-23965870D01*
X111827781Y-23919472D01*
X111809500Y-23854107D01*
X111809500Y-20558595D01*
X111819091Y-20510377D01*
X111846404Y-20469500D01*
X111872740Y-20443163D01*
X112286752Y-20029150D01*
X112343235Y-19996540D01*
X112408457Y-19996540D01*
X112471913Y-20013543D01*
X112700000Y-20033498D01*
X112928087Y-20013543D01*
X113149243Y-19954284D01*
X113356749Y-19857523D01*
X113544300Y-19726198D01*
X113706198Y-19564300D01*
X113837523Y-19376749D01*
X113934284Y-19169243D01*
X113993543Y-18948087D01*
X114013498Y-18720000D01*
X121546502Y-18720000D01*
X121566457Y-18948087D01*
X121625716Y-19169243D01*
X121628038Y-19174223D01*
X121628039Y-19174225D01*
X121720151Y-19371761D01*
X121722477Y-19376749D01*
X121725630Y-19381252D01*
X121725633Y-19381257D01*
X121799221Y-19486351D01*
X121853802Y-19564300D01*
X122015700Y-19726198D01*
X122099998Y-19785224D01*
X122167991Y-19832834D01*
X122203251Y-19857523D01*
X122410757Y-19954284D01*
X122631913Y-20013543D01*
X122860000Y-20033498D01*
X123088087Y-20013543D01*
X123309243Y-19954284D01*
X123516749Y-19857523D01*
X123704300Y-19726198D01*
X123866198Y-19564300D01*
X123997523Y-19376749D01*
X124094284Y-19169243D01*
X124153543Y-18948087D01*
X124173498Y-18720000D01*
X124153543Y-18491913D01*
X124094284Y-18270757D01*
X123997523Y-18063251D01*
X123866198Y-17875700D01*
X123704300Y-17713802D01*
X123630496Y-17662123D01*
X123521257Y-17585633D01*
X123521252Y-17585630D01*
X123516749Y-17582477D01*
X123309243Y-17485716D01*
X123088087Y-17426457D01*
X123082611Y-17425977D01*
X123082606Y-17425977D01*
X122865475Y-17406981D01*
X122860000Y-17406502D01*
X122854525Y-17406981D01*
X122637393Y-17425977D01*
X122637386Y-17425978D01*
X122631913Y-17426457D01*
X122626599Y-17427880D01*
X122626598Y-17427881D01*
X122416067Y-17484293D01*
X122416065Y-17484293D01*
X122410757Y-17485716D01*
X122405779Y-17488036D01*
X122405774Y-17488039D01*
X122208238Y-17580151D01*
X122208233Y-17580153D01*
X122203251Y-17582477D01*
X122198752Y-17585627D01*
X122198742Y-17585633D01*
X122020211Y-17710643D01*
X122020208Y-17710645D01*
X122015700Y-17713802D01*
X122011808Y-17717693D01*
X122011802Y-17717699D01*
X121857699Y-17871802D01*
X121857693Y-17871808D01*
X121853802Y-17875700D01*
X121850645Y-17880208D01*
X121850643Y-17880211D01*
X121725633Y-18058742D01*
X121725627Y-18058752D01*
X121722477Y-18063251D01*
X121720153Y-18068233D01*
X121720151Y-18068238D01*
X121628039Y-18265774D01*
X121628036Y-18265779D01*
X121625716Y-18270757D01*
X121566457Y-18491913D01*
X121565978Y-18497386D01*
X121565977Y-18497393D01*
X121546988Y-18714443D01*
X121546502Y-18720000D01*
X114013498Y-18720000D01*
X113993543Y-18491913D01*
X113934284Y-18270757D01*
X113837523Y-18063251D01*
X113706198Y-17875700D01*
X113544300Y-17713802D01*
X113470496Y-17662123D01*
X113361257Y-17585633D01*
X113361252Y-17585630D01*
X113356749Y-17582477D01*
X113149243Y-17485716D01*
X112928087Y-17426457D01*
X112922611Y-17425977D01*
X112922606Y-17425977D01*
X112705475Y-17406981D01*
X112700000Y-17406502D01*
X112694525Y-17406981D01*
X112477393Y-17425977D01*
X112477386Y-17425978D01*
X112471913Y-17426457D01*
X112466599Y-17427880D01*
X112466598Y-17427881D01*
X112256067Y-17484293D01*
X112256065Y-17484293D01*
X112250757Y-17485716D01*
X112245779Y-17488036D01*
X112245774Y-17488039D01*
X112048238Y-17580151D01*
X112048233Y-17580153D01*
X112043251Y-17582477D01*
X112038752Y-17585627D01*
X112038742Y-17585633D01*
X111860211Y-17710643D01*
X111860208Y-17710645D01*
X111855700Y-17713802D01*
X111851808Y-17717693D01*
X111851802Y-17717699D01*
X111697699Y-17871802D01*
X111697693Y-17871808D01*
X111693802Y-17875700D01*
X111690645Y-17880208D01*
X111690643Y-17880211D01*
X111565633Y-18058742D01*
X111565627Y-18058752D01*
X111562477Y-18063251D01*
X111560153Y-18068233D01*
X111560151Y-18068238D01*
X111468039Y-18265774D01*
X111468036Y-18265779D01*
X111465716Y-18270757D01*
X111406457Y-18491913D01*
X111405978Y-18497386D01*
X111405977Y-18497393D01*
X111386988Y-18714443D01*
X111386502Y-18720000D01*
X111406457Y-18948087D01*
X111407881Y-18953401D01*
X111423459Y-19011540D01*
X111423459Y-19076762D01*
X111390847Y-19133246D01*
X110783742Y-19740351D01*
X110775459Y-19747888D01*
X110768982Y-19752000D01*
X110763563Y-19757769D01*
X110763555Y-19757777D01*
X110722370Y-19801635D01*
X110719621Y-19804472D01*
X110702667Y-19821427D01*
X110702660Y-19821434D01*
X110699865Y-19824230D01*
X110697442Y-19827352D01*
X110697426Y-19827371D01*
X110697365Y-19827451D01*
X110689690Y-19836435D01*
X110664838Y-19862902D01*
X110664835Y-19862904D01*
X110659414Y-19868679D01*
X110655600Y-19875614D01*
X110655592Y-19875627D01*
X110649650Y-19886436D01*
X110638803Y-19902949D01*
X110631243Y-19912695D01*
X110631237Y-19912704D01*
X110626386Y-19918959D01*
X110623242Y-19926223D01*
X110623238Y-19926231D01*
X110608824Y-19959540D01*
X110603604Y-19970195D01*
X110586125Y-20001989D01*
X110586121Y-20001997D01*
X110582305Y-20008940D01*
X110580333Y-20016616D01*
X110580331Y-20016624D01*
X110577266Y-20028562D01*
X110570865Y-20047259D01*
X110565968Y-20058576D01*
X110565966Y-20058581D01*
X110562819Y-20065855D01*
X110561579Y-20073680D01*
X110561577Y-20073689D01*
X110555901Y-20109524D01*
X110553495Y-20121144D01*
X110544471Y-20156289D01*
X110544469Y-20156297D01*
X110542500Y-20163970D01*
X110542500Y-20171899D01*
X110542500Y-20184224D01*
X110540949Y-20203935D01*
X110539019Y-20216114D01*
X110539018Y-20216121D01*
X110537780Y-20223943D01*
X110538525Y-20231826D01*
X110538525Y-20231834D01*
X110541941Y-20267961D01*
X110542500Y-20279819D01*
X110542500Y-29817233D01*
X110541972Y-29828416D01*
X110540298Y-29835909D01*
X110540547Y-29843833D01*
X110540547Y-29843835D01*
X110542438Y-29903986D01*
X110542500Y-29907945D01*
X110542500Y-29935856D01*
X110542995Y-29939774D01*
X110542997Y-29939806D01*
X110543008Y-29939888D01*
X110543937Y-29951697D01*
X110545077Y-29987969D01*
X110545078Y-29987976D01*
X110545327Y-29995889D01*
X110547537Y-30003498D01*
X110547538Y-30003500D01*
X110550978Y-30015342D01*
X110554986Y-30034693D01*
X110557526Y-30054797D01*
X110560444Y-30062169D01*
X110560445Y-30062170D01*
X110573800Y-30095901D01*
X110577645Y-30107130D01*
X110587771Y-30141986D01*
X110587773Y-30141992D01*
X110589982Y-30149593D01*
X110594014Y-30156411D01*
X110594015Y-30156413D01*
X110600293Y-30167029D01*
X110608990Y-30184782D01*
X110612595Y-30193888D01*
X110616448Y-30203617D01*
X110621107Y-30210030D01*
X110621108Y-30210031D01*
X110642432Y-30239381D01*
X110648948Y-30249301D01*
X110667193Y-30280151D01*
X110671458Y-30287362D01*
X110677063Y-30292967D01*
X110685778Y-30301682D01*
X110698618Y-30316715D01*
X110698697Y-30316824D01*
X110710528Y-30333107D01*
X110716635Y-30338159D01*
X110716636Y-30338160D01*
X110744598Y-30361292D01*
X110753378Y-30369282D01*
X111390847Y-31006751D01*
X111423458Y-31063234D01*
X111423459Y-31128455D01*
X111407882Y-31186591D01*
X111407881Y-31186598D01*
X111406457Y-31191913D01*
X111405978Y-31197386D01*
X111405977Y-31197393D01*
X111386988Y-31414443D01*
X111386502Y-31420000D01*
X111386981Y-31425475D01*
X111402540Y-31603325D01*
X111406457Y-31648087D01*
X111407879Y-31653394D01*
X111407881Y-31653405D01*
X111423459Y-31711542D01*
X111423459Y-31776764D01*
X111390847Y-31833247D01*
X103417742Y-39806351D01*
X103409459Y-39813888D01*
X103402982Y-39818000D01*
X103397563Y-39823769D01*
X103397555Y-39823777D01*
X103356370Y-39867635D01*
X103353621Y-39870472D01*
X103336667Y-39887427D01*
X103336660Y-39887434D01*
X103333865Y-39890230D01*
X103331442Y-39893352D01*
X103331426Y-39893371D01*
X103331365Y-39893451D01*
X103323690Y-39902435D01*
X103298838Y-39928902D01*
X103298835Y-39928904D01*
X103293414Y-39934679D01*
X103289600Y-39941614D01*
X103289592Y-39941627D01*
X103283650Y-39952436D01*
X103272803Y-39968949D01*
X103265243Y-39978695D01*
X103265237Y-39978704D01*
X103260386Y-39984959D01*
X103257242Y-39992223D01*
X103257238Y-39992231D01*
X103242824Y-40025540D01*
X103237604Y-40036195D01*
X103220125Y-40067989D01*
X103220121Y-40067997D01*
X103216305Y-40074940D01*
X103214333Y-40082616D01*
X103214331Y-40082624D01*
X103211266Y-40094562D01*
X103204865Y-40113259D01*
X103199968Y-40124576D01*
X103199966Y-40124581D01*
X103196819Y-40131855D01*
X103195579Y-40139680D01*
X103195577Y-40139689D01*
X103189901Y-40175524D01*
X103187495Y-40187144D01*
X103178471Y-40222289D01*
X103178469Y-40222297D01*
X103176500Y-40229970D01*
X103176500Y-40237899D01*
X103176500Y-40250224D01*
X103174949Y-40269935D01*
X103173019Y-40282114D01*
X103173018Y-40282121D01*
X103171780Y-40289943D01*
X103172525Y-40297826D01*
X103172525Y-40297834D01*
X103175941Y-40333961D01*
X103176500Y-40345819D01*
X103176500Y-42900606D01*
X103162263Y-42958786D01*
X103122771Y-43003819D01*
X102970211Y-43110643D01*
X102970208Y-43110645D01*
X102965700Y-43113802D01*
X102961808Y-43117693D01*
X102961802Y-43117699D01*
X102807699Y-43271802D01*
X102807693Y-43271808D01*
X102803802Y-43275700D01*
X102800645Y-43280208D01*
X102800643Y-43280211D01*
X102675633Y-43458742D01*
X102675627Y-43458752D01*
X102672477Y-43463251D01*
X102670153Y-43468233D01*
X102670151Y-43468238D01*
X102578039Y-43665774D01*
X102578036Y-43665779D01*
X102575716Y-43670757D01*
X102574293Y-43676065D01*
X102574293Y-43676067D01*
X102517882Y-43886594D01*
X102516457Y-43891913D01*
X102515978Y-43897386D01*
X102515977Y-43897393D01*
X102496988Y-44114443D01*
X102496502Y-44120000D01*
X102516457Y-44348087D01*
X102517881Y-44353401D01*
X102533459Y-44411540D01*
X102533459Y-44476762D01*
X102500847Y-44533246D01*
X101893742Y-45140351D01*
X101885459Y-45147888D01*
X101878982Y-45152000D01*
X101873563Y-45157769D01*
X101873555Y-45157777D01*
X101832370Y-45201635D01*
X101829621Y-45204472D01*
X101812667Y-45221427D01*
X101812660Y-45221434D01*
X101809865Y-45224230D01*
X101807442Y-45227352D01*
X101807426Y-45227371D01*
X101807365Y-45227451D01*
X101799690Y-45236435D01*
X101774838Y-45262902D01*
X101774835Y-45262904D01*
X101769414Y-45268679D01*
X101765600Y-45275614D01*
X101765592Y-45275627D01*
X101759650Y-45286436D01*
X101748803Y-45302949D01*
X101741243Y-45312695D01*
X101741237Y-45312704D01*
X101736386Y-45318959D01*
X101733242Y-45326223D01*
X101733238Y-45326231D01*
X101718824Y-45359540D01*
X101713604Y-45370195D01*
X101696125Y-45401989D01*
X101696121Y-45401997D01*
X101692305Y-45408940D01*
X101690333Y-45416616D01*
X101690331Y-45416624D01*
X101687266Y-45428562D01*
X101680865Y-45447259D01*
X101675968Y-45458576D01*
X101675966Y-45458581D01*
X101672819Y-45465855D01*
X101671579Y-45473680D01*
X101671577Y-45473689D01*
X101665901Y-45509524D01*
X101663495Y-45521144D01*
X101654471Y-45556289D01*
X101654469Y-45556297D01*
X101652500Y-45563970D01*
X101652500Y-45571899D01*
X101652500Y-45584224D01*
X101650949Y-45603935D01*
X101649019Y-45616114D01*
X101649018Y-45616121D01*
X101647780Y-45623943D01*
X89348500Y-45623943D01*
X89348500Y-45559595D01*
X89358091Y-45511378D01*
X89385403Y-45470501D01*
X89404464Y-45451440D01*
X89426750Y-45429152D01*
X89483235Y-45396540D01*
X89548457Y-45396540D01*
X89611913Y-45413543D01*
X89840000Y-45433498D01*
X90068087Y-45413543D01*
X90289243Y-45354284D01*
X90496749Y-45257523D01*
X90684300Y-45126198D01*
X90846198Y-44964300D01*
X90977523Y-44776749D01*
X91074284Y-44569243D01*
X91133543Y-44348087D01*
X91153498Y-44120000D01*
X98686502Y-44120000D01*
X98706457Y-44348087D01*
X98765716Y-44569243D01*
X98768038Y-44574223D01*
X98768039Y-44574225D01*
X98860151Y-44771761D01*
X98862477Y-44776749D01*
X98865630Y-44781252D01*
X98865633Y-44781257D01*
X98939221Y-44886351D01*
X98993802Y-44964300D01*
X99155700Y-45126198D01*
X99239998Y-45185224D01*
X99307991Y-45232834D01*
X99343251Y-45257523D01*
X99550757Y-45354284D01*
X99771913Y-45413543D01*
X100000000Y-45433498D01*
X100228087Y-45413543D01*
X100449243Y-45354284D01*
X100656749Y-45257523D01*
X100844300Y-45126198D01*
X101006198Y-44964300D01*
X101137523Y-44776749D01*
X101234284Y-44569243D01*
X101293543Y-44348087D01*
X101313498Y-44120000D01*
X101293543Y-43891913D01*
X101234284Y-43670757D01*
X101137523Y-43463251D01*
X101006198Y-43275700D01*
X100844300Y-43113802D01*
X100770496Y-43062123D01*
X100661257Y-42985633D01*
X100661252Y-42985630D01*
X100656749Y-42982477D01*
X100605943Y-42958786D01*
X100454225Y-42888039D01*
X100454223Y-42888038D01*
X100449243Y-42885716D01*
X100228087Y-42826457D01*
X100222611Y-42825977D01*
X100222606Y-42825977D01*
X100005475Y-42806981D01*
X100000000Y-42806502D01*
X99994525Y-42806981D01*
X99777393Y-42825977D01*
X99777386Y-42825978D01*
X99771913Y-42826457D01*
X99766599Y-42827880D01*
X99766598Y-42827881D01*
X99556067Y-42884293D01*
X99556065Y-42884293D01*
X99550757Y-42885716D01*
X99545779Y-42888036D01*
X99545774Y-42888039D01*
X99348238Y-42980151D01*
X99348233Y-42980153D01*
X99343251Y-42982477D01*
X99338752Y-42985627D01*
X99338742Y-42985633D01*
X99160211Y-43110643D01*
X99160208Y-43110645D01*
X99155700Y-43113802D01*
X99151808Y-43117693D01*
X99151802Y-43117699D01*
X98997699Y-43271802D01*
X98997693Y-43271808D01*
X98993802Y-43275700D01*
X98990645Y-43280208D01*
X98990643Y-43280211D01*
X98865633Y-43458742D01*
X98865627Y-43458752D01*
X98862477Y-43463251D01*
X98860153Y-43468233D01*
X98860151Y-43468238D01*
X98768039Y-43665774D01*
X98768036Y-43665779D01*
X98765716Y-43670757D01*
X98764293Y-43676065D01*
X98764293Y-43676067D01*
X98707882Y-43886594D01*
X98706457Y-43891913D01*
X98705978Y-43897386D01*
X98705977Y-43897393D01*
X98686988Y-44114443D01*
X98686502Y-44120000D01*
X91153498Y-44120000D01*
X91133543Y-43891913D01*
X91074284Y-43670757D01*
X90977523Y-43463251D01*
X90846198Y-43275700D01*
X90684300Y-43113802D01*
X90607822Y-43060251D01*
X90527229Y-43003819D01*
X90487737Y-42958786D01*
X90473500Y-42900606D01*
X90473500Y-40624594D01*
X90483091Y-40576376D01*
X90510405Y-40535499D01*
X91898221Y-39147683D01*
X93393411Y-37652491D01*
X93445667Y-37621093D01*
X93506548Y-37617902D01*
X93561800Y-37643667D01*
X93598490Y-37692355D01*
X93608027Y-37752569D01*
X93606502Y-37770000D01*
X93606981Y-37775475D01*
X93617888Y-37900151D01*
X93626457Y-37998087D01*
X93685716Y-38219243D01*
X93688038Y-38224223D01*
X93688039Y-38224225D01*
X93690543Y-38229594D01*
X93782477Y-38426749D01*
X93785630Y-38431252D01*
X93785633Y-38431257D01*
X93853987Y-38528875D01*
X93913802Y-38614300D01*
X94075700Y-38776198D01*
X94263251Y-38907523D01*
X94470757Y-39004284D01*
X94691913Y-39063543D01*
X94920000Y-39083498D01*
X95148087Y-39063543D01*
X95369243Y-39004284D01*
X95576749Y-38907523D01*
X95764300Y-38776198D01*
X95926198Y-38614300D01*
X96057523Y-38426749D01*
X96154284Y-38219243D01*
X96213543Y-37998087D01*
X96233498Y-37770000D01*
X97416502Y-37770000D01*
X97416981Y-37775475D01*
X97427888Y-37900151D01*
X97436457Y-37998087D01*
X97495716Y-38219243D01*
X97498038Y-38224223D01*
X97498039Y-38224225D01*
X97500543Y-38229594D01*
X97592477Y-38426749D01*
X97595630Y-38431252D01*
X97595633Y-38431257D01*
X97663987Y-38528875D01*
X97723802Y-38614300D01*
X97885700Y-38776198D01*
X98073251Y-38907523D01*
X98280757Y-39004284D01*
X98501913Y-39063543D01*
X98730000Y-39083498D01*
X98958087Y-39063543D01*
X99179243Y-39004284D01*
X99386749Y-38907523D01*
X99574300Y-38776198D01*
X99736198Y-38614300D01*
X99867523Y-38426749D01*
X99964284Y-38219243D01*
X100023543Y-37998087D01*
X100043498Y-37770000D01*
X100023543Y-37541913D01*
X99964284Y-37320757D01*
X99867523Y-37113251D01*
X99736198Y-36925700D01*
X99574300Y-36763802D01*
X99500496Y-36712123D01*
X99391257Y-36635633D01*
X99391252Y-36635630D01*
X99386749Y-36632477D01*
X99179243Y-36535716D01*
X98958087Y-36476457D01*
X98952611Y-36475977D01*
X98952606Y-36475977D01*
X98735475Y-36456981D01*
X98730000Y-36456502D01*
X98724525Y-36456981D01*
X98507393Y-36475977D01*
X98507386Y-36475978D01*
X98501913Y-36476457D01*
X98496599Y-36477880D01*
X98496598Y-36477881D01*
X98286067Y-36534293D01*
X98286065Y-36534293D01*
X98280757Y-36535716D01*
X98275779Y-36538036D01*
X98275774Y-36538039D01*
X98078238Y-36630151D01*
X98078233Y-36630153D01*
X98073251Y-36632477D01*
X98068752Y-36635627D01*
X98068742Y-36635633D01*
X97890211Y-36760643D01*
X97890208Y-36760645D01*
X97885700Y-36763802D01*
X97881808Y-36767693D01*
X97881802Y-36767699D01*
X97727699Y-36921802D01*
X97727693Y-36921808D01*
X97723802Y-36925700D01*
X97720645Y-36930208D01*
X97720643Y-36930211D01*
X97595633Y-37108742D01*
X97595627Y-37108752D01*
X97592477Y-37113251D01*
X97590153Y-37118233D01*
X97590151Y-37118238D01*
X97498039Y-37315774D01*
X97498036Y-37315779D01*
X97495716Y-37320757D01*
X97494293Y-37326065D01*
X97494293Y-37326067D01*
X97437881Y-37536598D01*
X97436457Y-37541913D01*
X97435978Y-37547386D01*
X97435977Y-37547393D01*
X97420266Y-37726981D01*
X97416502Y-37770000D01*
X96233498Y-37770000D01*
X96213543Y-37541913D01*
X96154284Y-37320757D01*
X96057523Y-37113251D01*
X95926198Y-36925700D01*
X95764300Y-36763802D01*
X95690496Y-36712123D01*
X95581257Y-36635633D01*
X95581252Y-36635630D01*
X95576749Y-36632477D01*
X95369243Y-36535716D01*
X95148087Y-36476457D01*
X95142611Y-36475977D01*
X95142606Y-36475977D01*
X94925475Y-36456981D01*
X94920000Y-36456502D01*
X94914525Y-36456981D01*
X94914524Y-36456981D01*
X94902567Y-36458027D01*
X94842353Y-36448489D01*
X94793665Y-36411800D01*
X94767901Y-36356548D01*
X94771092Y-36295667D01*
X94802489Y-36243413D01*
X98316753Y-32729149D01*
X98373236Y-32696539D01*
X98438457Y-32696539D01*
X98475214Y-32706389D01*
X98496594Y-32712118D01*
X98496596Y-32712118D01*
X98501913Y-32713543D01*
X98730000Y-32733498D01*
X98958087Y-32713543D01*
X99179243Y-32654284D01*
X99386749Y-32557523D01*
X99574300Y-32426198D01*
X99736198Y-32264300D01*
X99867523Y-32076749D01*
X99964284Y-31869243D01*
X100023543Y-31648087D01*
X100043498Y-31420000D01*
X107576502Y-31420000D01*
X107576981Y-31425475D01*
X107592540Y-31603325D01*
X107596457Y-31648087D01*
X107655716Y-31869243D01*
X107658038Y-31874223D01*
X107658039Y-31874225D01*
X107746445Y-32063814D01*
X107752477Y-32076749D01*
X107755630Y-32081252D01*
X107755633Y-32081257D01*
X107783391Y-32120899D01*
X107883802Y-32264300D01*
X108045700Y-32426198D01*
X108131273Y-32486117D01*
X108222065Y-32549691D01*
X108233251Y-32557523D01*
X108440757Y-32654284D01*
X108661913Y-32713543D01*
X108890000Y-32733498D01*
X109118087Y-32713543D01*
X109339243Y-32654284D01*
X109546749Y-32557523D01*
X109734300Y-32426198D01*
X109896198Y-32264300D01*
X110027523Y-32076749D01*
X110124284Y-31869243D01*
X110183543Y-31648087D01*
X110203498Y-31420000D01*
X110183543Y-31191913D01*
X110124284Y-30970757D01*
X110027523Y-30763251D01*
X109896198Y-30575700D01*
X109734300Y-30413802D01*
X109627195Y-30338806D01*
X109551257Y-30285633D01*
X109551252Y-30285630D01*
X109546749Y-30282477D01*
X109541761Y-30280151D01*
X109344225Y-30188039D01*
X109344223Y-30188038D01*
X109339243Y-30185716D01*
X109118087Y-30126457D01*
X109112611Y-30125977D01*
X109112606Y-30125977D01*
X108895475Y-30106981D01*
X108890000Y-30106502D01*
X108884525Y-30106981D01*
X108667393Y-30125977D01*
X108667386Y-30125978D01*
X108661913Y-30126457D01*
X108656599Y-30127880D01*
X108656598Y-30127881D01*
X108446067Y-30184293D01*
X108446065Y-30184293D01*
X108440757Y-30185716D01*
X108435779Y-30188036D01*
X108435774Y-30188039D01*
X108238238Y-30280151D01*
X108238233Y-30280153D01*
X108233251Y-30282477D01*
X108228752Y-30285627D01*
X108228742Y-30285633D01*
X108050211Y-30410643D01*
X108050208Y-30410645D01*
X108045700Y-30413802D01*
X108041808Y-30417693D01*
X108041802Y-30417699D01*
X107887699Y-30571802D01*
X107887693Y-30571808D01*
X107883802Y-30575700D01*
X107880645Y-30580208D01*
X107880643Y-30580211D01*
X107755633Y-30758742D01*
X107755627Y-30758752D01*
X107752477Y-30763251D01*
X107750153Y-30768233D01*
X107750151Y-30768238D01*
X107658039Y-30965774D01*
X107658036Y-30965779D01*
X107655716Y-30970757D01*
X107654293Y-30976065D01*
X107654293Y-30976067D01*
X107607846Y-31149410D01*
X107596457Y-31191913D01*
X107595978Y-31197386D01*
X107595977Y-31197393D01*
X107576988Y-31414443D01*
X107576502Y-31420000D01*
X100043498Y-31420000D01*
X100023543Y-31191913D01*
X99964284Y-30970757D01*
X99867523Y-30763251D01*
X99736198Y-30575700D01*
X99574300Y-30413802D01*
X99467195Y-30338806D01*
X99391257Y-30285633D01*
X99391252Y-30285630D01*
X99386749Y-30282477D01*
X99381761Y-30280151D01*
X99184225Y-30188039D01*
X99184223Y-30188038D01*
X99179243Y-30185716D01*
X98958087Y-30126457D01*
X98952611Y-30125977D01*
X98952606Y-30125977D01*
X98735475Y-30106981D01*
X98730000Y-30106502D01*
X98724525Y-30106981D01*
X98507393Y-30125977D01*
X98507386Y-30125978D01*
X98501913Y-30126457D01*
X98496607Y-30127878D01*
X98496594Y-30127881D01*
X98438457Y-30143459D01*
X98373235Y-30143458D01*
X98316752Y-30110847D01*
X98275405Y-30069500D01*
X98248091Y-30028623D01*
X98238500Y-29980405D01*
X98238500Y-26457168D01*
X98251494Y-26401440D01*
X98287796Y-26357205D01*
X98339919Y-26333589D01*
X98397110Y-26335460D01*
X98501913Y-26363543D01*
X98730000Y-26383498D01*
X98958087Y-26363543D01*
X99179243Y-26304284D01*
X99386749Y-26207523D01*
X99574300Y-26076198D01*
X99736198Y-25914300D01*
X99867523Y-25726749D01*
X99964284Y-25519243D01*
X100023543Y-25298087D01*
X100043498Y-25070000D01*
X107576502Y-25070000D01*
X107576981Y-25075475D01*
X107595977Y-25292606D01*
X107595977Y-25292611D01*
X107596457Y-25298087D01*
X107655716Y-25519243D01*
X107752477Y-25726749D01*
X107755630Y-25731252D01*
X107755633Y-25731257D01*
X107832123Y-25840496D01*
X107883802Y-25914300D01*
X108045700Y-26076198D01*
X108233251Y-26207523D01*
X108440757Y-26304284D01*
X108661913Y-26363543D01*
X108890000Y-26383498D01*
X109118087Y-26363543D01*
X109339243Y-26304284D01*
X109546749Y-26207523D01*
X109734300Y-26076198D01*
X109896198Y-25914300D01*
X110027523Y-25726749D01*
X110124284Y-25519243D01*
X110183543Y-25298087D01*
X110203498Y-25070000D01*
X110183543Y-24841913D01*
X110124284Y-24620757D01*
X110027523Y-24413251D01*
X109896198Y-24225700D01*
X109734300Y-24063802D01*
X109582230Y-23957321D01*
X109551257Y-23935633D01*
X109551252Y-23935630D01*
X109546749Y-23932477D01*
X109541761Y-23930151D01*
X109344225Y-23838039D01*
X109344223Y-23838038D01*
X109339243Y-23835716D01*
X109118087Y-23776457D01*
X109112611Y-23775977D01*
X109112606Y-23775977D01*
X108895475Y-23756981D01*
X108890000Y-23756502D01*
X108884525Y-23756981D01*
X108667393Y-23775977D01*
X108667386Y-23775978D01*
X108661913Y-23776457D01*
X108656599Y-23777880D01*
X108656598Y-23777881D01*
X108446067Y-23834293D01*
X108446065Y-23834293D01*
X108440757Y-23835716D01*
X108435779Y-23838036D01*
X108435774Y-23838039D01*
X108238238Y-23930151D01*
X108238233Y-23930153D01*
X108233251Y-23932477D01*
X108228752Y-23935627D01*
X108228742Y-23935633D01*
X108050211Y-24060643D01*
X108050208Y-24060645D01*
X108045700Y-24063802D01*
X108041808Y-24067693D01*
X108041802Y-24067699D01*
X107887699Y-24221802D01*
X107887693Y-24221808D01*
X107883802Y-24225700D01*
X107880645Y-24230208D01*
X107880643Y-24230211D01*
X107755633Y-24408742D01*
X107755627Y-24408752D01*
X107752477Y-24413251D01*
X107750153Y-24418233D01*
X107750151Y-24418238D01*
X107658039Y-24615774D01*
X107658036Y-24615779D01*
X107655716Y-24620757D01*
X107596457Y-24841913D01*
X107595978Y-24847386D01*
X107595977Y-24847393D01*
X107576988Y-25064443D01*
X107576502Y-25070000D01*
X100043498Y-25070000D01*
X100023543Y-24841913D01*
X99964284Y-24620757D01*
X99867523Y-24413251D01*
X99736198Y-24225700D01*
X99574300Y-24063802D01*
X99422230Y-23957321D01*
X99391257Y-23935633D01*
X99391252Y-23935630D01*
X99386749Y-23932477D01*
X99381761Y-23930151D01*
X99184225Y-23838039D01*
X99184223Y-23838038D01*
X99179243Y-23835716D01*
X98958087Y-23776457D01*
X98952611Y-23775977D01*
X98952606Y-23775977D01*
X98735475Y-23756981D01*
X98730000Y-23756502D01*
X98724525Y-23756981D01*
X98507393Y-23775977D01*
X98507386Y-23775978D01*
X98501913Y-23776457D01*
X98496604Y-23777879D01*
X98496601Y-23777880D01*
X98452829Y-23789608D01*
X98397110Y-23804539D01*
X98339919Y-23806411D01*
X98287796Y-23782795D01*
X98251494Y-23738560D01*
X98238500Y-23682832D01*
X98238500Y-20159595D01*
X98248091Y-20111378D01*
X98275403Y-20070501D01*
X98292674Y-20053229D01*
X98316750Y-20029152D01*
X98373235Y-19996540D01*
X98438457Y-19996540D01*
X98501913Y-20013543D01*
X98730000Y-20033498D01*
X98958087Y-20013543D01*
X99179243Y-19954284D01*
X99386749Y-19857523D01*
X99574300Y-19726198D01*
X99736198Y-19564300D01*
X99867523Y-19376749D01*
X99964284Y-19169243D01*
X100023543Y-18948087D01*
X100043498Y-18720000D01*
X107576502Y-18720000D01*
X107596457Y-18948087D01*
X107655716Y-19169243D01*
X107658038Y-19174223D01*
X107658039Y-19174225D01*
X107750151Y-19371761D01*
X107752477Y-19376749D01*
X107755630Y-19381252D01*
X107755633Y-19381257D01*
X107829221Y-19486351D01*
X107883802Y-19564300D01*
X108045700Y-19726198D01*
X108129998Y-19785224D01*
X108197991Y-19832834D01*
X108233251Y-19857523D01*
X108440757Y-19954284D01*
X108661913Y-20013543D01*
X108890000Y-20033498D01*
X109118087Y-20013543D01*
X109339243Y-19954284D01*
X109546749Y-19857523D01*
X109734300Y-19726198D01*
X109896198Y-19564300D01*
X110027523Y-19376749D01*
X110124284Y-19169243D01*
X110183543Y-18948087D01*
X110203498Y-18720000D01*
X110183543Y-18491913D01*
X110124284Y-18270757D01*
X110027523Y-18063251D01*
X109896198Y-17875700D01*
X109734300Y-17713802D01*
X109660496Y-17662123D01*
X109551257Y-17585633D01*
X109551252Y-17585630D01*
X109546749Y-17582477D01*
X109339243Y-17485716D01*
X109118087Y-17426457D01*
X109112611Y-17425977D01*
X109112606Y-17425977D01*
X108895475Y-17406981D01*
X108890000Y-17406502D01*
X108884525Y-17406981D01*
X108667393Y-17425977D01*
X108667386Y-17425978D01*
X108661913Y-17426457D01*
X108656599Y-17427880D01*
X108656598Y-17427881D01*
X108446067Y-17484293D01*
X108446065Y-17484293D01*
X108440757Y-17485716D01*
X108435779Y-17488036D01*
X108435774Y-17488039D01*
X108238238Y-17580151D01*
X108238233Y-17580153D01*
X108233251Y-17582477D01*
X108228752Y-17585627D01*
X108228742Y-17585633D01*
X108050211Y-17710643D01*
X108050208Y-17710645D01*
X108045700Y-17713802D01*
X108041808Y-17717693D01*
X108041802Y-17717699D01*
X107887699Y-17871802D01*
X107887693Y-17871808D01*
X107883802Y-17875700D01*
X107880645Y-17880208D01*
X107880643Y-17880211D01*
X107755633Y-18058742D01*
X107755627Y-18058752D01*
X107752477Y-18063251D01*
X107750153Y-18068233D01*
X107750151Y-18068238D01*
X107658039Y-18265774D01*
X107658036Y-18265779D01*
X107655716Y-18270757D01*
X107596457Y-18491913D01*
X107595978Y-18497386D01*
X107595977Y-18497393D01*
X107576988Y-18714443D01*
X107576502Y-18720000D01*
X100043498Y-18720000D01*
X100023543Y-18491913D01*
X99964284Y-18270757D01*
X99867523Y-18063251D01*
X99736198Y-17875700D01*
X99574300Y-17713802D01*
X99500496Y-17662123D01*
X99391257Y-17585633D01*
X99391252Y-17585630D01*
X99386749Y-17582477D01*
X99179243Y-17485716D01*
X98958087Y-17426457D01*
X98952611Y-17425977D01*
X98952606Y-17425977D01*
X98735475Y-17406981D01*
X98730000Y-17406502D01*
X98724525Y-17406981D01*
X98507393Y-17425977D01*
X98507386Y-17425978D01*
X98501913Y-17426457D01*
X98496599Y-17427880D01*
X98496598Y-17427881D01*
X98286067Y-17484293D01*
X98286065Y-17484293D01*
X98280757Y-17485716D01*
X98275779Y-17488036D01*
X98275774Y-17488039D01*
X98078238Y-17580151D01*
X98078233Y-17580153D01*
X98073251Y-17582477D01*
X98068752Y-17585627D01*
X98068742Y-17585633D01*
X97890211Y-17710643D01*
X97890208Y-17710645D01*
X97885700Y-17713802D01*
X97881808Y-17717693D01*
X97881802Y-17717699D01*
X97727699Y-17871802D01*
X97727693Y-17871808D01*
X97723802Y-17875700D01*
X97720645Y-17880208D01*
X97720643Y-17880211D01*
X97595633Y-18058742D01*
X97595627Y-18058752D01*
X97592477Y-18063251D01*
X97590153Y-18068233D01*
X97590151Y-18068238D01*
X97498039Y-18265774D01*
X97498036Y-18265779D01*
X97495716Y-18270757D01*
X97436457Y-18491913D01*
X97435978Y-18497386D01*
X97435977Y-18497393D01*
X97416988Y-18714443D01*
X97416502Y-18720000D01*
X97436457Y-18948087D01*
X97437881Y-18953401D01*
X97453459Y-19011540D01*
X97453459Y-19076762D01*
X97420847Y-19133246D01*
X97212742Y-19341351D01*
X97204459Y-19348888D01*
X97197982Y-19353000D01*
X97192563Y-19358769D01*
X97192555Y-19358777D01*
X97151370Y-19402635D01*
X97148621Y-19405472D01*
X97131667Y-19422427D01*
X97131660Y-19422434D01*
X97128865Y-19425230D01*
X97126442Y-19428352D01*
X97126426Y-19428371D01*
X97126365Y-19428451D01*
X97118690Y-19437435D01*
X97093838Y-19463902D01*
X97093835Y-19463904D01*
X97088414Y-19469679D01*
X97084600Y-19476614D01*
X97084592Y-19476627D01*
X97078650Y-19487436D01*
X97067803Y-19503949D01*
X97060243Y-19513695D01*
X97060237Y-19513704D01*
X97055386Y-19519959D01*
X97052242Y-19527223D01*
X97052238Y-19527231D01*
X97037824Y-19560540D01*
X97032604Y-19571195D01*
X97015125Y-19602989D01*
X97015121Y-19602997D01*
X97011305Y-19609940D01*
X97009333Y-19617616D01*
X97009331Y-19617624D01*
X97006266Y-19629562D01*
X96999865Y-19648259D01*
X96994968Y-19659576D01*
X96994966Y-19659581D01*
X96991819Y-19666855D01*
X96990579Y-19674680D01*
X96990577Y-19674689D01*
X96984901Y-19710524D01*
X96982495Y-19722144D01*
X96973471Y-19757289D01*
X96973469Y-19757297D01*
X96971500Y-19764970D01*
X96971500Y-19772899D01*
X96971500Y-19785224D01*
X96969949Y-19804935D01*
X96968019Y-19817114D01*
X96968018Y-19817121D01*
X96966780Y-19824943D01*
X96967525Y-19832826D01*
X96967525Y-19832834D01*
X96970941Y-19868961D01*
X96971500Y-19880819D01*
X96971500Y-30216233D01*
X96970972Y-30227416D01*
X96969298Y-30234909D01*
X96969547Y-30242833D01*
X96969547Y-30242835D01*
X96971438Y-30302986D01*
X96971500Y-30306945D01*
X96971500Y-30334856D01*
X96971995Y-30338774D01*
X96971997Y-30338806D01*
X96972008Y-30338888D01*
X96972937Y-30350697D01*
X96974077Y-30386969D01*
X96974078Y-30386976D01*
X96974327Y-30394889D01*
X96976537Y-30402498D01*
X96976538Y-30402500D01*
X96979978Y-30414342D01*
X96983986Y-30433693D01*
X96986526Y-30453797D01*
X96989444Y-30461169D01*
X96989445Y-30461170D01*
X97002800Y-30494901D01*
X97006645Y-30506130D01*
X97016771Y-30540986D01*
X97016773Y-30540992D01*
X97018982Y-30548593D01*
X97023014Y-30555411D01*
X97023015Y-30555413D01*
X97029293Y-30566029D01*
X97037990Y-30583782D01*
X97041307Y-30592160D01*
X97045448Y-30602617D01*
X97050107Y-30609030D01*
X97050108Y-30609031D01*
X97071432Y-30638381D01*
X97077948Y-30648301D01*
X97096422Y-30679538D01*
X97100458Y-30686362D01*
X97106062Y-30691966D01*
X97106063Y-30691967D01*
X97114778Y-30700682D01*
X97127618Y-30715715D01*
X97130078Y-30719101D01*
X97139528Y-30732107D01*
X97145635Y-30737159D01*
X97145636Y-30737160D01*
X97173598Y-30760292D01*
X97182378Y-30768282D01*
X97420847Y-31006751D01*
X97453458Y-31063234D01*
X97453459Y-31128455D01*
X97437882Y-31186591D01*
X97437881Y-31186598D01*
X97436457Y-31191913D01*
X97435978Y-31197386D01*
X97435977Y-31197393D01*
X97416988Y-31414443D01*
X97416502Y-31420000D01*
X97416981Y-31425475D01*
X97432540Y-31603325D01*
X97436457Y-31648087D01*
X97437879Y-31653394D01*
X97437881Y-31653405D01*
X97453459Y-31711542D01*
X97453459Y-31776764D01*
X97420847Y-31833247D01*
X89447742Y-39806351D01*
X89439459Y-39813888D01*
X89432982Y-39818000D01*
X89427563Y-39823769D01*
X89427555Y-39823777D01*
X89386370Y-39867635D01*
X89383621Y-39870472D01*
X89366667Y-39887427D01*
X89366660Y-39887434D01*
X89363865Y-39890230D01*
X89361442Y-39893352D01*
X89361426Y-39893371D01*
X89361365Y-39893451D01*
X89353690Y-39902435D01*
X89328838Y-39928902D01*
X89328835Y-39928904D01*
X89323414Y-39934679D01*
X89319600Y-39941614D01*
X89319592Y-39941627D01*
X89313650Y-39952436D01*
X89302803Y-39968949D01*
X89295243Y-39978695D01*
X89295237Y-39978704D01*
X89290386Y-39984959D01*
X89287242Y-39992223D01*
X89287238Y-39992231D01*
X89272824Y-40025540D01*
X89267604Y-40036195D01*
X89250125Y-40067989D01*
X89250121Y-40067997D01*
X89246305Y-40074940D01*
X89244333Y-40082616D01*
X89244331Y-40082624D01*
X89241266Y-40094562D01*
X89234865Y-40113259D01*
X89229968Y-40124576D01*
X89229966Y-40124581D01*
X89226819Y-40131855D01*
X89225579Y-40139680D01*
X89225577Y-40139689D01*
X89219901Y-40175524D01*
X89217495Y-40187144D01*
X89208471Y-40222289D01*
X89208469Y-40222297D01*
X89206500Y-40229970D01*
X89206500Y-40237899D01*
X89206500Y-40250224D01*
X89204949Y-40269935D01*
X89203019Y-40282114D01*
X89203018Y-40282121D01*
X89201780Y-40289943D01*
X89202525Y-40297826D01*
X89202525Y-40297834D01*
X89205941Y-40333961D01*
X89206500Y-40345819D01*
X89206500Y-42900606D01*
X89192263Y-42958786D01*
X89152771Y-43003819D01*
X89000211Y-43110643D01*
X89000208Y-43110645D01*
X88995700Y-43113802D01*
X88991808Y-43117693D01*
X88991802Y-43117699D01*
X88837699Y-43271802D01*
X88837693Y-43271808D01*
X88833802Y-43275700D01*
X88830645Y-43280208D01*
X88830643Y-43280211D01*
X88705633Y-43458742D01*
X88705627Y-43458752D01*
X88702477Y-43463251D01*
X88700153Y-43468233D01*
X88700151Y-43468238D01*
X88608039Y-43665774D01*
X88608036Y-43665779D01*
X88605716Y-43670757D01*
X88604293Y-43676065D01*
X88604293Y-43676067D01*
X88547882Y-43886594D01*
X88546457Y-43891913D01*
X88545978Y-43897386D01*
X88545977Y-43897393D01*
X88526988Y-44114443D01*
X88526502Y-44120000D01*
X88546457Y-44348087D01*
X88547881Y-44353401D01*
X88563459Y-44411540D01*
X88563459Y-44476762D01*
X88530847Y-44533246D01*
X88322742Y-44741351D01*
X88314459Y-44748888D01*
X88307982Y-44753000D01*
X88302563Y-44758769D01*
X88302555Y-44758777D01*
X88261370Y-44802635D01*
X88258621Y-44805472D01*
X88241667Y-44822427D01*
X88241660Y-44822434D01*
X88238865Y-44825230D01*
X88236442Y-44828352D01*
X88236426Y-44828371D01*
X88236365Y-44828451D01*
X88228690Y-44837435D01*
X88203838Y-44863902D01*
X88203835Y-44863904D01*
X88198414Y-44869679D01*
X88194600Y-44876614D01*
X88194592Y-44876627D01*
X88188650Y-44887436D01*
X88177803Y-44903949D01*
X88170243Y-44913695D01*
X88170237Y-44913704D01*
X88165386Y-44919959D01*
X88162242Y-44927223D01*
X88162238Y-44927231D01*
X88147824Y-44960540D01*
X88142604Y-44971195D01*
X88125125Y-45002989D01*
X88125121Y-45002997D01*
X88121305Y-45009940D01*
X88119333Y-45017616D01*
X88119331Y-45017624D01*
X88116266Y-45029562D01*
X88109865Y-45048259D01*
X88104968Y-45059576D01*
X88104966Y-45059581D01*
X88101819Y-45066855D01*
X88100579Y-45074680D01*
X88100577Y-45074689D01*
X88094901Y-45110524D01*
X88092495Y-45122144D01*
X88083471Y-45157289D01*
X88083469Y-45157297D01*
X88081500Y-45164970D01*
X88081500Y-45172899D01*
X88081500Y-45185224D01*
X88079949Y-45204935D01*
X88078019Y-45217114D01*
X88078018Y-45217121D01*
X88076780Y-45224943D01*
X86733278Y-45224943D01*
X86874300Y-45126198D01*
X87036198Y-44964300D01*
X87167523Y-44776749D01*
X87264284Y-44569243D01*
X87323543Y-44348087D01*
X87343498Y-44120000D01*
X87323543Y-43891913D01*
X87264284Y-43670757D01*
X87167523Y-43463251D01*
X87036198Y-43275700D01*
X86874300Y-43113802D01*
X86800496Y-43062123D01*
X86691257Y-42985633D01*
X86691252Y-42985630D01*
X86686749Y-42982477D01*
X86635943Y-42958786D01*
X86484225Y-42888039D01*
X86484223Y-42888038D01*
X86479243Y-42885716D01*
X86258087Y-42826457D01*
X86252611Y-42825977D01*
X86252606Y-42825977D01*
X86035475Y-42806981D01*
X86030000Y-42806502D01*
X86024525Y-42806981D01*
X85807393Y-42825977D01*
X85807386Y-42825978D01*
X85801913Y-42826457D01*
X85796599Y-42827880D01*
X85796598Y-42827881D01*
X85586067Y-42884293D01*
X85586065Y-42884293D01*
X85580757Y-42885716D01*
X85575779Y-42888036D01*
X85575774Y-42888039D01*
X85378238Y-42980151D01*
X85378233Y-42980153D01*
X85373251Y-42982477D01*
X85368752Y-42985627D01*
X85368742Y-42985633D01*
X85190211Y-43110643D01*
X85190208Y-43110645D01*
X85185700Y-43113802D01*
X85181808Y-43117693D01*
X85181802Y-43117699D01*
X85027699Y-43271802D01*
X85027693Y-43271808D01*
X85023802Y-43275700D01*
X85020645Y-43280208D01*
X85020643Y-43280211D01*
X84895633Y-43458742D01*
X84895627Y-43458752D01*
X84892477Y-43463251D01*
X84890153Y-43468233D01*
X84890151Y-43468238D01*
X84798039Y-43665774D01*
X84798036Y-43665779D01*
X84795716Y-43670757D01*
X84794293Y-43676065D01*
X84794293Y-43676067D01*
X84737882Y-43886594D01*
X84736457Y-43891913D01*
X84735978Y-43897386D01*
X84735977Y-43897393D01*
X84716988Y-44114443D01*
X84716502Y-44120000D01*
X77183498Y-44120000D01*
X77163543Y-43891913D01*
X77104284Y-43670757D01*
X77007523Y-43463251D01*
X76876198Y-43275700D01*
X76714300Y-43113802D01*
X76637822Y-43060251D01*
X76557229Y-43003819D01*
X76517737Y-42958786D01*
X76503500Y-42900606D01*
X76503500Y-40624594D01*
X76513091Y-40576376D01*
X76540405Y-40535499D01*
X77928221Y-39147683D01*
X79423411Y-37652491D01*
X79475667Y-37621093D01*
X79536548Y-37617902D01*
X79591800Y-37643667D01*
X79628490Y-37692355D01*
X79638027Y-37752569D01*
X79636502Y-37770000D01*
X79636981Y-37775475D01*
X79647888Y-37900151D01*
X79656457Y-37998087D01*
X79715716Y-38219243D01*
X79718038Y-38224223D01*
X79718039Y-38224225D01*
X79720543Y-38229594D01*
X79812477Y-38426749D01*
X79815630Y-38431252D01*
X79815633Y-38431257D01*
X79883987Y-38528875D01*
X79943802Y-38614300D01*
X80105700Y-38776198D01*
X80293251Y-38907523D01*
X80500757Y-39004284D01*
X80721913Y-39063543D01*
X80950000Y-39083498D01*
X81178087Y-39063543D01*
X81399243Y-39004284D01*
X81606749Y-38907523D01*
X81794300Y-38776198D01*
X81956198Y-38614300D01*
X82087523Y-38426749D01*
X82184284Y-38219243D01*
X82243543Y-37998087D01*
X82263498Y-37770000D01*
X83446502Y-37770000D01*
X83446981Y-37775475D01*
X83457888Y-37900151D01*
X83466457Y-37998087D01*
X83525716Y-38219243D01*
X83528038Y-38224223D01*
X83528039Y-38224225D01*
X83530543Y-38229594D01*
X83622477Y-38426749D01*
X83625630Y-38431252D01*
X83625633Y-38431257D01*
X83693987Y-38528875D01*
X83753802Y-38614300D01*
X83915700Y-38776198D01*
X84103251Y-38907523D01*
X84310757Y-39004284D01*
X84531913Y-39063543D01*
X84760000Y-39083498D01*
X84988087Y-39063543D01*
X85209243Y-39004284D01*
X85416749Y-38907523D01*
X85604300Y-38776198D01*
X85766198Y-38614300D01*
X85897523Y-38426749D01*
X85994284Y-38219243D01*
X86053543Y-37998087D01*
X86073498Y-37770000D01*
X86053543Y-37541913D01*
X85994284Y-37320757D01*
X85897523Y-37113251D01*
X85766198Y-36925700D01*
X85604300Y-36763802D01*
X85530496Y-36712123D01*
X85421257Y-36635633D01*
X85421252Y-36635630D01*
X85416749Y-36632477D01*
X85209243Y-36535716D01*
X84988087Y-36476457D01*
X84982611Y-36475977D01*
X84982606Y-36475977D01*
X84765475Y-36456981D01*
X84760000Y-36456502D01*
X84754525Y-36456981D01*
X84537393Y-36475977D01*
X84537386Y-36475978D01*
X84531913Y-36476457D01*
X84526599Y-36477880D01*
X84526598Y-36477881D01*
X84316067Y-36534293D01*
X84316065Y-36534293D01*
X84310757Y-36535716D01*
X84305779Y-36538036D01*
X84305774Y-36538039D01*
X84108238Y-36630151D01*
X84108233Y-36630153D01*
X84103251Y-36632477D01*
X84098752Y-36635627D01*
X84098742Y-36635633D01*
X83920211Y-36760643D01*
X83920208Y-36760645D01*
X83915700Y-36763802D01*
X83911808Y-36767693D01*
X83911802Y-36767699D01*
X83757699Y-36921802D01*
X83757693Y-36921808D01*
X83753802Y-36925700D01*
X83750645Y-36930208D01*
X83750643Y-36930211D01*
X83625633Y-37108742D01*
X83625627Y-37108752D01*
X83622477Y-37113251D01*
X83620153Y-37118233D01*
X83620151Y-37118238D01*
X83528039Y-37315774D01*
X83528036Y-37315779D01*
X83525716Y-37320757D01*
X83524293Y-37326065D01*
X83524293Y-37326067D01*
X83467881Y-37536598D01*
X83466457Y-37541913D01*
X83465978Y-37547386D01*
X83465977Y-37547393D01*
X83450266Y-37726981D01*
X83446502Y-37770000D01*
X82263498Y-37770000D01*
X82243543Y-37541913D01*
X82184284Y-37320757D01*
X82087523Y-37113251D01*
X81956198Y-36925700D01*
X81794300Y-36763802D01*
X81720496Y-36712123D01*
X81611257Y-36635633D01*
X81611252Y-36635630D01*
X81606749Y-36632477D01*
X81399243Y-36535716D01*
X81178087Y-36476457D01*
X81172611Y-36475977D01*
X81172606Y-36475977D01*
X80955475Y-36456981D01*
X80950000Y-36456502D01*
X80944525Y-36456981D01*
X80944524Y-36456981D01*
X80932567Y-36458027D01*
X80872353Y-36448489D01*
X80823665Y-36411800D01*
X80797901Y-36356548D01*
X80801092Y-36295667D01*
X80832489Y-36243413D01*
X84346753Y-32729149D01*
X84403236Y-32696539D01*
X84468457Y-32696539D01*
X84505214Y-32706389D01*
X84526594Y-32712118D01*
X84526596Y-32712118D01*
X84531913Y-32713543D01*
X84760000Y-32733498D01*
X84988087Y-32713543D01*
X85209243Y-32654284D01*
X85416749Y-32557523D01*
X85604300Y-32426198D01*
X85766198Y-32264300D01*
X85897523Y-32076749D01*
X85994284Y-31869243D01*
X86053543Y-31648087D01*
X86073498Y-31420000D01*
X93606502Y-31420000D01*
X93606981Y-31425475D01*
X93622540Y-31603325D01*
X93626457Y-31648087D01*
X93685716Y-31869243D01*
X93688038Y-31874223D01*
X93688039Y-31874225D01*
X93776445Y-32063814D01*
X93782477Y-32076749D01*
X93785630Y-32081252D01*
X93785633Y-32081257D01*
X93813391Y-32120899D01*
X93913802Y-32264300D01*
X94075700Y-32426198D01*
X94161273Y-32486117D01*
X94252065Y-32549691D01*
X94263251Y-32557523D01*
X94470757Y-32654284D01*
X94691913Y-32713543D01*
X94920000Y-32733498D01*
X95148087Y-32713543D01*
X95369243Y-32654284D01*
X95576749Y-32557523D01*
X95764300Y-32426198D01*
X95926198Y-32264300D01*
X96057523Y-32076749D01*
X96154284Y-31869243D01*
X96213543Y-31648087D01*
X96233498Y-31420000D01*
X96213543Y-31191913D01*
X96154284Y-30970757D01*
X96057523Y-30763251D01*
X95926198Y-30575700D01*
X95764300Y-30413802D01*
X95657195Y-30338806D01*
X95581257Y-30285633D01*
X95581252Y-30285630D01*
X95576749Y-30282477D01*
X95571761Y-30280151D01*
X95374225Y-30188039D01*
X95374223Y-30188038D01*
X95369243Y-30185716D01*
X95148087Y-30126457D01*
X95142611Y-30125977D01*
X95142606Y-30125977D01*
X94925475Y-30106981D01*
X94920000Y-30106502D01*
X94914525Y-30106981D01*
X94697393Y-30125977D01*
X94697386Y-30125978D01*
X94691913Y-30126457D01*
X94686599Y-30127880D01*
X94686598Y-30127881D01*
X94476067Y-30184293D01*
X94476065Y-30184293D01*
X94470757Y-30185716D01*
X94465779Y-30188036D01*
X94465774Y-30188039D01*
X94268238Y-30280151D01*
X94268233Y-30280153D01*
X94263251Y-30282477D01*
X94258752Y-30285627D01*
X94258742Y-30285633D01*
X94080211Y-30410643D01*
X94080208Y-30410645D01*
X94075700Y-30413802D01*
X94071808Y-30417693D01*
X94071802Y-30417699D01*
X93917699Y-30571802D01*
X93917693Y-30571808D01*
X93913802Y-30575700D01*
X93910645Y-30580208D01*
X93910643Y-30580211D01*
X93785633Y-30758742D01*
X93785627Y-30758752D01*
X93782477Y-30763251D01*
X93780153Y-30768233D01*
X93780151Y-30768238D01*
X93688039Y-30965774D01*
X93688036Y-30965779D01*
X93685716Y-30970757D01*
X93684293Y-30976065D01*
X93684293Y-30976067D01*
X93637846Y-31149410D01*
X93626457Y-31191913D01*
X93625978Y-31197386D01*
X93625977Y-31197393D01*
X93606988Y-31414443D01*
X93606502Y-31420000D01*
X86073498Y-31420000D01*
X86053543Y-31191913D01*
X85994284Y-30970757D01*
X85897523Y-30763251D01*
X85766198Y-30575700D01*
X85604300Y-30413802D01*
X85497195Y-30338806D01*
X85421257Y-30285633D01*
X85421252Y-30285630D01*
X85416749Y-30282477D01*
X85411761Y-30280151D01*
X85214225Y-30188039D01*
X85214223Y-30188038D01*
X85209243Y-30185716D01*
X84988087Y-30126457D01*
X84982611Y-30125977D01*
X84982606Y-30125977D01*
X84765475Y-30106981D01*
X84760000Y-30106502D01*
X84754525Y-30106981D01*
X84537393Y-30125977D01*
X84537386Y-30125978D01*
X84531913Y-30126457D01*
X84526607Y-30127878D01*
X84526594Y-30127881D01*
X84468457Y-30143459D01*
X84403235Y-30143458D01*
X84346752Y-30110847D01*
X84305405Y-30069500D01*
X84278091Y-30028623D01*
X84268500Y-29980405D01*
X84268500Y-26457168D01*
X84281494Y-26401440D01*
X84317796Y-26357205D01*
X84369919Y-26333589D01*
X84427110Y-26335460D01*
X84531913Y-26363543D01*
X84760000Y-26383498D01*
X84988087Y-26363543D01*
X85209243Y-26304284D01*
X85416749Y-26207523D01*
X85604300Y-26076198D01*
X85766198Y-25914300D01*
X85897523Y-25726749D01*
X85994284Y-25519243D01*
X86053543Y-25298087D01*
X86073498Y-25070000D01*
X93606502Y-25070000D01*
X93606981Y-25075475D01*
X93625977Y-25292606D01*
X93625977Y-25292611D01*
X93626457Y-25298087D01*
X93685716Y-25519243D01*
X93782477Y-25726749D01*
X93785630Y-25731252D01*
X93785633Y-25731257D01*
X93862123Y-25840496D01*
X93913802Y-25914300D01*
X94075700Y-26076198D01*
X94263251Y-26207523D01*
X94470757Y-26304284D01*
X94691913Y-26363543D01*
X94920000Y-26383498D01*
X95148087Y-26363543D01*
X95369243Y-26304284D01*
X95576749Y-26207523D01*
X95764300Y-26076198D01*
X95926198Y-25914300D01*
X96057523Y-25726749D01*
X96154284Y-25519243D01*
X96213543Y-25298087D01*
X96233498Y-25070000D01*
X96213543Y-24841913D01*
X96154284Y-24620757D01*
X96057523Y-24413251D01*
X95926198Y-24225700D01*
X95764300Y-24063802D01*
X95612230Y-23957321D01*
X95581257Y-23935633D01*
X95581252Y-23935630D01*
X95576749Y-23932477D01*
X95571761Y-23930151D01*
X95374225Y-23838039D01*
X95374223Y-23838038D01*
X95369243Y-23835716D01*
X95148087Y-23776457D01*
X95142611Y-23775977D01*
X95142606Y-23775977D01*
X94925475Y-23756981D01*
X94920000Y-23756502D01*
X94914525Y-23756981D01*
X94697393Y-23775977D01*
X94697386Y-23775978D01*
X94691913Y-23776457D01*
X94686599Y-23777880D01*
X94686598Y-23777881D01*
X94476067Y-23834293D01*
X94476065Y-23834293D01*
X94470757Y-23835716D01*
X94465779Y-23838036D01*
X94465774Y-23838039D01*
X94268238Y-23930151D01*
X94268233Y-23930153D01*
X94263251Y-23932477D01*
X94258752Y-23935627D01*
X94258742Y-23935633D01*
X94080211Y-24060643D01*
X94080208Y-24060645D01*
X94075700Y-24063802D01*
X94071808Y-24067693D01*
X94071802Y-24067699D01*
X93917699Y-24221802D01*
X93917693Y-24221808D01*
X93913802Y-24225700D01*
X93910645Y-24230208D01*
X93910643Y-24230211D01*
X93785633Y-24408742D01*
X93785627Y-24408752D01*
X93782477Y-24413251D01*
X93780153Y-24418233D01*
X93780151Y-24418238D01*
X93688039Y-24615774D01*
X93688036Y-24615779D01*
X93685716Y-24620757D01*
X93626457Y-24841913D01*
X93625978Y-24847386D01*
X93625977Y-24847393D01*
X93606988Y-25064443D01*
X93606502Y-25070000D01*
X86073498Y-25070000D01*
X86053543Y-24841913D01*
X85994284Y-24620757D01*
X85897523Y-24413251D01*
X85766198Y-24225700D01*
X85604300Y-24063802D01*
X85452230Y-23957321D01*
X85421257Y-23935633D01*
X85421252Y-23935630D01*
X85416749Y-23932477D01*
X85411761Y-23930151D01*
X85214225Y-23838039D01*
X85214223Y-23838038D01*
X85209243Y-23835716D01*
X84988087Y-23776457D01*
X84982611Y-23775977D01*
X84982606Y-23775977D01*
X84765475Y-23756981D01*
X84760000Y-23756502D01*
X84754525Y-23756981D01*
X84537393Y-23775977D01*
X84537386Y-23775978D01*
X84531913Y-23776457D01*
X84526604Y-23777879D01*
X84526601Y-23777880D01*
X84482829Y-23789608D01*
X84427110Y-23804539D01*
X84369919Y-23806411D01*
X84317796Y-23782795D01*
X84281494Y-23738560D01*
X84268500Y-23682832D01*
X84268500Y-20159595D01*
X84278091Y-20111378D01*
X84305403Y-20070501D01*
X84322674Y-20053229D01*
X84346750Y-20029152D01*
X84403235Y-19996540D01*
X84468457Y-19996540D01*
X84531913Y-20013543D01*
X84760000Y-20033498D01*
X84988087Y-20013543D01*
X85209243Y-19954284D01*
X85416749Y-19857523D01*
X85604300Y-19726198D01*
X85766198Y-19564300D01*
X85897523Y-19376749D01*
X85994284Y-19169243D01*
X86053543Y-18948087D01*
X86073498Y-18720000D01*
X93606502Y-18720000D01*
X93626457Y-18948087D01*
X93685716Y-19169243D01*
X93688038Y-19174223D01*
X93688039Y-19174225D01*
X93780151Y-19371761D01*
X93782477Y-19376749D01*
X93785630Y-19381252D01*
X93785633Y-19381257D01*
X93859221Y-19486351D01*
X93913802Y-19564300D01*
X94075700Y-19726198D01*
X94159998Y-19785224D01*
X94227991Y-19832834D01*
X94263251Y-19857523D01*
X94470757Y-19954284D01*
X94691913Y-20013543D01*
X94920000Y-20033498D01*
X95148087Y-20013543D01*
X95369243Y-19954284D01*
X95576749Y-19857523D01*
X95764300Y-19726198D01*
X95926198Y-19564300D01*
X96057523Y-19376749D01*
X96154284Y-19169243D01*
X96213543Y-18948087D01*
X96233498Y-18720000D01*
X96213543Y-18491913D01*
X96154284Y-18270757D01*
X96057523Y-18063251D01*
X95926198Y-17875700D01*
X95764300Y-17713802D01*
X95690496Y-17662123D01*
X95581257Y-17585633D01*
X95581252Y-17585630D01*
X95576749Y-17582477D01*
X95369243Y-17485716D01*
X95148087Y-17426457D01*
X95142611Y-17425977D01*
X95142606Y-17425977D01*
X94925475Y-17406981D01*
X94920000Y-17406502D01*
X94914525Y-17406981D01*
X94697393Y-17425977D01*
X94697386Y-17425978D01*
X94691913Y-17426457D01*
X94686599Y-17427880D01*
X94686598Y-17427881D01*
X94476067Y-17484293D01*
X94476065Y-17484293D01*
X94470757Y-17485716D01*
X94465779Y-17488036D01*
X94465774Y-17488039D01*
X94268238Y-17580151D01*
X94268233Y-17580153D01*
X94263251Y-17582477D01*
X94258752Y-17585627D01*
X94258742Y-17585633D01*
X94080211Y-17710643D01*
X94080208Y-17710645D01*
X94075700Y-17713802D01*
X94071808Y-17717693D01*
X94071802Y-17717699D01*
X93917699Y-17871802D01*
X93917693Y-17871808D01*
X93913802Y-17875700D01*
X93910645Y-17880208D01*
X93910643Y-17880211D01*
X93785633Y-18058742D01*
X93785627Y-18058752D01*
X93782477Y-18063251D01*
X93780153Y-18068233D01*
X93780151Y-18068238D01*
X93688039Y-18265774D01*
X93688036Y-18265779D01*
X93685716Y-18270757D01*
X93626457Y-18491913D01*
X93625978Y-18497386D01*
X93625977Y-18497393D01*
X93606988Y-18714443D01*
X93606502Y-18720000D01*
X86073498Y-18720000D01*
X86053543Y-18491913D01*
X85994284Y-18270757D01*
X85897523Y-18063251D01*
X85766198Y-17875700D01*
X85604300Y-17713802D01*
X85530496Y-17662123D01*
X85421257Y-17585633D01*
X85421252Y-17585630D01*
X85416749Y-17582477D01*
X85209243Y-17485716D01*
X84988087Y-17426457D01*
X84982611Y-17425977D01*
X84982606Y-17425977D01*
X84765475Y-17406981D01*
X84760000Y-17406502D01*
X84754525Y-17406981D01*
X84537393Y-17425977D01*
X84537386Y-17425978D01*
X84531913Y-17426457D01*
X84526599Y-17427880D01*
X84526598Y-17427881D01*
X84316067Y-17484293D01*
X84316065Y-17484293D01*
X84310757Y-17485716D01*
X84305779Y-17488036D01*
X84305774Y-17488039D01*
X84108238Y-17580151D01*
X84108233Y-17580153D01*
X84103251Y-17582477D01*
X84098752Y-17585627D01*
X84098742Y-17585633D01*
X83920211Y-17710643D01*
X83920208Y-17710645D01*
X83915700Y-17713802D01*
X83911808Y-17717693D01*
X83911802Y-17717699D01*
X83757699Y-17871802D01*
X83757693Y-17871808D01*
X83753802Y-17875700D01*
X83750645Y-17880208D01*
X83750643Y-17880211D01*
X83625633Y-18058742D01*
X83625627Y-18058752D01*
X83622477Y-18063251D01*
X83620153Y-18068233D01*
X83620151Y-18068238D01*
X83528039Y-18265774D01*
X83528036Y-18265779D01*
X83525716Y-18270757D01*
X83466457Y-18491913D01*
X83465978Y-18497386D01*
X83465977Y-18497393D01*
X83446988Y-18714443D01*
X83446502Y-18720000D01*
X83466457Y-18948087D01*
X83467881Y-18953401D01*
X83483459Y-19011540D01*
X83483459Y-19076762D01*
X83450847Y-19133246D01*
X83242742Y-19341351D01*
X83234459Y-19348888D01*
X83227982Y-19353000D01*
X83222563Y-19358769D01*
X83222555Y-19358777D01*
X83181370Y-19402635D01*
X83178621Y-19405472D01*
X83161667Y-19422427D01*
X83161660Y-19422434D01*
X83158865Y-19425230D01*
X83156442Y-19428352D01*
X83156426Y-19428371D01*
X83156365Y-19428451D01*
X83148690Y-19437435D01*
X83123838Y-19463902D01*
X83123835Y-19463904D01*
X83118414Y-19469679D01*
X83114600Y-19476614D01*
X83114592Y-19476627D01*
X83108650Y-19487436D01*
X83097803Y-19503949D01*
X83090243Y-19513695D01*
X83090237Y-19513704D01*
X83085386Y-19519959D01*
X83082242Y-19527223D01*
X83082238Y-19527231D01*
X83067824Y-19560540D01*
X83062604Y-19571195D01*
X83045125Y-19602989D01*
X83045121Y-19602997D01*
X83041305Y-19609940D01*
X83039333Y-19617616D01*
X83039331Y-19617624D01*
X83036266Y-19629562D01*
X83029865Y-19648259D01*
X83024968Y-19659576D01*
X83024966Y-19659581D01*
X83021819Y-19666855D01*
X83020579Y-19674680D01*
X83020577Y-19674689D01*
X83014901Y-19710524D01*
X83012495Y-19722144D01*
X83003471Y-19757289D01*
X83003469Y-19757297D01*
X83001500Y-19764970D01*
X83001500Y-19772899D01*
X83001500Y-19785224D01*
X82999949Y-19804935D01*
X82998019Y-19817114D01*
X82998018Y-19817121D01*
X82996780Y-19824943D01*
X82997525Y-19832826D01*
X82997525Y-19832834D01*
X83000941Y-19868961D01*
X83001500Y-19880819D01*
X83001500Y-30216233D01*
X83000972Y-30227416D01*
X82999298Y-30234909D01*
X82999547Y-30242833D01*
X82999547Y-30242835D01*
X83001438Y-30302986D01*
X83001500Y-30306945D01*
X83001500Y-30334856D01*
X83001995Y-30338774D01*
X83001997Y-30338806D01*
X83002008Y-30338888D01*
X83002937Y-30350697D01*
X83004077Y-30386969D01*
X83004078Y-30386976D01*
X83004327Y-30394889D01*
X83006537Y-30402498D01*
X83006538Y-30402500D01*
X83009978Y-30414342D01*
X83013986Y-30433693D01*
X83016526Y-30453797D01*
X83019444Y-30461169D01*
X83019445Y-30461170D01*
X83032800Y-30494901D01*
X83036645Y-30506130D01*
X83046771Y-30540986D01*
X83046773Y-30540992D01*
X83048982Y-30548593D01*
X83053014Y-30555411D01*
X83053015Y-30555413D01*
X83059293Y-30566029D01*
X83067990Y-30583782D01*
X83071307Y-30592160D01*
X83075448Y-30602617D01*
X83080107Y-30609030D01*
X83080108Y-30609031D01*
X83101432Y-30638381D01*
X83107948Y-30648301D01*
X83126422Y-30679538D01*
X83130458Y-30686362D01*
X83136062Y-30691966D01*
X83136063Y-30691967D01*
X83144778Y-30700682D01*
X83157618Y-30715715D01*
X83160078Y-30719101D01*
X83169528Y-30732107D01*
X83175635Y-30737159D01*
X83175636Y-30737160D01*
X83203598Y-30760292D01*
X83212378Y-30768282D01*
X83450847Y-31006751D01*
X83483458Y-31063234D01*
X83483459Y-31128455D01*
X83467882Y-31186591D01*
X83467881Y-31186598D01*
X83466457Y-31191913D01*
X83465978Y-31197386D01*
X83465977Y-31197393D01*
X83446988Y-31414443D01*
X83446502Y-31420000D01*
X83446981Y-31425475D01*
X83462540Y-31603325D01*
X83466457Y-31648087D01*
X83467879Y-31653394D01*
X83467881Y-31653405D01*
X83483459Y-31711542D01*
X83483459Y-31776764D01*
X83450847Y-31833247D01*
X75477742Y-39806351D01*
X75469459Y-39813888D01*
X75462982Y-39818000D01*
X75457563Y-39823769D01*
X75457555Y-39823777D01*
X75416370Y-39867635D01*
X75413621Y-39870472D01*
X75396667Y-39887427D01*
X75396660Y-39887434D01*
X75393865Y-39890230D01*
X75391442Y-39893352D01*
X75391426Y-39893371D01*
X75391365Y-39893451D01*
X75383690Y-39902435D01*
X75358838Y-39928902D01*
X75358835Y-39928904D01*
X75353414Y-39934679D01*
X75349600Y-39941614D01*
X75349592Y-39941627D01*
X75343650Y-39952436D01*
X75332803Y-39968949D01*
X75325243Y-39978695D01*
X75325237Y-39978704D01*
X75320386Y-39984959D01*
X75317242Y-39992223D01*
X75317238Y-39992231D01*
X75302824Y-40025540D01*
X75297604Y-40036195D01*
X75280125Y-40067989D01*
X75280121Y-40067997D01*
X75276305Y-40074940D01*
X75274333Y-40082616D01*
X75274331Y-40082624D01*
X75271266Y-40094562D01*
X75264865Y-40113259D01*
X75259968Y-40124576D01*
X75259966Y-40124581D01*
X75256819Y-40131855D01*
X75255579Y-40139680D01*
X75255577Y-40139689D01*
X75249901Y-40175524D01*
X75247495Y-40187144D01*
X75238471Y-40222289D01*
X75238469Y-40222297D01*
X75236500Y-40229970D01*
X75236500Y-40237899D01*
X75236500Y-40250224D01*
X75234949Y-40269935D01*
X75233019Y-40282114D01*
X75233018Y-40282121D01*
X75231780Y-40289943D01*
X75232525Y-40297826D01*
X75232525Y-40297834D01*
X75235941Y-40333961D01*
X75236500Y-40345819D01*
X75236500Y-42900606D01*
X75222263Y-42958786D01*
X75182771Y-43003819D01*
X75030211Y-43110643D01*
X75030208Y-43110645D01*
X75025700Y-43113802D01*
X75021808Y-43117693D01*
X75021802Y-43117699D01*
X74867699Y-43271802D01*
X74867693Y-43271808D01*
X74863802Y-43275700D01*
X74860645Y-43280208D01*
X74860643Y-43280211D01*
X74735633Y-43458742D01*
X74735627Y-43458752D01*
X74732477Y-43463251D01*
X74730153Y-43468233D01*
X74730151Y-43468238D01*
X74638039Y-43665774D01*
X74638036Y-43665779D01*
X74635716Y-43670757D01*
X74634293Y-43676065D01*
X74634293Y-43676067D01*
X74577882Y-43886594D01*
X74576457Y-43891913D01*
X74575978Y-43897386D01*
X74575977Y-43897393D01*
X74556988Y-44114443D01*
X74556502Y-44120000D01*
X74576457Y-44348087D01*
X74577881Y-44353401D01*
X74593459Y-44411540D01*
X74593459Y-44476762D01*
X74560847Y-44533246D01*
X74352742Y-44741351D01*
X74344459Y-44748888D01*
X74337982Y-44753000D01*
X74332563Y-44758769D01*
X74332555Y-44758777D01*
X74291370Y-44802635D01*
X74288621Y-44805472D01*
X74271667Y-44822427D01*
X74271660Y-44822434D01*
X74268865Y-44825230D01*
X74266442Y-44828352D01*
X74266426Y-44828371D01*
X74266365Y-44828451D01*
X74258690Y-44837435D01*
X74233838Y-44863902D01*
X74233835Y-44863904D01*
X74228414Y-44869679D01*
X74224600Y-44876614D01*
X74224592Y-44876627D01*
X74218650Y-44887436D01*
X74207803Y-44903949D01*
X74200243Y-44913695D01*
X74200237Y-44913704D01*
X74195386Y-44919959D01*
X74192242Y-44927223D01*
X74192238Y-44927231D01*
X74177824Y-44960540D01*
X74172604Y-44971195D01*
X74155125Y-45002989D01*
X74155121Y-45002997D01*
X74151305Y-45009940D01*
X74149333Y-45017616D01*
X74149331Y-45017624D01*
X74146266Y-45029562D01*
X74139865Y-45048259D01*
X74134968Y-45059576D01*
X74134966Y-45059581D01*
X74131819Y-45066855D01*
X74130579Y-45074680D01*
X74130577Y-45074689D01*
X74124901Y-45110524D01*
X74122495Y-45122144D01*
X74113471Y-45157289D01*
X74113469Y-45157297D01*
X74111500Y-45164970D01*
X74111500Y-45172899D01*
X74111500Y-45185224D01*
X74109949Y-45204935D01*
X74108019Y-45217114D01*
X74108018Y-45217121D01*
X74106780Y-45224943D01*
X72763278Y-45224943D01*
X72904300Y-45126198D01*
X73066198Y-44964300D01*
X73197523Y-44776749D01*
X73294284Y-44569243D01*
X73353543Y-44348087D01*
X73373498Y-44120000D01*
X73353543Y-43891913D01*
X73294284Y-43670757D01*
X73197523Y-43463251D01*
X73066198Y-43275700D01*
X72904300Y-43113802D01*
X72830496Y-43062123D01*
X72721257Y-42985633D01*
X72721252Y-42985630D01*
X72716749Y-42982477D01*
X72665943Y-42958786D01*
X72514225Y-42888039D01*
X72514223Y-42888038D01*
X72509243Y-42885716D01*
X72288087Y-42826457D01*
X72282611Y-42825977D01*
X72282606Y-42825977D01*
X72065475Y-42806981D01*
X72060000Y-42806502D01*
X72054525Y-42806981D01*
X71837393Y-42825977D01*
X71837386Y-42825978D01*
X71831913Y-42826457D01*
X71826599Y-42827880D01*
X71826598Y-42827881D01*
X71616067Y-42884293D01*
X71616065Y-42884293D01*
X71610757Y-42885716D01*
X71605779Y-42888036D01*
X71605774Y-42888039D01*
X71408238Y-42980151D01*
X71408233Y-42980153D01*
X71403251Y-42982477D01*
X71398752Y-42985627D01*
X71398742Y-42985633D01*
X71220211Y-43110643D01*
X71220208Y-43110645D01*
X71215700Y-43113802D01*
X71211808Y-43117693D01*
X71211802Y-43117699D01*
X71057699Y-43271802D01*
X71057693Y-43271808D01*
X71053802Y-43275700D01*
X71050645Y-43280208D01*
X71050643Y-43280211D01*
X70925633Y-43458742D01*
X70925627Y-43458752D01*
X70922477Y-43463251D01*
X70920153Y-43468233D01*
X70920151Y-43468238D01*
X70828039Y-43665774D01*
X70828036Y-43665779D01*
X70825716Y-43670757D01*
X70824293Y-43676065D01*
X70824293Y-43676067D01*
X70767882Y-43886594D01*
X70766457Y-43891913D01*
X70765978Y-43897386D01*
X70765977Y-43897393D01*
X70746988Y-44114443D01*
X70746502Y-44120000D01*
X63213498Y-44120000D01*
X63193543Y-43891913D01*
X63176539Y-43828457D01*
X63176539Y-43763236D01*
X63209149Y-43706753D01*
X64687259Y-42228643D01*
X64695533Y-42221114D01*
X64702018Y-42217000D01*
X64748676Y-42167312D01*
X64751368Y-42164534D01*
X64771134Y-42144770D01*
X64773601Y-42141588D01*
X64781310Y-42132561D01*
X64811586Y-42100321D01*
X64821345Y-42082567D01*
X64832199Y-42066043D01*
X64844613Y-42050041D01*
X64862167Y-42009475D01*
X64867392Y-41998808D01*
X64884875Y-41967008D01*
X64884874Y-41967008D01*
X64888695Y-41960060D01*
X64893732Y-41940442D01*
X64900138Y-41921730D01*
X64908181Y-41903145D01*
X64915099Y-41859456D01*
X64917503Y-41847856D01*
X64920544Y-41836013D01*
X64928500Y-41805030D01*
X64928500Y-41784769D01*
X64930051Y-41765058D01*
X64931979Y-41752884D01*
X64933219Y-41745057D01*
X64931896Y-41731065D01*
X64929059Y-41701046D01*
X64928500Y-41689189D01*
X64928500Y-38229594D01*
X64938091Y-38181376D01*
X64965405Y-38140499D01*
X65335904Y-37770000D01*
X69476502Y-37770000D01*
X69476981Y-37775475D01*
X69487888Y-37900151D01*
X69496457Y-37998087D01*
X69555716Y-38219243D01*
X69558038Y-38224223D01*
X69558039Y-38224225D01*
X69560543Y-38229594D01*
X69652477Y-38426749D01*
X69655630Y-38431252D01*
X69655633Y-38431257D01*
X69723987Y-38528875D01*
X69783802Y-38614300D01*
X69945700Y-38776198D01*
X70133251Y-38907523D01*
X70340757Y-39004284D01*
X70561913Y-39063543D01*
X70790000Y-39083498D01*
X71018087Y-39063543D01*
X71239243Y-39004284D01*
X71446749Y-38907523D01*
X71634300Y-38776198D01*
X71796198Y-38614300D01*
X71927523Y-38426749D01*
X72024284Y-38219243D01*
X72083543Y-37998087D01*
X72103498Y-37770000D01*
X72083543Y-37541913D01*
X72024284Y-37320757D01*
X71927523Y-37113251D01*
X71796198Y-36925700D01*
X71634300Y-36763802D01*
X71560496Y-36712123D01*
X71451257Y-36635633D01*
X71451252Y-36635630D01*
X71446749Y-36632477D01*
X71239243Y-36535716D01*
X71018087Y-36476457D01*
X71012611Y-36475977D01*
X71012606Y-36475977D01*
X70795475Y-36456981D01*
X70790000Y-36456502D01*
X70784525Y-36456981D01*
X70567393Y-36475977D01*
X70567386Y-36475978D01*
X70561913Y-36476457D01*
X70556599Y-36477880D01*
X70556598Y-36477881D01*
X70346067Y-36534293D01*
X70346065Y-36534293D01*
X70340757Y-36535716D01*
X70335779Y-36538036D01*
X70335774Y-36538039D01*
X70138238Y-36630151D01*
X70138233Y-36630153D01*
X70133251Y-36632477D01*
X70128752Y-36635627D01*
X70128742Y-36635633D01*
X69950211Y-36760643D01*
X69950208Y-36760645D01*
X69945700Y-36763802D01*
X69941808Y-36767693D01*
X69941802Y-36767699D01*
X69787699Y-36921802D01*
X69787693Y-36921808D01*
X69783802Y-36925700D01*
X69780645Y-36930208D01*
X69780643Y-36930211D01*
X69655633Y-37108742D01*
X69655627Y-37108752D01*
X69652477Y-37113251D01*
X69650153Y-37118233D01*
X69650151Y-37118238D01*
X69558039Y-37315774D01*
X69558036Y-37315779D01*
X69555716Y-37320757D01*
X69554293Y-37326065D01*
X69554293Y-37326067D01*
X69497881Y-37536598D01*
X69496457Y-37541913D01*
X69495978Y-37547386D01*
X69495977Y-37547393D01*
X69480266Y-37726981D01*
X69476502Y-37770000D01*
X65335904Y-37770000D01*
X66862493Y-36243411D01*
X70376753Y-32729150D01*
X70433235Y-32696540D01*
X70498458Y-32696540D01*
X70561913Y-32713543D01*
X70790000Y-32733498D01*
X71018087Y-32713543D01*
X71239243Y-32654284D01*
X71446749Y-32557523D01*
X71634300Y-32426198D01*
X71796198Y-32264300D01*
X71927523Y-32076749D01*
X72024284Y-31869243D01*
X72083543Y-31648087D01*
X72103498Y-31420000D01*
X79636502Y-31420000D01*
X79636981Y-31425475D01*
X79652540Y-31603325D01*
X79656457Y-31648087D01*
X79715716Y-31869243D01*
X79718038Y-31874223D01*
X79718039Y-31874225D01*
X79806445Y-32063814D01*
X79812477Y-32076749D01*
X79815630Y-32081252D01*
X79815633Y-32081257D01*
X79843391Y-32120899D01*
X79943802Y-32264300D01*
X80105700Y-32426198D01*
X80191273Y-32486117D01*
X80282065Y-32549691D01*
X80293251Y-32557523D01*
X80500757Y-32654284D01*
X80721913Y-32713543D01*
X80950000Y-32733498D01*
X81178087Y-32713543D01*
X81399243Y-32654284D01*
X81606749Y-32557523D01*
X81794300Y-32426198D01*
X81956198Y-32264300D01*
X82087523Y-32076749D01*
X82184284Y-31869243D01*
X82243543Y-31648087D01*
X82263498Y-31420000D01*
X82243543Y-31191913D01*
X82184284Y-30970757D01*
X82087523Y-30763251D01*
X81956198Y-30575700D01*
X81794300Y-30413802D01*
X81687195Y-30338806D01*
X81611257Y-30285633D01*
X81611252Y-30285630D01*
X81606749Y-30282477D01*
X81601761Y-30280151D01*
X81404225Y-30188039D01*
X81404223Y-30188038D01*
X81399243Y-30185716D01*
X81178087Y-30126457D01*
X81172611Y-30125977D01*
X81172606Y-30125977D01*
X80955475Y-30106981D01*
X80950000Y-30106502D01*
X80944525Y-30106981D01*
X80727393Y-30125977D01*
X80727386Y-30125978D01*
X80721913Y-30126457D01*
X80716599Y-30127880D01*
X80716598Y-30127881D01*
X80506067Y-30184293D01*
X80506065Y-30184293D01*
X80500757Y-30185716D01*
X80495779Y-30188036D01*
X80495774Y-30188039D01*
X80298238Y-30280151D01*
X80298233Y-30280153D01*
X80293251Y-30282477D01*
X80288752Y-30285627D01*
X80288742Y-30285633D01*
X80110211Y-30410643D01*
X80110208Y-30410645D01*
X80105700Y-30413802D01*
X80101808Y-30417693D01*
X80101802Y-30417699D01*
X79947699Y-30571802D01*
X79947693Y-30571808D01*
X79943802Y-30575700D01*
X79940645Y-30580208D01*
X79940643Y-30580211D01*
X79815633Y-30758742D01*
X79815627Y-30758752D01*
X79812477Y-30763251D01*
X79810153Y-30768233D01*
X79810151Y-30768238D01*
X79718039Y-30965774D01*
X79718036Y-30965779D01*
X79715716Y-30970757D01*
X79714293Y-30976065D01*
X79714293Y-30976067D01*
X79667846Y-31149410D01*
X79656457Y-31191913D01*
X79655978Y-31197386D01*
X79655977Y-31197393D01*
X79636988Y-31414443D01*
X79636502Y-31420000D01*
X72103498Y-31420000D01*
X72083543Y-31191913D01*
X72024284Y-30970757D01*
X71927523Y-30763251D01*
X71796198Y-30575700D01*
X71634300Y-30413802D01*
X71527195Y-30338806D01*
X71451257Y-30285633D01*
X71451252Y-30285630D01*
X71446749Y-30282477D01*
X71441761Y-30280151D01*
X71244225Y-30188039D01*
X71244223Y-30188038D01*
X71239243Y-30185716D01*
X71018087Y-30126457D01*
X71012611Y-30125977D01*
X71012606Y-30125977D01*
X70795475Y-30106981D01*
X70790000Y-30106502D01*
X70784525Y-30106981D01*
X70567393Y-30125977D01*
X70567386Y-30125978D01*
X70561913Y-30126457D01*
X70556607Y-30127878D01*
X70556594Y-30127881D01*
X70498457Y-30143459D01*
X70433235Y-30143458D01*
X70376752Y-30110847D01*
X70190405Y-29924500D01*
X70163091Y-29883623D01*
X70153500Y-29835405D01*
X70153500Y-26414745D01*
X70169033Y-26354140D01*
X70211802Y-26308477D01*
X70271262Y-26289015D01*
X70330578Y-26300143D01*
X70330602Y-26300078D01*
X70331001Y-26300223D01*
X70332753Y-26300552D01*
X70335770Y-26301959D01*
X70335774Y-26301960D01*
X70340757Y-26304284D01*
X70561913Y-26363543D01*
X70790000Y-26383498D01*
X71018087Y-26363543D01*
X71239243Y-26304284D01*
X71446749Y-26207523D01*
X71634300Y-26076198D01*
X71796198Y-25914300D01*
X71927523Y-25726749D01*
X72024284Y-25519243D01*
X72083543Y-25298087D01*
X72103498Y-25070000D01*
X79636502Y-25070000D01*
X79636981Y-25075475D01*
X79655977Y-25292606D01*
X79655977Y-25292611D01*
X79656457Y-25298087D01*
X79715716Y-25519243D01*
X79812477Y-25726749D01*
X79815630Y-25731252D01*
X79815633Y-25731257D01*
X79892123Y-25840496D01*
X79943802Y-25914300D01*
X80105700Y-26076198D01*
X80293251Y-26207523D01*
X80500757Y-26304284D01*
X80721913Y-26363543D01*
X80950000Y-26383498D01*
X81178087Y-26363543D01*
X81399243Y-26304284D01*
X81606749Y-26207523D01*
X81794300Y-26076198D01*
X81956198Y-25914300D01*
X82087523Y-25726749D01*
X82184284Y-25519243D01*
X82243543Y-25298087D01*
X82263498Y-25070000D01*
X82243543Y-24841913D01*
X82184284Y-24620757D01*
X82087523Y-24413251D01*
X81956198Y-24225700D01*
X81794300Y-24063802D01*
X81642230Y-23957321D01*
X81611257Y-23935633D01*
X81611252Y-23935630D01*
X81606749Y-23932477D01*
X81601761Y-23930151D01*
X81404225Y-23838039D01*
X81404223Y-23838038D01*
X81399243Y-23835716D01*
X81178087Y-23776457D01*
X81172611Y-23775977D01*
X81172606Y-23775977D01*
X80955475Y-23756981D01*
X80950000Y-23756502D01*
X80944525Y-23756981D01*
X80727393Y-23775977D01*
X80727386Y-23775978D01*
X80721913Y-23776457D01*
X80716599Y-23777880D01*
X80716598Y-23777881D01*
X80506067Y-23834293D01*
X80506065Y-23834293D01*
X80500757Y-23835716D01*
X80495779Y-23838036D01*
X80495774Y-23838039D01*
X80298238Y-23930151D01*
X80298233Y-23930153D01*
X80293251Y-23932477D01*
X80288752Y-23935627D01*
X80288742Y-23935633D01*
X80110211Y-24060643D01*
X80110208Y-24060645D01*
X80105700Y-24063802D01*
X80101808Y-24067693D01*
X80101802Y-24067699D01*
X79947699Y-24221802D01*
X79947693Y-24221808D01*
X79943802Y-24225700D01*
X79940645Y-24230208D01*
X79940643Y-24230211D01*
X79815633Y-24408742D01*
X79815627Y-24408752D01*
X79812477Y-24413251D01*
X79810153Y-24418233D01*
X79810151Y-24418238D01*
X79718039Y-24615774D01*
X79718036Y-24615779D01*
X79715716Y-24620757D01*
X79656457Y-24841913D01*
X79655978Y-24847386D01*
X79655977Y-24847393D01*
X79636988Y-25064443D01*
X79636502Y-25070000D01*
X72103498Y-25070000D01*
X72083543Y-24841913D01*
X72024284Y-24620757D01*
X71927523Y-24413251D01*
X71796198Y-24225700D01*
X71634300Y-24063802D01*
X71482230Y-23957321D01*
X71451257Y-23935633D01*
X71451252Y-23935630D01*
X71446749Y-23932477D01*
X71441761Y-23930151D01*
X71244225Y-23838039D01*
X71244223Y-23838038D01*
X71239243Y-23835716D01*
X71018087Y-23776457D01*
X71012611Y-23775977D01*
X71012606Y-23775977D01*
X70795475Y-23756981D01*
X70790000Y-23756502D01*
X70784525Y-23756981D01*
X70567393Y-23775977D01*
X70567386Y-23775978D01*
X70561913Y-23776457D01*
X70556599Y-23777880D01*
X70556598Y-23777881D01*
X70346067Y-23834293D01*
X70346065Y-23834293D01*
X70340757Y-23835716D01*
X70335784Y-23838034D01*
X70335770Y-23838040D01*
X70332753Y-23839448D01*
X70331001Y-23839776D01*
X70330602Y-23839922D01*
X70330578Y-23839856D01*
X70271262Y-23850985D01*
X70211802Y-23831523D01*
X70169033Y-23785860D01*
X70153500Y-23725255D01*
X70153500Y-20304595D01*
X70163091Y-20256377D01*
X70190404Y-20215500D01*
X70268246Y-20137656D01*
X70376751Y-20029151D01*
X70433236Y-19996540D01*
X70498457Y-19996540D01*
X70561913Y-20013543D01*
X70790000Y-20033498D01*
X71018087Y-20013543D01*
X71239243Y-19954284D01*
X71446749Y-19857523D01*
X71634300Y-19726198D01*
X71796198Y-19564300D01*
X71927523Y-19376749D01*
X72024284Y-19169243D01*
X72083543Y-18948087D01*
X72103498Y-18720000D01*
X79636502Y-18720000D01*
X79656457Y-18948087D01*
X79715716Y-19169243D01*
X79718038Y-19174223D01*
X79718039Y-19174225D01*
X79810151Y-19371761D01*
X79812477Y-19376749D01*
X79815630Y-19381252D01*
X79815633Y-19381257D01*
X79889221Y-19486351D01*
X79943802Y-19564300D01*
X80105700Y-19726198D01*
X80189998Y-19785224D01*
X80257991Y-19832834D01*
X80293251Y-19857523D01*
X80500757Y-19954284D01*
X80721913Y-20013543D01*
X80950000Y-20033498D01*
X81178087Y-20013543D01*
X81399243Y-19954284D01*
X81606749Y-19857523D01*
X81794300Y-19726198D01*
X81956198Y-19564300D01*
X82087523Y-19376749D01*
X82184284Y-19169243D01*
X82243543Y-18948087D01*
X82263498Y-18720000D01*
X82243543Y-18491913D01*
X82184284Y-18270757D01*
X82087523Y-18063251D01*
X81956198Y-17875700D01*
X81794300Y-17713802D01*
X81720496Y-17662123D01*
X81611257Y-17585633D01*
X81611252Y-17585630D01*
X81606749Y-17582477D01*
X81399243Y-17485716D01*
X81178087Y-17426457D01*
X81172611Y-17425977D01*
X81172606Y-17425977D01*
X80955475Y-17406981D01*
X80950000Y-17406502D01*
X80944525Y-17406981D01*
X80727393Y-17425977D01*
X80727386Y-17425978D01*
X80721913Y-17426457D01*
X80716599Y-17427880D01*
X80716598Y-17427881D01*
X80506067Y-17484293D01*
X80506065Y-17484293D01*
X80500757Y-17485716D01*
X80495779Y-17488036D01*
X80495774Y-17488039D01*
X80298238Y-17580151D01*
X80298233Y-17580153D01*
X80293251Y-17582477D01*
X80288752Y-17585627D01*
X80288742Y-17585633D01*
X80110211Y-17710643D01*
X80110208Y-17710645D01*
X80105700Y-17713802D01*
X80101808Y-17717693D01*
X80101802Y-17717699D01*
X79947699Y-17871802D01*
X79947693Y-17871808D01*
X79943802Y-17875700D01*
X79940645Y-17880208D01*
X79940643Y-17880211D01*
X79815633Y-18058742D01*
X79815627Y-18058752D01*
X79812477Y-18063251D01*
X79810153Y-18068233D01*
X79810151Y-18068238D01*
X79718039Y-18265774D01*
X79718036Y-18265779D01*
X79715716Y-18270757D01*
X79656457Y-18491913D01*
X79655978Y-18497386D01*
X79655977Y-18497393D01*
X79636988Y-18714443D01*
X79636502Y-18720000D01*
X72103498Y-18720000D01*
X72083543Y-18491913D01*
X72024284Y-18270757D01*
X71927523Y-18063251D01*
X71796198Y-17875700D01*
X71634300Y-17713802D01*
X71560496Y-17662123D01*
X71451257Y-17585633D01*
X71451252Y-17585630D01*
X71446749Y-17582477D01*
X71239243Y-17485716D01*
X71018087Y-17426457D01*
X71012611Y-17425977D01*
X71012606Y-17425977D01*
X70795475Y-17406981D01*
X70790000Y-17406502D01*
X70784525Y-17406981D01*
X70567393Y-17425977D01*
X70567386Y-17425978D01*
X70561913Y-17426457D01*
X70556599Y-17427880D01*
X70556598Y-17427881D01*
X70346067Y-17484293D01*
X70346065Y-17484293D01*
X70340757Y-17485716D01*
X70335779Y-17488036D01*
X70335774Y-17488039D01*
X70138238Y-17580151D01*
X70138233Y-17580153D01*
X70133251Y-17582477D01*
X70128752Y-17585627D01*
X70128742Y-17585633D01*
X69950211Y-17710643D01*
X69950208Y-17710645D01*
X69945700Y-17713802D01*
X69941808Y-17717693D01*
X69941802Y-17717699D01*
X69787699Y-17871802D01*
X69787693Y-17871808D01*
X69783802Y-17875700D01*
X69780645Y-17880208D01*
X69780643Y-17880211D01*
X69655633Y-18058742D01*
X69655627Y-18058752D01*
X69652477Y-18063251D01*
X69650153Y-18068233D01*
X69650151Y-18068238D01*
X69558039Y-18265774D01*
X69558036Y-18265779D01*
X69555716Y-18270757D01*
X69496457Y-18491913D01*
X69495978Y-18497386D01*
X69495977Y-18497393D01*
X69476988Y-18714443D01*
X69476502Y-18720000D01*
X69496457Y-18948087D01*
X69497881Y-18953401D01*
X69513459Y-19011540D01*
X69513459Y-19076762D01*
X69480847Y-19133246D01*
X69127742Y-19486351D01*
X69119459Y-19493888D01*
X69112982Y-19498000D01*
X69107563Y-19503769D01*
X69107555Y-19503777D01*
X69066370Y-19547635D01*
X69063621Y-19550472D01*
X69046667Y-19567427D01*
X69046660Y-19567434D01*
X69043865Y-19570230D01*
X69041442Y-19573352D01*
X69041426Y-19573371D01*
X69041365Y-19573451D01*
X69033690Y-19582435D01*
X69008838Y-19608902D01*
X69008835Y-19608904D01*
X69003414Y-19614679D01*
X68999600Y-19621614D01*
X68999592Y-19621627D01*
X68993650Y-19632436D01*
X68982803Y-19648949D01*
X68975243Y-19658695D01*
X68975237Y-19658704D01*
X68970386Y-19664959D01*
X68967242Y-19672223D01*
X68967238Y-19672231D01*
X68952824Y-19705540D01*
X68947604Y-19716195D01*
X68930125Y-19747989D01*
X68930121Y-19747997D01*
X68926305Y-19754940D01*
X68924333Y-19762616D01*
X68924331Y-19762624D01*
X68921266Y-19774562D01*
X68914865Y-19793259D01*
X68909968Y-19804576D01*
X68909966Y-19804581D01*
X68906819Y-19811855D01*
X68905579Y-19819680D01*
X68905577Y-19819689D01*
X68899901Y-19855524D01*
X68897495Y-19867144D01*
X68888471Y-19902289D01*
X68888469Y-19902297D01*
X68886500Y-19909970D01*
X68886500Y-19917899D01*
X68886500Y-19930224D01*
X68884949Y-19949935D01*
X68883019Y-19962114D01*
X68883018Y-19962121D01*
X68881780Y-19969943D01*
X68882525Y-19977826D01*
X68882525Y-19977834D01*
X68885941Y-20013961D01*
X68886500Y-20025819D01*
X68886500Y-30071233D01*
X68885972Y-30082416D01*
X68884298Y-30089909D01*
X68884547Y-30097833D01*
X68884547Y-30097835D01*
X68886438Y-30157986D01*
X68886500Y-30161945D01*
X68886500Y-30189856D01*
X68886995Y-30193774D01*
X68886997Y-30193806D01*
X68887008Y-30193888D01*
X68887937Y-30205697D01*
X68889077Y-30241969D01*
X68889078Y-30241976D01*
X68889327Y-30249889D01*
X68891537Y-30257498D01*
X68891538Y-30257500D01*
X68894978Y-30269342D01*
X68898986Y-30288693D01*
X68901526Y-30308797D01*
X68904444Y-30316169D01*
X68904445Y-30316170D01*
X68917800Y-30349901D01*
X68921645Y-30361130D01*
X68931771Y-30395986D01*
X68931773Y-30395992D01*
X68933982Y-30403593D01*
X68938014Y-30410411D01*
X68938015Y-30410413D01*
X68944293Y-30421029D01*
X68952990Y-30438782D01*
X68954449Y-30442468D01*
X68960448Y-30457617D01*
X68965107Y-30464030D01*
X68965108Y-30464031D01*
X68986432Y-30493381D01*
X68992948Y-30503301D01*
X69011422Y-30534538D01*
X69015458Y-30541362D01*
X69021063Y-30546967D01*
X69029778Y-30555682D01*
X69042618Y-30570715D01*
X69049517Y-30580211D01*
X69054528Y-30587107D01*
X69060635Y-30592159D01*
X69060636Y-30592160D01*
X69088598Y-30615292D01*
X69097378Y-30623282D01*
X69480847Y-31006751D01*
X69513458Y-31063234D01*
X69513459Y-31128455D01*
X69497882Y-31186591D01*
X69497881Y-31186598D01*
X69496457Y-31191913D01*
X69495978Y-31197386D01*
X69495977Y-31197393D01*
X69476988Y-31414443D01*
X69476502Y-31420000D01*
X69476981Y-31425475D01*
X69492540Y-31603325D01*
X69496457Y-31648087D01*
X69497879Y-31653394D01*
X69497881Y-31653405D01*
X69513459Y-31711542D01*
X69513459Y-31776764D01*
X69480847Y-31833247D01*
X63902742Y-37411351D01*
X63894459Y-37418888D01*
X63887982Y-37423000D01*
X63882563Y-37428769D01*
X63882555Y-37428777D01*
X63841370Y-37472635D01*
X63838621Y-37475472D01*
X63821667Y-37492427D01*
X63821660Y-37492434D01*
X63818865Y-37495230D01*
X63816442Y-37498352D01*
X63816426Y-37498371D01*
X63816365Y-37498451D01*
X63808690Y-37507435D01*
X63783838Y-37533902D01*
X63783835Y-37533904D01*
X63778414Y-37539679D01*
X63774600Y-37546614D01*
X63774592Y-37546627D01*
X63768650Y-37557436D01*
X63757803Y-37573949D01*
X63750243Y-37583695D01*
X63750237Y-37583704D01*
X63745386Y-37589959D01*
X63742242Y-37597223D01*
X63742238Y-37597231D01*
X63727824Y-37630540D01*
X63722604Y-37641195D01*
X63705125Y-37672989D01*
X63705121Y-37672997D01*
X63701305Y-37679940D01*
X63699334Y-37687614D01*
X63699333Y-37687618D01*
X63697472Y-37694869D01*
X63665145Y-37752004D01*
X63608466Y-37785123D01*
X63542820Y-37785238D01*
X63420897Y-37752569D01*
X63398087Y-37746457D01*
X63392611Y-37745977D01*
X63392606Y-37745977D01*
X63175475Y-37726981D01*
X63170000Y-37726502D01*
X63164525Y-37726981D01*
X62947393Y-37745977D01*
X62947386Y-37745978D01*
X62941913Y-37746457D01*
X62936599Y-37747880D01*
X62936598Y-37747881D01*
X62726067Y-37804293D01*
X62726065Y-37804293D01*
X62720757Y-37805716D01*
X62715779Y-37808036D01*
X62715774Y-37808039D01*
X62518238Y-37900151D01*
X62518233Y-37900153D01*
X62513251Y-37902477D01*
X62508752Y-37905627D01*
X62508742Y-37905633D01*
X62330211Y-38030643D01*
X62330208Y-38030645D01*
X62325700Y-38033802D01*
X62321808Y-38037693D01*
X62321802Y-38037699D01*
X62167699Y-38191802D01*
X62167693Y-38191808D01*
X62163802Y-38195700D01*
X62160645Y-38200208D01*
X62160643Y-38200211D01*
X62035633Y-38378742D01*
X62035627Y-38378752D01*
X62032477Y-38383251D01*
X62030153Y-38388233D01*
X62030151Y-38388238D01*
X61938039Y-38585774D01*
X61938036Y-38585779D01*
X61935716Y-38590757D01*
X61934293Y-38596065D01*
X61934293Y-38596067D01*
X61887071Y-38772300D01*
X61876457Y-38811913D01*
X61875978Y-38817386D01*
X61875977Y-38817393D01*
X61859830Y-39001960D01*
X61856502Y-39040000D01*
X61856981Y-39045475D01*
X61866266Y-39151610D01*
X61876457Y-39268087D01*
X61935716Y-39489243D01*
X62032477Y-39696749D01*
X62035630Y-39701252D01*
X62035633Y-39701257D01*
X62099549Y-39792537D01*
X62163802Y-39884300D01*
X62325700Y-40046198D01*
X62513251Y-40177523D01*
X62720757Y-40274284D01*
X62941913Y-40333543D01*
X63170000Y-40353498D01*
X63398087Y-40333543D01*
X63502889Y-40305460D01*
X63560081Y-40303589D01*
X63612204Y-40327205D01*
X63648506Y-40371440D01*
X63661500Y-40427168D01*
X63661500Y-41410405D01*
X63651909Y-41458623D01*
X63624597Y-41499497D01*
X62391262Y-42732832D01*
X62313246Y-42810848D01*
X62256762Y-42843459D01*
X62191540Y-42843459D01*
X62128087Y-42826457D01*
X62122611Y-42825977D01*
X62122606Y-42825977D01*
X61905475Y-42806981D01*
X61900000Y-42806502D01*
X61894525Y-42806981D01*
X61677393Y-42825977D01*
X61677386Y-42825978D01*
X61671913Y-42826457D01*
X61666599Y-42827880D01*
X61666598Y-42827881D01*
X61456067Y-42884293D01*
X61456065Y-42884293D01*
X61450757Y-42885716D01*
X61445779Y-42888036D01*
X61445774Y-42888039D01*
X61248238Y-42980151D01*
X61248233Y-42980153D01*
X61243251Y-42982477D01*
X61238752Y-42985627D01*
X61238742Y-42985633D01*
X61060211Y-43110643D01*
X61060208Y-43110645D01*
X61055700Y-43113802D01*
X61051808Y-43117693D01*
X61051802Y-43117699D01*
X60897699Y-43271802D01*
X60897693Y-43271808D01*
X60893802Y-43275700D01*
X60890645Y-43280208D01*
X60890643Y-43280211D01*
X60765633Y-43458742D01*
X60765627Y-43458752D01*
X60762477Y-43463251D01*
X60760153Y-43468233D01*
X60760151Y-43468238D01*
X60668039Y-43665774D01*
X60668036Y-43665779D01*
X60665716Y-43670757D01*
X60664293Y-43676065D01*
X60664293Y-43676067D01*
X60607882Y-43886594D01*
X60606457Y-43891913D01*
X60605978Y-43897386D01*
X60605977Y-43897393D01*
X60586988Y-44114443D01*
X60586502Y-44120000D01*
X60606457Y-44348087D01*
X60607881Y-44353401D01*
X60623459Y-44411540D01*
X60623459Y-44476762D01*
X60590847Y-44533246D01*
X60237742Y-44886351D01*
X60229459Y-44893888D01*
X60222982Y-44898000D01*
X60217563Y-44903769D01*
X60217555Y-44903777D01*
X60176370Y-44947635D01*
X60173621Y-44950472D01*
X60156667Y-44967427D01*
X60156660Y-44967434D01*
X60153865Y-44970230D01*
X60151442Y-44973352D01*
X60151426Y-44973371D01*
X60151365Y-44973451D01*
X60143690Y-44982435D01*
X60118838Y-45008902D01*
X60118835Y-45008904D01*
X60113414Y-45014679D01*
X60109600Y-45021614D01*
X60109592Y-45021627D01*
X60103650Y-45032436D01*
X60092803Y-45048949D01*
X60085248Y-45058690D01*
X60085246Y-45058692D01*
X60080386Y-45064959D01*
X60080288Y-45065185D01*
X60036584Y-45108073D01*
X59973708Y-45124428D01*
X59911043Y-45107284D01*
X59865249Y-45061201D01*
X59848500Y-44998430D01*
X59848500Y-33149594D01*
X59858091Y-33101376D01*
X59885405Y-33060499D01*
X60602904Y-32343000D01*
X62756753Y-30189149D01*
X62813236Y-30156539D01*
X62878457Y-30156539D01*
X62915508Y-30166467D01*
X62936594Y-30172118D01*
X62936596Y-30172118D01*
X62941913Y-30173543D01*
X63170000Y-30193498D01*
X63398087Y-30173543D01*
X63619243Y-30114284D01*
X63826749Y-30017523D01*
X64014300Y-29886198D01*
X64176198Y-29724300D01*
X64262324Y-29601299D01*
X64286181Y-29567229D01*
X64331214Y-29527737D01*
X64389394Y-29513500D01*
X65760606Y-29513500D01*
X65818786Y-29527737D01*
X65863819Y-29567229D01*
X65897478Y-29615298D01*
X65973802Y-29724300D01*
X66135700Y-29886198D01*
X66248862Y-29965435D01*
X66292354Y-29995889D01*
X66323251Y-30017523D01*
X66530757Y-30114284D01*
X66751913Y-30173543D01*
X66980000Y-30193498D01*
X67208087Y-30173543D01*
X67429243Y-30114284D01*
X67636749Y-30017523D01*
X67824300Y-29886198D01*
X67986198Y-29724300D01*
X68117523Y-29536749D01*
X68214284Y-29329243D01*
X68273543Y-29108087D01*
X68293498Y-28880000D01*
X68273543Y-28651913D01*
X68214284Y-28430757D01*
X68117523Y-28223251D01*
X67986198Y-28035700D01*
X67824300Y-27873802D01*
X67750496Y-27822123D01*
X67641257Y-27745633D01*
X67641252Y-27745630D01*
X67636749Y-27742477D01*
X67429243Y-27645716D01*
X67208087Y-27586457D01*
X67202611Y-27585977D01*
X67202606Y-27585977D01*
X66985475Y-27566981D01*
X66980000Y-27566502D01*
X66974525Y-27566981D01*
X66757393Y-27585977D01*
X66757386Y-27585978D01*
X66751913Y-27586457D01*
X66746599Y-27587880D01*
X66746598Y-27587881D01*
X66536067Y-27644293D01*
X66536065Y-27644293D01*
X66530757Y-27645716D01*
X66525779Y-27648036D01*
X66525774Y-27648039D01*
X66328238Y-27740151D01*
X66328233Y-27740153D01*
X66323251Y-27742477D01*
X66318752Y-27745627D01*
X66318742Y-27745633D01*
X66140211Y-27870643D01*
X66140208Y-27870645D01*
X66135700Y-27873802D01*
X66131808Y-27877693D01*
X66131802Y-27877699D01*
X65977699Y-28031802D01*
X65977693Y-28031808D01*
X65973802Y-28035700D01*
X65970645Y-28040208D01*
X65970643Y-28040211D01*
X65863819Y-28192771D01*
X65818786Y-28232263D01*
X65760606Y-28246500D01*
X64389394Y-28246500D01*
X64331214Y-28232263D01*
X64286181Y-28192771D01*
X64246139Y-28135586D01*
X64176198Y-28035700D01*
X64014300Y-27873802D01*
X63940496Y-27822123D01*
X63831257Y-27745633D01*
X63831252Y-27745630D01*
X63826749Y-27742477D01*
X63619243Y-27645716D01*
X63398087Y-27586457D01*
X63392611Y-27585977D01*
X63392606Y-27585977D01*
X63175475Y-27566981D01*
X63170000Y-27566502D01*
X63164525Y-27566981D01*
X62947393Y-27585977D01*
X62947386Y-27585978D01*
X62941913Y-27586457D01*
X62936599Y-27587880D01*
X62936598Y-27587881D01*
X62726067Y-27644293D01*
X62726065Y-27644293D01*
X62720757Y-27645716D01*
X62715779Y-27648036D01*
X62715774Y-27648039D01*
X62518238Y-27740151D01*
X62518233Y-27740153D01*
X62513251Y-27742477D01*
X62508752Y-27745627D01*
X62508742Y-27745633D01*
X62330211Y-27870643D01*
X62330208Y-27870645D01*
X62325700Y-27873802D01*
X62321808Y-27877693D01*
X62321802Y-27877699D01*
X62167699Y-28031802D01*
X62167693Y-28031808D01*
X62163802Y-28035700D01*
X62160645Y-28040208D01*
X62160643Y-28040211D01*
X62035633Y-28218742D01*
X62035627Y-28218752D01*
X62032477Y-28223251D01*
X62030153Y-28228233D01*
X62030151Y-28228238D01*
X61938039Y-28425774D01*
X61938036Y-28425779D01*
X61935716Y-28430757D01*
X61876457Y-28651913D01*
X61875978Y-28657386D01*
X61875977Y-28657393D01*
X61856988Y-28874443D01*
X61856502Y-28880000D01*
X61876457Y-29108087D01*
X61877879Y-29113394D01*
X61877881Y-29113405D01*
X61893459Y-29171542D01*
X61893459Y-29236764D01*
X61860847Y-29293247D01*
X58822742Y-32331351D01*
X58814459Y-32338888D01*
X58807982Y-32343000D01*
X58802563Y-32348769D01*
X58802555Y-32348777D01*
X58761370Y-32392635D01*
X58758621Y-32395472D01*
X58741667Y-32412427D01*
X58741660Y-32412434D01*
X58738865Y-32415230D01*
X58736442Y-32418352D01*
X58736426Y-32418371D01*
X58736365Y-32418451D01*
X58728690Y-32427435D01*
X58703838Y-32453902D01*
X58703835Y-32453904D01*
X58698414Y-32459679D01*
X58694600Y-32466614D01*
X58694592Y-32466627D01*
X58688650Y-32477436D01*
X58677803Y-32493949D01*
X58670243Y-32503695D01*
X58670237Y-32503704D01*
X58665386Y-32509959D01*
X58662242Y-32517223D01*
X58662238Y-32517231D01*
X58647824Y-32550540D01*
X58642604Y-32561195D01*
X58625125Y-32592989D01*
X58625121Y-32592997D01*
X58621305Y-32599940D01*
X58619333Y-32607616D01*
X58619331Y-32607624D01*
X58616266Y-32619562D01*
X58609865Y-32638259D01*
X58604968Y-32649576D01*
X58604966Y-32649581D01*
X58601819Y-32656855D01*
X58600579Y-32664680D01*
X58600577Y-32664689D01*
X58594901Y-32700524D01*
X58592495Y-32712144D01*
X58583471Y-32747289D01*
X58583469Y-32747297D01*
X58581500Y-32754970D01*
X58581500Y-32762899D01*
X58581500Y-32775224D01*
X58579949Y-32794935D01*
X58578019Y-32807114D01*
X58578018Y-32807121D01*
X58576780Y-32814943D01*
X58577525Y-32822826D01*
X58577525Y-32822834D01*
X58580941Y-32858961D01*
X58581500Y-32870819D01*
X58581500Y-42732832D01*
X58568506Y-42788560D01*
X58532204Y-42832795D01*
X58480081Y-42856411D01*
X58422889Y-42854539D01*
X58339630Y-42832229D01*
X58323398Y-42827880D01*
X58323397Y-42827879D01*
X58318087Y-42826457D01*
X58312611Y-42825977D01*
X58312606Y-42825977D01*
X58095475Y-42806981D01*
X58090000Y-42806502D01*
X58084525Y-42806981D01*
X57867393Y-42825977D01*
X57867386Y-42825978D01*
X57861913Y-42826457D01*
X57856599Y-42827880D01*
X57856598Y-42827881D01*
X57646067Y-42884293D01*
X57646065Y-42884293D01*
X57640757Y-42885716D01*
X57635779Y-42888036D01*
X57635774Y-42888039D01*
X57438238Y-42980151D01*
X57438233Y-42980153D01*
X57433251Y-42982477D01*
X57428752Y-42985627D01*
X57428742Y-42985633D01*
X57250211Y-43110643D01*
X57250208Y-43110645D01*
X57245700Y-43113802D01*
X57241808Y-43117693D01*
X57241802Y-43117699D01*
X57087699Y-43271802D01*
X57087693Y-43271808D01*
X57083802Y-43275700D01*
X57080645Y-43280208D01*
X57080643Y-43280211D01*
X56955633Y-43458742D01*
X56955627Y-43458752D01*
X56952477Y-43463251D01*
X56950153Y-43468233D01*
X56950151Y-43468238D01*
X56858039Y-43665774D01*
X56858036Y-43665779D01*
X56855716Y-43670757D01*
X56854293Y-43676065D01*
X56854293Y-43676067D01*
X56797882Y-43886594D01*
X56796457Y-43891913D01*
X56795978Y-43897386D01*
X56795977Y-43897393D01*
X56776988Y-44114443D01*
X56776502Y-44120000D01*
X56796457Y-44348087D01*
X56855716Y-44569243D01*
X56858038Y-44574223D01*
X56858039Y-44574225D01*
X56950151Y-44771761D01*
X56952477Y-44776749D01*
X56955630Y-44781252D01*
X56955633Y-44781257D01*
X57029221Y-44886351D01*
X57083802Y-44964300D01*
X57245700Y-45126198D01*
X57329998Y-45185224D01*
X57397991Y-45232834D01*
X57433251Y-45257523D01*
X57640757Y-45354284D01*
X57861913Y-45413543D01*
X58090000Y-45433498D01*
X58318087Y-45413543D01*
X58422889Y-45385460D01*
X58480081Y-45383589D01*
X58532204Y-45407205D01*
X58568506Y-45451440D01*
X58581500Y-45507168D01*
X58581500Y-52840404D01*
X58571909Y-52888623D01*
X58544594Y-52929501D01*
X58503245Y-52970849D01*
X58446762Y-53003459D01*
X58381540Y-53003459D01*
X58318087Y-52986457D01*
X58312611Y-52985977D01*
X58312606Y-52985977D01*
X58095475Y-52966981D01*
X58090000Y-52966502D01*
X58084525Y-52966981D01*
X57867393Y-52985977D01*
X57867386Y-52985978D01*
X57861913Y-52986457D01*
X57856599Y-52987880D01*
X57856598Y-52987881D01*
X57646067Y-53044293D01*
X57646065Y-53044293D01*
X57640757Y-53045716D01*
X57635779Y-53048036D01*
X57635774Y-53048039D01*
X57438238Y-53140151D01*
X57438233Y-53140153D01*
X57433251Y-53142477D01*
X57428752Y-53145627D01*
X57428742Y-53145633D01*
X57250211Y-53270643D01*
X57250208Y-53270645D01*
X57245700Y-53273802D01*
X57241808Y-53277693D01*
X57241802Y-53277699D01*
X57087699Y-53431802D01*
X57087693Y-53431808D01*
X57083802Y-53435700D01*
X57080645Y-53440208D01*
X57080643Y-53440211D01*
X56973819Y-53592771D01*
X56928786Y-53632263D01*
X56870606Y-53646500D01*
X55499394Y-53646500D01*
X55441214Y-53632263D01*
X55396181Y-53592771D01*
X55356139Y-53535586D01*
X55286198Y-53435700D01*
X55124300Y-53273802D01*
X54983278Y-53175057D01*
X54941257Y-53145633D01*
X54941252Y-53145630D01*
X54936749Y-53142477D01*
X54729243Y-53045716D01*
X54508087Y-52986457D01*
X54502611Y-52985977D01*
X54502606Y-52985977D01*
X54285475Y-52966981D01*
X54280000Y-52966502D01*
X54274525Y-52966981D01*
X54057393Y-52985977D01*
X54057386Y-52985978D01*
X54051913Y-52986457D01*
X54046599Y-52987880D01*
X54046598Y-52987881D01*
X53836067Y-53044293D01*
X53836065Y-53044293D01*
X53830757Y-53045716D01*
X53825779Y-53048036D01*
X53825774Y-53048039D01*
X53628238Y-53140151D01*
X53628233Y-53140153D01*
X53623251Y-53142477D01*
X53618752Y-53145627D01*
X53618742Y-53145633D01*
X53440211Y-53270643D01*
X53440208Y-53270645D01*
X53435700Y-53273802D01*
X53431808Y-53277693D01*
X53431802Y-53277699D01*
X53277699Y-53431802D01*
X53277693Y-53431808D01*
X53273802Y-53435700D01*
X53270645Y-53440208D01*
X53270643Y-53440211D01*
X53145633Y-53618742D01*
X53145627Y-53618752D01*
X53142477Y-53623251D01*
X53140153Y-53628233D01*
X53140151Y-53628238D01*
X53048039Y-53825774D01*
X53048036Y-53825779D01*
X53045716Y-53830757D01*
X53044293Y-53836065D01*
X53044293Y-53836067D01*
X52987882Y-54046594D01*
X52986457Y-54051913D01*
X52985978Y-54057386D01*
X52985977Y-54057393D01*
X52966988Y-54274443D01*
X52966502Y-54280000D01*
X52000500Y-54280000D01*
X52000500Y-31067765D01*
X53145788Y-31067765D01*
X53146290Y-31072332D01*
X53146291Y-31072344D01*
X53174910Y-31332444D01*
X53174911Y-31332453D01*
X53175414Y-31337018D01*
X53176576Y-31341463D01*
X53176577Y-31341468D01*
X53208812Y-31464768D01*
X53243928Y-31599088D01*
X53245725Y-31603318D01*
X53245728Y-31603325D01*
X53267010Y-31653405D01*
X53349870Y-31848390D01*
X53352265Y-31852315D01*
X53352266Y-31852316D01*
X53481620Y-32064271D01*
X53490982Y-32079610D01*
X53493917Y-32083137D01*
X53493918Y-32083138D01*
X53644681Y-32264300D01*
X53664255Y-32287820D01*
X53712839Y-32331351D01*
X53862561Y-32465503D01*
X53862565Y-32465506D01*
X53865998Y-32468582D01*
X54091910Y-32618044D01*
X54337176Y-32733020D01*
X54596569Y-32811060D01*
X54864561Y-32850500D01*
X55065330Y-32850500D01*
X55067631Y-32850500D01*
X55270156Y-32835677D01*
X55534553Y-32776780D01*
X55787558Y-32680014D01*
X56023777Y-32547441D01*
X56238177Y-32381888D01*
X56426186Y-32186881D01*
X56583799Y-31966579D01*
X56707656Y-31725675D01*
X56795118Y-31469305D01*
X56844319Y-31202933D01*
X56852610Y-30976067D01*
X56854044Y-30936837D01*
X56854043Y-30936834D01*
X56854212Y-30932235D01*
X56824586Y-30662982D01*
X56756072Y-30400912D01*
X56650130Y-30151610D01*
X56509018Y-29920390D01*
X56335745Y-29712180D01*
X56243606Y-29629623D01*
X56137438Y-29534496D01*
X56137432Y-29534491D01*
X56134002Y-29531418D01*
X55908090Y-29381956D01*
X55662824Y-29266980D01*
X55658420Y-29265655D01*
X55407843Y-29190267D01*
X55407838Y-29190265D01*
X55403431Y-29188940D01*
X55398874Y-29188269D01*
X55398868Y-29188268D01*
X55140000Y-29150171D01*
X55139996Y-29150170D01*
X55135439Y-29149500D01*
X54932369Y-29149500D01*
X54930098Y-29149666D01*
X54930076Y-29149667D01*
X54734438Y-29163986D01*
X54734427Y-29163987D01*
X54729844Y-29164323D01*
X54725353Y-29165323D01*
X54725349Y-29165324D01*
X54469939Y-29222219D01*
X54469934Y-29222220D01*
X54465447Y-29223220D01*
X54461149Y-29224863D01*
X54461145Y-29224865D01*
X54216746Y-29318339D01*
X54216735Y-29318343D01*
X54212442Y-29319986D01*
X54208434Y-29322235D01*
X54208422Y-29322241D01*
X53980232Y-29450308D01*
X53980221Y-29450314D01*
X53976223Y-29452559D01*
X53972589Y-29455364D01*
X53972586Y-29455367D01*
X53765466Y-29615298D01*
X53765458Y-29615305D01*
X53761823Y-29618112D01*
X53758632Y-29621421D01*
X53758625Y-29621428D01*
X53577011Y-29809802D01*
X53577004Y-29809809D01*
X53573814Y-29813119D01*
X53571136Y-29816861D01*
X53571131Y-29816868D01*
X53418885Y-30029668D01*
X53418878Y-30029677D01*
X53416201Y-30033421D01*
X53414097Y-30037512D01*
X53414091Y-30037523D01*
X53294453Y-30270222D01*
X53292344Y-30274325D01*
X53290856Y-30278684D01*
X53290854Y-30278691D01*
X53206371Y-30526327D01*
X53206367Y-30526341D01*
X53204882Y-30530695D01*
X53204044Y-30535228D01*
X53204044Y-30535231D01*
X53156517Y-30792537D01*
X53156515Y-30792546D01*
X53155681Y-30797067D01*
X53155513Y-30801656D01*
X53155512Y-30801668D01*
X53146138Y-31058191D01*
X53145788Y-31067765D01*
X52000500Y-31067765D01*
X52000500Y-18720000D01*
X65666502Y-18720000D01*
X65686457Y-18948087D01*
X65745716Y-19169243D01*
X65748038Y-19174223D01*
X65748039Y-19174225D01*
X65840151Y-19371761D01*
X65842477Y-19376749D01*
X65845630Y-19381252D01*
X65845633Y-19381257D01*
X65919221Y-19486351D01*
X65973802Y-19564300D01*
X66135700Y-19726198D01*
X66219998Y-19785224D01*
X66287991Y-19832834D01*
X66323251Y-19857523D01*
X66530757Y-19954284D01*
X66751913Y-20013543D01*
X66980000Y-20033498D01*
X67208087Y-20013543D01*
X67429243Y-19954284D01*
X67636749Y-19857523D01*
X67824300Y-19726198D01*
X67986198Y-19564300D01*
X68117523Y-19376749D01*
X68214284Y-19169243D01*
X68273543Y-18948087D01*
X68293498Y-18720000D01*
X68273543Y-18491913D01*
X68214284Y-18270757D01*
X68117523Y-18063251D01*
X67986198Y-17875700D01*
X67824300Y-17713802D01*
X67750496Y-17662123D01*
X67641257Y-17585633D01*
X67641252Y-17585630D01*
X67636749Y-17582477D01*
X67429243Y-17485716D01*
X67208087Y-17426457D01*
X67202611Y-17425977D01*
X67202606Y-17425977D01*
X66985475Y-17406981D01*
X66980000Y-17406502D01*
X66974525Y-17406981D01*
X66757393Y-17425977D01*
X66757386Y-17425978D01*
X66751913Y-17426457D01*
X66746599Y-17427880D01*
X66746598Y-17427881D01*
X66536067Y-17484293D01*
X66536065Y-17484293D01*
X66530757Y-17485716D01*
X66525779Y-17488036D01*
X66525774Y-17488039D01*
X66328238Y-17580151D01*
X66328233Y-17580153D01*
X66323251Y-17582477D01*
X66318752Y-17585627D01*
X66318742Y-17585633D01*
X66140211Y-17710643D01*
X66140208Y-17710645D01*
X66135700Y-17713802D01*
X66131808Y-17717693D01*
X66131802Y-17717699D01*
X65977699Y-17871802D01*
X65977693Y-17871808D01*
X65973802Y-17875700D01*
X65970645Y-17880208D01*
X65970643Y-17880211D01*
X65845633Y-18058742D01*
X65845627Y-18058752D01*
X65842477Y-18063251D01*
X65840153Y-18068233D01*
X65840151Y-18068238D01*
X65748039Y-18265774D01*
X65748036Y-18265779D01*
X65745716Y-18270757D01*
X65686457Y-18491913D01*
X65685978Y-18497386D01*
X65685977Y-18497393D01*
X65666988Y-18714443D01*
X65666502Y-18720000D01*
X52000500Y-18720000D01*
X52000500Y-15126500D01*
X52017381Y-15063500D01*
X52063500Y-15017381D01*
X52126500Y-15000500D01*
X146913500Y-15000500D01*
X146976500Y-15017381D01*
G37*
G04 #@! TD.AperFunction*
G04 #@! TD*
M02*
