M48
; DRILL file {KiCad 7.0.1-3b83917a11~171~ubuntu22.04.1} date Sun Mar 12 10:58:09 2023
; FORMAT={-:-/ absolute / metric / decimal}
; #@! TF.CreationDate,2023-03-12T10:58:09-04:00
; #@! TF.GenerationSoftware,Kicad,Pcbnew,7.0.1-3b83917a11~171~ubuntu22.04.1
; #@! TF.FileFunction,MixedPlating,1,2
FMAT,2
METRIC
; #@! TA.AperFunction,Plated,PTH,ComponentDrill
T1C0.800
; #@! TA.AperFunction,Plated,PTH,ComponentDrill
T2C1.000
; #@! TA.AperFunction,NonPlated,NPTH,ComponentDrill
T3C3.200
%
G90
G05
T1
X54.28Y-54.28
X54.28Y-64.44
X58.09Y-44.12
X58.09Y-54.28
X61.9Y-44.12
X61.9Y-50.47
X61.9Y-56.82
X61.9Y-63.17
X63.17Y-28.88
X63.17Y-39.04
X66.98Y-18.72
X66.98Y-28.88
X70.79Y-18.72
X70.79Y-25.07
X70.79Y-31.42
X70.79Y-37.77
X72.06Y-44.12
X72.06Y-50.47
X72.06Y-56.82
X72.06Y-63.17
X75.87Y-44.12
X75.87Y-50.47
X75.87Y-56.82
X75.87Y-63.17
X80.95Y-18.72
X80.95Y-25.07
X80.95Y-31.42
X80.95Y-37.77
X84.76Y-18.72
X84.76Y-25.07
X84.76Y-31.42
X84.76Y-37.77
X86.03Y-44.12
X86.03Y-50.47
X86.03Y-56.82
X86.03Y-63.17
X89.84Y-44.12
X89.84Y-50.47
X89.84Y-56.82
X89.84Y-63.17
X94.92Y-18.72
X94.92Y-25.07
X94.92Y-31.42
X94.92Y-37.77
X98.73Y-18.72
X98.73Y-25.07
X98.73Y-31.42
X98.73Y-37.77
X100.0Y-44.12
X100.0Y-50.47
X100.0Y-56.82
X100.0Y-63.17
X103.81Y-44.12
X103.81Y-50.47
X103.81Y-56.82
X103.81Y-63.17
X108.89Y-18.72
X108.89Y-25.07
X108.89Y-31.42
X108.89Y-37.77
X112.7Y-18.72
X112.7Y-25.07
X112.7Y-31.42
X112.7Y-37.77
X113.97Y-44.12
X113.97Y-50.47
X113.97Y-56.82
X113.97Y-63.17
X122.86Y-18.72
X122.86Y-25.07
X122.86Y-31.42
X122.86Y-37.77
T2
X129.21Y-31.42
X129.21Y-33.96
X131.75Y-31.42
X131.75Y-33.96
X134.29Y-31.42
X134.29Y-33.96
X136.83Y-31.42
X136.83Y-33.96
X139.37Y-31.42
X139.37Y-33.96
X141.91Y-31.42
X141.91Y-33.96
X144.45Y-31.42
X144.45Y-33.96
T3
X55.0Y-31.0
X140.0Y-40.0
T0
M30
