G04 #@! TF.GenerationSoftware,KiCad,Pcbnew,7.0.1-3b83917a11~172~ubuntu22.04.1*
G04 #@! TF.CreationDate,2023-04-02T12:39:39-04:00*
G04 #@! TF.ProjectId,pmf_B1,706d665f-4231-42e6-9b69-6361645f7063,rev?*
G04 #@! TF.SameCoordinates,Original*
G04 #@! TF.FileFunction,Soldermask,Top*
G04 #@! TF.FilePolarity,Negative*
%FSLAX46Y46*%
G04 Gerber Fmt 4.6, Leading zero omitted, Abs format (unit mm)*
G04 Created by KiCad (PCBNEW 7.0.1-3b83917a11~172~ubuntu22.04.1) date 2023-04-02 12:39:39*
%MOMM*%
%LPD*%
G01*
G04 APERTURE LIST*
G04 Aperture macros list*
%AMRoundRect*
0 Rectangle with rounded corners*
0 $1 Rounding radius*
0 $2 $3 $4 $5 $6 $7 $8 $9 X,Y pos of 4 corners*
0 Add a 4 corners polygon primitive as box body*
4,1,4,$2,$3,$4,$5,$6,$7,$8,$9,$2,$3,0*
0 Add four circle primitives for the rounded corners*
1,1,$1+$1,$2,$3*
1,1,$1+$1,$4,$5*
1,1,$1+$1,$6,$7*
1,1,$1+$1,$8,$9*
0 Add four rect primitives between the rounded corners*
20,1,$1+$1,$2,$3,$4,$5,0*
20,1,$1+$1,$4,$5,$6,$7,0*
20,1,$1+$1,$6,$7,$8,$9,0*
20,1,$1+$1,$8,$9,$2,$3,0*%
%AMRotRect*
0 Rectangle, with rotation*
0 The origin of the aperture is its center*
0 $1 length*
0 $2 width*
0 $3 Rotation angle, in degrees counterclockwise*
0 Add horizontal line*
21,1,$1,$2,0,0,$3*%
G04 Aperture macros list end*
%ADD10O,2.500000X4.500001*%
%ADD11O,4.500001X2.500001*%
%ADD12RotRect,4.500001X2.500001X315.000000*%
%ADD13O,4.500000X2.500000*%
%ADD14O,2.500000X4.500000*%
%ADD15C,3.200000*%
%ADD16R,1.700000X1.700000*%
%ADD17O,1.700000X1.700000*%
%ADD18C,1.600000*%
%ADD19O,1.600000X1.600000*%
%ADD20C,1.500000*%
%ADD21RoundRect,0.250000X-0.600000X0.600000X-0.600000X-0.600000X0.600000X-0.600000X0.600000X0.600000X0*%
%ADD22C,1.700000*%
%ADD23R,1.600000X2.400000*%
%ADD24O,1.600000X2.400000*%
%ADD25R,1.600000X1.600000*%
%ADD26C,1.440000*%
%ADD27R,2.200000X2.200000*%
%ADD28O,2.200000X2.200000*%
%ADD29R,1.727200X1.727200*%
%ADD30O,1.727200X1.727200*%
G04 APERTURE END LIST*
D10*
G04 #@! TO.C,J8*
X143900000Y-150500000D03*
D11*
X140000000Y-156400000D03*
D12*
X132760000Y-154740000D03*
D13*
X137000000Y-143600000D03*
D14*
X131100000Y-147500000D03*
G04 #@! TD*
D15*
G04 #@! TO.C,H3*
X105000000Y-124000000D03*
G04 #@! TD*
D16*
G04 #@! TO.C,J1*
X108660000Y-110160000D03*
D17*
X108660000Y-107620000D03*
X108660000Y-105080000D03*
X108660000Y-102540000D03*
X108660000Y-100000000D03*
X108660000Y-97460000D03*
G04 #@! TD*
D10*
G04 #@! TO.C,J7*
X143900000Y-175500000D03*
D11*
X140000000Y-181400000D03*
D12*
X132760000Y-179740000D03*
D13*
X137000000Y-168600000D03*
D14*
X131100000Y-172500000D03*
G04 #@! TD*
D10*
G04 #@! TO.C,J5*
X118900000Y-150500000D03*
D11*
X115000000Y-156400000D03*
D12*
X107760000Y-154740000D03*
D13*
X112000000Y-143600000D03*
D14*
X106100000Y-147500000D03*
G04 #@! TD*
D10*
G04 #@! TO.C,J9*
X168900000Y-175500000D03*
D11*
X165000000Y-181400000D03*
D12*
X157760000Y-179740000D03*
D13*
X162000000Y-168600000D03*
D14*
X156100000Y-172500000D03*
G04 #@! TD*
D16*
G04 #@! TO.C,J2*
X160730000Y-136830000D03*
D17*
X160730000Y-134290000D03*
X160730000Y-131750000D03*
X160730000Y-129210000D03*
X160730000Y-126670000D03*
G04 #@! TD*
D10*
G04 #@! TO.C,J6*
X118900000Y-175500000D03*
D11*
X115000000Y-181400000D03*
D12*
X107760000Y-179740000D03*
D13*
X112000000Y-168600000D03*
D14*
X106100000Y-172500000D03*
G04 #@! TD*
D10*
G04 #@! TO.C,J12*
X193900000Y-175500000D03*
D11*
X190000000Y-181400000D03*
D12*
X182760000Y-179740000D03*
D13*
X187000000Y-168600000D03*
D14*
X181100000Y-172500000D03*
G04 #@! TD*
D15*
G04 #@! TO.C,H2*
X190000000Y-40000000D03*
G04 #@! TD*
G04 #@! TO.C,H1*
X105000000Y-31000000D03*
G04 #@! TD*
D18*
G04 #@! TO.C,R56*
X179210000Y-152070000D03*
D19*
X179210000Y-162230000D03*
G04 #@! TD*
D18*
G04 #@! TO.C,R44*
X120790000Y-25070000D03*
D19*
X130950000Y-25070000D03*
G04 #@! TD*
D18*
G04 #@! TO.C,R26*
X148730000Y-44120000D03*
D19*
X158890000Y-44120000D03*
G04 #@! TD*
D20*
G04 #@! TO.C,TP2*
X133490000Y-96270000D03*
G04 #@! TD*
D18*
G04 #@! TO.C,R32*
X134760000Y-69520000D03*
D19*
X144920000Y-69520000D03*
G04 #@! TD*
D18*
G04 #@! TO.C,R11*
X127140000Y-124130000D03*
D19*
X127140000Y-113970000D03*
G04 #@! TD*
D20*
G04 #@! TO.C,TP4*
X153810000Y-125400000D03*
G04 #@! TD*
D21*
G04 #@! TO.C,J11*
X175400000Y-51740000D03*
D22*
X175400000Y-54280000D03*
X177940000Y-51740000D03*
X177940000Y-54280000D03*
X180480000Y-51740000D03*
X180480000Y-54280000D03*
X183020000Y-51740000D03*
X183020000Y-54280000D03*
X185560000Y-51740000D03*
X185560000Y-54280000D03*
X188100000Y-51740000D03*
X188100000Y-54280000D03*
X190640000Y-51740000D03*
X190640000Y-54280000D03*
G04 #@! TD*
D20*
G04 #@! TO.C,TP8*
X195720000Y-121590000D03*
G04 #@! TD*
D23*
G04 #@! TO.C,U5*
X138580000Y-113980000D03*
D24*
X141120000Y-113980000D03*
X143660000Y-113980000D03*
X146200000Y-113980000D03*
X148740000Y-113980000D03*
X151280000Y-113980000D03*
X153820000Y-113980000D03*
X156360000Y-113980000D03*
X158900000Y-113980000D03*
X158900000Y-121600000D03*
X156360000Y-121600000D03*
X153820000Y-121600000D03*
X151280000Y-121600000D03*
X148740000Y-121600000D03*
X146200000Y-121600000D03*
X143660000Y-121600000D03*
X141120000Y-121600000D03*
X138580000Y-121600000D03*
G04 #@! TD*
D25*
G04 #@! TO.C,C11*
X158890000Y-150800000D03*
D18*
X156390000Y-150800000D03*
G04 #@! TD*
G04 #@! TO.C,R57*
X184290000Y-152070000D03*
D19*
X184290000Y-162230000D03*
G04 #@! TD*
D20*
G04 #@! TO.C,TP5*
X120790000Y-125390000D03*
G04 #@! TD*
D18*
G04 #@! TO.C,C19*
X108090000Y-74600000D03*
X105590000Y-74600000D03*
G04 #@! TD*
G04 #@! TO.C,R24*
X120790000Y-63170000D03*
D19*
X130950000Y-63170000D03*
G04 #@! TD*
D18*
G04 #@! TO.C,R21*
X106820000Y-37770000D03*
D19*
X116980000Y-37770000D03*
G04 #@! TD*
D23*
G04 #@! TO.C,U1*
X111900000Y-74600000D03*
D24*
X114440000Y-74600000D03*
X116980000Y-74600000D03*
X119520000Y-74600000D03*
X122060000Y-74600000D03*
X124600000Y-74600000D03*
X127140000Y-74600000D03*
X127140000Y-82220000D03*
X124600000Y-82220000D03*
X122060000Y-82220000D03*
X119520000Y-82220000D03*
X116980000Y-82220000D03*
X114440000Y-82220000D03*
X111900000Y-82220000D03*
G04 #@! TD*
D18*
G04 #@! TO.C,R22*
X106820000Y-25070000D03*
D19*
X116980000Y-25070000D03*
G04 #@! TD*
D18*
G04 #@! TO.C,R49*
X162700000Y-44120000D03*
D19*
X172860000Y-44120000D03*
G04 #@! TD*
D18*
G04 #@! TO.C,R39*
X162700000Y-18720000D03*
D19*
X172860000Y-18720000D03*
G04 #@! TD*
D26*
G04 #@! TO.C,RV1*
X133490000Y-102540000D03*
X133490000Y-105080000D03*
X133490000Y-107620000D03*
G04 #@! TD*
D18*
G04 #@! TO.C,R50*
X134760000Y-37770000D03*
D19*
X144920000Y-37770000D03*
G04 #@! TD*
D18*
G04 #@! TO.C,R16*
X132220000Y-113960000D03*
D19*
X132220000Y-124120000D03*
G04 #@! TD*
D18*
G04 #@! TO.C,R38*
X134760000Y-18720000D03*
D19*
X144920000Y-18720000D03*
G04 #@! TD*
D18*
G04 #@! TO.C,C20*
X115710000Y-87300000D03*
X118210000Y-87300000D03*
G04 #@! TD*
G04 #@! TO.C,R25*
X120790000Y-50470000D03*
D19*
X130950000Y-50470000D03*
G04 #@! TD*
D18*
G04 #@! TO.C,R48*
X162700000Y-63170000D03*
D19*
X172860000Y-63170000D03*
G04 #@! TD*
D18*
G04 #@! TO.C,R31*
X148730000Y-69520000D03*
D19*
X158890000Y-69520000D03*
G04 #@! TD*
D18*
G04 #@! TO.C,C6*
X155080000Y-92380000D03*
X155080000Y-87380000D03*
G04 #@! TD*
G04 #@! TO.C,R29*
X120790000Y-18720000D03*
D19*
X130950000Y-18720000D03*
G04 #@! TD*
D18*
G04 #@! TO.C,C13*
X174170000Y-131750000D03*
X176670000Y-131750000D03*
G04 #@! TD*
D23*
G04 #@! TO.C,U2*
X188100000Y-131750000D03*
D24*
X185560000Y-131750000D03*
X183020000Y-131750000D03*
X180480000Y-131750000D03*
X180480000Y-124130000D03*
X183020000Y-124130000D03*
X185560000Y-124130000D03*
X188100000Y-124130000D03*
G04 #@! TD*
D25*
G04 #@! TO.C,C10*
X148730000Y-150800000D03*
D18*
X151230000Y-150800000D03*
G04 #@! TD*
D27*
G04 #@! TO.C,D2*
X148730000Y-158420000D03*
D28*
X158890000Y-158420000D03*
G04 #@! TD*
D18*
G04 #@! TO.C,C5*
X137300000Y-127930000D03*
X137300000Y-132930000D03*
G04 #@! TD*
G04 #@! TO.C,R37*
X162700000Y-31420000D03*
D19*
X172860000Y-31420000D03*
G04 #@! TD*
D18*
G04 #@! TO.C,R28*
X148730000Y-31420000D03*
D19*
X158890000Y-31420000D03*
G04 #@! TD*
D18*
G04 #@! TO.C,R30*
X148730000Y-18720000D03*
D19*
X158890000Y-18720000D03*
G04 #@! TD*
D26*
G04 #@! TO.C,RV4*
X143650000Y-131740000D03*
X143650000Y-134280000D03*
X143650000Y-136820000D03*
G04 #@! TD*
D18*
G04 #@! TO.C,R4*
X150000000Y-138100000D03*
D19*
X150000000Y-127940000D03*
G04 #@! TD*
D26*
G04 #@! TO.C,RV3*
X120790000Y-131740000D03*
X120790000Y-134280000D03*
X120790000Y-136820000D03*
G04 #@! TD*
D20*
G04 #@! TO.C,TP6*
X142380000Y-125390000D03*
G04 #@! TD*
D16*
G04 #@! TO.C,J16*
X179210000Y-31420000D03*
D17*
X179210000Y-33960000D03*
X181750000Y-31420000D03*
X181750000Y-33960000D03*
X184290000Y-31420000D03*
X184290000Y-33960000D03*
X186830000Y-31420000D03*
X186830000Y-33960000D03*
X189370000Y-31420000D03*
X189370000Y-33960000D03*
X191910000Y-31420000D03*
X191910000Y-33960000D03*
X194450000Y-31420000D03*
X194450000Y-33960000D03*
G04 #@! TD*
D18*
G04 #@! TO.C,R2*
X132220000Y-92380000D03*
D19*
X132220000Y-82220000D03*
G04 #@! TD*
D18*
G04 #@! TO.C,R17*
X189370000Y-136830000D03*
D19*
X189370000Y-146990000D03*
G04 #@! TD*
D18*
G04 #@! TO.C,C4*
X139840000Y-92380000D03*
X139840000Y-87380000D03*
G04 #@! TD*
G04 #@! TO.C,R47*
X134760000Y-63170000D03*
D19*
X144920000Y-63170000D03*
G04 #@! TD*
D18*
G04 #@! TO.C,C1*
X150000000Y-108890000D03*
X150000000Y-103890000D03*
G04 #@! TD*
G04 #@! TO.C,R10*
X165240000Y-98730000D03*
D19*
X165240000Y-108890000D03*
G04 #@! TD*
D18*
G04 #@! TO.C,C3*
X144920000Y-108890000D03*
X144920000Y-103890000D03*
G04 #@! TD*
G04 #@! TO.C,R33*
X134760000Y-56820000D03*
D19*
X144920000Y-56820000D03*
G04 #@! TD*
D18*
G04 #@! TO.C,C7*
X165240000Y-121550000D03*
X165240000Y-116550000D03*
G04 #@! TD*
G04 #@! TO.C,C8*
X173495000Y-121590000D03*
X173495000Y-116590000D03*
G04 #@! TD*
G04 #@! TO.C,R55*
X185560000Y-110160000D03*
D19*
X185560000Y-120320000D03*
G04 #@! TD*
D18*
G04 #@! TO.C,R36*
X134760000Y-31420000D03*
D19*
X144920000Y-31420000D03*
G04 #@! TD*
D18*
G04 #@! TO.C,C12*
X191950000Y-125400000D03*
X194450000Y-125400000D03*
G04 #@! TD*
G04 #@! TO.C,R40*
X148730000Y-63170000D03*
D19*
X158890000Y-63170000D03*
G04 #@! TD*
D18*
G04 #@! TO.C,R9*
X110590000Y-127950000D03*
D19*
X110590000Y-138110000D03*
G04 #@! TD*
D18*
G04 #@! TO.C,R51*
X162700000Y-37770000D03*
D19*
X172860000Y-37770000D03*
G04 #@! TD*
D18*
G04 #@! TO.C,R13*
X132220000Y-138050000D03*
D19*
X132220000Y-127890000D03*
G04 #@! TD*
D18*
G04 #@! TO.C,R18*
X179210000Y-146990000D03*
D19*
X179210000Y-136830000D03*
G04 #@! TD*
D18*
G04 #@! TO.C,R43*
X148730000Y-37770000D03*
D19*
X158890000Y-37770000D03*
G04 #@! TD*
D20*
G04 #@! TO.C,TP9*
X195720000Y-131490000D03*
G04 #@! TD*
D18*
G04 #@! TO.C,R20*
X106820000Y-63170000D03*
D19*
X116980000Y-63170000D03*
G04 #@! TD*
D20*
G04 #@! TO.C,TP1*
X115710000Y-102550000D03*
G04 #@! TD*
D18*
G04 #@! TO.C,R7*
X113170000Y-97460000D03*
D19*
X123330000Y-97460000D03*
G04 #@! TD*
D18*
G04 #@! TO.C,R27*
X120790000Y-31420000D03*
D19*
X130950000Y-31420000D03*
G04 #@! TD*
D18*
G04 #@! TO.C,C9*
X192000000Y-153500000D03*
X192000000Y-158500000D03*
G04 #@! TD*
G04 #@! TO.C,R23*
X120790000Y-69520000D03*
D19*
X130950000Y-69520000D03*
G04 #@! TD*
D18*
G04 #@! TO.C,R41*
X148730000Y-50470000D03*
D19*
X158890000Y-50470000D03*
G04 #@! TD*
D18*
G04 #@! TO.C,R46*
X148730000Y-74600000D03*
D19*
X158890000Y-74600000D03*
G04 #@! TD*
D18*
G04 #@! TO.C,R19*
X106820000Y-69520000D03*
D19*
X116980000Y-69520000D03*
G04 #@! TD*
D18*
G04 #@! TO.C,R42*
X120790000Y-37770000D03*
D19*
X130950000Y-37770000D03*
G04 #@! TD*
D18*
G04 #@! TO.C,R12*
X194450000Y-136830000D03*
D19*
X194450000Y-146990000D03*
G04 #@! TD*
D27*
G04 #@! TO.C,D1*
X148730000Y-143180000D03*
D28*
X158890000Y-143180000D03*
G04 #@! TD*
D18*
G04 #@! TO.C,R34*
X134760000Y-50470000D03*
D19*
X144920000Y-50470000D03*
G04 #@! TD*
D18*
G04 #@! TO.C,R35*
X134760000Y-44120000D03*
D19*
X144920000Y-44120000D03*
G04 #@! TD*
D18*
G04 #@! TO.C,R45*
X148730000Y-25070000D03*
D19*
X158890000Y-25070000D03*
G04 #@! TD*
D18*
G04 #@! TO.C,R54*
X180480000Y-110160000D03*
D19*
X180480000Y-120320000D03*
G04 #@! TD*
D18*
G04 #@! TO.C,R3*
X153810000Y-108890000D03*
D19*
X153810000Y-98730000D03*
G04 #@! TD*
D18*
G04 #@! TO.C,R6*
X147460000Y-92380000D03*
D19*
X147460000Y-82220000D03*
G04 #@! TD*
D20*
G04 #@! TO.C,TP7*
X195720000Y-111430000D03*
G04 #@! TD*
D29*
G04 #@! TO.C,J10*
X167780000Y-157150000D03*
D30*
X170320000Y-157150000D03*
X167780000Y-154610000D03*
X170320000Y-154610000D03*
X167780000Y-152070000D03*
X170320000Y-152070000D03*
X167780000Y-149530000D03*
X170320000Y-149530000D03*
X167780000Y-146990000D03*
X170320000Y-146990000D03*
G04 #@! TD*
D18*
G04 #@! TO.C,R1*
X127950000Y-108900000D03*
D19*
X127950000Y-98740000D03*
G04 #@! TD*
D18*
G04 #@! TO.C,R15*
X184290000Y-136830000D03*
D19*
X184290000Y-146990000D03*
G04 #@! TD*
D18*
G04 #@! TO.C,C2*
X124600000Y-92380000D03*
X124600000Y-87380000D03*
G04 #@! TD*
G04 #@! TO.C,R14*
X127140000Y-127890000D03*
D19*
X127140000Y-138050000D03*
G04 #@! TD*
D26*
G04 #@! TO.C,RV2*
X159525000Y-102530000D03*
X159525000Y-105070000D03*
X159525000Y-107610000D03*
G04 #@! TD*
D20*
G04 #@! TO.C,TP3*
X159525000Y-96190000D03*
G04 #@! TD*
D18*
G04 #@! TO.C,R5*
X139840000Y-98730000D03*
D19*
X139840000Y-108890000D03*
G04 #@! TD*
D18*
G04 #@! TO.C,R53*
X162700000Y-25070000D03*
D19*
X172860000Y-25070000D03*
G04 #@! TD*
D18*
G04 #@! TO.C,R52*
X134760000Y-25070000D03*
D19*
X144920000Y-25070000D03*
G04 #@! TD*
D18*
G04 #@! TO.C,R8*
X115670000Y-138110000D03*
D19*
X115670000Y-127950000D03*
G04 #@! TD*
M02*
