M48
; DRILL file {KiCad 7.0.1-3b83917a11~172~ubuntu22.04.1} date Sun Apr  2 12:39:39 2023
; FORMAT={-:-/ absolute / metric / decimal}
; #@! TF.CreationDate,2023-04-02T12:39:39-04:00
; #@! TF.GenerationSoftware,Kicad,Pcbnew,7.0.1-3b83917a11~172~ubuntu22.04.1
; #@! TF.FileFunction,MixedPlating,1,2
FMAT,2
METRIC
; #@! TA.AperFunction,Plated,PTH,ViaDrill
T1C0.400
; #@! TA.AperFunction,Plated,PTH,ComponentDrill
T2C0.700
; #@! TA.AperFunction,Plated,PTH,ComponentDrill
T3C0.800
; #@! TA.AperFunction,Plated,PTH,ComponentDrill
T4C1.000
; #@! TA.AperFunction,Plated,PTH,ComponentDrill
T5C1.016
; #@! TA.AperFunction,Plated,PTH,ComponentDrill
T6C1.100
; #@! TA.AperFunction,NonPlated,NPTH,ComponentDrill
T7C3.200
%
G90
G05
T1
X111.646Y-117.653
X116.091Y-66.472
X124.671Y-118.251
X125.743Y-151.689
X156.223Y-127.559
X157.366Y-141.021
X158.624Y-140.329
X161.468Y-78.283
X167.78Y-129.591
T2
X115.71Y-102.55
X120.79Y-125.39
X133.49Y-96.27
X142.38Y-125.39
X153.81Y-125.4
X159.525Y-96.19
X195.72Y-111.43
X195.72Y-121.59
X195.72Y-131.49
T3
X105.59Y-74.6
X106.82Y-25.07
X106.82Y-37.77
X106.82Y-63.17
X106.82Y-69.52
X108.09Y-74.6
X110.59Y-127.95
X110.59Y-138.11
X111.9Y-74.6
X111.9Y-82.22
X113.17Y-97.46
X114.44Y-74.6
X114.44Y-82.22
X115.67Y-127.95
X115.67Y-138.11
X115.71Y-87.3
X116.98Y-25.07
X116.98Y-37.77
X116.98Y-63.17
X116.98Y-69.52
X116.98Y-74.6
X116.98Y-82.22
X118.21Y-87.3
X119.52Y-74.6
X119.52Y-82.22
X120.79Y-18.72
X120.79Y-25.07
X120.79Y-31.42
X120.79Y-37.77
X120.79Y-50.47
X120.79Y-63.17
X120.79Y-69.52
X120.79Y-131.74
X120.79Y-134.28
X120.79Y-136.82
X122.06Y-74.6
X122.06Y-82.22
X123.33Y-97.46
X124.6Y-74.6
X124.6Y-82.22
X124.6Y-87.38
X124.6Y-92.38
X127.14Y-74.6
X127.14Y-82.22
X127.14Y-113.97
X127.14Y-124.13
X127.14Y-127.89
X127.14Y-138.05
X127.95Y-98.74
X127.95Y-108.9
X130.95Y-18.72
X130.95Y-25.07
X130.95Y-31.42
X130.95Y-37.77
X130.95Y-50.47
X130.95Y-63.17
X130.95Y-69.52
X132.22Y-82.22
X132.22Y-92.38
X132.22Y-113.96
X132.22Y-124.12
X132.22Y-127.89
X132.22Y-138.05
X133.49Y-102.54
X133.49Y-105.08
X133.49Y-107.62
X134.76Y-18.72
X134.76Y-25.07
X134.76Y-31.42
X134.76Y-37.77
X134.76Y-44.12
X134.76Y-50.47
X134.76Y-56.82
X134.76Y-63.17
X134.76Y-69.52
X137.3Y-127.93
X137.3Y-132.93
X138.58Y-113.98
X138.58Y-121.6
X139.84Y-87.38
X139.84Y-92.38
X139.84Y-98.73
X139.84Y-108.89
X141.12Y-113.98
X141.12Y-121.6
X143.65Y-131.74
X143.65Y-134.28
X143.65Y-136.82
X143.66Y-113.98
X143.66Y-121.6
X144.92Y-18.72
X144.92Y-25.07
X144.92Y-31.42
X144.92Y-37.77
X144.92Y-44.12
X144.92Y-50.47
X144.92Y-56.82
X144.92Y-63.17
X144.92Y-69.52
X144.92Y-103.89
X144.92Y-108.89
X146.2Y-113.98
X146.2Y-121.6
X147.46Y-82.22
X147.46Y-92.38
X148.73Y-18.72
X148.73Y-25.07
X148.73Y-31.42
X148.73Y-37.77
X148.73Y-44.12
X148.73Y-50.47
X148.73Y-63.17
X148.73Y-69.52
X148.73Y-74.6
X148.73Y-150.8
X148.74Y-113.98
X148.74Y-121.6
X150.0Y-103.89
X150.0Y-108.89
X150.0Y-127.94
X150.0Y-138.1
X151.23Y-150.8
X151.28Y-113.98
X151.28Y-121.6
X153.81Y-98.73
X153.81Y-108.89
X153.82Y-113.98
X153.82Y-121.6
X155.08Y-87.38
X155.08Y-92.38
X156.36Y-113.98
X156.36Y-121.6
X156.39Y-150.8
X158.89Y-18.72
X158.89Y-25.07
X158.89Y-31.42
X158.89Y-37.77
X158.89Y-44.12
X158.89Y-50.47
X158.89Y-63.17
X158.89Y-69.52
X158.89Y-74.6
X158.89Y-150.8
X158.9Y-113.98
X158.9Y-121.6
X159.525Y-102.53
X159.525Y-105.07
X159.525Y-107.61
X162.7Y-18.72
X162.7Y-25.07
X162.7Y-31.42
X162.7Y-37.77
X162.7Y-44.12
X162.7Y-63.17
X165.24Y-98.73
X165.24Y-108.89
X165.24Y-116.55
X165.24Y-121.55
X172.86Y-18.72
X172.86Y-25.07
X172.86Y-31.42
X172.86Y-37.77
X172.86Y-44.12
X172.86Y-63.17
X173.495Y-116.59
X173.495Y-121.59
X174.17Y-131.75
X176.67Y-131.75
X179.21Y-136.83
X179.21Y-146.99
X179.21Y-152.07
X179.21Y-162.23
X180.48Y-110.16
X180.48Y-120.32
X180.48Y-124.13
X180.48Y-131.75
X183.02Y-124.13
X183.02Y-131.75
X184.29Y-136.83
X184.29Y-146.99
X184.29Y-152.07
X184.29Y-162.23
X185.56Y-110.16
X185.56Y-120.32
X185.56Y-124.13
X185.56Y-131.75
X188.1Y-124.13
X188.1Y-131.75
X189.37Y-136.83
X189.37Y-146.99
X191.95Y-125.4
X192.0Y-153.5
X192.0Y-158.5
X194.45Y-125.4
X194.45Y-136.83
X194.45Y-146.99
T4
X108.66Y-97.46
X108.66Y-100.0
X108.66Y-102.54
X108.66Y-105.08
X108.66Y-107.62
X108.66Y-110.16
X160.73Y-126.67
X160.73Y-129.21
X160.73Y-131.75
X160.73Y-134.29
X160.73Y-136.83
X175.4Y-51.74
X175.4Y-54.28
X177.94Y-51.74
X177.94Y-54.28
X179.21Y-31.42
X179.21Y-33.96
X180.48Y-51.74
X180.48Y-54.28
X181.75Y-31.42
X181.75Y-33.96
X183.02Y-51.74
X183.02Y-54.28
X184.29Y-31.42
X184.29Y-33.96
X185.56Y-51.74
X185.56Y-54.28
X186.83Y-31.42
X186.83Y-33.96
X188.1Y-51.74
X188.1Y-54.28
X189.37Y-31.42
X189.37Y-33.96
X190.64Y-51.74
X190.64Y-54.28
X191.91Y-31.42
X191.91Y-33.96
X194.45Y-31.42
X194.45Y-33.96
T5
X167.78Y-146.99
X167.78Y-149.53
X167.78Y-152.07
X167.78Y-154.61
X167.78Y-157.15
X170.32Y-146.99
X170.32Y-149.53
X170.32Y-152.07
X170.32Y-154.61
X170.32Y-157.15
T6
X148.73Y-143.18
X148.73Y-158.42
X158.89Y-143.18
X158.89Y-158.42
T7
X105.0Y-31.0
X105.0Y-124.0
X190.0Y-40.0
T4
X106.1Y-146.65G85X106.1Y-148.35
G05
X106.1Y-171.65G85X106.1Y-173.35
G05
X107.159Y-154.139G85X108.361Y-155.341
G05
X107.159Y-179.139G85X108.361Y-180.341
G05
X112.85Y-143.6G85X111.15Y-143.6
G05
X112.85Y-168.6G85X111.15Y-168.6
G05
X115.85Y-156.4G85X114.15Y-156.4
G05
X115.85Y-181.4G85X114.15Y-181.4
G05
X118.9Y-149.65G85X118.9Y-151.35
G05
X118.9Y-174.65G85X118.9Y-176.35
G05
X131.1Y-146.65G85X131.1Y-148.35
G05
X131.1Y-171.65G85X131.1Y-173.35
G05
X132.159Y-154.139G85X133.361Y-155.341
G05
X132.159Y-179.139G85X133.361Y-180.341
G05
X137.85Y-143.6G85X136.15Y-143.6
G05
X137.85Y-168.6G85X136.15Y-168.6
G05
X140.85Y-156.4G85X139.15Y-156.4
G05
X140.85Y-181.4G85X139.15Y-181.4
G05
X143.9Y-149.65G85X143.9Y-151.35
G05
X143.9Y-174.65G85X143.9Y-176.35
G05
X156.1Y-171.65G85X156.1Y-173.35
G05
X157.159Y-179.139G85X158.361Y-180.341
G05
X162.85Y-168.6G85X161.15Y-168.6
G05
X165.85Y-181.4G85X164.15Y-181.4
G05
X168.9Y-174.65G85X168.9Y-176.35
G05
X181.1Y-171.65G85X181.1Y-173.35
G05
X182.159Y-179.139G85X183.361Y-180.341
G05
X187.85Y-168.6G85X186.15Y-168.6
G05
X190.85Y-181.4G85X189.15Y-181.4
G05
X193.9Y-174.65G85X193.9Y-176.35
G05
T0
M30
