G04 #@! TF.GenerationSoftware,KiCad,Pcbnew,7.0.1-3b83917a11~172~ubuntu22.04.1*
G04 #@! TF.CreationDate,2023-04-02T11:19:21-04:00*
G04 #@! TF.ProjectId,pmf_panel,706d665f-7061-46e6-956c-2e6b69636164,rev?*
G04 #@! TF.SameCoordinates,Original*
G04 #@! TF.FileFunction,Other,Comment*
%FSLAX46Y46*%
G04 Gerber Fmt 4.6, Leading zero omitted, Abs format (unit mm)*
G04 Created by KiCad (PCBNEW 7.0.1-3b83917a11~172~ubuntu22.04.1) date 2023-04-02 11:19:21*
%MOMM*%
%LPD*%
G01*
G04 APERTURE LIST*
%ADD10C,0.120000*%
%ADD11C,0.150000*%
G04 APERTURE END LIST*
D10*
G04 #@! TO.C,H14*
X97000000Y0D02*
X94200000Y0D01*
X97000000Y6000000D02*
X94200000Y6000000D01*
X97000000Y194000000D02*
X94200000Y194000000D01*
X97000000Y200000000D02*
X94200000Y200000000D01*
X97000000Y0D02*
G75*
G03*
X97000000Y6000000I0J3000000D01*
G01*
X97000000Y194000000D02*
G75*
G03*
X97000000Y200000000I0J3000000D01*
G01*
X94200000Y6000000D02*
G75*
G03*
X94200000Y0I0J-3000000D01*
G01*
X94200000Y200000000D02*
G75*
G03*
X94200000Y194000000I0J-3000000D01*
G01*
D11*
G04 #@! TO.C,H12*
X19700000Y119800000D02*
G75*
G03*
X19700000Y119800000I-1300000J0D01*
G01*
G04 #@! TO.C,H9*
X24800000Y173200000D02*
G75*
G03*
X24800000Y173200000I-7000000J0D01*
G01*
G04 #@! TO.C,H10*
X86800000Y157700000D02*
G75*
G03*
X86800000Y157700000I-7000000J0D01*
G01*
G04 #@! TO.C,H1*
X22000000Y50000000D02*
G75*
G03*
X22000000Y50000000I-9500000J0D01*
G01*
D10*
G04 #@! TO.C,H11*
X3000000Y200000000D02*
X5800000Y200000000D01*
X3000000Y194000000D02*
X5800000Y194000000D01*
X3000000Y6000000D02*
X5800000Y6000000D01*
X3000000Y0D02*
X5800000Y0D01*
X3000000Y200000000D02*
G75*
G03*
X3000000Y194000000I0J-3000000D01*
G01*
X3000000Y6000000D02*
G75*
G03*
X3000000Y0I0J-3000000D01*
G01*
X5800000Y194000000D02*
G75*
G03*
X5800000Y200000000I0J3000000D01*
G01*
X5800000Y0D02*
G75*
G03*
X5800000Y6000000I0J3000000D01*
G01*
D11*
G04 #@! TO.C,H13*
X20900000Y147800000D02*
G75*
G03*
X20900000Y147800000I-2800000J0D01*
G01*
G04 #@! TO.C,H2*
X22000000Y25000000D02*
G75*
G03*
X22000000Y25000000I-9500000J0D01*
G01*
G04 #@! TO.C,H3*
X47000000Y50000000D02*
G75*
G03*
X47000000Y50000000I-9500000J0D01*
G01*
G04 #@! TO.C,H4*
X47000000Y25000000D02*
G75*
G03*
X47000000Y25000000I-9500000J0D01*
G01*
G04 #@! TO.C,H5*
X72000000Y50000000D02*
G75*
G03*
X72000000Y50000000I-9500000J0D01*
G01*
G04 #@! TO.C,H6*
X72000000Y25000000D02*
G75*
G03*
X72000000Y25000000I-9500000J0D01*
G01*
G04 #@! TO.C,H7*
X97000000Y50000000D02*
G75*
G03*
X97000000Y50000000I-9500000J0D01*
G01*
G04 #@! TO.C,H8*
X97000000Y25000000D02*
G75*
G03*
X97000000Y25000000I-9500000J0D01*
G01*
G04 #@! TD*
M02*
