M48
; DRILL file {KiCad 7.0.2-6a45011f42~172~ubuntu22.04.1} date Fri May  5 21:30:00 2023
; FORMAT={-:-/ absolute / metric / decimal}
; #@! TF.CreationDate,2023-05-05T21:30:00-04:00
; #@! TF.GenerationSoftware,Kicad,Pcbnew,7.0.2-6a45011f42~172~ubuntu22.04.1
; #@! TF.FileFunction,MixedPlating,1,2
FMAT,2
METRIC
; #@! TA.AperFunction,Plated,PTH,ComponentDrill
T1C0.600
; #@! TA.AperFunction,Plated,PTH,ComponentDrill
T2C3.200
%
G90
G05
T1
X6.4Y50.0
X6.4Y25.0
X8.2Y54.3
X8.2Y45.7
X8.2Y29.3
X8.2Y20.7
X12.5Y56.1
X12.5Y43.9
X12.5Y31.1
X12.5Y18.9
X16.7Y45.6
X16.7Y20.6
X16.8Y54.3
X16.8Y29.3
X18.6Y50.0
X18.6Y25.0
X20.3Y165.0
X20.3Y120.0
X20.3Y80.0
X21.7Y168.3
X21.7Y161.7
X21.7Y123.3
X21.7Y116.7
X21.7Y83.3
X21.7Y76.7
X25.0Y169.7
X25.0Y160.3
X25.0Y124.7
X25.0Y115.3
X25.0Y84.7
X25.0Y75.3
X28.2Y161.6
X28.2Y116.6
X28.2Y76.6
X28.3Y168.3
X28.3Y123.3
X28.3Y83.3
X29.7Y165.0
X29.7Y120.0
X29.7Y80.0
X31.4Y50.0
X31.4Y25.0
X33.2Y54.3
X33.2Y45.7
X33.2Y29.3
X33.2Y20.7
X37.5Y56.1
X37.5Y43.9
X37.5Y31.1
X37.5Y18.9
X41.7Y45.6
X41.7Y20.6
X41.8Y54.3
X41.8Y29.3
X43.6Y50.0
X43.6Y25.0
X56.4Y25.0
X58.2Y29.3
X58.2Y20.7
X62.5Y31.1
X62.5Y18.9
X66.7Y20.6
X66.8Y29.3
X68.6Y25.0
X68.9Y120.0
X70.3Y165.0
X70.3Y80.0
X70.7Y124.3
X70.7Y115.7
X71.7Y168.3
X71.7Y161.7
X71.7Y83.3
X71.7Y76.7
X75.0Y169.7
X75.0Y160.3
X75.0Y126.1
X75.0Y113.9
X75.0Y84.7
X75.0Y75.3
X78.2Y161.6
X78.2Y76.6
X78.3Y168.3
X78.3Y83.3
X79.2Y115.6
X79.3Y124.3
X79.7Y165.0
X79.7Y80.0
X81.1Y120.0
X81.4Y25.0
X83.2Y29.3
X83.2Y20.7
X87.5Y31.1
X87.5Y18.9
X91.7Y20.6
X91.8Y29.3
X93.6Y25.0
T2
X3.0Y197.0G85X5.8Y197.0
G05
X3.0Y3.0G85X5.8Y3.0
G05
X97.0Y197.0G85X94.2Y197.0
G05
X97.0Y3.0G85X94.2Y3.0
G05
T0
M30
