G04 #@! TF.GenerationSoftware,KiCad,Pcbnew,7.0.2-6a45011f42~172~ubuntu22.04.1*
G04 #@! TF.CreationDate,2023-05-05T21:30:00-04:00*
G04 #@! TF.ProjectId,pmf_panel,706d665f-7061-46e6-956c-2e6b69636164,rev?*
G04 #@! TF.SameCoordinates,Original*
G04 #@! TF.FileFunction,Copper,L1,Top*
G04 #@! TF.FilePolarity,Positive*
%FSLAX46Y46*%
G04 Gerber Fmt 4.6, Leading zero omitted, Abs format (unit mm)*
G04 Created by KiCad (PCBNEW 7.0.2-6a45011f42~172~ubuntu22.04.1) date 2023-05-05 21:30:00*
%MOMM*%
%LPD*%
G01*
G04 APERTURE LIST*
G04 Aperture macros list*
%AMFreePoly0*
4,1,139,5.398598,5.455452,5.858736,5.376554,6.310525,5.258917,6.750711,5.103390,7.176121,4.911092,7.583690,4.683410,7.970482,4.421984,8.333711,4.128698,8.670759,3.805664,8.979197,3.455210,9.256803,3.079861,9.501578,2.682322,9.711757,2.265457,9.885826,1.832269,10.022531,1.385879,10.120888,0.929505,10.180186,0.466433,10.200000,0.000000,10.180186,-0.466433,10.120888,-0.929505,
10.022531,-1.385879,9.885826,-1.832269,9.711757,-2.265457,9.501578,-2.682322,9.256803,-3.079861,8.979197,-3.455210,8.670759,-3.805664,8.333711,-4.128698,7.970482,-4.421984,7.583690,-4.683410,7.176121,-4.911092,6.750711,-5.103390,6.310525,-5.258917,5.858736,-5.376554,5.398598,-5.455452,4.933427,-5.495044,4.466573,-5.495044,4.001402,-5.455452,3.541264,-5.376554,3.089475,-5.258917,
2.649289,-5.103390,2.223879,-4.911092,1.816310,-4.683410,1.429518,-4.421984,1.066289,-4.128698,0.729241,-3.805664,0.420803,-3.455210,0.143197,-3.079861,-0.101578,-2.682322,-0.311757,-2.265457,-0.485826,-1.832269,-0.622531,-1.385879,-0.720888,-0.929505,-0.780186,-0.466433,-0.800000,0.000000,0.794988,0.000000,0.815023,-0.395064,0.874924,-0.786073,0.974075,-1.169017,1.111459,-1.539964,
1.285666,-1.895110,1.494909,-2.230809,1.737040,-2.543617,2.009576,-2.830325,2.309719,-3.087989,2.634389,-3.313966,2.980256,-3.505938,3.343769,-3.661933,3.721199,-3.780353,4.108673,-3.859981,4.502214,-3.900000,4.897786,-3.900000,5.291327,-3.859981,5.678801,-3.780353,6.056231,-3.661933,6.419744,-3.505938,6.765611,-3.313966,7.090281,-3.087989,7.390424,-2.830325,7.662960,-2.543617,
7.905091,-2.230809,8.114334,-1.895110,8.288541,-1.539964,8.425925,-1.169017,8.525076,-0.786073,8.584977,-0.395064,8.605012,0.000000,8.584977,0.395064,8.525076,0.786073,8.425925,1.169017,8.288541,1.539964,8.114334,1.895110,7.905091,2.230809,7.662960,2.543617,7.390424,2.830325,7.090281,3.087989,6.765611,3.313966,6.419744,3.505938,6.056231,3.661933,5.678801,3.780353,
5.291327,3.859981,4.897786,3.900000,4.502214,3.900000,4.108673,3.859981,3.721199,3.780353,3.343769,3.661933,2.980256,3.505938,2.634389,3.313966,2.309719,3.087989,2.009576,2.830325,1.737040,2.543617,1.494909,2.230809,1.285666,1.895110,1.111459,1.539964,0.974075,1.169017,0.874924,0.786073,0.815023,0.395064,0.794988,0.000000,-0.800000,0.000000,-0.780186,0.466433,
-0.720888,0.929505,-0.622531,1.385879,-0.485826,1.832269,-0.311757,2.265457,-0.101578,2.682322,0.143197,3.079861,0.420803,3.455210,0.729241,3.805664,1.066289,4.128698,1.429518,4.421984,1.816310,4.683410,2.223879,4.911092,2.649289,5.103390,3.089475,5.258917,3.541264,5.376554,4.001402,5.455452,4.466573,5.495044,4.933427,5.495044,5.398598,5.455452,5.398598,5.455452,
$1*%
%AMFreePoly1*
4,1,159,6.626847,7.030287,7.150748,6.971257,7.668773,6.873242,8.178024,6.736788,8.675654,6.562660,9.158880,6.351831,9.625000,6.105479,10.071406,5.824983,10.495603,5.511912,10.895218,5.168016,11.268016,4.795218,11.611912,4.395603,11.924983,3.971406,12.205479,3.525000,12.451831,3.058880,12.662660,2.575654,12.836788,2.078024,12.973242,1.568773,13.071257,1.050748,13.130287,0.526847,
13.150000,0.000000,13.130287,-0.526847,13.071257,-1.050748,12.973242,-1.568773,12.836788,-2.078024,12.662660,-2.575654,12.451831,-3.058880,12.205479,-3.525000,11.924983,-3.971406,11.611912,-4.395603,11.268016,-4.795218,10.895218,-5.168016,10.495603,-5.511912,10.071406,-5.824983,9.625000,-6.105479,9.158880,-6.351831,8.675654,-6.562660,8.178024,-6.736788,7.668773,-6.873242,7.150748,-6.971257,
6.626847,-7.030287,6.100000,-7.050000,5.573153,-7.030287,5.049252,-6.971257,4.531227,-6.873242,4.021976,-6.736788,3.524346,-6.562660,3.041120,-6.351831,2.575000,-6.105479,2.128594,-5.824983,1.704397,-5.511912,1.304782,-5.168016,0.931984,-4.795218,0.588088,-4.395603,0.275017,-3.971406,-0.005479,-3.525000,-0.251831,-3.058880,-0.462660,-2.575654,-0.636788,-2.078024,-0.773242,-1.568773,
-0.871257,-1.050748,-0.930287,-0.526847,-0.950000,0.000000,0.945094,0.000000,0.964710,-0.449280,1.023409,-0.895140,1.120743,-1.334188,1.255973,-1.763082,1.428069,-2.178557,1.635720,-2.577453,1.877348,-2.956733,2.151113,-3.313510,2.454931,-3.645069,2.786490,-3.948887,3.143267,-4.222652,3.522547,-4.464280,3.921443,-4.671931,4.336918,-4.844027,4.765812,-4.979257,5.204860,-5.076591,
5.650720,-5.135290,6.100000,-5.154906,6.549280,-5.135290,6.995140,-5.076591,7.434188,-4.979257,7.863082,-4.844027,8.278557,-4.671931,8.677453,-4.464280,9.056733,-4.222652,9.413510,-3.948887,9.745069,-3.645069,10.048887,-3.313510,10.322652,-2.956733,10.564280,-2.577453,10.771931,-2.178557,10.944027,-1.763082,11.079257,-1.334188,11.176591,-0.895140,11.235290,-0.449280,11.254906,0.000000,
11.235290,0.449280,11.176591,0.895140,11.079257,1.334188,10.944027,1.763082,10.771931,2.178557,10.564280,2.577453,10.322652,2.956733,10.048887,3.313510,9.745069,3.645069,9.413510,3.948887,9.056733,4.222652,8.677453,4.464280,8.278557,4.671931,7.863082,4.844027,7.434188,4.979257,6.995140,5.076591,6.549280,5.135290,6.100000,5.154906,5.650720,5.135290,5.204860,5.076591,
4.765812,4.979257,4.336918,4.844027,3.921443,4.671931,3.522547,4.464280,3.143267,4.222652,2.786490,3.948887,2.454931,3.645069,2.151113,3.313510,1.877348,2.956733,1.635720,2.577453,1.428069,2.178557,1.255973,1.763082,1.120743,1.334188,1.023409,0.895140,0.964710,0.449280,0.945094,0.000000,-0.950000,0.000000,-0.930287,0.526847,-0.871257,1.050748,-0.773242,1.568773,
-0.636788,2.078024,-0.462660,2.575654,-0.251831,3.058880,-0.005479,3.525000,0.275017,3.971406,0.588088,4.395603,0.931984,4.795218,1.304782,5.168016,1.704397,5.511912,2.128594,5.824983,2.575000,6.105479,3.041120,6.351831,3.524346,6.562660,4.021976,6.736788,4.531227,6.873242,5.049252,6.971257,5.573153,7.030287,6.100000,7.050000,6.626847,7.030287,6.626847,7.030287,
$1*%
G04 Aperture macros list end*
G04 #@! TA.AperFunction,ComponentPad*
%ADD10O,6.800000X4.000000*%
G04 #@! TD*
G04 #@! TA.AperFunction,SMDPad,CuDef*
%ADD11FreePoly0,0.000000*%
G04 #@! TD*
G04 #@! TA.AperFunction,ComponentPad*
%ADD12C,0.800000*%
G04 #@! TD*
G04 #@! TA.AperFunction,SMDPad,CuDef*
%ADD13FreePoly1,0.000000*%
G04 #@! TD*
G04 APERTURE END LIST*
D10*
G04 #@! TO.P,H14,1*
G04 #@! TO.N,GND*
X95600000Y3000000D03*
X95600000Y197000000D03*
G04 #@! TD*
D11*
G04 #@! TO.P,H10,1*
G04 #@! TO.N,GND*
X70300000Y165000000D03*
D12*
X70300000Y165000000D03*
X71700000Y168300000D03*
X71700000Y161700000D03*
X75000000Y169700000D03*
X75000000Y160300000D03*
X78200000Y161600000D03*
X78300000Y168300000D03*
X79700000Y165000000D03*
G04 #@! TD*
D13*
G04 #@! TO.P,H1,1*
G04 #@! TO.N,GND*
X6400000Y50000000D03*
D12*
X6400000Y50000000D03*
X8200000Y54300000D03*
X8200000Y45700000D03*
X12500000Y56100000D03*
X12500000Y43900000D03*
X16700000Y45600000D03*
X16800000Y54300000D03*
X18600000Y50000000D03*
G04 #@! TD*
D10*
G04 #@! TO.P,H11,1*
G04 #@! TO.N,GND*
X4400000Y197000000D03*
X4400000Y3000000D03*
G04 #@! TD*
D13*
G04 #@! TO.P,H2,1*
G04 #@! TO.N,GND*
X6400000Y25000000D03*
D12*
X6400000Y25000000D03*
X8200000Y29300000D03*
X8200000Y20700000D03*
X12500000Y31100000D03*
X12500000Y18900000D03*
X16700000Y20600000D03*
X16800000Y29300000D03*
X18600000Y25000000D03*
G04 #@! TD*
D13*
G04 #@! TO.P,H3,1*
G04 #@! TO.N,GND*
X31400000Y50000000D03*
D12*
X31400000Y50000000D03*
X33200000Y54300000D03*
X33200000Y45700000D03*
X37500000Y56100000D03*
X37500000Y43900000D03*
X41700000Y45600000D03*
X41800000Y54300000D03*
X43600000Y50000000D03*
G04 #@! TD*
D13*
G04 #@! TO.P,H4,1*
G04 #@! TO.N,GND*
X31400000Y25000000D03*
D12*
X31400000Y25000000D03*
X33200000Y29300000D03*
X33200000Y20700000D03*
X37500000Y31100000D03*
X37500000Y18900000D03*
X41700000Y20600000D03*
X41800000Y29300000D03*
X43600000Y25000000D03*
G04 #@! TD*
D13*
G04 #@! TO.P,H5,1*
G04 #@! TO.N,GND*
X81400000Y25000000D03*
D12*
X81400000Y25000000D03*
X83200000Y29300000D03*
X83200000Y20700000D03*
X87500000Y31100000D03*
X87500000Y18900000D03*
X91700000Y20600000D03*
X91800000Y29300000D03*
X93600000Y25000000D03*
G04 #@! TD*
D13*
G04 #@! TO.P,H6,1*
G04 #@! TO.N,GND*
X56400000Y25000000D03*
D12*
X56400000Y25000000D03*
X58200000Y29300000D03*
X58200000Y20700000D03*
X62500000Y31100000D03*
X62500000Y18900000D03*
X66700000Y20600000D03*
X66800000Y29300000D03*
X68600000Y25000000D03*
G04 #@! TD*
D11*
G04 #@! TO.P,H15,1*
G04 #@! TO.N,GND*
X20300000Y80000000D03*
D12*
X20300000Y80000000D03*
X21700000Y83300000D03*
X21700000Y76700000D03*
X25000000Y84700000D03*
X25000000Y75300000D03*
X28200000Y76600000D03*
X28300000Y83300000D03*
X29700000Y80000000D03*
G04 #@! TD*
D11*
G04 #@! TO.P,H8,1*
G04 #@! TO.N,GND*
X70300000Y80000000D03*
D12*
X70300000Y80000000D03*
X71700000Y83300000D03*
X71700000Y76700000D03*
X75000000Y84700000D03*
X75000000Y75300000D03*
X78200000Y76600000D03*
X78300000Y83300000D03*
X79700000Y80000000D03*
G04 #@! TD*
D11*
G04 #@! TO.P,H16,1*
G04 #@! TO.N,GND*
X20300000Y120000000D03*
D12*
X20300000Y120000000D03*
X21700000Y123300000D03*
X21700000Y116700000D03*
X25000000Y124700000D03*
X25000000Y115300000D03*
X28200000Y116600000D03*
X28300000Y123300000D03*
X29700000Y120000000D03*
G04 #@! TD*
D13*
G04 #@! TO.P,H9,1*
G04 #@! TO.N,GND*
X68900000Y120000000D03*
D12*
X68900000Y120000000D03*
X70700000Y124300000D03*
X70700000Y115700000D03*
X75000000Y126100000D03*
X75000000Y113900000D03*
X79200000Y115600000D03*
X79300000Y124300000D03*
X81100000Y120000000D03*
G04 #@! TD*
D11*
G04 #@! TO.P,H7,1*
G04 #@! TO.N,GND*
X20300000Y165000000D03*
D12*
X20300000Y165000000D03*
X21700000Y168300000D03*
X21700000Y161700000D03*
X25000000Y169700000D03*
X25000000Y160300000D03*
X28200000Y161600000D03*
X28300000Y168300000D03*
X29700000Y165000000D03*
G04 #@! TD*
G04 #@! TA.AperFunction,Conductor*
G04 #@! TO.N,GND*
G36*
X99891621Y199929498D02*
G01*
X99938114Y199875842D01*
X99949500Y199823500D01*
X99949500Y176500D01*
X99929498Y108379D01*
X99875842Y61886D01*
X99823500Y50500D01*
X176500Y50500D01*
X108379Y70502D01*
X61886Y124158D01*
X50500Y176500D01*
X50500Y25000000D01*
X7544510Y25000000D01*
X7564459Y24555793D01*
X7624147Y24115163D01*
X7723092Y23681657D01*
X7723958Y23678990D01*
X7723963Y23678974D01*
X7848396Y23296008D01*
X7860497Y23258766D01*
X7861606Y23256170D01*
X7861610Y23256161D01*
X8034140Y22852508D01*
X8035258Y22849893D01*
X8245966Y22458333D01*
X8247519Y22455980D01*
X8247527Y22455967D01*
X8449801Y22149535D01*
X8490924Y22087236D01*
X8629543Y21913414D01*
X8766399Y21741801D01*
X8766405Y21741794D01*
X8768162Y21739591D01*
X9075446Y21418197D01*
X9410303Y21125642D01*
X9412595Y21123977D01*
X9412596Y21123976D01*
X9648286Y20952737D01*
X9770036Y20864281D01*
X10151749Y20636218D01*
X10552368Y20443289D01*
X10968669Y20287049D01*
X11397300Y20168754D01*
X11834808Y20089358D01*
X12277673Y20049500D01*
X12280495Y20049500D01*
X12719505Y20049500D01*
X12722327Y20049500D01*
X13165192Y20089358D01*
X13602700Y20168754D01*
X14031331Y20287049D01*
X14447632Y20443289D01*
X14848251Y20636218D01*
X15229964Y20864281D01*
X15589697Y21125642D01*
X15924554Y21418197D01*
X16231838Y21739591D01*
X16509076Y22087236D01*
X16754034Y22458333D01*
X16964742Y22849893D01*
X17139503Y23258766D01*
X17276908Y23681657D01*
X17375853Y24115163D01*
X17435541Y24555793D01*
X17455490Y25000000D01*
X32544510Y25000000D01*
X32544636Y24997195D01*
X32544636Y24997173D01*
X32564032Y24565294D01*
X32564459Y24555793D01*
X32624147Y24115163D01*
X32723092Y23681657D01*
X32723958Y23678990D01*
X32723963Y23678974D01*
X32848396Y23296008D01*
X32860497Y23258766D01*
X32861606Y23256170D01*
X32861610Y23256161D01*
X33034140Y22852508D01*
X33035258Y22849893D01*
X33245966Y22458333D01*
X33247519Y22455980D01*
X33247527Y22455967D01*
X33449801Y22149535D01*
X33490924Y22087236D01*
X33629543Y21913414D01*
X33766399Y21741801D01*
X33766405Y21741794D01*
X33768162Y21739591D01*
X34075446Y21418197D01*
X34410303Y21125642D01*
X34412595Y21123977D01*
X34412596Y21123976D01*
X34648286Y20952737D01*
X34770036Y20864281D01*
X35151749Y20636218D01*
X35552368Y20443289D01*
X35968669Y20287049D01*
X36397300Y20168754D01*
X36834808Y20089358D01*
X37277673Y20049500D01*
X37280495Y20049500D01*
X37719505Y20049500D01*
X37722327Y20049500D01*
X38165192Y20089358D01*
X38602700Y20168754D01*
X39031331Y20287049D01*
X39447632Y20443289D01*
X39848251Y20636218D01*
X40229964Y20864281D01*
X40589697Y21125642D01*
X40924554Y21418197D01*
X41231838Y21739591D01*
X41509076Y22087236D01*
X41754034Y22458333D01*
X41964742Y22849893D01*
X42139503Y23258766D01*
X42276908Y23681657D01*
X42375853Y24115163D01*
X42435541Y24555793D01*
X42455490Y25000000D01*
X57544510Y25000000D01*
X57544636Y24997195D01*
X57544636Y24997173D01*
X57564032Y24565294D01*
X57564459Y24555793D01*
X57624147Y24115163D01*
X57723092Y23681657D01*
X57723958Y23678990D01*
X57723963Y23678974D01*
X57848396Y23296008D01*
X57860497Y23258766D01*
X57861606Y23256170D01*
X57861610Y23256161D01*
X58034140Y22852508D01*
X58035258Y22849893D01*
X58245966Y22458333D01*
X58247519Y22455980D01*
X58247527Y22455967D01*
X58449801Y22149535D01*
X58490924Y22087236D01*
X58629543Y21913414D01*
X58766399Y21741801D01*
X58766405Y21741794D01*
X58768162Y21739591D01*
X59075446Y21418197D01*
X59410303Y21125642D01*
X59412595Y21123977D01*
X59412596Y21123976D01*
X59648286Y20952737D01*
X59770036Y20864281D01*
X60151749Y20636218D01*
X60552368Y20443289D01*
X60968669Y20287049D01*
X61397300Y20168754D01*
X61834808Y20089358D01*
X62277673Y20049500D01*
X62280495Y20049500D01*
X62719505Y20049500D01*
X62722327Y20049500D01*
X63165192Y20089358D01*
X63602700Y20168754D01*
X64031331Y20287049D01*
X64447632Y20443289D01*
X64848251Y20636218D01*
X65229964Y20864281D01*
X65589697Y21125642D01*
X65924554Y21418197D01*
X66231838Y21739591D01*
X66509076Y22087236D01*
X66754034Y22458333D01*
X66964742Y22849893D01*
X67139503Y23258766D01*
X67276908Y23681657D01*
X67375853Y24115163D01*
X67435541Y24555793D01*
X67455490Y25000000D01*
X82544510Y25000000D01*
X82564459Y24555793D01*
X82624147Y24115163D01*
X82723092Y23681657D01*
X82723958Y23678990D01*
X82723963Y23678974D01*
X82848396Y23296008D01*
X82860497Y23258766D01*
X82861606Y23256170D01*
X82861610Y23256161D01*
X83034140Y22852508D01*
X83035258Y22849893D01*
X83245966Y22458333D01*
X83247519Y22455980D01*
X83247527Y22455967D01*
X83449801Y22149535D01*
X83490924Y22087236D01*
X83629543Y21913414D01*
X83766399Y21741801D01*
X83766405Y21741794D01*
X83768162Y21739591D01*
X84075446Y21418197D01*
X84410303Y21125642D01*
X84412595Y21123977D01*
X84412596Y21123976D01*
X84648286Y20952737D01*
X84770036Y20864281D01*
X85151749Y20636218D01*
X85552368Y20443289D01*
X85968669Y20287049D01*
X86397300Y20168754D01*
X86834808Y20089358D01*
X87277673Y20049500D01*
X87280495Y20049500D01*
X87719505Y20049500D01*
X87722327Y20049500D01*
X88165192Y20089358D01*
X88602700Y20168754D01*
X89031331Y20287049D01*
X89447632Y20443289D01*
X89848251Y20636218D01*
X90229964Y20864281D01*
X90589697Y21125642D01*
X90924554Y21418197D01*
X91231838Y21739591D01*
X91509076Y22087236D01*
X91754034Y22458333D01*
X91964742Y22849893D01*
X92139503Y23258766D01*
X92276908Y23681657D01*
X92375853Y24115163D01*
X92435541Y24555793D01*
X92455490Y25000000D01*
X92435541Y25444207D01*
X92375853Y25884837D01*
X92276908Y26318343D01*
X92139503Y26741234D01*
X91964742Y27150107D01*
X91754034Y27541667D01*
X91509076Y27912764D01*
X91231838Y28260409D01*
X90924554Y28581803D01*
X90589697Y28874358D01*
X90587403Y28876025D01*
X90232248Y29134060D01*
X90232241Y29134065D01*
X90229964Y29135719D01*
X90227551Y29137161D01*
X90227543Y29137166D01*
X89850669Y29362338D01*
X89850657Y29362345D01*
X89848251Y29363782D01*
X89845716Y29365003D01*
X89845712Y29365005D01*
X89450172Y29555488D01*
X89450168Y29555490D01*
X89447632Y29556711D01*
X89444995Y29557701D01*
X89444992Y29557702D01*
X89033978Y29711958D01*
X89033969Y29711961D01*
X89031331Y29712951D01*
X88977118Y29727913D01*
X88605434Y29830492D01*
X88605422Y29830495D01*
X88602700Y29831246D01*
X88599924Y29831750D01*
X88599910Y29831753D01*
X88167972Y29910138D01*
X88167961Y29910140D01*
X88165192Y29910642D01*
X88162381Y29910895D01*
X87725135Y29950248D01*
X87725119Y29950249D01*
X87722327Y29950500D01*
X87277673Y29950500D01*
X87274881Y29950249D01*
X87274864Y29950248D01*
X86837618Y29910895D01*
X86837615Y29910895D01*
X86834808Y29910642D01*
X86832041Y29910140D01*
X86832027Y29910138D01*
X86400089Y29831753D01*
X86400070Y29831749D01*
X86397300Y29831246D01*
X86394582Y29830496D01*
X86394565Y29830492D01*
X85971400Y29713705D01*
X85971394Y29713704D01*
X85968669Y29712951D01*
X85966037Y29711964D01*
X85966021Y29711958D01*
X85555007Y29557702D01*
X85554996Y29557698D01*
X85552368Y29556711D01*
X85549839Y29555494D01*
X85549827Y29555488D01*
X85154287Y29365005D01*
X85154273Y29364998D01*
X85151749Y29363782D01*
X85149351Y29362350D01*
X85149330Y29362338D01*
X84772456Y29137166D01*
X84772438Y29137155D01*
X84770036Y29135719D01*
X84767768Y29134072D01*
X84767751Y29134060D01*
X84412596Y28876025D01*
X84412581Y28876014D01*
X84410303Y28874358D01*
X84408182Y28872506D01*
X84408167Y28872493D01*
X84077578Y28583666D01*
X84075446Y28581803D01*
X84073499Y28579767D01*
X84073490Y28579758D01*
X83770118Y28262456D01*
X83770105Y28262443D01*
X83768162Y28260409D01*
X83766414Y28258219D01*
X83766399Y28258200D01*
X83492687Y27914975D01*
X83490924Y27912764D01*
X83489371Y27910413D01*
X83489362Y27910399D01*
X83247527Y27544034D01*
X83247513Y27544012D01*
X83245966Y27541667D01*
X83244630Y27539185D01*
X83244625Y27539176D01*
X83036601Y27152604D01*
X83036595Y27152592D01*
X83035258Y27150107D01*
X83034146Y27147507D01*
X83034140Y27147493D01*
X82861610Y26743840D01*
X82861603Y26743824D01*
X82860497Y26741234D01*
X82859626Y26738556D01*
X82859622Y26738543D01*
X82723963Y26321027D01*
X82723956Y26321005D01*
X82723092Y26318343D01*
X82624147Y25884837D01*
X82564459Y25444207D01*
X82544510Y25000000D01*
X67455490Y25000000D01*
X67435541Y25444207D01*
X67375853Y25884837D01*
X67276908Y26318343D01*
X67139503Y26741234D01*
X66964742Y27150107D01*
X66754034Y27541667D01*
X66509076Y27912764D01*
X66231838Y28260409D01*
X65924554Y28581803D01*
X65589697Y28874358D01*
X65587403Y28876025D01*
X65232248Y29134060D01*
X65232241Y29134065D01*
X65229964Y29135719D01*
X65227551Y29137161D01*
X65227543Y29137166D01*
X64850669Y29362338D01*
X64850657Y29362345D01*
X64848251Y29363782D01*
X64845716Y29365003D01*
X64845712Y29365005D01*
X64450172Y29555488D01*
X64450168Y29555490D01*
X64447632Y29556711D01*
X64444995Y29557701D01*
X64444992Y29557702D01*
X64033978Y29711958D01*
X64033969Y29711961D01*
X64031331Y29712951D01*
X63977118Y29727913D01*
X63605434Y29830492D01*
X63605422Y29830495D01*
X63602700Y29831246D01*
X63599924Y29831750D01*
X63599910Y29831753D01*
X63167972Y29910138D01*
X63167961Y29910140D01*
X63165192Y29910642D01*
X63162381Y29910895D01*
X62725135Y29950248D01*
X62725119Y29950249D01*
X62722327Y29950500D01*
X62277673Y29950500D01*
X62274881Y29950249D01*
X62274864Y29950248D01*
X61837618Y29910895D01*
X61837615Y29910895D01*
X61834808Y29910642D01*
X61832041Y29910140D01*
X61832027Y29910138D01*
X61400089Y29831753D01*
X61400070Y29831749D01*
X61397300Y29831246D01*
X61394582Y29830496D01*
X61394565Y29830492D01*
X60971400Y29713705D01*
X60971394Y29713704D01*
X60968669Y29712951D01*
X60966037Y29711964D01*
X60966021Y29711958D01*
X60555007Y29557702D01*
X60554996Y29557698D01*
X60552368Y29556711D01*
X60549839Y29555494D01*
X60549827Y29555488D01*
X60154287Y29365005D01*
X60154273Y29364998D01*
X60151749Y29363782D01*
X60149351Y29362350D01*
X60149330Y29362338D01*
X59772456Y29137166D01*
X59772438Y29137155D01*
X59770036Y29135719D01*
X59767768Y29134072D01*
X59767751Y29134060D01*
X59412596Y28876025D01*
X59412581Y28876014D01*
X59410303Y28874358D01*
X59408182Y28872506D01*
X59408167Y28872493D01*
X59077578Y28583666D01*
X59075446Y28581803D01*
X59073499Y28579767D01*
X59073490Y28579758D01*
X58770118Y28262456D01*
X58770105Y28262443D01*
X58768162Y28260409D01*
X58766414Y28258219D01*
X58766399Y28258200D01*
X58492687Y27914975D01*
X58490924Y27912764D01*
X58489371Y27910413D01*
X58489362Y27910399D01*
X58247527Y27544034D01*
X58247513Y27544012D01*
X58245966Y27541667D01*
X58244630Y27539185D01*
X58244625Y27539176D01*
X58036601Y27152604D01*
X58036595Y27152592D01*
X58035258Y27150107D01*
X58034146Y27147507D01*
X58034140Y27147493D01*
X57861610Y26743840D01*
X57861603Y26743824D01*
X57860497Y26741234D01*
X57859626Y26738556D01*
X57859622Y26738543D01*
X57723963Y26321027D01*
X57723956Y26321005D01*
X57723092Y26318343D01*
X57624147Y25884837D01*
X57564459Y25444207D01*
X57564332Y25441397D01*
X57564332Y25441388D01*
X57544636Y25002828D01*
X57544636Y25002806D01*
X57544510Y25000000D01*
X42455490Y25000000D01*
X42435541Y25444207D01*
X42375853Y25884837D01*
X42276908Y26318343D01*
X42139503Y26741234D01*
X41964742Y27150107D01*
X41754034Y27541667D01*
X41509076Y27912764D01*
X41231838Y28260409D01*
X40924554Y28581803D01*
X40589697Y28874358D01*
X40587403Y28876025D01*
X40232248Y29134060D01*
X40232241Y29134065D01*
X40229964Y29135719D01*
X40227551Y29137161D01*
X40227543Y29137166D01*
X39850669Y29362338D01*
X39850657Y29362345D01*
X39848251Y29363782D01*
X39845716Y29365003D01*
X39845712Y29365005D01*
X39450172Y29555488D01*
X39450168Y29555490D01*
X39447632Y29556711D01*
X39444995Y29557701D01*
X39444992Y29557702D01*
X39033978Y29711958D01*
X39033969Y29711961D01*
X39031331Y29712951D01*
X38977118Y29727913D01*
X38605434Y29830492D01*
X38605422Y29830495D01*
X38602700Y29831246D01*
X38599924Y29831750D01*
X38599910Y29831753D01*
X38167972Y29910138D01*
X38167961Y29910140D01*
X38165192Y29910642D01*
X38162381Y29910895D01*
X37725135Y29950248D01*
X37725119Y29950249D01*
X37722327Y29950500D01*
X37277673Y29950500D01*
X37274881Y29950249D01*
X37274864Y29950248D01*
X36837618Y29910895D01*
X36837615Y29910895D01*
X36834808Y29910642D01*
X36832041Y29910140D01*
X36832027Y29910138D01*
X36400089Y29831753D01*
X36400070Y29831749D01*
X36397300Y29831246D01*
X36394582Y29830496D01*
X36394565Y29830492D01*
X35971400Y29713705D01*
X35971394Y29713704D01*
X35968669Y29712951D01*
X35966037Y29711964D01*
X35966021Y29711958D01*
X35555007Y29557702D01*
X35554996Y29557698D01*
X35552368Y29556711D01*
X35549839Y29555494D01*
X35549827Y29555488D01*
X35154287Y29365005D01*
X35154273Y29364998D01*
X35151749Y29363782D01*
X35149351Y29362350D01*
X35149330Y29362338D01*
X34772456Y29137166D01*
X34772438Y29137155D01*
X34770036Y29135719D01*
X34767768Y29134072D01*
X34767751Y29134060D01*
X34412596Y28876025D01*
X34412581Y28876014D01*
X34410303Y28874358D01*
X34408182Y28872506D01*
X34408167Y28872493D01*
X34077578Y28583666D01*
X34075446Y28581803D01*
X34073499Y28579767D01*
X34073490Y28579758D01*
X33770118Y28262456D01*
X33770105Y28262443D01*
X33768162Y28260409D01*
X33766414Y28258219D01*
X33766399Y28258200D01*
X33492687Y27914975D01*
X33490924Y27912764D01*
X33489371Y27910413D01*
X33489362Y27910399D01*
X33247527Y27544034D01*
X33247513Y27544012D01*
X33245966Y27541667D01*
X33244630Y27539185D01*
X33244625Y27539176D01*
X33036601Y27152604D01*
X33036595Y27152592D01*
X33035258Y27150107D01*
X33034146Y27147507D01*
X33034140Y27147493D01*
X32861610Y26743840D01*
X32861603Y26743824D01*
X32860497Y26741234D01*
X32859626Y26738556D01*
X32859622Y26738543D01*
X32723963Y26321027D01*
X32723956Y26321005D01*
X32723092Y26318343D01*
X32624147Y25884837D01*
X32564459Y25444207D01*
X32564332Y25441397D01*
X32564332Y25441388D01*
X32544636Y25002828D01*
X32544636Y25002806D01*
X32544510Y25000000D01*
X17455490Y25000000D01*
X17435541Y25444207D01*
X17375853Y25884837D01*
X17276908Y26318343D01*
X17139503Y26741234D01*
X16964742Y27150107D01*
X16754034Y27541667D01*
X16509076Y27912764D01*
X16231838Y28260409D01*
X15924554Y28581803D01*
X15589697Y28874358D01*
X15587403Y28876025D01*
X15232248Y29134060D01*
X15232241Y29134065D01*
X15229964Y29135719D01*
X15227551Y29137161D01*
X15227543Y29137166D01*
X14850669Y29362338D01*
X14850657Y29362345D01*
X14848251Y29363782D01*
X14845716Y29365003D01*
X14845712Y29365005D01*
X14450172Y29555488D01*
X14450168Y29555490D01*
X14447632Y29556711D01*
X14444995Y29557701D01*
X14444992Y29557702D01*
X14033978Y29711958D01*
X14033969Y29711961D01*
X14031331Y29712951D01*
X13977118Y29727913D01*
X13605434Y29830492D01*
X13605422Y29830495D01*
X13602700Y29831246D01*
X13599924Y29831750D01*
X13599910Y29831753D01*
X13167972Y29910138D01*
X13167961Y29910140D01*
X13165192Y29910642D01*
X13162381Y29910895D01*
X12725135Y29950248D01*
X12725119Y29950249D01*
X12722327Y29950500D01*
X12277673Y29950500D01*
X12274881Y29950249D01*
X12274864Y29950248D01*
X11837618Y29910895D01*
X11837615Y29910895D01*
X11834808Y29910642D01*
X11832041Y29910140D01*
X11832027Y29910138D01*
X11400089Y29831753D01*
X11400070Y29831749D01*
X11397300Y29831246D01*
X11394582Y29830496D01*
X11394565Y29830492D01*
X10971400Y29713705D01*
X10971394Y29713704D01*
X10968669Y29712951D01*
X10966037Y29711964D01*
X10966021Y29711958D01*
X10555007Y29557702D01*
X10554996Y29557698D01*
X10552368Y29556711D01*
X10549839Y29555494D01*
X10549827Y29555488D01*
X10154287Y29365005D01*
X10154273Y29364998D01*
X10151749Y29363782D01*
X10149351Y29362350D01*
X10149330Y29362338D01*
X9772456Y29137166D01*
X9772438Y29137155D01*
X9770036Y29135719D01*
X9767768Y29134072D01*
X9767751Y29134060D01*
X9412596Y28876025D01*
X9412581Y28876014D01*
X9410303Y28874358D01*
X9408182Y28872506D01*
X9408167Y28872493D01*
X9077578Y28583666D01*
X9075446Y28581803D01*
X9073499Y28579767D01*
X9073490Y28579758D01*
X8770118Y28262456D01*
X8770105Y28262443D01*
X8768162Y28260409D01*
X8766414Y28258219D01*
X8766399Y28258200D01*
X8492687Y27914975D01*
X8490924Y27912764D01*
X8489371Y27910413D01*
X8489362Y27910399D01*
X8247527Y27544034D01*
X8247513Y27544012D01*
X8245966Y27541667D01*
X8244630Y27539185D01*
X8244625Y27539176D01*
X8036601Y27152604D01*
X8036595Y27152592D01*
X8035258Y27150107D01*
X8034146Y27147507D01*
X8034140Y27147493D01*
X7861610Y26743840D01*
X7861603Y26743824D01*
X7860497Y26741234D01*
X7859626Y26738556D01*
X7859622Y26738543D01*
X7723963Y26321027D01*
X7723956Y26321005D01*
X7723092Y26318343D01*
X7624147Y25884837D01*
X7564459Y25444207D01*
X7544510Y25000000D01*
X50500Y25000000D01*
X50500Y50000000D01*
X7544510Y50000000D01*
X7564459Y49555793D01*
X7624147Y49115163D01*
X7723092Y48681657D01*
X7723958Y48678990D01*
X7723963Y48678974D01*
X7848396Y48296008D01*
X7860497Y48258766D01*
X7861606Y48256170D01*
X7861610Y48256161D01*
X8034140Y47852508D01*
X8035258Y47849893D01*
X8245966Y47458333D01*
X8247519Y47455980D01*
X8247527Y47455967D01*
X8449801Y47149535D01*
X8490924Y47087236D01*
X8629543Y46913414D01*
X8766399Y46741801D01*
X8766405Y46741794D01*
X8768162Y46739591D01*
X9075446Y46418197D01*
X9410303Y46125642D01*
X9412595Y46123977D01*
X9412596Y46123976D01*
X9648286Y45952737D01*
X9770036Y45864281D01*
X10151749Y45636218D01*
X10552368Y45443289D01*
X10968669Y45287049D01*
X11397300Y45168754D01*
X11834808Y45089358D01*
X12277673Y45049500D01*
X12280495Y45049500D01*
X12719505Y45049500D01*
X12722327Y45049500D01*
X13165192Y45089358D01*
X13602700Y45168754D01*
X14031331Y45287049D01*
X14447632Y45443289D01*
X14848251Y45636218D01*
X15229964Y45864281D01*
X15589697Y46125642D01*
X15924554Y46418197D01*
X16231838Y46739591D01*
X16509076Y47087236D01*
X16754034Y47458333D01*
X16964742Y47849893D01*
X17139503Y48258766D01*
X17276908Y48681657D01*
X17375853Y49115163D01*
X17435541Y49555793D01*
X17455490Y50000000D01*
X32544510Y50000000D01*
X32544636Y49997195D01*
X32544636Y49997173D01*
X32564032Y49565294D01*
X32564459Y49555793D01*
X32624147Y49115163D01*
X32723092Y48681657D01*
X32723958Y48678990D01*
X32723963Y48678974D01*
X32848396Y48296008D01*
X32860497Y48258766D01*
X32861606Y48256170D01*
X32861610Y48256161D01*
X33034140Y47852508D01*
X33035258Y47849893D01*
X33245966Y47458333D01*
X33247519Y47455980D01*
X33247527Y47455967D01*
X33449801Y47149535D01*
X33490924Y47087236D01*
X33629543Y46913414D01*
X33766399Y46741801D01*
X33766405Y46741794D01*
X33768162Y46739591D01*
X34075446Y46418197D01*
X34410303Y46125642D01*
X34412595Y46123977D01*
X34412596Y46123976D01*
X34648286Y45952737D01*
X34770036Y45864281D01*
X35151749Y45636218D01*
X35552368Y45443289D01*
X35968669Y45287049D01*
X36397300Y45168754D01*
X36834808Y45089358D01*
X37277673Y45049500D01*
X37280495Y45049500D01*
X37719505Y45049500D01*
X37722327Y45049500D01*
X38165192Y45089358D01*
X38602700Y45168754D01*
X39031331Y45287049D01*
X39447632Y45443289D01*
X39848251Y45636218D01*
X40229964Y45864281D01*
X40589697Y46125642D01*
X40924554Y46418197D01*
X41231838Y46739591D01*
X41509076Y47087236D01*
X41754034Y47458333D01*
X41964742Y47849893D01*
X42139503Y48258766D01*
X42276908Y48681657D01*
X42375853Y49115163D01*
X42435541Y49555793D01*
X42455490Y50000000D01*
X42435541Y50444207D01*
X42375853Y50884837D01*
X42276908Y51318343D01*
X42139503Y51741234D01*
X41964742Y52150107D01*
X41754034Y52541667D01*
X41509076Y52912764D01*
X41231838Y53260409D01*
X40924554Y53581803D01*
X40589697Y53874358D01*
X40587403Y53876025D01*
X40232248Y54134060D01*
X40232241Y54134065D01*
X40229964Y54135719D01*
X40227551Y54137161D01*
X40227543Y54137166D01*
X39850669Y54362338D01*
X39850657Y54362345D01*
X39848251Y54363782D01*
X39845716Y54365003D01*
X39845712Y54365005D01*
X39450172Y54555488D01*
X39450168Y54555490D01*
X39447632Y54556711D01*
X39444995Y54557701D01*
X39444992Y54557702D01*
X39033978Y54711958D01*
X39033969Y54711961D01*
X39031331Y54712951D01*
X38977118Y54727913D01*
X38605434Y54830492D01*
X38605422Y54830495D01*
X38602700Y54831246D01*
X38599924Y54831750D01*
X38599910Y54831753D01*
X38167972Y54910138D01*
X38167961Y54910140D01*
X38165192Y54910642D01*
X38162381Y54910895D01*
X37725135Y54950248D01*
X37725119Y54950249D01*
X37722327Y54950500D01*
X37277673Y54950500D01*
X37274881Y54950249D01*
X37274864Y54950248D01*
X36837618Y54910895D01*
X36837615Y54910895D01*
X36834808Y54910642D01*
X36832041Y54910140D01*
X36832027Y54910138D01*
X36400089Y54831753D01*
X36400070Y54831749D01*
X36397300Y54831246D01*
X36394582Y54830496D01*
X36394565Y54830492D01*
X35971400Y54713705D01*
X35971394Y54713704D01*
X35968669Y54712951D01*
X35966037Y54711964D01*
X35966021Y54711958D01*
X35555007Y54557702D01*
X35554996Y54557698D01*
X35552368Y54556711D01*
X35549839Y54555494D01*
X35549827Y54555488D01*
X35154287Y54365005D01*
X35154273Y54364998D01*
X35151749Y54363782D01*
X35149351Y54362350D01*
X35149330Y54362338D01*
X34772456Y54137166D01*
X34772438Y54137155D01*
X34770036Y54135719D01*
X34767768Y54134072D01*
X34767751Y54134060D01*
X34412596Y53876025D01*
X34412581Y53876014D01*
X34410303Y53874358D01*
X34408182Y53872506D01*
X34408167Y53872493D01*
X34077578Y53583666D01*
X34075446Y53581803D01*
X34073499Y53579767D01*
X34073490Y53579758D01*
X33770118Y53262456D01*
X33770105Y53262443D01*
X33768162Y53260409D01*
X33766414Y53258219D01*
X33766399Y53258200D01*
X33492687Y52914975D01*
X33490924Y52912764D01*
X33489371Y52910413D01*
X33489362Y52910399D01*
X33247527Y52544034D01*
X33247513Y52544012D01*
X33245966Y52541667D01*
X33244630Y52539185D01*
X33244625Y52539176D01*
X33036601Y52152604D01*
X33036595Y52152592D01*
X33035258Y52150107D01*
X33034146Y52147507D01*
X33034140Y52147493D01*
X32861610Y51743840D01*
X32861603Y51743824D01*
X32860497Y51741234D01*
X32859626Y51738556D01*
X32859622Y51738543D01*
X32723963Y51321027D01*
X32723956Y51321005D01*
X32723092Y51318343D01*
X32624147Y50884837D01*
X32564459Y50444207D01*
X32564332Y50441397D01*
X32564332Y50441388D01*
X32544636Y50002828D01*
X32544636Y50002806D01*
X32544510Y50000000D01*
X17455490Y50000000D01*
X17435541Y50444207D01*
X17375853Y50884837D01*
X17276908Y51318343D01*
X17139503Y51741234D01*
X16964742Y52150107D01*
X16754034Y52541667D01*
X16509076Y52912764D01*
X16231838Y53260409D01*
X15924554Y53581803D01*
X15589697Y53874358D01*
X15587403Y53876025D01*
X15232248Y54134060D01*
X15232241Y54134065D01*
X15229964Y54135719D01*
X15227551Y54137161D01*
X15227543Y54137166D01*
X14850669Y54362338D01*
X14850657Y54362345D01*
X14848251Y54363782D01*
X14845716Y54365003D01*
X14845712Y54365005D01*
X14450172Y54555488D01*
X14450168Y54555490D01*
X14447632Y54556711D01*
X14444995Y54557701D01*
X14444992Y54557702D01*
X14033978Y54711958D01*
X14033969Y54711961D01*
X14031331Y54712951D01*
X13977118Y54727913D01*
X13605434Y54830492D01*
X13605422Y54830495D01*
X13602700Y54831246D01*
X13599924Y54831750D01*
X13599910Y54831753D01*
X13167972Y54910138D01*
X13167961Y54910140D01*
X13165192Y54910642D01*
X13162381Y54910895D01*
X12725135Y54950248D01*
X12725119Y54950249D01*
X12722327Y54950500D01*
X12277673Y54950500D01*
X12274881Y54950249D01*
X12274864Y54950248D01*
X11837618Y54910895D01*
X11837615Y54910895D01*
X11834808Y54910642D01*
X11832041Y54910140D01*
X11832027Y54910138D01*
X11400089Y54831753D01*
X11400070Y54831749D01*
X11397300Y54831246D01*
X11394582Y54830496D01*
X11394565Y54830492D01*
X10971400Y54713705D01*
X10971394Y54713704D01*
X10968669Y54712951D01*
X10966037Y54711964D01*
X10966021Y54711958D01*
X10555007Y54557702D01*
X10554996Y54557698D01*
X10552368Y54556711D01*
X10549839Y54555494D01*
X10549827Y54555488D01*
X10154287Y54365005D01*
X10154273Y54364998D01*
X10151749Y54363782D01*
X10149351Y54362350D01*
X10149330Y54362338D01*
X9772456Y54137166D01*
X9772438Y54137155D01*
X9770036Y54135719D01*
X9767768Y54134072D01*
X9767751Y54134060D01*
X9412596Y53876025D01*
X9412581Y53876014D01*
X9410303Y53874358D01*
X9408182Y53872506D01*
X9408167Y53872493D01*
X9077578Y53583666D01*
X9075446Y53581803D01*
X9073499Y53579767D01*
X9073490Y53579758D01*
X8770118Y53262456D01*
X8770105Y53262443D01*
X8768162Y53260409D01*
X8766414Y53258219D01*
X8766399Y53258200D01*
X8492687Y52914975D01*
X8490924Y52912764D01*
X8489371Y52910413D01*
X8489362Y52910399D01*
X8247527Y52544034D01*
X8247513Y52544012D01*
X8245966Y52541667D01*
X8244630Y52539185D01*
X8244625Y52539176D01*
X8036601Y52152604D01*
X8036595Y52152592D01*
X8035258Y52150107D01*
X8034146Y52147507D01*
X8034140Y52147493D01*
X7861610Y51743840D01*
X7861603Y51743824D01*
X7860497Y51741234D01*
X7859626Y51738556D01*
X7859622Y51738543D01*
X7723963Y51321027D01*
X7723956Y51321005D01*
X7723092Y51318343D01*
X7624147Y50884837D01*
X7564459Y50444207D01*
X7544510Y50000000D01*
X50500Y50000000D01*
X50500Y80000000D01*
X21244680Y80000000D01*
X21244842Y79996806D01*
X21263784Y79623279D01*
X21263785Y79623263D01*
X21263947Y79620081D01*
X21321552Y79244060D01*
X21322346Y79240993D01*
X21322349Y79240979D01*
X21416103Y78878881D01*
X21416902Y78875796D01*
X21549019Y78519068D01*
X21550426Y78516200D01*
X21550428Y78516195D01*
X21715137Y78180413D01*
X21715143Y78180402D01*
X21716549Y78177536D01*
X21917771Y77854705D01*
X22150620Y77553888D01*
X22152816Y77551578D01*
X22403467Y77287893D01*
X22412709Y77278171D01*
X22701346Y77030384D01*
X23013571Y76813069D01*
X23346179Y76628457D01*
X23695758Y76478441D01*
X24058720Y76364561D01*
X24431340Y76287985D01*
X24809796Y76249500D01*
X24812996Y76249500D01*
X25187004Y76249500D01*
X25190204Y76249500D01*
X25568660Y76287985D01*
X25941280Y76364561D01*
X26304242Y76478441D01*
X26653821Y76628457D01*
X26986429Y76813069D01*
X27298654Y77030384D01*
X27587291Y77278171D01*
X27849380Y77553888D01*
X28082229Y77854705D01*
X28283451Y78177536D01*
X28450981Y78519068D01*
X28583098Y78875796D01*
X28678448Y79244060D01*
X28736053Y79620081D01*
X28755320Y80000000D01*
X71244680Y80000000D01*
X71244842Y79996806D01*
X71263784Y79623279D01*
X71263785Y79623263D01*
X71263947Y79620081D01*
X71321552Y79244060D01*
X71322346Y79240993D01*
X71322349Y79240979D01*
X71416103Y78878881D01*
X71416902Y78875796D01*
X71549019Y78519068D01*
X71550426Y78516200D01*
X71550428Y78516195D01*
X71715137Y78180413D01*
X71715143Y78180402D01*
X71716549Y78177536D01*
X71917771Y77854705D01*
X72150620Y77553888D01*
X72152816Y77551578D01*
X72403467Y77287893D01*
X72412709Y77278171D01*
X72701346Y77030384D01*
X73013571Y76813069D01*
X73346179Y76628457D01*
X73695758Y76478441D01*
X74058720Y76364561D01*
X74431340Y76287985D01*
X74809796Y76249500D01*
X74812996Y76249500D01*
X75187004Y76249500D01*
X75190204Y76249500D01*
X75568660Y76287985D01*
X75941280Y76364561D01*
X76304242Y76478441D01*
X76653821Y76628457D01*
X76986429Y76813069D01*
X77298654Y77030384D01*
X77587291Y77278171D01*
X77849380Y77553888D01*
X78082229Y77854705D01*
X78283451Y78177536D01*
X78450981Y78519068D01*
X78583098Y78875796D01*
X78678448Y79244060D01*
X78736053Y79620081D01*
X78755320Y80000000D01*
X78736053Y80379919D01*
X78678448Y80755940D01*
X78583098Y81124204D01*
X78450981Y81480932D01*
X78283451Y81822464D01*
X78082229Y82145295D01*
X77849380Y82446112D01*
X77587291Y82721829D01*
X77584876Y82723902D01*
X77584871Y82723907D01*
X77301084Y82967530D01*
X77301082Y82967531D01*
X77298654Y82969616D01*
X77296034Y82971440D01*
X77296027Y82971445D01*
X76989054Y83185104D01*
X76989053Y83185105D01*
X76986429Y83186931D01*
X76983643Y83188478D01*
X76983634Y83188483D01*
X76656604Y83369999D01*
X76656593Y83370005D01*
X76653821Y83371543D01*
X76650908Y83372793D01*
X76650896Y83372799D01*
X76307165Y83520305D01*
X76307158Y83520308D01*
X76304242Y83521559D01*
X76142445Y83572323D01*
X75944312Y83634488D01*
X75944306Y83634490D01*
X75941280Y83635439D01*
X75938175Y83636077D01*
X75938164Y83636080D01*
X75571784Y83711373D01*
X75571783Y83711374D01*
X75568660Y83712015D01*
X75565496Y83712337D01*
X75565488Y83712338D01*
X75193383Y83750177D01*
X75193377Y83750178D01*
X75190204Y83750500D01*
X74809796Y83750500D01*
X74806623Y83750178D01*
X74806616Y83750177D01*
X74434511Y83712338D01*
X74434500Y83712337D01*
X74431340Y83712015D01*
X74428219Y83711374D01*
X74428215Y83711373D01*
X74061835Y83636080D01*
X74061819Y83636076D01*
X74058720Y83635439D01*
X74055698Y83634491D01*
X74055687Y83634488D01*
X73698792Y83522511D01*
X73695758Y83521559D01*
X73692847Y83520310D01*
X73692834Y83520305D01*
X73349103Y83372799D01*
X73349083Y83372790D01*
X73346179Y83371543D01*
X73343414Y83370009D01*
X73343395Y83369999D01*
X73016365Y83188483D01*
X73016347Y83188472D01*
X73013571Y83186931D01*
X73010955Y83185111D01*
X73010945Y83185104D01*
X72703972Y82971445D01*
X72703956Y82971433D01*
X72701346Y82969616D01*
X72698926Y82967539D01*
X72698915Y82967530D01*
X72415128Y82723907D01*
X72415113Y82723894D01*
X72412709Y82721829D01*
X72410525Y82719533D01*
X72410515Y82719522D01*
X72152816Y82448423D01*
X72152808Y82448415D01*
X72150620Y82446112D01*
X72148675Y82443600D01*
X72148667Y82443590D01*
X71919728Y82147824D01*
X71919722Y82147817D01*
X71917771Y82145295D01*
X71916081Y82142585D01*
X71916077Y82142578D01*
X71718245Y81825186D01*
X71718239Y81825177D01*
X71716549Y81822464D01*
X71715147Y81819608D01*
X71715137Y81819588D01*
X71550428Y81483806D01*
X71550422Y81483794D01*
X71549019Y81480932D01*
X71547912Y81477946D01*
X71547908Y81477934D01*
X71418218Y81127758D01*
X71416902Y81124204D01*
X71416105Y81121130D01*
X71416103Y81121120D01*
X71322349Y80759022D01*
X71322345Y80759004D01*
X71321552Y80755940D01*
X71321071Y80752803D01*
X71321069Y80752791D01*
X71264431Y80383081D01*
X71263947Y80379919D01*
X71263785Y80376740D01*
X71263784Y80376722D01*
X71244842Y80003195D01*
X71244680Y80000000D01*
X28755320Y80000000D01*
X28736053Y80379919D01*
X28678448Y80755940D01*
X28583098Y81124204D01*
X28450981Y81480932D01*
X28283451Y81822464D01*
X28082229Y82145295D01*
X27849380Y82446112D01*
X27587291Y82721829D01*
X27584876Y82723902D01*
X27584871Y82723907D01*
X27301084Y82967530D01*
X27301082Y82967531D01*
X27298654Y82969616D01*
X27296034Y82971440D01*
X27296027Y82971445D01*
X26989054Y83185104D01*
X26989053Y83185105D01*
X26986429Y83186931D01*
X26983643Y83188478D01*
X26983634Y83188483D01*
X26656604Y83369999D01*
X26656593Y83370005D01*
X26653821Y83371543D01*
X26650908Y83372793D01*
X26650896Y83372799D01*
X26307165Y83520305D01*
X26307158Y83520308D01*
X26304242Y83521559D01*
X26142445Y83572323D01*
X25944312Y83634488D01*
X25944306Y83634490D01*
X25941280Y83635439D01*
X25938175Y83636077D01*
X25938164Y83636080D01*
X25571784Y83711373D01*
X25571783Y83711374D01*
X25568660Y83712015D01*
X25565496Y83712337D01*
X25565488Y83712338D01*
X25193383Y83750177D01*
X25193377Y83750178D01*
X25190204Y83750500D01*
X24809796Y83750500D01*
X24806623Y83750178D01*
X24806616Y83750177D01*
X24434511Y83712338D01*
X24434500Y83712337D01*
X24431340Y83712015D01*
X24428219Y83711374D01*
X24428215Y83711373D01*
X24061835Y83636080D01*
X24061819Y83636076D01*
X24058720Y83635439D01*
X24055698Y83634491D01*
X24055687Y83634488D01*
X23698792Y83522511D01*
X23695758Y83521559D01*
X23692847Y83520310D01*
X23692834Y83520305D01*
X23349103Y83372799D01*
X23349083Y83372790D01*
X23346179Y83371543D01*
X23343414Y83370009D01*
X23343395Y83369999D01*
X23016365Y83188483D01*
X23016347Y83188472D01*
X23013571Y83186931D01*
X23010955Y83185111D01*
X23010945Y83185104D01*
X22703972Y82971445D01*
X22703956Y82971433D01*
X22701346Y82969616D01*
X22698926Y82967539D01*
X22698915Y82967530D01*
X22415128Y82723907D01*
X22415113Y82723894D01*
X22412709Y82721829D01*
X22410525Y82719533D01*
X22410515Y82719522D01*
X22152816Y82448423D01*
X22152808Y82448415D01*
X22150620Y82446112D01*
X22148675Y82443600D01*
X22148667Y82443590D01*
X21919728Y82147824D01*
X21919722Y82147817D01*
X21917771Y82145295D01*
X21916081Y82142585D01*
X21916077Y82142578D01*
X21718245Y81825186D01*
X21718239Y81825177D01*
X21716549Y81822464D01*
X21715147Y81819608D01*
X21715137Y81819588D01*
X21550428Y81483806D01*
X21550422Y81483794D01*
X21549019Y81480932D01*
X21547912Y81477946D01*
X21547908Y81477934D01*
X21418218Y81127758D01*
X21416902Y81124204D01*
X21416105Y81121130D01*
X21416103Y81121120D01*
X21322349Y80759022D01*
X21322345Y80759004D01*
X21321552Y80755940D01*
X21321071Y80752803D01*
X21321069Y80752791D01*
X21264431Y80383081D01*
X21263947Y80379919D01*
X21263785Y80376740D01*
X21263784Y80376722D01*
X21244842Y80003195D01*
X21244680Y80000000D01*
X50500Y80000000D01*
X50500Y120000000D01*
X21244680Y120000000D01*
X21244842Y119996806D01*
X21263784Y119623279D01*
X21263785Y119623263D01*
X21263947Y119620081D01*
X21264430Y119616925D01*
X21264431Y119616920D01*
X21273795Y119555793D01*
X21321552Y119244060D01*
X21322346Y119240993D01*
X21322349Y119240979D01*
X21355640Y119112403D01*
X21416902Y118875796D01*
X21418009Y118872807D01*
X21489796Y118678974D01*
X21549019Y118519068D01*
X21550426Y118516200D01*
X21550428Y118516195D01*
X21715137Y118180413D01*
X21715143Y118180402D01*
X21716549Y118177536D01*
X21917771Y117854705D01*
X22150620Y117553888D01*
X22152816Y117551578D01*
X22403467Y117287893D01*
X22412709Y117278171D01*
X22701346Y117030384D01*
X23013571Y116813069D01*
X23016361Y116811520D01*
X23016365Y116811518D01*
X23149639Y116737545D01*
X23346179Y116628457D01*
X23695758Y116478441D01*
X24058720Y116364561D01*
X24431340Y116287985D01*
X24809796Y116249500D01*
X24812996Y116249500D01*
X25187004Y116249500D01*
X25190204Y116249500D01*
X25568660Y116287985D01*
X25941280Y116364561D01*
X26304242Y116478441D01*
X26653821Y116628457D01*
X26986429Y116813069D01*
X27298654Y117030384D01*
X27587291Y117278171D01*
X27849380Y117553888D01*
X28082229Y117854705D01*
X28283451Y118177536D01*
X28450981Y118519068D01*
X28583098Y118875796D01*
X28678448Y119244060D01*
X28736053Y119620081D01*
X28755320Y120000000D01*
X70044510Y120000000D01*
X70064459Y119555793D01*
X70064837Y119553003D01*
X70106686Y119244060D01*
X70124147Y119115163D01*
X70223092Y118681657D01*
X70223958Y118678990D01*
X70223963Y118678974D01*
X70348396Y118296008D01*
X70360497Y118258766D01*
X70361606Y118256170D01*
X70361610Y118256161D01*
X70533127Y117854878D01*
X70535258Y117849893D01*
X70536599Y117847400D01*
X70536601Y117847397D01*
X70695789Y117551578D01*
X70745966Y117458333D01*
X70747519Y117455980D01*
X70747527Y117455967D01*
X70864889Y117278171D01*
X70990924Y117087236D01*
X71022619Y117047492D01*
X71266399Y116741801D01*
X71266405Y116741794D01*
X71268162Y116739591D01*
X71575446Y116418197D01*
X71910303Y116125642D01*
X71912595Y116123977D01*
X71912596Y116123976D01*
X72148286Y115952737D01*
X72270036Y115864281D01*
X72651749Y115636218D01*
X73052368Y115443289D01*
X73468669Y115287049D01*
X73897300Y115168754D01*
X74334808Y115089358D01*
X74777673Y115049500D01*
X74780495Y115049500D01*
X75219505Y115049500D01*
X75222327Y115049500D01*
X75665192Y115089358D01*
X76102700Y115168754D01*
X76531331Y115287049D01*
X76947632Y115443289D01*
X77348251Y115636218D01*
X77729964Y115864281D01*
X78089697Y116125642D01*
X78424554Y116418197D01*
X78731838Y116739591D01*
X79009076Y117087236D01*
X79254034Y117458333D01*
X79464742Y117849893D01*
X79639503Y118258766D01*
X79776908Y118681657D01*
X79875853Y119115163D01*
X79935541Y119555793D01*
X79955490Y120000000D01*
X79935541Y120444207D01*
X79875853Y120884837D01*
X79776908Y121318343D01*
X79639503Y121741234D01*
X79464742Y122150107D01*
X79254034Y122541667D01*
X79136633Y122719522D01*
X79010637Y122910399D01*
X79009076Y122912764D01*
X78731838Y123260409D01*
X78424554Y123581803D01*
X78089697Y123874358D01*
X78087403Y123876025D01*
X77732248Y124134060D01*
X77732241Y124134065D01*
X77729964Y124135719D01*
X77727551Y124137161D01*
X77727543Y124137166D01*
X77350669Y124362338D01*
X77350657Y124362345D01*
X77348251Y124363782D01*
X77345716Y124365003D01*
X77345712Y124365005D01*
X76950172Y124555488D01*
X76950168Y124555490D01*
X76947632Y124556711D01*
X76944995Y124557701D01*
X76944992Y124557702D01*
X76533978Y124711958D01*
X76533969Y124711961D01*
X76531331Y124712951D01*
X76477118Y124727913D01*
X76105434Y124830492D01*
X76105422Y124830495D01*
X76102700Y124831246D01*
X76099924Y124831750D01*
X76099910Y124831753D01*
X75667972Y124910138D01*
X75667961Y124910140D01*
X75665192Y124910642D01*
X75662381Y124910895D01*
X75225135Y124950248D01*
X75225119Y124950249D01*
X75222327Y124950500D01*
X74777673Y124950500D01*
X74774881Y124950249D01*
X74774864Y124950248D01*
X74337618Y124910895D01*
X74337615Y124910895D01*
X74334808Y124910642D01*
X74332041Y124910140D01*
X74332027Y124910138D01*
X73900089Y124831753D01*
X73900070Y124831749D01*
X73897300Y124831246D01*
X73894582Y124830496D01*
X73894565Y124830492D01*
X73471400Y124713705D01*
X73471394Y124713704D01*
X73468669Y124712951D01*
X73466037Y124711964D01*
X73466021Y124711958D01*
X73055007Y124557702D01*
X73054996Y124557698D01*
X73052368Y124556711D01*
X73049839Y124555494D01*
X73049827Y124555488D01*
X72654287Y124365005D01*
X72654273Y124364998D01*
X72651749Y124363782D01*
X72649351Y124362350D01*
X72649330Y124362338D01*
X72272456Y124137166D01*
X72272438Y124137155D01*
X72270036Y124135719D01*
X72267768Y124134072D01*
X72267751Y124134060D01*
X71912596Y123876025D01*
X71912581Y123876014D01*
X71910303Y123874358D01*
X71908182Y123872506D01*
X71908167Y123872493D01*
X71577578Y123583666D01*
X71575446Y123581803D01*
X71573499Y123579767D01*
X71573490Y123579758D01*
X71270118Y123262456D01*
X71270105Y123262443D01*
X71268162Y123260409D01*
X71266414Y123258219D01*
X71266399Y123258200D01*
X70992687Y122914975D01*
X70990924Y122912764D01*
X70989371Y122910413D01*
X70989362Y122910399D01*
X70747527Y122544034D01*
X70747513Y122544012D01*
X70745966Y122541667D01*
X70744630Y122539185D01*
X70744625Y122539176D01*
X70536601Y122152604D01*
X70536595Y122152592D01*
X70535258Y122150107D01*
X70534146Y122147507D01*
X70534140Y122147493D01*
X70361610Y121743840D01*
X70361603Y121743824D01*
X70360497Y121741234D01*
X70359626Y121738556D01*
X70359622Y121738543D01*
X70223963Y121321027D01*
X70223956Y121321005D01*
X70223092Y121318343D01*
X70124147Y120884837D01*
X70123768Y120882045D01*
X70123767Y120882035D01*
X70106260Y120752791D01*
X70064459Y120444207D01*
X70064332Y120441397D01*
X70064332Y120441388D01*
X70061572Y120379919D01*
X70044510Y120000000D01*
X28755320Y120000000D01*
X28736053Y120379919D01*
X28678448Y120755940D01*
X28583098Y121124204D01*
X28450981Y121480932D01*
X28370461Y121645083D01*
X28284862Y121819588D01*
X28284859Y121819592D01*
X28283451Y121822464D01*
X28082229Y122145295D01*
X27849380Y122446112D01*
X27587291Y122721829D01*
X27584876Y122723902D01*
X27584871Y122723907D01*
X27301084Y122967530D01*
X27301082Y122967531D01*
X27298654Y122969616D01*
X27296034Y122971440D01*
X27296027Y122971445D01*
X26989054Y123185104D01*
X26989053Y123185105D01*
X26986429Y123186931D01*
X26983643Y123188478D01*
X26983634Y123188483D01*
X26656604Y123369999D01*
X26656593Y123370005D01*
X26653821Y123371543D01*
X26650908Y123372793D01*
X26650896Y123372799D01*
X26307165Y123520305D01*
X26307158Y123520308D01*
X26304242Y123521559D01*
X26118748Y123579758D01*
X25944312Y123634488D01*
X25944306Y123634490D01*
X25941280Y123635439D01*
X25938175Y123636077D01*
X25938164Y123636080D01*
X25571784Y123711373D01*
X25571783Y123711374D01*
X25568660Y123712015D01*
X25565496Y123712337D01*
X25565488Y123712338D01*
X25193383Y123750177D01*
X25193377Y123750178D01*
X25190204Y123750500D01*
X24809796Y123750500D01*
X24806623Y123750178D01*
X24806616Y123750177D01*
X24434511Y123712338D01*
X24434500Y123712337D01*
X24431340Y123712015D01*
X24428219Y123711374D01*
X24428215Y123711373D01*
X24061835Y123636080D01*
X24061819Y123636076D01*
X24058720Y123635439D01*
X24055698Y123634491D01*
X24055687Y123634488D01*
X23698792Y123522511D01*
X23695758Y123521559D01*
X23692847Y123520310D01*
X23692834Y123520305D01*
X23349103Y123372799D01*
X23349083Y123372790D01*
X23346179Y123371543D01*
X23343414Y123370009D01*
X23343395Y123369999D01*
X23016365Y123188483D01*
X23016347Y123188472D01*
X23013571Y123186931D01*
X23010955Y123185111D01*
X23010945Y123185104D01*
X22703972Y122971445D01*
X22703956Y122971433D01*
X22701346Y122969616D01*
X22698926Y122967539D01*
X22698915Y122967530D01*
X22415128Y122723907D01*
X22415113Y122723894D01*
X22412709Y122721829D01*
X22410525Y122719533D01*
X22410515Y122719522D01*
X22152816Y122448423D01*
X22152808Y122448415D01*
X22150620Y122446112D01*
X22148675Y122443600D01*
X22148667Y122443590D01*
X21919728Y122147824D01*
X21919722Y122147817D01*
X21917771Y122145295D01*
X21916081Y122142585D01*
X21916077Y122142578D01*
X21718245Y121825186D01*
X21718239Y121825177D01*
X21716549Y121822464D01*
X21715147Y121819608D01*
X21715137Y121819588D01*
X21550428Y121483806D01*
X21550422Y121483794D01*
X21549019Y121480932D01*
X21547912Y121477946D01*
X21547908Y121477934D01*
X21418218Y121127758D01*
X21416902Y121124204D01*
X21416105Y121121130D01*
X21416103Y121121120D01*
X21322349Y120759022D01*
X21322345Y120759004D01*
X21321552Y120755940D01*
X21321071Y120752803D01*
X21321069Y120752791D01*
X21272340Y120434706D01*
X21263947Y120379919D01*
X21263785Y120376740D01*
X21263784Y120376722D01*
X21244842Y120003195D01*
X21244680Y120000000D01*
X50500Y120000000D01*
X50500Y165000000D01*
X21244680Y165000000D01*
X21244842Y164996806D01*
X21263784Y164623279D01*
X21263785Y164623263D01*
X21263947Y164620081D01*
X21321552Y164244060D01*
X21322346Y164240993D01*
X21322349Y164240979D01*
X21416103Y163878881D01*
X21416902Y163875796D01*
X21549019Y163519068D01*
X21550426Y163516200D01*
X21550428Y163516195D01*
X21715137Y163180413D01*
X21715143Y163180402D01*
X21716549Y163177536D01*
X21917771Y162854705D01*
X22150620Y162553888D01*
X22152816Y162551578D01*
X22403467Y162287893D01*
X22412709Y162278171D01*
X22701346Y162030384D01*
X23013571Y161813069D01*
X23346179Y161628457D01*
X23695758Y161478441D01*
X24058720Y161364561D01*
X24431340Y161287985D01*
X24809796Y161249500D01*
X24812996Y161249500D01*
X25187004Y161249500D01*
X25190204Y161249500D01*
X25568660Y161287985D01*
X25941280Y161364561D01*
X26304242Y161478441D01*
X26653821Y161628457D01*
X26986429Y161813069D01*
X27298654Y162030384D01*
X27587291Y162278171D01*
X27849380Y162553888D01*
X28082229Y162854705D01*
X28283451Y163177536D01*
X28450981Y163519068D01*
X28583098Y163875796D01*
X28678448Y164244060D01*
X28736053Y164620081D01*
X28755320Y165000000D01*
X71244680Y165000000D01*
X71244842Y164996806D01*
X71263784Y164623279D01*
X71263785Y164623263D01*
X71263947Y164620081D01*
X71321552Y164244060D01*
X71322346Y164240993D01*
X71322349Y164240979D01*
X71416103Y163878881D01*
X71416902Y163875796D01*
X71549019Y163519068D01*
X71550426Y163516200D01*
X71550428Y163516195D01*
X71715137Y163180413D01*
X71715143Y163180402D01*
X71716549Y163177536D01*
X71917771Y162854705D01*
X72150620Y162553888D01*
X72152816Y162551578D01*
X72403467Y162287893D01*
X72412709Y162278171D01*
X72701346Y162030384D01*
X73013571Y161813069D01*
X73346179Y161628457D01*
X73695758Y161478441D01*
X74058720Y161364561D01*
X74431340Y161287985D01*
X74809796Y161249500D01*
X74812996Y161249500D01*
X75187004Y161249500D01*
X75190204Y161249500D01*
X75568660Y161287985D01*
X75941280Y161364561D01*
X76304242Y161478441D01*
X76653821Y161628457D01*
X76986429Y161813069D01*
X77298654Y162030384D01*
X77587291Y162278171D01*
X77849380Y162553888D01*
X78082229Y162854705D01*
X78283451Y163177536D01*
X78450981Y163519068D01*
X78583098Y163875796D01*
X78678448Y164244060D01*
X78736053Y164620081D01*
X78755320Y165000000D01*
X78736053Y165379919D01*
X78678448Y165755940D01*
X78583098Y166124204D01*
X78450981Y166480932D01*
X78283451Y166822464D01*
X78082229Y167145295D01*
X77849380Y167446112D01*
X77587291Y167721829D01*
X77584876Y167723902D01*
X77584871Y167723907D01*
X77301084Y167967530D01*
X77301082Y167967531D01*
X77298654Y167969616D01*
X77296034Y167971440D01*
X77296027Y167971445D01*
X76989054Y168185104D01*
X76989053Y168185105D01*
X76986429Y168186931D01*
X76983643Y168188478D01*
X76983634Y168188483D01*
X76656604Y168369999D01*
X76656593Y168370005D01*
X76653821Y168371543D01*
X76650908Y168372793D01*
X76650896Y168372799D01*
X76307165Y168520305D01*
X76307158Y168520308D01*
X76304242Y168521559D01*
X76142445Y168572323D01*
X75944312Y168634488D01*
X75944306Y168634490D01*
X75941280Y168635439D01*
X75938175Y168636077D01*
X75938164Y168636080D01*
X75571784Y168711373D01*
X75571783Y168711374D01*
X75568660Y168712015D01*
X75565496Y168712337D01*
X75565488Y168712338D01*
X75193383Y168750177D01*
X75193377Y168750178D01*
X75190204Y168750500D01*
X74809796Y168750500D01*
X74806623Y168750178D01*
X74806616Y168750177D01*
X74434511Y168712338D01*
X74434500Y168712337D01*
X74431340Y168712015D01*
X74428219Y168711374D01*
X74428215Y168711373D01*
X74061835Y168636080D01*
X74061819Y168636076D01*
X74058720Y168635439D01*
X74055698Y168634491D01*
X74055687Y168634488D01*
X73698792Y168522511D01*
X73695758Y168521559D01*
X73692847Y168520310D01*
X73692834Y168520305D01*
X73349103Y168372799D01*
X73349083Y168372790D01*
X73346179Y168371543D01*
X73343414Y168370009D01*
X73343395Y168369999D01*
X73016365Y168188483D01*
X73016347Y168188472D01*
X73013571Y168186931D01*
X73010955Y168185111D01*
X73010945Y168185104D01*
X72703972Y167971445D01*
X72703956Y167971433D01*
X72701346Y167969616D01*
X72698926Y167967539D01*
X72698915Y167967530D01*
X72415128Y167723907D01*
X72415113Y167723894D01*
X72412709Y167721829D01*
X72410525Y167719533D01*
X72410515Y167719522D01*
X72152816Y167448423D01*
X72152808Y167448415D01*
X72150620Y167446112D01*
X72148675Y167443600D01*
X72148667Y167443590D01*
X71919728Y167147824D01*
X71919722Y167147817D01*
X71917771Y167145295D01*
X71916081Y167142585D01*
X71916077Y167142578D01*
X71718245Y166825186D01*
X71718239Y166825177D01*
X71716549Y166822464D01*
X71715147Y166819608D01*
X71715137Y166819588D01*
X71550428Y166483806D01*
X71550422Y166483794D01*
X71549019Y166480932D01*
X71547912Y166477946D01*
X71547908Y166477934D01*
X71418218Y166127758D01*
X71416902Y166124204D01*
X71416105Y166121130D01*
X71416103Y166121120D01*
X71322349Y165759022D01*
X71322345Y165759004D01*
X71321552Y165755940D01*
X71321071Y165752803D01*
X71321069Y165752791D01*
X71264431Y165383081D01*
X71263947Y165379919D01*
X71263785Y165376740D01*
X71263784Y165376722D01*
X71244842Y165003195D01*
X71244680Y165000000D01*
X28755320Y165000000D01*
X28736053Y165379919D01*
X28678448Y165755940D01*
X28583098Y166124204D01*
X28450981Y166480932D01*
X28283451Y166822464D01*
X28082229Y167145295D01*
X27849380Y167446112D01*
X27587291Y167721829D01*
X27584876Y167723902D01*
X27584871Y167723907D01*
X27301084Y167967530D01*
X27301082Y167967531D01*
X27298654Y167969616D01*
X27296034Y167971440D01*
X27296027Y167971445D01*
X26989054Y168185104D01*
X26989053Y168185105D01*
X26986429Y168186931D01*
X26983643Y168188478D01*
X26983634Y168188483D01*
X26656604Y168369999D01*
X26656593Y168370005D01*
X26653821Y168371543D01*
X26650908Y168372793D01*
X26650896Y168372799D01*
X26307165Y168520305D01*
X26307158Y168520308D01*
X26304242Y168521559D01*
X26142445Y168572323D01*
X25944312Y168634488D01*
X25944306Y168634490D01*
X25941280Y168635439D01*
X25938175Y168636077D01*
X25938164Y168636080D01*
X25571784Y168711373D01*
X25571783Y168711374D01*
X25568660Y168712015D01*
X25565496Y168712337D01*
X25565488Y168712338D01*
X25193383Y168750177D01*
X25193377Y168750178D01*
X25190204Y168750500D01*
X24809796Y168750500D01*
X24806623Y168750178D01*
X24806616Y168750177D01*
X24434511Y168712338D01*
X24434500Y168712337D01*
X24431340Y168712015D01*
X24428219Y168711374D01*
X24428215Y168711373D01*
X24061835Y168636080D01*
X24061819Y168636076D01*
X24058720Y168635439D01*
X24055698Y168634491D01*
X24055687Y168634488D01*
X23698792Y168522511D01*
X23695758Y168521559D01*
X23692847Y168520310D01*
X23692834Y168520305D01*
X23349103Y168372799D01*
X23349083Y168372790D01*
X23346179Y168371543D01*
X23343414Y168370009D01*
X23343395Y168369999D01*
X23016365Y168188483D01*
X23016347Y168188472D01*
X23013571Y168186931D01*
X23010955Y168185111D01*
X23010945Y168185104D01*
X22703972Y167971445D01*
X22703956Y167971433D01*
X22701346Y167969616D01*
X22698926Y167967539D01*
X22698915Y167967530D01*
X22415128Y167723907D01*
X22415113Y167723894D01*
X22412709Y167721829D01*
X22410525Y167719533D01*
X22410515Y167719522D01*
X22152816Y167448423D01*
X22152808Y167448415D01*
X22150620Y167446112D01*
X22148675Y167443600D01*
X22148667Y167443590D01*
X21919728Y167147824D01*
X21919722Y167147817D01*
X21917771Y167145295D01*
X21916081Y167142585D01*
X21916077Y167142578D01*
X21718245Y166825186D01*
X21718239Y166825177D01*
X21716549Y166822464D01*
X21715147Y166819608D01*
X21715137Y166819588D01*
X21550428Y166483806D01*
X21550422Y166483794D01*
X21549019Y166480932D01*
X21547912Y166477946D01*
X21547908Y166477934D01*
X21418218Y166127758D01*
X21416902Y166124204D01*
X21416105Y166121130D01*
X21416103Y166121120D01*
X21322349Y165759022D01*
X21322345Y165759004D01*
X21321552Y165755940D01*
X21321071Y165752803D01*
X21321069Y165752791D01*
X21264431Y165383081D01*
X21263947Y165379919D01*
X21263785Y165376740D01*
X21263784Y165376722D01*
X21244842Y165003195D01*
X21244680Y165000000D01*
X50500Y165000000D01*
X50500Y199823500D01*
X70502Y199891621D01*
X124158Y199938114D01*
X176500Y199949500D01*
X99823500Y199949500D01*
X99891621Y199929498D01*
G37*
G04 #@! TD.AperFunction*
G04 #@! TD*
M02*
