G04 #@! TF.GenerationSoftware,KiCad,Pcbnew,7.0.2-6a45011f42~172~ubuntu22.04.1*
G04 #@! TF.CreationDate,2023-05-05T21:30:00-04:00*
G04 #@! TF.ProjectId,pmf_panel,706d665f-7061-46e6-956c-2e6b69636164,rev?*
G04 #@! TF.SameCoordinates,Original*
G04 #@! TF.FileFunction,Other,Comment*
%FSLAX46Y46*%
G04 Gerber Fmt 4.6, Leading zero omitted, Abs format (unit mm)*
G04 Created by KiCad (PCBNEW 7.0.2-6a45011f42~172~ubuntu22.04.1) date 2023-05-05 21:30:00*
%MOMM*%
%LPD*%
G01*
G04 APERTURE LIST*
%ADD10C,0.120000*%
%ADD11C,0.150000*%
G04 APERTURE END LIST*
D10*
G04 #@! TO.C,H14*
X97000000Y0D02*
X94200000Y0D01*
X97000000Y6000000D02*
X94200000Y6000000D01*
X97000000Y194000000D02*
X94200000Y194000000D01*
X97000000Y200000000D02*
X94200000Y200000000D01*
X97000000Y0D02*
G75*
G03*
X97000000Y6000000I0J3000000D01*
G01*
X97000000Y194000000D02*
G75*
G03*
X97000000Y200000000I0J3000000D01*
G01*
X94200000Y6000000D02*
G75*
G03*
X94200000Y0I0J-3000000D01*
G01*
X94200000Y200000000D02*
G75*
G03*
X94200000Y194000000I0J-3000000D01*
G01*
D11*
G04 #@! TO.C,H10*
X82000000Y165000000D02*
G75*
G03*
X82000000Y165000000I-7000000J0D01*
G01*
G04 #@! TO.C,H1*
X22000000Y50000000D02*
G75*
G03*
X22000000Y50000000I-9500000J0D01*
G01*
D10*
G04 #@! TO.C,H11*
X3000000Y200000000D02*
X5800000Y200000000D01*
X3000000Y194000000D02*
X5800000Y194000000D01*
X3000000Y6000000D02*
X5800000Y6000000D01*
X3000000Y0D02*
X5800000Y0D01*
X3000000Y200000000D02*
G75*
G03*
X3000000Y194000000I0J-3000000D01*
G01*
X3000000Y6000000D02*
G75*
G03*
X3000000Y0I0J-3000000D01*
G01*
X5800000Y194000000D02*
G75*
G03*
X5800000Y200000000I0J3000000D01*
G01*
X5800000Y0D02*
G75*
G03*
X5800000Y6000000I0J3000000D01*
G01*
D11*
G04 #@! TO.C,H2*
X22000000Y25000000D02*
G75*
G03*
X22000000Y25000000I-9500000J0D01*
G01*
G04 #@! TO.C,H3*
X47000000Y50000000D02*
G75*
G03*
X47000000Y50000000I-9500000J0D01*
G01*
G04 #@! TO.C,H4*
X47000000Y25000000D02*
G75*
G03*
X47000000Y25000000I-9500000J0D01*
G01*
G04 #@! TO.C,H5*
X97000000Y25000000D02*
G75*
G03*
X97000000Y25000000I-9500000J0D01*
G01*
G04 #@! TO.C,H6*
X72000000Y25000000D02*
G75*
G03*
X72000000Y25000000I-9500000J0D01*
G01*
G04 #@! TO.C,H15*
X32000000Y80000000D02*
G75*
G03*
X32000000Y80000000I-7000000J0D01*
G01*
G04 #@! TO.C,H8*
X82000000Y80000000D02*
G75*
G03*
X82000000Y80000000I-7000000J0D01*
G01*
G04 #@! TO.C,H16*
X32000000Y120000000D02*
G75*
G03*
X32000000Y120000000I-7000000J0D01*
G01*
G04 #@! TO.C,H9*
X84500000Y120000000D02*
G75*
G03*
X84500000Y120000000I-9500000J0D01*
G01*
G04 #@! TO.C,H7*
X32000000Y165000000D02*
G75*
G03*
X32000000Y165000000I-7000000J0D01*
G01*
G04 #@! TD*
M02*
