G04 #@! TF.GenerationSoftware,KiCad,Pcbnew,7.0.2-6a45011f42~172~ubuntu22.04.1*
G04 #@! TF.CreationDate,2023-05-05T21:30:00-04:00*
G04 #@! TF.ProjectId,pmf_panel,706d665f-7061-46e6-956c-2e6b69636164,rev?*
G04 #@! TF.SameCoordinates,Original*
G04 #@! TF.FileFunction,Soldermask,Bot*
G04 #@! TF.FilePolarity,Negative*
%FSLAX46Y46*%
G04 Gerber Fmt 4.6, Leading zero omitted, Abs format (unit mm)*
G04 Created by KiCad (PCBNEW 7.0.2-6a45011f42~172~ubuntu22.04.1) date 2023-05-05 21:30:00*
%MOMM*%
%LPD*%
G01*
G04 APERTURE LIST*
G04 Aperture macros list*
%AMFreePoly0*
4,1,139,5.398598,5.455452,5.858736,5.376554,6.310525,5.258917,6.750711,5.103390,7.176121,4.911092,7.583690,4.683410,7.970482,4.421984,8.333711,4.128698,8.670759,3.805664,8.979197,3.455210,9.256803,3.079861,9.501578,2.682322,9.711757,2.265457,9.885826,1.832269,10.022531,1.385879,10.120888,0.929505,10.180186,0.466433,10.200000,0.000000,10.180186,-0.466433,10.120888,-0.929505,
10.022531,-1.385879,9.885826,-1.832269,9.711757,-2.265457,9.501578,-2.682322,9.256803,-3.079861,8.979197,-3.455210,8.670759,-3.805664,8.333711,-4.128698,7.970482,-4.421984,7.583690,-4.683410,7.176121,-4.911092,6.750711,-5.103390,6.310525,-5.258917,5.858736,-5.376554,5.398598,-5.455452,4.933427,-5.495044,4.466573,-5.495044,4.001402,-5.455452,3.541264,-5.376554,3.089475,-5.258917,
2.649289,-5.103390,2.223879,-4.911092,1.816310,-4.683410,1.429518,-4.421984,1.066289,-4.128698,0.729241,-3.805664,0.420803,-3.455210,0.143197,-3.079861,-0.101578,-2.682322,-0.311757,-2.265457,-0.485826,-1.832269,-0.622531,-1.385879,-0.720888,-0.929505,-0.780186,-0.466433,-0.800000,0.000000,0.794988,0.000000,0.815023,-0.395064,0.874924,-0.786073,0.974075,-1.169017,1.111459,-1.539964,
1.285666,-1.895110,1.494909,-2.230809,1.737040,-2.543617,2.009576,-2.830325,2.309719,-3.087989,2.634389,-3.313966,2.980256,-3.505938,3.343769,-3.661933,3.721199,-3.780353,4.108673,-3.859981,4.502214,-3.900000,4.897786,-3.900000,5.291327,-3.859981,5.678801,-3.780353,6.056231,-3.661933,6.419744,-3.505938,6.765611,-3.313966,7.090281,-3.087989,7.390424,-2.830325,7.662960,-2.543617,
7.905091,-2.230809,8.114334,-1.895110,8.288541,-1.539964,8.425925,-1.169017,8.525076,-0.786073,8.584977,-0.395064,8.605012,0.000000,8.584977,0.395064,8.525076,0.786073,8.425925,1.169017,8.288541,1.539964,8.114334,1.895110,7.905091,2.230809,7.662960,2.543617,7.390424,2.830325,7.090281,3.087989,6.765611,3.313966,6.419744,3.505938,6.056231,3.661933,5.678801,3.780353,
5.291327,3.859981,4.897786,3.900000,4.502214,3.900000,4.108673,3.859981,3.721199,3.780353,3.343769,3.661933,2.980256,3.505938,2.634389,3.313966,2.309719,3.087989,2.009576,2.830325,1.737040,2.543617,1.494909,2.230809,1.285666,1.895110,1.111459,1.539964,0.974075,1.169017,0.874924,0.786073,0.815023,0.395064,0.794988,0.000000,-0.800000,0.000000,-0.780186,0.466433,
-0.720888,0.929505,-0.622531,1.385879,-0.485826,1.832269,-0.311757,2.265457,-0.101578,2.682322,0.143197,3.079861,0.420803,3.455210,0.729241,3.805664,1.066289,4.128698,1.429518,4.421984,1.816310,4.683410,2.223879,4.911092,2.649289,5.103390,3.089475,5.258917,3.541264,5.376554,4.001402,5.455452,4.466573,5.495044,4.933427,5.495044,5.398598,5.455452,5.398598,5.455452,
$1*%
%AMFreePoly1*
4,1,159,6.626847,7.030287,7.150748,6.971257,7.668773,6.873242,8.178024,6.736788,8.675654,6.562660,9.158880,6.351831,9.625000,6.105479,10.071406,5.824983,10.495603,5.511912,10.895218,5.168016,11.268016,4.795218,11.611912,4.395603,11.924983,3.971406,12.205479,3.525000,12.451831,3.058880,12.662660,2.575654,12.836788,2.078024,12.973242,1.568773,13.071257,1.050748,13.130287,0.526847,
13.150000,0.000000,13.130287,-0.526847,13.071257,-1.050748,12.973242,-1.568773,12.836788,-2.078024,12.662660,-2.575654,12.451831,-3.058880,12.205479,-3.525000,11.924983,-3.971406,11.611912,-4.395603,11.268016,-4.795218,10.895218,-5.168016,10.495603,-5.511912,10.071406,-5.824983,9.625000,-6.105479,9.158880,-6.351831,8.675654,-6.562660,8.178024,-6.736788,7.668773,-6.873242,7.150748,-6.971257,
6.626847,-7.030287,6.100000,-7.050000,5.573153,-7.030287,5.049252,-6.971257,4.531227,-6.873242,4.021976,-6.736788,3.524346,-6.562660,3.041120,-6.351831,2.575000,-6.105479,2.128594,-5.824983,1.704397,-5.511912,1.304782,-5.168016,0.931984,-4.795218,0.588088,-4.395603,0.275017,-3.971406,-0.005479,-3.525000,-0.251831,-3.058880,-0.462660,-2.575654,-0.636788,-2.078024,-0.773242,-1.568773,
-0.871257,-1.050748,-0.930287,-0.526847,-0.950000,0.000000,0.945094,0.000000,0.964710,-0.449280,1.023409,-0.895140,1.120743,-1.334188,1.255973,-1.763082,1.428069,-2.178557,1.635720,-2.577453,1.877348,-2.956733,2.151113,-3.313510,2.454931,-3.645069,2.786490,-3.948887,3.143267,-4.222652,3.522547,-4.464280,3.921443,-4.671931,4.336918,-4.844027,4.765812,-4.979257,5.204860,-5.076591,
5.650720,-5.135290,6.100000,-5.154906,6.549280,-5.135290,6.995140,-5.076591,7.434188,-4.979257,7.863082,-4.844027,8.278557,-4.671931,8.677453,-4.464280,9.056733,-4.222652,9.413510,-3.948887,9.745069,-3.645069,10.048887,-3.313510,10.322652,-2.956733,10.564280,-2.577453,10.771931,-2.178557,10.944027,-1.763082,11.079257,-1.334188,11.176591,-0.895140,11.235290,-0.449280,11.254906,0.000000,
11.235290,0.449280,11.176591,0.895140,11.079257,1.334188,10.944027,1.763082,10.771931,2.178557,10.564280,2.577453,10.322652,2.956733,10.048887,3.313510,9.745069,3.645069,9.413510,3.948887,9.056733,4.222652,8.677453,4.464280,8.278557,4.671931,7.863082,4.844027,7.434188,4.979257,6.995140,5.076591,6.549280,5.135290,6.100000,5.154906,5.650720,5.135290,5.204860,5.076591,
4.765812,4.979257,4.336918,4.844027,3.921443,4.671931,3.522547,4.464280,3.143267,4.222652,2.786490,3.948887,2.454931,3.645069,2.151113,3.313510,1.877348,2.956733,1.635720,2.577453,1.428069,2.178557,1.255973,1.763082,1.120743,1.334188,1.023409,0.895140,0.964710,0.449280,0.945094,0.000000,-0.950000,0.000000,-0.930287,0.526847,-0.871257,1.050748,-0.773242,1.568773,
-0.636788,2.078024,-0.462660,2.575654,-0.251831,3.058880,-0.005479,3.525000,0.275017,3.971406,0.588088,4.395603,0.931984,4.795218,1.304782,5.168016,1.704397,5.511912,2.128594,5.824983,2.575000,6.105479,3.041120,6.351831,3.524346,6.562660,4.021976,6.736788,4.531227,6.873242,5.049252,6.971257,5.573153,7.030287,6.100000,7.050000,6.626847,7.030287,6.626847,7.030287,
$1*%
G04 Aperture macros list end*
%ADD10O,6.800000X4.000000*%
%ADD11FreePoly0,0.000000*%
%ADD12C,0.800000*%
%ADD13FreePoly1,0.000000*%
G04 APERTURE END LIST*
D10*
G04 #@! TO.C,H14*
X95600000Y3000000D03*
X95600000Y197000000D03*
G04 #@! TD*
D11*
G04 #@! TO.C,H10*
X70300000Y165000000D03*
D12*
X70300000Y165000000D03*
X71700000Y168300000D03*
X71700000Y161700000D03*
X75000000Y169700000D03*
X75000000Y160300000D03*
X78200000Y161600000D03*
X78300000Y168300000D03*
X79700000Y165000000D03*
G04 #@! TD*
D13*
G04 #@! TO.C,H1*
X6400000Y50000000D03*
D12*
X6400000Y50000000D03*
X8200000Y54300000D03*
X8200000Y45700000D03*
X12500000Y56100000D03*
X12500000Y43900000D03*
X16700000Y45600000D03*
X16800000Y54300000D03*
X18600000Y50000000D03*
G04 #@! TD*
D10*
G04 #@! TO.C,H11*
X4400000Y197000000D03*
X4400000Y3000000D03*
G04 #@! TD*
D13*
G04 #@! TO.C,H2*
X6400000Y25000000D03*
D12*
X6400000Y25000000D03*
X8200000Y29300000D03*
X8200000Y20700000D03*
X12500000Y31100000D03*
X12500000Y18900000D03*
X16700000Y20600000D03*
X16800000Y29300000D03*
X18600000Y25000000D03*
G04 #@! TD*
D13*
G04 #@! TO.C,H3*
X31400000Y50000000D03*
D12*
X31400000Y50000000D03*
X33200000Y54300000D03*
X33200000Y45700000D03*
X37500000Y56100000D03*
X37500000Y43900000D03*
X41700000Y45600000D03*
X41800000Y54300000D03*
X43600000Y50000000D03*
G04 #@! TD*
D13*
G04 #@! TO.C,H4*
X31400000Y25000000D03*
D12*
X31400000Y25000000D03*
X33200000Y29300000D03*
X33200000Y20700000D03*
X37500000Y31100000D03*
X37500000Y18900000D03*
X41700000Y20600000D03*
X41800000Y29300000D03*
X43600000Y25000000D03*
G04 #@! TD*
D13*
G04 #@! TO.C,H5*
X81400000Y25000000D03*
D12*
X81400000Y25000000D03*
X83200000Y29300000D03*
X83200000Y20700000D03*
X87500000Y31100000D03*
X87500000Y18900000D03*
X91700000Y20600000D03*
X91800000Y29300000D03*
X93600000Y25000000D03*
G04 #@! TD*
D13*
G04 #@! TO.C,H6*
X56400000Y25000000D03*
D12*
X56400000Y25000000D03*
X58200000Y29300000D03*
X58200000Y20700000D03*
X62500000Y31100000D03*
X62500000Y18900000D03*
X66700000Y20600000D03*
X66800000Y29300000D03*
X68600000Y25000000D03*
G04 #@! TD*
D11*
G04 #@! TO.C,H15*
X20300000Y80000000D03*
D12*
X20300000Y80000000D03*
X21700000Y83300000D03*
X21700000Y76700000D03*
X25000000Y84700000D03*
X25000000Y75300000D03*
X28200000Y76600000D03*
X28300000Y83300000D03*
X29700000Y80000000D03*
G04 #@! TD*
D11*
G04 #@! TO.C,H8*
X70300000Y80000000D03*
D12*
X70300000Y80000000D03*
X71700000Y83300000D03*
X71700000Y76700000D03*
X75000000Y84700000D03*
X75000000Y75300000D03*
X78200000Y76600000D03*
X78300000Y83300000D03*
X79700000Y80000000D03*
G04 #@! TD*
D11*
G04 #@! TO.C,H16*
X20300000Y120000000D03*
D12*
X20300000Y120000000D03*
X21700000Y123300000D03*
X21700000Y116700000D03*
X25000000Y124700000D03*
X25000000Y115300000D03*
X28200000Y116600000D03*
X28300000Y123300000D03*
X29700000Y120000000D03*
G04 #@! TD*
D13*
G04 #@! TO.C,H9*
X68900000Y120000000D03*
D12*
X68900000Y120000000D03*
X70700000Y124300000D03*
X70700000Y115700000D03*
X75000000Y126100000D03*
X75000000Y113900000D03*
X79200000Y115600000D03*
X79300000Y124300000D03*
X81100000Y120000000D03*
G04 #@! TD*
D11*
G04 #@! TO.C,H7*
X20300000Y165000000D03*
D12*
X20300000Y165000000D03*
X21700000Y168300000D03*
X21700000Y161700000D03*
X25000000Y169700000D03*
X25000000Y160300000D03*
X28200000Y161600000D03*
X28300000Y168300000D03*
X29700000Y165000000D03*
G04 #@! TD*
M02*
