M48
; DRILL file {KiCad 7.0.1-3b83917a11~172~ubuntu22.04.1} date Sun Apr  2 11:19:21 2023
; FORMAT={-:-/ absolute / metric / decimal}
; #@! TF.CreationDate,2023-04-02T11:19:21-04:00
; #@! TF.GenerationSoftware,Kicad,Pcbnew,7.0.1-3b83917a11~172~ubuntu22.04.1
; #@! TF.FileFunction,MixedPlating,1,2
FMAT,2
METRIC
; #@! TA.AperFunction,Plated,PTH,ComponentDrill
T1C0.600
; #@! TA.AperFunction,Plated,PTH,ComponentDrill
T2C3.200
; #@! TA.AperFunction,NonPlated,NPTH,ComponentDrill
T3C2.500
; #@! TA.AperFunction,NonPlated,NPTH,ComponentDrill
T4C5.000
%
G90
G05
T1
X6.4Y50.0
X6.4Y25.0
X8.2Y54.3
X8.2Y45.7
X8.2Y29.3
X8.2Y20.7
X12.5Y56.1
X12.5Y43.9
X12.5Y31.1
X12.5Y18.9
X13.3Y173.2
X14.6Y176.4
X14.6Y170.0
X16.7Y45.6
X16.7Y20.6
X16.8Y54.3
X16.8Y29.3
X17.8Y177.7
X17.8Y168.7
X18.6Y50.0
X18.6Y25.0
X20.9Y169.9
X21.0Y176.4
X22.3Y173.2
X31.4Y50.0
X31.4Y25.0
X33.2Y54.3
X33.2Y45.7
X33.2Y29.3
X33.2Y20.7
X37.5Y56.1
X37.5Y43.9
X37.5Y31.1
X37.5Y18.9
X41.7Y45.6
X41.7Y20.6
X41.8Y54.3
X41.8Y29.3
X43.6Y50.0
X43.6Y25.0
X56.4Y50.0
X56.4Y25.0
X58.2Y54.3
X58.2Y45.7
X58.2Y29.3
X58.2Y20.7
X62.5Y56.1
X62.5Y43.9
X62.5Y31.1
X62.5Y18.9
X66.7Y45.6
X66.7Y20.6
X66.8Y54.3
X66.8Y29.3
X68.6Y50.0
X68.6Y25.0
X75.1Y157.7
X76.5Y161.0
X76.5Y154.4
X79.8Y162.4
X79.8Y153.0
X81.4Y50.0
X81.4Y25.0
X83.0Y154.3
X83.1Y161.0
X83.2Y54.3
X83.2Y45.7
X83.2Y29.3
X83.2Y20.7
X84.5Y157.7
X87.5Y56.1
X87.5Y43.9
X87.5Y31.1
X87.5Y18.9
X91.7Y45.6
X91.7Y20.6
X91.8Y54.3
X91.8Y29.3
X93.6Y50.0
X93.6Y25.0
T3
X18.4Y119.8
T4
X18.1Y147.8
T2
X3.0Y197.0G85X5.8Y197.0
G05
X3.0Y3.0G85X5.8Y3.0
G05
X97.0Y197.0G85X94.2Y197.0
G05
X97.0Y3.0G85X94.2Y3.0
G05
T0
M30
