G04 #@! TF.GenerationSoftware,KiCad,Pcbnew,7.0.2-6a45011f42~172~ubuntu22.04.1*
G04 #@! TF.CreationDate,2023-05-05T21:30:00-04:00*
G04 #@! TF.ProjectId,pmf_panel,706d665f-7061-46e6-956c-2e6b69636164,rev?*
G04 #@! TF.SameCoordinates,Original*
G04 #@! TF.FileFunction,Legend,Bot*
G04 #@! TF.FilePolarity,Positive*
%FSLAX46Y46*%
G04 Gerber Fmt 4.6, Leading zero omitted, Abs format (unit mm)*
G04 Created by KiCad (PCBNEW 7.0.2-6a45011f42~172~ubuntu22.04.1) date 2023-05-05 21:30:00*
%MOMM*%
%LPD*%
G01*
G04 APERTURE LIST*
%ADD10C,0.150000*%
%ADD11C,0.010000*%
G04 APERTURE END LIST*
D10*
X61000000Y11157381D02*
X61000000Y12157381D01*
X61000000Y12157381D02*
X60619048Y12157381D01*
X60619048Y12157381D02*
X60523810Y12109762D01*
X60523810Y12109762D02*
X60476191Y12062143D01*
X60476191Y12062143D02*
X60428572Y11966905D01*
X60428572Y11966905D02*
X60428572Y11824048D01*
X60428572Y11824048D02*
X60476191Y11728810D01*
X60476191Y11728810D02*
X60523810Y11681191D01*
X60523810Y11681191D02*
X60619048Y11633572D01*
X60619048Y11633572D02*
X61000000Y11633572D01*
X59571429Y11157381D02*
X59571429Y11681191D01*
X59571429Y11681191D02*
X59619048Y11776429D01*
X59619048Y11776429D02*
X59714286Y11824048D01*
X59714286Y11824048D02*
X59904762Y11824048D01*
X59904762Y11824048D02*
X60000000Y11776429D01*
X59571429Y11205000D02*
X59666667Y11157381D01*
X59666667Y11157381D02*
X59904762Y11157381D01*
X59904762Y11157381D02*
X60000000Y11205000D01*
X60000000Y11205000D02*
X60047619Y11300239D01*
X60047619Y11300239D02*
X60047619Y11395477D01*
X60047619Y11395477D02*
X60000000Y11490715D01*
X60000000Y11490715D02*
X59904762Y11538334D01*
X59904762Y11538334D02*
X59666667Y11538334D01*
X59666667Y11538334D02*
X59571429Y11585953D01*
X59095238Y11824048D02*
X59095238Y11157381D01*
X59095238Y11728810D02*
X59047619Y11776429D01*
X59047619Y11776429D02*
X58952381Y11824048D01*
X58952381Y11824048D02*
X58809524Y11824048D01*
X58809524Y11824048D02*
X58714286Y11776429D01*
X58714286Y11776429D02*
X58666667Y11681191D01*
X58666667Y11681191D02*
X58666667Y11157381D01*
X57809524Y11205000D02*
X57904762Y11157381D01*
X57904762Y11157381D02*
X58095238Y11157381D01*
X58095238Y11157381D02*
X58190476Y11205000D01*
X58190476Y11205000D02*
X58238095Y11300239D01*
X58238095Y11300239D02*
X58238095Y11681191D01*
X58238095Y11681191D02*
X58190476Y11776429D01*
X58190476Y11776429D02*
X58095238Y11824048D01*
X58095238Y11824048D02*
X57904762Y11824048D01*
X57904762Y11824048D02*
X57809524Y11776429D01*
X57809524Y11776429D02*
X57761905Y11681191D01*
X57761905Y11681191D02*
X57761905Y11585953D01*
X57761905Y11585953D02*
X58238095Y11490715D01*
X57190476Y11157381D02*
X57285714Y11205000D01*
X57285714Y11205000D02*
X57333333Y11300239D01*
X57333333Y11300239D02*
X57333333Y12157381D01*
X55619047Y11157381D02*
X55619047Y12157381D01*
X55619047Y11205000D02*
X55714285Y11157381D01*
X55714285Y11157381D02*
X55904761Y11157381D01*
X55904761Y11157381D02*
X55999999Y11205000D01*
X55999999Y11205000D02*
X56047618Y11252620D01*
X56047618Y11252620D02*
X56095237Y11347858D01*
X56095237Y11347858D02*
X56095237Y11633572D01*
X56095237Y11633572D02*
X56047618Y11728810D01*
X56047618Y11728810D02*
X55999999Y11776429D01*
X55999999Y11776429D02*
X55904761Y11824048D01*
X55904761Y11824048D02*
X55714285Y11824048D01*
X55714285Y11824048D02*
X55619047Y11776429D01*
X54761904Y11205000D02*
X54857142Y11157381D01*
X54857142Y11157381D02*
X55047618Y11157381D01*
X55047618Y11157381D02*
X55142856Y11205000D01*
X55142856Y11205000D02*
X55190475Y11300239D01*
X55190475Y11300239D02*
X55190475Y11681191D01*
X55190475Y11681191D02*
X55142856Y11776429D01*
X55142856Y11776429D02*
X55047618Y11824048D01*
X55047618Y11824048D02*
X54857142Y11824048D01*
X54857142Y11824048D02*
X54761904Y11776429D01*
X54761904Y11776429D02*
X54714285Y11681191D01*
X54714285Y11681191D02*
X54714285Y11585953D01*
X54714285Y11585953D02*
X55190475Y11490715D01*
X54333332Y11205000D02*
X54238094Y11157381D01*
X54238094Y11157381D02*
X54047618Y11157381D01*
X54047618Y11157381D02*
X53952380Y11205000D01*
X53952380Y11205000D02*
X53904761Y11300239D01*
X53904761Y11300239D02*
X53904761Y11347858D01*
X53904761Y11347858D02*
X53952380Y11443096D01*
X53952380Y11443096D02*
X54047618Y11490715D01*
X54047618Y11490715D02*
X54190475Y11490715D01*
X54190475Y11490715D02*
X54285713Y11538334D01*
X54285713Y11538334D02*
X54333332Y11633572D01*
X54333332Y11633572D02*
X54333332Y11681191D01*
X54333332Y11681191D02*
X54285713Y11776429D01*
X54285713Y11776429D02*
X54190475Y11824048D01*
X54190475Y11824048D02*
X54047618Y11824048D01*
X54047618Y11824048D02*
X53952380Y11776429D01*
X53476189Y11157381D02*
X53476189Y11824048D01*
X53476189Y12157381D02*
X53523808Y12109762D01*
X53523808Y12109762D02*
X53476189Y12062143D01*
X53476189Y12062143D02*
X53428570Y12109762D01*
X53428570Y12109762D02*
X53476189Y12157381D01*
X53476189Y12157381D02*
X53476189Y12062143D01*
X52571428Y11824048D02*
X52571428Y11014524D01*
X52571428Y11014524D02*
X52619047Y10919286D01*
X52619047Y10919286D02*
X52666666Y10871667D01*
X52666666Y10871667D02*
X52761904Y10824048D01*
X52761904Y10824048D02*
X52904761Y10824048D01*
X52904761Y10824048D02*
X52999999Y10871667D01*
X52571428Y11205000D02*
X52666666Y11157381D01*
X52666666Y11157381D02*
X52857142Y11157381D01*
X52857142Y11157381D02*
X52952380Y11205000D01*
X52952380Y11205000D02*
X52999999Y11252620D01*
X52999999Y11252620D02*
X53047618Y11347858D01*
X53047618Y11347858D02*
X53047618Y11633572D01*
X53047618Y11633572D02*
X52999999Y11728810D01*
X52999999Y11728810D02*
X52952380Y11776429D01*
X52952380Y11776429D02*
X52857142Y11824048D01*
X52857142Y11824048D02*
X52666666Y11824048D01*
X52666666Y11824048D02*
X52571428Y11776429D01*
X52095237Y11824048D02*
X52095237Y11157381D01*
X52095237Y11728810D02*
X52047618Y11776429D01*
X52047618Y11776429D02*
X51952380Y11824048D01*
X51952380Y11824048D02*
X51809523Y11824048D01*
X51809523Y11824048D02*
X51714285Y11776429D01*
X51714285Y11776429D02*
X51666666Y11681191D01*
X51666666Y11681191D02*
X51666666Y11157381D01*
X50428570Y11157381D02*
X50428570Y12157381D01*
X50428570Y11776429D02*
X50333332Y11824048D01*
X50333332Y11824048D02*
X50142856Y11824048D01*
X50142856Y11824048D02*
X50047618Y11776429D01*
X50047618Y11776429D02*
X49999999Y11728810D01*
X49999999Y11728810D02*
X49952380Y11633572D01*
X49952380Y11633572D02*
X49952380Y11347858D01*
X49952380Y11347858D02*
X49999999Y11252620D01*
X49999999Y11252620D02*
X50047618Y11205000D01*
X50047618Y11205000D02*
X50142856Y11157381D01*
X50142856Y11157381D02*
X50333332Y11157381D01*
X50333332Y11157381D02*
X50428570Y11205000D01*
X49619046Y11824048D02*
X49380951Y11157381D01*
X49142856Y11824048D02*
X49380951Y11157381D01*
X49380951Y11157381D02*
X49476189Y10919286D01*
X49476189Y10919286D02*
X49523808Y10871667D01*
X49523808Y10871667D02*
X49619046Y10824048D01*
X47428570Y11157381D02*
X47761903Y11633572D01*
X47999998Y11157381D02*
X47999998Y12157381D01*
X47999998Y12157381D02*
X47619046Y12157381D01*
X47619046Y12157381D02*
X47523808Y12109762D01*
X47523808Y12109762D02*
X47476189Y12062143D01*
X47476189Y12062143D02*
X47428570Y11966905D01*
X47428570Y11966905D02*
X47428570Y11824048D01*
X47428570Y11824048D02*
X47476189Y11728810D01*
X47476189Y11728810D02*
X47523808Y11681191D01*
X47523808Y11681191D02*
X47619046Y11633572D01*
X47619046Y11633572D02*
X47999998Y11633572D01*
X46999998Y11157381D02*
X46999998Y11824048D01*
X46999998Y12157381D02*
X47047617Y12109762D01*
X47047617Y12109762D02*
X46999998Y12062143D01*
X46999998Y12062143D02*
X46952379Y12109762D01*
X46952379Y12109762D02*
X46999998Y12157381D01*
X46999998Y12157381D02*
X46999998Y12062143D01*
X46095237Y11205000D02*
X46190475Y11157381D01*
X46190475Y11157381D02*
X46380951Y11157381D01*
X46380951Y11157381D02*
X46476189Y11205000D01*
X46476189Y11205000D02*
X46523808Y11252620D01*
X46523808Y11252620D02*
X46571427Y11347858D01*
X46571427Y11347858D02*
X46571427Y11633572D01*
X46571427Y11633572D02*
X46523808Y11728810D01*
X46523808Y11728810D02*
X46476189Y11776429D01*
X46476189Y11776429D02*
X46380951Y11824048D01*
X46380951Y11824048D02*
X46190475Y11824048D01*
X46190475Y11824048D02*
X46095237Y11776429D01*
X45666665Y11157381D02*
X45666665Y12157381D01*
X45238094Y11157381D02*
X45238094Y11681191D01*
X45238094Y11681191D02*
X45285713Y11776429D01*
X45285713Y11776429D02*
X45380951Y11824048D01*
X45380951Y11824048D02*
X45523808Y11824048D01*
X45523808Y11824048D02*
X45619046Y11776429D01*
X45619046Y11776429D02*
X45666665Y11728810D01*
X43999998Y11157381D02*
X43999998Y12157381D01*
X43999998Y11681191D02*
X43428570Y11681191D01*
X43428570Y11157381D02*
X43428570Y12157381D01*
X42809522Y11157381D02*
X42904760Y11205000D01*
X42904760Y11205000D02*
X42952379Y11252620D01*
X42952379Y11252620D02*
X42999998Y11347858D01*
X42999998Y11347858D02*
X42999998Y11633572D01*
X42999998Y11633572D02*
X42952379Y11728810D01*
X42952379Y11728810D02*
X42904760Y11776429D01*
X42904760Y11776429D02*
X42809522Y11824048D01*
X42809522Y11824048D02*
X42666665Y11824048D01*
X42666665Y11824048D02*
X42571427Y11776429D01*
X42571427Y11776429D02*
X42523808Y11728810D01*
X42523808Y11728810D02*
X42476189Y11633572D01*
X42476189Y11633572D02*
X42476189Y11347858D01*
X42476189Y11347858D02*
X42523808Y11252620D01*
X42523808Y11252620D02*
X42571427Y11205000D01*
X42571427Y11205000D02*
X42666665Y11157381D01*
X42666665Y11157381D02*
X42809522Y11157381D01*
X41904760Y11157381D02*
X41999998Y11205000D01*
X41999998Y11205000D02*
X42047617Y11300239D01*
X42047617Y11300239D02*
X42047617Y12157381D01*
X41523807Y11157381D02*
X41523807Y11824048D01*
X41523807Y11728810D02*
X41476188Y11776429D01*
X41476188Y11776429D02*
X41380950Y11824048D01*
X41380950Y11824048D02*
X41238093Y11824048D01*
X41238093Y11824048D02*
X41142855Y11776429D01*
X41142855Y11776429D02*
X41095236Y11681191D01*
X41095236Y11681191D02*
X41095236Y11157381D01*
X41095236Y11681191D02*
X41047617Y11776429D01*
X41047617Y11776429D02*
X40952379Y11824048D01*
X40952379Y11824048D02*
X40809522Y11824048D01*
X40809522Y11824048D02*
X40714283Y11776429D01*
X40714283Y11776429D02*
X40666664Y11681191D01*
X40666664Y11681191D02*
X40666664Y11157381D01*
X39809522Y11205000D02*
X39904760Y11157381D01*
X39904760Y11157381D02*
X40095236Y11157381D01*
X40095236Y11157381D02*
X40190474Y11205000D01*
X40190474Y11205000D02*
X40238093Y11300239D01*
X40238093Y11300239D02*
X40238093Y11681191D01*
X40238093Y11681191D02*
X40190474Y11776429D01*
X40190474Y11776429D02*
X40095236Y11824048D01*
X40095236Y11824048D02*
X39904760Y11824048D01*
X39904760Y11824048D02*
X39809522Y11776429D01*
X39809522Y11776429D02*
X39761903Y11681191D01*
X39761903Y11681191D02*
X39761903Y11585953D01*
X39761903Y11585953D02*
X40238093Y11490715D01*
X39380950Y11205000D02*
X39285712Y11157381D01*
X39285712Y11157381D02*
X39095236Y11157381D01*
X39095236Y11157381D02*
X38999998Y11205000D01*
X38999998Y11205000D02*
X38952379Y11300239D01*
X38952379Y11300239D02*
X38952379Y11347858D01*
X38952379Y11347858D02*
X38999998Y11443096D01*
X38999998Y11443096D02*
X39095236Y11490715D01*
X39095236Y11490715D02*
X39238093Y11490715D01*
X39238093Y11490715D02*
X39333331Y11538334D01*
X39333331Y11538334D02*
X39380950Y11633572D01*
X39380950Y11633572D02*
X39380950Y11681191D01*
X39380950Y11681191D02*
X39333331Y11776429D01*
X39333331Y11776429D02*
X39238093Y11824048D01*
X39238093Y11824048D02*
X39095236Y11824048D01*
X39095236Y11824048D02*
X38999998Y11776429D01*
X56309524Y9632620D02*
X56357143Y9585000D01*
X56357143Y9585000D02*
X56500000Y9537381D01*
X56500000Y9537381D02*
X56595238Y9537381D01*
X56595238Y9537381D02*
X56738095Y9585000D01*
X56738095Y9585000D02*
X56833333Y9680239D01*
X56833333Y9680239D02*
X56880952Y9775477D01*
X56880952Y9775477D02*
X56928571Y9965953D01*
X56928571Y9965953D02*
X56928571Y10108810D01*
X56928571Y10108810D02*
X56880952Y10299286D01*
X56880952Y10299286D02*
X56833333Y10394524D01*
X56833333Y10394524D02*
X56738095Y10489762D01*
X56738095Y10489762D02*
X56595238Y10537381D01*
X56595238Y10537381D02*
X56500000Y10537381D01*
X56500000Y10537381D02*
X56357143Y10489762D01*
X56357143Y10489762D02*
X56309524Y10442143D01*
X55309524Y9632620D02*
X55357143Y9585000D01*
X55357143Y9585000D02*
X55500000Y9537381D01*
X55500000Y9537381D02*
X55595238Y9537381D01*
X55595238Y9537381D02*
X55738095Y9585000D01*
X55738095Y9585000D02*
X55833333Y9680239D01*
X55833333Y9680239D02*
X55880952Y9775477D01*
X55880952Y9775477D02*
X55928571Y9965953D01*
X55928571Y9965953D02*
X55928571Y10108810D01*
X55928571Y10108810D02*
X55880952Y10299286D01*
X55880952Y10299286D02*
X55833333Y10394524D01*
X55833333Y10394524D02*
X55738095Y10489762D01*
X55738095Y10489762D02*
X55595238Y10537381D01*
X55595238Y10537381D02*
X55500000Y10537381D01*
X55500000Y10537381D02*
X55357143Y10489762D01*
X55357143Y10489762D02*
X55309524Y10442143D01*
X54690476Y10537381D02*
X54595238Y10537381D01*
X54595238Y10537381D02*
X54500000Y10489762D01*
X54500000Y10489762D02*
X54452381Y10442143D01*
X54452381Y10442143D02*
X54404762Y10346905D01*
X54404762Y10346905D02*
X54357143Y10156429D01*
X54357143Y10156429D02*
X54357143Y9918334D01*
X54357143Y9918334D02*
X54404762Y9727858D01*
X54404762Y9727858D02*
X54452381Y9632620D01*
X54452381Y9632620D02*
X54500000Y9585000D01*
X54500000Y9585000D02*
X54595238Y9537381D01*
X54595238Y9537381D02*
X54690476Y9537381D01*
X54690476Y9537381D02*
X54785714Y9585000D01*
X54785714Y9585000D02*
X54833333Y9632620D01*
X54833333Y9632620D02*
X54880952Y9727858D01*
X54880952Y9727858D02*
X54928571Y9918334D01*
X54928571Y9918334D02*
X54928571Y10156429D01*
X54928571Y10156429D02*
X54880952Y10346905D01*
X54880952Y10346905D02*
X54833333Y10442143D01*
X54833333Y10442143D02*
X54785714Y10489762D01*
X54785714Y10489762D02*
X54690476Y10537381D01*
X52642857Y9537381D02*
X53214285Y9537381D01*
X52928571Y9537381D02*
X52928571Y10537381D01*
X52928571Y10537381D02*
X53023809Y10394524D01*
X53023809Y10394524D02*
X53119047Y10299286D01*
X53119047Y10299286D02*
X53214285Y10251667D01*
X52214285Y9632620D02*
X52166666Y9585000D01*
X52166666Y9585000D02*
X52214285Y9537381D01*
X52214285Y9537381D02*
X52261904Y9585000D01*
X52261904Y9585000D02*
X52214285Y9632620D01*
X52214285Y9632620D02*
X52214285Y9537381D01*
X51547619Y10537381D02*
X51452381Y10537381D01*
X51452381Y10537381D02*
X51357143Y10489762D01*
X51357143Y10489762D02*
X51309524Y10442143D01*
X51309524Y10442143D02*
X51261905Y10346905D01*
X51261905Y10346905D02*
X51214286Y10156429D01*
X51214286Y10156429D02*
X51214286Y9918334D01*
X51214286Y9918334D02*
X51261905Y9727858D01*
X51261905Y9727858D02*
X51309524Y9632620D01*
X51309524Y9632620D02*
X51357143Y9585000D01*
X51357143Y9585000D02*
X51452381Y9537381D01*
X51452381Y9537381D02*
X51547619Y9537381D01*
X51547619Y9537381D02*
X51642857Y9585000D01*
X51642857Y9585000D02*
X51690476Y9632620D01*
X51690476Y9632620D02*
X51738095Y9727858D01*
X51738095Y9727858D02*
X51785714Y9918334D01*
X51785714Y9918334D02*
X51785714Y10156429D01*
X51785714Y10156429D02*
X51738095Y10346905D01*
X51738095Y10346905D02*
X51690476Y10442143D01*
X51690476Y10442143D02*
X51642857Y10489762D01*
X51642857Y10489762D02*
X51547619Y10537381D01*
X50023809Y9537381D02*
X50023809Y10537381D01*
X50023809Y10537381D02*
X49690476Y9823096D01*
X49690476Y9823096D02*
X49357143Y10537381D01*
X49357143Y10537381D02*
X49357143Y9537381D01*
X48452381Y9537381D02*
X48452381Y10061191D01*
X48452381Y10061191D02*
X48500000Y10156429D01*
X48500000Y10156429D02*
X48595238Y10204048D01*
X48595238Y10204048D02*
X48785714Y10204048D01*
X48785714Y10204048D02*
X48880952Y10156429D01*
X48452381Y9585000D02*
X48547619Y9537381D01*
X48547619Y9537381D02*
X48785714Y9537381D01*
X48785714Y9537381D02*
X48880952Y9585000D01*
X48880952Y9585000D02*
X48928571Y9680239D01*
X48928571Y9680239D02*
X48928571Y9775477D01*
X48928571Y9775477D02*
X48880952Y9870715D01*
X48880952Y9870715D02*
X48785714Y9918334D01*
X48785714Y9918334D02*
X48547619Y9918334D01*
X48547619Y9918334D02*
X48452381Y9965953D01*
X48071428Y10204048D02*
X47833333Y9537381D01*
X47595238Y10204048D02*
X47833333Y9537381D01*
X47833333Y9537381D02*
X47928571Y9299286D01*
X47928571Y9299286D02*
X47976190Y9251667D01*
X47976190Y9251667D02*
X48071428Y9204048D01*
X46499999Y10442143D02*
X46452380Y10489762D01*
X46452380Y10489762D02*
X46357142Y10537381D01*
X46357142Y10537381D02*
X46119047Y10537381D01*
X46119047Y10537381D02*
X46023809Y10489762D01*
X46023809Y10489762D02*
X45976190Y10442143D01*
X45976190Y10442143D02*
X45928571Y10346905D01*
X45928571Y10346905D02*
X45928571Y10251667D01*
X45928571Y10251667D02*
X45976190Y10108810D01*
X45976190Y10108810D02*
X46547618Y9537381D01*
X46547618Y9537381D02*
X45928571Y9537381D01*
X45309523Y10537381D02*
X45214285Y10537381D01*
X45214285Y10537381D02*
X45119047Y10489762D01*
X45119047Y10489762D02*
X45071428Y10442143D01*
X45071428Y10442143D02*
X45023809Y10346905D01*
X45023809Y10346905D02*
X44976190Y10156429D01*
X44976190Y10156429D02*
X44976190Y9918334D01*
X44976190Y9918334D02*
X45023809Y9727858D01*
X45023809Y9727858D02*
X45071428Y9632620D01*
X45071428Y9632620D02*
X45119047Y9585000D01*
X45119047Y9585000D02*
X45214285Y9537381D01*
X45214285Y9537381D02*
X45309523Y9537381D01*
X45309523Y9537381D02*
X45404761Y9585000D01*
X45404761Y9585000D02*
X45452380Y9632620D01*
X45452380Y9632620D02*
X45499999Y9727858D01*
X45499999Y9727858D02*
X45547618Y9918334D01*
X45547618Y9918334D02*
X45547618Y10156429D01*
X45547618Y10156429D02*
X45499999Y10346905D01*
X45499999Y10346905D02*
X45452380Y10442143D01*
X45452380Y10442143D02*
X45404761Y10489762D01*
X45404761Y10489762D02*
X45309523Y10537381D01*
X44595237Y10442143D02*
X44547618Y10489762D01*
X44547618Y10489762D02*
X44452380Y10537381D01*
X44452380Y10537381D02*
X44214285Y10537381D01*
X44214285Y10537381D02*
X44119047Y10489762D01*
X44119047Y10489762D02*
X44071428Y10442143D01*
X44071428Y10442143D02*
X44023809Y10346905D01*
X44023809Y10346905D02*
X44023809Y10251667D01*
X44023809Y10251667D02*
X44071428Y10108810D01*
X44071428Y10108810D02*
X44642856Y9537381D01*
X44642856Y9537381D02*
X44023809Y9537381D01*
X43690475Y10537381D02*
X43071428Y10537381D01*
X43071428Y10537381D02*
X43404761Y10156429D01*
X43404761Y10156429D02*
X43261904Y10156429D01*
X43261904Y10156429D02*
X43166666Y10108810D01*
X43166666Y10108810D02*
X43119047Y10061191D01*
X43119047Y10061191D02*
X43071428Y9965953D01*
X43071428Y9965953D02*
X43071428Y9727858D01*
X43071428Y9727858D02*
X43119047Y9632620D01*
X43119047Y9632620D02*
X43166666Y9585000D01*
X43166666Y9585000D02*
X43261904Y9537381D01*
X43261904Y9537381D02*
X43547618Y9537381D01*
X43547618Y9537381D02*
X43642856Y9585000D01*
X43642856Y9585000D02*
X43690475Y9632620D01*
X54619048Y8917381D02*
X54619048Y8203096D01*
X54619048Y8203096D02*
X54666667Y8060239D01*
X54666667Y8060239D02*
X54761905Y7965000D01*
X54761905Y7965000D02*
X54904762Y7917381D01*
X54904762Y7917381D02*
X55000000Y7917381D01*
X53666667Y7917381D02*
X54142857Y7917381D01*
X54142857Y7917381D02*
X54142857Y8917381D01*
X52761905Y8012620D02*
X52809524Y7965000D01*
X52809524Y7965000D02*
X52952381Y7917381D01*
X52952381Y7917381D02*
X53047619Y7917381D01*
X53047619Y7917381D02*
X53190476Y7965000D01*
X53190476Y7965000D02*
X53285714Y8060239D01*
X53285714Y8060239D02*
X53333333Y8155477D01*
X53333333Y8155477D02*
X53380952Y8345953D01*
X53380952Y8345953D02*
X53380952Y8488810D01*
X53380952Y8488810D02*
X53333333Y8679286D01*
X53333333Y8679286D02*
X53285714Y8774524D01*
X53285714Y8774524D02*
X53190476Y8869762D01*
X53190476Y8869762D02*
X53047619Y8917381D01*
X53047619Y8917381D02*
X52952381Y8917381D01*
X52952381Y8917381D02*
X52809524Y8869762D01*
X52809524Y8869762D02*
X52761905Y8822143D01*
X52047619Y8917381D02*
X52047619Y8203096D01*
X52047619Y8203096D02*
X52095238Y8060239D01*
X52095238Y8060239D02*
X52190476Y7965000D01*
X52190476Y7965000D02*
X52333333Y7917381D01*
X52333333Y7917381D02*
X52428571Y7917381D01*
X51095238Y7917381D02*
X51571428Y7917381D01*
X51571428Y7917381D02*
X51571428Y8917381D01*
X50190476Y8012620D02*
X50238095Y7965000D01*
X50238095Y7965000D02*
X50380952Y7917381D01*
X50380952Y7917381D02*
X50476190Y7917381D01*
X50476190Y7917381D02*
X50619047Y7965000D01*
X50619047Y7965000D02*
X50714285Y8060239D01*
X50714285Y8060239D02*
X50761904Y8155477D01*
X50761904Y8155477D02*
X50809523Y8345953D01*
X50809523Y8345953D02*
X50809523Y8488810D01*
X50809523Y8488810D02*
X50761904Y8679286D01*
X50761904Y8679286D02*
X50714285Y8774524D01*
X50714285Y8774524D02*
X50619047Y8869762D01*
X50619047Y8869762D02*
X50476190Y8917381D01*
X50476190Y8917381D02*
X50380952Y8917381D01*
X50380952Y8917381D02*
X50238095Y8869762D01*
X50238095Y8869762D02*
X50190476Y8822143D01*
X49476190Y8917381D02*
X49476190Y8203096D01*
X49476190Y8203096D02*
X49523809Y8060239D01*
X49523809Y8060239D02*
X49619047Y7965000D01*
X49619047Y7965000D02*
X49761904Y7917381D01*
X49761904Y7917381D02*
X49857142Y7917381D01*
X48523809Y7917381D02*
X48999999Y7917381D01*
X48999999Y7917381D02*
X48999999Y8917381D01*
X47619047Y8012620D02*
X47666666Y7965000D01*
X47666666Y7965000D02*
X47809523Y7917381D01*
X47809523Y7917381D02*
X47904761Y7917381D01*
X47904761Y7917381D02*
X48047618Y7965000D01*
X48047618Y7965000D02*
X48142856Y8060239D01*
X48142856Y8060239D02*
X48190475Y8155477D01*
X48190475Y8155477D02*
X48238094Y8345953D01*
X48238094Y8345953D02*
X48238094Y8488810D01*
X48238094Y8488810D02*
X48190475Y8679286D01*
X48190475Y8679286D02*
X48142856Y8774524D01*
X48142856Y8774524D02*
X48047618Y8869762D01*
X48047618Y8869762D02*
X47904761Y8917381D01*
X47904761Y8917381D02*
X47809523Y8917381D01*
X47809523Y8917381D02*
X47666666Y8869762D01*
X47666666Y8869762D02*
X47619047Y8822143D01*
X46904761Y8917381D02*
X46904761Y8203096D01*
X46904761Y8203096D02*
X46952380Y8060239D01*
X46952380Y8060239D02*
X47047618Y7965000D01*
X47047618Y7965000D02*
X47190475Y7917381D01*
X47190475Y7917381D02*
X47285713Y7917381D01*
X45952380Y7917381D02*
X46428570Y7917381D01*
X46428570Y7917381D02*
X46428570Y8917381D01*
X45047618Y8012620D02*
X45095237Y7965000D01*
X45095237Y7965000D02*
X45238094Y7917381D01*
X45238094Y7917381D02*
X45333332Y7917381D01*
X45333332Y7917381D02*
X45476189Y7965000D01*
X45476189Y7965000D02*
X45571427Y8060239D01*
X45571427Y8060239D02*
X45619046Y8155477D01*
X45619046Y8155477D02*
X45666665Y8345953D01*
X45666665Y8345953D02*
X45666665Y8488810D01*
X45666665Y8488810D02*
X45619046Y8679286D01*
X45619046Y8679286D02*
X45571427Y8774524D01*
X45571427Y8774524D02*
X45476189Y8869762D01*
X45476189Y8869762D02*
X45333332Y8917381D01*
X45333332Y8917381D02*
X45238094Y8917381D01*
X45238094Y8917381D02*
X45095237Y8869762D01*
X45095237Y8869762D02*
X45047618Y8822143D01*
G04 #@! TO.C,GRAF3*
D11*
X32111332Y10461567D02*
X32230981Y10425953D01*
X32333280Y10360131D01*
X32412411Y10266102D01*
X32413931Y10263602D01*
X32449251Y10195064D01*
X32468911Y10125283D01*
X32478269Y10035499D01*
X32479597Y9993165D01*
X32465242Y9853264D01*
X32420464Y9737682D01*
X32345027Y9645966D01*
X32238695Y9577666D01*
X32223988Y9571084D01*
X32094244Y9535058D01*
X31965441Y9537199D01*
X31841914Y9576863D01*
X31727998Y9653408D01*
X31690081Y9688552D01*
X31654834Y9725922D01*
X31641231Y9747264D01*
X31644755Y9754204D01*
X31673096Y9777504D01*
X31720557Y9805214D01*
X31799883Y9845683D01*
X31867775Y9786072D01*
X31903904Y9758482D01*
X31981404Y9727451D01*
X32057933Y9735456D01*
X32133179Y9782501D01*
X32164231Y9813099D01*
X32185977Y9847999D01*
X32197588Y9895290D01*
X32204160Y9968313D01*
X32205949Y10033610D01*
X32194410Y10131222D01*
X32162338Y10200425D01*
X32108372Y10245153D01*
X32032889Y10270561D01*
X31960737Y10261481D01*
X31888507Y10214977D01*
X31821809Y10156415D01*
X31731679Y10206789D01*
X31709064Y10219701D01*
X31668257Y10247419D01*
X31654405Y10269539D01*
X31661191Y10293865D01*
X31677964Y10318156D01*
X31734173Y10370000D01*
X31807960Y10416229D01*
X31885462Y10447357D01*
X31980151Y10464970D01*
X32111332Y10461567D01*
G36*
X32111332Y10461567D02*
G01*
X32230981Y10425953D01*
X32333280Y10360131D01*
X32412411Y10266102D01*
X32413931Y10263602D01*
X32449251Y10195064D01*
X32468911Y10125283D01*
X32478269Y10035499D01*
X32479597Y9993165D01*
X32465242Y9853264D01*
X32420464Y9737682D01*
X32345027Y9645966D01*
X32238695Y9577666D01*
X32223988Y9571084D01*
X32094244Y9535058D01*
X31965441Y9537199D01*
X31841914Y9576863D01*
X31727998Y9653408D01*
X31690081Y9688552D01*
X31654834Y9725922D01*
X31641231Y9747264D01*
X31644755Y9754204D01*
X31673096Y9777504D01*
X31720557Y9805214D01*
X31799883Y9845683D01*
X31867775Y9786072D01*
X31903904Y9758482D01*
X31981404Y9727451D01*
X32057933Y9735456D01*
X32133179Y9782501D01*
X32164231Y9813099D01*
X32185977Y9847999D01*
X32197588Y9895290D01*
X32204160Y9968313D01*
X32205949Y10033610D01*
X32194410Y10131222D01*
X32162338Y10200425D01*
X32108372Y10245153D01*
X32032889Y10270561D01*
X31960737Y10261481D01*
X31888507Y10214977D01*
X31821809Y10156415D01*
X31731679Y10206789D01*
X31709064Y10219701D01*
X31668257Y10247419D01*
X31654405Y10269539D01*
X31661191Y10293865D01*
X31677964Y10318156D01*
X31734173Y10370000D01*
X31807960Y10416229D01*
X31885462Y10447357D01*
X31980151Y10464970D01*
X32111332Y10461567D01*
G37*
X31235087Y10462447D02*
X31339475Y10432072D01*
X31364117Y10419804D01*
X31461800Y10345922D01*
X31536905Y10245772D01*
X31585124Y10126514D01*
X31602154Y9995306D01*
X31588536Y9871655D01*
X31542881Y9751809D01*
X31467214Y9653859D01*
X31363723Y9581605D01*
X31280352Y9549063D01*
X31148419Y9531507D01*
X31009070Y9552208D01*
X30986973Y9560330D01*
X30931448Y9591053D01*
X30871639Y9633759D01*
X30817095Y9680601D01*
X30777365Y9723728D01*
X30762000Y9755291D01*
X30764706Y9762751D01*
X30792090Y9787699D01*
X30839444Y9814065D01*
X30916888Y9848987D01*
X30986663Y9787725D01*
X31006578Y9771594D01*
X31084451Y9732327D01*
X31159213Y9728155D01*
X31225937Y9756004D01*
X31279697Y9812803D01*
X31315565Y9895480D01*
X31328616Y10000962D01*
X31328177Y10023042D01*
X31310986Y10128382D01*
X31270310Y10207135D01*
X31208245Y10256466D01*
X31126890Y10273539D01*
X31073913Y10260146D01*
X31013678Y10224964D01*
X30964922Y10178217D01*
X30958361Y10170720D01*
X30938765Y10163009D01*
X30906758Y10172940D01*
X30852388Y10202677D01*
X30840859Y10209511D01*
X30793686Y10241428D01*
X30775227Y10265623D01*
X30779557Y10289126D01*
X30825953Y10349289D01*
X30908378Y10408030D01*
X31010240Y10448053D01*
X31122242Y10466983D01*
X31235087Y10462447D01*
G36*
X31235087Y10462447D02*
G01*
X31339475Y10432072D01*
X31364117Y10419804D01*
X31461800Y10345922D01*
X31536905Y10245772D01*
X31585124Y10126514D01*
X31602154Y9995306D01*
X31588536Y9871655D01*
X31542881Y9751809D01*
X31467214Y9653859D01*
X31363723Y9581605D01*
X31280352Y9549063D01*
X31148419Y9531507D01*
X31009070Y9552208D01*
X30986973Y9560330D01*
X30931448Y9591053D01*
X30871639Y9633759D01*
X30817095Y9680601D01*
X30777365Y9723728D01*
X30762000Y9755291D01*
X30764706Y9762751D01*
X30792090Y9787699D01*
X30839444Y9814065D01*
X30916888Y9848987D01*
X30986663Y9787725D01*
X31006578Y9771594D01*
X31084451Y9732327D01*
X31159213Y9728155D01*
X31225937Y9756004D01*
X31279697Y9812803D01*
X31315565Y9895480D01*
X31328616Y10000962D01*
X31328177Y10023042D01*
X31310986Y10128382D01*
X31270310Y10207135D01*
X31208245Y10256466D01*
X31126890Y10273539D01*
X31073913Y10260146D01*
X31013678Y10224964D01*
X30964922Y10178217D01*
X30958361Y10170720D01*
X30938765Y10163009D01*
X30906758Y10172940D01*
X30852388Y10202677D01*
X30840859Y10209511D01*
X30793686Y10241428D01*
X30775227Y10265623D01*
X30779557Y10289126D01*
X30825953Y10349289D01*
X30908378Y10408030D01*
X31010240Y10448053D01*
X31122242Y10466983D01*
X31235087Y10462447D01*
G37*
X28981480Y9866959D02*
X28956836Y9673517D01*
X28921390Y9548306D01*
X28910807Y9510920D01*
X28842941Y9377745D01*
X28752785Y9272566D01*
X28709094Y9234515D01*
X28646195Y9188905D01*
X28584600Y9160219D01*
X28509283Y9140295D01*
X28431329Y9131033D01*
X28318276Y9133381D01*
X28205941Y9149724D01*
X28112792Y9178294D01*
X28066924Y9201654D01*
X27960509Y9285658D01*
X27873289Y9401809D01*
X27806600Y9548036D01*
X27761779Y9722268D01*
X27749484Y9798644D01*
X27736482Y9936518D01*
X27737998Y10052198D01*
X28089697Y10052198D01*
X28092197Y9941157D01*
X28101250Y9826641D01*
X28115890Y9722777D01*
X28135151Y9643692D01*
X28145795Y9617091D01*
X28183099Y9551207D01*
X28225245Y9502038D01*
X28258571Y9479666D01*
X28325111Y9456996D01*
X28393708Y9454069D01*
X28454685Y9469342D01*
X28498366Y9501269D01*
X28515077Y9548306D01*
X28514629Y9550679D01*
X28501331Y9580640D01*
X28471760Y9637632D01*
X28428881Y9716202D01*
X28375656Y9810896D01*
X28315052Y9916262D01*
X28115027Y10260298D01*
X28098892Y10174111D01*
X28094716Y10145638D01*
X28089697Y10052198D01*
X27737998Y10052198D01*
X27738268Y10072822D01*
X27754570Y10226536D01*
X27772779Y10331117D01*
X27815128Y10474566D01*
X28272053Y10474566D01*
X28276125Y10446033D01*
X28290655Y10405094D01*
X28317835Y10346344D01*
X28359859Y10264381D01*
X28418921Y10153804D01*
X28467438Y10063737D01*
X28524124Y9958955D01*
X28565921Y9883836D01*
X28595189Y9835670D01*
X28614288Y9811746D01*
X28625578Y9809355D01*
X28631418Y9825788D01*
X28634167Y9858334D01*
X28636185Y9904284D01*
X28638146Y9965016D01*
X28633451Y10127314D01*
X28614163Y10267465D01*
X28581276Y10381603D01*
X28535785Y10465864D01*
X28478683Y10516383D01*
X28444564Y10531648D01*
X28372173Y10547355D01*
X28314080Y10536803D01*
X28278145Y10500611D01*
X28276246Y10496092D01*
X28272053Y10474566D01*
X27815128Y10474566D01*
X27822002Y10497849D01*
X27892347Y10633030D01*
X27984604Y10738004D01*
X28099562Y10814116D01*
X28158500Y10840803D01*
X28216567Y10858563D01*
X28281189Y10866259D01*
X28368539Y10867075D01*
X28479434Y10860181D01*
X28579519Y10837758D01*
X28666009Y10795416D01*
X28751492Y10728604D01*
X28799538Y10679494D01*
X28882214Y10555661D01*
X28940721Y10402862D01*
X28975312Y10220322D01*
X28986238Y10007269D01*
X28984805Y9965016D01*
X28981480Y9866959D01*
G36*
X28981480Y9866959D02*
G01*
X28956836Y9673517D01*
X28921390Y9548306D01*
X28910807Y9510920D01*
X28842941Y9377745D01*
X28752785Y9272566D01*
X28709094Y9234515D01*
X28646195Y9188905D01*
X28584600Y9160219D01*
X28509283Y9140295D01*
X28431329Y9131033D01*
X28318276Y9133381D01*
X28205941Y9149724D01*
X28112792Y9178294D01*
X28066924Y9201654D01*
X27960509Y9285658D01*
X27873289Y9401809D01*
X27806600Y9548036D01*
X27761779Y9722268D01*
X27749484Y9798644D01*
X27736482Y9936518D01*
X27737998Y10052198D01*
X28089697Y10052198D01*
X28092197Y9941157D01*
X28101250Y9826641D01*
X28115890Y9722777D01*
X28135151Y9643692D01*
X28145795Y9617091D01*
X28183099Y9551207D01*
X28225245Y9502038D01*
X28258571Y9479666D01*
X28325111Y9456996D01*
X28393708Y9454069D01*
X28454685Y9469342D01*
X28498366Y9501269D01*
X28515077Y9548306D01*
X28514629Y9550679D01*
X28501331Y9580640D01*
X28471760Y9637632D01*
X28428881Y9716202D01*
X28375656Y9810896D01*
X28315052Y9916262D01*
X28115027Y10260298D01*
X28098892Y10174111D01*
X28094716Y10145638D01*
X28089697Y10052198D01*
X27737998Y10052198D01*
X27738268Y10072822D01*
X27754570Y10226536D01*
X27772779Y10331117D01*
X27815128Y10474566D01*
X28272053Y10474566D01*
X28276125Y10446033D01*
X28290655Y10405094D01*
X28317835Y10346344D01*
X28359859Y10264381D01*
X28418921Y10153804D01*
X28467438Y10063737D01*
X28524124Y9958955D01*
X28565921Y9883836D01*
X28595189Y9835670D01*
X28614288Y9811746D01*
X28625578Y9809355D01*
X28631418Y9825788D01*
X28634167Y9858334D01*
X28636185Y9904284D01*
X28638146Y9965016D01*
X28633451Y10127314D01*
X28614163Y10267465D01*
X28581276Y10381603D01*
X28535785Y10465864D01*
X28478683Y10516383D01*
X28444564Y10531648D01*
X28372173Y10547355D01*
X28314080Y10536803D01*
X28278145Y10500611D01*
X28276246Y10496092D01*
X28272053Y10474566D01*
X27815128Y10474566D01*
X27822002Y10497849D01*
X27892347Y10633030D01*
X27984604Y10738004D01*
X28099562Y10814116D01*
X28158500Y10840803D01*
X28216567Y10858563D01*
X28281189Y10866259D01*
X28368539Y10867075D01*
X28479434Y10860181D01*
X28579519Y10837758D01*
X28666009Y10795416D01*
X28751492Y10728604D01*
X28799538Y10679494D01*
X28882214Y10555661D01*
X28940721Y10402862D01*
X28975312Y10220322D01*
X28986238Y10007269D01*
X28984805Y9965016D01*
X28981480Y9866959D01*
G37*
X29872791Y9807361D02*
X29828098Y9586270D01*
X29750979Y9373761D01*
X29641960Y9173849D01*
X29501565Y8990550D01*
X29330318Y8827878D01*
X29258665Y8773200D01*
X29048814Y8646066D01*
X28822036Y8553243D01*
X28582701Y8496667D01*
X28529245Y8490413D01*
X28397718Y8486072D01*
X28251603Y8492691D01*
X28106088Y8509313D01*
X27976363Y8534976D01*
X27889193Y8560597D01*
X27683462Y8647037D01*
X27487535Y8764633D01*
X27308404Y8908097D01*
X27153060Y9072145D01*
X27028497Y9251491D01*
X27021923Y9263033D01*
X26930753Y9463591D01*
X26871660Y9680000D01*
X26844543Y9906302D01*
X26846503Y10001025D01*
X27107932Y10001025D01*
X27122905Y9799380D01*
X27171467Y9601314D01*
X27254299Y9410977D01*
X27372085Y9232522D01*
X27411618Y9185903D01*
X27545288Y9060157D01*
X27702582Y8948959D01*
X27872303Y8859542D01*
X28043253Y8799137D01*
X28160214Y8774402D01*
X28379243Y8757377D01*
X28595157Y8778008D01*
X28803936Y8835746D01*
X29001557Y8930042D01*
X29008876Y8934439D01*
X29100350Y9000080D01*
X29200572Y9087678D01*
X29298995Y9186686D01*
X29385076Y9286559D01*
X29448267Y9376751D01*
X29532679Y9549310D01*
X29594064Y9754249D01*
X29619198Y9965394D01*
X29607517Y10177567D01*
X29558456Y10385589D01*
X29533123Y10452718D01*
X29450390Y10612840D01*
X29341458Y10768022D01*
X29213615Y10909758D01*
X29074147Y11029542D01*
X28930339Y11118866D01*
X28874013Y11145050D01*
X28672769Y11212681D01*
X28463972Y11246007D01*
X28253455Y11245378D01*
X28047052Y11211144D01*
X27850595Y11143654D01*
X27669918Y11043259D01*
X27512983Y10917615D01*
X27370259Y10760353D01*
X27257710Y10585911D01*
X27176017Y10398442D01*
X27125863Y10202096D01*
X27107932Y10001025D01*
X26846503Y10001025D01*
X26849306Y10136541D01*
X26885850Y10364759D01*
X26954077Y10585001D01*
X27053888Y10791308D01*
X27120353Y10889018D01*
X27217359Y11004866D01*
X27328792Y11118507D01*
X27444068Y11219221D01*
X27552602Y11296292D01*
X27622761Y11336055D01*
X27834872Y11427681D01*
X28062551Y11488413D01*
X28298289Y11517147D01*
X28534579Y11512781D01*
X28763914Y11474212D01*
X28785476Y11468540D01*
X28965418Y11402374D01*
X29145551Y11305304D01*
X29317123Y11183446D01*
X29471384Y11042922D01*
X29599584Y10889849D01*
X29716833Y10697244D01*
X29807082Y10481975D01*
X29862808Y10259228D01*
X29884536Y10033018D01*
X29881016Y9965394D01*
X29872791Y9807361D01*
G36*
X29872791Y9807361D02*
G01*
X29828098Y9586270D01*
X29750979Y9373761D01*
X29641960Y9173849D01*
X29501565Y8990550D01*
X29330318Y8827878D01*
X29258665Y8773200D01*
X29048814Y8646066D01*
X28822036Y8553243D01*
X28582701Y8496667D01*
X28529245Y8490413D01*
X28397718Y8486072D01*
X28251603Y8492691D01*
X28106088Y8509313D01*
X27976363Y8534976D01*
X27889193Y8560597D01*
X27683462Y8647037D01*
X27487535Y8764633D01*
X27308404Y8908097D01*
X27153060Y9072145D01*
X27028497Y9251491D01*
X27021923Y9263033D01*
X26930753Y9463591D01*
X26871660Y9680000D01*
X26844543Y9906302D01*
X26846503Y10001025D01*
X27107932Y10001025D01*
X27122905Y9799380D01*
X27171467Y9601314D01*
X27254299Y9410977D01*
X27372085Y9232522D01*
X27411618Y9185903D01*
X27545288Y9060157D01*
X27702582Y8948959D01*
X27872303Y8859542D01*
X28043253Y8799137D01*
X28160214Y8774402D01*
X28379243Y8757377D01*
X28595157Y8778008D01*
X28803936Y8835746D01*
X29001557Y8930042D01*
X29008876Y8934439D01*
X29100350Y9000080D01*
X29200572Y9087678D01*
X29298995Y9186686D01*
X29385076Y9286559D01*
X29448267Y9376751D01*
X29532679Y9549310D01*
X29594064Y9754249D01*
X29619198Y9965394D01*
X29607517Y10177567D01*
X29558456Y10385589D01*
X29533123Y10452718D01*
X29450390Y10612840D01*
X29341458Y10768022D01*
X29213615Y10909758D01*
X29074147Y11029542D01*
X28930339Y11118866D01*
X28874013Y11145050D01*
X28672769Y11212681D01*
X28463972Y11246007D01*
X28253455Y11245378D01*
X28047052Y11211144D01*
X27850595Y11143654D01*
X27669918Y11043259D01*
X27512983Y10917615D01*
X27370259Y10760353D01*
X27257710Y10585911D01*
X27176017Y10398442D01*
X27125863Y10202096D01*
X27107932Y10001025D01*
X26846503Y10001025D01*
X26849306Y10136541D01*
X26885850Y10364759D01*
X26954077Y10585001D01*
X27053888Y10791308D01*
X27120353Y10889018D01*
X27217359Y11004866D01*
X27328792Y11118507D01*
X27444068Y11219221D01*
X27552602Y11296292D01*
X27622761Y11336055D01*
X27834872Y11427681D01*
X28062551Y11488413D01*
X28298289Y11517147D01*
X28534579Y11512781D01*
X28763914Y11474212D01*
X28785476Y11468540D01*
X28965418Y11402374D01*
X29145551Y11305304D01*
X29317123Y11183446D01*
X29471384Y11042922D01*
X29599584Y10889849D01*
X29716833Y10697244D01*
X29807082Y10481975D01*
X29862808Y10259228D01*
X29884536Y10033018D01*
X29881016Y9965394D01*
X29872791Y9807361D01*
G37*
X33140535Y9941997D02*
X33114239Y9709698D01*
X33051194Y9485750D01*
X32952401Y9273057D01*
X32818861Y9074527D01*
X32651575Y8893065D01*
X32650519Y8892078D01*
X32472932Y8750072D01*
X32274960Y8634097D01*
X32065147Y8548385D01*
X31852036Y8497165D01*
X31792831Y8490350D01*
X31661804Y8485460D01*
X31517661Y8490156D01*
X31376333Y8503688D01*
X31253751Y8525308D01*
X31111382Y8567096D01*
X30900450Y8660683D01*
X30704617Y8785872D01*
X30528345Y8938596D01*
X30376092Y9114788D01*
X30252320Y9310381D01*
X30161488Y9521308D01*
X30141101Y9585328D01*
X30126685Y9642145D01*
X30117274Y9700745D01*
X30111786Y9770450D01*
X30109141Y9860582D01*
X30108257Y9980462D01*
X30108456Y10000000D01*
X30364724Y10000000D01*
X30370085Y9839532D01*
X30393839Y9679846D01*
X30439983Y9534843D01*
X30512259Y9393186D01*
X30614407Y9243543D01*
X30684202Y9161585D01*
X30819642Y9039701D01*
X30976986Y8932760D01*
X31145852Y8847466D01*
X31315852Y8790528D01*
X31358637Y8781938D01*
X31440787Y8770552D01*
X31533045Y8761869D01*
X31623233Y8756736D01*
X31699174Y8755996D01*
X31748692Y8760495D01*
X31771304Y8765415D01*
X31827822Y8777061D01*
X31895231Y8790473D01*
X31911196Y8794010D01*
X31986608Y8816680D01*
X32076119Y8850105D01*
X32163640Y8888414D01*
X32185539Y8899184D01*
X32361307Y9009053D01*
X32518836Y9149446D01*
X32653427Y9314701D01*
X32760380Y9499157D01*
X32834995Y9697154D01*
X32848612Y9761948D01*
X32860389Y9880220D01*
X32862601Y10013629D01*
X32855631Y10148830D01*
X32839862Y10272479D01*
X32815676Y10371231D01*
X32770203Y10484902D01*
X32667892Y10669200D01*
X32539315Y10834985D01*
X32389038Y10978174D01*
X32221627Y11094685D01*
X32041649Y11180435D01*
X31853669Y11231343D01*
X31759944Y11242644D01*
X31617025Y11247316D01*
X31470736Y11240097D01*
X31334844Y11221816D01*
X31223114Y11193304D01*
X31157005Y11168227D01*
X30956439Y11065990D01*
X30780224Y10933990D01*
X30630477Y10774366D01*
X30509318Y10589261D01*
X30418866Y10380813D01*
X30404547Y10337020D01*
X30384761Y10264156D01*
X30372805Y10192678D01*
X30366764Y10109115D01*
X30364724Y10000000D01*
X30108456Y10000000D01*
X30109665Y10118713D01*
X30116892Y10249886D01*
X30131999Y10360933D01*
X30156951Y10461868D01*
X30193712Y10562705D01*
X30244249Y10673459D01*
X30257089Y10699156D01*
X30381589Y10901304D01*
X30533628Y11078271D01*
X30709636Y11228177D01*
X30906042Y11349139D01*
X31119275Y11439275D01*
X31345762Y11496705D01*
X31581934Y11519547D01*
X31824219Y11505919D01*
X31852752Y11501896D01*
X32078478Y11451842D01*
X32283837Y11370769D01*
X32474249Y11256065D01*
X32655132Y11105115D01*
X32684913Y11076060D01*
X32845439Y10892109D01*
X32970059Y10695081D01*
X33060541Y10481714D01*
X33118648Y10248748D01*
X33129080Y10179741D01*
X33137084Y10013629D01*
X33140535Y9941997D01*
G36*
X33140535Y9941997D02*
G01*
X33114239Y9709698D01*
X33051194Y9485750D01*
X32952401Y9273057D01*
X32818861Y9074527D01*
X32651575Y8893065D01*
X32650519Y8892078D01*
X32472932Y8750072D01*
X32274960Y8634097D01*
X32065147Y8548385D01*
X31852036Y8497165D01*
X31792831Y8490350D01*
X31661804Y8485460D01*
X31517661Y8490156D01*
X31376333Y8503688D01*
X31253751Y8525308D01*
X31111382Y8567096D01*
X30900450Y8660683D01*
X30704617Y8785872D01*
X30528345Y8938596D01*
X30376092Y9114788D01*
X30252320Y9310381D01*
X30161488Y9521308D01*
X30141101Y9585328D01*
X30126685Y9642145D01*
X30117274Y9700745D01*
X30111786Y9770450D01*
X30109141Y9860582D01*
X30108257Y9980462D01*
X30108456Y10000000D01*
X30364724Y10000000D01*
X30370085Y9839532D01*
X30393839Y9679846D01*
X30439983Y9534843D01*
X30512259Y9393186D01*
X30614407Y9243543D01*
X30684202Y9161585D01*
X30819642Y9039701D01*
X30976986Y8932760D01*
X31145852Y8847466D01*
X31315852Y8790528D01*
X31358637Y8781938D01*
X31440787Y8770552D01*
X31533045Y8761869D01*
X31623233Y8756736D01*
X31699174Y8755996D01*
X31748692Y8760495D01*
X31771304Y8765415D01*
X31827822Y8777061D01*
X31895231Y8790473D01*
X31911196Y8794010D01*
X31986608Y8816680D01*
X32076119Y8850105D01*
X32163640Y8888414D01*
X32185539Y8899184D01*
X32361307Y9009053D01*
X32518836Y9149446D01*
X32653427Y9314701D01*
X32760380Y9499157D01*
X32834995Y9697154D01*
X32848612Y9761948D01*
X32860389Y9880220D01*
X32862601Y10013629D01*
X32855631Y10148830D01*
X32839862Y10272479D01*
X32815676Y10371231D01*
X32770203Y10484902D01*
X32667892Y10669200D01*
X32539315Y10834985D01*
X32389038Y10978174D01*
X32221627Y11094685D01*
X32041649Y11180435D01*
X31853669Y11231343D01*
X31759944Y11242644D01*
X31617025Y11247316D01*
X31470736Y11240097D01*
X31334844Y11221816D01*
X31223114Y11193304D01*
X31157005Y11168227D01*
X30956439Y11065990D01*
X30780224Y10933990D01*
X30630477Y10774366D01*
X30509318Y10589261D01*
X30418866Y10380813D01*
X30404547Y10337020D01*
X30384761Y10264156D01*
X30372805Y10192678D01*
X30366764Y10109115D01*
X30364724Y10000000D01*
X30108456Y10000000D01*
X30109665Y10118713D01*
X30116892Y10249886D01*
X30131999Y10360933D01*
X30156951Y10461868D01*
X30193712Y10562705D01*
X30244249Y10673459D01*
X30257089Y10699156D01*
X30381589Y10901304D01*
X30533628Y11078271D01*
X30709636Y11228177D01*
X30906042Y11349139D01*
X31119275Y11439275D01*
X31345762Y11496705D01*
X31581934Y11519547D01*
X31824219Y11505919D01*
X31852752Y11501896D01*
X32078478Y11451842D01*
X32283837Y11370769D01*
X32474249Y11256065D01*
X32655132Y11105115D01*
X32684913Y11076060D01*
X32845439Y10892109D01*
X32970059Y10695081D01*
X33060541Y10481714D01*
X33118648Y10248748D01*
X33129080Y10179741D01*
X33137084Y10013629D01*
X33140535Y9941997D01*
G37*
G04 #@! TD*
M02*
