G04 #@! TF.GenerationSoftware,KiCad,Pcbnew,7.0.0-rc2-unknown-92a61b187f~165~ubuntu22.04.1*
G04 #@! TF.CreationDate,2023-02-10T23:31:31-05:00*
G04 #@! TF.ProjectId,pmf_b2,706d665f-6232-42e6-9b69-6361645f7063,rev?*
G04 #@! TF.SameCoordinates,Original*
G04 #@! TF.FileFunction,Soldermask,Bot*
G04 #@! TF.FilePolarity,Negative*
%FSLAX46Y46*%
G04 Gerber Fmt 4.6, Leading zero omitted, Abs format (unit mm)*
G04 Created by KiCad (PCBNEW 7.0.0-rc2-unknown-92a61b187f~165~ubuntu22.04.1) date 2023-02-10 23:31:31*
%MOMM*%
%LPD*%
G01*
G04 APERTURE LIST*
%ADD10C,3.200000*%
%ADD11C,1.500000*%
%ADD12C,2.340000*%
%ADD13C,1.600000*%
%ADD14O,1.600000X1.600000*%
%ADD15R,1.600000X1.600000*%
%ADD16C,1.440000*%
%ADD17R,1.600000X2.400000*%
%ADD18O,1.600000X2.400000*%
%ADD19R,1.700000X1.700000*%
%ADD20O,1.700000X1.700000*%
G04 APERTURE END LIST*
D10*
G04 #@! TO.C,H6*
X192500000Y-58000000D03*
G04 #@! TD*
D11*
G04 #@! TO.C,TP10*
X106080000Y-132720000D03*
G04 #@! TD*
D12*
G04 #@! TO.C,RV10*
X172500000Y-154000000D03*
X177500000Y-154000000D03*
X182500000Y-154000000D03*
G04 #@! TD*
D10*
G04 #@! TO.C,H4*
X107500000Y-49000000D03*
G04 #@! TD*
D12*
G04 #@! TO.C,RV8*
X122500000Y-114000000D03*
X127500000Y-114000000D03*
X132500000Y-114000000D03*
G04 #@! TD*
D11*
G04 #@! TO.C,TP11*
X106080000Y-124350000D03*
G04 #@! TD*
D12*
G04 #@! TO.C,RV7*
X172500000Y-69000000D03*
X177500000Y-69000000D03*
X182500000Y-69000000D03*
G04 #@! TD*
G04 #@! TO.C,RV6*
X122500000Y-69000000D03*
X127500000Y-69000000D03*
X132500000Y-69000000D03*
G04 #@! TD*
D11*
G04 #@! TO.C,TP12*
X106080000Y-115460000D03*
G04 #@! TD*
D10*
G04 #@! TO.C,H5*
X107500000Y-142000000D03*
G04 #@! TD*
D12*
G04 #@! TO.C,RV9*
X122500000Y-154000000D03*
X127500000Y-154000000D03*
X132500000Y-154000000D03*
G04 #@! TD*
D13*
G04 #@! TO.C,R71*
X125130000Y-76090000D03*
D14*
X125129999Y-86249999D03*
G04 #@! TD*
D13*
G04 #@! TO.C,R65*
X153070000Y-119260000D03*
D14*
X153069999Y-129419999D03*
G04 #@! TD*
D13*
G04 #@! TO.C,R74*
X120050000Y-86250000D03*
D14*
X120049999Y-76089999D03*
G04 #@! TD*
D13*
G04 #@! TO.C,R66*
X145450000Y-60850000D03*
D14*
X145449999Y-50689999D03*
G04 #@! TD*
D13*
G04 #@! TO.C,C15*
X145450000Y-76090000D03*
X145450000Y-78590000D03*
G04 #@! TD*
G04 #@! TO.C,C17*
X146710000Y-140850000D03*
X144210000Y-140850000D03*
G04 #@! TD*
G04 #@! TO.C,R68*
X147980000Y-129420000D03*
D14*
X147979999Y-119259999D03*
G04 #@! TD*
D13*
G04 #@! TO.C,R59*
X155610000Y-60850000D03*
D14*
X155609999Y-50689999D03*
G04 #@! TD*
D15*
G04 #@! TO.C,D3*
X147979999Y-144659999D03*
D14*
X147979999Y-152279999D03*
G04 #@! TD*
D16*
G04 #@! TO.C,RV5*
X113700000Y-100220000D03*
X111160000Y-100220000D03*
X108620000Y-100220000D03*
G04 #@! TD*
D13*
G04 #@! TO.C,C18*
X164490000Y-133230000D03*
X161990000Y-133230000D03*
G04 #@! TD*
G04 #@! TO.C,R72*
X114970000Y-76090000D03*
D14*
X114969999Y-86249999D03*
G04 #@! TD*
D13*
G04 #@! TO.C,R73*
X153060000Y-144660000D03*
D14*
X153059999Y-154819999D03*
G04 #@! TD*
D17*
G04 #@! TO.C,U3*
X155609999Y-72279999D03*
D18*
X153069999Y-72279999D03*
X150529999Y-72279999D03*
X147989999Y-72279999D03*
X145449999Y-72279999D03*
X142909999Y-72279999D03*
X140369999Y-72279999D03*
X140369999Y-64659999D03*
X142909999Y-64659999D03*
X145449999Y-64659999D03*
X147989999Y-64659999D03*
X150529999Y-64659999D03*
X153069999Y-64659999D03*
X155609999Y-64659999D03*
G04 #@! TD*
D17*
G04 #@! TO.C,U4*
X150529999Y-133239999D03*
D18*
X153069999Y-133239999D03*
X155609999Y-133239999D03*
X158149999Y-133239999D03*
X158149999Y-140859999D03*
X155609999Y-140859999D03*
X153069999Y-140859999D03*
X150529999Y-140859999D03*
G04 #@! TD*
D13*
G04 #@! TO.C,R58*
X140370000Y-60850000D03*
D14*
X140369999Y-50689999D03*
G04 #@! TD*
D19*
G04 #@! TO.C,J4*
X163229999Y-154829999D03*
D20*
X163229999Y-152289999D03*
X163229999Y-149749999D03*
X163229999Y-147209999D03*
X163229999Y-144669999D03*
G04 #@! TD*
D13*
G04 #@! TO.C,R69*
X160690000Y-50690000D03*
D14*
X160689999Y-60849999D03*
G04 #@! TD*
D13*
G04 #@! TO.C,R62*
X155610000Y-86260000D03*
D14*
X155609999Y-76099999D03*
G04 #@! TD*
D13*
G04 #@! TO.C,C14*
X109890000Y-86210000D03*
X109890000Y-81210000D03*
G04 #@! TD*
G04 #@! TO.C,R70*
X158140000Y-154820000D03*
D14*
X158139999Y-144659999D03*
G04 #@! TD*
D16*
G04 #@! TO.C,RV11*
X113700000Y-92600000D03*
X111160000Y-92600000D03*
X108620000Y-92600000D03*
G04 #@! TD*
D13*
G04 #@! TO.C,R64*
X158160000Y-119270000D03*
D14*
X158159999Y-129429999D03*
G04 #@! TD*
D19*
G04 #@! TO.C,J3*
X111159999Y-128159999D03*
D20*
X111159999Y-125619999D03*
X111159999Y-123079999D03*
X111159999Y-120539999D03*
X111159999Y-117999999D03*
X111159999Y-115459999D03*
G04 #@! TD*
D13*
G04 #@! TO.C,R60*
X130200000Y-86240000D03*
D14*
X130199999Y-76079999D03*
G04 #@! TD*
D13*
G04 #@! TO.C,R61*
X135280000Y-86240000D03*
D14*
X135279999Y-76079999D03*
G04 #@! TD*
D13*
G04 #@! TO.C,C16*
X150530000Y-58310000D03*
X150530000Y-60810000D03*
G04 #@! TD*
G04 #@! TO.C,R63*
X150530000Y-86260000D03*
D14*
X150529999Y-76099999D03*
G04 #@! TD*
D15*
G04 #@! TO.C,D4*
X142899999Y-152279999D03*
D14*
X142899999Y-144659999D03*
G04 #@! TD*
D13*
G04 #@! TO.C,R67*
X140370000Y-76090000D03*
D14*
X140369999Y-86249999D03*
G04 #@! TD*
M02*
